<svg width="1781" height="1024" viewBox="0 0 1781 1024" fill="none" xmlns="http://www.w3.org/2000/svg">
<path opacity="0.6" d="M1160.88 710.676C1325.6 634.275 1534.82 744.832 1693.71 661.04C1734.59 639.484 1762.36 623.282 1781 611.104L1780.91 -0.000267473C1779.89 1.05378 1778.87 2.13404 1777.82 3.24084C1717.97 66.6522 1632.13 123.228 1553.14 154.124C1330.57 241.181 1015.72 151.265 840.54 143.181C626.251 133.292 369.579 342.745 84.6745 388.15C53.9157 393.052 25.7775 401.03 3.76002e-05 411.549L4.91183e-06 1019.77C220.198 990.88 495.363 1061.2 705.476 993.285C882.874 935.947 990.031 789.922 1160.88 710.676Z" fill="url(#paint0_linear_1265_423)"/>
<defs>
<linearGradient id="paint0_linear_1265_423" x1="1009.33" y1="657.516" x2="844.194" y2="-165.459" gradientUnits="userSpaceOnUse">
<stop stop-color="#BBE6FF"/>
<stop offset="1" stop-color="#BBE6FF" stop-opacity="0"/>
</linearGradient>
</defs>
</svg>
