<svg width="1781" height="563" viewBox="0 0 1781 563" fill="none" xmlns="http://www.w3.org/2000/svg">
<path opacity="0.6" d="M587.659 -365.549C436.009 -358.219 279.842 -490.9 279.842 -490.9L189.281 83.0299C189.281 83.0299 89.7775 84.7979 1.79744e-05 107.578L2.25024e-05 394.931C57.5086 435.478 28.0017 377.342 135.404 318.935C216.322 274.929 426.548 232.843 511.947 231.112C752.573 226.233 1006.62 446.747 1164.98 524.672C1318.08 600.015 1551.14 539.566 1781 542.639L1781 -300.158C1731.93 -316.138 1682.89 -326.916 1634.06 -329.261C1447.15 -338.234 1289.12 -224.761 1099.37 -207.76C916.441 -191.369 769.94 -374.36 587.659 -365.549Z" fill="url(#paint0_linear_1265_577)"/>
<defs>
<linearGradient id="paint0_linear_1265_577" x1="1024.75" y1="566.908" x2="967.085" y2="-96.7984" gradientUnits="userSpaceOnUse">
<stop stop-color="#BBE6FF"/>
<stop offset="1" stop-color="#BBE6FF" stop-opacity="0"/>
</linearGradient>
</defs>
</svg>
