<svg width="1782" height="607" viewBox="0 0 1782 607" fill="none" xmlns="http://www.w3.org/2000/svg">
<path opacity="0.6" d="M1244.96 173.868C1418.68 202.493 1561.54 136.811 1736.19 161.004C1750.84 163.034 1766.04 167.484 1781.52 173.846L1781.52 602.069C1770.45 596.575 1759.08 590.908 1747.3 585.159C1678.01 551.338 1540.04 465.737 1457.72 455.782C1225.79 427.732 1296.66 573.145 1127.36 601.393C920.264 635.947 492.761 481.888 290.665 431.168C110.541 385.964 65.8214 362.044 0.518346 287.797L0.518438 0.486384C122.067 39.0502 306.514 119.373 382.61 117.38C606.136 111.527 656.813 50.2672 879.32 67.8467C1062.1 82.2872 1064.77 144.177 1244.96 173.868Z" fill="#373A5E"/>
</svg>
