<svg width="1781" height="606" viewBox="0 0 1781 606" fill="none" xmlns="http://www.w3.org/2000/svg">
<path opacity="0.6" d="M1244.44 173.429C1418.16 202.054 1561.03 136.373 1735.68 160.566C1750.32 162.595 1765.52 167.045 1781 173.407L1781 601.63C1769.93 596.137 1758.56 590.469 1746.78 584.721C1677.49 550.9 1539.52 465.298 1457.2 455.343C1225.27 427.294 1296.14 572.706 1126.84 600.954C919.745 635.509 492.242 481.449 290.146 430.73C110.022 385.525 65.3029 361.605 -0.00020837 287.358L-0.000116585 0.0479073C121.548 38.6117 305.996 118.934 382.092 116.942C605.617 111.088 656.294 49.8287 878.802 67.4082C1061.58 81.8488 1064.25 143.739 1244.44 173.429Z" fill="#BBE6FF"/>
</svg>
