<svg width="1782" height="1025" viewBox="0 0 1782 1025" fill="none" xmlns="http://www.w3.org/2000/svg">
<path opacity="0.6" d="M1161.44 711.35C1326.16 634.948 1535.38 745.506 1694.27 661.714C1735.15 640.158 1762.92 623.956 1781.56 611.778L1781.47 0.673561C1780.45 1.72761 1779.43 2.80787 1778.38 3.91467C1718.53 67.326 1632.69 123.902 1553.7 154.798C1331.13 241.855 1016.28 151.939 841.1 143.855C626.811 133.966 370.139 343.419 85.2346 388.824C54.4757 393.726 26.3375 401.703 0.560096 412.222L0.560064 1020.44C220.758 991.554 495.923 1061.87 706.036 993.959C883.434 936.621 990.591 790.596 1161.44 711.35Z" fill="url(#paint0_linear_1358_3)"/>
<defs>
<linearGradient id="paint0_linear_1358_3" x1="1009.89" y1="658.19" x2="844.754" y2="-164.785" gradientUnits="userSpaceOnUse">
<stop stop-color="#373A5E"/>
<stop offset="1" stop-opacity="0"/>
</linearGradient>
</defs>
</svg>
