<svg width="1781" height="846" viewBox="0 0 1781 846" fill="none" xmlns="http://www.w3.org/2000/svg">
<path opacity="0.6" d="M-151.001 558.078C-151.001 558.078 43.2569 213.778 189.467 182.513C365.211 144.933 511.233 225.85 685.922 182.513C867.117 137.561 868.177 56.6183 1052.39 31.5008C1276.64 0.923607 1329.44 79.2183 1555.34 79.2186C1661.33 79.2187 1971.04 -132.081 2040.3 -115.02C2102.66 -99.6571 2045.55 125.505 1970.3 249.318C1890.59 380.491 1859.26 412.828 1656.5 486C1453.74 559.172 1026.06 775.056 816 737C644.271 705.888 712 513.5 478.5 558.078C395.63 573.899 258.557 690.446 189.467 737C84.5812 807.674 12.3997 868.787 -106.5 836.524C-152.68 823.993 -163.554 828.535 -165.794 832.704L-166 836.524C-166 836.524 -166.842 834.655 -165.794 832.704L-151.001 558.078Z" fill="#BBE6FF"/>
</svg>
