<svg width="1779" height="849" viewBox="0 0 1779 849" fill="none" xmlns="http://www.w3.org/2000/svg">
<path opacity="0.6" d="M685.922 190.219C511.232 233.556 365.211 152.639 189.467 190.219C128.843 203.182 59.9578 269.965 0.0852814 343.706L0 848.422C64.2873 834.586 119.627 791.766 189.467 744.706C258.557 698.152 395.63 581.605 478.5 565.784C712 521.206 644.271 713.594 816 744.706C1026.06 782.762 1453.74 566.878 1656.5 493.706C1706.75 475.573 1746.46 459.948 1779 444.706V0C1690.2 44.995 1602.56 86.9247 1555.34 86.9246C1329.44 86.9243 1276.64 8.62961 1052.39 39.2068C868.177 64.3243 867.117 145.267 685.922 190.219Z" fill="#373A5E"/>
</svg>
