<svg width="306" height="148" viewBox="0 0 306 148" fill="none" xmlns="http://www.w3.org/2000/svg">
<path d="M296.334 39.8763C272.198 151.341 211.858 134.192 118.668 134.192C54.6104 134.192 0 136.828 0 112.757C2.23854 95.8977 53.3039 71.4979 118.668 57.1466C153.53 52.4994 188.393 50.3559 226.608 46.0688C251.55 43.2707 270.626 5.68685 283.595 1.76892C317.788 -3.23267 304.903 0.303652 296.334 39.8763Z" fill="url(#paint0_linear_213_127)"/>
<path d="M92.8873 80.0257C92.8873 84.3127 75.0896 97.514 64.7295 100.372C62.5078 100.372 14.7501 98.2285 11.3979 98.2285C27.4885 85.7418 51.6242 77.1676 64.7295 72.166C69.4225 72.166 81.4898 72.166 87.5238 72.166C91.5464 73.595 92.8873 76.4741 92.8873 80.0257Z" fill="#8DB0C4"/>
<path d="M93.1912 80.0257C93.1912 84.3128 75.0891 97.5139 64.729 100.372C62.5073 100.372 31.5109 98.9429 28.1587 98.9429C48.2718 96.0849 77.1007 94.6627 82.4642 72.166C87.1572 72.166 81.1232 72.166 87.1572 72.166C91.1799 73.595 93.1912 76.4741 93.1912 80.0257Z" fill="#739CB2"/>
<rect x="126.042" y="80.0256" width="9.38613" height="20.0064" rx="4.69307" fill="#739CB3"/>
<rect x="144.814" y="80.0256" width="9.38613" height="20.0064" rx="4.69307" fill="#739CB3"/>
<rect x="163.587" y="80.0256" width="9.38613" height="20.0064" rx="4.69307" fill="#739CB3"/>
<rect x="182.359" y="80.0256" width="9.38613" height="20.0064" rx="4.69307" fill="#739CB3"/>
<rect x="201.131" y="80.0256" width="9.38613" height="20.0064" rx="4.69307" fill="#739CB3"/>
<rect x="219.904" y="80.0256" width="9.38613" height="20.0064" rx="4.69307" fill="#739CB3"/>
<rect x="107.27" y="80.0256" width="9.38613" height="20.0064" rx="4.69307" fill="#739CB3"/>
<rect x="238.676" y="80.0256" width="9.38613" height="20.0064" rx="4.69307" fill="#739CB3"/>
<path d="M191.428 105.748C191.619 105.748 191.805 105.802 191.966 105.905L250.995 143.506C251.968 144.126 251.293 145.628 250.184 145.312L118.18 107.71C117.064 107.392 117.293 105.748 118.454 105.748H191.428Z" fill="#E8E8E8"/>
<path d="M191.428 105.748C191.619 105.748 191.805 105.803 191.966 105.905L248.733 142.188L193.306 108.739C193.162 108.652 192.998 108.603 192.829 108.596L121.349 105.748H191.428Z" fill="#212121" fill-opacity="0.09"/>
<g filter="url(#filter0_d_213_127)">
<path d="M271.546 68.76C268.906 68.76 266.639 68.2933 264.746 67.36C262.853 66.4267 261.306 65.2133 260.106 63.72C258.933 62.2267 258.066 60.6 257.506 58.84C256.946 57.08 256.666 55.3867 256.666 53.76V52.88C256.666 51.0667 256.946 49.28 257.506 47.52C258.093 45.76 258.986 44.16 260.186 42.72C261.386 41.28 262.906 40.1333 264.746 39.28C266.613 38.4 268.813 37.96 271.346 37.96C273.986 37.96 276.279 38.44 278.226 39.4C280.199 40.3333 281.773 41.6667 282.946 43.4C284.119 45.1067 284.826 47.1067 285.066 49.4H279.346C279.133 48.0667 278.653 46.9467 277.906 46.04C277.186 45.1067 276.266 44.4133 275.146 43.96C274.026 43.48 272.759 43.24 271.346 43.24C269.906 43.24 268.626 43.4933 267.506 44C266.386 44.48 265.453 45.1733 264.706 46.08C263.959 46.9867 263.386 48.0533 262.986 49.28C262.613 50.5067 262.426 51.8667 262.426 53.36C262.426 54.8 262.613 56.1333 262.986 57.36C263.386 58.5867 263.973 59.6667 264.746 60.6C265.519 61.5067 266.466 62.2133 267.586 62.72C268.733 63.2267 270.053 63.48 271.546 63.48C273.733 63.48 275.573 62.9467 277.066 61.88C278.586 60.7867 279.506 59.2667 279.826 57.32H285.546C285.279 59.4 284.573 61.3067 283.426 63.04C282.279 64.7733 280.706 66.16 278.706 67.2C276.706 68.24 274.319 68.76 271.546 68.76Z" fill="#FAA902"/>
</g>
<path fill-rule="evenodd" clip-rule="evenodd" d="M258.717 41.675C258.063 39.9897 256.606 38.6161 254.682 38.1064C253.276 37.734 251.859 37.8858 250.65 38.4392C251.312 40.1735 252.829 41.5733 254.823 42.0466C256.185 42.3701 257.548 42.2081 258.717 41.675Z" fill="#2BAD21"/>
<path fill-rule="evenodd" clip-rule="evenodd" d="M259.805 40.6621C258.924 40.0952 258.208 39.0391 257.931 37.7313C257.654 36.4239 257.878 35.1582 258.45 34.2669C259.331 34.8338 260.047 35.8899 260.324 37.1977C260.601 38.5051 260.377 39.7707 259.805 40.6621Z" fill="#2BAD21"/>
<defs>
<filter id="filter0_d_213_127" x="252.666" y="37.96" width="36.8799" height="38.8" filterUnits="userSpaceOnUse" color-interpolation-filters="sRGB">
<feFlood flood-opacity="0" result="BackgroundImageFix"/>
<feColorMatrix in="SourceAlpha" type="matrix" values="0 0 0 0 0 0 0 0 0 0 0 0 0 0 0 0 0 0 127 0" result="hardAlpha"/>
<feOffset dy="4"/>
<feGaussianBlur stdDeviation="2"/>
<feComposite in2="hardAlpha" operator="out"/>
<feColorMatrix type="matrix" values="0 0 0 0 1 0 0 0 0 0.898 0 0 0 0 0.7 0 0 0 0.25 0"/>
<feBlend mode="normal" in2="BackgroundImageFix" result="effect1_dropShadow_213_127"/>
<feBlend mode="normal" in="SourceGraphic" in2="effect1_dropShadow_213_127" result="shape"/>
</filter>
<linearGradient id="paint0_linear_213_127" x1="150.685" y1="-9.66334" x2="149" y2="157.5" gradientUnits="userSpaceOnUse">
<stop offset="0.723958" stop-color="#F1F1F1"/>
<stop offset="1" stop-color="#9B9B9B"/>
</linearGradient>
</defs>
</svg>
