<svg width="71" height="98" viewBox="0 0 71 98" fill="none" xmlns="http://www.w3.org/2000/svg">
<path d="M32.3513 86.2834L43.3192 85.5165L44.2627 87.1141L43.8488 87.1431C43.8488 87.1431 45.1851 90.6488 44.225 92.5236C43.5676 93.8074 42.8705 94.2986 41.4584 94.5928C39.3518 95.0317 37.7215 95.0559 35.664 94.998C34.1577 94.9556 33.3083 94.5725 32.4294 93.3484C31.2009 91.6374 32.0531 87.9679 32.0531 87.9679L31.6393 87.9969L32.3513 86.2834Z" fill="#CF9A64"/>
<path d="M33.7131 80.3731C33.7751 82.8416 33.475 84.3718 33.0205 86.4602" stroke="#ACACAC" stroke-width="0.446221"/>
<path d="M37.4969 80.1084L37.9171 86.1177" stroke="#ACACAC" stroke-width="0.446221"/>
<path d="M41.0579 79.8596C41.2507 82.2635 41.763 83.7288 42.591 85.7911" stroke="#ACACAC" stroke-width="0.446221"/>
<path fill-rule="evenodd" clip-rule="evenodd" d="M64.899 34.8999C65.5087 32.4798 65.7488 29.9549 65.5684 27.3758C64.5112 12.2566 49.4047 0.99646 31.8271 2.22561C14.2495 3.45475 0.85706 16.7077 1.9143 31.8269C2.0968 34.4368 2.69794 36.9317 3.65816 39.2672C7.30145 50.5784 13.9338 59.0442 30.1304 73.914C35.3519 71.1477 38.1862 71.4531 43.707 72.9646C57.7979 54.9398 63.0068 45.6626 64.899 34.8999Z" fill="#F3F1E5"/>
<path d="M38.3654 73.3381C45.8068 33.9621 45.0043 15.1862 33.8458 2.30816C35.2567 2.13181 38.2278 1.88937 44.9227 3.99378C58.8862 19.8777 56.9318 37.4638 41.7039 73.1047C40.416 73.3962 39.6796 73.4339 38.3654 73.3381Z" fill="#D8712E"/>
<path d="M35.2466 73.5561C22.3974 35.5989 20.579 16.8941 29.8367 2.58843C28.4149 2.61016 25.4391 2.78358 19.1021 5.79926C7.48518 23.472 11.8681 40.6149 31.9081 73.7896C33.224 73.899 33.9584 73.8339 35.2466 73.5561Z" fill="#D8712E"/>
<path fill-rule="evenodd" clip-rule="evenodd" d="M30.353 73.8983C32.599 72.6858 33.8829 72.1849 36.2534 71.9201C39.7051 71.7985 41.0893 72.2005 43.4845 72.9801L30.353 73.8983ZM31.0576 75.3965C31.9389 76.737 32.7932 78.0364 33.2681 80.4042L41.7257 79.8128C41.9984 77.1494 42.4482 75.6487 43.707 72.9645L30.1304 73.9139C30.4325 74.4457 30.7468 74.9237 31.0576 75.3965Z" fill="#BD5428"/>
<path d="M42.8011 72.8042C62.3604 44.4931 67.0602 29.822 53.469 7.86918L59.4067 12.8217C71.2134 28.779 66.0679 43.9388 43.4844 72.9801L42.8011 72.8042Z" fill="#D8712E"/>
<path d="M31.0051 73.6291C7.82019 48.3069 1.27661 34.1984 11.6108 10.5725C9.52766 12.2131 8.27407 13.6575 6.33308 16.533C-4.04896 33.0271 4.80635 50.9182 30.3568 73.8981L31.0051 73.6291Z" fill="#D8712E"/>
<path d="M43.6736 85.4917L31.6841 86.33L30.9038 88.1738L31.3562 88.1422L44.2505 87.2406L44.7029 87.2089L43.6736 85.4917Z" fill="#5D4227"/>
<path fill-rule="evenodd" clip-rule="evenodd" d="M34.6765 87.4668L34.3159 86.5933L34.087 87.4824C33.2843 87.6477 32.708 88.3856 32.7667 89.2256C32.8308 90.1412 33.6249 90.8315 34.5404 90.7675C35.4559 90.7034 36.1462 89.9094 36.0822 88.9938C36.027 88.2037 35.428 87.5814 34.6765 87.4668Z" fill="#F2EFDD"/>
<path fill-rule="evenodd" clip-rule="evenodd" d="M38.3604 87.2092L37.9998 86.3357L37.7709 87.2248C36.9682 87.3902 36.3918 88.128 36.4506 88.9681C36.5146 89.8836 37.3087 90.5739 38.2242 90.5099C39.1398 90.4459 39.8301 89.6518 39.7661 88.7362C39.7108 87.9462 39.1119 87.3238 38.3604 87.2092Z" fill="#F2EFDD"/>
<path fill-rule="evenodd" clip-rule="evenodd" d="M42.0442 86.9517L41.6836 86.0782L41.4547 86.9672C40.652 87.1326 40.0757 87.8704 40.1344 88.7105C40.1985 89.6261 40.9925 90.3164 41.9081 90.2523C42.8236 90.1883 43.5139 89.3942 43.4499 88.4787C43.3947 87.6886 42.7957 87.0662 42.0442 86.9517Z" fill="#F2EFDD"/>
</svg>
