<svg width="164" height="223" viewBox="0 0 164 223" fill="none" xmlns="http://www.w3.org/2000/svg">
<path d="M77.8171 196.499L102.515 194.121L104.738 197.67L103.806 197.759C103.806 197.759 107.027 205.589 104.972 209.875C103.565 212.81 102.021 213.96 98.8531 214.707C94.1266 215.821 90.4502 215.972 85.8053 215.963C82.4046 215.956 80.4657 215.142 78.4107 212.433C75.5382 208.645 77.2441 200.317 77.2441 200.317L76.3121 200.407L77.8171 196.499Z" fill="#CF9A64"/>
<path d="M80.5401 183.085C80.8257 188.651 80.2391 192.12 79.3371 196.858" stroke="#ACACAC" stroke-width="1.00699"/>
<path d="M89.0601 182.265L90.363 195.797" stroke="#ACACAC" stroke-width="1.00699"/>
<path d="M97.0791 181.493C97.6559 186.905 98.8982 190.18 100.888 194.783" stroke="#ACACAC" stroke-width="1.00699"/>
<path fill-rule="evenodd" clip-rule="evenodd" d="M148.207 78.6592C149.439 73.1633 149.832 67.453 149.273 61.6449C145.995 27.5994 111.25 3.0896 71.6685 6.90086C32.0871 10.7121 2.65752 41.4011 5.93573 75.4467C6.50154 81.3229 8.00473 86.915 10.3084 92.1264C19.1955 117.43 34.6575 136.137 72.0758 168.726C83.6917 162.177 90.1037 162.699 102.648 165.782C133.371 124.287 144.574 103.051 148.207 78.6592Z" fill="#F3F1E5"/>
<path d="M90.6196 166.941C105.081 77.6708 102.161 35.361 76.2276 6.96808C79.4003 6.4869 86.0884 5.76446 101.316 10.1164C133.755 45.1247 130.385 84.9133 98.1373 166.217C95.2491 166.95 93.5901 167.079 90.6196 166.941Z" fill="#54AFB2" fill-opacity="0.2"/>
<path d="M83.5966 167.617C52.3674 82.7466 47.1603 40.6571 67.2 7.83736C63.9938 7.97039 57.2907 8.53739 43.1731 15.715C18.0099 56.2698 28.9101 94.6842 76.079 168.341C79.054 168.51 80.7071 168.319 83.5966 167.617Z" fill="#54AFB2" fill-opacity="0.2"/>
<path fill-rule="evenodd" clip-rule="evenodd" d="M72.5768 168.678C77.5719 165.81 80.4387 164.604 85.7708 163.867C93.5505 163.388 96.6969 164.213 102.146 165.831L72.5768 168.678ZM74.255 172.016C76.3224 174.988 78.3263 177.869 79.5375 183.183L98.5823 181.349C99.0402 175.324 99.9662 171.912 102.648 165.783L72.0756 168.726C72.7886 169.908 73.5258 170.968 74.255 172.016Z" fill="#5B9898" fill-opacity="0.5"/>
<path d="M100.595 165.474C143.047 100.451 152.783 67.0757 120.825 18.3544L134.512 29.1763C162.09 64.4775 151.378 98.9812 102.146 165.831L100.595 165.474Z" fill="#54AFB2" fill-opacity="0.2"/>
<path d="M74.0321 168.032C20.2324 112.276 4.63706 80.8346 26.5548 26.9257C21.9522 30.7498 19.2095 34.0823 15.0006 40.6838C-7.4463 78.5068 13.5877 118.345 72.5855 168.677L74.0321 168.032Z" fill="#54AFB2" fill-opacity="0.2"/>
<path d="M103.312 194.044L76.3144 196.644L74.6629 200.85L75.6817 200.751L104.717 197.956L105.736 197.858L103.312 194.044Z" fill="#5D4227"/>
<path fill-rule="evenodd" clip-rule="evenodd" d="M83.1319 199.031L82.2667 197.082L81.8028 199.101C80.0018 199.522 78.7453 201.221 78.9274 203.112C79.1259 205.174 80.9582 206.684 83.0198 206.486C85.0814 206.287 86.5918 204.455 86.3933 202.393C86.222 200.614 84.834 199.246 83.1319 199.031Z" fill="#F2EFDD"/>
<path fill-rule="evenodd" clip-rule="evenodd" d="M91.4273 198.233L90.5621 196.283L90.0982 198.303C88.2972 198.723 87.0407 200.422 87.2228 202.313C87.4214 204.375 89.2536 205.885 91.3152 205.687C93.3768 205.488 94.8872 203.656 94.6887 201.594C94.5174 199.815 93.1294 198.447 91.4273 198.233Z" fill="#F2EFDD"/>
<path fill-rule="evenodd" clip-rule="evenodd" d="M99.7227 197.434L98.8575 195.484L98.3936 197.504C96.5926 197.924 95.3361 199.623 95.5183 201.514C95.7168 203.576 97.549 205.086 99.6106 204.888C101.672 204.689 103.183 202.857 102.984 200.796C102.813 199.016 101.425 197.648 99.7227 197.434Z" fill="#F2EFDD"/>
<path d="M44.5867 84.9516C42.7587 85.1276 41.3892 84.8402 40.4782 84.0892C39.6048 83.2928 39.0881 82.0636 38.9281 80.4017C38.8161 79.2384 38.9653 78.1757 39.3759 77.2137C39.828 76.2476 40.4275 75.2884 41.1744 74.3359L50.9824 61.8811C52.4347 59.9801 53.4332 58.3744 53.9779 57.064C54.5642 55.7495 54.7974 54.4691 54.6773 53.2227C54.5253 51.6439 53.892 50.5099 52.7773 49.8205C51.6626 49.1311 50.1289 48.8804 48.1762 49.0684C47.1791 49.1645 46.1336 49.4119 45.0399 49.8107C43.9421 50.168 42.7812 50.7411 41.5573 51.5298C40.4835 52.1364 39.4796 52.3798 38.5456 52.2601C37.6531 52.1364 36.8612 51.7514 36.17 51.1051C35.5204 50.4548 35.0684 49.6806 34.8142 48.7826C34.6016 47.8806 34.661 46.9733 34.9924 46.0608C35.3199 45.1068 35.9957 44.2869 37.02 43.6013C38.8311 42.3786 40.7326 41.4407 42.7244 40.7876C44.7577 40.1306 46.8131 39.7021 48.8904 39.502C52.2973 39.174 55.1912 39.3985 57.5723 40.1756C59.995 40.9487 61.9007 42.2328 63.2896 44.028C64.6745 45.7816 65.501 48.0502 65.769 50.8339C65.937 52.5788 65.831 54.3083 65.4509 56.0221C65.1124 57.732 64.4414 59.4739 63.4381 61.2478C62.4764 63.0177 61.13 64.9295 59.3988 66.9831L50.263 77.9265L49.987 75.0598L65.3801 73.5776C66.9174 73.4296 68.1187 73.7122 68.9841 74.4256C69.8911 75.135 70.4165 76.2375 70.5606 77.7332C70.7046 79.2289 70.4011 80.4322 69.6502 81.3432C68.9368 82.2086 67.8115 82.7153 66.2743 82.8633L44.5867 84.9516ZM98.3366 80.3422C96.5917 80.5102 95.1746 80.1644 94.0855 79.3048C93.0379 78.4413 92.4241 77.0747 92.244 75.2051L92.028 72.9615L79.5016 74.1677C77.6735 74.3437 76.2002 74.0663 75.0815 73.3353C74.0043 72.6004 73.3838 71.3812 73.2197 69.6778C73.1237 68.6807 73.2187 67.7071 73.5046 66.757C73.7865 65.7655 74.3412 64.5589 75.1688 63.1374L88.2387 39.4871C88.9496 38.1607 89.7964 37.1567 90.7791 36.475C91.7618 35.7933 92.9594 35.3845 94.372 35.2485C95.9508 35.0964 97.2432 35.4542 98.2492 36.3218C99.2513 37.1478 99.8443 38.5164 100.028 40.4276L102.225 63.2368L103.72 63.0928C105.299 62.9408 106.519 63.2007 107.381 63.8725C108.284 64.5404 108.801 65.5598 108.933 66.9309C109.069 68.3435 108.758 69.4637 107.999 70.2916C107.281 71.1154 106.133 71.6033 104.554 71.7554L103.059 71.8994L103.275 74.1429C103.451 75.971 103.109 77.4296 102.249 78.5187C101.427 79.5623 100.123 80.1701 98.3366 80.3422ZM91.1939 64.299L89.7777 49.5914L91.5227 49.4233L81.4807 67.9389L81.2226 65.2591L91.1939 64.299ZM36.6274 127.247C35.5804 127.348 34.7427 127.139 34.1141 126.621C33.4856 126.103 33.1185 125.296 33.0129 124.199L31.0578 103.895C30.9522 102.798 31.1585 101.935 31.6766 101.307C32.1947 100.678 32.9773 100.313 34.0243 100.213C35.0962 100.109 35.9464 100.317 36.575 100.835C37.2285 101.351 37.608 102.157 37.7136 103.254L38.4985 111.405L37.9003 111.463C38.3857 110.234 39.1469 109.255 40.1837 108.526C41.2455 107.795 42.4868 107.361 43.9077 107.224C45.3785 107.082 46.6151 107.253 47.6176 107.735C48.6176 108.192 49.4121 108.996 50.001 110.147C50.5874 111.273 50.967 112.733 51.1399 114.528L51.896 122.381C52.0016 123.477 51.7953 124.34 51.2772 124.969C50.759 125.597 49.964 125.963 48.8921 126.066C47.8202 126.17 46.9699 125.962 46.3414 125.444C45.7128 124.926 45.3458 124.118 45.2401 123.021L44.5092 115.431C44.4012 114.309 44.125 113.531 43.6805 113.095C43.261 112.658 42.6773 112.475 41.9295 112.547C40.9324 112.643 40.1659 113.044 39.63 113.75C39.0917 114.43 38.8742 115.307 38.9774 116.379L39.6687 123.558C39.8847 125.801 38.871 127.031 36.6274 127.247ZM65.3312 124.559C63.287 124.756 61.4675 124.541 59.8724 123.915C58.2774 123.288 56.9865 122.293 55.9997 120.929C55.013 119.565 54.4248 117.898 54.2351 115.928C54.0911 114.433 54.1995 113.076 54.5603 111.859C54.9188 110.617 55.5071 109.541 56.3253 108.632C57.1411 107.698 58.1518 106.959 59.3574 106.416C60.5606 105.847 61.935 105.488 63.4805 105.339C65.5246 105.142 67.3442 105.357 68.9392 105.984C70.5343 106.61 71.8127 107.606 72.7745 108.973C73.7589 110.312 74.3471 111.979 74.5391 113.973C74.6808 115.444 74.5724 116.801 74.2139 118.043C73.8555 119.285 73.2684 120.373 72.4526 121.307C71.6593 122.214 70.6486 122.952 69.4205 123.524C68.2149 124.067 66.8518 124.412 65.3312 124.559ZM64.8595 119.661C65.5326 119.596 66.1152 119.376 66.6075 119.002C67.0974 118.602 67.447 118.053 67.6565 117.353C67.8884 116.626 67.9515 115.715 67.8459 114.618C67.6851 112.948 67.2458 111.782 66.5281 111.122C65.8079 110.436 64.9493 110.142 63.9522 110.238C63.2791 110.302 62.6964 110.522 62.2042 110.897C61.7119 111.271 61.3498 111.822 61.1178 112.548C60.8835 113.25 60.8203 114.162 60.9284 115.284C61.0868 116.929 61.5261 118.095 62.2462 118.78C62.9663 119.465 63.8374 119.759 64.8595 119.661ZM85.3944 122.627C83.799 122.781 82.4627 122.62 81.3854 122.145C80.3058 121.645 79.4478 120.835 78.8115 119.713C78.2001 118.59 77.808 117.131 77.6352 115.336L76.8791 107.483C76.7735 106.387 76.9809 105.536 77.5015 104.933C78.0196 104.304 78.8147 103.938 79.8866 103.835C80.9585 103.732 81.8087 103.939 82.4373 104.457C83.0634 104.951 83.4293 105.746 83.5349 106.842L84.309 114.882C84.3954 115.779 84.6472 116.434 85.0643 116.847C85.4815 117.26 86.0889 117.428 86.8866 117.351C87.784 117.264 88.4882 116.87 88.9991 116.166C89.51 115.463 89.7139 114.575 89.6107 113.503L88.9194 106.324C88.8138 105.227 89.0213 104.377 89.5418 103.773C90.0599 103.145 90.855 102.779 91.9269 102.676C92.9988 102.572 93.849 102.78 94.4776 103.298C95.1037 103.791 95.4696 104.586 95.5752 105.683L96.767 118.06C96.983 120.304 96.0191 121.528 93.8753 121.735C92.8283 121.836 91.9905 121.627 91.362 121.109C90.7334 120.591 90.3663 119.783 90.2607 118.686L90.0519 116.518L90.8266 118.292C90.3958 119.567 89.713 120.576 88.7783 121.32C87.8685 122.062 86.7406 122.497 85.3944 122.627ZM104.367 120.725C103.27 120.83 102.395 120.625 101.742 120.109C101.113 119.591 100.746 118.784 100.64 117.687L99.4485 105.31C99.3453 104.238 99.5403 103.389 100.034 102.763C100.552 102.135 101.334 101.77 102.381 101.669C103.428 101.568 104.254 101.778 104.857 102.299C105.461 102.819 105.814 103.615 105.917 104.687L106.065 106.22L105.691 106.256C105.796 104.737 106.318 103.491 107.256 102.52C108.219 101.547 109.471 100.961 111.012 100.763C111.732 100.668 112.286 100.803 112.674 101.169C113.083 101.507 113.351 102.198 113.477 103.242C113.563 104.14 113.445 104.868 113.121 105.428C112.798 105.987 112.117 106.367 111.08 106.568L110.227 106.725C108.918 106.977 107.994 107.444 107.456 108.124C106.915 108.78 106.703 109.706 106.818 110.903L107.408 117.035C107.514 118.132 107.308 118.995 106.79 119.623C106.271 120.252 105.464 120.619 104.367 120.725ZM124.331 118.878C123.234 118.983 122.104 119.004 120.94 118.94C119.804 118.899 118.755 118.71 117.791 118.375C117.144 118.186 116.663 117.893 116.348 117.495C116.058 117.096 115.89 116.659 115.845 116.185C115.824 115.709 115.92 115.272 116.133 114.874C116.369 114.449 116.692 114.141 117.101 113.951C117.533 113.733 118.033 113.698 118.601 113.844C119.683 114.117 120.645 114.302 121.484 114.397C122.346 114.465 123.163 114.462 123.936 114.387C124.859 114.298 125.507 114.11 125.882 113.822C126.254 113.51 126.42 113.142 126.379 112.718C126.343 112.344 126.179 112.07 125.885 111.897C125.617 111.722 125.242 111.62 124.761 111.591L120.546 111.317C118.974 111.192 117.724 110.746 116.794 109.98C115.863 109.189 115.33 108.096 115.195 106.7C115.071 105.404 115.325 104.259 115.959 103.268C116.616 102.248 117.556 101.428 118.779 100.807C120.025 100.159 121.483 99.7542 123.153 99.5934C124.275 99.4854 125.306 99.4742 126.245 99.5599C127.181 99.6207 128.106 99.821 129.02 100.161C129.59 100.332 130.007 100.619 130.273 101.021C130.538 101.423 130.668 101.864 130.664 102.342C130.657 102.796 130.536 103.235 130.3 103.66C130.087 104.058 129.763 104.354 129.329 104.546C128.892 104.714 128.365 104.727 127.748 104.585C126.894 104.341 126.136 104.175 125.473 104.087C124.835 103.998 124.242 103.979 123.694 104.032C122.672 104.131 121.962 104.337 121.565 104.652C121.167 104.967 120.989 105.337 121.03 105.761C121.061 106.085 121.2 106.348 121.446 106.551C121.689 106.729 122.051 106.832 122.532 106.861L126.751 107.172C128.371 107.268 129.645 107.699 130.574 108.465C131.526 109.203 132.07 110.283 132.207 111.704C132.401 113.723 131.78 115.368 130.342 116.639C128.902 117.884 126.899 118.631 124.331 118.878Z" fill="#313556"/>
</svg>
