<svg width="137" height="189" viewBox="0 0 137 189" fill="none" xmlns="http://www.w3.org/2000/svg">
<path d="M62.8147 167.366L84.0621 165.881L85.89 168.976L85.0882 169.032C85.0882 169.032 87.677 175.823 85.8171 179.455C84.5434 181.942 83.1929 182.894 80.4574 183.463C76.3764 184.314 73.2181 184.361 69.2324 184.248C66.3142 184.166 64.6687 183.424 62.9661 181.053C60.5862 177.738 62.2372 170.629 62.2372 170.629L61.4354 170.686L62.8147 167.366Z" fill="#CF9A64"/>
<path d="M65.4529 155.917C65.573 160.699 64.9916 163.663 64.1111 167.709" stroke="#ACACAC" stroke-width="0.461538"/>
<path d="M72.7827 155.404L73.5968 167.045" stroke="#ACACAC" stroke-width="0.461538"/>
<path d="M79.6813 154.921C80.0547 159.578 81.0472 162.417 82.6512 166.412" stroke="#ACACAC" stroke-width="0.461538"/>
<path fill-rule="evenodd" clip-rule="evenodd" d="M125.867 67.8251C127.048 63.1365 127.513 58.245 127.164 53.2483C125.116 23.9588 95.851 2.1453 61.799 4.52644C27.747 6.90759 1.80278 32.5817 3.8509 61.8712C4.20443 66.9268 5.36884 71.7597 7.2288 76.2838C14.2867 98.1968 27.135 114.597 58.5121 143.404C68.6274 138.045 74.118 138.637 84.8132 141.565C112.11 106.647 122.201 88.6747 125.867 67.8251Z" fill="#F3F1E5"/>
<path d="M74.4652 142.288C88.8811 66.0072 87.3264 29.634 65.7097 4.68614C68.4431 4.34451 74.1987 3.87485 87.1684 7.95158C114.219 38.7225 110.433 72.7909 80.9327 141.836C78.4378 142.4 77.0112 142.473 74.4652 142.288Z" fill="#D56774"/>
<path d="M68.4234 142.711C43.5316 69.1787 40.0089 32.9431 57.9432 5.22959C55.1889 5.2717 49.424 5.60763 37.1478 11.4497C14.643 45.6859 23.1337 78.8958 61.9559 143.163C64.5052 143.375 65.928 143.249 68.4234 142.711Z" fill="#D56774"/>
<path fill-rule="evenodd" clip-rule="evenodd" d="M58.9432 143.374C63.2941 141.025 65.7813 140.054 70.3736 139.542C77.0604 139.306 79.7419 140.085 84.3819 141.595L58.9432 143.374ZM60.3084 146.276C62.0157 148.873 63.6706 151.39 64.5906 155.977L80.9748 154.831C81.5032 149.672 82.3745 146.765 84.8131 141.565L58.5121 143.404C59.0974 144.434 59.7061 145.36 60.3084 146.276Z" fill="#BF4C61"/>
<path d="M83.0583 141.254C120.949 86.4087 130.054 57.9873 103.725 15.4596L115.227 25.0538C138.1 55.9668 128.131 85.335 84.382 141.595L83.0583 141.254Z" fill="#D56774"/>
<path d="M60.2066 142.852C15.2919 93.7967 2.61548 66.4651 22.6353 20.6963C18.5997 23.8745 16.1712 26.6726 12.4111 32.2431C-7.70141 64.196 9.45343 98.8553 58.9507 143.373L60.2066 142.852Z" fill="#D56774"/>
<path d="M84.7487 165.832L61.5223 167.457L60.0106 171.028L60.8871 170.967L85.8664 169.22L86.7428 169.159L84.7487 165.832Z" fill="#5D4227"/>
<path fill-rule="evenodd" clip-rule="evenodd" d="M67.3188 169.659L66.6203 167.967L66.1769 169.689C64.6219 170.009 63.5054 171.439 63.6192 173.066C63.7433 174.84 65.2816 176.177 67.0552 176.053C68.8289 175.929 70.1662 174.39 70.0421 172.617C69.9351 171.086 68.7747 169.881 67.3188 169.659Z" fill="#F2EFDD"/>
<path fill-rule="evenodd" clip-rule="evenodd" d="M74.4554 169.16L73.7568 167.468L73.3134 169.19C71.7584 169.51 70.6419 170.94 70.7557 172.567C70.8798 174.341 72.4181 175.678 74.1918 175.554C75.9654 175.43 77.3027 173.891 77.1786 172.118C77.0716 170.587 75.9113 169.382 74.4554 169.16Z" fill="#F2EFDD"/>
<path fill-rule="evenodd" clip-rule="evenodd" d="M81.5919 168.661L80.8933 166.969L80.45 168.691C78.895 169.011 77.7785 170.441 77.8923 172.068C78.0163 173.842 79.5547 175.179 81.3283 175.055C83.102 174.931 84.4392 173.392 84.3152 171.619C84.2082 170.088 83.0478 168.883 81.5919 168.661Z" fill="#F2EFDD"/>
</svg>
