<svg width="126" height="156" viewBox="0 0 126 156" fill="none" xmlns="http://www.w3.org/2000/svg">
<path d="M70.7321 132.077L85.9651 127.69L87.7769 129.658L87.2021 129.824C87.2021 129.824 90.1427 134.364 89.354 137.297C88.8139 139.305 87.979 140.208 86.0767 141.048C83.2388 142.302 80.9474 142.827 78.0291 143.366C75.8925 143.76 74.5794 143.475 72.9713 142.014C70.7236 139.972 70.8194 134.542 70.8194 134.542L70.2446 134.707L70.7321 132.077Z" fill="#CF9A64"/>
<path d="M70.8712 123.333C71.7025 126.795 71.7405 129.043 71.729 132.124" stroke="#ACACAC" stroke-width="0.643357"/>
<path d="M76.1262 121.82L78.5296 130.166" stroke="#ACACAC" stroke-width="0.643357"/>
<path d="M81.072 120.396C82.0682 123.727 83.2321 125.639 85.021 128.297" stroke="#ACACAC" stroke-width="0.643357"/>
<path fill-rule="evenodd" clip-rule="evenodd" d="M101.138 49.8219C101.268 46.2255 100.846 42.5929 99.8144 39.0104C93.7675 18.0117 69.0748 6.68801 44.6618 13.7181C20.2487 20.7482 5.36003 43.47 11.4069 64.4686C12.4506 68.0931 14.0499 71.4294 16.1073 74.4327C24.6528 89.2834 36.5552 99.2212 63.8731 115.306C70.4015 109.832 74.4897 109.409 82.7292 109.876C97.1644 80.2165 101.713 65.5665 101.138 49.8219Z" fill="#F3F1E5"/>
<path d="M75.3104 112.012C73.9363 54.2517 67.1466 28.0207 47.5329 13.226C49.4691 12.5522 53.585 11.315 63.6587 12.2645C88.1331 30.4521 90.6772 55.8364 79.9472 110.677C78.2192 111.476 77.1923 111.751 75.3104 112.012Z" fill="#54AFB2"/>
<path d="M70.9788 113.26C41.4237 63.6145 33.2231 37.7897 41.9648 14.8296C39.9668 15.2887 35.8232 16.43 27.7973 22.5916C16.7437 51.01 28.0895 73.8597 66.3421 114.595C68.2304 114.353 69.2463 114.04 70.9788 113.26Z" fill="#54AFB2"/>
<path fill-rule="evenodd" clip-rule="evenodd" d="M64.1822 115.217C66.9835 112.83 68.6428 111.737 71.9053 110.65C76.7354 109.438 78.8082 109.588 82.4201 109.965L82.7293 109.876C81.7633 114.04 81.5814 116.291 81.9994 120.129L70.253 123.511C68.8699 120.316 67.2738 118.741 65.6273 117.117C65.0465 116.544 64.4594 115.965 63.8731 115.306L64.1822 115.217Z" fill="#5B9898"/>
<path d="M81.4037 109.923C100.45 64.1117 102.655 42.0099 76.8764 15.1535L86.7407 20.347C108.196 39.2879 105.51 62.213 82.4201 109.965L81.4037 109.923Z" fill="#54AFB2"/>
<path d="M65.0205 114.641C24.7002 85.9249 11.2224 68.0046 18.6734 31.5792C16.2306 34.5201 14.8984 36.9344 13.0282 41.5736C3.36068 67.958 21.2377 90.5149 64.1876 115.216L65.0205 114.641Z" fill="#54AFB2"/>
<path d="M86.4573 127.549L69.8056 132.344L69.2609 135.179L69.8893 134.998L87.7978 129.841L88.4262 129.66L86.4573 127.549Z" fill="#5D4227"/>
<path fill-rule="evenodd" clip-rule="evenodd" d="M74.367 133.045L73.5953 131.922L73.5406 133.245C72.4587 133.72 71.8685 134.934 72.2044 136.1C72.5706 137.372 73.8983 138.106 75.1698 137.74C76.4414 137.374 77.1754 136.046 76.8092 134.774C76.4932 133.677 75.4612 132.98 74.367 133.045Z" fill="#F2EFDD"/>
<path fill-rule="evenodd" clip-rule="evenodd" d="M79.4834 131.571L78.7116 130.448L78.6569 131.771C77.575 132.246 76.9848 133.46 77.3207 134.627C77.6869 135.898 79.0146 136.632 80.2861 136.266C81.5577 135.9 82.2917 134.572 81.9255 133.301C81.6095 132.203 80.5775 131.506 79.4834 131.571Z" fill="#F2EFDD"/>
<path fill-rule="evenodd" clip-rule="evenodd" d="M84.5999 130.098L83.8282 128.975L83.7734 130.298C82.6915 130.773 82.1013 131.987 82.4373 133.154C82.8035 134.425 84.1311 135.159 85.4027 134.793C86.6743 134.427 87.4083 133.099 87.0421 131.828C86.7261 130.73 85.694 130.033 84.5999 130.098Z" fill="#F2EFDD"/>
</svg>
