<svg width="198" height="272" viewBox="0 0 198 272" fill="none" xmlns="http://www.w3.org/2000/svg">
<path d="M75.6121 238.301L106.085 240.699L108.023 245.48L106.873 245.39C106.873 245.39 109.106 255.578 105.696 260.338C103.361 263.598 101.242 264.663 97.2386 264.891C91.2658 265.232 86.7732 264.629 81.1398 263.624C77.0154 262.889 74.8373 261.486 72.9237 257.759C70.2489 252.55 74.1002 242.81 74.1002 242.81L72.9503 242.72L75.6121 238.301Z" fill="#CF9A64"/>
<path d="M81.7854 222.61C80.9415 229.422 79.4875 233.507 77.3796 239.062" stroke="#ACACAC" stroke-width="1.24056"/>
<path d="M92.2976 223.437L90.9836 240.133" stroke="#ACACAC" stroke-width="1.24056"/>
<path d="M102.191 224.215C101.734 230.904 102.54 235.144 103.969 241.155" stroke="#ACACAC" stroke-width="1.24056"/>
<path fill-rule="evenodd" clip-rule="evenodd" d="M186.22 110.392C188.891 103.988 190.589 97.1439 191.153 89.9779C194.459 47.9716 157.549 10.8029 108.713 6.95933C59.8758 3.1158 17.6059 34.0529 14.2999 76.0593C13.7293 83.3097 14.3568 90.4161 16.0369 97.2318C21.4061 129.831 36.1633 155.835 74.5882 203.377C90.082 197.917 97.7496 199.922 112.309 206.346C158.46 162.576 176.595 139.207 186.22 110.392Z" fill="#F3F1E5"/>
<path d="M97.4678 205.178C134.11 99.9671 139.619 48.0111 114.229 8.01603C118.181 8.11095 126.45 8.66524 143.994 17.2027C175.861 66.6154 163.26 114.167 106.743 205.908C103.082 206.18 101.042 205.981 97.4678 205.178Z" fill="#9A54B2" fill-opacity="0.2"/>
<path d="M88.8028 204.496C69.0704 94.8487 71.757 42.6705 103.091 7.1397C99.1724 6.61522 90.9187 5.86915 72.2553 11.5571C33.0509 55.3763 38.0576 104.314 79.5272 203.766C83.1005 204.608 85.1468 204.731 88.8028 204.496Z" fill="#9A54B2" fill-opacity="0.2"/>
<path fill-rule="evenodd" clip-rule="evenodd" d="M75.2063 203.426C81.8801 201.015 85.6161 200.165 92.2429 200.411C101.784 201.495 105.425 203.17 111.69 206.297L75.2063 203.426ZM76.5283 207.836C78.4007 211.884 80.2156 215.808 80.5484 222.513L104.046 224.362C105.891 217.151 107.744 213.21 112.308 206.347L74.588 203.378C75.2002 204.964 75.8678 206.408 76.5283 207.836Z" fill="#9A54B2" fill-opacity="0.6"/>
<path d="M109.884 205.533C175.298 135.726 194.25 97.3175 165.9 31.3709L180.191 47.4284C206.098 96.1565 185.72 135.726 111.69 206.298L109.884 205.533Z" fill="#9A54B2" fill-opacity="0.2"/>
<path d="M77.1102 202.954C23.7664 123.8 11.5718 82.3182 49.6956 21.6031C43.2934 25.258 39.253 28.7144 32.7344 35.8232C-2.59012 76.9092 14.4065 129.742 75.2172 203.427L77.1102 202.954Z" fill="#9A54B2" fill-opacity="0.2"/>
<path d="M107.069 240.777L73.7584 238.155L70.8551 242.904L72.1121 243.003L107.937 245.823L109.194 245.922L107.069 240.777Z" fill="#5D4227"/>
<path fill-rule="evenodd" clip-rule="evenodd" d="M81.5188 242.51L80.8862 239.96L79.8915 242.311C77.6165 242.436 75.7287 244.228 75.545 246.562C75.3448 249.105 77.2446 251.33 79.7883 251.53C82.332 251.73 84.5564 249.83 84.7566 247.287C84.9294 245.091 83.5382 243.134 81.5188 242.51Z" fill="#F2EFDD"/>
<path fill-rule="evenodd" clip-rule="evenodd" d="M91.7539 243.315L91.1213 240.765L90.1266 243.116C87.8516 243.241 85.9638 245.033 85.7801 247.367C85.5799 249.91 87.4797 252.135 90.0234 252.335C92.5671 252.535 94.7915 250.635 94.9917 248.092C95.1645 245.897 93.7733 243.939 91.7539 243.315Z" fill="#F2EFDD"/>
<path fill-rule="evenodd" clip-rule="evenodd" d="M101.989 244.121L101.356 241.571L100.361 243.921C98.0865 244.046 96.1987 245.838 96.015 248.172C95.8148 250.716 97.7146 252.94 100.258 253.14C102.802 253.341 105.026 251.441 105.227 248.897C105.399 246.702 104.008 244.745 101.989 244.121Z" fill="#F2EFDD"/>
<path d="M44.6202 92.999C42.6229 92.8418 40.5396 92.4475 38.3703 91.8163C36.2009 91.185 34.2177 90.3171 32.4205 89.2127C31.3429 88.5418 30.6112 87.7306 30.2256 86.7791C29.8848 85.7893 29.8145 84.8208 30.0146 83.8736C30.2564 82.9297 30.698 82.1061 31.3395 81.403C32.0226 80.7031 32.8301 80.2852 33.7619 80.1492C34.7386 79.9748 35.7657 80.2231 36.8434 80.8941C38.1641 81.6679 39.5396 82.2786 40.9697 82.7261C42.4415 83.1769 43.8224 83.453 45.1123 83.5546C46.527 83.6659 47.7501 83.5528 48.7815 83.2153C49.8129 82.8778 50.6094 82.3334 51.1709 81.5821C51.7741 80.8341 52.1183 79.9191 52.2034 78.8372C52.3344 77.1728 51.8758 75.8179 50.8276 74.7724C49.7795 73.727 48.3192 73.1305 46.4467 72.9832C45.6145 72.9177 44.6892 72.9705 43.6709 73.1415C42.6942 73.3159 41.6579 73.7158 40.562 74.3413C40.0846 74.5549 39.4375 74.7971 38.6207 75.0678C37.8072 75.2968 36.9844 75.3786 36.1522 75.3131C34.6542 75.1952 33.5793 74.7547 32.9276 73.9917C32.2759 73.2286 32.0008 72.2021 32.1023 70.9122L33.5858 52.0627C33.7103 50.4815 34.2214 49.3075 35.1191 48.5408C36.0584 47.7774 37.2978 47.4562 38.8374 47.5774L58.4359 49.1198C59.9755 49.241 61.1303 49.7296 61.9003 50.5857C62.6703 51.4418 62.9947 52.6397 62.8735 54.1793C62.7556 55.6772 62.2495 56.7888 61.3551 57.5139C60.4606 58.239 59.2436 58.5409 57.704 58.4198L44.035 57.344L43.2638 67.1433L40.6423 66.937C41.7327 65.8505 43.1122 65.0798 44.7808 64.625C46.4527 64.1285 48.2457 63.9556 50.1598 64.1063C52.9477 64.3257 55.3553 65.1223 57.3824 66.496C59.4129 67.8281 60.9271 69.601 61.9252 71.8149C62.9649 74.032 63.3734 76.5553 63.1507 79.3848C62.9149 82.3808 61.9996 84.9673 60.4047 87.1446C58.8547 89.2835 56.7199 90.8739 54.0002 91.9159C51.3254 92.9196 48.1987 93.2806 44.6202 92.999ZM82.3573 95.9689C76.948 95.5432 72.9425 93.2392 70.3408 89.057C67.7841 84.8364 66.7923 79.0852 67.3654 71.8034C67.7518 66.8934 68.721 62.8247 70.2729 59.5974C71.8281 56.3285 73.9211 53.9392 76.552 52.4297C79.1829 50.9201 82.3084 50.3078 85.9285 50.5927C91.3795 51.0217 95.3899 53.2633 97.9597 57.3174C100.53 61.3715 101.526 67.0603 100.95 74.3838C100.567 79.2522 99.596 83.3417 98.0375 86.6522C96.4791 89.9628 94.3811 92.4144 91.7437 94.0072C89.1062 95.5999 85.9774 96.2539 82.3573 95.9689ZM83.0745 86.8563C85.0718 87.0134 86.6341 86.0478 87.7615 83.9594C88.9337 81.8326 89.7097 78.3559 90.0896 73.529C90.4662 68.7438 90.2354 65.2925 89.3972 63.175C88.6039 61.0191 87.2086 59.8626 85.2113 59.7054C83.214 59.5482 81.6342 60.4706 80.4718 62.4725C79.3543 64.4361 78.6072 67.8105 78.2306 72.5957C77.8507 77.4225 78.0525 80.9763 78.836 83.257C79.6644 85.4993 81.0772 86.6991 83.0745 86.8563ZM119.782 98.9144C114.373 98.4886 110.368 96.1847 107.766 92.0024C105.209 87.7819 104.217 82.0307 104.79 74.7488C105.177 69.8388 106.146 65.7701 107.698 62.5428C109.253 59.2739 111.346 56.8846 113.977 55.3751C116.608 53.8656 119.733 53.2532 123.354 53.5381C128.805 53.9671 132.815 56.2087 135.385 60.2628C137.955 64.317 138.951 70.0057 138.375 77.3292C137.992 82.1976 137.021 86.2871 135.463 89.5976C133.904 92.9082 131.806 95.3598 129.169 96.9526C126.531 98.5453 123.402 99.1993 119.782 98.9144ZM120.5 89.8017C122.497 89.9589 124.059 88.9932 125.186 86.9048C126.359 84.7781 127.135 81.3013 127.515 76.4745C127.891 71.6893 127.66 68.2379 126.822 66.1204C126.029 63.9645 124.634 62.808 122.636 62.6508C120.639 62.4936 119.059 63.416 117.897 65.4179C116.779 67.3815 116.032 70.7559 115.656 75.5411C115.276 80.368 115.478 83.9217 116.261 86.2024C117.089 88.4447 118.502 89.6445 120.5 89.8017ZM157.414 99.2383C156.165 99.1401 155.235 98.7319 154.621 98.0137C154.011 97.2539 153.755 96.2499 153.853 95.0016L154.512 86.6379L146.335 85.9944C145.128 85.8994 144.217 85.5136 143.6 84.8371C143.025 84.1638 142.785 83.2238 142.88 82.0171C142.975 80.8104 143.359 79.9195 144.032 79.3445C144.747 78.7727 145.708 78.5343 146.915 78.6293L155.091 79.2728L155.725 71.2212C155.823 69.9729 156.231 69.042 156.95 68.4287C157.668 67.8153 158.672 67.5594 159.962 67.6609C161.21 67.7591 162.12 68.1657 162.692 68.8806C163.305 69.5987 163.563 70.582 163.465 71.8303L162.831 79.8819L171.007 80.5254C172.214 80.6204 173.105 81.0045 173.68 81.6778C174.297 82.3544 174.557 83.296 174.462 84.5027C174.367 85.7094 173.963 86.5986 173.248 87.1704C172.574 87.7454 171.634 87.9855 170.428 87.8905L162.251 87.247L161.593 95.6107C161.495 96.859 161.085 97.8106 160.363 98.4656C159.687 99.0823 158.704 99.3398 157.414 99.2383ZM33.6067 132.907C32.5582 132.825 31.7693 132.474 31.2403 131.854C30.7113 131.235 30.49 130.376 30.5764 129.277L32.1769 108.942C32.2633 107.844 32.6162 107.03 33.2357 106.501C33.8551 105.972 34.6891 105.749 35.7377 105.831C36.8112 105.916 37.6125 106.268 38.1415 106.887C38.6955 107.509 38.9293 108.369 38.8428 109.467L38.2003 117.631L37.6011 117.584C38.2927 116.458 39.2123 115.626 40.3599 115.088C41.5325 114.552 42.8304 114.34 44.2534 114.452C45.7264 114.568 46.9147 114.951 47.8182 115.6C48.7237 116.223 49.3665 117.153 49.7465 118.389C50.1286 119.6 50.2488 121.104 50.1073 122.901L49.4884 130.766C49.402 131.864 49.049 132.678 48.4296 133.207C47.8102 133.736 46.9637 133.958 45.8901 133.874C44.8166 133.79 44.0153 133.438 43.4863 132.818C42.9572 132.199 42.736 131.34 42.8224 130.241L43.4207 122.639C43.5091 121.516 43.3723 120.701 43.0102 120.195C42.673 119.691 42.1299 119.41 41.3809 119.351C40.3823 119.272 39.5578 119.534 38.9075 120.136C38.2592 120.713 37.8928 121.538 37.8083 122.612L37.2424 129.802C37.0656 132.049 35.8537 133.084 33.6067 132.907ZM59.4202 135.014C57.9971 134.902 56.7569 134.541 55.6997 133.93C54.6674 133.321 53.8745 132.543 53.3211 131.595C52.7946 130.624 52.5776 129.552 52.6699 128.379C52.776 127.03 53.209 125.997 53.969 125.278C54.729 124.559 55.8957 124.098 57.4691 123.895C59.0446 123.668 61.118 123.655 63.6896 123.857L65.7493 124.019L65.5017 127.165L63.442 127.003C62.4683 126.927 61.651 126.938 60.9901 127.036C60.3561 127.112 59.8775 127.288 59.5543 127.564C59.2331 127.815 59.0549 128.165 59.0195 128.615C58.9743 129.189 59.1367 129.679 59.5067 130.085C59.9016 130.493 60.4861 130.727 61.26 130.788C61.8842 130.837 62.4443 130.743 62.9402 130.506C63.4612 130.27 63.8901 129.927 64.227 129.477C64.5659 129.001 64.7609 128.438 64.812 127.789L65.1539 123.445C65.2246 122.546 65.0376 121.891 64.5927 121.479C64.1728 121.069 63.4011 120.82 62.2776 120.732C61.6784 120.685 60.9984 120.706 60.2376 120.797C59.4788 120.863 58.6238 121.035 57.6725 121.311C56.9788 121.508 56.4016 121.5 55.941 121.288C55.4804 121.076 55.1295 120.747 54.8882 120.301C54.672 119.857 54.5835 119.385 54.6228 118.886C54.6871 118.388 54.8867 117.927 55.2216 117.501C55.5816 117.077 56.0959 116.766 56.7647 116.567C57.9984 116.212 59.1205 115.999 60.131 115.928C61.1664 115.859 62.1085 115.858 62.9574 115.924C65.0046 116.085 66.6662 116.518 67.9423 117.221C69.2453 117.901 70.1732 118.879 70.726 120.153C71.3058 121.405 71.521 122.979 71.3717 124.876L70.7764 132.441C70.6899 133.54 70.3619 134.356 69.7924 134.888C69.223 135.421 68.4389 135.649 67.4402 135.57C66.4166 135.489 65.6528 135.14 65.1487 134.523C64.6696 133.908 64.4733 133.051 64.5598 131.952L64.6364 130.978L64.8198 131.52C64.6321 132.309 64.291 132.973 63.7964 133.512C63.3018 134.051 62.6797 134.454 61.9301 134.722C61.1806 134.989 60.3439 135.087 59.4202 135.014ZM83.7008 136.925C81.6286 136.762 79.849 136.233 78.3621 135.337C76.9 134.443 75.8016 133.239 75.0667 131.724C74.3337 130.184 74.0449 128.428 74.2001 126.456C74.318 124.958 74.6603 123.641 75.227 122.505C75.7957 121.343 76.5618 120.386 77.5255 119.633C78.5141 118.882 79.6492 118.343 80.9309 118.017C82.2396 117.668 83.6679 117.554 85.2158 117.676C85.9398 117.733 86.6954 117.868 87.4825 118.081C88.2716 118.268 89.0758 118.583 89.8952 119.024C90.4767 119.296 90.8612 119.678 91.0485 120.17C91.2628 120.639 91.3244 121.134 91.2332 121.654C91.167 122.176 90.9798 122.639 90.6718 123.042C90.3887 123.447 90.0041 123.705 89.518 123.818C89.0568 123.932 88.5499 123.829 87.9973 123.51C87.6135 123.278 87.1999 123.108 86.7564 122.997C86.3399 122.864 85.9318 122.782 85.5324 122.75C84.8583 122.697 84.2512 122.75 83.7112 122.908C83.1962 123.069 82.7482 123.335 82.3672 123.707C81.9882 124.054 81.6762 124.507 81.4313 125.065C81.2114 125.626 81.0729 126.268 81.0159 126.992C80.902 128.44 81.1746 129.605 81.8337 130.485C82.4929 131.366 83.4841 131.859 84.8073 131.963C85.2068 131.994 85.6217 131.989 86.052 131.948C86.4843 131.881 86.9205 131.765 87.3607 131.599C87.9565 131.369 88.4722 131.36 88.9079 131.57C89.3455 131.755 89.6849 132.07 89.9261 132.516C90.1673 132.963 90.2798 133.449 90.2635 133.975C90.2492 134.476 90.0985 134.954 89.8115 135.409C89.5265 135.839 89.0755 136.142 88.4587 136.32C87.6053 136.63 86.7742 136.815 85.9655 136.877C85.1798 136.966 84.4249 136.982 83.7008 136.925ZM95.7421 137.797C94.6935 137.715 93.9047 137.364 93.3756 136.745C92.8466 136.125 92.6253 135.266 92.7118 134.168L94.3122 113.833C94.3986 112.734 94.7516 111.92 95.371 111.391C95.9904 110.862 96.8244 110.639 97.873 110.722C98.9465 110.806 99.7478 111.158 100.277 111.777C100.831 112.399 101.065 113.259 100.978 114.357L100.006 126.716L100.08 126.721L105.085 121.538C105.769 120.839 106.386 120.335 106.938 120.026C107.517 119.695 108.268 119.566 109.192 119.638C110.115 119.711 110.809 119.992 111.273 120.481C111.737 120.969 111.955 121.552 111.927 122.228C111.899 122.904 111.571 123.556 110.944 124.185L105.541 129.638L105.724 127.316L110.718 134.718C111.212 135.46 111.383 136.165 111.23 136.831C111.079 137.472 110.713 137.971 110.132 138.327C109.577 138.685 108.887 138.832 108.063 138.767C107.064 138.689 106.279 138.451 105.707 138.054C105.138 137.633 104.584 137.011 104.045 136.19L99.8181 130.054L99.7432 130.049L99.3778 134.692C99.2009 136.939 97.989 137.974 95.7421 137.797ZM123.945 140.092C121.698 139.916 119.781 139.375 118.194 138.472C116.634 137.545 115.474 136.323 114.714 134.806C113.954 133.29 113.652 131.545 113.807 129.573C113.957 127.675 114.499 126.047 115.435 124.689C116.398 123.308 117.635 122.275 119.146 121.59C120.684 120.882 122.389 120.602 124.261 120.749C125.634 120.857 126.865 121.18 127.953 121.718C129.043 122.231 129.954 122.943 130.686 123.855C131.42 124.742 131.941 125.787 132.248 126.992C132.58 128.199 132.689 129.526 132.575 130.974C132.536 131.474 132.369 131.837 132.075 132.066C131.783 132.269 131.337 132.347 130.738 132.299L119.278 131.398L119.526 128.252L127.84 128.906L127.202 129.346C127.275 128.422 127.209 127.663 127.004 127.069C126.8 126.475 126.46 126.009 125.984 125.67C125.533 125.333 124.946 125.136 124.222 125.079C123.448 125.018 122.759 125.153 122.155 125.482C121.579 125.788 121.113 126.279 120.758 126.955C120.404 127.63 120.185 128.492 120.103 129.541L120.076 129.878C119.937 131.65 120.223 132.954 120.936 133.789C121.676 134.601 122.87 135.072 124.518 135.201C125.067 135.244 125.696 135.231 126.405 135.161C127.141 135.069 127.843 134.923 128.512 134.724C129.181 134.526 129.746 134.532 130.206 134.745C130.669 134.932 131.009 135.235 131.227 135.654C131.472 136.05 131.588 136.499 131.574 137C131.561 137.476 131.412 137.942 131.125 138.397C130.839 138.826 130.4 139.143 129.806 139.348C128.901 139.679 127.941 139.905 126.927 140.026C125.937 140.149 124.943 140.171 123.945 140.092ZM138.095 141.131C136.996 141.044 136.17 140.69 135.616 140.069C135.087 139.449 134.866 138.591 134.952 137.492L135.928 125.096C136.012 124.023 136.352 123.22 136.946 122.689C137.565 122.16 138.399 121.937 139.448 122.02C140.497 122.102 141.273 122.452 141.777 123.07C142.281 123.687 142.491 124.533 142.406 125.606L142.286 127.142L141.911 127.112C142.279 125.634 143.009 124.498 144.101 123.705C145.218 122.913 146.553 122.554 148.105 122.626C148.831 122.658 149.353 122.887 149.671 123.314C150.016 123.718 150.16 124.445 150.102 125.496C150.031 126.395 149.788 127.091 149.372 127.586C148.957 128.081 148.22 128.337 147.164 128.355L146.297 128.362C144.964 128.382 143.973 128.681 143.325 129.258C142.678 129.81 142.308 130.685 142.214 131.884L141.73 138.025C141.644 139.124 141.291 139.938 140.672 140.467C140.052 140.996 139.193 141.217 138.095 141.131ZM158.076 142.779C156.977 142.692 155.861 142.516 154.726 142.251C153.614 142.013 152.613 141.645 151.723 141.148C151.119 140.849 150.696 140.477 150.455 140.031C150.238 139.587 150.149 139.128 150.186 138.653C150.248 138.181 150.419 137.767 150.698 137.412C151.004 137.035 151.375 136.787 151.812 136.671C152.275 136.532 152.773 136.583 153.307 136.826C154.326 137.283 155.24 137.632 156.051 137.871C156.888 138.088 157.693 138.227 158.467 138.288C159.391 138.36 160.062 138.288 160.481 138.069C160.902 137.826 161.13 137.492 161.163 137.068C161.193 136.693 161.078 136.395 160.819 136.174C160.585 135.955 160.234 135.789 159.765 135.677L155.662 134.675C154.135 134.279 152.981 133.623 152.199 132.707C151.419 131.767 151.084 130.597 151.194 129.199C151.296 127.901 151.746 126.818 152.542 125.952C153.366 125.062 154.434 124.417 155.747 124.018C157.086 123.596 158.592 123.451 160.265 123.583C161.388 123.671 162.405 123.839 163.315 124.086C164.227 124.309 165.103 124.667 165.944 125.16C166.475 125.428 166.837 125.783 167.028 126.225C167.219 126.667 167.271 127.123 167.184 127.594C167.099 128.039 166.903 128.451 166.597 128.829C166.318 129.184 165.948 129.418 165.487 129.533C165.027 129.622 164.506 129.544 163.923 129.297C163.124 128.907 162.406 128.612 161.769 128.411C161.157 128.212 160.576 128.091 160.027 128.048C159.003 127.967 158.268 128.048 157.822 128.289C157.376 128.53 157.136 128.863 157.103 129.287C157.077 129.612 157.168 129.895 157.375 130.138C157.584 130.355 157.923 130.52 158.391 130.632L162.492 131.671C164.07 132.046 165.251 132.692 166.033 133.608C166.842 134.5 167.19 135.658 167.078 137.081C166.919 139.104 166.021 140.615 164.385 141.617C162.75 142.594 160.648 142.981 158.076 142.779Z" fill="#38375B"/>
</svg>
