<svg width="105" height="143" viewBox="0 0 105 143" fill="none" xmlns="http://www.w3.org/2000/svg">
<path d="M39.3826 124.065L55.1616 125.585L56.1231 128.081L55.5277 128.024C55.5277 128.024 56.5938 133.327 54.7824 135.764C53.5419 137.433 52.4337 137.966 50.3557 138.048C47.2557 138.171 44.9316 137.818 42.0197 137.246C39.8877 136.827 38.771 136.08 37.8125 134.13C36.4727 131.405 38.5578 126.39 38.5578 126.39L37.9624 126.332L39.3826 124.065Z" fill="#CF9A64"/>
<path d="M42.7256 115.985C42.2263 119.51 41.4354 121.614 40.2922 124.476" stroke="#ACACAC" stroke-width="0.643357"/>
<path d="M48.1689 116.509L47.3365 125.154" stroke="#ACACAC" stroke-width="0.643357"/>
<path d="M53.2921 117.002C52.9942 120.466 53.374 122.672 54.0607 125.802" stroke="#ACACAC" stroke-width="0.643357"/>
<path fill-rule="evenodd" clip-rule="evenodd" d="M97.8928 58.7433C99.3359 55.4466 100.278 51.913 100.636 48.2021C102.73 26.4507 83.9279 6.84388 58.6398 4.4089C33.3516 1.97393 11.1537 17.6329 9.05929 39.3843C8.69778 43.1387 8.95884 46.8292 9.76836 50.3785C12.2574 67.3306 19.674 80.9475 39.1678 105.947C47.2511 103.256 51.2088 104.365 58.6998 107.828C83.026 85.55 92.6409 73.5973 97.8928 58.7433Z" fill="#F3F1E5"/>
<path d="M51.0151 107.088C70.9671 52.8653 74.2939 25.9748 61.4907 5.00665C63.5391 5.09164 67.8217 5.45389 76.8413 10.0396C92.9177 35.9496 85.9537 60.4922 55.8181 107.55C53.9173 107.658 52.8612 107.537 51.0151 107.088Z" fill="#54AFB2"/>
<path d="M46.5283 106.656C37.289 49.6224 39.1543 22.5911 55.7231 4.4512C53.6962 4.14378 49.4232 3.68222 39.6943 6.46262C18.9694 28.8291 21.1225 54.2495 41.7253 106.193C43.5705 106.662 44.6305 106.744 46.5283 106.656Z" fill="#54AFB2"/>
<path fill-rule="evenodd" clip-rule="evenodd" d="M39.488 105.978C42.9703 104.788 44.9152 104.382 48.3492 104.569C53.2865 105.218 55.1592 106.119 58.3797 107.797L58.6999 107.828C56.2711 111.345 55.2744 113.372 54.2527 117.095L42.0852 115.923C41.9734 112.443 41.0678 110.392 40.1336 108.276C39.804 107.53 39.4709 106.775 39.1678 105.947L39.488 105.978Z" fill="#5B9898"/>
<path d="M57.4499 107.384C92.0005 71.7797 102.175 52.0355 88.0719 17.5841L95.3369 26.0396C108.329 51.5407 97.4045 71.8738 58.3796 107.797L57.4499 107.384Z" fill="#54AFB2"/>
<path d="M40.4794 105.75C13.5359 64.2246 7.58811 42.6049 27.9057 11.4677C24.5529 13.3049 22.4266 15.0606 18.9822 18.6877C0.29379 39.672 8.62875 67.2207 39.4936 105.979L40.4794 105.75Z" fill="#54AFB2"/>
<path d="M55.6715 125.634L38.4228 123.973L36.8744 126.409L37.5253 126.472L56.0757 128.258L56.7266 128.321L55.6715 125.634Z" fill="#5D4227"/>
<path fill-rule="evenodd" clip-rule="evenodd" d="M42.4073 126.301L42.1024 124.973L41.5653 126.183C40.3845 126.227 39.3894 127.139 39.2731 128.348C39.1462 129.665 40.1112 130.836 41.4284 130.963C42.7455 131.089 43.9161 130.124 44.0429 128.807C44.1524 127.671 43.4487 126.643 42.4073 126.301Z" fill="#F2EFDD"/>
<path fill-rule="evenodd" clip-rule="evenodd" d="M47.707 126.812L47.4021 125.484L46.865 126.693C45.6842 126.738 44.6892 127.65 44.5728 128.858C44.446 130.175 45.4109 131.346 46.7281 131.473C48.0452 131.6 49.2158 130.635 49.3426 129.318C49.4521 128.181 48.7484 127.153 47.707 126.812Z" fill="#F2EFDD"/>
<path fill-rule="evenodd" clip-rule="evenodd" d="M53.007 127.322L52.702 125.994L52.165 127.204C50.9842 127.248 49.9891 128.16 49.8727 129.369C49.7459 130.686 50.7109 131.856 52.028 131.983C53.3452 132.11 54.5158 131.145 54.6426 129.828C54.752 128.691 54.0484 127.664 53.007 127.322Z" fill="#F2EFDD"/>
</svg>
