<svg width="157" height="219" viewBox="0 0 157 219" fill="none" xmlns="http://www.w3.org/2000/svg">
<path d="M61.0912 192.621L85.8568 194.136L87.4973 197.989L86.5627 197.932C86.5627 197.932 88.52 206.169 85.8196 210.081C83.9705 212.76 82.266 213.653 79.02 213.896C74.1773 214.257 70.5226 213.831 65.9363 213.095C62.5785 212.557 60.7908 211.449 59.185 208.452C56.9403 204.262 59.9281 196.303 59.9281 196.303L58.9935 196.245L61.0912 192.621Z" fill="#CF9A64"/>
<path d="M65.879 179.799C65.2906 185.34 64.1684 188.675 62.5363 193.214" stroke="#ACACAC" stroke-width="1.00699"/>
<path d="M74.4226 180.321L73.5927 193.89" stroke="#ACACAC" stroke-width="1.00699"/>
<path d="M82.4634 180.813C82.1865 186.248 82.9012 189.678 84.1462 194.536" stroke="#ACACAC" stroke-width="1.00699"/>
<path fill-rule="evenodd" clip-rule="evenodd" d="M149.049 87.2436C151.126 82.0082 152.407 76.4296 152.763 70.6055C154.851 36.4663 124.369 6.82306 84.6782 4.39549C44.9879 1.96793 11.1198 27.6753 9.03176 61.8146C8.67137 67.7069 9.28125 73.4653 10.7413 78.9729C15.5607 105.355 27.906 126.25 59.7654 164.292C72.2628 159.641 78.5143 161.159 90.4214 166.167C127.258 129.989 141.645 110.767 149.049 87.2436Z" fill="#F3F1E5"/>
<path d="M78.3599 165.429C106.608 79.521 110.343 37.2754 89.1703 5.17504C92.3792 5.1961 99.098 5.52881 113.458 12.2093C140.021 51.8612 130.468 90.6327 85.8983 165.89C82.9309 166.163 81.2722 166.031 78.3599 165.429Z" fill="#FCAAAF" fill-opacity="0.2"/>
<path d="M71.3179 164.999C53.7498 76.288 55.191 33.9021 80.1181 4.62141C76.9306 4.25125 70.2213 3.76267 55.1547 8.64338C23.9572 44.7625 28.7138 84.4092 63.7795 164.538C66.6915 165.17 68.354 165.241 71.3179 164.999Z" fill="#FCAAAF" fill-opacity="0.2"/>
<path fill-rule="evenodd" clip-rule="evenodd" d="M60.2679 164.323C65.6501 162.271 68.6703 161.529 74.0521 161.635C81.8108 162.379 84.7894 163.687 89.9187 166.136L60.2679 164.323ZM61.4032 167.883C62.9802 171.142 64.5088 174.3 64.8738 179.738L83.971 180.906C85.3657 175.027 86.8141 171.802 90.4213 166.167L59.7653 164.292C60.2846 165.571 60.8469 166.733 61.4032 167.883Z" fill="#FCAAAF"/>
<path d="M88.4419 165.542C140.543 107.959 155.38 76.5185 131.438 23.3978L143.264 36.2276C164.98 75.4084 149.002 107.811 89.9189 166.136L88.4419 165.542Z" fill="#FCAAAF" fill-opacity="0.2"/>
<path d="M61.8065 163.912C17.3913 100.427 6.90646 66.9329 36.9876 17.1164C31.8434 20.1734 28.6131 23.0358 23.4234 28.8977C-4.66399 62.7435 9.87894 105.382 60.2768 164.323L61.8065 163.912Z" fill="#FCAAAF" fill-opacity="0.2"/>
<path d="M86.6569 194.185L59.5847 192.529L57.2956 196.425L58.3172 196.487L87.4326 198.268L88.4542 198.33L86.6569 194.185Z" fill="#5D4227"/>
<path fill-rule="evenodd" clip-rule="evenodd" d="M65.9446 195.954L65.395 193.893L64.621 195.815C62.7764 195.949 61.2696 197.43 61.1536 199.327C61.0272 201.394 62.6005 203.172 64.6678 203.299C66.7352 203.425 68.5135 201.852 68.64 199.785C68.7491 198.001 67.5923 196.432 65.9446 195.954Z" fill="#F2EFDD"/>
<path fill-rule="evenodd" clip-rule="evenodd" d="M74.263 196.463L73.7134 194.402L72.9393 196.324C71.0947 196.458 69.588 197.939 69.472 199.835C69.3455 201.903 70.9189 203.681 72.9862 203.808C75.0535 203.934 76.8319 202.361 76.9583 200.293C77.0675 198.509 75.9107 196.94 74.263 196.463Z" fill="#F2EFDD"/>
<path fill-rule="evenodd" clip-rule="evenodd" d="M82.5811 196.971L82.0315 194.911L81.2575 196.832C79.4128 196.966 77.9061 198.447 77.7901 200.344C77.6636 202.411 79.237 204.19 81.3043 204.316C83.3716 204.443 85.15 202.869 85.2765 200.802C85.3856 199.018 84.2288 197.449 82.5811 196.971Z" fill="#F2EFDD"/>
<path d="M45.3546 91.3225C44.3933 91.2637 43.6015 90.8826 42.9791 90.1791C42.3567 89.4756 42.0759 88.6266 42.1367 87.6322L42.3617 83.9528L43.7713 85.3865C41.5565 85.1513 39.6511 84.7519 38.0553 84.1885C36.4595 83.6251 35.162 83.08 34.1628 82.553C33.3253 82.1026 32.7465 81.5016 32.4265 80.75C32.1396 80.0005 32.0526 79.2466 32.1656 78.4882C32.3116 77.7319 32.636 77.0531 33.1386 76.4517C33.6411 75.8502 34.2631 75.4724 35.0045 75.3181C35.7811 75.1327 36.6534 75.2859 37.6215 75.7776C38.2622 76.1828 39.2333 76.6248 40.5348 77.1037C41.8716 77.5514 43.5344 77.8361 45.5232 77.9577C46.9154 78.0429 48.0174 77.9772 48.8291 77.7607C49.674 77.5462 50.2754 77.2336 50.6332 76.823C51.0262 76.3812 51.2389 75.8952 51.2714 75.3648C51.3018 74.8676 51.1945 74.4451 50.9496 74.0974C50.7399 73.7186 50.3614 73.3794 49.8141 73.0798C49.2689 72.747 48.5061 72.4341 47.5259 72.1413L41.9804 70.6043C38.9403 69.7197 36.7075 68.4186 35.282 66.7012C33.8918 64.9526 33.2767 62.7689 33.4369 60.1503C33.5585 58.1615 34.1476 56.4175 35.2042 54.9183C36.2959 53.3881 37.7506 52.1795 39.5682 51.2925C41.419 50.4076 43.5458 49.9055 45.9487 49.7863L44.4053 50.5403L44.6091 47.209C44.6699 46.2146 45.0521 45.4062 45.7556 44.7838C46.459 44.1614 47.2914 43.8796 48.2527 43.9384C49.2471 43.9992 50.0555 44.3813 50.6779 45.0848C51.3003 45.7883 51.5811 46.6373 51.5203 47.6317L51.3166 50.963L49.8827 49.9271C51.1403 50.0373 52.4861 50.3358 53.9203 50.8228C55.3565 51.2766 56.6012 51.8685 57.6545 52.5983C58.3926 53.0427 58.8895 53.6221 59.1453 54.3364C59.4342 55.0528 59.5066 55.7726 59.3625 56.4957C59.2537 57.1878 58.95 57.8014 58.4514 58.3365C57.9861 58.8736 57.3661 59.2183 56.5915 59.3706C55.8522 59.4917 54.9819 59.3054 53.9807 58.8116C53.2385 58.4335 52.3929 58.1156 51.4438 57.858C50.5299 57.5692 49.3437 57.3802 47.8852 57.291C46.1284 57.1835 44.7501 57.4153 43.7503 57.9863C42.7836 58.5593 42.2699 59.3431 42.2091 60.3375C42.1685 61.0004 42.3992 61.5801 42.9012 62.0767C43.4384 62.542 44.4261 62.9851 45.8643 63.4057L51.4564 64.9954C54.5629 65.8841 56.8122 67.1862 58.2045 68.9017C59.632 70.586 60.2676 72.7043 60.1115 75.2567C59.9899 77.2455 59.4018 78.9729 58.3473 80.4389C57.2927 81.9049 55.8742 83.0658 54.0918 83.9217C52.3425 84.7796 50.3317 85.2887 48.0594 85.4492L49.276 84.3258L49.0479 88.0549C48.9871 89.0493 48.6049 89.8577 47.9014 90.4801C47.2311 91.1046 46.3821 91.3854 45.3546 91.3225ZM74.8153 87.4849C73.2242 87.3876 71.5615 87.1029 69.8269 86.6308C68.0924 86.1588 66.5027 85.4959 65.0577 84.6423C64.1911 84.1235 63.5978 83.4883 63.2778 82.7368C62.9929 81.9541 62.9235 81.1846 63.0696 80.4283C63.2488 79.674 63.5887 79.0128 64.0893 78.4445C64.623 77.8783 65.2595 77.5346 65.9989 77.4134C66.7734 77.2612 67.594 77.4444 68.4606 77.9633C69.522 78.5605 70.6247 79.0272 71.7687 79.3633C72.9457 79.7015 74.0481 79.902 75.0756 79.9649C76.2026 80.0338 77.1741 79.9269 77.9899 79.644C78.8057 79.3612 79.4317 78.9171 79.868 78.3116C80.3374 77.7082 80.5985 76.9755 80.6512 76.1137C80.7323 74.7878 80.3487 73.7163 79.5004 72.8992C78.652 72.082 77.482 71.6279 75.9904 71.5366C75.3274 71.4961 74.5921 71.5509 73.7844 71.7011C73.0099 71.8534 72.191 72.1859 71.3279 72.6988C70.9511 72.8753 70.4397 73.077 69.7936 73.3036C69.1497 73.4971 68.4962 73.5736 67.8332 73.5331C66.6399 73.4601 65.7788 73.1246 65.2497 72.5266C64.7207 71.9287 64.4876 71.1159 64.5504 70.0883L65.4688 55.0726C65.5459 53.813 65.9361 52.872 66.6396 52.2496C67.3763 51.6292 68.3578 51.3565 69.5843 51.4315L85.1967 52.3864C86.4231 52.4614 87.3486 52.8341 87.973 53.5045C88.5974 54.1748 88.8721 55.1232 88.7971 56.3497C88.7241 57.543 88.3369 58.4342 87.6355 59.0235C86.934 59.6127 85.97 59.8699 84.7436 59.7949L73.8547 59.1289L73.3772 66.9351L71.2889 66.8073C72.1412 65.9279 73.228 65.2956 74.5491 64.9106C75.8722 64.4925 77.2962 64.3301 78.821 64.4233C81.0419 64.5592 82.9682 65.1594 84.5999 66.2241C86.2336 67.2556 87.4629 68.645 88.2876 70.3923C89.1455 72.1416 89.5055 74.1433 89.3676 76.3973C89.2216 78.7839 88.5294 80.8543 87.2909 82.6085C86.0875 84.3315 84.4113 85.6264 82.2622 86.4931C80.1483 87.3287 77.666 87.6593 74.8153 87.4849ZM96.9278 88.7376C95.5356 88.6524 94.4817 88.2053 93.7659 87.3963C93.0502 86.5873 92.7369 85.4535 92.8261 83.995L94.4774 56.9965C94.5666 55.538 95.0157 54.4509 95.8247 53.7352C96.6337 53.0194 97.7343 52.7041 99.1265 52.7892C100.552 52.8764 101.622 53.3245 102.338 54.1335C103.087 54.9446 103.417 56.0793 103.328 57.5378L102.324 73.9458L102.424 73.9519L108.94 66.9642C109.829 66.0204 110.636 65.3378 111.361 64.9163C112.12 64.4637 113.113 64.2749 114.34 64.3499C115.566 64.4249 116.493 64.781 117.119 65.4182C117.746 66.0554 118.048 66.8225 118.026 67.7196C118.005 68.6166 117.585 69.4892 116.768 70.3376L109.731 77.6926L109.919 74.6099L116.712 84.3081C117.385 85.2809 117.627 86.2107 117.44 87.0975C117.255 87.9513 116.781 88.621 116.02 89.1067C115.291 89.5945 114.38 89.805 113.286 89.7381C111.96 89.657 110.914 89.3601 110.146 88.8473C109.381 88.3015 108.632 87.4904 107.9 86.4142L102.153 78.377L102.054 78.3709L101.676 84.5364C101.494 87.5196 99.9111 88.92 96.9278 88.7376ZM30.4948 111.501C29.7962 111.458 29.2682 111.217 28.911 110.778C28.5538 110.339 28.3992 109.728 28.447 108.946L28.9293 101.061C28.9771 100.279 29.205 99.6919 29.6131 99.2995C30.0211 98.907 30.5745 98.7321 31.2732 98.7748C31.9885 98.8186 32.5248 99.0601 32.882 99.4994C33.2558 99.9397 33.4188 100.551 33.371 101.333L32.8887 109.218C32.8409 110 32.6129 110.587 32.2049 110.979C31.7968 111.372 31.2268 111.546 30.4948 111.501ZM31.3816 97.0031C30.5997 96.9553 30.0037 96.7352 29.5936 96.3428C29.2001 95.9513 29.0247 95.4063 29.0674 94.7076C29.1091 94.0255 29.3491 93.5142 29.7874 93.1737C30.2423 92.8341 30.8607 92.6883 31.6426 92.7361C32.4577 92.786 33.062 93.0066 33.4555 93.398C33.849 93.7894 34.0249 94.3262 33.9832 95.0082C33.9405 95.7069 33.7 96.2266 33.2617 96.5671C32.8234 96.9077 32.1967 97.053 31.3816 97.0031ZM37.513 111.93C36.8143 111.888 36.2853 111.663 35.9261 111.257C35.5669 110.851 35.4097 110.282 35.4544 109.55L35.9596 101.291C36.0034 100.575 36.2199 100.038 36.6093 99.6773C37.0153 99.3181 37.5677 99.1598 38.2664 99.2026C38.9651 99.2453 39.4857 99.4692 39.8283 99.8742C40.1709 100.279 40.3203 100.839 40.2766 101.555L40.2048 102.727L39.9929 101.688C40.44 100.93 41.0422 100.366 41.7996 99.9947C42.5737 99.6246 43.4348 99.4686 44.383 99.5266C45.3645 99.5866 46.1596 99.8273 46.7684 100.249C47.3782 100.653 47.8167 101.264 48.0839 102.082C48.3522 102.883 48.4497 103.883 48.3764 105.081L48.0559 110.321C48.0111 111.053 47.7857 111.598 47.3797 111.958C46.9737 112.317 46.413 112.475 45.6977 112.431C44.9824 112.387 44.4451 112.162 44.0859 111.756C43.7266 111.35 43.5694 110.781 43.6142 110.049L43.924 104.984C43.9698 104.235 43.8693 103.695 43.6224 103.362C43.3922 103.031 43.0276 102.85 42.5285 102.819C41.8631 102.779 41.3175 102.963 40.8918 103.371C40.4671 103.762 40.2329 104.315 40.1892 105.031L39.8961 109.822C39.8046 111.319 39.0102 112.022 37.513 111.93ZM59.5111 117.784C58.8124 117.741 58.2834 117.517 57.9242 117.111C57.565 116.705 57.4078 116.136 57.4526 115.404L58.2324 102.653C58.2762 101.938 58.4928 101.4 58.8822 101.04C59.2882 100.68 59.8405 100.522 60.5392 100.565C61.2546 100.609 61.7835 100.833 62.1261 101.238C62.4853 101.644 62.643 102.205 62.5993 102.92L62.5108 104.367L62.3111 103.128C62.5898 102.393 63.1088 101.824 63.8682 101.42C64.6453 101 65.508 100.819 66.4562 100.877C67.5209 100.942 68.4367 101.257 69.2037 101.821C69.9873 102.387 70.5747 103.157 70.9658 104.133C71.357 105.109 71.5114 106.27 71.429 107.618C71.3486 108.932 71.0543 110.058 70.5461 110.995C70.038 111.933 69.3605 112.634 68.5138 113.1C67.6838 113.567 66.7364 113.768 65.6718 113.703C64.7568 113.647 63.9466 113.38 63.2411 112.903C62.5355 112.425 62.0794 111.83 61.8726 111.116L62.172 111.134L61.8943 115.676C61.8495 116.408 61.6158 116.953 61.1931 117.311C60.7871 117.67 60.2264 117.828 59.5111 117.784ZM64.4743 110.348C64.9235 110.376 65.321 110.292 65.6669 110.096C66.0305 109.884 66.3259 109.56 66.553 109.123C66.7811 108.669 66.9175 108.077 66.9623 107.345C67.0305 106.23 66.8631 105.418 66.46 104.909C66.058 104.384 65.5243 104.101 64.8589 104.06C64.4097 104.033 64.0039 104.116 63.6413 104.311C63.2787 104.506 62.9834 104.83 62.7553 105.284C62.5282 105.721 62.3917 106.314 62.3459 107.062C62.2788 108.16 62.4462 108.972 62.8482 109.497C63.2502 110.023 63.7922 110.307 64.4743 110.348ZM75.3347 114.244C74.6027 114.199 74.0488 113.973 73.673 113.566C73.3137 113.16 73.1565 112.591 73.2013 111.859L73.7065 103.599C73.7502 102.884 73.9668 102.346 74.3562 101.986C74.7622 101.627 75.3145 101.469 76.0132 101.511C76.7119 101.554 77.2326 101.778 77.5752 102.183C77.9177 102.588 78.0671 103.148 78.0234 103.863L77.9608 104.886L77.7113 104.871C77.9387 103.883 78.4112 103.119 79.1289 102.578C79.8632 102.039 80.7471 101.784 81.7805 101.814C82.264 101.827 82.614 101.973 82.8306 102.254C83.0649 102.519 83.169 103.001 83.1429 103.701C83.1063 104.299 82.9525 104.766 82.6816 105.1C82.4107 105.434 81.9239 105.613 81.2211 105.637L80.6441 105.652C79.7573 105.681 79.1016 105.891 78.6769 106.283C78.2532 106.658 78.017 107.244 77.9681 108.043L77.7178 112.135C77.6731 112.867 77.4477 113.413 77.0417 113.772C76.6356 114.131 76.0666 114.288 75.3347 114.244ZM86.0794 114.901C85.3808 114.858 84.8528 114.617 84.4956 114.178C84.1385 113.738 83.9838 113.128 84.0316 112.346L84.5139 104.461C84.5617 103.679 84.7896 103.092 85.1977 102.699C85.6057 102.307 86.1591 102.132 86.8578 102.175C87.5731 102.218 88.1094 102.46 88.4666 102.899C88.8404 103.339 89.0034 103.95 88.9556 104.732L88.4733 112.618C88.4255 113.4 88.1975 113.987 87.7895 114.379C87.3814 114.772 86.8114 114.946 86.0794 114.901ZM86.9662 100.403C86.1843 100.355 85.5883 100.135 85.1782 99.7425C84.7847 99.351 84.6093 98.806 84.652 98.1073C84.6937 97.4252 84.9337 96.9139 85.372 96.5734C85.8269 96.2338 86.4453 96.088 87.2272 96.1358C88.0423 96.1857 88.6466 96.4063 89.0401 96.7977C89.4336 97.1891 89.6095 97.7259 89.5678 98.4079C89.5251 99.1066 89.2846 99.6263 88.8463 99.9668C88.408 100.307 87.7813 100.453 86.9662 100.403ZM92.2629 115.054C91.8137 115.026 91.4544 114.896 91.1848 114.662C90.9162 114.412 90.7427 114.109 90.6643 113.754C90.5858 113.398 90.6087 113.024 90.733 112.631C90.8749 112.222 91.1145 111.852 91.452 111.522L97.641 105.339L97.58 106.337L92.6392 106.035C92.1069 106.002 91.7079 105.836 91.4424 105.536C91.1769 105.236 91.0604 104.819 91.093 104.287C91.1256 103.755 91.2914 103.364 91.5905 103.115C91.8906 102.85 92.3068 102.733 92.8391 102.766L99.9009 103.198C100.4 103.228 100.8 103.37 101.102 103.622C101.405 103.857 101.596 104.153 101.674 104.508C101.769 104.865 101.755 105.24 101.63 105.633C101.506 106.026 101.275 106.388 100.938 106.718L94.5885 113.067L94.6587 111.919L99.9738 112.244C101.088 112.312 101.613 112.887 101.546 113.968C101.514 114.501 101.348 114.9 101.047 115.165C100.747 115.431 100.323 115.546 99.7739 115.513L92.2629 115.054ZM109.502 116.383C108.005 116.292 106.723 115.955 105.657 115.372C104.608 114.773 103.822 113.974 103.299 112.973C102.776 111.973 102.554 110.816 102.635 109.501C102.712 108.237 103.054 107.148 103.661 106.233C104.286 105.303 105.097 104.601 106.094 104.128C107.109 103.639 108.241 103.432 109.488 103.509C110.403 103.565 111.226 103.765 111.956 104.11C112.687 104.439 113.302 104.902 113.8 105.501C114.299 106.082 114.657 106.772 114.875 107.57C115.11 108.369 115.198 109.251 115.139 110.216C115.119 110.549 115.012 110.793 114.819 110.948C114.627 111.086 114.331 111.143 113.932 111.119L106.296 110.652L106.424 108.556L111.964 108.895L111.545 109.195C111.583 108.579 111.53 108.075 111.387 107.682C111.244 107.289 111.012 106.983 110.692 106.763C110.388 106.544 109.995 106.42 109.512 106.39C108.997 106.359 108.54 106.456 108.142 106.682C107.762 106.893 107.458 107.225 107.23 107.678C107.001 108.132 106.866 108.708 106.823 109.407L106.81 109.631C106.737 110.813 106.943 111.677 107.427 112.224C107.929 112.756 108.729 113.055 109.827 113.122C110.193 113.145 110.611 113.128 111.082 113.074C111.571 113.003 112.036 112.898 112.479 112.758C112.922 112.619 113.298 112.616 113.607 112.752C113.917 112.871 114.147 113.069 114.297 113.345C114.464 113.606 114.546 113.903 114.543 114.237C114.54 114.554 114.446 114.866 114.26 115.172C114.076 115.461 113.787 115.677 113.394 115.82C112.795 116.051 112.159 116.212 111.486 116.304C110.829 116.398 110.168 116.424 109.502 116.383ZM121.547 117.12C120.815 117.075 120.07 116.971 119.312 116.808C118.569 116.663 117.899 116.429 117.301 116.109C116.895 115.917 116.609 115.674 116.444 115.38C116.295 115.087 116.23 114.783 116.249 114.467C116.285 114.152 116.394 113.874 116.576 113.635C116.775 113.38 117.019 113.211 117.308 113.129C117.614 113.031 117.947 113.059 118.304 113.215C118.988 113.507 119.6 113.728 120.142 113.878C120.702 114.013 121.239 114.096 121.755 114.127C122.371 114.165 122.817 114.109 123.093 113.959C123.37 113.792 123.518 113.567 123.535 113.284C123.55 113.035 123.47 112.838 123.296 112.694C123.137 112.55 122.902 112.444 122.589 112.375L119.846 111.756C118.826 111.51 118.05 111.087 117.519 110.487C116.989 109.87 116.753 109.096 116.81 108.164C116.863 107.299 117.149 106.574 117.669 105.988C118.207 105.386 118.91 104.945 119.779 104.664C120.666 104.368 121.666 104.253 122.781 104.322C123.529 104.367 124.208 104.467 124.816 104.621C125.426 104.759 126.013 104.987 126.578 105.305C126.935 105.477 127.179 105.709 127.312 106.001C127.444 106.293 127.484 106.596 127.431 106.91C127.38 107.208 127.254 107.484 127.055 107.739C126.873 107.978 126.63 108.139 126.324 108.22C126.02 108.285 125.672 108.239 125.281 108.081C124.745 107.831 124.264 107.643 123.838 107.517C123.428 107.392 123.04 107.318 122.674 107.296C121.992 107.254 121.504 107.316 121.21 107.482C120.916 107.647 120.76 107.872 120.743 108.154C120.73 108.371 120.793 108.558 120.934 108.717C121.075 108.859 121.303 108.965 121.616 109.034L124.357 109.678C125.411 109.909 126.204 110.325 126.735 110.925C127.284 111.51 127.529 112.276 127.471 113.225C127.388 114.572 126.809 115.588 125.731 116.274C124.655 116.943 123.26 117.225 121.547 117.12Z" fill="#313556"/>
</svg>
