<svg width="118" height="165" viewBox="0 0 118 165" fill="none" xmlns="http://www.w3.org/2000/svg">
<path d="M45.9914 145.011L64.6357 146.152L65.8707 149.052L65.1672 149.009C65.1672 149.009 66.6407 155.21 64.6077 158.155C63.2156 160.172 61.9325 160.845 59.4888 161.027C55.8431 161.299 53.0916 160.978 49.639 160.425C47.1111 160.019 45.7653 159.185 44.5564 156.929C42.8665 153.774 45.1158 147.782 45.1158 147.782L44.4122 147.739L45.9914 145.011Z" fill="#CF9A64"/>
<path d="M49.5959 135.358C49.1529 139.53 48.3081 142.041 47.0794 145.458" stroke="#ACACAC" stroke-width="0.758096"/>
<path d="M56.0277 135.751L55.4029 145.967" stroke="#ACACAC" stroke-width="0.758096"/>
<path d="M62.0812 136.122C61.8728 140.214 62.4108 142.795 63.3481 146.453" stroke="#ACACAC" stroke-width="0.758096"/>
<path fill-rule="evenodd" clip-rule="evenodd" d="M112.208 65.6804C113.772 61.7388 114.737 57.5388 115.005 53.1541C116.577 27.453 93.6286 5.13661 63.7485 3.30907C33.8684 1.48152 8.37144 20.8348 6.79949 46.5359C6.52817 50.9721 6.98737 55.3074 8.08664 59.4539C11.7149 79.3148 21.0089 95.0454 44.9934 123.684C54.4018 120.182 59.1081 121.325 68.0722 125.095C95.8032 97.8601 106.634 83.3889 112.208 65.6804Z" fill="#F3F1E5"/>
<path d="M58.992 124.54C80.2581 59.8655 83.07 28.0617 67.1304 3.89557C69.5461 3.91142 74.6043 4.1619 85.4146 9.19118C105.412 39.0424 98.2204 68.2308 64.6671 124.887C62.4332 125.093 61.1844 124.993 58.992 124.54Z" fill="#E7AA36"/>
<path d="M53.6904 124.216C40.4646 57.4317 41.5496 25.5222 60.3155 3.47879C57.9158 3.20012 52.8649 2.8323 41.5222 6.50665C18.0358 33.6983 21.6167 63.5455 48.0153 123.869C50.2075 124.345 51.4591 124.398 53.6904 124.216Z" fill="#E7AA36"/>
<path fill-rule="evenodd" clip-rule="evenodd" d="M45.3718 123.707C49.4237 122.163 51.6973 121.604 55.7489 121.684C61.59 122.244 63.8323 123.228 67.6939 125.072L68.0722 125.096C65.3566 129.338 64.2662 131.766 63.2162 136.191L48.8393 135.312C48.5645 131.218 47.4137 128.84 46.2265 126.387C45.8077 125.522 45.3844 124.647 44.9934 123.684L45.3718 123.707Z" fill="#D79439"/>
<path d="M66.5819 124.625C105.805 81.275 116.975 57.6053 98.9504 17.6143L107.854 27.273C124.202 56.7695 112.173 81.1636 67.6938 125.072L66.5819 124.625Z" fill="#E7AA36"/>
<path d="M46.5299 123.398C13.0928 75.6045 5.19949 50.3891 27.8455 12.8856C23.9728 15.1871 21.541 17.342 17.6339 21.755C-3.51111 47.2352 7.43726 79.3345 45.3783 123.708L46.5299 123.398Z" fill="#E7AA36"/>
<path d="M65.2382 146.189L44.8574 144.942L43.1341 147.875L43.9032 147.922L65.8221 149.262L66.5912 149.309L65.2382 146.189Z" fill="#5D4227"/>
<path fill-rule="evenodd" clip-rule="evenodd" d="M49.6452 147.52L49.2315 145.969L48.6488 147.416C47.2601 147.516 46.1258 148.631 46.0384 150.059C45.9432 151.616 47.1277 152.954 48.6841 153.05C50.2404 153.145 51.5792 151.96 51.6744 150.404C51.7565 149.061 50.8857 147.88 49.6452 147.52Z" fill="#F2EFDD"/>
<path fill-rule="evenodd" clip-rule="evenodd" d="M55.9074 147.903L55.4937 146.352L54.911 147.799C53.5223 147.899 52.388 149.014 52.3006 150.442C52.2054 151.999 53.3899 153.338 54.9463 153.433C56.5026 153.528 57.8414 152.343 57.9366 150.787C58.0188 149.444 57.1479 148.263 55.9074 147.903Z" fill="#F2EFDD"/>
<path fill-rule="evenodd" clip-rule="evenodd" d="M62.1697 148.286L61.756 146.735L61.1733 148.182C59.7846 148.282 58.6502 149.397 58.5629 150.825C58.4677 152.382 59.6522 153.721 61.2085 153.816C62.7649 153.911 64.1037 152.726 64.1989 151.17C64.281 149.827 63.4101 148.646 62.1697 148.286Z" fill="#F2EFDD"/>
</svg>
