<svg width="25" height="17" viewBox="0 0 25 17" fill="none" xmlns="http://www.w3.org/2000/svg">
<path d="M8.97349 11.5121L1.36969 0.991586C1.36969 0.991586 6.9711 4.37033 9.58708 7.52799C10.494 8.62266 11.7037 10.4894 11.7037 10.4894C11.4725 11.5833 16.4615 8.52395 16.4615 8.52395L23.6294 2.7255C23.6294 2.7255 20.9878 7.87539 18.0267 9.76898C15.8819 11.1406 11.8638 11.8945 11.8638 11.8945C11.8638 11.8945 14.5229 13.3708 14.6029 14.0733C14.683 14.7759 11.2323 15.9148 9.06247 15.4163C6.96913 14.9353 4.44687 12.3837 4.75812 11.9924C5.06938 11.6011 8.97349 11.5121 8.97349 11.5121Z" fill="white" stroke="white"/>
</svg>
