<svg width="20" height="8" viewBox="0 0 20 8" fill="none" xmlns="http://www.w3.org/2000/svg">
<path d="M15.7562 1.94162L11.5784 3.14322L10.5684 3.33601L9.53584 2.11866L7.05725 0.975286L4.31423 1.39785L0.58374 3.42334C0.58374 3.42334 2.16766 2.91894 5.05979 2.771C7.95192 2.62307 6.40053 2.51653 7.22889 2.66005C8.39384 2.86189 9.85659 4.07806 9.85659 4.07806C9.85659 4.07806 9.47011 5.04388 9.59216 5.644C9.68979 6.12409 9.77054 6.48086 10.1886 6.74252C10.7514 7.09479 11.3581 6.90455 11.9216 6.51275C12.7389 5.94451 12.4618 4.08593 12.4618 4.08593C12.4618 4.08593 13.7475 3.03227 15.9278 3.62638L19.4164 4.57697L15.7562 1.94162Z" fill="white" stroke="white"/>
</svg>
