<svg width="1784" height="476" viewBox="0 0 1784 476" fill="none" xmlns="http://www.w3.org/2000/svg">
<mask id="mask0_119_566" style="mask-type:alpha" maskUnits="userSpaceOnUse" x="0" y="0" width="1784" height="476">
<path d="M0 0H1784V476H0V0Z" fill="#D9D9D9"/>
</mask>
<g mask="url(#mask0_119_566)">
<path d="M686.894 187.459C571.997 207.739 513.79 297.307 513.79 297.307H1130.54V196.967C1130.54 196.967 1086.5 130.282 994.887 104.651C945.173 90.742 908.174 99.1484 858.986 115.636C779.481 142.285 726.197 180.522 686.894 187.459Z" fill="url(#paint0_linear_119_566)"/>
<path d="M316.216 211.338C236.802 237.197 183.579 274.302 144.321 281.033C87.4692 290.781 38.2239 337.488 3 382.145V471H561.829L614 181C614 181 543.472 225.55 451.963 200.679C402.305 187.182 365.349 195.339 316.216 211.338Z" fill="url(#paint1_linear_119_566)"/>
<path d="M784.441 189.703C645.708 226.294 552.067 211.187 383.217 294.359C309.675 330.584 45.5929 333.521 0.00219727 380.776C0.00219727 447.189 0.00240311 478 0.00240311 478H1784L1784 259.638V232.243C1769.28 227.093 1744.37 221.661 1703.96 216.369C1621.39 205.556 1617.91 225.358 1538.36 232.243C1415.26 242.898 1371.27 140.904 1088.61 119.271C1000.13 112.499 870.274 167.064 784.441 189.703Z" fill="url(#paint2_linear_119_566)"/>
<path d="M625.812 254.209C583.441 268.721 526.705 312.167 526.705 312.167L564.417 314.948C564.417 314.948 606.038 300.836 625.812 292.507C698.929 261.708 752.554 306.854 828.588 284.337C877.355 269.895 897.587 243.129 946.199 228.167C982.699 216.933 1006.78 214.379 1006.78 214.379V176.337C1006.78 176.337 961.057 184.939 932.765 194.975C883.661 212.395 863.335 240.345 813.127 254.209C742.578 273.69 695.069 230.489 625.812 254.209Z" fill="#3F3C3C"/>
<path d="M197.505 356.634C155.134 371.147 0 420.975 0 420.975V462.442C0 462.442 136.359 414.142 197.505 394.932C273.163 371.163 324.247 409.279 400.282 386.762C449.049 372.32 469.28 345.554 517.893 330.592C554.392 319.358 593.886 304.422 593.886 304.422L588.392 272.725C588.392 272.725 532.751 287.364 504.459 297.4C455.354 314.82 435.028 342.77 384.82 356.634C314.272 376.115 266.762 332.914 197.505 356.634Z" fill="#3F3C3C"/>
<path d="M744.69 273.48L769.822 274.843" stroke="#E8E8E8" stroke-width="3.0448"/>
<path d="M804.49 273.64L828.645 266.515" stroke="#E8E8E8" stroke-width="3.0448"/>
<path d="M853.175 257.443L875.384 245.515" stroke="#E8E8E8" stroke-width="3.0448"/>
<path d="M575.905 291.728L599.102 281.891" stroke="#E8E8E8" stroke-width="3.0448"/>
<path d="M523.959 313.865L547.156 304.028" stroke="#E8E8E8" stroke-width="3.0448"/>
<path d="M473.283 332.579L495.937 321.533" stroke="#E8E8E8" stroke-width="3.0448"/>
<path d="M421.064 360.317L443.524 348.874" stroke="#E8E8E8" stroke-width="3.0448"/>
<path d="M367.611 378.818L391.825 371.902" stroke="#E8E8E8" stroke-width="3.0448"/>
<path d="M312.351 373.332L337.199 377.373" stroke="#E8E8E8" stroke-width="3.0448"/>
<path d="M264.151 367.121L289.15 370.065" stroke="#E8E8E8" stroke-width="3.0448"/>
<path d="M214.624 370.251L239.615 367.235" stroke="#E8E8E8" stroke-width="3.0448"/>
<path d="M165.33 385.049L189.284 377.269" stroke="#E8E8E8" stroke-width="3.0448"/>
<path d="M120.376 399.137L144.331 391.357" stroke="#E8E8E8" stroke-width="3.0448"/>
<path d="M71.9257 416.243L95.8804 408.463" stroke="#E8E8E8" stroke-width="3.0448"/>
<path d="M23.9755 434.613L47.3083 425.107" stroke="#E8E8E8" stroke-width="3.0448"/>
<path d="M633.162 272.609L657.391 265.745" stroke="#E8E8E8" stroke-width="3.0448"/>
<path d="M687.405 264.69L712.191 269.099" stroke="#E8E8E8" stroke-width="3.0448"/>
<path d="M1387.58 254.22C1429.95 268.732 1486.68 312.177 1486.68 312.177L1435.99 318.56C1435.99 318.56 1407.35 300.847 1387.58 292.517C1314.46 261.719 1260.83 306.864 1184.8 284.347C1136.03 269.905 1110.93 254.251 1067.19 228.177C1044.04 214.379 1006.61 214.379 1006.61 214.379V176.336C1006.61 176.336 1036.69 172.762 1080.62 194.986C1127.15 218.519 1150.05 240.355 1200.26 254.22C1270.81 273.7 1318.32 230.499 1387.58 254.22Z" fill="#3F3C3C"/>
<path d="M1500.16 355.139C1457.79 340.626 1401.05 297.181 1401.05 297.181L1451.75 290.798C1451.75 290.798 1480.38 308.511 1500.16 316.841C1573.28 347.64 1626.9 302.494 1702.94 325.011C1751.7 339.453 1776.8 355.107 1820.55 381.181C1843.7 394.979 1881.13 394.979 1881.13 394.979C1880.94 409.836 1880.97 418.165 1881.13 433.022C1881.13 433.022 1851.05 436.596 1807.11 414.373C1760.59 390.839 1737.68 369.003 1687.47 355.139C1616.93 335.658 1569.42 378.859 1500.16 355.139Z" fill="#3F3C3C"/>
<path d="M1268.7 273.492L1243.56 274.855" stroke="#E8E8E8" stroke-width="3.0448"/>
<path d="M1208.9 273.65L1184.74 266.525" stroke="#E8E8E8" stroke-width="3.0448"/>
<path d="M1160.21 257.453L1138 245.525" stroke="#E8E8E8" stroke-width="3.0448"/>
<path d="M1112.58 231.554L1090.37 219.626" stroke="#E8E8E8" stroke-width="3.0448"/>
<path d="M1066.06 209.061L1042.42 200.363" stroke="#E8E8E8" stroke-width="3.0448"/>
<path d="M1018.46 195.889L993.473 198.95" stroke="#E8E8E8" stroke-width="3.0448"/>
<path d="M969.086 201.883L944.945 209.056" stroke="#E8E8E8" stroke-width="3.0448"/>
<path d="M920.828 219.424L898.194 230.511" stroke="#E8E8E8" stroke-width="3.0448"/>
<path d="M1434.47 299.412L1413.68 285.114" stroke="#E8E8E8" stroke-width="3.0448"/>
<path d="M1477.78 328.24L1456.99 313.942" stroke="#E8E8E8" stroke-width="3.0448"/>
<path d="M1529.47 344.565L1505.2 337.862" stroke="#E8E8E8" stroke-width="3.0448"/>
<path d="M1782.66 380.394C1782.66 380.394 1749.49 362.714 1736.21 356.244C1713.43 345.155 1699.88 338.689 1674.77 335.616C1661.21 333.958 1621.32 337.628 1621.32 337.628L1559.89 345.676" stroke="#E8E8E8" stroke-width="3.0448" stroke-dasharray="30 30"/>
<path d="M1380.22 272.621L1356 265.757" stroke="#E8E8E8" stroke-width="3.0448"/>
<path d="M1325.98 264.7L1301.2 269.109" stroke="#E8E8E8" stroke-width="3.0448"/>
<rect width="33.8022" height="7.80715" rx="3.90358" transform="matrix(0.970623 -0.240604 0.238045 0.971254 493.709 293.115)" fill="white"/>
<path d="M487.469 230.314L488.854 229.971L678.146 183.048C678.146 183.048 686.23 194.33 690.963 202.145C693.089 205.656 696.743 211.437 696.743 211.437L490.087 262.664C490.087 262.664 488.646 257.246 488.62 255.293C488.593 253.341 490.449 251.231 490.449 251.231C490.449 251.231 489.33 247.563 488.757 244.329C487.889 239.421 487.469 230.314 487.469 230.314Z" fill="white"/>
<path d="M571.088 240.007L489.598 260.207C489.598 260.207 488.298 256.095 488.866 253.995C489.265 252.523 490.449 251.231 490.449 251.231C490.449 251.231 489.094 246.783 488.567 243.551C488.039 240.319 487.82 234.971 487.82 234.971L617.672 202.782C617.672 202.782 606.665 218.709 596.773 226.318C587.851 233.181 571.088 240.007 571.088 240.007Z" fill="white"/>
<path d="M495.648 212.509C491.96 217.288 490.493 220.035 488.162 226.224L675.324 179.829C675.324 179.829 671.832 176.189 667.904 174.45C662.676 172.137 656.392 172.663 656.392 172.663L495.648 212.509Z" fill="white"/>
<path d="M492.351 217.039L495.648 212.509L625.098 180.523C625.098 180.523 614.806 186.795 607.754 189.979C600.772 193.131 589.293 196.72 589.293 196.72L489.896 221.772L492.351 217.039Z" fill="#FFAC01"/>
<g filter="url(#filter0_i_119_566)">
<rect width="20.413" height="16.2149" rx="5.58212" transform="matrix(0.970623 -0.240604 0.238045 0.971254 592.286 210.313)" fill="#7ED1FF"/>
</g>
<g filter="url(#filter1_i_119_566)">
<rect width="20.413" height="16.2149" rx="5.58212" transform="matrix(0.970623 -0.240604 0.238045 0.971254 566.568 216.585)" fill="#7ED1FF"/>
<g filter="url(#filter2_i_119_566)">
<rect width="20.413" height="16.2149" rx="5.58212" transform="matrix(0.970623 -0.240604 0.238045 0.971254 539.565 223.278)" fill="#7ED1FF"/>
</g>
</g>
<g filter="url(#filter3_i_119_566)">
<path d="M677.524 195.511C676.209 192.474 677.942 188.977 681.155 188.18V188.18L685.924 195.226L690.433 202.542L681.523 204.75L677.524 195.511Z" fill="#7ED1FF"/>
</g>
<g filter="url(#filter4_i_119_566)">
<path d="M621.699 211.375C620.633 207.026 623.292 202.627 627.638 201.55L672.391 190.456L679.553 205.386L631.498 217.298C627.152 218.376 622.765 215.724 621.699 211.375V211.375Z" fill="#7ED1FF"/>
</g>
<rect width="200.618" height="3.6033" rx="1.80165" transform="matrix(0.970623 -0.240604 0.238045 0.971254 484.801 227.263)" fill="#FFAC01"/>
<rect width="212.91" height="28.2259" transform="matrix(0.970623 -0.240604 0.238045 0.971254 490.516 264.414)" fill="#FFAC01"/>
<rect width="55.3127" height="7.80715" rx="3.90358" transform="matrix(0.970623 -0.240604 0.238045 0.971254 653.825 253.012)" fill="white"/>
<path d="M696.637 225.759C695.944 222.933 697.672 220.075 700.496 219.375V219.375C702.379 218.908 704.279 220.057 704.741 221.941L706.735 230.075C707.119 231.645 706.159 233.233 704.591 233.622V233.622C701.453 234.399 698.286 232.485 697.516 229.345L696.637 225.759Z" fill="#D89100"/>
<path d="M706.521 225.515C707.508 229.541 707.775 232.938 705.49 233.504C704.222 233.818 702.395 230.809 701.408 226.782C700.421 222.755 700.366 219.306 701.882 219.034C703.938 218.664 705.534 221.488 706.521 225.515Z" fill="white"/>
<rect width="149.696" height="2.00183" transform="matrix(0.970623 -0.240604 0.238045 0.971254 505.511 204.805)" fill="#343335"/>
<rect width="2.63394" height="3.20293" transform="matrix(0.970623 -0.240604 0.238045 0.971254 513.87 204.795)" fill="#343335"/>
<rect width="2.63394" height="3.20293" transform="matrix(0.970623 -0.240604 0.238045 0.971254 642.338 172.95)" fill="#343335"/>
<rect width="3.07293" height="31.8292" transform="matrix(0.970623 -0.240604 0.238045 0.971254 554.214 246.768)" fill="#D89100"/>
<rect width="3.07293" height="29.427" transform="matrix(0.970623 -0.240604 0.238045 0.971254 621.54 231.935)" fill="#D89100"/>
<rect width="107.772" height="7.80715" rx="3.90358" transform="matrix(0.970623 -0.240604 0.238045 0.971254 549.219 278.942)" fill="white"/>
<ellipse cx="17.5596" cy="16.0147" rx="17.5596" ry="16.0147" transform="matrix(0.970623 -0.240604 0.238045 0.971254 636.742 246.934)" fill="#282F39"/>
<ellipse cx="8.23106" cy="7.50688" rx="8.23106" ry="7.50688" transform="matrix(0.970623 -0.240604 0.238045 0.971254 647.904 252.829)" fill="#84898F"/>
<ellipse cx="6.03611" cy="5.50504" rx="6.03611" ry="5.50504" transform="matrix(0.970623 -0.240604 0.238045 0.971254 650.511 254.245)" fill="#D6D7D9"/>
<ellipse cx="17.5596" cy="16.0147" rx="17.5596" ry="16.0147" transform="matrix(0.970623 -0.240604 0.238045 0.971254 517.223 276.562)" fill="#282F39"/>
<ellipse cx="8.23106" cy="7.50688" rx="8.23106" ry="7.50688" transform="matrix(0.970623 -0.240604 0.238045 0.971254 528.385 282.457)" fill="#84898F"/>
<ellipse cx="6.03611" cy="5.50504" rx="6.03611" ry="5.50504" transform="matrix(0.970623 -0.240604 0.238045 0.971254 530.992 283.873)" fill="#D6D7D9"/>
<rect width="8.7798" height="2.60238" rx="1.30119" transform="matrix(0.970623 -0.240604 0.238045 0.971254 561.301 250.786)" fill="#282F39"/>
<rect width="10.5358" height="1.00092" rx="0.500458" transform="matrix(0.970623 -0.240604 0.238045 0.971254 496.961 266.735)" fill="#282F39"/>
<rect width="10.5358" height="1.00092" rx="0.500458" transform="matrix(0.970623 -0.240604 0.238045 0.971254 497.818 270.234)" fill="#282F39"/>
<rect width="10.5358" height="1.00092" rx="0.500458" transform="matrix(0.970623 -0.240604 0.238045 0.971254 498.247 271.984)" fill="#282F39"/>
<rect width="10.5358" height="1.00092" rx="0.500458" transform="matrix(0.970623 -0.240604 0.238045 0.971254 497.39 268.484)" fill="#282F39"/>
<rect width="9.21879" height="2.60238" rx="1.30119" transform="matrix(0.970623 -0.240604 0.238045 0.971254 627.345 234.415)" fill="#282F39"/>
<rect width="219.056" height="1.80165" rx="0.900825" transform="matrix(0.970623 -0.240604 0.238045 0.971254 486.252 263.615)" fill="#D89100"/>
</g>
<defs>
<filter id="filter0_i_119_566" x="593.453" y="206.58" width="21.3394" height="18.3043" filterUnits="userSpaceOnUse" color-interpolation-filters="sRGB">
<feFlood flood-opacity="0" result="BackgroundImageFix"/>
<feBlend mode="normal" in="SourceGraphic" in2="BackgroundImageFix" result="shape"/>
<feColorMatrix in="SourceAlpha" type="matrix" values="0 0 0 0 0 0 0 0 0 0 0 0 0 0 0 0 0 0 127 0" result="hardAlpha"/>
<feOffset dx="2.53733" dy="2.02986"/>
<feComposite in2="hardAlpha" operator="arithmetic" k2="-1" k3="1"/>
<feColorMatrix type="matrix" values="0 0 0 0 0.259253 0 0 0 0 0.376201 0 0 0 0 0.454167 0 0 0 1 0"/>
<feBlend mode="normal" in2="shape" result="effect1_innerShadow_119_566"/>
</filter>
<filter id="filter1_i_119_566" x="540.732" y="212.851" width="48.3428" height="24.9979" filterUnits="userSpaceOnUse" color-interpolation-filters="sRGB">
<feFlood flood-opacity="0" result="BackgroundImageFix"/>
<feBlend mode="normal" in="SourceGraphic" in2="BackgroundImageFix" result="shape"/>
<feColorMatrix in="SourceAlpha" type="matrix" values="0 0 0 0 0 0 0 0 0 0 0 0 0 0 0 0 0 0 127 0" result="hardAlpha"/>
<feOffset dx="2.53733" dy="2.02986"/>
<feComposite in2="hardAlpha" operator="arithmetic" k2="-1" k3="1"/>
<feColorMatrix type="matrix" values="0 0 0 0 0.259253 0 0 0 0 0.376201 0 0 0 0 0.454167 0 0 0 1 0"/>
<feBlend mode="normal" in2="shape" result="effect1_innerShadow_119_566"/>
</filter>
<filter id="filter2_i_119_566" x="540.732" y="219.545" width="21.3394" height="18.3043" filterUnits="userSpaceOnUse" color-interpolation-filters="sRGB">
<feFlood flood-opacity="0" result="BackgroundImageFix"/>
<feBlend mode="normal" in="SourceGraphic" in2="BackgroundImageFix" result="shape"/>
<feColorMatrix in="SourceAlpha" type="matrix" values="0 0 0 0 0 0 0 0 0 0 0 0 0 0 0 0 0 0 127 0" result="hardAlpha"/>
<feOffset dx="2.53733" dy="2.53733"/>
<feComposite in2="hardAlpha" operator="arithmetic" k2="-1" k3="1"/>
<feColorMatrix type="matrix" values="0 0 0 0 0.225781 0 0 0 0 0.315651 0 0 0 0 0.354167 0 0 0 1 0"/>
<feBlend mode="normal" in2="shape" result="effect1_innerShadow_119_566"/>
</filter>
<filter id="filter3_i_119_566" x="677.081" y="188.18" width="13.3516" height="16.5702" filterUnits="userSpaceOnUse" color-interpolation-filters="sRGB">
<feFlood flood-opacity="0" result="BackgroundImageFix"/>
<feBlend mode="normal" in="SourceGraphic" in2="BackgroundImageFix" result="shape"/>
<feColorMatrix in="SourceAlpha" type="matrix" values="0 0 0 0 0 0 0 0 0 0 0 0 0 0 0 0 0 0 127 0" result="hardAlpha"/>
<feOffset dx="2.53733" dy="2.02986"/>
<feComposite in2="hardAlpha" operator="arithmetic" k2="-1" k3="1"/>
<feColorMatrix type="matrix" values="0 0 0 0 0.259253 0 0 0 0 0.376201 0 0 0 0 0.454167 0 0 0 1 0"/>
<feBlend mode="normal" in2="shape" result="effect1_innerShadow_119_566"/>
</filter>
<filter id="filter4_i_119_566" x="621.464" y="190.456" width="58.0898" height="27.0824" filterUnits="userSpaceOnUse" color-interpolation-filters="sRGB">
<feFlood flood-opacity="0" result="BackgroundImageFix"/>
<feBlend mode="normal" in="SourceGraphic" in2="BackgroundImageFix" result="shape"/>
<feColorMatrix in="SourceAlpha" type="matrix" values="0 0 0 0 0 0 0 0 0 0 0 0 0 0 0 0 0 0 127 0" result="hardAlpha"/>
<feOffset dx="2.53733" dy="2.02986"/>
<feComposite in2="hardAlpha" operator="arithmetic" k2="-1" k3="1"/>
<feColorMatrix type="matrix" values="0 0 0 0 0.259253 0 0 0 0 0.376201 0 0 0 0 0.454167 0 0 0 1 0"/>
<feBlend mode="normal" in2="shape" result="effect1_innerShadow_119_566"/>
</filter>
<linearGradient id="paint0_linear_119_566" x1="860.484" y1="97.6371" x2="884.756" y2="197.193" gradientUnits="userSpaceOnUse">
<stop stop-color="#468A19"/>
<stop offset="1" stop-color="#173006"/>
</linearGradient>
<linearGradient id="paint1_linear_119_566" x1="327.208" y1="114.603" x2="439.923" y2="334.744" gradientUnits="userSpaceOnUse">
<stop stop-color="#468A19"/>
<stop offset="1" stop-color="#173006"/>
</linearGradient>
<linearGradient id="paint2_linear_119_566" x1="785.442" y1="119.775" x2="802.645" y2="452.833" gradientUnits="userSpaceOnUse">
<stop offset="0.0364583" stop-color="#79A55C"/>
<stop offset="1" stop-color="#397511"/>
</linearGradient>
</defs>
</svg>
