<svg width="1991" height="312" viewBox="0 0 1991 312" fill="none" xmlns="http://www.w3.org/2000/svg">
<path d="M755.994 89.2643C641.162 109.418 582.987 198.43 582.987 198.43H1199.39V98.7129C1199.39 98.7129 1155.38 32.4423 1063.82 6.97026C1014.13 -6.85228 977.151 1.50195 927.99 17.8869C848.53 44.3702 795.275 82.3703 755.994 89.2643Z" fill="url(#paint0_linear_118_219)"/>
<path d="M173.007 201.448C58.1749 221.601 0 310.613 0 310.613H616.401L642.959 99C642.959 99 572.391 144.626 480.828 119.154C431.142 105.331 394.164 113.685 345.003 130.07C265.542 156.553 212.288 194.554 173.007 201.448Z" fill="url(#paint1_linear_118_219)"/>
<path d="M443.709 141.592C339.777 183.018 196 311 196 311H1116V7C1116 7 1056.39 15.241 1022.26 23.1341C935.833 43.1246 894.288 77.458 808.485 99.9832C669.799 136.391 576.913 88.498 443.709 141.592Z" fill="url(#paint2_linear_118_219)"/>
<path d="M733.959 127.639C691.544 142.061 634.749 185.236 634.749 185.236L672.5 188C672.5 188 714.164 173.976 733.959 165.698C807.151 135.091 860.832 179.956 936.945 157.579C985.762 143.227 1006.01 116.627 1054.68 101.758C1091.21 90.5935 1115.32 88.0562 1115.32 88.0562V50.25C1115.32 50.25 1069.55 58.7984 1041.23 68.7725C992.074 86.0837 971.727 113.861 921.467 127.639C850.846 146.998 803.287 104.065 733.959 127.639Z" fill="#666666"/>
<path d="M308.21 228.389C265.795 242.811 222 292.329 222 292.329H259.747C259.747 292.329 288.415 274.726 308.21 266.448C381.402 235.841 435.083 280.706 511.196 258.329C560.013 243.977 580.266 217.377 628.928 202.508C665.466 191.344 705 176.5 705 176.5L699.5 145C699.5 145 643.802 159.548 615.48 169.523C566.325 186.834 545.978 214.611 495.718 228.389C425.097 247.748 377.538 204.815 308.21 228.389Z" fill="#666666"/>
<path d="M852.959 146.79L878.118 148.144" stroke="#E8E8E8" stroke-width="3.0448"/>
<path d="M912.822 146.949L937.002 139.868" stroke="#E8E8E8" stroke-width="3.0448"/>
<path d="M961.557 130.853L983.789 118.999" stroke="#E8E8E8" stroke-width="3.0448"/>
<path d="M684 164.924L707.221 155.148" stroke="#E8E8E8" stroke-width="3.0448"/>
<path d="M632 186.924L655.221 177.148" stroke="#E8E8E8" stroke-width="3.0448"/>
<path d="M581.272 205.522L603.95 194.544" stroke="#E8E8E8" stroke-width="3.0448"/>
<path d="M529 233.087L551.483 221.716" stroke="#E8E8E8" stroke-width="3.0448"/>
<path d="M475.491 251.473L499.731 244.6" stroke="#E8E8E8" stroke-width="3.0448"/>
<path d="M420.174 246.022L445.047 250.037" stroke="#E8E8E8" stroke-width="3.0448"/>
<path d="M371.924 239.849L396.949 242.775" stroke="#E8E8E8" stroke-width="3.0448"/>
<path d="M322.347 242.959L347.363 239.963" stroke="#E8E8E8" stroke-width="3.0448"/>
<path d="M274.923 266.935L296.094 253.275" stroke="#E8E8E8" stroke-width="3.0448"/>
<path d="M741.316 145.924L765.57 139.103" stroke="#E8E8E8" stroke-width="3.0448"/>
<path d="M795.616 138.054L820.427 142.436" stroke="#E8E8E8" stroke-width="3.0448"/>
<rect x="602.795" y="165.105" width="33.7723" height="7.76116" rx="3.88058" transform="rotate(-13.8465 602.795 165.105)" fill="white"/>
<path d="M596.56 102.694L597.944 102.353L787.13 55.7218C787.13 55.7218 795.209 66.9341 799.939 74.7003C802.064 78.1894 805.716 83.9343 805.716 83.9343L599.176 134.843C599.176 134.843 597.736 129.459 597.709 127.519C597.683 125.578 599.537 123.481 599.537 123.481C599.537 123.481 598.419 119.837 597.847 116.622C596.979 111.745 596.56 102.694 596.56 102.694Z" fill="white"/>
<path d="M680.132 112.327L598.687 132.402C598.687 132.402 597.388 128.315 597.956 126.228C598.354 124.766 599.537 123.481 599.537 123.481C599.537 123.481 598.183 119.061 597.656 115.849C597.129 112.637 596.91 107.322 596.91 107.322L726.689 75.3337C726.689 75.3337 715.688 91.1616 705.802 98.7234C696.885 105.544 680.132 112.327 680.132 112.327Z" fill="white"/>
<path d="M604.733 85.0003C601.047 89.7492 599.581 92.4796 597.251 98.6297L784.308 52.5232C784.308 52.5232 780.819 48.9051 776.892 47.1775C771.668 44.8788 765.387 45.4017 765.387 45.4017L604.733 85.0003Z" fill="white"/>
<path d="M601.439 89.5015L604.734 85.0001L734.111 53.2131C734.111 53.2131 723.825 59.4456 716.777 62.6097C709.799 65.7422 698.327 69.3095 698.327 69.3095L598.985 94.2057L601.439 89.5015Z" fill="#FFAC01"/>
<g filter="url(#filter0_i_118_219)">
<rect x="701.317" y="82.8179" width="20.3949" height="16.1193" rx="5.58212" transform="rotate(-13.8465 701.317 82.8179)" fill="#7ED1FF"/>
</g>
<g filter="url(#filter1_i_118_219)">
<rect x="675.614" y="89.0508" width="20.3949" height="16.1193" rx="5.58212" transform="rotate(-13.8465 675.614 89.0508)" fill="#7ED1FF"/>
<g filter="url(#filter2_i_118_219)">
<rect x="648.626" y="95.7026" width="20.3949" height="16.1193" rx="5.58212" transform="rotate(-13.8465 648.626 95.7026)" fill="#7ED1FF"/>
</g>
</g>
<g filter="url(#filter3_i_118_219)">
<path d="M786.521 68.1361C785.201 65.1042 786.927 61.614 790.138 60.8227V60.8227L794.904 67.8246L799.41 75.095L790.505 77.29L786.521 68.1361Z" fill="#7ED1FF"/>
</g>
<g filter="url(#filter4_i_118_219)">
<path d="M730.714 83.8728C729.649 79.5509 732.289 75.1838 736.611 74.1185L781.378 63.084L788.536 77.9214L740.468 89.7694C736.146 90.8347 731.779 88.1947 730.714 83.8728V83.8728Z" fill="#7ED1FF"/>
</g>
<rect x="593.893" y="99.6626" width="200.441" height="3.58207" rx="1.79104" transform="rotate(-13.8465 593.893 99.6626)" fill="#FFAC01"/>
<rect x="599.604" y="136.582" width="212.722" height="28.0596" transform="rotate(-13.8465 599.604 136.582)" fill="#FFAC01"/>
<rect x="762.821" y="125.251" width="55.2637" height="7.76116" rx="3.88058" transform="rotate(-13.8465 762.821 125.251)" fill="white"/>
<path d="M805.616 98.1928C804.92 95.3705 806.644 92.5186 809.467 91.8229V91.8229C811.348 91.3591 813.25 92.5085 813.713 94.39L815.698 102.443C816.085 104.01 815.127 105.595 813.559 105.981V105.981C810.423 106.754 807.254 104.839 806.481 101.703L805.616 98.1928Z" fill="#D89100"/>
<path d="M815.488 97.9249C816.475 101.927 816.742 105.302 814.458 105.865C813.191 106.177 811.364 103.186 810.378 99.1845C809.392 95.1827 809.337 91.755 810.851 91.4842C812.907 91.1168 814.502 93.9231 815.488 97.9249Z" fill="white"/>
<rect x="614.592" y="77.3442" width="149.563" height="1.99004" transform="rotate(-13.8465 614.592 77.3442)" fill="#343335"/>
<rect x="622.946" y="77.3345" width="2.63161" height="3.18407" transform="rotate(-13.8465 622.946 77.3345)" fill="#343335"/>
<rect x="751.342" y="45.687" width="2.63161" height="3.18407" transform="rotate(-13.8465 751.342 45.687)" fill="#343335"/>
<rect x="663.268" y="119.046" width="3.07021" height="31.6416" transform="rotate(-13.8465 663.268 119.046)" fill="#D89100"/>
<rect x="730.555" y="104.305" width="3.07021" height="29.2536" transform="rotate(-13.8465 730.555 104.305)" fill="#D89100"/>
<rect x="658.274" y="151.021" width="107.677" height="7.76116" rx="3.88058" transform="rotate(-13.8465 658.274 151.021)" fill="white"/>
<ellipse cx="766.592" cy="130.47" rx="17.544" ry="15.9203" transform="rotate(-13.8465 766.592 130.47)" fill="#282F39"/>
<ellipse cx="766.675" cy="130.347" rx="8.22377" ry="7.46265" transform="rotate(-13.8465 766.675 130.347)" fill="#84898F"/>
<ellipse cx="766.675" cy="130.347" rx="6.03076" ry="5.47261" transform="rotate(-13.8465 766.675 130.347)" fill="#D6D7D9"/>
<ellipse cx="647.14" cy="159.914" rx="17.544" ry="15.9203" transform="rotate(-13.8465 647.14 159.914)" fill="#282F39"/>
<ellipse cx="647.223" cy="159.791" rx="8.22377" ry="7.46265" transform="rotate(-13.8465 647.223 159.791)" fill="#84898F"/>
<ellipse cx="647.223" cy="159.791" rx="6.03076" ry="5.47261" transform="rotate(-13.8465 647.223 159.791)" fill="#D6D7D9"/>
<rect x="670.35" y="123.039" width="8.77202" height="2.58705" rx="1.29353" transform="rotate(-13.8465 670.35 123.039)" fill="#282F39"/>
<rect x="606.046" y="138.889" width="10.5264" height="0.99502" rx="0.49751" transform="rotate(-13.8465 606.046 138.889)" fill="#282F39"/>
<rect x="606.903" y="142.367" width="10.5264" height="0.99502" rx="0.49751" transform="rotate(-13.8465 606.903 142.367)" fill="#282F39"/>
<rect x="607.331" y="144.106" width="10.5264" height="0.99502" rx="0.49751" transform="rotate(-13.8465 607.331 144.106)" fill="#282F39"/>
<rect x="606.475" y="140.628" width="10.5264" height="0.99502" rx="0.49751" transform="rotate(-13.8465 606.475 140.628)" fill="#282F39"/>
<rect x="736.357" y="106.77" width="9.21062" height="2.58705" rx="1.29353" transform="rotate(-13.8465 736.357 106.77)" fill="#282F39"/>
<rect x="595.344" y="135.788" width="218.862" height="1.79104" rx="0.895518" transform="rotate(-13.8465 595.344 135.788)" fill="#D89100"/>
<path d="M1793.16 201.91C1907.99 222.064 1966.17 311.076 1966.17 311.076H1349.77L1224 102C1224 102 1393.78 145.088 1485.34 119.616C1535.03 105.794 1572.01 114.148 1621.17 130.533C1700.63 157.016 1753.88 195.016 1793.16 201.91Z" fill="url(#paint3_linear_118_219)"/>
<path d="M1755.14 141.728C1854.1 183.121 1991 311 1991 311L1115 311L1115.27 7.22572C1115.27 7.22572 1157.27 3.83187 1204.26 23.3649C1282.79 56.0158 1326.11 77.6452 1407.81 100.152C1539.86 136.531 1628.31 88.6764 1755.14 141.728Z" fill="url(#paint4_linear_118_219)"/>
<path d="M1496.51 127.649C1538.92 142.071 1595.72 185.246 1595.72 185.246L1544.97 191.59C1544.97 191.59 1516.3 173.986 1496.51 165.709C1423.32 135.101 1369.64 179.966 1293.52 157.589C1244.71 143.237 1219.58 127.681 1175.79 101.768C1152.62 88.0556 1115.15 88.0556 1115.15 88.0556V50.2495C1115.15 50.2495 1145.26 46.6972 1189.24 68.7828C1235.81 92.1701 1258.74 113.871 1309 127.649C1379.62 147.009 1427.18 104.076 1496.51 127.649Z" fill="#666666"/>
<path d="M1609.21 227.941C1566.79 213.519 1510 170.344 1510 170.344L1560.75 164C1560.75 164 1589.41 181.603 1609.21 189.881C1682.4 220.489 1736.08 175.624 1812.2 198.001C1861.01 212.353 1886.14 227.909 1929.93 253.822C1953.1 267.534 1990.57 267.534 1990.57 267.534V305.34C1990.57 305.34 1960.46 308.893 1916.48 286.807C1869.91 263.42 1846.98 241.719 1796.72 227.941C1726.1 208.581 1678.54 251.514 1609.21 227.941Z" fill="#666666"/>
<path d="M1377.51 146.802L1352.35 148.156" stroke="#E8E8E8" stroke-width="3.0448"/>
<path d="M1317.65 146.958L1293.47 139.877" stroke="#E8E8E8" stroke-width="3.0448"/>
<path d="M1268.91 130.862L1246.68 119.008" stroke="#E8E8E8" stroke-width="3.0448"/>
<path d="M1221.23 105.124L1199 93.2702" stroke="#E8E8E8" stroke-width="3.0448"/>
<path d="M1174.67 82.771L1151 74.1265" stroke="#E8E8E8" stroke-width="3.0448"/>
<path d="M1127.01 69.6806L1102 72.7223" stroke="#E8E8E8" stroke-width="3.0448"/>
<path d="M1077.59 75.6378L1053.42 82.7657" stroke="#E8E8E8" stroke-width="3.0448"/>
<path d="M1029.28 93.0692L1006.62 104.088" stroke="#E8E8E8" stroke-width="3.0448"/>
<path d="M1543.45 172.561L1522.64 158.352" stroke="#E8E8E8" stroke-width="3.0448"/>
<path d="M1586.81 201.209L1566 187" stroke="#E8E8E8" stroke-width="3.0448"/>
<path d="M1638.55 217.433L1614.25 210.772" stroke="#E8E8E8" stroke-width="3.0448"/>
<path d="M1688.69 215.854L1663.61 218.343" stroke="#E8E8E8" stroke-width="3.0448"/>
<path d="M1739.07 211.885L1714 214.374" stroke="#E8E8E8" stroke-width="3.0448"/>
<path d="M1789.51 209.562L1764.33 208.757" stroke="#E8E8E8" stroke-width="3.0448"/>
<path d="M1489.15 145.936L1464.9 139.114" stroke="#E8E8E8" stroke-width="3.0448"/>
<path d="M1434.85 138.064L1410.04 142.445" stroke="#E8E8E8" stroke-width="3.0448"/>
<defs>
<filter id="filter0_i_118_219" x="702.49" y="79.1094" width="21.3145" height="18.187" filterUnits="userSpaceOnUse" color-interpolation-filters="sRGB">
<feFlood flood-opacity="0" result="BackgroundImageFix"/>
<feBlend mode="normal" in="SourceGraphic" in2="BackgroundImageFix" result="shape"/>
<feColorMatrix in="SourceAlpha" type="matrix" values="0 0 0 0 0 0 0 0 0 0 0 0 0 0 0 0 0 0 127 0" result="hardAlpha"/>
<feOffset dx="2.53733" dy="2.02986"/>
<feComposite in2="hardAlpha" operator="arithmetic" k2="-1" k3="1"/>
<feColorMatrix type="matrix" values="0 0 0 0 0.259253 0 0 0 0 0.376201 0 0 0 0 0.454167 0 0 0 1 0"/>
<feBlend mode="normal" in2="shape" result="effect1_innerShadow_118_219"/>
</filter>
<filter id="filter1_i_118_219" x="649.799" y="85.3423" width="48.3027" height="24.8389" filterUnits="userSpaceOnUse" color-interpolation-filters="sRGB">
<feFlood flood-opacity="0" result="BackgroundImageFix"/>
<feBlend mode="normal" in="SourceGraphic" in2="BackgroundImageFix" result="shape"/>
<feColorMatrix in="SourceAlpha" type="matrix" values="0 0 0 0 0 0 0 0 0 0 0 0 0 0 0 0 0 0 127 0" result="hardAlpha"/>
<feOffset dx="2.53733" dy="2.02986"/>
<feComposite in2="hardAlpha" operator="arithmetic" k2="-1" k3="1"/>
<feColorMatrix type="matrix" values="0 0 0 0 0.259253 0 0 0 0 0.376201 0 0 0 0 0.454167 0 0 0 1 0"/>
<feBlend mode="normal" in2="shape" result="effect1_innerShadow_118_219"/>
</filter>
<filter id="filter2_i_118_219" x="649.799" y="91.9941" width="21.3145" height="18.187" filterUnits="userSpaceOnUse" color-interpolation-filters="sRGB">
<feFlood flood-opacity="0" result="BackgroundImageFix"/>
<feBlend mode="normal" in="SourceGraphic" in2="BackgroundImageFix" result="shape"/>
<feColorMatrix in="SourceAlpha" type="matrix" values="0 0 0 0 0 0 0 0 0 0 0 0 0 0 0 0 0 0 127 0" result="hardAlpha"/>
<feOffset dx="2.53733" dy="2.53733"/>
<feComposite in2="hardAlpha" operator="arithmetic" k2="-1" k3="1"/>
<feColorMatrix type="matrix" values="0 0 0 0 0.225781 0 0 0 0 0.315651 0 0 0 0 0.354167 0 0 0 1 0"/>
<feBlend mode="normal" in2="shape" result="effect1_innerShadow_118_219"/>
</filter>
<filter id="filter3_i_118_219" x="786.074" y="60.8228" width="13.3359" height="16.4673" filterUnits="userSpaceOnUse" color-interpolation-filters="sRGB">
<feFlood flood-opacity="0" result="BackgroundImageFix"/>
<feBlend mode="normal" in="SourceGraphic" in2="BackgroundImageFix" result="shape"/>
<feColorMatrix in="SourceAlpha" type="matrix" values="0 0 0 0 0 0 0 0 0 0 0 0 0 0 0 0 0 0 127 0" result="hardAlpha"/>
<feOffset dx="2.53733" dy="2.02986"/>
<feComposite in2="hardAlpha" operator="arithmetic" k2="-1" k3="1"/>
<feColorMatrix type="matrix" values="0 0 0 0 0.259253 0 0 0 0 0.376201 0 0 0 0 0.454167 0 0 0 1 0"/>
<feBlend mode="normal" in2="shape" result="effect1_innerShadow_118_219"/>
</filter>
<filter id="filter4_i_118_219" x="730.478" y="63.084" width="58.0586" height="26.9214" filterUnits="userSpaceOnUse" color-interpolation-filters="sRGB">
<feFlood flood-opacity="0" result="BackgroundImageFix"/>
<feBlend mode="normal" in="SourceGraphic" in2="BackgroundImageFix" result="shape"/>
<feColorMatrix in="SourceAlpha" type="matrix" values="0 0 0 0 0 0 0 0 0 0 0 0 0 0 0 0 0 0 127 0" result="hardAlpha"/>
<feOffset dx="2.53733" dy="2.02986"/>
<feComposite in2="hardAlpha" operator="arithmetic" k2="-1" k3="1"/>
<feColorMatrix type="matrix" values="0 0 0 0 0.259253 0 0 0 0 0.376201 0 0 0 0 0.454167 0 0 0 1 0"/>
<feBlend mode="normal" in2="shape" result="effect1_innerShadow_118_219"/>
</filter>
<linearGradient id="paint0_linear_118_219" x1="944.81" y1="0.0107904" x2="967.646" y2="98.9666" gradientUnits="userSpaceOnUse">
<stop stop-color="#94DD63"/>
<stop offset="1" stop-color="#DCF0CE"/>
</linearGradient>
<linearGradient id="paint1_linear_118_219" x1="337.465" y1="111.179" x2="414.346" y2="220.792" gradientUnits="userSpaceOnUse">
<stop stop-color="#8ACC5E"/>
<stop offset="1" stop-color="#BCEB9D"/>
</linearGradient>
<linearGradient id="paint2_linear_118_219" x1="655.788" y1="144.564" x2="748.424" y2="459.129" gradientUnits="userSpaceOnUse">
<stop stop-color="#72C03F"/>
<stop offset="1" stop-color="#BFEAA4"/>
</linearGradient>
<linearGradient id="paint3_linear_118_219" x1="1628.7" y1="111.642" x2="1551.82" y2="221.254" gradientUnits="userSpaceOnUse">
<stop stop-color="#8ACC5E"/>
<stop offset="1" stop-color="#BCEB9D"/>
</linearGradient>
<linearGradient id="paint4_linear_118_219" x1="1553.2" y1="144.698" x2="1456.85" y2="456.492" gradientUnits="userSpaceOnUse">
<stop stop-color="#72C03F"/>
<stop offset="1" stop-color="#BFEAA4"/>
</linearGradient>
</defs>
</svg>
