<svg width="1666" height="292" viewBox="0 0 1666 292" fill="none" xmlns="http://www.w3.org/2000/svg">
<path d="M634.054 89.3522C519.221 109.506 461.046 198.518 461.046 198.518H1077.45V98.8008C1077.45 98.8008 1033.44 32.5302 941.875 7.05815C892.188 -6.76439 855.21 1.58984 806.049 17.9748C726.589 44.4581 673.334 82.4582 634.054 89.3522Z" fill="url(#paint0_linear_0_1)"/>
<path d="M43.0662 182.536C-71.766 202.689 -129.941 291.701 -129.941 291.701H486.46L513.018 80.0879C513.018 80.0879 442.45 125.714 350.887 100.241C301.201 86.4189 264.223 94.7732 215.062 111.158C135.601 137.641 82.3471 175.642 43.0662 182.536Z" fill="url(#paint1_linear_0_1)"/>
<path d="M321.488 141.886C217.58 183.262 73.834 311.088 73.834 311.088H993.632V7.45703C993.632 7.45703 934.031 15.6881 899.913 23.5715C813.505 43.5378 771.969 77.8295 686.185 100.327C547.529 136.691 454.663 88.856 321.488 141.886Z" fill="url(#paint2_linear_0_1)"/>
<path d="M612.018 127.726C569.603 142.148 512.808 185.324 512.808 185.324L550.559 188.088C550.559 188.088 592.223 174.064 612.018 165.786C685.21 135.179 738.891 180.044 815.004 157.667C863.822 143.315 884.074 116.715 932.736 101.846C969.274 90.6814 993.378 88.1441 993.378 88.1441V50.3379C993.378 50.3379 947.61 58.8863 919.288 68.8604C870.133 86.1716 849.786 113.948 799.526 127.726C728.905 147.086 681.346 104.153 612.018 127.726Z" fill="#3F3C3C"/>
<path d="M186.269 228.476C143.854 242.898 100.059 292.417 100.059 292.417H137.806C137.806 292.417 166.474 274.814 186.269 266.536C259.461 235.929 313.142 280.794 389.255 258.417C438.073 244.065 458.325 217.465 506.987 202.596C543.525 191.431 583.059 176.588 583.059 176.588L577.559 145.088C577.559 145.088 521.861 159.636 493.539 169.61C444.384 186.922 424.037 214.698 373.777 228.476C303.156 247.836 255.597 204.903 186.269 228.476Z" fill="#3F3C3C"/>
<path d="M731.019 146.878L756.177 148.232" stroke="#CDC5C5" stroke-width="3.0448"/>
<path d="M790.881 147.036L815.061 139.956" stroke="#CDC5C5" stroke-width="3.0448"/>
<path d="M839.616 130.941L861.848 119.087" stroke="#CDC5C5" stroke-width="3.0448"/>
<path d="M562.059 165.012L585.28 155.236" stroke="#CDC5C5" stroke-width="3.0448"/>
<path d="M510.059 187.012L533.28 177.236" stroke="#CDC5C5" stroke-width="3.0448"/>
<path d="M459.331 205.61L482.009 194.632" stroke="#CDC5C5" stroke-width="3.0448"/>
<path d="M407.059 233.175L429.542 221.804" stroke="#CDC5C5" stroke-width="3.0448"/>
<path d="M353.55 251.561L377.79 244.688" stroke="#CDC5C5" stroke-width="3.0448"/>
<path d="M298.233 246.11L323.106 250.125" stroke="#CDC5C5" stroke-width="3.0448"/>
<path d="M249.983 239.937L275.008 242.863" stroke="#CDC5C5" stroke-width="3.0448"/>
<path d="M200.406 243.047L225.422 240.051" stroke="#CDC5C5" stroke-width="3.0448"/>
<path d="M152.982 267.023L174.153 253.363" stroke="#CDC5C5" stroke-width="3.0448"/>
<path d="M619.376 146.012L643.63 139.19" stroke="#CDC5C5" stroke-width="3.0448"/>
<path d="M673.675 138.142L698.486 142.524" stroke="#CDC5C5" stroke-width="3.0448"/>
<rect x="480.855" y="165.193" width="33.7723" height="7.76116" rx="3.88058" transform="rotate(-13.8465 480.855 165.193)" fill="#D2D2D2"/>
<path d="M474.619 102.783L476.003 102.442L665.189 55.8107C665.189 55.8107 673.268 67.0229 677.998 74.7892C680.124 78.2783 683.775 84.0232 683.775 84.0232L477.236 134.932C477.236 134.932 475.795 129.548 475.769 127.607C475.742 125.667 477.597 123.57 477.597 123.57C477.597 123.57 476.479 119.925 475.906 116.711C475.038 111.834 474.619 102.783 474.619 102.783Z" fill="#D2D2D2"/>
<path d="M558.191 112.414L476.746 132.489C476.746 132.489 475.447 128.403 476.015 126.316C476.413 124.853 477.597 123.569 477.597 123.569C477.597 123.569 476.243 119.148 475.716 115.936C475.189 112.725 474.969 107.41 474.969 107.41L604.749 75.4211C604.749 75.4211 593.748 91.249 583.862 98.8108C574.945 105.631 558.191 112.414 558.191 112.414Z" fill="#D2D2D2"/>
<path d="M482.793 85.0882C479.107 89.8371 477.641 92.5675 475.311 98.7176L662.368 52.611C662.368 52.611 658.879 48.993 654.952 47.2654C649.728 44.9667 643.447 45.4896 643.447 45.4896L482.793 85.0882Z" fill="#D2D2D2"/>
<path d="M479.498 89.5894L482.793 85.088L612.171 53.301C612.171 53.301 601.885 59.5335 594.837 62.6976C587.859 65.8301 576.386 69.3974 576.386 69.3974L477.044 94.2936L479.498 89.5894Z" fill="#E69A00"/>
<g filter="url(#filter0_i_0_1)">
<rect x="579.377" y="82.9062" width="20.3949" height="16.1193" rx="5.58212" transform="rotate(-13.8465 579.377 82.9062)" fill="#4583A6"/>
</g>
<g filter="url(#filter1_i_0_1)">
<rect x="553.674" y="89.1387" width="20.3949" height="16.1193" rx="5.58212" transform="rotate(-13.8465 553.674 89.1387)" fill="#4583A6"/>
<g filter="url(#filter2_i_0_1)">
<rect x="526.686" y="95.791" width="20.3949" height="16.1193" rx="5.58212" transform="rotate(-13.8465 526.686 95.791)" fill="#4583A6"/>
</g>
</g>
<g filter="url(#filter3_i_0_1)">
<path d="M664.58 68.2235C663.26 65.1916 664.986 61.7014 668.197 60.9101L672.963 67.912L677.469 75.1824L668.564 77.3774L664.58 68.2235Z" fill="#4583A6"/>
</g>
<g filter="url(#filter4_i_0_1)">
<path d="M608.773 83.9622C607.708 79.6403 610.348 75.2731 614.67 74.2079L659.438 63.1733L666.596 78.0108L618.528 89.8588C614.206 90.9241 609.838 88.2841 608.773 83.9622Z" fill="#4583A6"/>
</g>
<rect x="471.952" y="99.75" width="200.441" height="3.58207" rx="1.79104" transform="rotate(-13.8465 471.952 99.75)" fill="#E69A00"/>
<rect x="477.664" y="136.67" width="212.722" height="28.0596" transform="rotate(-13.8465 477.664 136.67)" fill="#E69A00"/>
<rect x="640.881" y="125.34" width="55.2637" height="7.76116" rx="3.88058" transform="rotate(-13.8465 640.881 125.34)" fill="#D2D2D2"/>
<path d="M683.676 98.2802C682.98 95.4579 684.704 92.606 687.527 91.9103C689.408 91.4466 691.31 92.5959 691.773 94.4774L693.758 102.53C694.145 104.098 693.187 105.682 691.619 106.069C688.483 106.842 685.314 104.926 684.541 101.79L683.676 98.2802Z" fill="#9D6A00"/>
<path d="M693.548 98.0128C694.534 102.015 694.802 105.39 692.518 105.953C691.251 106.265 689.424 103.274 688.438 99.2724C687.451 95.2706 687.397 91.8429 688.911 91.5721C690.966 91.2047 692.562 94.011 693.548 98.0128Z" fill="#D2D2D2"/>
<rect x="492.651" y="77.4316" width="149.563" height="1.99004" transform="rotate(-13.8465 492.651 77.4316)" fill="#343335"/>
<rect x="501.005" y="77.4219" width="2.63161" height="3.18407" transform="rotate(-13.8465 501.005 77.4219)" fill="#343335"/>
<rect x="629.401" y="45.7734" width="2.63161" height="3.18407" transform="rotate(-13.8465 629.401 45.7734)" fill="#343335"/>
<rect x="541.327" y="119.135" width="3.07021" height="31.6416" transform="rotate(-13.8465 541.327 119.135)" fill="#9D6A00"/>
<rect x="608.615" y="104.393" width="3.07021" height="29.2536" transform="rotate(-13.8465 608.615 104.393)" fill="#9D6A00"/>
<rect x="536.334" y="151.109" width="107.677" height="7.76116" rx="3.88058" transform="rotate(-13.8465 536.334 151.109)" fill="#D2D2D2"/>
<ellipse cx="644.652" cy="130.558" rx="17.544" ry="15.9203" transform="rotate(-13.8465 644.652 130.558)" fill="#121E2F"/>
<ellipse cx="644.735" cy="130.434" rx="8.22377" ry="7.46265" transform="rotate(-13.8465 644.735 130.434)" fill="#84898F"/>
<ellipse cx="644.735" cy="130.435" rx="6.03076" ry="5.47261" transform="rotate(-13.8465 644.735 130.435)" fill="#7E8999"/>
<ellipse cx="525.2" cy="160.001" rx="17.544" ry="15.9203" transform="rotate(-13.8465 525.2 160.001)" fill="#121E2F"/>
<ellipse cx="525.282" cy="159.879" rx="8.22377" ry="7.46265" transform="rotate(-13.8465 525.282 159.879)" fill="#84898F"/>
<ellipse cx="525.283" cy="159.878" rx="6.03076" ry="5.47261" transform="rotate(-13.8465 525.283 159.878)" fill="#7E8999"/>
<rect x="548.409" y="123.127" width="8.77202" height="2.58705" rx="1.29353" transform="rotate(-13.8465 548.409 123.127)" fill="#121E2F"/>
<rect x="484.105" y="138.977" width="10.5264" height="0.99502" rx="0.49751" transform="rotate(-13.8465 484.105 138.977)" fill="#121E2F"/>
<rect x="484.962" y="142.455" width="10.5264" height="0.99502" rx="0.49751" transform="rotate(-13.8465 484.962 142.455)" fill="#121E2F"/>
<rect x="485.391" y="144.193" width="10.5264" height="0.99502" rx="0.49751" transform="rotate(-13.8465 485.391 144.193)" fill="#121E2F"/>
<rect x="484.534" y="140.715" width="10.5264" height="0.99502" rx="0.49751" transform="rotate(-13.8465 484.534 140.715)" fill="#121E2F"/>
<rect x="614.417" y="106.857" width="9.21062" height="2.58705" rx="1.29353" transform="rotate(-13.8465 614.417 106.857)" fill="#121E2F"/>
<rect x="473.403" y="135.877" width="218.862" height="1.79104" rx="0.895518" transform="rotate(-13.8465 473.403 135.877)" fill="#9D6A00"/>
<path d="M1671.22 201.998C1786.05 222.152 1844.23 311.164 1844.23 311.164H1227.83L1102.06 102.088C1102.06 102.088 1271.84 145.176 1363.4 119.704C1413.09 105.882 1450.06 114.236 1499.23 130.621C1578.69 157.104 1631.94 195.104 1671.22 201.998Z" fill="url(#paint3_linear_0_1)"/>
<path d="M1633.37 135.898C1732.36 175.315 1869.3 297.088 1869.3 297.088L993.059 297.088L993.329 7.81844C993.329 7.81844 1035.34 4.58665 1082.34 23.187C1160.9 54.2788 1204.22 74.8755 1285.95 96.308C1418.04 130.95 1506.5 85.3799 1633.37 135.898Z" fill="url(#paint4_linear_0_1)"/>
<path d="M1374.57 127.737C1416.98 142.159 1473.78 185.334 1473.78 185.334L1423.03 191.677C1423.03 191.677 1394.36 174.074 1374.57 165.797C1301.38 135.189 1247.7 180.054 1171.58 157.677C1122.76 143.325 1097.64 127.768 1053.85 101.856C1030.68 88.1435 993.208 88.1435 993.208 88.1435V50.3374C993.208 50.3374 1023.32 46.7851 1067.3 68.8707C1113.87 92.258 1136.8 113.959 1187.06 127.737C1257.68 147.096 1305.24 104.163 1374.57 127.737Z" fill="#3F3C3C"/>
<path d="M1487.27 228.029C1444.85 213.607 1388.06 170.432 1388.06 170.432L1438.81 164.088C1438.81 164.088 1467.47 181.691 1487.27 189.969C1560.46 220.576 1614.14 175.712 1690.26 198.088C1739.07 212.44 1764.2 227.997 1807.99 253.91C1831.16 267.622 1868.63 267.622 1868.63 267.622V305.428C1868.63 305.428 1838.52 308.981 1794.54 286.895C1747.97 263.508 1725.04 241.807 1674.78 228.029C1604.16 208.669 1556.6 251.602 1487.27 228.029Z" fill="#3F3C3C"/>
<path d="M1255.57 146.89L1230.41 148.244" stroke="#CDC5C5" stroke-width="3.0448"/>
<path d="M1195.71 147.046L1171.53 139.965" stroke="#CDC5C5" stroke-width="3.0448"/>
<path d="M1146.97 130.95L1124.74 119.096" stroke="#CDC5C5" stroke-width="3.0448"/>
<path d="M1099.29 105.212L1077.06 93.3581" stroke="#CDC5C5" stroke-width="3.0448"/>
<path d="M1052.72 82.8589L1029.06 74.2143" stroke="#CDC5C5" stroke-width="3.0448"/>
<path d="M1005.07 69.7685L980.059 72.8102" stroke="#CDC5C5" stroke-width="3.0448"/>
<path d="M955.647 75.7257L931.481 82.8536" stroke="#CDC5C5" stroke-width="3.0448"/>
<path d="M907.339 93.1571L884.681 104.176" stroke="#CDC5C5" stroke-width="3.0448"/>
<path d="M1421.51 172.648L1400.7 158.439" stroke="#CDC5C5" stroke-width="3.0448"/>
<path d="M1464.87 201.297L1444.06 187.088" stroke="#CDC5C5" stroke-width="3.0448"/>
<path d="M1516.61 217.521L1492.31 210.86" stroke="#CDC5C5" stroke-width="3.0448"/>
<path d="M1566.74 215.941L1541.67 218.431" stroke="#CDC5C5" stroke-width="3.0448"/>
<path d="M1617.13 211.973L1592.06 214.462" stroke="#CDC5C5" stroke-width="3.0448"/>
<path d="M1667.57 209.65L1642.39 208.845" stroke="#CDC5C5" stroke-width="3.0448"/>
<path d="M1367.21 146.024L1342.96 139.202" stroke="#CDC5C5" stroke-width="3.0448"/>
<path d="M1312.91 138.152L1288.1 142.533" stroke="#CDC5C5" stroke-width="3.0448"/>
<defs>
<filter id="filter0_i_0_1" x="580.549" y="79.1973" width="21.3152" height="18.1875" filterUnits="userSpaceOnUse" color-interpolation-filters="sRGB">
<feFlood flood-opacity="0" result="BackgroundImageFix"/>
<feBlend mode="normal" in="SourceGraphic" in2="BackgroundImageFix" result="shape"/>
<feColorMatrix in="SourceAlpha" type="matrix" values="0 0 0 0 0 0 0 0 0 0 0 0 0 0 0 0 0 0 127 0" result="hardAlpha"/>
<feOffset dx="2.53733" dy="2.02986"/>
<feComposite in2="hardAlpha" operator="arithmetic" k2="-1" k3="1"/>
<feColorMatrix type="matrix" values="0 0 0 0 0.259253 0 0 0 0 0.376201 0 0 0 0 0.454167 0 0 0 1 0"/>
<feBlend mode="normal" in2="shape" result="effect1_innerShadow_0_1"/>
</filter>
<filter id="filter1_i_0_1" x="527.858" y="85.4297" width="48.3035" height="24.8398" filterUnits="userSpaceOnUse" color-interpolation-filters="sRGB">
<feFlood flood-opacity="0" result="BackgroundImageFix"/>
<feBlend mode="normal" in="SourceGraphic" in2="BackgroundImageFix" result="shape"/>
<feColorMatrix in="SourceAlpha" type="matrix" values="0 0 0 0 0 0 0 0 0 0 0 0 0 0 0 0 0 0 127 0" result="hardAlpha"/>
<feOffset dx="2.53733" dy="2.02986"/>
<feComposite in2="hardAlpha" operator="arithmetic" k2="-1" k3="1"/>
<feColorMatrix type="matrix" values="0 0 0 0 0.259253 0 0 0 0 0.376201 0 0 0 0 0.454167 0 0 0 1 0"/>
<feBlend mode="normal" in2="shape" result="effect1_innerShadow_0_1"/>
</filter>
<filter id="filter2_i_0_1" x="527.858" y="92.082" width="21.3152" height="18.1875" filterUnits="userSpaceOnUse" color-interpolation-filters="sRGB">
<feFlood flood-opacity="0" result="BackgroundImageFix"/>
<feBlend mode="normal" in="SourceGraphic" in2="BackgroundImageFix" result="shape"/>
<feColorMatrix in="SourceAlpha" type="matrix" values="0 0 0 0 0 0 0 0 0 0 0 0 0 0 0 0 0 0 127 0" result="hardAlpha"/>
<feOffset dx="2.53733" dy="2.53733"/>
<feComposite in2="hardAlpha" operator="arithmetic" k2="-1" k3="1"/>
<feColorMatrix type="matrix" values="0 0 0 0 0.225781 0 0 0 0 0.315651 0 0 0 0 0.354167 0 0 0 1 0"/>
<feBlend mode="normal" in2="shape" result="effect1_innerShadow_0_1"/>
</filter>
<filter id="filter3_i_0_1" x="664.134" y="60.9102" width="13.3357" height="16.4668" filterUnits="userSpaceOnUse" color-interpolation-filters="sRGB">
<feFlood flood-opacity="0" result="BackgroundImageFix"/>
<feBlend mode="normal" in="SourceGraphic" in2="BackgroundImageFix" result="shape"/>
<feColorMatrix in="SourceAlpha" type="matrix" values="0 0 0 0 0 0 0 0 0 0 0 0 0 0 0 0 0 0 127 0" result="hardAlpha"/>
<feOffset dx="2.53733" dy="2.02986"/>
<feComposite in2="hardAlpha" operator="arithmetic" k2="-1" k3="1"/>
<feColorMatrix type="matrix" values="0 0 0 0 0.259253 0 0 0 0 0.376201 0 0 0 0 0.454167 0 0 0 1 0"/>
<feBlend mode="normal" in2="shape" result="effect1_innerShadow_0_1"/>
</filter>
<filter id="filter4_i_0_1" x="608.537" y="63.1738" width="58.0585" height="26.9219" filterUnits="userSpaceOnUse" color-interpolation-filters="sRGB">
<feFlood flood-opacity="0" result="BackgroundImageFix"/>
<feBlend mode="normal" in="SourceGraphic" in2="BackgroundImageFix" result="shape"/>
<feColorMatrix in="SourceAlpha" type="matrix" values="0 0 0 0 0 0 0 0 0 0 0 0 0 0 0 0 0 0 127 0" result="hardAlpha"/>
<feOffset dx="2.53733" dy="2.02986"/>
<feComposite in2="hardAlpha" operator="arithmetic" k2="-1" k3="1"/>
<feColorMatrix type="matrix" values="0 0 0 0 0.259253 0 0 0 0 0.376201 0 0 0 0 0.454167 0 0 0 1 0"/>
<feBlend mode="normal" in2="shape" result="effect1_innerShadow_0_1"/>
</filter>
<linearGradient id="paint0_linear_0_1" x1="822.87" y1="0.098681" x2="845.706" y2="99.0545" gradientUnits="userSpaceOnUse">
<stop stop-color="#468A19"/>
<stop offset="1" stop-color="#173006"/>
</linearGradient>
<linearGradient id="paint1_linear_0_1" x1="247.472" y1="80.0994" x2="308.692" y2="202.906" gradientUnits="userSpaceOnUse">
<stop stop-color="#468A19"/>
<stop offset="1" stop-color="#173006"/>
</linearGradient>
<linearGradient id="paint2_linear_0_1" x1="533.521" y1="144.854" x2="625.967" y2="459.087" gradientUnits="userSpaceOnUse">
<stop stop-color="#397511"/>
<stop offset="1" stop-color="#79A55C"/>
</linearGradient>
<linearGradient id="paint3_linear_0_1" x1="1506.76" y1="111.73" x2="1429.88" y2="221.342" gradientUnits="userSpaceOnUse">
<stop stop-color="#8ACC5E"/>
<stop offset="1" stop-color="#BCEB9D"/>
</linearGradient>
<linearGradient id="paint4_linear_0_1" x1="1431.38" y1="138.599" x2="1343.18" y2="438.153" gradientUnits="userSpaceOnUse">
<stop stop-color="#397511"/>
<stop offset="1" stop-color="#79A55C"/>
</linearGradient>
</defs>
</svg>
