<svg width="1784" height="476" viewBox="0 0 1784 476" fill="none" xmlns="http://www.w3.org/2000/svg">
<mask id="mask0_0_1" style="mask-type:alpha" maskUnits="userSpaceOnUse" x="0" y="0" width="1784" height="476">
<path d="M0 0H1784V476H0V0Z" fill="#D9D9D9"/>
</mask>
<g mask="url(#mask0_0_1)">
<path d="M686.894 187.459C571.997 207.739 513.79 297.307 513.79 297.307H1130.54V196.967C1130.54 196.967 1086.5 130.282 994.887 104.651C945.173 90.742 908.174 99.1484 858.986 115.636C779.481 142.285 726.197 180.522 686.894 187.459Z" fill="url(#paint0_linear_0_1)"/>
<path d="M313.576 210.408C234.071 237.057 180.787 275.294 141.484 282.231C84.5678 292.277 35.2663 340.411 0.00219727 386.431V478H559.469L610.5 184.5C610.5 184.5 541.091 225.054 449.478 199.423C399.763 185.514 362.765 193.921 313.576 210.408Z" fill="url(#paint1_linear_0_1)"/>
<path d="M784.441 189.703C645.708 226.294 552.067 211.187 383.217 294.359C309.675 330.584 45.5929 333.521 0.00219727 380.776C0.00219727 447.189 0.00240311 478 0.00240311 478H1784V259.638V232.243C1769.28 227.093 1744.37 221.661 1703.96 216.369C1621.39 205.556 1617.91 225.358 1538.36 232.243C1415.26 242.898 1371.27 140.904 1088.61 119.271C1000.13 112.499 870.274 167.064 784.441 189.703Z" fill="url(#paint2_linear_0_1)"/>
<path d="M625.812 254.209C583.441 268.721 526.705 312.167 526.705 312.167L564.417 314.948C564.417 314.948 606.038 300.836 625.812 292.507C698.929 261.708 752.554 306.854 828.588 284.337C877.355 269.895 897.587 243.129 946.199 228.167C982.699 216.933 1006.78 214.379 1006.78 214.379V176.337C1006.78 176.337 961.057 184.939 932.765 194.975C883.661 212.395 863.335 240.345 813.127 254.209C742.578 273.69 695.069 230.489 625.812 254.209Z" fill="#666666"/>
<path d="M197.505 356.635C155.134 371.147 0 420.975 0 420.975V462.442C0 462.442 136.359 414.142 197.505 394.932C273.163 371.163 324.247 409.279 400.282 386.762C449.049 372.32 469.28 345.554 517.893 330.592C554.392 319.358 593.886 304.422 593.886 304.422L588.392 272.725C588.392 272.725 532.751 287.364 504.459 297.401C455.354 314.82 435.028 342.77 384.82 356.635C314.272 376.115 266.762 332.914 197.505 356.635Z" fill="#666666"/>
<path d="M744.69 273.481L769.822 274.843" stroke="#E8E8E8" stroke-width="3.0448"/>
<path d="M804.49 273.64L828.645 266.515" stroke="#E8E8E8" stroke-width="3.0448"/>
<path d="M853.175 257.443L875.384 245.515" stroke="#E8E8E8" stroke-width="3.0448"/>
<path d="M575.905 291.728L599.102 281.891" stroke="#E8E8E8" stroke-width="3.0448"/>
<path d="M523.959 313.865L547.156 304.028" stroke="#E8E8E8" stroke-width="3.0448"/>
<path d="M473.283 332.579L495.937 321.533" stroke="#E8E8E8" stroke-width="3.0448"/>
<path d="M421.064 360.317L443.524 348.874" stroke="#E8E8E8" stroke-width="3.0448"/>
<path d="M367.611 378.818L391.825 371.902" stroke="#E8E8E8" stroke-width="3.0448"/>
<path d="M312.351 373.332L337.199 377.373" stroke="#E8E8E8" stroke-width="3.0448"/>
<path d="M264.151 367.121L289.15 370.065" stroke="#E8E8E8" stroke-width="3.0448"/>
<path d="M214.624 370.251L239.615 367.235" stroke="#E8E8E8" stroke-width="3.0448"/>
<path d="M165.33 385.049L189.284 377.269" stroke="#E8E8E8" stroke-width="3.0448"/>
<path d="M120.376 399.137L144.331 391.357" stroke="#E8E8E8" stroke-width="3.0448"/>
<path d="M71.9257 416.243L95.8804 408.463" stroke="#E8E8E8" stroke-width="3.0448"/>
<path d="M23.9755 434.613L47.3083 425.107" stroke="#E8E8E8" stroke-width="3.0448"/>
<path d="M633.162 272.609L657.391 265.745" stroke="#E8E8E8" stroke-width="3.0448"/>
<path d="M687.405 264.69L712.191 269.099" stroke="#E8E8E8" stroke-width="3.0448"/>
<path d="M1387.58 254.22C1429.95 268.732 1486.68 312.177 1486.68 312.177L1435.99 318.56C1435.99 318.56 1407.35 300.847 1387.58 292.517C1314.46 261.719 1260.83 306.864 1184.8 284.347C1136.03 269.906 1110.93 254.251 1067.19 228.177C1044.04 214.379 1006.61 214.379 1006.61 214.379V176.336C1006.61 176.336 1036.69 172.762 1080.62 194.986C1127.15 218.519 1150.05 240.355 1200.26 254.22C1270.81 273.7 1318.32 230.499 1387.58 254.22Z" fill="#666666"/>
<path d="M1500.16 355.139C1457.79 340.627 1401.05 297.181 1401.05 297.181L1451.75 290.798C1451.75 290.798 1480.38 308.511 1500.16 316.841C1573.28 347.64 1626.9 302.494 1702.94 325.011C1751.7 339.453 1776.8 355.107 1820.55 381.181C1843.7 394.979 1881.13 394.979 1881.13 394.979C1880.94 409.836 1880.97 418.165 1881.13 433.022C1881.13 433.022 1851.05 436.596 1807.11 414.373C1760.59 390.839 1737.68 369.003 1687.47 355.139C1616.93 335.658 1569.42 378.859 1500.16 355.139Z" fill="#666666"/>
<path d="M1268.7 273.492L1243.56 274.855" stroke="#E8E8E8" stroke-width="3.0448"/>
<path d="M1208.9 273.65L1184.74 266.525" stroke="#E8E8E8" stroke-width="3.0448"/>
<path d="M1160.21 257.453L1138 245.525" stroke="#E8E8E8" stroke-width="3.0448"/>
<path d="M1112.58 231.554L1090.37 219.626" stroke="#E8E8E8" stroke-width="3.0448"/>
<path d="M1066.06 209.061L1042.42 200.363" stroke="#E8E8E8" stroke-width="3.0448"/>
<path d="M1018.46 195.889L993.473 198.95" stroke="#E8E8E8" stroke-width="3.0448"/>
<path d="M969.086 201.883L944.945 209.056" stroke="#E8E8E8" stroke-width="3.0448"/>
<path d="M920.828 219.424L898.194 230.511" stroke="#E8E8E8" stroke-width="3.0448"/>
<path d="M1434.47 299.412L1413.68 285.114" stroke="#E8E8E8" stroke-width="3.0448"/>
<path d="M1477.78 328.24L1456.99 313.942" stroke="#E8E8E8" stroke-width="3.0448"/>
<path d="M1529.47 344.565L1505.2 337.862" stroke="#E8E8E8" stroke-width="3.0448"/>
<path d="M1782.66 380.394C1782.66 380.394 1749.49 362.714 1736.21 356.244C1713.43 345.155 1699.88 338.689 1674.77 335.616C1661.21 333.958 1621.32 337.628 1621.32 337.628L1559.89 345.676" stroke="#E8E8E8" stroke-width="3.0448" stroke-dasharray="30 30"/>
<path d="M1380.22 272.621L1356 265.757" stroke="#E8E8E8" stroke-width="3.0448"/>
<path d="M1325.98 264.7L1301.2 269.109" stroke="#E8E8E8" stroke-width="3.0448"/>
<path d="M522.729 285.921L497.498 292.176C495.405 292.694 494.125 294.812 494.638 296.906C495.151 299 497.264 300.277 499.356 299.758L524.588 293.504C526.68 292.985 527.961 290.867 527.447 288.773C526.934 286.679 524.822 285.403 522.729 285.921Z" fill="white"/>
<path d="M487.469 230.314L488.854 229.971L678.146 183.048C678.146 183.048 686.23 194.33 690.963 202.145C693.089 205.656 696.743 211.437 696.743 211.437L490.087 262.664C490.087 262.664 488.646 257.246 488.62 255.293C488.593 253.341 490.449 251.231 490.449 251.231C490.449 251.231 489.33 247.563 488.757 244.328C487.889 239.421 487.469 230.314 487.469 230.314Z" fill="white"/>
<path d="M571.088 240.007L489.598 260.207C489.598 260.207 488.298 256.095 488.866 253.995C489.265 252.523 490.449 251.231 490.449 251.231C490.449 251.231 489.094 246.783 488.567 243.551C488.039 240.319 487.82 234.971 487.82 234.971L617.672 202.782C617.672 202.782 606.665 218.709 596.773 226.318C587.851 233.181 571.088 240.007 571.088 240.007Z" fill="white"/>
<path d="M495.648 212.509C491.96 217.288 490.493 220.035 488.162 226.224L675.324 179.829C675.324 179.829 671.832 176.189 667.904 174.45C662.676 172.137 656.392 172.663 656.392 172.663L495.648 212.509Z" fill="white"/>
<path d="M492.351 217.039L495.648 212.509L625.098 180.523C625.098 180.523 614.806 186.795 607.754 189.979C600.772 193.131 589.293 196.72 589.293 196.72L489.896 221.772L492.351 217.039Z" fill="#FFAC01"/>
<path d="M677.777 179.427L486.55 226.829C485.584 227.069 484.993 228.046 485.23 229.013C485.467 229.979 486.442 230.569 487.407 230.329L678.634 182.927C679.6 182.687 680.191 181.71 679.954 180.743C679.717 179.777 678.743 179.188 677.777 179.427Z" fill="#FFAC01"/>
<path d="M697.171 213.187L490.516 264.414L497.235 291.828L703.89 240.601L697.171 213.187Z" fill="#FFAC01"/>
<path d="M703.724 240.643L657.614 252.073C655.521 252.591 654.241 254.709 654.754 256.803C655.267 258.897 657.38 260.174 659.472 259.655L705.582 248.225C707.675 247.707 708.955 245.589 708.442 243.495C707.929 241.401 705.816 240.124 703.724 240.643Z" fill="white"/>
<path d="M696.637 225.758C695.944 222.933 697.672 220.075 700.496 219.375C702.379 218.908 704.279 220.057 704.741 221.941L706.735 230.075C707.119 231.645 706.159 233.233 704.591 233.621C701.453 234.399 698.286 232.485 697.516 229.345L696.637 225.758Z" fill="#D89100"/>
<path d="M706.521 225.514C707.508 229.541 707.775 232.938 705.49 233.504C704.222 233.818 702.395 230.809 701.408 226.782C700.421 222.755 700.366 219.306 701.882 219.034C703.938 218.664 705.534 221.488 706.521 225.514Z" fill="white"/>
<path d="M650.809 168.787L505.511 204.805L505.988 206.749L651.286 170.732L650.809 168.787Z" fill="#343335"/>
<path d="M516.427 204.161L513.87 204.795L514.632 207.906L517.189 207.272L516.427 204.161Z" fill="#343335"/>
<path d="M644.895 172.316L642.338 172.95L643.1 176.061L645.657 175.427L644.895 172.316Z" fill="#343335"/>
<path d="M557.197 246.029L554.214 246.768L561.791 277.682L564.773 276.943L557.197 246.029Z" fill="#D89100"/>
<path d="M624.523 231.196L621.54 231.935L628.545 260.516L631.528 259.777L624.523 231.196Z" fill="#D89100"/>
<path d="M650.036 253.951L553.008 278.003C550.915 278.521 549.635 280.639 550.148 282.733C550.661 284.827 552.774 286.104 554.866 285.585L651.895 261.533C653.987 261.015 655.267 258.897 654.754 256.803C654.241 254.709 652.129 253.432 650.036 253.951Z" fill="white"/>
<path d="M661.41 273.818C670.823 271.484 676.747 262.629 674.642 254.038C672.536 245.448 663.199 240.376 653.786 242.709C644.373 245.042 638.449 253.898 640.554 262.488C642.66 271.079 651.997 276.151 661.41 273.818Z" fill="#282F39"/>
<path d="M659.467 265.431C663.88 264.337 666.656 260.186 665.67 256.159C664.683 252.132 660.306 249.755 655.893 250.849C651.481 251.942 648.704 256.093 649.691 260.12C650.678 264.147 655.055 266.524 659.467 265.431Z" fill="#84898F"/>
<path d="M658.991 263.486C662.226 262.684 664.263 259.64 663.539 256.687C662.815 253.734 659.605 251.991 656.37 252.793C653.134 253.595 651.098 256.639 651.821 259.592C652.545 262.545 655.755 264.288 658.991 263.486Z" fill="#D6D7D9"/>
<path d="M541.891 303.446C551.304 301.112 557.228 292.257 555.123 283.667C553.017 275.076 543.68 270.004 534.267 272.337C524.854 274.67 518.93 283.526 521.035 292.116C523.141 300.707 532.478 305.779 541.891 303.446Z" fill="#282F39"/>
<path d="M539.948 295.059C544.361 293.965 547.137 289.814 546.15 285.787C545.164 281.761 540.787 279.383 536.374 280.477C531.962 281.57 529.185 285.721 530.172 289.748C531.159 293.775 535.536 296.153 539.948 295.059Z" fill="#84898F"/>
<path d="M539.472 293.114C542.707 292.312 544.744 289.268 544.02 286.315C543.296 283.362 540.086 281.619 536.851 282.421C533.615 283.223 531.579 286.267 532.302 289.22C533.026 292.173 536.236 293.916 539.472 293.114Z" fill="#D6D7D9"/>
<path d="M568.56 248.987L562.564 250.473C561.866 250.646 561.44 251.352 561.611 252.05C561.782 252.748 562.486 253.173 563.183 253L569.179 251.514C569.877 251.341 570.304 250.635 570.133 249.937C569.962 249.239 569.257 248.814 568.56 248.987Z" fill="#282F39"/>
<path d="M506.701 264.32L497.447 266.615C497.178 266.681 497.014 266.953 497.08 267.221L497.08 267.221C497.146 267.49 497.417 267.653 497.685 267.587L506.94 265.293C507.208 265.226 507.372 264.955 507.306 264.686C507.241 264.418 506.97 264.254 506.701 264.32Z" fill="#282F39"/>
<path d="M507.559 267.819L498.304 270.114C498.035 270.18 497.871 270.452 497.937 270.72L497.937 270.72C498.003 270.989 498.274 271.152 498.542 271.086L507.797 268.792C508.065 268.725 508.229 268.454 508.163 268.185C508.098 267.917 507.827 267.753 507.559 267.819Z" fill="#282F39"/>
<path d="M507.988 269.569L498.733 271.864C498.465 271.93 498.3 272.202 498.366 272.47L498.366 272.47C498.432 272.739 498.703 272.902 498.971 272.836L508.226 270.542C508.494 270.475 508.658 270.204 508.592 269.935C508.527 269.667 508.256 269.503 507.988 269.569Z" fill="#282F39"/>
<path d="M507.131 266.069L497.876 268.364C497.607 268.43 497.443 268.702 497.509 268.97L497.509 268.97C497.575 269.239 497.846 269.402 498.114 269.336L507.369 267.042C507.637 266.975 507.801 266.704 507.735 266.435C507.67 266.167 507.399 266.003 507.131 266.069Z" fill="#282F39"/>
<path d="M635.03 232.51L628.608 234.102C627.91 234.275 627.484 234.981 627.655 235.679C627.826 236.377 628.53 236.802 629.227 236.629L635.649 235.037C636.347 234.865 636.774 234.159 636.603 233.461C636.432 232.763 635.727 232.337 635.03 232.51Z" fill="#282F39"/>
<path d="M697.998 211.126L487.126 263.398C486.643 263.518 486.348 264.007 486.466 264.49C486.585 264.973 487.072 265.268 487.555 265.148L698.427 212.876C698.91 212.756 699.206 212.267 699.087 211.784C698.969 211.301 698.481 211.006 697.998 211.126Z" fill="#D89100"/>
</g>
<g filter="url(#filter0_i_0_1)">
<rect width="20.413" height="16.2149" rx="5.58212" transform="matrix(0.970623 -0.240604 0.238045 0.971254 592.721 210.479)" fill="#7ED1FF"/>
</g>
<g filter="url(#filter1_i_0_1)">
<rect width="20.413" height="16.2149" rx="5.58212" transform="matrix(0.970623 -0.240604 0.238045 0.971254 567.003 216.75)" fill="#7ED1FF"/>
<g filter="url(#filter2_i_0_1)">
<rect width="20.413" height="16.2149" rx="5.58212" transform="matrix(0.970623 -0.240604 0.238045 0.971254 540 223.444)" fill="#7ED1FF"/>
</g>
</g>
<g filter="url(#filter3_i_0_1)">
<path d="M677.959 195.676C676.644 192.639 678.377 189.142 681.59 188.346V188.346L686.359 195.391L690.868 202.707L681.958 204.916L677.959 195.676Z" fill="#7ED1FF"/>
</g>
<g filter="url(#filter4_i_0_1)">
<path d="M622.134 211.54C621.068 207.191 623.727 202.793 628.073 201.715L672.826 190.621L679.989 205.552L631.933 217.464C627.587 218.541 623.2 215.889 622.134 211.54V211.54Z" fill="#7ED1FF"/>
</g>
<defs>
<filter id="filter0_i_0_1" x="593.888" y="206.745" width="21.3394" height="18.3043" filterUnits="userSpaceOnUse" color-interpolation-filters="sRGB">
<feFlood flood-opacity="0" result="BackgroundImageFix"/>
<feBlend mode="normal" in="SourceGraphic" in2="BackgroundImageFix" result="shape"/>
<feColorMatrix in="SourceAlpha" type="matrix" values="0 0 0 0 0 0 0 0 0 0 0 0 0 0 0 0 0 0 127 0" result="hardAlpha"/>
<feOffset dx="2.53733" dy="2.02986"/>
<feComposite in2="hardAlpha" operator="arithmetic" k2="-1" k3="1"/>
<feColorMatrix type="matrix" values="0 0 0 0 0.259253 0 0 0 0 0.376201 0 0 0 0 0.454167 0 0 0 1 0"/>
<feBlend mode="normal" in2="shape" result="effect1_innerShadow_0_1"/>
</filter>
<filter id="filter1_i_0_1" x="541.167" y="213.017" width="48.3428" height="24.9979" filterUnits="userSpaceOnUse" color-interpolation-filters="sRGB">
<feFlood flood-opacity="0" result="BackgroundImageFix"/>
<feBlend mode="normal" in="SourceGraphic" in2="BackgroundImageFix" result="shape"/>
<feColorMatrix in="SourceAlpha" type="matrix" values="0 0 0 0 0 0 0 0 0 0 0 0 0 0 0 0 0 0 127 0" result="hardAlpha"/>
<feOffset dx="2.53733" dy="2.02986"/>
<feComposite in2="hardAlpha" operator="arithmetic" k2="-1" k3="1"/>
<feColorMatrix type="matrix" values="0 0 0 0 0.259253 0 0 0 0 0.376201 0 0 0 0 0.454167 0 0 0 1 0"/>
<feBlend mode="normal" in2="shape" result="effect1_innerShadow_0_1"/>
</filter>
<filter id="filter2_i_0_1" x="541.167" y="219.71" width="21.3394" height="18.3043" filterUnits="userSpaceOnUse" color-interpolation-filters="sRGB">
<feFlood flood-opacity="0" result="BackgroundImageFix"/>
<feBlend mode="normal" in="SourceGraphic" in2="BackgroundImageFix" result="shape"/>
<feColorMatrix in="SourceAlpha" type="matrix" values="0 0 0 0 0 0 0 0 0 0 0 0 0 0 0 0 0 0 127 0" result="hardAlpha"/>
<feOffset dx="2.53733" dy="2.53733"/>
<feComposite in2="hardAlpha" operator="arithmetic" k2="-1" k3="1"/>
<feColorMatrix type="matrix" values="0 0 0 0 0.225781 0 0 0 0 0.315651 0 0 0 0 0.354167 0 0 0 1 0"/>
<feBlend mode="normal" in2="shape" result="effect1_innerShadow_0_1"/>
</filter>
<filter id="filter3_i_0_1" x="677.516" y="188.346" width="13.3514" height="16.5702" filterUnits="userSpaceOnUse" color-interpolation-filters="sRGB">
<feFlood flood-opacity="0" result="BackgroundImageFix"/>
<feBlend mode="normal" in="SourceGraphic" in2="BackgroundImageFix" result="shape"/>
<feColorMatrix in="SourceAlpha" type="matrix" values="0 0 0 0 0 0 0 0 0 0 0 0 0 0 0 0 0 0 127 0" result="hardAlpha"/>
<feOffset dx="2.53733" dy="2.02986"/>
<feComposite in2="hardAlpha" operator="arithmetic" k2="-1" k3="1"/>
<feColorMatrix type="matrix" values="0 0 0 0 0.259253 0 0 0 0 0.376201 0 0 0 0 0.454167 0 0 0 1 0"/>
<feBlend mode="normal" in2="shape" result="effect1_innerShadow_0_1"/>
</filter>
<filter id="filter4_i_0_1" x="621.899" y="190.621" width="58.0898" height="27.0824" filterUnits="userSpaceOnUse" color-interpolation-filters="sRGB">
<feFlood flood-opacity="0" result="BackgroundImageFix"/>
<feBlend mode="normal" in="SourceGraphic" in2="BackgroundImageFix" result="shape"/>
<feColorMatrix in="SourceAlpha" type="matrix" values="0 0 0 0 0 0 0 0 0 0 0 0 0 0 0 0 0 0 127 0" result="hardAlpha"/>
<feOffset dx="2.53733" dy="2.02986"/>
<feComposite in2="hardAlpha" operator="arithmetic" k2="-1" k3="1"/>
<feColorMatrix type="matrix" values="0 0 0 0 0.259253 0 0 0 0 0.376201 0 0 0 0 0.454167 0 0 0 1 0"/>
<feBlend mode="normal" in2="shape" result="effect1_innerShadow_0_1"/>
</filter>
<linearGradient id="paint0_linear_0_1" x1="860.484" y1="97.6371" x2="884.756" y2="197.193" gradientUnits="userSpaceOnUse">
<stop stop-color="#D2F5BA"/>
<stop offset="0.697917" stop-color="#7DBC55"/>
</linearGradient>
<linearGradient id="paint1_linear_0_1" x1="305.57" y1="156.503" x2="324.792" y2="281.245" gradientUnits="userSpaceOnUse">
<stop stop-color="#C0F59D"/>
<stop offset="1" stop-color="#7DBC55"/>
</linearGradient>
<linearGradient id="paint2_linear_0_1" x1="785.442" y1="119.775" x2="802.645" y2="452.833" gradientUnits="userSpaceOnUse">
<stop offset="0.0364583" stop-color="#BFEAA4"/>
<stop offset="1" stop-color="#7DBC55"/>
</linearGradient>
</defs>
</svg>
