<!-- <svg width="1781" height="292" viewBox="0 0 1781 292" fill="none" xmlns="http://www.w3.org/2000/svg">
<path d="M661.994 89.2643C547.162 109.418 488.987 198.43 488.987 198.43H1105.39V98.7129C1105.39 98.7129 1061.38 32.4423 969.816 6.97026C920.129 -6.85228 883.151 1.50195 833.99 17.8869C754.53 44.3702 701.275 82.3703 661.994 89.2643Z" fill="url(#paint0_linear_0_1)"/>
<path d="M71.0071 182.448C-43.8251 202.601 -102 291.613 -102 291.613H514.401L540.959 80C540.959 80 470.391 125.626 378.828 100.154C329.142 86.3311 292.164 94.6853 243.003 111.07C163.542 137.553 110.288 175.554 71.0071 182.448Z" fill="url(#paint1_linear_0_1)"/>
<path d="M349.429 141.798C245.521 183.174 101.775 311 101.775 311H1021.57V7.36914C1021.57 7.36914 961.972 15.6002 927.854 23.4836C841.446 43.4499 799.91 77.7416 714.125 100.239C575.47 136.603 482.604 88.7681 349.429 141.798Z" fill="url(#paint2_linear_0_1)"/>
<path d="M639.959 127.639C597.544 142.061 540.749 185.236 540.749 185.236L578.5 188C578.5 188 620.164 173.976 639.959 165.698C713.151 135.091 766.832 179.956 842.945 157.579C891.762 143.227 912.015 116.627 960.677 101.758C997.215 90.5935 1021.32 88.0562 1021.32 88.0562V50.25C1021.32 50.25 975.551 58.7984 947.229 68.7725C898.074 86.0837 877.727 113.861 827.467 127.639C756.846 146.998 709.287 104.065 639.959 127.639Z" fill="#666666"/>
<path d="M214.21 228.389C171.795 242.811 128 292.329 128 292.329H165.747C165.747 292.329 194.415 274.726 214.21 266.448C287.402 235.841 341.083 280.706 417.196 258.329C466.013 243.977 486.266 217.377 534.928 202.508C571.466 191.344 611 176.5 611 176.5L605.5 145C605.5 145 549.802 159.548 521.48 169.523C472.325 186.834 451.978 214.611 401.718 228.389C331.097 247.748 283.538 204.815 214.21 228.389Z" fill="#666666"/>
<path d="M758.959 146.79L784.118 148.144" stroke="#E8E8E8" stroke-width="3.0448"/>
<path d="M818.822 146.949L843.002 139.868" stroke="#E8E8E8" stroke-width="3.0448"/>
<path d="M867.557 130.853L889.789 118.999" stroke="#E8E8E8" stroke-width="3.0448"/>
<path d="M590 164.924L613.221 155.148" stroke="#E8E8E8" stroke-width="3.0448"/>
<path d="M538 186.924L561.221 177.148" stroke="#E8E8E8" stroke-width="3.0448"/>
<path d="M487.272 205.522L509.95 194.544" stroke="#E8E8E8" stroke-width="3.0448"/>
<path d="M435 233.087L457.483 221.716" stroke="#E8E8E8" stroke-width="3.0448"/>
<path d="M381.491 251.473L405.73 244.6" stroke="#E8E8E8" stroke-width="3.0448"/>
<path d="M326.174 246.022L351.047 250.037" stroke="#E8E8E8" stroke-width="3.0448"/>
<path d="M277.924 239.849L302.949 242.775" stroke="#E8E8E8" stroke-width="3.0448"/>
<path d="M228.347 242.959L253.363 239.963" stroke="#E8E8E8" stroke-width="3.0448"/>
<path d="M180.923 266.935L202.094 253.275" stroke="#E8E8E8" stroke-width="3.0448"/>
<path d="M647.317 145.924L671.571 139.103" stroke="#E8E8E8" stroke-width="3.0448"/>
<path d="M701.616 138.054L726.427 142.436" stroke="#E8E8E8" stroke-width="3.0448"/>
<rect x="508.796" y="165.105" width="33.7723" height="7.76116" rx="3.88058" transform="rotate(-13.8465 508.796 165.105)" fill="white"/>
<path d="M502.56 102.695L503.944 102.354L693.13 55.7228C693.13 55.7228 701.209 66.9351 705.939 74.7013C708.064 78.1904 711.716 83.9353 711.716 83.9353L505.176 134.844C505.176 134.844 503.736 129.46 503.71 127.52C503.683 125.579 505.538 123.482 505.538 123.482C505.538 123.482 504.42 119.838 503.847 116.623C502.979 111.746 502.56 102.695 502.56 102.695Z" fill="white"/>
<path d="M586.132 112.326L504.687 132.401C504.687 132.401 503.388 128.315 503.956 126.228C504.354 124.765 505.538 123.481 505.538 123.481C505.538 123.481 504.184 119.06 503.657 115.849C503.13 112.637 502.91 107.322 502.91 107.322L632.689 75.3332C632.689 75.3332 621.689 91.1611 611.803 98.7229C602.886 105.543 586.132 112.326 586.132 112.326Z" fill="white"/>
<path d="M510.734 85.0003C507.048 89.7492 505.582 92.4796 503.252 98.6297L690.309 52.5232C690.309 52.5232 686.82 48.9051 682.893 47.1775C677.669 44.8788 671.388 45.4017 671.388 45.4017L510.734 85.0003Z" fill="white"/>
<path d="M507.439 89.5015L510.734 85.0001L640.112 53.2131C640.112 53.2131 629.826 59.4456 622.778 62.6097C615.8 65.7422 604.327 69.3095 604.327 69.3095L504.985 94.2057L507.439 89.5015Z" fill="#FFAC01"/>
<g filter="url(#filter0_i_0_1)">
<rect x="607.318" y="82.8184" width="20.3949" height="16.1193" rx="5.58212" transform="rotate(-13.8465 607.318 82.8184)" fill="#7ED1FF"/>
</g>
<g filter="url(#filter1_i_0_1)">
<rect x="581.615" y="89.0508" width="20.3949" height="16.1193" rx="5.58212" transform="rotate(-13.8465 581.615 89.0508)" fill="#7ED1FF"/>
<g filter="url(#filter2_i_0_1)">
<rect x="554.626" y="95.7031" width="20.3949" height="16.1193" rx="5.58212" transform="rotate(-13.8465 554.626 95.7031)" fill="#7ED1FF"/>
</g>
</g>
<g filter="url(#filter3_i_0_1)">
<path d="M692.521 68.1356C691.201 65.1037 692.927 61.6135 696.138 60.8222V60.8222L700.904 67.8241L705.41 75.0945L696.505 77.2895L692.521 68.1356Z" fill="#7ED1FF"/>
</g>
<g filter="url(#filter4_i_0_1)">
<path d="M636.714 83.8743C635.649 79.5524 638.289 75.1853 642.611 74.12L687.379 63.0854L694.537 77.9229L646.469 89.7709C642.147 90.8362 637.78 88.1962 636.714 83.8743V83.8743Z" fill="#7ED1FF"/>
</g>
<rect x="499.893" y="99.6621" width="200.441" height="3.58207" rx="1.79104" transform="rotate(-13.8465 499.893 99.6621)" fill="#FFAC01"/>
<rect x="505.605" y="136.582" width="212.722" height="28.0596" transform="rotate(-13.8465 505.605 136.582)" fill="#FFAC01"/>
<rect x="668.822" y="125.252" width="55.2637" height="7.76116" rx="3.88058" transform="rotate(-13.8465 668.822 125.252)" fill="white"/>
<path d="M711.617 98.1923C710.921 95.37 712.645 92.5181 715.468 91.8224V91.8224C717.349 91.3587 719.25 92.508 719.714 94.3895L721.699 102.442C722.086 104.01 721.128 105.594 719.56 105.981V105.981C716.424 106.754 713.255 104.838 712.482 101.702L711.617 98.1923Z" fill="#D89100"/>
<path d="M721.489 97.9249C722.475 101.927 722.743 105.302 720.459 105.865C719.192 106.177 717.365 103.186 716.379 99.1845C715.392 95.1827 715.338 91.755 716.852 91.4842C718.907 91.1168 720.503 93.9231 721.489 97.9249Z" fill="white"/>
<rect x="520.592" y="77.3438" width="149.563" height="1.99004" transform="rotate(-13.8465 520.592 77.3438)" fill="#343335"/>
<rect x="528.946" y="77.334" width="2.63161" height="3.18407" transform="rotate(-13.8465 528.946 77.334)" fill="#343335"/>
<rect x="657.342" y="45.6855" width="2.63161" height="3.18407" transform="rotate(-13.8465 657.342 45.6855)" fill="#343335"/>
<rect x="569.268" y="119.047" width="3.07021" height="31.6416" transform="rotate(-13.8465 569.268 119.047)" fill="#D89100"/>
<rect x="636.556" y="104.305" width="3.07021" height="29.2536" transform="rotate(-13.8465 636.556 104.305)" fill="#D89100"/>
<rect x="564.275" y="151.021" width="107.677" height="7.76116" rx="3.88058" transform="rotate(-13.8465 564.275 151.021)" fill="white"/>
<ellipse cx="672.593" cy="130.47" rx="17.544" ry="15.9203" transform="rotate(-13.8465 672.593 130.47)" fill="#282F39"/>
<ellipse cx="672.676" cy="130.346" rx="8.22377" ry="7.46265" transform="rotate(-13.8465 672.676 130.346)" fill="#84898F"/>
<ellipse cx="672.676" cy="130.347" rx="6.03076" ry="5.47261" transform="rotate(-13.8465 672.676 130.347)" fill="#D6D7D9"/>
<ellipse cx="553.141" cy="159.913" rx="17.544" ry="15.9203" transform="rotate(-13.8465 553.141 159.913)" fill="#282F39"/>
<ellipse cx="553.224" cy="159.791" rx="8.22377" ry="7.46265" transform="rotate(-13.8465 553.224 159.791)" fill="#84898F"/>
<ellipse cx="553.224" cy="159.79" rx="6.03076" ry="5.47261" transform="rotate(-13.8465 553.224 159.79)" fill="#D6D7D9"/>
<rect x="576.35" y="123.039" width="8.77202" height="2.58705" rx="1.29353" transform="rotate(-13.8465 576.35 123.039)" fill="#282F39"/>
<rect x="512.046" y="138.889" width="10.5264" height="0.99502" rx="0.49751" transform="rotate(-13.8465 512.046 138.889)" fill="#282F39"/>
<rect x="512.903" y="142.367" width="10.5264" height="0.99502" rx="0.49751" transform="rotate(-13.8465 512.903 142.367)" fill="#282F39"/>
<rect x="513.332" y="144.105" width="10.5264" height="0.99502" rx="0.49751" transform="rotate(-13.8465 513.332 144.105)" fill="#282F39"/>
<rect x="512.475" y="140.627" width="10.5264" height="0.99502" rx="0.49751" transform="rotate(-13.8465 512.475 140.627)" fill="#282F39"/>
<rect x="642.358" y="106.77" width="9.21062" height="2.58705" rx="1.29353" transform="rotate(-13.8465 642.358 106.77)" fill="#282F39"/>
<rect x="501.344" y="135.789" width="218.862" height="1.79104" rx="0.895518" transform="rotate(-13.8465 501.344 135.789)" fill="#D89100"/>
<path d="M1699.16 201.91C1813.99 222.064 1872.17 311.076 1872.17 311.076H1255.77L1130 102C1130 102 1299.78 145.088 1391.34 119.616C1441.03 105.794 1478.01 114.148 1527.17 130.533C1606.63 157.016 1659.88 195.016 1699.16 201.91Z" fill="url(#paint3_linear_0_1)"/>
<path d="M1661.31 135.811C1760.3 175.227 1897.24 297 1897.24 297L1021 297L1021.27 7.73056C1021.27 7.73056 1063.28 4.49877 1110.28 23.0991C1188.84 54.1909 1232.17 74.7876 1313.89 96.2201C1445.98 130.862 1534.45 85.2921 1661.31 135.811Z" fill="url(#paint4_linear_0_1)"/>
<path d="M1402.51 127.649C1444.92 142.071 1501.72 185.246 1501.72 185.246L1450.97 191.59C1450.97 191.59 1422.3 173.986 1402.51 165.709C1329.32 135.101 1275.64 179.966 1199.52 157.589C1150.71 143.237 1125.58 127.681 1081.79 101.768C1058.62 88.0556 1021.15 88.0556 1021.15 88.0556V50.2495C1021.15 50.2495 1051.26 46.6972 1095.24 68.7828C1141.81 92.1701 1164.74 113.871 1215 127.649C1285.62 147.009 1333.18 104.076 1402.51 127.649Z" fill="#666666"/>
<path d="M1515.21 227.941C1472.79 213.519 1416 170.344 1416 170.344L1466.75 164C1466.75 164 1495.41 181.603 1515.21 189.881C1588.4 220.489 1642.08 175.624 1718.2 198.001C1767.01 212.353 1792.14 227.909 1835.93 253.822C1859.1 267.534 1896.57 267.534 1896.57 267.534V305.34C1896.57 305.34 1866.46 308.893 1822.48 286.807C1775.91 263.42 1752.98 241.719 1702.72 227.941C1632.1 208.581 1584.54 251.514 1515.21 227.941Z" fill="#666666"/>
<path d="M1283.51 146.802L1258.35 148.156" stroke="#E8E8E8" stroke-width="3.0448"/>
<path d="M1223.65 146.958L1199.47 139.877" stroke="#E8E8E8" stroke-width="3.0448"/>
<path d="M1174.91 130.862L1152.68 119.008" stroke="#E8E8E8" stroke-width="3.0448"/>
<path d="M1127.23 105.124L1105 93.2702" stroke="#E8E8E8" stroke-width="3.0448"/>
<path d="M1080.67 82.771L1057 74.1265" stroke="#E8E8E8" stroke-width="3.0448"/>
<path d="M1033.01 69.6806L1008 72.7223" stroke="#E8E8E8" stroke-width="3.0448"/>
<path d="M983.588 75.6378L959.422 82.7657" stroke="#E8E8E8" stroke-width="3.0448"/>
<path d="M935.28 93.0692L912.622 104.088" stroke="#E8E8E8" stroke-width="3.0448"/>
<path d="M1449.45 172.561L1428.64 158.352" stroke="#E8E8E8" stroke-width="3.0448"/>
<path d="M1492.81 201.209L1472 187" stroke="#E8E8E8" stroke-width="3.0448"/>
<path d="M1544.55 217.433L1520.25 210.772" stroke="#E8E8E8" stroke-width="3.0448"/>
<path d="M1594.69 215.854L1569.61 218.343" stroke="#E8E8E8" stroke-width="3.0448"/>
<path d="M1645.07 211.885L1620 214.374" stroke="#E8E8E8" stroke-width="3.0448"/>
<path d="M1695.51 209.562L1670.33 208.757" stroke="#E8E8E8" stroke-width="3.0448"/>
<path d="M1395.15 145.936L1370.9 139.114" stroke="#E8E8E8" stroke-width="3.0448"/>
<path d="M1340.85 138.064L1316.04 142.445" stroke="#E8E8E8" stroke-width="3.0448"/>
<defs>
<filter id="filter0_i_0_1" x="608.49" y="79.1094" width="21.3152" height="18.1875" filterUnits="userSpaceOnUse" color-interpolation-filters="sRGB">
<feFlood flood-opacity="0" result="BackgroundImageFix"/>
<feBlend mode="normal" in="SourceGraphic" in2="BackgroundImageFix" result="shape"/>
<feColorMatrix in="SourceAlpha" type="matrix" values="0 0 0 0 0 0 0 0 0 0 0 0 0 0 0 0 0 0 127 0" result="hardAlpha"/>
<feOffset dx="2.53733" dy="2.02986"/>
<feComposite in2="hardAlpha" operator="arithmetic" k2="-1" k3="1"/>
<feColorMatrix type="matrix" values="0 0 0 0 0.259253 0 0 0 0 0.376201 0 0 0 0 0.454167 0 0 0 1 0"/>
<feBlend mode="normal" in2="shape" result="effect1_innerShadow_0_1"/>
</filter>
<filter id="filter1_i_0_1" x="555.799" y="85.3418" width="48.3035" height="24.8398" filterUnits="userSpaceOnUse" color-interpolation-filters="sRGB">
<feFlood flood-opacity="0" result="BackgroundImageFix"/>
<feBlend mode="normal" in="SourceGraphic" in2="BackgroundImageFix" result="shape"/>
<feColorMatrix in="SourceAlpha" type="matrix" values="0 0 0 0 0 0 0 0 0 0 0 0 0 0 0 0 0 0 127 0" result="hardAlpha"/>
<feOffset dx="2.53733" dy="2.02986"/>
<feComposite in2="hardAlpha" operator="arithmetic" k2="-1" k3="1"/>
<feColorMatrix type="matrix" values="0 0 0 0 0.259253 0 0 0 0 0.376201 0 0 0 0 0.454167 0 0 0 1 0"/>
<feBlend mode="normal" in2="shape" result="effect1_innerShadow_0_1"/>
</filter>
<filter id="filter2_i_0_1" x="555.799" y="91.9941" width="21.3152" height="18.1875" filterUnits="userSpaceOnUse" color-interpolation-filters="sRGB">
<feFlood flood-opacity="0" result="BackgroundImageFix"/>
<feBlend mode="normal" in="SourceGraphic" in2="BackgroundImageFix" result="shape"/>
<feColorMatrix in="SourceAlpha" type="matrix" values="0 0 0 0 0 0 0 0 0 0 0 0 0 0 0 0 0 0 127 0" result="hardAlpha"/>
<feOffset dx="2.53733" dy="2.53733"/>
<feComposite in2="hardAlpha" operator="arithmetic" k2="-1" k3="1"/>
<feColorMatrix type="matrix" values="0 0 0 0 0.225781 0 0 0 0 0.315651 0 0 0 0 0.354167 0 0 0 1 0"/>
<feBlend mode="normal" in2="shape" result="effect1_innerShadow_0_1"/>
</filter>
<filter id="filter3_i_0_1" x="692.074" y="60.8223" width="13.3357" height="16.4668" filterUnits="userSpaceOnUse" color-interpolation-filters="sRGB">
<feFlood flood-opacity="0" result="BackgroundImageFix"/>
<feBlend mode="normal" in="SourceGraphic" in2="BackgroundImageFix" result="shape"/>
<feColorMatrix in="SourceAlpha" type="matrix" values="0 0 0 0 0 0 0 0 0 0 0 0 0 0 0 0 0 0 127 0" result="hardAlpha"/>
<feOffset dx="2.53733" dy="2.02986"/>
<feComposite in2="hardAlpha" operator="arithmetic" k2="-1" k3="1"/>
<feColorMatrix type="matrix" values="0 0 0 0 0.259253 0 0 0 0 0.376201 0 0 0 0 0.454167 0 0 0 1 0"/>
<feBlend mode="normal" in2="shape" result="effect1_innerShadow_0_1"/>
</filter>
<filter id="filter4_i_0_1" x="636.478" y="63.0859" width="58.0583" height="26.9219" filterUnits="userSpaceOnUse" color-interpolation-filters="sRGB">
<feFlood flood-opacity="0" result="BackgroundImageFix"/>
<feBlend mode="normal" in="SourceGraphic" in2="BackgroundImageFix" result="shape"/>
<feColorMatrix in="SourceAlpha" type="matrix" values="0 0 0 0 0 0 0 0 0 0 0 0 0 0 0 0 0 0 127 0" result="hardAlpha"/>
<feOffset dx="2.53733" dy="2.02986"/>
<feComposite in2="hardAlpha" operator="arithmetic" k2="-1" k3="1"/>
<feColorMatrix type="matrix" values="0 0 0 0 0.259253 0 0 0 0 0.376201 0 0 0 0 0.454167 0 0 0 1 0"/>
<feBlend mode="normal" in2="shape" result="effect1_innerShadow_0_1"/>
</filter>
<linearGradient id="paint0_linear_0_1" x1="850.81" y1="0.0107904" x2="873.646" y2="98.9666" gradientUnits="userSpaceOnUse">
<stop stop-color="#94DD63"/>
<stop offset="1" stop-color="#DCF0CE"/>
</linearGradient>
<linearGradient id="paint1_linear_0_1" x1="235.465" y1="92.1792" x2="312.346" y2="201.792" gradientUnits="userSpaceOnUse">
<stop stop-color="#8ACC5E"/>
<stop offset="1" stop-color="#BCEB9D"/>
</linearGradient>
<linearGradient id="paint2_linear_0_1" x1="561.462" y1="144.766" x2="653.908" y2="458.999" gradientUnits="userSpaceOnUse">
<stop stop-color="#72C03F"/>
<stop offset="1" stop-color="#BFEAA4"/>
</linearGradient>
<linearGradient id="paint3_linear_0_1" x1="1534.7" y1="111.642" x2="1457.82" y2="221.254" gradientUnits="userSpaceOnUse">
<stop stop-color="#8ACC5E"/>
<stop offset="1" stop-color="#BCEB9D"/>
</linearGradient>
<linearGradient id="paint4_linear_0_1" x1="1459.32" y1="138.638" x2="1371.25" y2="437.99" gradientUnits="userSpaceOnUse">
<stop stop-color="#72C03F"/>
<stop offset="1" stop-color="#BFEAA4"/>
</linearGradient>
</defs>
</svg> -->

<!-- <svg width="1859" height="292" viewBox="0 0 1859 292" fill="none" xmlns="http://www.w3.org/2000/svg">
<path d="M749.995 89.2643C635.163 109.418 576.988 198.43 576.988 198.43H1193.39V98.7129C1193.39 98.7129 1149.38 32.4423 1057.82 6.97026C1008.13 -6.85228 971.152 1.50195 921.991 17.8869C842.531 44.3702 789.276 82.3703 749.995 89.2643Z" fill="url(#paint0_linear_0_1)"/>
<path d="M159.007 182.448C44.1749 202.601 -14 291.613 -14 291.613H602.401L628.959 80C628.959 80 558.391 125.626 466.828 100.154C417.142 86.3311 380.164 94.6853 331.003 111.07C251.542 137.553 198.288 175.554 159.007 182.448Z" fill="url(#paint1_linear_0_1)"/>
<path d="M437.43 141.798C333.521 183.174 189.775 311 189.775 311H1109.57V7.36914C1109.57 7.36914 1049.97 15.6002 1015.85 23.4836C929.446 43.4499 887.91 77.7416 802.126 100.239C663.471 136.603 570.604 88.7681 437.43 141.798Z" fill="url(#paint2_linear_0_1)"/>
<path d="M727.96 127.639C685.545 142.061 628.75 185.236 628.75 185.236L666.501 188C666.501 188 708.165 173.976 727.96 165.698C801.152 135.091 854.833 179.956 930.946 157.579C979.763 143.227 1000.02 116.627 1048.68 101.758C1085.22 90.5935 1109.32 88.0562 1109.32 88.0562V50.25C1109.32 50.25 1063.55 58.7984 1035.23 68.7725C986.075 86.0837 965.728 113.861 915.468 127.639C844.847 146.998 797.288 104.065 727.96 127.639Z" fill="#666666"/>
<path d="M302.21 228.389C259.795 242.811 216 292.329 216 292.329H253.747C253.747 292.329 282.415 274.726 302.21 266.448C375.402 235.841 429.083 280.706 505.196 258.329C554.013 243.977 574.266 217.377 622.928 202.508C659.466 191.344 699 176.5 699 176.5L693.5 145C693.5 145 637.802 159.548 609.48 169.523C560.325 186.834 539.978 214.611 489.718 228.389C419.097 247.748 371.538 204.815 302.21 228.389Z" fill="#666666"/>
<path d="M846.959 146.79L872.118 148.144" stroke="#E8E8E8" stroke-width="3.0448"/>
<path d="M906.822 146.949L931.002 139.868" stroke="#E8E8E8" stroke-width="3.0448"/>
<path d="M955.557 130.853L977.789 118.999" stroke="#E8E8E8" stroke-width="3.0448"/>
<path d="M677.999 164.924L701.22 155.148" stroke="#E8E8E8" stroke-width="3.0448"/>
<path d="M625.999 186.924L649.22 177.148" stroke="#E8E8E8" stroke-width="3.0448"/>
<path d="M575.271 205.522L597.949 194.544" stroke="#E8E8E8" stroke-width="3.0448"/>
<path d="M523.001 233.087L545.484 221.716" stroke="#E8E8E8" stroke-width="3.0448"/>
<path d="M469.491 251.472L493.731 244.599" stroke="#E8E8E8" stroke-width="3.0448"/>
<path d="M414.174 246.021L439.047 250.036" stroke="#E8E8E8" stroke-width="3.0448"/>
<path d="M365.924 239.849L390.949 242.775" stroke="#E8E8E8" stroke-width="3.0448"/>
<path d="M316.347 242.96L341.363 239.963" stroke="#E8E8E8" stroke-width="3.0448"/>
<path d="M268.923 266.935L290.094 253.275" stroke="#E8E8E8" stroke-width="3.0448"/>
<path d="M735.316 145.924L759.57 139.103" stroke="#E8E8E8" stroke-width="3.0448"/>
<path d="M789.615 138.054L814.426 142.436" stroke="#E8E8E8" stroke-width="3.0448"/>
<rect x="596.795" y="165.106" width="33.7723" height="7.76116" rx="3.88058" transform="rotate(-13.8465 596.795 165.106)" fill="white"/>
<path d="M590.559 102.695L591.943 102.354L781.129 55.7226C781.129 55.7226 789.208 66.9348 793.938 74.701C796.063 78.1901 799.715 83.9351 799.715 83.9351L593.175 134.844C593.175 134.844 591.735 129.46 591.708 127.519C591.682 125.579 593.536 123.482 593.536 123.482C593.536 123.482 592.418 119.837 591.846 116.623C590.978 111.746 590.559 102.695 590.559 102.695Z" fill="white"/>
<path d="M674.133 112.328L592.688 132.402C592.688 132.402 591.389 128.316 591.957 126.229C592.355 124.766 593.538 123.482 593.538 123.482C593.538 123.482 592.184 119.062 591.657 115.85C591.13 112.638 590.911 107.323 590.911 107.323L720.69 75.3344C720.69 75.3344 709.689 91.1623 699.803 98.7241C690.886 105.545 674.133 112.328 674.133 112.328Z" fill="white"/>
<path d="M598.734 85.0011C595.048 89.75 593.582 92.4803 591.252 98.6305L778.309 52.5239C778.309 52.5239 774.82 48.9059 770.893 47.1782C765.669 44.8796 759.388 45.4024 759.388 45.4024L598.734 85.0011Z" fill="white"/>
<path d="M595.438 89.5023L598.733 85.0009L728.11 53.2139C728.11 53.2139 717.824 59.4464 710.776 62.6104C703.798 65.7429 692.326 69.3103 692.326 69.3103L592.984 94.2064L595.438 89.5023Z" fill="#FFAC01"/>
<g filter="url(#filter0_i_0_1)">
<rect x="695.318" y="82.8184" width="20.3949" height="16.1193" rx="5.58212" transform="rotate(-13.8465 695.318 82.8184)" fill="#7ED1FF"/>
</g>
<g filter="url(#filter1_i_0_1)">
<rect x="669.615" y="89.051" width="20.3949" height="16.1193" rx="5.58212" transform="rotate(-13.8465 669.615 89.051)" fill="#7ED1FF"/>
<g filter="url(#filter2_i_0_1)">
<rect x="642.627" y="95.7031" width="20.3949" height="16.1193" rx="5.58212" transform="rotate(-13.8465 642.627 95.7031)" fill="#7ED1FF"/>
</g>
</g>
<g filter="url(#filter3_i_0_1)">
<path d="M780.521 68.1364C779.201 65.1044 780.927 61.6143 784.138 60.8229L788.904 67.8249L793.41 75.0952L784.505 77.2902L780.521 68.1364Z" fill="#7ED1FF"/>
</g>
<g filter="url(#filter4_i_0_1)">
<path d="M724.714 83.8733C723.649 79.5514 726.289 75.1843 730.611 74.119L775.378 63.0845L782.536 77.9219L734.468 89.7699C730.146 90.8352 725.779 88.1952 724.714 83.8733Z" fill="#7ED1FF"/>
</g>
<rect x="587.893" y="99.6633" width="200.441" height="3.58207" rx="1.79104" transform="rotate(-13.8465 587.893 99.6633)" fill="#FFAC01"/>
<rect x="593.605" y="136.583" width="212.722" height="28.0596" transform="rotate(-13.8465 593.605 136.583)" fill="#FFAC01"/>
<rect x="756.822" y="125.252" width="55.2637" height="7.76116" rx="3.88058" transform="rotate(-13.8465 756.822 125.252)" fill="white"/>
<path d="M799.617 98.1935C798.921 95.3712 800.645 92.5193 803.468 91.8237C805.349 91.3599 807.25 92.5092 807.714 94.3908L809.699 102.443C810.086 104.011 809.128 105.596 807.56 105.982C804.424 106.755 801.255 104.839 800.482 101.704L799.617 98.1935Z" fill="#D89100"/>
<path d="M809.488 97.9256C810.475 101.927 810.742 105.303 808.458 105.865C807.191 106.178 805.364 103.187 804.378 99.1852C803.392 95.1835 803.337 91.7557 804.851 91.485C806.907 91.1175 808.502 93.9239 809.488 97.9256Z" fill="white"/>
<rect x="608.592" y="77.3447" width="149.563" height="1.99004" transform="rotate(-13.8465 608.592 77.3447)" fill="#343335"/>
<rect x="616.947" y="77.335" width="2.63161" height="3.18407" transform="rotate(-13.8465 616.947 77.335)" fill="#343335"/>
<rect x="745.342" y="45.6875" width="2.63161" height="3.18407" transform="rotate(-13.8465 745.342 45.6875)" fill="#343335"/>
<rect x="657.268" y="119.047" width="3.07021" height="31.6416" transform="rotate(-13.8465 657.268 119.047)" fill="#D89100"/>
<rect x="724.555" y="104.306" width="3.07021" height="29.2536" transform="rotate(-13.8465 724.555 104.306)" fill="#D89100"/>
<rect x="652.273" y="151.021" width="107.677" height="7.76116" rx="3.88058" transform="rotate(-13.8465 652.273 151.021)" fill="white"/>
<ellipse cx="760.592" cy="130.471" rx="17.544" ry="15.9203" transform="rotate(-13.8465 760.592 130.471)" fill="#282F39"/>
<ellipse cx="760.675" cy="130.348" rx="8.22377" ry="7.46265" transform="rotate(-13.8465 760.675 130.348)" fill="#84898F"/>
<ellipse cx="760.675" cy="130.348" rx="6.03076" ry="5.47261" transform="rotate(-13.8465 760.675 130.348)" fill="#D6D7D9"/>
<ellipse cx="641.141" cy="159.915" rx="17.544" ry="15.9203" transform="rotate(-13.8465 641.141 159.915)" fill="#282F39"/>
<ellipse cx="641.224" cy="159.792" rx="8.22377" ry="7.46265" transform="rotate(-13.8465 641.224 159.792)" fill="#84898F"/>
<ellipse cx="641.224" cy="159.792" rx="6.03076" ry="5.47261" transform="rotate(-13.8465 641.224 159.792)" fill="#D6D7D9"/>
<rect x="664.35" y="123.04" width="8.77202" height="2.58705" rx="1.29353" transform="rotate(-13.8465 664.35 123.04)" fill="#282F39"/>
<rect x="600.045" y="138.89" width="10.5264" height="0.99502" rx="0.49751" transform="rotate(-13.8465 600.045 138.89)" fill="#282F39"/>
<rect x="600.902" y="142.368" width="10.5264" height="0.99502" rx="0.49751" transform="rotate(-13.8465 600.902 142.368)" fill="#282F39"/>
<rect x="601.332" y="144.107" width="10.5264" height="0.99502" rx="0.49751" transform="rotate(-13.8465 601.332 144.107)" fill="#282F39"/>
<rect x="600.475" y="140.629" width="10.5264" height="0.99502" rx="0.49751" transform="rotate(-13.8465 600.475 140.629)" fill="#282F39"/>
<rect x="730.357" y="106.77" width="9.21062" height="2.58705" rx="1.29353" transform="rotate(-13.8465 730.357 106.77)" fill="#282F39"/>
<rect x="589.344" y="135.789" width="218.862" height="1.79104" rx="0.895518" transform="rotate(-13.8465 589.344 135.789)" fill="#D89100"/>
<path d="M1787.16 201.91C1901.99 222.064 1960.17 311.076 1960.17 311.076H1343.77L1218 102C1218 102 1387.78 145.088 1479.34 119.616C1529.03 105.794 1566 114.148 1615.17 130.533C1694.63 157.016 1747.88 195.016 1787.16 201.91Z" fill="url(#paint3_linear_0_1)"/>
<path d="M1749.31 135.811C1848.3 175.227 1985.24 297 1985.24 297L1109 297L1109.27 7.73056C1109.27 7.73056 1151.28 4.49877 1198.28 23.0991C1276.84 54.1909 1320.17 74.7876 1401.89 96.2201C1533.98 130.862 1622.45 85.2921 1749.31 135.811Z" fill="url(#paint4_linear_0_1)"/>
<path d="M1490.51 127.649C1532.92 142.071 1589.72 185.246 1589.72 185.246L1538.97 191.59C1538.97 191.59 1510.3 173.986 1490.51 165.709C1417.32 135.101 1363.64 179.966 1287.52 157.589C1238.71 143.237 1213.58 127.681 1169.79 101.768C1146.62 88.0556 1109.15 88.0556 1109.15 88.0556V50.2495C1109.15 50.2495 1139.26 46.6972 1183.24 68.7828C1229.81 92.1701 1252.74 113.871 1303 127.649C1373.62 147.009 1421.18 104.076 1490.51 127.649Z" fill="#666666"/>
<path d="M1603.21 227.941C1560.79 213.519 1504 170.344 1504 170.344L1554.75 164C1554.75 164 1583.41 181.603 1603.21 189.881C1676.4 220.489 1730.08 175.624 1806.2 198.001C1855.01 212.353 1880.14 227.909 1923.93 253.822C1947.1 267.534 1984.57 267.534 1984.57 267.534V305.34C1984.57 305.34 1954.46 308.893 1910.48 286.807C1863.91 263.42 1840.98 241.719 1790.72 227.941C1720.1 208.581 1672.54 251.514 1603.21 227.941Z" fill="#666666"/>
<path d="M1371.51 146.802L1346.35 148.156" stroke="#E8E8E8" stroke-width="3.0448"/>
<path d="M1311.65 146.958L1287.47 139.877" stroke="#E8E8E8" stroke-width="3.0448"/>
<path d="M1262.91 130.862L1240.68 119.008" stroke="#E8E8E8" stroke-width="3.0448"/>
<path d="M1215.23 105.124L1193 93.2702" stroke="#E8E8E8" stroke-width="3.0448"/>
<path d="M1168.67 82.771L1145 74.1265" stroke="#E8E8E8" stroke-width="3.0448"/>
<path d="M1121.01 69.6806L1096 72.7223" stroke="#E8E8E8" stroke-width="3.0448"/>
<path d="M1071.59 75.6371L1047.42 82.765" stroke="#E8E8E8" stroke-width="3.0448"/>
<path d="M1023.28 93.0697L1000.62 104.088" stroke="#E8E8E8" stroke-width="3.0448"/>
<path d="M1537.45 172.561L1516.65 158.352" stroke="#E8E8E8" stroke-width="3.0448"/>
<path d="M1580.81 201.209L1560 187" stroke="#E8E8E8" stroke-width="3.0448"/>
<path d="M1632.55 217.434L1608.25 210.773" stroke="#E8E8E8" stroke-width="3.0448"/>
<path d="M1682.69 215.854L1657.61 218.343" stroke="#E8E8E8" stroke-width="3.0448"/>
<path d="M1733.07 211.885L1708 214.374" stroke="#E8E8E8" stroke-width="3.0448"/>
<path d="M1783.51 209.561L1758.33 208.757" stroke="#E8E8E8" stroke-width="3.0448"/>
<path d="M1483.15 145.936L1458.9 139.114" stroke="#E8E8E8" stroke-width="3.0448"/>
<path d="M1428.85 138.064L1404.04 142.445" stroke="#E8E8E8" stroke-width="3.0448"/>
<defs>
<filter id="filter0_i_0_1" x="696.49" y="79.1099" width="21.3164" height="18.187" filterUnits="userSpaceOnUse" color-interpolation-filters="sRGB">
<feFlood flood-opacity="0" result="BackgroundImageFix"/>
<feBlend mode="normal" in="SourceGraphic" in2="BackgroundImageFix" result="shape"/>
<feColorMatrix in="SourceAlpha" type="matrix" values="0 0 0 0 0 0 0 0 0 0 0 0 0 0 0 0 0 0 127 0" result="hardAlpha"/>
<feOffset dx="2.53733" dy="2.02986"/>
<feComposite in2="hardAlpha" operator="arithmetic" k2="-1" k3="1"/>
<feColorMatrix type="matrix" values="0 0 0 0 0.259253 0 0 0 0 0.376201 0 0 0 0 0.454167 0 0 0 1 0"/>
<feBlend mode="normal" in2="shape" result="effect1_innerShadow_0_1"/>
</filter>
<filter id="filter1_i_0_1" x="643.799" y="85.3425" width="48.3047" height="24.8391" filterUnits="userSpaceOnUse" color-interpolation-filters="sRGB">
<feFlood flood-opacity="0" result="BackgroundImageFix"/>
<feBlend mode="normal" in="SourceGraphic" in2="BackgroundImageFix" result="shape"/>
<feColorMatrix in="SourceAlpha" type="matrix" values="0 0 0 0 0 0 0 0 0 0 0 0 0 0 0 0 0 0 127 0" result="hardAlpha"/>
<feOffset dx="2.53733" dy="2.02986"/>
<feComposite in2="hardAlpha" operator="arithmetic" k2="-1" k3="1"/>
<feColorMatrix type="matrix" values="0 0 0 0 0.259253 0 0 0 0 0.376201 0 0 0 0 0.454167 0 0 0 1 0"/>
<feBlend mode="normal" in2="shape" result="effect1_innerShadow_0_1"/>
</filter>
<filter id="filter2_i_0_1" x="643.799" y="91.9946" width="21.3164" height="18.187" filterUnits="userSpaceOnUse" color-interpolation-filters="sRGB">
<feFlood flood-opacity="0" result="BackgroundImageFix"/>
<feBlend mode="normal" in="SourceGraphic" in2="BackgroundImageFix" result="shape"/>
<feColorMatrix in="SourceAlpha" type="matrix" values="0 0 0 0 0 0 0 0 0 0 0 0 0 0 0 0 0 0 127 0" result="hardAlpha"/>
<feOffset dx="2.53733" dy="2.53733"/>
<feComposite in2="hardAlpha" operator="arithmetic" k2="-1" k3="1"/>
<feColorMatrix type="matrix" values="0 0 0 0 0.225781 0 0 0 0 0.315651 0 0 0 0 0.354167 0 0 0 1 0"/>
<feBlend mode="normal" in2="shape" result="effect1_innerShadow_0_1"/>
</filter>
<filter id="filter3_i_0_1" x="780.074" y="60.823" width="13.3359" height="16.4673" filterUnits="userSpaceOnUse" color-interpolation-filters="sRGB">
<feFlood flood-opacity="0" result="BackgroundImageFix"/>
<feBlend mode="normal" in="SourceGraphic" in2="BackgroundImageFix" result="shape"/>
<feColorMatrix in="SourceAlpha" type="matrix" values="0 0 0 0 0 0 0 0 0 0 0 0 0 0 0 0 0 0 127 0" result="hardAlpha"/>
<feOffset dx="2.53733" dy="2.02986"/>
<feComposite in2="hardAlpha" operator="arithmetic" k2="-1" k3="1"/>
<feColorMatrix type="matrix" values="0 0 0 0 0.259253 0 0 0 0 0.376201 0 0 0 0 0.454167 0 0 0 1 0"/>
<feBlend mode="normal" in2="shape" result="effect1_innerShadow_0_1"/>
</filter>
<filter id="filter4_i_0_1" x="724.479" y="63.0845" width="58.0586" height="26.9216" filterUnits="userSpaceOnUse" color-interpolation-filters="sRGB">
<feFlood flood-opacity="0" result="BackgroundImageFix"/>
<feBlend mode="normal" in="SourceGraphic" in2="BackgroundImageFix" result="shape"/>
<feColorMatrix in="SourceAlpha" type="matrix" values="0 0 0 0 0 0 0 0 0 0 0 0 0 0 0 0 0 0 127 0" result="hardAlpha"/>
<feOffset dx="2.53733" dy="2.02986"/>
<feComposite in2="hardAlpha" operator="arithmetic" k2="-1" k3="1"/>
<feColorMatrix type="matrix" values="0 0 0 0 0.259253 0 0 0 0 0.376201 0 0 0 0 0.454167 0 0 0 1 0"/>
<feBlend mode="normal" in2="shape" result="effect1_innerShadow_0_1"/>
</filter>
<linearGradient id="paint0_linear_0_1" x1="938.811" y1="0.0107904" x2="961.647" y2="98.9666" gradientUnits="userSpaceOnUse">
<stop stop-color="#94DD63"/>
<stop offset="1" stop-color="#DCF0CE"/>
</linearGradient>
<linearGradient id="paint1_linear_0_1" x1="323.465" y1="92.1792" x2="400.346" y2="201.792" gradientUnits="userSpaceOnUse">
<stop stop-color="#72C03F"/>
<stop offset="1" stop-color="#72C03F"/>
</linearGradient>
<linearGradient id="paint2_linear_0_1" x1="649.462" y1="144.766" x2="741.909" y2="458.999" gradientUnits="userSpaceOnUse">
<stop stop-color="#72C03F"/>
<stop offset="1" stop-color="#72C03F"/>
</linearGradient>
<linearGradient id="paint3_linear_0_1" x1="1622.7" y1="111.642" x2="1545.82" y2="221.254" gradientUnits="userSpaceOnUse">
<stop stop-color="#8ACC5E"/>
<stop offset="1" stop-color="#BCEB9D"/>
</linearGradient>
<linearGradient id="paint4_linear_0_1" x1="1547.32" y1="138.638" x2="1459.25" y2="437.99" gradientUnits="userSpaceOnUse">
<stop stop-color="#72C03F"/>
<stop offset="1" stop-color="#72C03F" stop-opacity="0.97"/>
</linearGradient>
</defs>
</svg> -->



<svg width="1781" height="292" viewBox="0 0 1781 292" fill="none" xmlns="http://www.w3.org/2000/svg">
<path d="M749.995 89.2643C635.163 109.418 576.988 198.43 576.988 198.43H1193.39V98.7129C1193.39 98.7129 1149.38 32.4423 1057.82 6.97026C1008.13 -6.85228 971.152 1.50195 921.991 17.8869C842.531 44.3702 789.276 82.3703 749.995 89.2643Z" fill="url(#paint0_linear_0_1)"/>
<path d="M184.312 152.714C52.6837 178.428 -14 292 -14 292H692.557L858 61.6424C858 61.6424 642.11 80.2139 537.155 47.7137C480.201 30.0774 437.815 40.7367 381.463 61.6424C290.381 95.4328 229.338 143.918 184.312 152.714Z" fill="url(#paint1_linear_0_1)"/>
<path d="M271.097 141.592C141.409 183.018 -38 311 -38 311H1110V7C1110 7 1035.61 15.241 993.03 23.1341C885.183 43.1246 833.343 77.458 726.275 99.9832C553.219 136.391 437.313 88.498 271.097 141.592Z" fill="url(#paint2_linear_0_1)"/>
<path d="M727.96 127.639C685.545 142.061 604 193 604 193L666.501 188C666.501 188 708.165 173.976 727.96 165.698C801.152 135.091 854.833 179.956 930.946 157.579C979.763 143.227 1000.02 116.627 1048.68 101.758C1085.22 90.5935 1109.32 88.0562 1109.32 88.0562V50.25C1109.32 50.25 1063.55 58.7984 1035.23 68.7725C986.075 86.0837 965.728 113.861 915.468 127.639C844.847 146.998 797.288 104.065 727.96 127.639Z" fill="#666666"/>
<path d="M81.8102 188.31C13.647 206.734 -61.9997 287.747 -61.9997 287.747L-3.29067 294.328C-3.29067 294.328 43.9757 267.813 76.022 256.445C194.517 214.412 271.185 304.086 392.971 277.296C471.082 260.114 506.626 216.025 584.574 197.89C643.101 184.274 706.848 164.593 706.848 164.593L703.084 107.243C703.084 107.243 614.241 123.578 568.675 136.496C489.589 158.917 453.718 205.096 373.451 220.999C260.666 243.345 193.225 158.196 81.8102 188.31Z" fill="#666666"/>
<path d="M846.959 146.79L872.118 148.144" stroke="#E8E8E8" stroke-width="3.0448"/>
<path d="M906.822 146.949L931.002 139.868" stroke="#E8E8E8" stroke-width="3.0448"/>
<path d="M955.557 130.853L977.789 118.999" stroke="#E8E8E8" stroke-width="3.0448"/>
<path d="M669.779 158.776L693 149.001" stroke="#E8E8E8" stroke-width="3.0448"/>
<path d="M593.036 169.807L618.184 168.265" stroke="#E8E8E8" stroke-width="3.0448"/>
<path d="M509.972 195.189L546.91 179.531" stroke="#E8E8E8" stroke-width="3.0448"/>
<path d="M424.491 235.324L461.185 218.927" stroke="#E8E8E8" stroke-width="3.0448"/>
<path d="M338.474 258.843L377.218 250.79" stroke="#E8E8E8" stroke-width="3.0448"/>
<path d="M253.266 239.459L291.343 250.968" stroke="#E8E8E8" stroke-width="3.0448"/>
<path d="M179.159 220.021L217.636 229.611" stroke="#E8E8E8" stroke-width="3.0448"/>
<path d="M101.576 216.935L140.94 215.943" stroke="#E8E8E8" stroke-width="3.0448"/>
<path d="M735.316 145.924L759.57 139.103" stroke="#E8E8E8" stroke-width="3.0448"/>
<path d="M789.615 138.054L814.426 142.436" stroke="#E8E8E8" stroke-width="3.0448"/>
<rect x="596.795" y="165.105" width="33.7723" height="7.76116" rx="3.88058" transform="rotate(-13.8465 596.795 165.105)" fill="white"/>
<path d="M590.559 102.695L591.943 102.354L781.129 55.7228C781.129 55.7228 789.208 66.9351 793.938 74.7013C796.063 78.1904 799.715 83.9353 799.715 83.9353L593.175 134.844C593.175 134.844 591.735 129.46 591.708 127.52C591.682 125.579 593.536 123.482 593.536 123.482C593.536 123.482 592.418 119.838 591.846 116.623C590.978 111.746 590.559 102.695 590.559 102.695Z" fill="white"/>
<path d="M674.133 112.327L592.688 132.402C592.688 132.402 591.389 128.316 591.957 126.229C592.355 124.766 593.538 123.482 593.538 123.482C593.538 123.482 592.184 119.061 591.657 115.85C591.13 112.638 590.911 107.323 590.911 107.323L720.69 75.3341C720.69 75.3341 709.689 91.1621 699.803 98.7239C690.886 105.544 674.133 112.327 674.133 112.327Z" fill="white"/>
<path d="M598.734 85.0013C595.048 89.7502 593.582 92.4806 591.252 98.6307L778.309 52.5241C778.309 52.5241 774.82 48.9061 770.893 47.1784C765.669 44.8798 759.388 45.4027 759.388 45.4027L598.734 85.0013Z" fill="white"/>
<path d="M595.438 89.5025L598.733 85.0011L728.11 53.2141C728.11 53.2141 717.824 59.4466 710.776 62.6107C703.798 65.7432 692.326 69.3105 692.326 69.3105L592.984 94.2067L595.438 89.5025Z" fill="#FFAC01"/>
<g filter="url(#filter0_i_0_1)">
<rect x="695.318" y="82.8184" width="20.3949" height="16.1193" rx="5.58212" transform="rotate(-13.8465 695.318 82.8184)" fill="#7ED1FF"/>
</g>
<g filter="url(#filter1_i_0_1)">
<rect x="669.615" y="89.0508" width="20.3949" height="16.1193" rx="5.58212" transform="rotate(-13.8465 669.615 89.0508)" fill="#7ED1FF"/>
<g filter="url(#filter2_i_0_1)">
<rect x="642.627" y="95.7031" width="20.3949" height="16.1193" rx="5.58212" transform="rotate(-13.8465 642.627 95.7031)" fill="#7ED1FF"/>
</g>
</g>
<g filter="url(#filter3_i_0_1)">
<path d="M780.521 68.1366C779.201 65.1047 780.927 61.6145 784.138 60.8231V60.8231L788.904 67.8251L793.41 75.0955L784.505 77.2905L780.521 68.1366Z" fill="#7ED1FF"/>
</g>
<g filter="url(#filter4_i_0_1)">
<path d="M724.714 83.8733C723.649 79.5514 726.289 75.1843 730.611 74.119L775.378 63.0845L782.536 77.9219L734.468 89.7699C730.146 90.8352 725.779 88.1952 724.714 83.8733V83.8733Z" fill="#7ED1FF"/>
</g>
<rect x="587.893" y="99.6641" width="200.441" height="3.58207" rx="1.79104" transform="rotate(-13.8465 587.893 99.6641)" fill="#FFAC01"/>
<rect x="593.605" y="136.583" width="212.722" height="28.0596" transform="rotate(-13.8465 593.605 136.583)" fill="#FFAC01"/>
<rect x="756.822" y="125.252" width="55.2637" height="7.76116" rx="3.88058" transform="rotate(-13.8465 756.822 125.252)" fill="white"/>
<path d="M799.617 98.1943C798.921 95.3719 800.645 92.52 803.468 91.8244V91.8244C805.349 91.3606 807.25 92.5099 807.714 94.3915L809.699 102.444C810.086 104.012 809.128 105.596 807.56 105.983V105.983C804.424 106.756 801.255 104.84 800.482 101.704L799.617 98.1943Z" fill="#D89100"/>
<path d="M809.488 97.9259C810.475 101.928 810.742 105.303 808.458 105.866C807.191 106.178 805.364 103.187 804.378 99.1855C803.392 95.1837 803.337 91.756 804.851 91.4852C806.907 91.1178 808.502 93.9241 809.488 97.9259Z" fill="white"/>
<rect x="608.592" y="77.3447" width="149.563" height="1.99004" transform="rotate(-13.8465 608.592 77.3447)" fill="#343335"/>
<rect x="616.947" y="77.335" width="2.63161" height="3.18407" transform="rotate(-13.8465 616.947 77.335)" fill="#343335"/>
<rect x="745.342" y="45.6875" width="2.63161" height="3.18407" transform="rotate(-13.8465 745.342 45.6875)" fill="#343335"/>
<rect x="657.268" y="119.047" width="3.07021" height="31.6416" transform="rotate(-13.8465 657.268 119.047)" fill="#D89100"/>
<rect x="724.555" y="104.307" width="3.07021" height="29.2536" transform="rotate(-13.8465 724.555 104.307)" fill="#D89100"/>
<rect x="652.273" y="151.021" width="107.677" height="7.76116" rx="3.88058" transform="rotate(-13.8465 652.273 151.021)" fill="white"/>
<ellipse cx="760.592" cy="130.472" rx="17.544" ry="15.9203" transform="rotate(-13.8465 760.592 130.472)" fill="#282F39"/>
<ellipse cx="760.675" cy="130.349" rx="8.22377" ry="7.46265" transform="rotate(-13.8465 760.675 130.349)" fill="#84898F"/>
<ellipse cx="760.675" cy="130.349" rx="6.03076" ry="5.47261" transform="rotate(-13.8465 760.675 130.349)" fill="#D6D7D9"/>
<ellipse cx="641.141" cy="159.915" rx="17.544" ry="15.9203" transform="rotate(-13.8465 641.141 159.915)" fill="#282F39"/>
<ellipse cx="641.224" cy="159.792" rx="8.22377" ry="7.46265" transform="rotate(-13.8465 641.224 159.792)" fill="#84898F"/>
<ellipse cx="641.224" cy="159.792" rx="6.03076" ry="5.47261" transform="rotate(-13.8465 641.224 159.792)" fill="#D6D7D9"/>
<rect x="664.35" y="123.04" width="8.77202" height="2.58705" rx="1.29353" transform="rotate(-13.8465 664.35 123.04)" fill="#282F39"/>
<rect x="600.045" y="138.89" width="10.5264" height="0.99502" rx="0.49751" transform="rotate(-13.8465 600.045 138.89)" fill="#282F39"/>
<rect x="600.902" y="142.368" width="10.5264" height="0.99502" rx="0.49751" transform="rotate(-13.8465 600.902 142.368)" fill="#282F39"/>
<rect x="601.332" y="144.106" width="10.5264" height="0.99502" rx="0.49751" transform="rotate(-13.8465 601.332 144.106)" fill="#282F39"/>
<rect x="600.475" y="140.629" width="10.5264" height="0.99502" rx="0.49751" transform="rotate(-13.8465 600.475 140.629)" fill="#282F39"/>
<rect x="730.357" y="106.771" width="9.21062" height="2.58705" rx="1.29353" transform="rotate(-13.8465 730.357 106.771)" fill="#282F39"/>
<rect x="589.344" y="135.789" width="218.862" height="1.79104" rx="0.895518" transform="rotate(-13.8465 589.344 135.789)" fill="#D89100"/>
<path d="M1787.16 201.91C1901.99 222.064 1960.17 311.076 1960.17 311.076H1343.77L1218 102C1218 102 1387.78 145.088 1479.34 119.616C1529.03 105.794 1566 114.148 1615.17 130.533C1694.63 157.016 1747.88 195.016 1787.16 201.91Z" fill="url(#paint3_linear_0_1)"/>
<path d="M1749.31 135.811C1848.3 175.227 1985.24 297 1985.24 297L1109 297L1109.27 7.73056C1109.27 7.73056 1151.28 4.49877 1198.28 23.0991C1276.84 54.1909 1320.17 74.7876 1401.89 96.2201C1533.98 130.862 1622.45 85.2921 1749.31 135.811Z" fill="url(#paint4_linear_0_1)"/>
<path d="M1490.51 127.649C1532.92 142.071 1589.72 185.246 1589.72 185.246L1538.97 191.59C1538.97 191.59 1510.3 173.986 1490.51 165.709C1417.32 135.101 1363.64 179.966 1287.52 157.589C1238.71 143.237 1213.58 127.681 1169.79 101.768C1146.62 88.0556 1109.15 88.0556 1109.15 88.0556V50.2495C1109.15 50.2495 1139.26 46.6972 1183.24 68.7828C1229.81 92.1701 1252.74 113.871 1303 127.649C1373.62 147.009 1421.18 104.076 1490.51 127.649Z" fill="#666666"/>
<path d="M1603.21 227.941C1560.79 213.519 1504 170.344 1504 170.344L1554.75 164C1554.75 164 1583.41 181.603 1603.21 189.881C1676.4 220.489 1730.08 175.624 1806.2 198.001C1855.01 212.353 1880.14 227.909 1923.93 253.822C1947.1 267.534 1984.57 267.534 1984.57 267.534V305.34C1984.57 305.34 1954.46 308.893 1910.48 286.807C1863.91 263.42 1840.98 241.719 1790.72 227.941C1720.1 208.581 1672.54 251.514 1603.21 227.941Z" fill="#666666"/>
<path d="M1371.51 146.802L1346.35 148.156" stroke="#E8E8E8" stroke-width="3.0448"/>
<path d="M1311.65 146.958L1287.47 139.877" stroke="#E8E8E8" stroke-width="3.0448"/>
<path d="M1262.91 130.862L1240.68 119.008" stroke="#E8E8E8" stroke-width="3.0448"/>
<path d="M1215.23 105.124L1193 93.2702" stroke="#E8E8E8" stroke-width="3.0448"/>
<path d="M1168.67 82.771L1145 74.1265" stroke="#E8E8E8" stroke-width="3.0448"/>
<path d="M1121.01 69.6806L1096 72.7223" stroke="#E8E8E8" stroke-width="3.0448"/>
<path d="M1071.59 75.6368L1047.42 82.7647" stroke="#E8E8E8" stroke-width="3.0448"/>
<path d="M1023.28 93.0692L1000.62 104.088" stroke="#E8E8E8" stroke-width="3.0448"/>
<path d="M1537.45 172.561L1516.65 158.352" stroke="#E8E8E8" stroke-width="3.0448"/>
<path d="M1580.81 201.209L1560 187" stroke="#E8E8E8" stroke-width="3.0448"/>
<path d="M1632.55 217.434L1608.25 210.773" stroke="#E8E8E8" stroke-width="3.0448"/>
<path d="M1682.69 215.854L1657.61 218.343" stroke="#E8E8E8" stroke-width="3.0448"/>
<path d="M1733.07 211.885L1708 214.374" stroke="#E8E8E8" stroke-width="3.0448"/>
<path d="M1783.51 209.561L1758.33 208.756" stroke="#E8E8E8" stroke-width="3.0448"/>
<path d="M1483.15 145.936L1458.9 139.114" stroke="#E8E8E8" stroke-width="3.0448"/>
<path d="M1428.85 138.064L1404.04 142.445" stroke="#E8E8E8" stroke-width="3.0448"/>
<defs>
<filter id="filter0_i_0_1" x="696.49" y="79.1094" width="21.3164" height="18.1875" filterUnits="userSpaceOnUse" color-interpolation-filters="sRGB">
<feFlood flood-opacity="0" result="BackgroundImageFix"/>
<feBlend mode="normal" in="SourceGraphic" in2="BackgroundImageFix" result="shape"/>
<feColorMatrix in="SourceAlpha" type="matrix" values="0 0 0 0 0 0 0 0 0 0 0 0 0 0 0 0 0 0 127 0" result="hardAlpha"/>
<feOffset dx="2.53733" dy="2.02986"/>
<feComposite in2="hardAlpha" operator="arithmetic" k2="-1" k3="1"/>
<feColorMatrix type="matrix" values="0 0 0 0 0.259253 0 0 0 0 0.376201 0 0 0 0 0.454167 0 0 0 1 0"/>
<feBlend mode="normal" in2="shape" result="effect1_innerShadow_0_1"/>
</filter>
<filter id="filter1_i_0_1" x="643.799" y="85.3418" width="48.3047" height="24.8398" filterUnits="userSpaceOnUse" color-interpolation-filters="sRGB">
<feFlood flood-opacity="0" result="BackgroundImageFix"/>
<feBlend mode="normal" in="SourceGraphic" in2="BackgroundImageFix" result="shape"/>
<feColorMatrix in="SourceAlpha" type="matrix" values="0 0 0 0 0 0 0 0 0 0 0 0 0 0 0 0 0 0 127 0" result="hardAlpha"/>
<feOffset dx="2.53733" dy="2.02986"/>
<feComposite in2="hardAlpha" operator="arithmetic" k2="-1" k3="1"/>
<feColorMatrix type="matrix" values="0 0 0 0 0.259253 0 0 0 0 0.376201 0 0 0 0 0.454167 0 0 0 1 0"/>
<feBlend mode="normal" in2="shape" result="effect1_innerShadow_0_1"/>
</filter>
<filter id="filter2_i_0_1" x="643.799" y="91.9941" width="21.3164" height="18.1875" filterUnits="userSpaceOnUse" color-interpolation-filters="sRGB">
<feFlood flood-opacity="0" result="BackgroundImageFix"/>
<feBlend mode="normal" in="SourceGraphic" in2="BackgroundImageFix" result="shape"/>
<feColorMatrix in="SourceAlpha" type="matrix" values="0 0 0 0 0 0 0 0 0 0 0 0 0 0 0 0 0 0 127 0" result="hardAlpha"/>
<feOffset dx="2.53733" dy="2.53733"/>
<feComposite in2="hardAlpha" operator="arithmetic" k2="-1" k3="1"/>
<feColorMatrix type="matrix" values="0 0 0 0 0.225781 0 0 0 0 0.315651 0 0 0 0 0.354167 0 0 0 1 0"/>
<feBlend mode="normal" in2="shape" result="effect1_innerShadow_0_1"/>
</filter>
<filter id="filter3_i_0_1" x="780.074" y="60.8232" width="13.3359" height="16.4668" filterUnits="userSpaceOnUse" color-interpolation-filters="sRGB">
<feFlood flood-opacity="0" result="BackgroundImageFix"/>
<feBlend mode="normal" in="SourceGraphic" in2="BackgroundImageFix" result="shape"/>
<feColorMatrix in="SourceAlpha" type="matrix" values="0 0 0 0 0 0 0 0 0 0 0 0 0 0 0 0 0 0 127 0" result="hardAlpha"/>
<feOffset dx="2.53733" dy="2.02986"/>
<feComposite in2="hardAlpha" operator="arithmetic" k2="-1" k3="1"/>
<feColorMatrix type="matrix" values="0 0 0 0 0.259253 0 0 0 0 0.376201 0 0 0 0 0.454167 0 0 0 1 0"/>
<feBlend mode="normal" in2="shape" result="effect1_innerShadow_0_1"/>
</filter>
<filter id="filter4_i_0_1" x="724.479" y="63.085" width="58.0586" height="26.9209" filterUnits="userSpaceOnUse" color-interpolation-filters="sRGB">
<feFlood flood-opacity="0" result="BackgroundImageFix"/>
<feBlend mode="normal" in="SourceGraphic" in2="BackgroundImageFix" result="shape"/>
<feColorMatrix in="SourceAlpha" type="matrix" values="0 0 0 0 0 0 0 0 0 0 0 0 0 0 0 0 0 0 127 0" result="hardAlpha"/>
<feOffset dx="2.53733" dy="2.02986"/>
<feComposite in2="hardAlpha" operator="arithmetic" k2="-1" k3="1"/>
<feColorMatrix type="matrix" values="0 0 0 0 0.259253 0 0 0 0 0.376201 0 0 0 0 0.454167 0 0 0 1 0"/>
<feBlend mode="normal" in2="shape" result="effect1_innerShadow_0_1"/>
</filter>
<linearGradient id="paint0_linear_0_1" x1="938.811" y1="0.0107904" x2="961.647" y2="98.9666" gradientUnits="userSpaceOnUse">
<stop stop-color="#94DD63"/>
<stop offset="1" stop-color="#DCF0CE"/>
</linearGradient>
<linearGradient id="paint1_linear_0_1" x1="372.823" y1="37.5391" x2="474.036" y2="167.178" gradientUnits="userSpaceOnUse">
<stop stop-color="#8ACC5E"/>
<stop offset="1" stop-color="#BCEB9D"/>
</linearGradient>
<linearGradient id="paint2_linear_0_1" x1="535.735" y1="144.564" x2="612.155" y2="468.374" gradientUnits="userSpaceOnUse">
<stop stop-color="#72C03F"/>
<stop offset="1" stop-color="#72C03F"/>
</linearGradient>
<linearGradient id="paint3_linear_0_1" x1="1622.7" y1="111.642" x2="1545.82" y2="221.254" gradientUnits="userSpaceOnUse">
<stop stop-color="#8ACC5E"/>
<stop offset="1" stop-color="#BCEB9D"/>
</linearGradient>
<linearGradient id="paint4_linear_0_1" x1="1547.32" y1="138.638" x2="1459.25" y2="437.99" gradientUnits="userSpaceOnUse">
<stop stop-color="#72C03F"/>
<stop offset="1" stop-color="#72C03F"/>
</linearGradient>
</defs>
</svg>

