<svg width="2558" height="1369" viewBox="0 0 2558 1369" fill="none" xmlns="http://www.w3.org/2000/svg">
<g opacity="0.66" filter="url(#filter0_i_125_113)">
<path fill-rule="evenodd" clip-rule="evenodd" d="M2457.44 252.511C2469.51 252.511 2489.92 250.612 2501.89 252.18C2503.56 252.398 2505.27 252.511 2507.01 252.511C2524.46 252.511 2538.6 241.122 2538.6 227.074C2538.6 213.025 2524.46 201.637 2507.01 201.637V201.637C2506.41 201.637 2505.9 201.185 2505.82 200.589C2503.99 186.827 2492 176.2 2477.49 176.2V176.2C2472.49 176.2 2467.42 173.617 2464.6 169.484C2459.03 161.334 2449.76 156 2439.27 156C2422.24 156 2408.43 170.068 2408.43 187.422V187.422C2408.43 187.854 2408.07 188.202 2407.64 188.188C2407.28 188.176 2406.91 188.17 2406.54 188.17C2388.57 188.17 2374 202.573 2374 220.34C2374 238.107 2388.57 252.51 2406.54 252.51C2407.9 252.51 2409.24 252.428 2410.55 252.269C2422.41 250.829 2445.49 252.511 2457.44 252.511V252.511V252.511Z" fill="white"/>
</g>
<path d="M2460.96 129.028L2477.37 130.608L2478.37 133.204L2477.75 133.144C2477.75 133.144 2478.86 138.66 2476.97 141.195C2475.68 142.931 2474.53 143.485 2472.37 143.57C2469.15 143.698 2466.73 143.33 2463.7 142.736C2461.48 142.3 2460.32 141.523 2459.32 139.495C2457.93 136.661 2460.1 131.445 2460.1 131.445L2459.48 131.385L2460.96 129.028Z" fill="#CF9A64"/>
<path d="M2464.43 120.624C2463.92 124.29 2463.09 126.479 2461.9 129.455" stroke="#ACACAC" stroke-width="0.669091"/>
<path d="M2470.1 121.17L2469.23 130.161" stroke="#ACACAC" stroke-width="0.669091"/>
<path d="M2475.42 121.683C2475.11 125.285 2475.51 127.579 2476.22 130.834" stroke="#ACACAC" stroke-width="0.669091"/>
<path fill-rule="evenodd" clip-rule="evenodd" d="M2521.81 61.0947C2523.31 57.6657 2524.29 53.9902 2524.66 50.1302C2526.84 27.5088 2507.28 7.11763 2480.99 4.58526C2454.69 2.05289 2431.6 18.3383 2429.42 40.9596C2429.05 44.8626 2429.32 48.6992 2430.16 52.3892C2432.75 70.0216 2440.46 84.1834 2460.73 110.185C2469.14 107.387 2473.26 108.54 2481.05 112.141C2506.35 88.9731 2516.35 76.5423 2521.81 61.0947Z" fill="#F3F1E5"/>
<path d="M2473.06 111.371C2493.81 54.9795 2497.27 27.0134 2483.95 5.20651C2486.08 5.2949 2490.53 5.67164 2499.91 10.4407C2516.63 37.3872 2509.39 62.9114 2478.05 111.852C2476.07 111.964 2474.98 111.838 2473.06 111.371Z" fill="#54AFB2"/>
<path d="M2468.39 110.922C2458.78 51.6071 2460.72 23.4946 2477.95 4.62903C2475.84 4.30932 2471.4 3.8293 2461.28 6.72091C2439.73 29.982 2441.97 56.4193 2463.39 110.441C2465.31 110.928 2466.42 111.014 2468.39 110.922Z" fill="#54AFB2"/>
<path fill-rule="evenodd" clip-rule="evenodd" d="M2461.07 110.218C2464.69 108.981 2466.71 108.558 2470.28 108.753C2475.42 109.428 2477.36 110.364 2480.71 112.11L2481.05 112.142C2478.52 115.8 2477.48 117.908 2476.42 121.779L2463.77 120.561C2463.65 116.942 2462.71 114.809 2461.74 112.608C2461.4 111.832 2461.05 111.047 2460.73 110.186L2461.07 110.218Z" fill="#5B9898"/>
<path d="M2479.75 111.68C2515.68 74.6513 2526.26 54.1173 2511.59 18.2878L2519.15 27.0816C2532.66 53.6027 2521.3 74.7491 2480.71 112.109L2479.75 111.68Z" fill="#54AFB2"/>
<path d="M2462.1 109.981C2434.08 66.794 2427.89 44.3095 2449.02 11.9269C2445.53 13.8376 2443.32 15.6634 2439.74 19.4356C2420.31 41.2592 2428.97 69.9099 2461.07 110.218L2462.1 109.981Z" fill="#54AFB2"/>
<path d="M2477.9 130.659L2459.96 128.932L2458.35 131.466L2459.03 131.531L2478.32 133.389L2479 133.454L2477.9 130.659Z" fill="#5D4227"/>
<path fill-rule="evenodd" clip-rule="evenodd" d="M2464.1 131.354L2463.79 129.973L2463.23 131.231C2462 131.277 2460.96 132.226 2460.84 133.483C2460.71 134.853 2461.71 136.07 2463.08 136.202C2464.45 136.334 2465.67 135.33 2465.8 133.96C2465.92 132.778 2465.19 131.71 2464.1 131.354Z" fill="#F2EFDD"/>
<path fill-rule="evenodd" clip-rule="evenodd" d="M2469.61 131.885L2469.3 130.504L2468.74 131.763C2467.51 131.809 2466.48 132.757 2466.35 134.014C2466.22 135.384 2467.23 136.601 2468.6 136.733C2469.97 136.865 2471.18 135.862 2471.32 134.492C2471.43 133.31 2470.7 132.241 2469.61 131.885Z" fill="#F2EFDD"/>
<path fill-rule="evenodd" clip-rule="evenodd" d="M2475.13 132.415L2474.81 131.034L2474.25 132.292C2473.02 132.338 2471.99 133.286 2471.87 134.543C2471.73 135.913 2472.74 137.131 2474.11 137.262C2475.48 137.394 2476.7 136.391 2476.83 135.021C2476.94 133.839 2476.21 132.77 2475.13 132.415Z" fill="#F2EFDD"/>
<g opacity="0.83" filter="url(#filter1_i_125_113)">
<path fill-rule="evenodd" clip-rule="evenodd" d="M2431.62 1109.96C2451.72 1109.96 2487.85 1109.96 2507.96 1109.96V1109.96C2532.18 1109.96 2551.82 1090.32 2551.82 1066.1C2551.82 1043.18 2534.23 1024.36 2511.81 1022.41C2510.19 1022.27 2508.96 1020.85 2508.96 1019.23V1019.23C2508.96 1002.03 2492.02 988.088 2471.13 988.088V988.088C2458.42 988.088 2443.8 983.901 2433.38 976.632C2425.57 971.191 2416.08 968 2405.84 968C2379.21 968 2357.63 989.586 2357.63 1016.21C2357.63 1018.8 2357.83 1021.35 2358.22 1023.83C2358.31 1024.4 2357.87 1024.92 2357.29 1024.92V1024.92C2333.81 1024.92 2314.77 1043.96 2314.77 1067.44C2314.77 1090.92 2333.81 1109.96 2357.29 1109.96V1109.96C2377.18 1109.96 2411.73 1109.96 2431.62 1109.96V1109.96V1109.96Z" fill="white"/>
</g>
<g opacity="0.9" filter="url(#filter2_i_125_113)">
<path fill-rule="evenodd" clip-rule="evenodd" d="M2419.3 264.639C2434.39 264.639 2459.9 262.266 2474.87 264.226C2476.95 264.498 2479.08 264.64 2481.26 264.64C2503.07 264.64 2520.75 250.404 2520.75 232.843C2520.75 215.283 2503.07 201.047 2481.26 201.047V201.047C2480.51 201.047 2479.87 200.482 2479.77 199.737C2477.49 182.534 2462.51 169.249 2444.36 169.249V169.249C2438.11 169.249 2431.78 166.02 2428.25 160.855C2421.28 150.667 2409.7 144 2396.59 144C2375.3 144 2358.04 161.585 2358.04 183.278V183.278C2358.04 183.818 2357.59 184.253 2357.05 184.235C2356.6 184.22 2356.14 184.213 2355.68 184.213C2333.21 184.213 2315 202.217 2315 224.426C2315 246.635 2333.21 264.639 2355.68 264.639C2357.37 264.639 2359.05 264.536 2360.69 264.337C2375.51 262.537 2404.36 264.639 2419.3 264.639V264.639V264.639Z" fill="white"/>
</g>
<path d="M2518.04 923.065L2502.27 924.584L2501.3 927.08L2501.9 927.023C2501.9 927.023 2500.83 932.326 2502.64 934.764C2503.89 936.433 2504.99 936.966 2507.07 937.048C2510.17 937.171 2512.5 936.817 2515.41 936.245C2517.54 935.827 2518.66 935.08 2519.61 933.13C2520.95 930.404 2518.87 925.389 2518.87 925.389L2519.46 925.332L2518.04 923.065Z" fill="#CF9A64"/>
<path d="M2514.7 914.984C2515.2 918.509 2515.99 920.614 2517.14 923.475" stroke="#ACACAC" stroke-width="0.643357"/>
<path d="M2509.26 915.509L2510.09 924.154" stroke="#ACACAC" stroke-width="0.643357"/>
<path d="M2504.14 916.002C2504.43 919.466 2504.05 921.672 2503.37 924.801" stroke="#ACACAC" stroke-width="0.643357"/>
<path fill-rule="evenodd" clip-rule="evenodd" d="M2459.53 857.743C2458.09 854.447 2457.15 850.913 2456.79 847.202C2454.7 825.451 2473.5 805.844 2498.79 803.409C2524.08 800.974 2546.27 816.633 2548.37 838.384C2548.73 842.139 2548.47 845.829 2547.66 849.379C2545.17 866.331 2537.75 879.948 2518.26 904.947C2510.18 902.256 2506.22 903.365 2498.73 906.828C2474.4 884.55 2464.79 872.597 2459.53 857.743Z" fill="#F3F1E5"/>
<path d="M2506.41 906.088C2486.46 851.865 2483.13 824.975 2495.94 804.006C2493.89 804.091 2489.61 804.454 2480.59 809.039C2464.51 834.949 2471.47 859.492 2501.61 906.55C2503.51 906.658 2504.57 906.537 2506.41 906.088Z" fill="#B14D56"/>
<path d="M2510.9 905.656C2520.14 848.623 2518.27 821.591 2501.7 803.451C2503.73 803.144 2508 802.682 2517.73 805.463C2538.46 827.829 2536.3 853.25 2515.7 905.194C2513.86 905.662 2512.8 905.744 2510.9 905.656Z" fill="#B14D56"/>
<path fill-rule="evenodd" clip-rule="evenodd" d="M2517.94 904.978C2514.46 903.788 2512.51 903.382 2509.08 903.569C2504.14 904.218 2502.27 905.119 2499.05 906.797L2498.73 906.828C2501.16 910.345 2502.15 912.373 2503.17 916.095L2515.34 914.923C2515.45 911.443 2516.36 909.392 2517.29 907.276C2517.62 906.53 2517.96 905.776 2518.26 904.947L2517.94 904.978Z" fill="#5B9898"/>
<path d="M2499.98 906.384C2465.43 870.779 2455.25 851.035 2469.36 816.584L2462.09 825.039C2449.1 850.54 2460.02 870.874 2499.05 906.797L2499.98 906.384Z" fill="#B14D56"/>
<path d="M2516.95 904.75C2543.89 863.224 2549.84 841.605 2529.52 810.467C2532.88 812.305 2535 814.06 2538.45 817.687C2557.13 838.672 2548.8 866.22 2517.93 904.978L2516.95 904.75Z" fill="#B14D56"/>
<path d="M2501.76 924.634L2519 922.973L2520.55 925.409L2519.9 925.472L2501.35 927.258L2500.7 927.321L2501.76 924.634Z" fill="#5D4227"/>
<path fill-rule="evenodd" clip-rule="evenodd" d="M2515.02 925.301L2515.33 923.973L2515.86 925.183C2517.04 925.227 2518.04 926.139 2518.15 927.348C2518.28 928.665 2517.32 929.836 2516 929.963C2514.68 930.089 2513.51 929.124 2513.38 927.807C2513.28 926.671 2513.98 925.643 2515.02 925.301Z" fill="#F2EFDD"/>
<path fill-rule="evenodd" clip-rule="evenodd" d="M2509.72 925.812L2510.03 924.484L2510.56 925.694C2511.74 925.738 2512.74 926.65 2512.85 927.859C2512.98 929.176 2512.02 930.346 2510.7 930.473C2509.38 930.6 2508.21 929.635 2508.08 928.318C2507.98 927.181 2508.68 926.154 2509.72 925.812Z" fill="#F2EFDD"/>
<path fill-rule="evenodd" clip-rule="evenodd" d="M2504.42 926.322L2504.73 924.994L2505.26 926.204C2506.44 926.248 2507.44 927.16 2507.55 928.368C2507.68 929.686 2506.72 930.856 2505.4 930.983C2504.08 931.11 2502.91 930.145 2502.79 928.828C2502.68 927.691 2503.38 926.664 2504.42 926.322Z" fill="#F2EFDD"/>
<path d="M57.9553 1300.67L77.6193 1299.31L79.31 1302.17L78.568 1302.22C78.568 1302.22 80.9619 1308.51 79.2395 1311.87C78.0601 1314.17 76.81 1315.05 74.2783 1315.58C70.5012 1316.36 67.5783 1316.4 63.8897 1316.3C61.1891 1316.22 59.6665 1315.54 58.0914 1313.34C55.8899 1310.27 57.4199 1303.69 57.4199 1303.69L56.6778 1303.75L57.9553 1300.67Z" fill="#CF9A64"/>
<path d="M60.4004 1290.08C60.5102 1294.5 59.9713 1297.25 59.1553 1300.99" stroke="#ACACAC" stroke-width="0.8"/>
<path d="M67.1836 1289.61L67.9336 1300.38" stroke="#ACACAC" stroke-width="0.8"/>
<path d="M73.5684 1289.16C73.9126 1293.47 74.8303 1296.1 76.3136 1299.8" stroke="#ACACAC" stroke-width="0.8"/>
<path fill-rule="evenodd" clip-rule="evenodd" d="M116.336 1208.57C117.431 1204.23 117.863 1199.71 117.541 1195.08C115.654 1167.97 88.5763 1147.78 57.0619 1149.97C25.5475 1152.17 1.52977 1175.92 3.41683 1203.03C3.74264 1207.71 4.81934 1212.18 6.54012 1216.37C13.0659 1236.65 24.9521 1251.83 53.9803 1278.5C63.3431 1273.54 68.4243 1274.09 78.3214 1276.8C103.593 1244.5 112.937 1227.87 116.336 1208.57Z" fill="#F3F1E5"/>
<path d="M68.7443 1277.47C82.1075 1206.88 80.6791 1173.22 60.6809 1150.12C63.2106 1149.81 68.5373 1149.37 80.5391 1153.15C105.564 1181.63 102.051 1213.16 74.7299 1277.05C72.4208 1277.57 71.1005 1277.64 68.7443 1277.47Z" fill="#D8712E"/>
<path d="M63.1525 1277.86C40.1372 1209.8 36.8875 1176.26 53.4929 1150.62C50.9439 1150.66 45.6086 1150.97 34.2458 1156.37C13.4087 1188.05 21.257 1218.79 57.167 1278.27C59.5262 1278.47 60.843 1278.36 63.1525 1277.86Z" fill="#D8712E"/>
<path fill-rule="evenodd" clip-rule="evenodd" d="M54.3788 1278.47C58.406 1276.3 60.7081 1275.4 64.9581 1274.93C71.1464 1274.71 73.6279 1275.43 77.9214 1276.83L78.3207 1276.8C76.0623 1281.62 75.2551 1284.31 74.7647 1289.08L59.6014 1290.14C58.7513 1285.89 57.2205 1283.56 55.6412 1281.16C55.0841 1280.31 54.521 1279.45 53.9796 1278.5L54.3788 1278.47Z" fill="#BD5428"/>
<path d="M76.6972 1276.51C111.779 1225.77 120.214 1199.47 95.8589 1160.1L106.502 1168.98C127.66 1197.6 118.427 1224.78 77.9221 1276.83L76.6972 1276.51Z" fill="#D8712E"/>
<path d="M55.5482 1277.99C13.9956 1232.58 2.27186 1207.28 20.8125 1164.93C17.0768 1167.87 14.8285 1170.45 11.3471 1175.61C-7.27536 1205.17 8.59083 1237.25 54.3859 1278.47L55.5482 1277.99Z" fill="#D8712E"/>
<path d="M78.2545 1299.26L56.759 1300.76L55.359 1304.06L56.1701 1304.01L79.2879 1302.4L80.0991 1302.34L78.2545 1299.26Z" fill="#5D4227"/>
<path fill-rule="evenodd" clip-rule="evenodd" d="M62.1237 1302.8L61.4773 1301.23L61.0662 1302.83C59.6271 1303.12 58.5935 1304.44 58.6983 1305.95C58.8126 1307.59 60.2359 1308.83 61.8774 1308.72C63.5188 1308.6 64.7568 1307.18 64.6426 1305.54C64.544 1304.12 63.4707 1303 62.1237 1302.8Z" fill="#F2EFDD"/>
<path fill-rule="evenodd" clip-rule="evenodd" d="M68.7282 1302.34L68.0818 1300.77L67.6707 1302.36C66.2316 1302.66 65.198 1303.98 65.3028 1305.49C65.4171 1307.13 66.8404 1308.37 68.4818 1308.25C70.1233 1308.14 71.3613 1306.72 71.2471 1305.08C71.1485 1303.66 70.0752 1302.54 68.7282 1302.34Z" fill="#F2EFDD"/>
<path fill-rule="evenodd" clip-rule="evenodd" d="M75.3327 1301.88L74.6863 1300.31L74.2752 1301.9C72.8361 1302.2 71.8025 1303.52 71.9073 1305.03C72.0216 1306.67 73.4449 1307.91 75.0863 1307.79C76.7278 1307.68 77.9658 1306.26 77.8516 1304.62C77.753 1303.2 76.6797 1302.08 75.3327 1301.88Z" fill="#F2EFDD"/>
<g opacity="0.9" filter="url(#filter3_i_125_113)">
<path fill-rule="evenodd" clip-rule="evenodd" d="M161.613 1368.4C150.984 1368.4 133.546 1366.81 122.998 1368.12C121.53 1368.31 120.024 1368.4 118.488 1368.4C103.307 1368.4 91.0002 1359.15 91.0002 1347.74C91.0002 1336.32 103.307 1327.07 118.488 1327.07V1327.07C119.012 1327.07 119.455 1326.68 119.53 1326.16C121.15 1315.01 131.562 1306.41 144.166 1306.41V1306.41C148.562 1306.41 152.97 1304.14 155.622 1300.63C160.493 1294.19 168.439 1290 177.414 1290C192.232 1290 204.244 1301.43 204.244 1315.53V1315.53C204.244 1315.88 204.535 1316.16 204.886 1316.15C205.219 1316.14 205.553 1316.13 205.889 1316.13C221.525 1316.13 234.2 1327.83 234.2 1342.27C234.2 1356.7 221.525 1368.4 205.889 1368.4C204.685 1368.4 203.499 1368.33 202.334 1368.2C191.872 1366.99 172.145 1368.4 161.613 1368.4V1368.4V1368.4Z" fill="white"/>
</g>
<g opacity="0.71" filter="url(#filter4_i_125_113)">
<path fill-rule="evenodd" clip-rule="evenodd" d="M125.266 284.765C104.484 284.765 67.1269 284.765 46.3448 284.765V284.765C21.3016 284.765 1 264.464 1 239.42C1 215.72 19.183 196.266 42.36 194.248C44.031 194.102 45.3071 192.637 45.3071 190.959V190.959C45.3071 173.181 62.8191 158.768 84.4213 158.768V158.768C97.5627 158.768 112.669 154.439 123.45 146.924C131.521 141.299 141.334 138 151.918 138C179.447 138 201.763 160.316 201.763 187.845C201.763 190.523 201.552 193.152 201.145 195.716C201.051 196.307 201.512 196.845 202.11 196.845V196.845C226.388 196.845 246.07 216.527 246.07 240.805C246.07 265.084 226.388 284.766 202.11 284.766V284.766C181.546 284.766 145.83 284.765 125.266 284.765V284.765V284.765Z" fill="white"/>
</g>
<g filter="url(#filter5_i_125_113)">
<path fill-rule="evenodd" clip-rule="evenodd" d="M240.523 308.664C210.835 308.664 157.467 308.665 127.778 308.665V308.665C92.0022 308.665 63 279.663 63 243.886C63 210.028 88.9765 182.236 122.087 179.354C124.474 179.147 126.296 177.053 126.296 174.658V174.658C126.296 149.26 151.313 128.67 182.173 128.67V128.67C200.946 128.67 222.526 122.485 237.926 111.75C249.457 103.713 263.477 99 278.597 99C317.924 99 349.804 130.88 349.804 170.207C349.804 174.033 349.502 177.788 348.921 181.451C348.787 182.295 349.445 183.063 350.3 183.063V183.063C384.983 183.063 413.1 211.18 413.1 245.864C413.1 280.547 384.983 308.664 350.3 308.664V308.664C320.924 308.664 269.899 308.664 240.523 308.664V308.664V308.664Z" fill="white"/>
</g>
<defs>
<filter id="filter0_i_125_113" x="2357.23" y="139.227" width="181.376" height="113.285" filterUnits="userSpaceOnUse" color-interpolation-filters="sRGB">
<feFlood flood-opacity="0" result="BackgroundImageFix"/>
<feBlend mode="normal" in="SourceGraphic" in2="BackgroundImageFix" result="shape"/>
<feColorMatrix in="SourceAlpha" type="matrix" values="0 0 0 0 0 0 0 0 0 0 0 0 0 0 0 0 0 0 127 0" result="hardAlpha"/>
<feOffset dx="-16.7731" dy="-16.7731"/>
<feGaussianBlur stdDeviation="16.7731"/>
<feComposite in2="hardAlpha" operator="arithmetic" k2="-1" k3="1"/>
<feColorMatrix type="matrix" values="0 0 0 0 0.74902 0 0 0 0 0.878431 0 0 0 0 1 0 0 0 1 0"/>
<feBlend mode="normal" in2="shape" result="effect1_innerShadow_125_113"/>
</filter>
<filter id="filter1_i_125_113" x="2298.39" y="951.62" width="253.427" height="158.341" filterUnits="userSpaceOnUse" color-interpolation-filters="sRGB">
<feFlood flood-opacity="0" result="BackgroundImageFix"/>
<feBlend mode="normal" in="SourceGraphic" in2="BackgroundImageFix" result="shape"/>
<feColorMatrix in="SourceAlpha" type="matrix" values="0 0 0 0 0 0 0 0 0 0 0 0 0 0 0 0 0 0 127 0" result="hardAlpha"/>
<feOffset dx="-16.3801" dy="-16.3801"/>
<feGaussianBlur stdDeviation="16.3801"/>
<feComposite in2="hardAlpha" operator="arithmetic" k2="-1" k3="1"/>
<feColorMatrix type="matrix" values="0 0 0 0 0.74902 0 0 0 0 0.878431 0 0 0 0 1 0 0 0 1 0"/>
<feBlend mode="normal" in2="shape" result="effect1_innerShadow_125_113"/>
</filter>
<filter id="filter2_i_125_113" x="2294.03" y="123.034" width="226.72" height="141.606" filterUnits="userSpaceOnUse" color-interpolation-filters="sRGB">
<feFlood flood-opacity="0" result="BackgroundImageFix"/>
<feBlend mode="normal" in="SourceGraphic" in2="BackgroundImageFix" result="shape"/>
<feColorMatrix in="SourceAlpha" type="matrix" values="0 0 0 0 0 0 0 0 0 0 0 0 0 0 0 0 0 0 127 0" result="hardAlpha"/>
<feOffset dx="-20.9664" dy="-20.9664"/>
<feGaussianBlur stdDeviation="20.9664"/>
<feComposite in2="hardAlpha" operator="arithmetic" k2="-1" k3="1"/>
<feColorMatrix type="matrix" values="0 0 0 0 0.74902 0 0 0 0 0.878431 0 0 0 0 1 0 0 0 1 0"/>
<feBlend mode="normal" in2="shape" result="effect1_innerShadow_125_113"/>
</filter>
<filter id="filter3_i_125_113" x="74.2" y="1273.2" width="160" height="95.2004" filterUnits="userSpaceOnUse" color-interpolation-filters="sRGB">
<feFlood flood-opacity="0" result="BackgroundImageFix"/>
<feBlend mode="normal" in="SourceGraphic" in2="BackgroundImageFix" result="shape"/>
<feColorMatrix in="SourceAlpha" type="matrix" values="0 0 0 0 0 0 0 0 0 0 0 0 0 0 0 0 0 0 127 0" result="hardAlpha"/>
<feOffset dx="-16.8" dy="-16.8"/>
<feGaussianBlur stdDeviation="16.8"/>
<feComposite in2="hardAlpha" operator="arithmetic" k2="-1" k3="1"/>
<feColorMatrix type="matrix" values="0 0 0 0 0.74902 0 0 0 0 0.878431 0 0 0 0 1 0 0 0 1 0"/>
<feBlend mode="normal" in2="shape" result="effect1_innerShadow_125_113"/>
</filter>
<filter id="filter4_i_125_113" x="-15.9344" y="121.066" width="262.005" height="163.7" filterUnits="userSpaceOnUse" color-interpolation-filters="sRGB">
<feFlood flood-opacity="0" result="BackgroundImageFix"/>
<feBlend mode="normal" in="SourceGraphic" in2="BackgroundImageFix" result="shape"/>
<feColorMatrix in="SourceAlpha" type="matrix" values="0 0 0 0 0 0 0 0 0 0 0 0 0 0 0 0 0 0 127 0" result="hardAlpha"/>
<feOffset dx="-16.9344" dy="-16.9344"/>
<feGaussianBlur stdDeviation="16.9344"/>
<feComposite in2="hardAlpha" operator="arithmetic" k2="-1" k3="1"/>
<feColorMatrix type="matrix" values="0 0 0 0 0.74902 0 0 0 0 0.878431 0 0 0 0 1 0 0 0 1 0"/>
<feBlend mode="normal" in2="shape" result="effect1_innerShadow_125_113"/>
</filter>
<filter id="filter5_i_125_113" x="38.8079" y="74.8079" width="374.292" height="233.857" filterUnits="userSpaceOnUse" color-interpolation-filters="sRGB">
<feFlood flood-opacity="0" result="BackgroundImageFix"/>
<feBlend mode="normal" in="SourceGraphic" in2="BackgroundImageFix" result="shape"/>
<feColorMatrix in="SourceAlpha" type="matrix" values="0 0 0 0 0 0 0 0 0 0 0 0 0 0 0 0 0 0 127 0" result="hardAlpha"/>
<feOffset dx="-24.1921" dy="-24.1921"/>
<feGaussianBlur stdDeviation="24.1921"/>
<feComposite in2="hardAlpha" operator="arithmetic" k2="-1" k3="1"/>
<feColorMatrix type="matrix" values="0 0 0 0 0.74902 0 0 0 0 0.878431 0 0 0 0 1 0 0 0 1 0"/>
<feBlend mode="normal" in2="shape" result="effect1_innerShadow_125_113"/>
</filter>
</defs>
</svg>
