<svg width="247" height="110" viewBox="0 0 247 110" fill="none" xmlns="http://www.w3.org/2000/svg">
<g filter="url(#filter0_i_1154_1216)">
<path fill-rule="evenodd" clip-rule="evenodd" d="M73.6064 94.6038C84.4056 94.6038 102.035 93.0073 112.753 94.3251C114.244 94.5084 115.775 94.6038 117.336 94.6038C132.73 94.6038 145.209 85.3284 145.209 73.8865C145.209 62.4447 132.73 53.1692 117.336 53.1692C116.804 53.1692 116.355 52.7714 116.278 52.2455C114.63 41.071 104.074 32.452 91.2982 32.452C86.8337 32.452 82.3623 30.1468 79.6407 26.6079C74.6984 20.1813 66.6599 16 57.5832 16C42.5578 16 30.3773 27.4579 30.3773 41.5919C30.3773 41.9441 30.0853 42.2288 29.7333 42.2176C29.393 42.2066 29.0512 42.2012 28.708 42.2012C12.853 42.2012 0 53.9319 0 68.4024C0 82.873 12.853 94.6037 28.708 94.6037C29.9331 94.6037 31.1403 94.5336 32.325 94.3977C42.9587 93.1777 62.9029 94.6038 73.6064 94.6038Z" fill="white" fill-opacity="0.7"/>
</g>
<g filter="url(#filter1_i_1154_1216)">
<path fill-rule="evenodd" clip-rule="evenodd" d="M146.007 110C161.119 110 185.789 107.766 200.789 109.61C202.876 109.867 205.018 110 207.203 110C228.745 110 246.209 97.0197 246.209 81.0077C246.209 64.9958 228.745 52.0155 207.203 52.0155C206.459 52.0155 205.83 51.4588 205.722 50.723C203.416 35.085 188.644 23.0233 170.765 23.0233C164.517 23.0233 158.26 19.7973 154.451 14.8447C147.534 5.85128 136.285 0 123.583 0C102.556 0 85.5106 16.0344 85.5106 35.8139C85.5106 36.3068 85.1019 36.7053 84.6093 36.6895C84.1332 36.6742 83.6549 36.6665 83.1747 36.6665C60.9868 36.6665 43 53.0828 43 73.3332C43 93.5836 60.9868 110 83.1747 110C84.8891 110 86.5785 109.902 88.2364 109.712C103.117 108.004 131.028 110 146.007 110Z" fill="white"/>
</g>
<defs>
<filter id="filter0_i_1154_1216" x="-12" y="4" width="157.209" height="90.604" filterUnits="userSpaceOnUse" color-interpolation-filters="sRGB">
<feFlood flood-opacity="0" result="BackgroundImageFix"/>
<feBlend mode="normal" in="SourceGraphic" in2="BackgroundImageFix" result="shape"/>
<feColorMatrix in="SourceAlpha" type="matrix" values="0 0 0 0 0 0 0 0 0 0 0 0 0 0 0 0 0 0 127 0" result="hardAlpha"/>
<feOffset dx="-12" dy="-12"/>
<feGaussianBlur stdDeviation="12"/>
<feComposite in2="hardAlpha" operator="arithmetic" k2="-1" k3="1"/>
<feColorMatrix type="matrix" values="0 0 0 0 0.74902 0 0 0 0 0.878431 0 0 0 0 1 0 0 0 1 0"/>
<feBlend mode="normal" in2="shape" result="effect1_innerShadow_1154_1216"/>
</filter>
<filter id="filter1_i_1154_1216" x="31" y="-12" width="215.209" height="122" filterUnits="userSpaceOnUse" color-interpolation-filters="sRGB">
<feFlood flood-opacity="0" result="BackgroundImageFix"/>
<feBlend mode="normal" in="SourceGraphic" in2="BackgroundImageFix" result="shape"/>
<feColorMatrix in="SourceAlpha" type="matrix" values="0 0 0 0 0 0 0 0 0 0 0 0 0 0 0 0 0 0 127 0" result="hardAlpha"/>
<feOffset dx="-12" dy="-12"/>
<feGaussianBlur stdDeviation="12"/>
<feComposite in2="hardAlpha" operator="arithmetic" k2="-1" k3="1"/>
<feColorMatrix type="matrix" values="0 0 0 0 0.74902 0 0 0 0 0.878431 0 0 0 0 1 0 0 0 1 0"/>
<feBlend mode="normal" in2="shape" result="effect1_innerShadow_1154_1216"/>
</filter>
</defs>
</svg>
