<svg width="178" height="105" viewBox="0 0 178 105" fill="none" xmlns="http://www.w3.org/2000/svg">
<g filter="url(#filter0_i_1234_7257)">
<path fill-rule="evenodd" clip-rule="evenodd" d="M89.7381 105C102.697 105 124.72 102.943 137.567 104.641C139.353 104.877 141.185 105 143.053 105C161.821 105 177.035 92.6097 177.035 77.3256C177.035 62.0414 161.821 49.6512 143.053 49.6512C142.406 49.6512 141.86 49.1647 141.776 48.5239C139.815 33.545 126.921 21.9768 111.308 21.9768C105.933 21.9768 100.487 19.2036 97.4882 14.7424C91.5012 5.83444 81.5133 0 70.2032 0C51.8848 0 37.0347 15.3056 37.0347 34.186C37.0347 34.6561 36.6432 35.0348 36.1734 35.0193C35.7838 35.0065 35.3926 35 35 35C15.67 35 0 50.67 0 70C0 89.3299 15.67 105 35 105C36.4547 105 37.8886 104.911 39.2967 104.739C52.0211 103.181 76.9188 105 89.7381 105Z" fill="white"/>
</g>
<defs>
<filter id="filter0_i_1234_7257" x="-12" y="-12" width="189.035" height="117" filterUnits="userSpaceOnUse" color-interpolation-filters="sRGB">
<feFlood flood-opacity="0" result="BackgroundImageFix"/>
<feBlend mode="normal" in="SourceGraphic" in2="BackgroundImageFix" result="shape"/>
<feColorMatrix in="SourceAlpha" type="matrix" values="0 0 0 0 0 0 0 0 0 0 0 0 0 0 0 0 0 0 127 0" result="hardAlpha"/>
<feOffset dx="-12" dy="-12"/>
<feGaussianBlur stdDeviation="12"/>
<feComposite in2="hardAlpha" operator="arithmetic" k2="-1" k3="1"/>
<feColorMatrix type="matrix" values="0 0 0 0 0.74902 0 0 0 0 0.878431 0 0 0 0 1 0 0 0 1 0"/>
<feBlend mode="normal" in2="shape" result="effect1_innerShadow_1234_7257"/>
</filter>
</defs>
</svg>
