<svg width="1840" height="548" viewBox="0 0 1840 548" fill="none" xmlns="http://www.w3.org/2000/svg">
<g filter="url(#filter0_i_1_83)">
<path fill-rule="evenodd" clip-rule="evenodd" d="M368.607 206.604C379.406 206.604 397.035 205.007 407.753 206.325C409.244 206.508 410.775 206.604 412.336 206.604C427.73 206.604 440.21 197.328 440.21 185.887C440.21 174.445 427.73 165.169 412.336 165.169V165.169C411.805 165.169 411.355 164.771 411.278 164.246C409.63 153.071 399.074 144.452 386.298 144.452V144.452C381.834 144.452 377.362 142.147 374.641 138.608C369.698 132.181 361.66 128 352.583 128C337.558 128 325.377 139.458 325.377 153.592V153.592C325.377 153.944 325.085 154.229 324.733 154.218C324.393 154.207 324.051 154.201 323.708 154.201C307.853 154.201 295 165.932 295 180.402C295 194.873 307.853 206.604 323.708 206.604C324.933 206.604 326.14 206.534 327.325 206.398C337.959 205.178 357.903 206.604 368.607 206.604V206.604V206.604Z" fill="white" fill-opacity="0.7"/>
</g>
<g filter="url(#filter1_i_1_83)">
<path fill-rule="evenodd" clip-rule="evenodd" d="M1434.68 249C1441.9 249 1453.97 247.887 1461.13 248.806C1462.12 248.934 1463.15 249 1464.19 249C1474.58 249 1483 242.392 1483 234.24C1483 226.089 1474.58 219.481 1464.19 219.481V219.481C1463.83 219.481 1463.53 219.212 1463.48 218.857C1462.38 210.879 1455.25 204.721 1446.62 204.721V204.721C1443.62 204.721 1440.61 203.177 1438.88 200.738C1435.55 196.057 1430.07 193 1423.86 193C1413.72 193 1405.5 201.163 1405.5 211.233V211.233C1405.5 211.483 1405.29 211.686 1405.04 211.678C1404.82 211.67 1404.6 211.667 1404.37 211.667C1393.67 211.667 1385 220.024 1385 230.333C1385 240.643 1393.67 249 1404.37 249C1405.19 249 1405.99 248.952 1406.78 248.858C1413.88 248.011 1427.53 249 1434.68 249V249V249Z" fill="white"/>
</g>
<g filter="url(#filter2_i_1_83)">
<path fill-rule="evenodd" clip-rule="evenodd" d="M989.738 105C1002.7 105 1024.72 102.943 1037.57 104.641C1039.35 104.877 1041.19 105 1043.05 105C1061.82 105 1077.04 92.6097 1077.04 77.3256C1077.04 62.0414 1061.82 49.6512 1043.05 49.6512V49.6512C1042.41 49.6512 1041.86 49.1647 1041.78 48.5239C1039.81 33.545 1026.92 21.9768 1011.31 21.9768V21.9768C1005.93 21.9768 1000.49 19.2036 997.488 14.7424C991.501 5.83444 981.513 0 970.203 0C951.885 0 937.035 15.3056 937.035 34.186V34.186C937.035 34.6561 936.643 35.0348 936.173 35.0193C935.784 35.0065 935.393 35 935 35C915.67 35 900 50.67 900 70C900 89.3299 915.67 105 935 105C936.455 105 937.889 104.911 939.297 104.739C952.021 103.181 976.919 105 989.738 105V105V105Z" fill="white"/>
</g>
<g filter="url(#filter3_i_1_83)">
<path fill-rule="evenodd" clip-rule="evenodd" d="M441.007 222C456.119 222 480.79 219.766 495.789 221.61C497.876 221.867 500.018 222 502.203 222C523.746 222 541.21 209.02 541.21 193.008C541.21 176.996 523.746 164.016 502.203 164.016V164.016C501.459 164.016 500.83 163.459 500.722 162.723C498.416 147.085 483.644 135.023 465.765 135.023V135.023C459.517 135.023 453.26 131.797 449.451 126.845C442.535 117.851 431.285 112 418.583 112C397.556 112 380.511 128.034 380.511 147.814V147.814C380.511 148.307 380.102 148.705 379.609 148.689C379.133 148.674 378.655 148.667 378.175 148.667C355.987 148.667 338 165.083 338 185.333C338 205.584 355.987 222 378.175 222C379.889 222 381.579 221.902 383.237 221.712C398.118 220.004 426.028 222 441.007 222V222V222Z" fill="white"/>
</g>
<g filter="url(#filter4_i_1_83)">
<path fill-rule="evenodd" clip-rule="evenodd" d="M1676.72 144C1686.21 144 1702.97 144 1712.46 144V144C1723.8 144 1733 135.147 1733 124.226C1733 113.874 1724.74 105.38 1714.21 104.524C1713.49 104.464 1712.93 103.824 1712.93 103.094V103.094C1712.93 95.3416 1705 89.0567 1695.22 89.0567V89.0567C1689.22 89.0567 1682.38 87.0819 1677.38 83.7849C1673.75 81.3968 1669.37 80 1664.64 80C1652.18 80 1642.07 89.7315 1642.07 101.736C1642.07 102.897 1642.16 104.038 1642.34 105.15C1642.39 105.416 1642.18 105.66 1641.91 105.66V105.66C1630.91 105.66 1622 114.243 1622 124.83C1622 135.417 1630.91 144 1641.91 144V144C1651.3 144 1667.33 144 1676.72 144V144V144Z" fill="white" fill-opacity="0.7"/>
</g>
<g filter="url(#filter5_i_1_83)">
<path fill-rule="evenodd" clip-rule="evenodd" d="M85.6034 370C100.33 370 126.802 370 141.528 370V370C159.275 370 173.661 355.614 173.661 337.868C173.661 321.073 160.775 307.288 144.352 305.858C143.168 305.755 142.264 304.717 142.264 303.528V303.528C142.264 290.93 129.854 280.717 114.547 280.717V280.717C105.235 280.717 94.5306 277.649 86.8912 272.324C81.1719 268.338 74.2177 266 66.7175 266C47.2104 266 31.3967 281.814 31.3967 301.321C31.3967 303.219 31.5464 305.082 31.8346 306.898C31.901 307.317 31.5748 307.698 31.151 307.698V307.698C13.9468 307.698 3.05176e-05 321.645 3.05176e-05 338.849C3.05176e-05 356.053 13.9468 370 31.151 370V370C45.7224 370 71.0319 370 85.6034 370V370V370Z" fill="white"/>
</g>
<g filter="url(#filter6_i_1_83)">
<path fill-rule="evenodd" clip-rule="evenodd" d="M1751.6 163C1766.33 163 1792.8 163 1807.53 163V163C1825.27 163 1839.66 148.614 1839.66 130.868C1839.66 114.073 1826.78 100.288 1810.35 98.858C1809.17 98.755 1808.26 97.7165 1808.26 96.5283V96.5283C1808.26 83.93 1795.85 73.717 1780.55 73.717V73.717C1771.23 73.717 1760.53 70.6492 1752.89 65.3243C1747.17 61.3377 1740.22 59 1732.72 59C1713.21 59 1697.4 74.8136 1697.4 94.3207C1697.4 96.2186 1697.55 98.0816 1697.83 99.8984C1697.9 100.317 1697.57 100.698 1697.15 100.698V100.698C1679.95 100.698 1666 114.645 1666 131.849C1666 149.053 1679.95 163 1697.15 163V163C1711.72 163 1737.03 163 1751.6 163V163V163Z" fill="white"/>
</g>
<g filter="url(#filter7_i_1_83)">
<path fill-rule="evenodd" clip-rule="evenodd" d="M188.716 548C198.206 548 214.973 548 224.462 548V548C235.805 548 245 539.147 245 528.226C245 517.874 236.737 509.38 226.214 508.524C225.487 508.464 224.932 507.824 224.932 507.094V507.094C224.932 499.342 217 493.057 207.216 493.057V493.057C201.223 493.057 194.382 491.082 189.378 487.785C185.753 485.397 181.368 484 176.644 484C164.176 484 154.068 493.731 154.068 505.736C154.068 506.897 154.162 508.038 154.345 509.15C154.388 509.416 154.181 509.66 153.911 509.66V509.66C142.915 509.66 134 518.243 134 528.83C134 539.417 142.915 548 153.911 548V548C163.297 548 179.33 548 188.716 548V548V548Z" fill="white" fill-opacity="0.7"/>
</g>
<defs>
<filter id="filter0_i_1_83" x="283" y="116" width="157.209" height="90.6038" filterUnits="userSpaceOnUse" color-interpolation-filters="sRGB">
<feFlood flood-opacity="0" result="BackgroundImageFix"/>
<feBlend mode="normal" in="SourceGraphic" in2="BackgroundImageFix" result="shape"/>
<feColorMatrix in="SourceAlpha" type="matrix" values="0 0 0 0 0 0 0 0 0 0 0 0 0 0 0 0 0 0 127 0" result="hardAlpha"/>
<feOffset dx="-12" dy="-12"/>
<feGaussianBlur stdDeviation="12"/>
<feComposite in2="hardAlpha" operator="arithmetic" k2="-1" k3="1"/>
<feColorMatrix type="matrix" values="0 0 0 0 0.74902 0 0 0 0 0.878431 0 0 0 0 1 0 0 0 1 0"/>
<feBlend mode="normal" in2="shape" result="effect1_innerShadow_1_83"/>
</filter>
<filter id="filter1_i_1_83" x="1373" y="181" width="110" height="68.0001" filterUnits="userSpaceOnUse" color-interpolation-filters="sRGB">
<feFlood flood-opacity="0" result="BackgroundImageFix"/>
<feBlend mode="normal" in="SourceGraphic" in2="BackgroundImageFix" result="shape"/>
<feColorMatrix in="SourceAlpha" type="matrix" values="0 0 0 0 0 0 0 0 0 0 0 0 0 0 0 0 0 0 127 0" result="hardAlpha"/>
<feOffset dx="-12" dy="-12"/>
<feGaussianBlur stdDeviation="12"/>
<feComposite in2="hardAlpha" operator="arithmetic" k2="-1" k3="1"/>
<feColorMatrix type="matrix" values="0 0 0 0 0.74902 0 0 0 0 0.878431 0 0 0 0 1 0 0 0 1 0"/>
<feBlend mode="normal" in2="shape" result="effect1_innerShadow_1_83"/>
</filter>
<filter id="filter2_i_1_83" x="888" y="-12" width="189.035" height="117" filterUnits="userSpaceOnUse" color-interpolation-filters="sRGB">
<feFlood flood-opacity="0" result="BackgroundImageFix"/>
<feBlend mode="normal" in="SourceGraphic" in2="BackgroundImageFix" result="shape"/>
<feColorMatrix in="SourceAlpha" type="matrix" values="0 0 0 0 0 0 0 0 0 0 0 0 0 0 0 0 0 0 127 0" result="hardAlpha"/>
<feOffset dx="-12" dy="-12"/>
<feGaussianBlur stdDeviation="12"/>
<feComposite in2="hardAlpha" operator="arithmetic" k2="-1" k3="1"/>
<feColorMatrix type="matrix" values="0 0 0 0 0.74902 0 0 0 0 0.878431 0 0 0 0 1 0 0 0 1 0"/>
<feBlend mode="normal" in2="shape" result="effect1_innerShadow_1_83"/>
</filter>
<filter id="filter3_i_1_83" x="326" y="100" width="215.209" height="122" filterUnits="userSpaceOnUse" color-interpolation-filters="sRGB">
<feFlood flood-opacity="0" result="BackgroundImageFix"/>
<feBlend mode="normal" in="SourceGraphic" in2="BackgroundImageFix" result="shape"/>
<feColorMatrix in="SourceAlpha" type="matrix" values="0 0 0 0 0 0 0 0 0 0 0 0 0 0 0 0 0 0 127 0" result="hardAlpha"/>
<feOffset dx="-12" dy="-12"/>
<feGaussianBlur stdDeviation="12"/>
<feComposite in2="hardAlpha" operator="arithmetic" k2="-1" k3="1"/>
<feColorMatrix type="matrix" values="0 0 0 0 0.74902 0 0 0 0 0.878431 0 0 0 0 1 0 0 0 1 0"/>
<feBlend mode="normal" in2="shape" result="effect1_innerShadow_1_83"/>
</filter>
<filter id="filter4_i_1_83" x="1610" y="68" width="123" height="76.0001" filterUnits="userSpaceOnUse" color-interpolation-filters="sRGB">
<feFlood flood-opacity="0" result="BackgroundImageFix"/>
<feBlend mode="normal" in="SourceGraphic" in2="BackgroundImageFix" result="shape"/>
<feColorMatrix in="SourceAlpha" type="matrix" values="0 0 0 0 0 0 0 0 0 0 0 0 0 0 0 0 0 0 127 0" result="hardAlpha"/>
<feOffset dx="-12" dy="-12"/>
<feGaussianBlur stdDeviation="12"/>
<feComposite in2="hardAlpha" operator="arithmetic" k2="-1" k3="1"/>
<feColorMatrix type="matrix" values="0 0 0 0 0.74902 0 0 0 0 0.878431 0 0 0 0 1 0 0 0 1 0"/>
<feBlend mode="normal" in2="shape" result="effect1_innerShadow_1_83"/>
</filter>
<filter id="filter5_i_1_83" x="-12" y="254" width="185.661" height="116" filterUnits="userSpaceOnUse" color-interpolation-filters="sRGB">
<feFlood flood-opacity="0" result="BackgroundImageFix"/>
<feBlend mode="normal" in="SourceGraphic" in2="BackgroundImageFix" result="shape"/>
<feColorMatrix in="SourceAlpha" type="matrix" values="0 0 0 0 0 0 0 0 0 0 0 0 0 0 0 0 0 0 127 0" result="hardAlpha"/>
<feOffset dx="-12" dy="-12"/>
<feGaussianBlur stdDeviation="12"/>
<feComposite in2="hardAlpha" operator="arithmetic" k2="-1" k3="1"/>
<feColorMatrix type="matrix" values="0 0 0 0 0.74902 0 0 0 0 0.878431 0 0 0 0 1 0 0 0 1 0"/>
<feBlend mode="normal" in2="shape" result="effect1_innerShadow_1_83"/>
</filter>
<filter id="filter6_i_1_83" x="1654" y="47" width="185.661" height="116" filterUnits="userSpaceOnUse" color-interpolation-filters="sRGB">
<feFlood flood-opacity="0" result="BackgroundImageFix"/>
<feBlend mode="normal" in="SourceGraphic" in2="BackgroundImageFix" result="shape"/>
<feColorMatrix in="SourceAlpha" type="matrix" values="0 0 0 0 0 0 0 0 0 0 0 0 0 0 0 0 0 0 127 0" result="hardAlpha"/>
<feOffset dx="-12" dy="-12"/>
<feGaussianBlur stdDeviation="12"/>
<feComposite in2="hardAlpha" operator="arithmetic" k2="-1" k3="1"/>
<feColorMatrix type="matrix" values="0 0 0 0 0.74902 0 0 0 0 0.878431 0 0 0 0 1 0 0 0 1 0"/>
<feBlend mode="normal" in2="shape" result="effect1_innerShadow_1_83"/>
</filter>
<filter id="filter7_i_1_83" x="122" y="472" width="123" height="76.0001" filterUnits="userSpaceOnUse" color-interpolation-filters="sRGB">
<feFlood flood-opacity="0" result="BackgroundImageFix"/>
<feBlend mode="normal" in="SourceGraphic" in2="BackgroundImageFix" result="shape"/>
<feColorMatrix in="SourceAlpha" type="matrix" values="0 0 0 0 0 0 0 0 0 0 0 0 0 0 0 0 0 0 127 0" result="hardAlpha"/>
<feOffset dx="-12" dy="-12"/>
<feGaussianBlur stdDeviation="12"/>
<feComposite in2="hardAlpha" operator="arithmetic" k2="-1" k3="1"/>
<feColorMatrix type="matrix" values="0 0 0 0 0.74902 0 0 0 0 0.878431 0 0 0 0 1 0 0 0 1 0"/>
<feBlend mode="normal" in2="shape" result="effect1_innerShadow_1_83"/>
</filter>
</defs>
</svg>
