<svg width="403" height="140" viewBox="0 0 403 140" fill="none" xmlns="http://www.w3.org/2000/svg">
<g clip-path="url(#clip0_1307_1639)">
<path d="M403 19.0943C403 19.0943 254.985 -20.3346 196.525 16.9037C138.065 54.142 0 33.9028 0 33.9028V131.903C0 131.903 82.093 160.162 159.832 111.095C237.571 62.0279 381.233 104.96 381.233 104.96C381.233 104.96 369.417 70.7898 322.151 59.8374C274.886 48.8849 278.617 44.0647 278.617 44.0647C278.617 44.0647 282.971 30.0465 312.201 23.9133C341.431 17.78 403 19.0943 403 19.0943Z" fill="#F3F1E5"/>
<path d="M42.0943 103.826C38.3715 104.223 35.0972 103.849 32.2715 102.702C29.4458 101.556 27.1778 99.7545 25.4674 97.2982C23.7888 94.8385 22.7626 91.8586 22.3889 88.3585C22.1104 85.7493 22.255 83.3363 22.8229 81.1195C23.4226 78.8993 24.4045 76.944 25.7688 75.2536C27.1649 73.5599 28.9182 72.198 31.0288 71.1681C33.1678 70.103 35.6215 69.4227 38.3897 69.1272C39.8534 68.9709 41.3835 68.9845 42.98 69.1681C44.605 69.3164 46.0577 69.6602 47.3381 70.1993C48.28 70.5814 48.965 71.1198 49.3932 71.8142C49.8213 72.5087 50.0125 73.2446 49.9668 74.0218C49.9528 74.7957 49.7554 75.5087 49.3745 76.1608C48.9936 76.8129 48.465 77.2877 47.7888 77.5852C47.1091 77.8508 46.3336 77.821 45.4621 77.4957C44.46 77.1521 43.4697 76.9199 42.4914 76.7991C41.5414 76.6431 40.5574 76.6194 39.5391 76.7281C37.5664 76.9387 35.9525 77.4972 34.6977 78.4035C33.4712 79.2747 32.6003 80.4618 32.085 81.965C31.5696 83.4682 31.4241 85.2699 31.6483 87.3699C31.8725 89.47 32.3969 91.2162 33.2213 92.6085C34.0424 93.9691 35.146 94.9615 36.5321 95.5859C37.9466 96.1751 39.6403 96.3643 41.6131 96.1537C42.4404 96.0654 43.3211 95.8748 44.2553 95.582C45.1861 95.2573 46.0891 94.823 46.9643 94.279C47.8747 93.7635 48.7061 93.5621 49.4583 93.6749C50.2423 93.7842 50.8876 94.1015 51.3943 94.6267C51.9327 95.1485 52.3063 95.7844 52.5151 96.5345C52.7205 97.2528 52.6873 97.9965 52.4154 98.7657C52.1754 99.5315 51.6655 100.181 50.8857 100.715C49.8434 101.502 48.5153 102.175 46.9015 102.733C45.3195 103.289 43.7171 103.653 42.0943 103.826ZM65.5198 101.325C63.4834 101.542 61.7738 101.355 60.3911 100.762C59.005 100.138 57.898 99.1136 57.0701 97.6895C56.2741 96.2619 55.7537 94.4026 55.5091 92.1117L54.439 82.0886C54.2896 80.6886 54.5434 79.5995 55.2005 78.8213C55.8542 78.0113 56.8652 77.5333 58.2334 77.3872C59.6016 77.2412 60.6907 77.495 61.5007 78.1487C62.3073 78.7706 62.7853 79.7815 62.9348 81.1816L64.0303 91.4433C64.1526 92.5888 64.483 93.4224 65.0214 93.9442C65.5599 94.466 66.3382 94.6725 67.3564 94.5638C68.5019 94.4415 69.3964 93.9276 70.0399 93.0222C70.6834 92.1168 70.9322 90.98 70.7861 89.6117L69.8077 80.4478C69.6582 79.0478 69.912 77.9587 70.5692 77.1805C71.2229 76.3705 72.2338 75.8925 73.602 75.7464C74.9703 75.6004 76.0594 75.8542 76.8693 76.5079C77.6759 77.1298 78.154 78.1407 78.3034 79.5408L79.9901 95.339C80.2958 98.2027 79.0805 99.7807 76.344 100.073C75.0076 100.215 73.9344 99.96 73.1245 99.3063C72.3145 98.6526 71.8348 97.6257 71.6853 96.2256L71.3897 93.4574L72.4031 95.7146C71.8695 97.3484 71.0105 98.647 69.8261 99.6101C68.6735 100.57 67.238 101.142 65.5198 101.325ZM97.7169 97.8875C95.3305 98.1423 93.3187 97.987 91.6814 97.4216C90.0759 96.8528 88.8132 95.8774 87.8933 94.4952C86.97 93.0812 86.3894 91.2606 86.1516 89.0332L85.321 81.2535L83.6982 81.4267C82.68 81.5354 81.8557 81.3499 81.2252 80.8701C80.6265 80.3869 80.2728 79.6362 80.1641 78.618C80.0554 77.5998 80.2443 76.8073 80.7309 76.2404C81.2459 75.6383 82.0125 75.283 83.0307 75.1742L84.6535 75.001L84.3376 72.0418C84.1881 70.6418 84.4402 69.5368 85.0939 68.7268C85.7476 67.9168 86.7586 67.4388 88.1268 67.2927C89.495 67.1466 90.5841 67.4004 91.3941 68.0542C92.2041 68.7079 92.6838 69.7347 92.8333 71.1348L93.1492 74.094L97.063 73.6761C98.113 73.564 98.9374 73.7495 99.536 74.2327C100.163 74.6807 100.531 75.4138 100.64 76.432C100.748 77.4502 100.545 78.2603 100.03 78.8624C99.5471 79.4611 98.7805 79.8165 97.7305 79.9286L93.8167 80.3464L94.6168 87.8398C94.7425 89.0172 95.1063 89.8633 95.7084 90.3783C96.3389 90.8581 97.2587 91.0334 98.4679 90.9043C98.9133 90.8568 99.3378 90.7632 99.7412 90.6236C100.145 90.4839 100.521 90.3954 100.871 90.3581C101.377 90.2719 101.808 90.3868 102.163 90.7029C102.516 90.9871 102.754 91.7179 102.88 92.8952C102.982 93.8497 102.925 94.6764 102.71 95.3752C102.492 96.0422 102.032 96.5579 101.331 96.9224C100.902 97.129 100.311 97.3209 99.558 97.4979C98.8079 97.7067 98.1942 97.8365 97.7169 97.8875ZM110.754 96.3991C109.417 96.5418 108.341 96.2544 107.524 95.5371C106.707 94.8197 106.219 93.7133 106.059 92.2178L104.449 77.1355C104.29 75.64 104.533 74.4555 105.18 73.5819C105.827 72.7083 106.819 72.2001 108.155 72.0574C109.523 71.9114 110.616 72.197 111.433 72.9143C112.281 73.6283 112.785 74.733 112.945 76.2285L114.555 91.3108C114.715 92.8063 114.471 93.9908 113.824 94.8645C113.177 95.7381 112.154 96.2496 110.754 96.3991ZM107.793 68.6687C106.298 68.8284 105.099 68.6023 104.197 67.9906C103.327 67.3755 102.82 66.3998 102.678 65.0634C102.538 63.7588 102.829 62.714 103.55 61.9291C104.302 61.1407 105.426 60.6667 106.922 60.5071C108.481 60.3406 109.696 60.5649 110.566 61.18C111.436 61.7951 111.941 62.755 112.08 64.0595C112.223 65.3959 111.934 66.4566 111.213 67.2416C110.492 68.0265 109.352 68.5022 107.793 68.6687ZM132.779 94.1442C129.915 94.4499 127.381 94.2217 125.175 93.4595C122.998 92.6621 121.255 91.4001 119.944 89.6735C118.633 87.9469 117.844 85.8267 117.575 83.313C117.317 80.8947 117.616 78.7227 118.473 76.7969C119.357 74.8359 120.668 73.2478 122.405 72.0325C124.17 70.7821 126.246 70.0294 128.632 69.7746C130.382 69.5878 132.004 69.7043 133.497 70.1242C134.987 70.5122 136.298 71.1928 137.432 72.166C138.562 73.1073 139.462 74.2986 140.131 75.7397C140.831 77.1774 141.28 78.8191 141.477 80.6646C141.545 81.301 141.421 81.7969 141.105 82.1525C140.786 82.4762 140.244 82.6789 139.48 82.7604L124.875 84.3197L124.447 80.3105L135.043 79.1792L134.346 79.8812C134.22 78.7039 133.959 77.7663 133.563 77.0685C133.166 76.3706 132.63 75.8647 131.952 75.5508C131.307 75.2336 130.523 75.1242 129.6 75.2227C128.614 75.328 127.78 75.6584 127.099 76.2138C126.447 76.734 125.977 77.4599 125.691 78.3916C125.404 79.3233 125.332 80.4574 125.475 81.7938L125.52 82.2234C125.762 84.4825 126.428 86.0526 127.52 86.9337C128.64 87.7796 130.25 88.0904 132.35 87.8662C133.05 87.7915 133.837 87.627 134.711 87.3728C135.613 87.0834 136.461 86.7354 137.255 86.3289C138.048 85.9223 138.759 85.7982 139.387 85.9564C140.012 86.0827 140.511 86.3835 140.883 86.8586C141.284 87.2985 141.535 87.835 141.634 88.468C141.731 89.0692 141.652 89.689 141.398 90.3275C141.141 90.9343 140.664 91.4358 139.966 91.8321C138.907 92.4601 137.754 92.9693 136.509 93.3598C135.295 93.7468 134.052 94.0083 132.779 94.1442Z" fill="#47455C"/>
</g>
<defs>
<clipPath id="clip0_1307_1639">
<rect width="403" height="140" fill="white" transform="matrix(1 0 0 -1 0 140)"/>
</clipPath>
</defs>
</svg>
