<svg width="403" height="140" viewBox="0 0 403 140" fill="none" xmlns="http://www.w3.org/2000/svg">
<path d="M0 18.1915C0 18.1915 148.015 -21.2374 206.475 16.0009C264.935 53.2392 403 33 403 33V131C403 131 320.907 159.259 243.168 110.192C165.429 61.1251 21.767 104.057 21.767 104.057C21.767 104.057 33.5833 69.887 80.8488 58.9346C128.114 47.9821 124.383 43.1619 124.383 43.1619C124.383 43.1619 120.029 29.1437 90.7994 23.0105C61.5694 16.8772 0 18.1915 0 18.1915Z" fill="#F3F1E5"/>
<path d="M256.68 98C255.176 98 254.024 97.616 253.224 96.848C252.456 96.048 252.072 94.912 252.072 93.44V68.72C252.072 67.248 252.456 66.128 253.224 65.36C254.024 64.56 255.176 64.16 256.68 64.16H266.088C271.976 64.16 276.52 65.632 279.72 68.576C282.952 71.52 284.568 75.68 284.568 81.056C284.568 83.744 284.152 86.144 283.32 88.256C282.488 90.336 281.288 92.112 279.72 93.584C278.152 95.024 276.216 96.128 273.912 96.896C271.64 97.632 269.032 98 266.088 98H256.68ZM260.904 90.848H265.512C267.208 90.848 268.664 90.64 269.88 90.224C271.128 89.808 272.152 89.2 272.952 88.4C273.784 87.6 274.392 86.592 274.776 85.376C275.192 84.16 275.4 82.72 275.4 81.056C275.4 77.728 274.584 75.28 272.952 73.712C271.32 72.112 268.84 71.312 265.512 71.312H260.904V90.848ZM290.547 98.432C289.555 98.432 288.723 98.208 288.051 97.76C287.379 97.28 286.963 96.64 286.803 95.84C286.643 95.008 286.787 94.08 287.235 93.056L299.187 67.328C299.763 66.08 300.467 65.168 301.299 64.592C302.163 64.016 303.139 63.728 304.227 63.728C305.315 63.728 306.259 64.016 307.059 64.592C307.891 65.168 308.611 66.08 309.219 67.328L321.171 93.056C321.683 94.08 321.859 95.008 321.699 95.84C321.571 96.672 321.171 97.312 320.499 97.76C319.859 98.208 319.059 98.432 318.099 98.432C316.819 98.432 315.827 98.144 315.123 97.568C314.451 96.992 313.843 96.064 313.299 94.784L310.707 88.688L314.067 91.136H294.291L297.699 88.688L295.107 94.784C294.531 96.064 293.939 96.992 293.331 97.568C292.723 98.144 291.795 98.432 290.547 98.432ZM304.131 73.376L298.563 86.672L297.219 84.368H311.187L309.843 86.672L304.227 73.376H304.131ZM334.815 98.432C333.407 98.432 332.319 98.048 331.551 97.28C330.783 96.48 330.399 95.344 330.399 93.872V80.72L332.223 85.568L321.183 69.68C320.639 68.912 320.399 68.064 320.463 67.136C320.559 66.176 320.943 65.376 321.615 64.736C322.319 64.064 323.311 63.728 324.591 63.728C325.487 63.728 326.303 63.952 327.039 64.4C327.775 64.816 328.463 65.536 329.103 66.56L335.823 76.448H334.095L340.815 66.512C341.487 65.488 342.175 64.768 342.879 64.352C343.583 63.936 344.415 63.728 345.375 63.728C346.591 63.728 347.535 64.032 348.207 64.64C348.879 65.248 349.231 66.016 349.263 66.944C349.327 67.872 349.039 68.816 348.399 69.776L337.455 85.568L339.231 80.72V93.872C339.231 96.912 337.759 98.432 334.815 98.432ZM371.567 98C370.383 98 369.471 97.696 368.831 97.088C368.223 96.448 367.919 95.552 367.919 94.4C367.919 93.248 368.223 92.368 368.831 91.76C369.471 91.152 370.383 90.848 371.567 90.848H375.887V71.216H379.919L372.959 75.488C372.127 76 371.343 76.208 370.607 76.112C369.871 75.984 369.247 75.664 368.735 75.152C368.223 74.64 367.887 74.016 367.727 73.28C367.567 72.544 367.631 71.808 367.919 71.072C368.207 70.336 368.783 69.712 369.647 69.2L376.271 65.072C376.975 64.624 377.695 64.288 378.431 64.064C379.199 63.84 379.999 63.728 380.831 63.728C382.047 63.728 382.991 64.048 383.663 64.688C384.335 65.296 384.671 66.192 384.671 67.376V90.848H388.511C389.695 90.848 390.591 91.152 391.199 91.76C391.839 92.368 392.159 93.248 392.159 94.4C392.159 95.552 391.839 96.448 391.199 97.088C390.591 97.696 389.695 98 388.511 98H371.567Z" fill="#47455C"/>
</svg>
