<svg width="403" height="140" viewBox="0 0 403 140" fill="none" xmlns="http://www.w3.org/2000/svg">
<path d="M0 18.1915C0 18.1915 148.015 -21.2374 206.475 16.0009C264.935 53.2392 403 33 403 33V131C403 131 320.907 159.259 243.168 110.192C165.429 61.1251 21.767 104.057 21.767 104.057C21.767 104.057 33.5833 69.887 80.8488 58.9346C128.114 47.9821 124.383 43.1619 124.383 43.1619C124.383 43.1619 120.029 29.1437 90.7994 23.0105C61.5694 16.8772 0 18.1915 0 18.1915Z" fill="#F3F1E5"/>
<path d="M253.68 98C252.176 98 251.024 97.616 250.224 96.848C249.456 96.048 249.072 94.912 249.072 93.44V68.72C249.072 67.248 249.456 66.128 250.224 65.36C251.024 64.56 252.176 64.16 253.68 64.16H263.088C268.976 64.16 273.52 65.632 276.72 68.576C279.952 71.52 281.568 75.68 281.568 81.056C281.568 83.744 281.152 86.144 280.32 88.256C279.488 90.336 278.288 92.112 276.72 93.584C275.152 95.024 273.216 96.128 270.912 96.896C268.64 97.632 266.032 98 263.088 98H253.68ZM257.904 90.848H262.512C264.208 90.848 265.664 90.64 266.88 90.224C268.128 89.808 269.152 89.2 269.952 88.4C270.784 87.6 271.392 86.592 271.776 85.376C272.192 84.16 272.4 82.72 272.4 81.056C272.4 77.728 271.584 75.28 269.952 73.712C268.32 72.112 265.84 71.312 262.512 71.312H257.904V90.848ZM287.547 98.432C286.555 98.432 285.723 98.208 285.051 97.76C284.379 97.28 283.963 96.64 283.803 95.84C283.643 95.008 283.787 94.08 284.235 93.056L296.187 67.328C296.763 66.08 297.467 65.168 298.299 64.592C299.163 64.016 300.139 63.728 301.227 63.728C302.315 63.728 303.259 64.016 304.059 64.592C304.891 65.168 305.611 66.08 306.219 67.328L318.171 93.056C318.683 94.08 318.859 95.008 318.699 95.84C318.571 96.672 318.171 97.312 317.499 97.76C316.859 98.208 316.059 98.432 315.099 98.432C313.819 98.432 312.827 98.144 312.123 97.568C311.451 96.992 310.843 96.064 310.299 94.784L307.707 88.688L311.067 91.136H291.291L294.699 88.688L292.107 94.784C291.531 96.064 290.939 96.992 290.331 97.568C289.723 98.144 288.795 98.432 287.547 98.432ZM301.131 73.376L295.563 86.672L294.219 84.368H308.187L306.843 86.672L301.227 73.376H301.131ZM331.815 98.432C330.407 98.432 329.319 98.048 328.551 97.28C327.783 96.48 327.399 95.344 327.399 93.872V80.72L329.223 85.568L318.183 69.68C317.639 68.912 317.399 68.064 317.463 67.136C317.559 66.176 317.943 65.376 318.615 64.736C319.319 64.064 320.311 63.728 321.591 63.728C322.487 63.728 323.303 63.952 324.039 64.4C324.775 64.816 325.463 65.536 326.103 66.56L332.823 76.448H331.095L337.815 66.512C338.487 65.488 339.175 64.768 339.879 64.352C340.583 63.936 341.415 63.728 342.375 63.728C343.591 63.728 344.535 64.032 345.207 64.64C345.879 65.248 346.231 66.016 346.263 66.944C346.327 67.872 346.039 68.816 345.399 69.776L334.455 85.568L336.231 80.72V93.872C336.231 96.912 334.759 98.432 331.815 98.432ZM367.943 98C366.535 98 365.511 97.68 364.871 97.04C364.263 96.368 363.959 95.392 363.959 94.112C363.959 93.216 364.151 92.416 364.535 91.712C364.951 91.008 365.479 90.32 366.119 89.648L374.519 80.864C375.767 79.52 376.647 78.368 377.159 77.408C377.703 76.448 377.975 75.488 377.975 74.528C377.975 73.312 377.575 72.4 376.775 71.792C375.975 71.184 374.823 70.88 373.319 70.88C372.551 70.88 371.735 70.992 370.871 71.216C370.007 71.408 369.079 71.76 368.087 72.272C367.223 72.656 366.439 72.768 365.735 72.608C365.063 72.448 364.487 72.096 364.007 71.552C363.559 71.008 363.271 70.384 363.143 69.68C363.047 68.976 363.159 68.288 363.479 67.616C363.799 66.912 364.375 66.336 365.207 65.888C366.679 65.088 368.199 64.512 369.767 64.16C371.367 63.808 372.967 63.632 374.567 63.632C377.191 63.632 379.383 64.016 381.143 64.784C382.935 65.552 384.295 66.672 385.223 68.144C386.151 69.584 386.615 71.376 386.615 73.52C386.615 74.864 386.407 76.176 385.991 77.456C385.607 78.736 384.967 80.016 384.071 81.296C383.207 82.576 382.039 83.936 380.567 85.376L372.791 93.056V90.848H384.647C385.831 90.848 386.727 91.152 387.335 91.76C387.975 92.368 388.295 93.248 388.295 94.4C388.295 95.552 387.975 96.448 387.335 97.088C386.727 97.696 385.831 98 384.647 98H367.943Z" fill="#47455C"/>
</svg>
