<svg width="1674" height="2212" viewBox="0 0 1674 2212" fill="none" xmlns="http://www.w3.org/2000/svg">
<path d="M85.3663 137.419L102.517 135.597L104.087 138.048L103.44 138.117C103.44 138.117 105.733 143.537 104.334 146.531C103.376 148.58 102.31 149.39 100.113 149.931C96.8356 150.738 94.2812 150.868 91.0524 150.894C88.6885 150.912 87.3352 150.36 85.8881 148.49C83.8655 145.878 84.9941 140.077 84.9941 140.077L84.3469 140.145L85.3663 137.419Z" fill="#CF9A64"/>
<path d="M87.167 128.076C87.4037 131.942 87.0197 134.358 86.4253 137.658" stroke="#ACACAC" stroke-width="0.700001"/>
<path d="M93.084 127.447L94.0825 136.844" stroke="#ACACAC" stroke-width="0.700001"/>
<path d="M98.6523 126.857C99.0904 130.615 99.9764 132.883 101.391 136.07" stroke="#ACACAC" stroke-width="0.700001"/>
<path fill-rule="evenodd" clip-rule="evenodd" d="M133.486 55.0283C134.306 51.199 134.54 47.2264 134.111 43.1923C131.599 19.5495 107.279 2.7509 79.7923 5.67159C52.3052 8.59228 32.059 30.1262 34.5712 53.7691C35.0049 57.851 36.0887 61.7288 37.7265 65.3365C44.0777 82.862 54.9541 95.7589 81.1852 118.154C89.2146 113.522 93.6752 113.84 102.416 115.898C123.486 86.8452 131.128 72.0068 133.486 55.0283Z" fill="#F3F1E5"/>
<path d="M94.0627 116.784C103.503 54.6333 101.183 25.2435 82.9617 5.68523C85.1637 5.329 89.8077 4.78096 100.422 7.70157C123.211 31.8136 121.141 59.494 99.2833 116.23C97.2808 116.759 96.1285 116.86 94.0627 116.784Z" fill="#54AFB2"/>
<path d="M89.1858 117.303C66.8961 58.5233 62.988 29.3023 76.6926 6.35171C74.4649 6.46617 69.8094 6.90627 60.0454 11.9923C42.8324 40.3548 50.6727 66.9821 83.9652 117.858C86.0343 117.955 87.1821 117.811 89.1858 117.303Z" fill="#54AFB2"/>
<path fill-rule="evenodd" clip-rule="evenodd" d="M81.5337 118.116C84.9861 116.088 86.9706 115.23 90.6719 114.681C96.0763 114.295 98.2691 114.847 102.068 115.934L102.416 115.897C100.594 120.176 99.9741 122.554 99.6971 126.745L86.4716 128.151C85.5932 124.465 84.1805 122.477 82.7231 120.425C82.209 119.701 81.6894 118.97 81.1856 118.153L81.5337 118.116Z" fill="#5B9898"/>
<path d="M100.987 115.697C130.049 70.208 136.588 46.9421 114.04 13.2948L123.628 20.7233C143.04 45.0723 135.83 69.1295 102.068 115.935L100.987 115.697Z" fill="#54AFB2"/>
<path d="M82.5403 117.658C44.7615 79.2707 33.7055 57.5224 48.5709 19.8996C45.3978 22.5894 43.5142 24.9246 40.6338 29.5423C25.2903 55.9872 40.1843 83.5348 81.5392 118.116L82.5403 117.658Z" fill="#54AFB2"/>
<path d="M103.072 135.538L84.3232 137.53L83.2041 140.465L83.9115 140.39L104.075 138.247L104.783 138.172L103.072 135.538Z" fill="#5D4227"/>
<path fill-rule="evenodd" clip-rule="evenodd" d="M89.0788 139.142L88.4638 137.793L88.1551 139.2C86.9062 139.505 86.0444 140.694 86.184 142.007C86.3361 143.439 87.6201 144.476 89.0518 144.324C90.4835 144.172 91.5208 142.888 91.3686 141.456C91.2374 140.221 90.2633 139.279 89.0788 139.142Z" fill="#F2EFDD"/>
<path fill-rule="evenodd" clip-rule="evenodd" d="M94.8395 138.532L94.2245 137.182L93.9159 138.589C92.6669 138.894 91.8052 140.083 91.9447 141.397C92.0969 142.829 93.3808 143.866 94.8125 143.714C96.2442 143.562 97.2815 142.278 97.1294 140.846C96.9981 139.611 96.024 138.669 94.8395 138.532Z" fill="#F2EFDD"/>
<path fill-rule="evenodd" clip-rule="evenodd" d="M100.6 137.919L99.9852 136.57L99.6766 137.977C98.4276 138.282 97.5659 139.471 97.7055 140.785C97.8576 142.216 99.1415 143.254 100.573 143.101C102.005 142.949 103.042 141.665 102.89 140.234C102.759 138.998 101.785 138.056 100.6 137.919Z" fill="#F2EFDD"/>
<path d="M58.047 2192.45L75.1636 2190.32L76.7758 2192.75L76.1299 2192.83C76.1299 2192.83 78.5176 2198.21 77.1711 2201.22C76.249 2203.29 75.1982 2204.12 73.0109 2204.7C69.7478 2205.56 67.196 2205.74 63.9682 2205.82C61.605 2205.88 60.2422 2205.35 58.7627 2203.51C56.6946 2200.93 57.7215 2195.11 57.7215 2195.11L57.0756 2195.19L58.047 2192.45Z" fill="#CF9A64"/>
<path d="M59.684 2183.07C59.9884 2186.94 59.6468 2189.36 59.1102 2192.67" stroke="#ACACAC" stroke-width="0.699998"/>
<path d="M65.5889 2182.34L66.7518 2191.72" stroke="#ACACAC" stroke-width="0.699998"/>
<path d="M71.1455 2181.65C71.6493 2185.4 72.5749 2187.66 74.0451 2190.82" stroke="#ACACAC" stroke-width="0.699998"/>
<path fill-rule="evenodd" clip-rule="evenodd" d="M104.717 2109.22C105.469 2105.38 105.633 2101.41 105.134 2097.38C102.208 2073.79 77.5984 2057.42 50.1667 2060.82C22.7349 2064.22 2.8689 2086.1 5.79469 2109.7C6.2997 2113.77 7.45073 2117.63 9.15079 2121.21C15.8078 2138.62 26.908 2151.32 53.5289 2173.26C61.476 2168.49 65.9414 2168.73 74.7166 2170.63C95.2756 2141.21 102.656 2126.24 104.717 2109.22Z" fill="#F3F1E5"/>
<path d="M66.3806 2171.66C74.7309 2109.36 71.897 2080.01 53.3359 2060.78C55.5314 2060.38 60.1651 2059.75 70.8293 2062.49C94.0367 2086.2 92.452 2113.91 71.5907 2171.02C69.5978 2171.58 68.4474 2171.7 66.3806 2171.66Z" fill="#D56774"/>
<path d="M61.5134 2172.27C38.198 2113.89 33.7788 2084.74 47.0794 2061.55C44.854 2061.71 40.2069 2062.23 30.5335 2067.48C13.8199 2096.14 22.1251 2122.63 56.3033 2172.91C58.3739 2172.97 59.5189 2172.81 61.5134 2172.27Z" fill="#D56774"/>
<path fill-rule="evenodd" clip-rule="evenodd" d="M53.8764 2173.21C57.2928 2171.13 59.2619 2170.23 62.9531 2169.62C68.3499 2169.14 70.552 2169.65 74.3694 2170.67L53.8764 2173.21ZM55.106 2175.5C56.5992 2177.53 58.0465 2179.49 58.9892 2183.16L72.1881 2181.52C72.3917 2177.33 72.9702 2174.94 74.7168 2170.63L53.529 2173.26C54.047 2174.06 54.5794 2174.79 55.106 2175.5Z" fill="#BF4C61"/>
<path d="M73.284 2170.45C101.546 2124.46 107.676 2101.09 84.542 2067.84L94.2591 2075.1C114.094 2099.1 107.307 2123.28 74.3691 2170.67L73.284 2170.45Z" fill="#D56774"/>
<path d="M54.8749 2172.74C16.4297 2135.02 4.99456 2113.47 19.1989 2075.59C16.0734 2078.33 14.231 2080.7 11.4319 2085.37C-3.4462 2112.08 11.9279 2139.36 53.882 2173.21L54.8749 2172.74Z" fill="#D56774"/>
<path d="M75.7167 2190.26L57.0059 2192.58L55.9383 2195.53L56.6444 2195.44L76.7673 2192.95L77.4734 2192.86L75.7167 2190.26Z" fill="#5D4227"/>
<path fill-rule="evenodd" clip-rule="evenodd" d="M61.7878 2194.1L61.1497 2192.77L60.8659 2194.18C59.6223 2194.5 58.7815 2195.71 58.944 2197.02C59.1212 2198.45 60.4231 2199.46 61.8519 2199.29C63.2807 2199.11 64.2954 2197.81 64.1182 2196.38C63.9653 2195.15 62.9747 2194.22 61.7878 2194.1Z" fill="#F2EFDD"/>
<path fill-rule="evenodd" clip-rule="evenodd" d="M67.5368 2193.39L66.8987 2192.05L66.6149 2193.47C65.3714 2193.79 64.5305 2195 64.693 2196.31C64.8702 2197.74 66.1721 2198.75 67.6009 2198.57C69.0297 2198.4 70.0444 2197.09 69.8672 2195.67C69.7143 2194.43 68.7237 2193.51 67.5368 2193.39Z" fill="#F2EFDD"/>
<path fill-rule="evenodd" clip-rule="evenodd" d="M73.2858 2192.68L72.6477 2191.34L72.364 2192.75C71.1204 2193.08 70.2795 2194.28 70.4421 2195.59C70.6192 2197.02 71.9211 2198.04 73.35 2197.86C74.7788 2197.68 75.7934 2196.38 75.6162 2194.95C75.4633 2193.72 74.4727 2192.79 73.2858 2192.68Z" fill="#F2EFDD"/>
<path d="M1606.66 970.776L1621.27 973.053L1622.03 975.429L1621.48 975.343C1621.48 975.343 1622.18 980.339 1620.36 982.509C1619.11 983.995 1618.05 984.431 1616.11 984.394C1613.22 984.339 1611.08 983.883 1608.4 983.191C1606.44 982.684 1605.44 981.928 1604.65 980.06C1603.55 977.45 1605.77 972.895 1605.77 972.895L1605.22 972.809L1606.66 970.776Z" fill="#CF9A64"/>
<path d="M1610.22 963.435C1609.56 966.69 1608.71 968.606 1607.49 971.207" stroke="#ACACAC" stroke-width="0.599999"/>
<path d="M1615.25 964.221L1614.01 972.224" stroke="#ACACAC" stroke-width="0.599999"/>
<path d="M1620 964.96C1619.53 968.169 1619.76 970.243 1620.23 973.194" stroke="#ACACAC" stroke-width="0.599999"/>
<path fill-rule="evenodd" clip-rule="evenodd" d="M1664.71 913.158C1666.23 910.168 1667.3 906.93 1667.84 903.494C1670.97 883.358 1654.54 864.077 1631.13 860.428C1607.72 856.778 1586.2 870.144 1583.06 890.28C1582.52 893.755 1582.56 897.206 1583.12 900.554C1584.51 916.473 1590.67 929.555 1607.45 953.896C1615.12 951.832 1618.75 953.081 1625.53 956.714C1649.4 937.303 1659 926.7 1664.71 913.158Z" fill="#F3F1E5"/>
<path d="M1618.42 955.605C1639.96 906.215 1644.53 881.361 1633.75 861.14C1635.65 861.331 1639.62 861.903 1647.77 866.665C1661.32 891.666 1653.49 914.134 1622.87 956.298C1621.09 956.295 1620.11 956.124 1618.42 955.605Z" fill="#E7AA36"/>
<path d="M1614.27 954.958C1608.78 901.355 1611.99 876.291 1628.41 860.308C1626.54 859.911 1622.59 859.248 1613.38 861.304C1592.86 880.995 1593.48 904.779 1609.82 954.265C1611.51 954.802 1612.49 954.937 1614.27 954.958Z" fill="#E7AA36"/>
<path fill-rule="evenodd" clip-rule="evenodd" d="M1607.75 953.942C1611.06 953.025 1612.89 952.753 1616.08 953.115C1620.64 953.989 1622.33 954.93 1625.24 956.669L1625.53 956.715C1623.08 959.857 1622.04 961.689 1620.89 965.099L1609.62 963.343C1609.71 960.097 1608.98 958.138 1608.22 956.117C1607.96 955.404 1607.69 954.684 1607.45 953.896L1607.75 953.942Z" fill="#D79439"/>
<path d="M1624.39 956.233C1658.51 924.974 1669.06 907.148 1657.81 874.303L1664.11 882.572C1674.82 907.024 1663.53 925.357 1625.24 956.668L1624.39 956.233Z" fill="#E7AA36"/>
<path d="M1608.68 953.785C1585.87 913.652 1581.51 893.199 1602.13 865.32C1598.91 866.847 1596.83 868.366 1593.43 871.554C1574.88 890.069 1581.14 916.173 1607.75 953.943L1608.68 953.785Z" fill="#E7AA36"/>
<path d="M1621.74 973.126L1605.77 970.637L1604.2 972.821L1604.8 972.914L1621.97 975.591L1622.58 975.685L1621.74 973.126Z" fill="#5D4227"/>
<path fill-rule="evenodd" clip-rule="evenodd" d="M1609.36 973.023L1609.14 971.77L1608.58 972.867C1607.48 972.843 1606.5 973.638 1606.33 974.757C1606.14 975.976 1606.97 977.119 1608.19 977.309C1609.41 977.499 1610.55 976.665 1610.74 975.445C1610.9 974.393 1610.31 973.398 1609.36 973.023Z" fill="#F2EFDD"/>
<path fill-rule="evenodd" clip-rule="evenodd" d="M1614.26 973.787L1614.05 972.535L1613.48 973.631C1612.38 973.608 1611.41 974.403 1611.23 975.522C1611.04 976.741 1611.88 977.884 1613.1 978.074C1614.31 978.264 1615.46 977.429 1615.65 976.21C1615.81 975.158 1615.21 974.162 1614.26 973.787Z" fill="#F2EFDD"/>
<path fill-rule="evenodd" clip-rule="evenodd" d="M1619.17 974.553L1618.96 973.3L1618.39 974.397C1617.29 974.374 1616.31 975.168 1616.14 976.287C1615.95 977.507 1616.78 978.649 1618 978.839C1619.22 979.029 1620.36 978.195 1620.55 976.976C1620.72 975.923 1620.12 974.928 1619.17 974.553Z" fill="#F2EFDD"/>
<path d="M718.973 369.512L711.369 358.992C711.369 358.992 716.97 362.37 719.586 365.528C720.493 366.623 721.703 368.489 721.703 368.489C721.472 369.583 726.461 366.524 726.461 366.524L733.629 360.726C733.629 360.726 730.987 365.875 728.026 367.769C725.881 369.141 721.863 369.895 721.863 369.895C721.863 369.895 724.522 371.371 724.602 372.073C724.682 372.776 721.232 373.915 719.062 373.416C716.968 372.935 714.446 370.384 714.757 369.992C715.069 369.601 718.973 369.512 718.973 369.512Z" fill="white" stroke="white"/>
<path d="M1022.54 277.581L1013.63 268.143C1013.63 268.143 1019.62 270.762 1022.63 273.551C1023.67 274.518 1025.11 276.211 1025.11 276.211C1025.03 277.325 1029.57 273.641 1029.57 273.641L1039.95 272.876C1039.95 272.876 1034.32 273.78 1031.63 276.043C1029.68 277.683 1027.26 277.498 1027.26 277.498C1027.26 277.498 1028.37 280.5 1028.54 281.186C1028.71 281.873 1025.35 281.651 1023.14 281.44C1021 281.237 1018.17 279.036 1018.42 278.608C1018.68 278.179 1022.54 277.581 1022.54 277.581Z" fill="white" stroke="white"/>
<path d="M1161.54 789.581L1152.63 780.143C1152.63 780.143 1158.62 782.762 1161.63 785.551C1162.67 786.518 1164.11 788.211 1164.11 788.211C1164.03 789.325 1168.57 785.641 1168.57 785.641L1178.95 784.876C1178.95 784.876 1173.32 785.78 1170.63 788.043C1168.68 789.683 1166.26 789.498 1166.26 789.498C1166.26 789.498 1167.37 792.5 1167.54 793.186C1167.71 793.873 1164.35 793.651 1162.14 793.44C1160 793.237 1157.17 791.036 1157.42 790.608C1157.68 790.179 1161.54 789.581 1161.54 789.581Z" fill="white" stroke="white"/>
<path d="M1420.45 1853L1432.95 1849.5C1432.95 1849.5 1426.46 1848.66 1422.45 1849.5C1421.06 1849.79 1418.95 1850.5 1418.95 1850.5C1418.45 1851.5 1416.45 1846 1416.45 1846L1414.45 1837C1414.45 1837 1413.31 1842.67 1414.45 1846C1415.27 1848.41 1417.95 1851.5 1417.95 1851.5C1417.95 1851.5 1414.95 1851 1414.45 1851.5C1413.95 1852 1415.94 1855.04 1417.95 1856C1419.89 1856.93 1423.45 1856.5 1423.45 1856C1423.45 1855.5 1420.45 1853 1420.45 1853Z" fill="white" stroke="white"/>
<path d="M639.976 1594.51L647.58 1583.99C647.58 1583.99 641.979 1587.37 639.363 1590.53C638.456 1591.62 637.246 1593.49 637.246 1593.49C637.477 1594.58 632.488 1591.52 632.488 1591.52L625.321 1585.73C625.321 1585.73 627.962 1590.88 630.923 1592.77C633.068 1594.14 637.086 1594.89 637.086 1594.89C637.086 1594.89 634.427 1596.37 634.347 1597.07C634.267 1597.78 637.718 1598.91 639.887 1598.42C641.981 1597.94 644.503 1595.38 644.192 1594.99C643.881 1594.6 639.976 1594.51 639.976 1594.51Z" fill="white" stroke="white"/>
<path d="M336.41 1502.58L345.322 1493.14C345.322 1493.14 339.327 1495.76 336.321 1498.55C335.279 1499.52 333.836 1501.21 333.836 1501.21C333.923 1502.33 329.376 1498.64 329.376 1498.64L319 1497.88C319 1497.88 324.631 1498.78 327.319 1501.04C329.267 1502.68 331.693 1502.5 331.693 1502.5C331.693 1502.5 330.581 1505.5 330.409 1506.19C330.238 1506.87 333.596 1506.65 335.812 1506.44C337.95 1506.24 340.784 1504.04 340.526 1503.61C340.269 1503.18 336.41 1502.58 336.41 1502.58Z" fill="white" stroke="white"/>
<path d="M197.41 2014.58L206.322 2005.14C206.322 2005.14 200.327 2007.76 197.321 2010.55C196.279 2011.52 194.836 2013.21 194.836 2013.21C194.923 2014.33 190.376 2010.64 190.376 2010.64L180 2009.88C180 2009.88 185.631 2010.78 188.319 2013.04C190.267 2014.68 192.693 2014.5 192.693 2014.5C192.693 2014.5 191.581 2017.5 191.409 2018.19C191.238 2018.87 194.596 2018.65 196.812 2018.44C198.95 2018.24 201.784 2016.04 201.526 2015.61C201.269 2015.18 197.41 2014.58 197.41 2014.58Z" fill="white" stroke="white"/>
</svg>
