<svg width="744" height="696" viewBox="0 0 744 696" fill="none" xmlns="http://www.w3.org/2000/svg">
<path d="M643.827 240.576L649.728 235.947L643.827 240.576C646.962 244.572 652.798 245.477 657.001 242.342L679.377 225.652C683.667 222.451 684.445 216.36 681.169 212.181C643.808 164.518 603.131 138.888 544.482 121.516C485.002 103.897 421.371 105.203 362.691 125.249C304.01 145.295 253.269 183.061 217.749 233.167C182.228 283.275 163.757 343.148 165.001 404.214C166.245 465.279 187.139 524.377 224.67 573.048C262.2 621.717 314.435 657.461 373.883 675.187C433.33 692.914 496.964 691.723 555.681 671.783C614.105 651.943 647.28 622.205 682.186 573.532C685.264 569.239 684.266 563.192 679.844 560.159L656.805 544.359C652.478 541.391 646.668 542.529 643.698 546.672C614.004 588.091 588.67 611.365 540.354 627.773C490.992 644.536 437.487 645.538 387.508 630.634C337.53 615.732 293.661 585.695 262.167 544.853C230.674 504.012 213.164 454.455 212.121 403.278C211.079 352.1 226.557 301.898 256.359 259.857C286.163 217.814 328.771 186.083 378.1 169.231C427.43 152.379 480.933 151.28 530.94 166.093C580.501 180.774 612.733 200.938 643.827 240.576Z" fill="#FFAC01" stroke="#FFAC01" stroke-width="15"/>
<path d="M246 235.5C461.5 327.5 488.5 326 670 235.5" stroke="#FFAC01" stroke-width="11.5853"/>
<path d="M694 555.949C538.164 471.469 394 468.5 235 579.949" stroke="#FFAC01" stroke-width="11.5853"/>
<path d="M538.207 402.5C538.207 483.221 530.12 556.107 517.142 608.647C510.641 634.961 502.992 655.847 494.718 670.014C486.206 684.589 478.164 690.207 471.5 690.207C464.836 690.207 456.794 684.589 448.282 670.014C440.008 655.847 432.359 634.961 425.858 608.647C412.88 556.107 404.793 483.221 404.793 402.5C404.793 321.779 412.88 248.893 425.858 196.353C432.359 170.039 440.008 149.153 448.282 134.986C456.794 120.411 464.836 114.793 471.5 114.793C478.164 114.793 486.206 120.411 494.718 134.986C502.992 149.153 510.641 170.039 517.142 196.353C530.12 248.893 538.207 321.779 538.207 402.5Z" stroke="#FFAC01" stroke-width="11.5853"/>
<path d="M671.207 401.5C671.207 480.45 649.697 551.666 615.224 602.977C580.726 654.325 533.691 685.207 482.5 685.207C431.309 685.207 384.274 654.325 349.776 602.977C315.303 551.666 293.793 480.45 293.793 401.5C293.793 322.55 315.303 251.334 349.776 200.023C384.274 148.675 431.309 117.793 482.5 117.793C533.691 117.793 580.726 148.675 615.224 200.023C649.697 251.334 671.207 322.55 671.207 401.5Z" stroke="#FFAC01" stroke-width="11.5853"/>
<path d="M738.5 402.5C738.5 562.082 608.244 691.5 447.5 691.5C286.756 691.5 156.5 562.082 156.5 402.5C156.5 242.918 286.756 113.5 447.5 113.5C608.244 113.5 738.5 242.918 738.5 402.5Z" stroke="#FFAC01" stroke-width="9"/>
<path d="M170 403.178L743.159 400" stroke="#FFAC01" stroke-width="11.5853"/>
<path fill-rule="evenodd" clip-rule="evenodd" d="M194.958 180.565C180.315 140.916 147.746 108.601 104.713 96.6095C73.2705 87.8477 41.5709 91.4214 14.5302 104.444C29.3459 145.246 63.261 178.177 107.847 189.313C138.319 196.923 168.803 193.111 194.958 180.565Z" fill="#4EE343"/>
<path fill-rule="evenodd" clip-rule="evenodd" d="M216.667 157.338C195.401 144.365 178.383 119.761 172.191 89.0016C166 58.2425 172.024 28.2274 186.383 6.88847C207.648 19.8615 224.667 44.4658 230.858 75.225C237.05 105.984 231.026 135.999 216.667 157.338Z" fill="#4EE343"/>
</svg>
