<svg width="294" height="294" viewBox="0 0 294 294" fill="none" xmlns="http://www.w3.org/2000/svg">
<circle cx="147.75" cy="147.75" r="119.25" fill="#BFE4FF"/>
<circle cx="147" cy="147" r="132.75" stroke="#33719F" stroke-width="28.5"/>
<line x1="114.495" y1="116.436" x2="138.881" y2="137.835" stroke="#354C5E" stroke-width="1.5" stroke-dasharray="7.5 7.5"/>
<line x1="107.191" y1="153.265" x2="122.097" y2="153.975" stroke="#354C5E" stroke-width="1.5" stroke-dasharray="7.5 7.5"/>
<line x1="82.3246" y1="180.834" x2="89.1542" y2="163.674" stroke="#354C5E" stroke-width="1.5" stroke-dasharray="7.5 7.5"/>
<path d="M62.7217 130.379C63.4999 144.735 67.5729 148.374 78.0689 150.963" stroke="#354C5E" stroke-width="1.5" stroke-dasharray="7.5 7.5"/>
<line x1="141.72" y1="86.7898" x2="155.095" y2="132.602" stroke="#354C5E" stroke-width="1.5" stroke-dasharray="7.5 7.5"/>
<line x1="231.298" y1="146.188" x2="199.205" y2="160.057" stroke="#354C5E" stroke-width="1.5" stroke-dasharray="7.5 7.5"/>
<line x1="189.699" y1="91.773" x2="170.317" y2="141.366" stroke="#354C5E" stroke-width="1.5" stroke-dasharray="7.5 7.5"/>
<line x1="228.958" y1="112.044" x2="187.789" y2="140.292" stroke="#354C5E" stroke-width="1.5" stroke-dasharray="7.5 7.5"/>
<path d="M87.0032 142.523L87.118 143.901C87.2 144.885 86.326 145.678 85.3548 145.502L84.2127 145.294C83.7003 145.201 83.1792 145.405 82.8666 145.822C82.5312 146.269 82.4999 146.875 82.7876 147.354L83.6079 148.722C84.0574 149.471 83.774 150.444 82.9925 150.835L82.4312 151.116C81.9231 151.37 81.6021 151.889 81.6021 152.457V152.609C81.6021 153.24 81.9967 153.803 82.5894 154.019L83.7112 154.427C84.6249 154.759 84.986 155.859 84.4466 156.668L83.8819 157.515C83.5881 157.956 83.6462 158.543 84.0208 158.918C84.2835 159.18 84.6601 159.294 85.0245 159.221L86.4521 158.936C87.2903 158.768 88.0989 159.334 88.2289 160.179L88.5546 162.296C88.6383 162.84 89.1067 163.242 89.6575 163.242C89.9535 163.242 90.2373 163.125 90.4466 162.915L91.5529 161.809C92.2575 161.104 93.4408 161.27 93.9248 162.141L94.3096 162.834C94.5713 163.305 95.0676 163.597 95.6064 163.597C96.3315 163.597 96.9503 163.073 97.0695 162.357L97.2762 161.118C97.4304 160.192 98.3867 159.634 99.2684 159.955L100.592 160.436C101.132 160.632 101.736 160.498 102.143 160.092C102.593 159.642 102.704 158.954 102.42 158.385L102.016 157.578C101.569 156.684 102.106 155.61 103.09 155.431L103.794 155.303C104.507 155.174 105.026 154.552 105.026 153.827V153.7C105.026 153.228 104.803 152.783 104.426 152.5L103.667 151.931C102.904 151.359 102.862 150.23 103.579 149.602L104.226 149.036C104.705 148.617 104.867 147.938 104.63 147.347C104.436 146.861 104 146.509 103.483 146.423L101.789 146.14C100.879 145.989 100.321 145.061 100.612 144.186L100.911 143.289C101.04 142.902 100.94 142.475 100.651 142.187C100.302 141.838 99.76 141.771 99.3364 142.025L98.206 142.704C97.3536 143.215 96.2486 142.771 95.9871 141.812L95.7448 140.924C95.5668 140.271 94.9741 139.818 94.2976 139.818H94.1965C93.6518 139.818 93.1498 140.114 92.8853 140.59L92.4411 141.389C91.9771 142.225 90.8611 142.419 90.1421 141.79L89.5226 141.248C89.0324 140.819 88.3215 140.755 87.7631 141.09L87.7262 141.113C87.2361 141.407 86.9557 141.954 87.0032 142.523Z" fill="#FF9567"/>
<circle cx="93.3137" cy="151.53" r="6.03338" fill="#F7F4ED"/>
<circle cx="93.314" cy="151.53" r="4.61376" fill="#FFC17E"/>
<path d="M233.161 102.749L233.186 103.039C233.238 103.665 232.681 104.17 232.063 104.057L231.87 104.022C231.632 103.979 231.391 104.073 231.247 104.266C231.092 104.473 231.077 104.754 231.21 104.975L231.495 105.45C231.754 105.882 231.59 106.443 231.14 106.668L231.075 106.701C230.822 106.827 230.662 107.086 230.662 107.369C230.662 107.684 230.858 107.964 231.154 108.072L231.452 108.18C231.969 108.368 232.174 108.991 231.869 109.449L231.716 109.677C231.581 109.881 231.607 110.152 231.781 110.325C231.902 110.447 232.077 110.5 232.245 110.466L232.531 110.409C233.123 110.291 233.694 110.69 233.786 111.286L233.878 111.889C233.917 112.14 234.134 112.326 234.389 112.326C234.526 112.326 234.657 112.272 234.754 112.175L235.088 111.841C235.503 111.426 236.2 111.523 236.485 112.036L236.541 112.138C236.662 112.355 236.892 112.491 237.141 112.491C237.477 112.491 237.763 112.248 237.818 111.917L237.858 111.676C237.959 111.075 238.58 110.712 239.153 110.921L239.448 111.028C239.698 111.119 239.978 111.057 240.165 110.869C240.374 110.661 240.425 110.342 240.294 110.079L240.198 109.888C239.946 109.383 240.249 108.777 240.804 108.676L240.893 108.66C241.244 108.596 241.499 108.29 241.499 107.933C241.499 107.701 241.39 107.482 241.204 107.343L241.073 107.244C240.616 106.902 240.59 106.225 241.02 105.849L241.129 105.754C241.351 105.56 241.426 105.246 241.316 104.972C241.226 104.746 241.025 104.584 240.785 104.544L240.206 104.448C239.678 104.36 239.354 103.821 239.523 103.313L239.596 103.094C239.655 102.915 239.609 102.718 239.475 102.585C239.314 102.423 239.063 102.392 238.867 102.51L238.575 102.685C238.065 102.991 237.403 102.725 237.246 102.151L237.212 102.025C237.126 101.708 236.838 101.489 236.509 101.489C236.245 101.489 236.001 101.632 235.872 101.863L235.793 102.006C235.519 102.5 234.858 102.615 234.433 102.243L234.334 102.157C234.103 101.954 233.767 101.924 233.503 102.083C233.271 102.222 233.139 102.48 233.161 102.749Z" fill="#03B3A3"/>
<circle cx="236.081" cy="106.908" r="2.79156" fill="#F7F4ED"/>
<circle cx="236.081" cy="106.907" r="2.13473" fill="#7BCEC7"/>
<circle cx="79.5" cy="189" r="7.5" fill="#64C6A7"/>
<circle cx="79.5" cy="189" r="4.5" fill="#FEF7F1"/>
<circle cx="62.25" cy="113.25" r="8.25" stroke="#8CD4DD" stroke-width="3"/>
<circle cx="62.25" cy="113.25" r="2.25" fill="#D6D6D6"/>
<line x1="62.25" y1="105" x2="62.25" y2="121.5" stroke="#8CD4DD" stroke-width="1.5"/>
<line x1="53.9191" y1="117.471" x2="68.8186" y2="109.212" stroke="#8CD4DD" stroke-width="1.5"/>
<line x1="54.6064" y1="108.765" x2="69.3596" y2="117.283" stroke="#8CD4DD" stroke-width="1.5"/>
<path d="M62.25 124.5L65.4976 130.125H59.0024L62.25 124.5Z" fill="#B71839"/>
<path d="M194.391 68.4419L186.578 79.2403C186.082 79.9259 186.251 80.8858 186.951 81.3609L198.917 89.479C199.598 89.9411 200.524 89.7681 200.992 89.0912L208.765 77.8571C209.248 77.1599 209.057 76.2017 208.344 75.7426L196.418 68.0602C195.749 67.6286 194.858 67.7963 194.391 68.4419Z" fill="#5BB4BF"/>
<path d="M207.332 85.4252L207.119 85.6838C206.348 86.6187 205.007 86.8446 203.973 86.2139C202.651 85.4084 202.407 83.5908 203.469 82.4649L203.698 82.2211C204.525 81.3445 205.87 81.2081 206.855 81.9009C208.01 82.7126 208.23 84.3359 207.332 85.4252Z" fill="#5BB4BF"/>
<path d="M204.216 68.1981L204.497 68.3806C205.513 69.0405 205.889 70.3472 205.38 71.4465C204.729 72.8504 202.951 73.299 201.712 72.3717L201.444 72.171C200.479 71.449 200.191 70.1283 200.768 69.0705C201.444 67.8311 203.032 67.4293 204.216 68.1981Z" fill="#5BB4BF"/>
<path d="M187.658 71.1298L187.882 70.8808C188.693 69.9804 190.042 69.8131 191.048 70.4884C192.333 71.3507 192.498 73.1772 191.388 74.2558L191.148 74.4893C190.284 75.329 188.935 75.4066 187.98 74.6716C186.862 73.8102 186.713 72.1789 187.658 71.1298Z" fill="#5BB4BF"/>
<path d="M190.888 88.466L190.613 88.2738C189.621 87.5789 189.29 86.2598 189.838 85.179C190.537 83.7987 192.33 83.4124 193.536 84.3824L193.797 84.5924C194.736 85.3475 194.977 86.6775 194.364 87.7145C193.645 88.9296 192.044 89.2757 190.888 88.466Z" fill="#5BB4BF"/>
<path d="M102.085 96.9788L94.12 105.495C93.5182 106.138 93.5979 107.159 94.2923 107.701L104.395 115.592C105.017 116.077 105.909 115.998 106.436 115.411L114.403 106.521C114.992 105.864 114.889 104.843 114.181 104.317L104.075 96.7998C103.463 96.3443 102.606 96.4213 102.085 96.9788Z" fill="#03B3A3"/>
<path d="M111.209 113.048L110.995 113.234C110.19 113.93 109.022 114.01 108.13 113.431C106.74 112.529 106.667 110.521 107.988 109.521L108.214 109.35C109.057 108.711 110.22 108.706 111.07 109.336C112.293 110.243 112.361 112.051 111.209 113.048Z" fill="#03B3A3"/>
<path d="M110.096 97.925L110.344 98.1223C111.241 98.836 111.477 100.101 110.897 101.09C110.157 102.353 108.442 102.614 107.359 101.628L107.125 101.415C106.282 100.648 106.131 99.3778 106.77 98.4339C107.519 97.3279 109.051 97.0935 110.096 97.925Z" fill="#03B3A3"/>
<path d="M96.8606 99.6943L97.0928 99.4898C97.9412 98.7422 99.2029 98.7083 100.09 99.4092C101.286 100.354 101.275 102.171 100.067 103.1L99.8219 103.289C98.9309 103.975 97.6774 103.926 96.8419 103.174C95.8065 102.242 95.8153 100.615 96.8606 99.6943Z" fill="#03B3A3"/>
<path d="M101.061 110.194L101.289 110.414C102.114 111.211 102.227 112.492 101.556 113.421C100.698 114.608 98.9654 114.703 97.9823 113.618L97.7694 113.384C97.0039 112.539 96.9751 111.26 97.7017 110.382C98.5531 109.353 100.1 109.266 101.061 110.194Z" fill="#DEF0E4"/>
<path d="M127.911 81.6975C125.562 84.2868 124.001 86.1865 121.035 88.5731C122.393 85.8585 122.929 84.3442 122.285 81.6975H127.911Z" fill="#FECF8E"/>
<path d="M115.633 60.8007C115.829 69.5183 117.156 74.9793 121.199 82.1117C122.072 83.6527 123.818 84.4712 125.57 84.2152C135.527 82.7607 142.553 80.8927 150.823 77.4533C152.674 76.6838 153.748 74.745 153.445 72.7642C151.059 57.2102 148.507 52.8681 145.626 51.5563C142.771 50.2564 130.364 52.218 118.402 56.6996C116.7 57.3373 115.593 58.9835 115.633 60.8007Z" fill="#FECF8E"/>
<circle cx="126.764" cy="75.9678" r="3.43777" fill="white"/>
<circle cx="135.932" cy="73.6761" r="3.43777" fill="white"/>
<circle cx="145.099" cy="71.3843" r="3.43777" fill="white"/>
<path d="M244.777 148.129C245.954 149.426 246.735 150.378 248.221 151.573C247.541 150.213 247.272 149.455 247.595 148.129H244.777Z" fill="#FFDAA9"/>
<path d="M250.866 139.157C250.681 142.2 250.116 144.474 248.824 147.055C248.032 148.639 246.263 149.455 244.515 149.168C240.867 148.569 237.973 147.812 234.867 146.628C232.995 145.915 231.916 143.959 232.258 141.985C233.375 135.543 234.568 133.638 235.903 133.03C237.221 132.43 242.603 133.218 248.129 135.102C249.849 135.689 250.977 137.343 250.866 139.157Z" fill="#FFDAA9"/>
<circle cx="1.7221" cy="1.7221" r="1.7221" transform="matrix(-1 0 0 1 247.073 143.537)" fill="white"/>
<circle cx="1.7221" cy="1.7221" r="1.7221" transform="matrix(-1 0 0 1 242.481 142.388)" fill="white"/>
<circle cx="1.7221" cy="1.7221" r="1.7221" transform="matrix(-1 0 0 1 237.889 141.24)" fill="white"/>
<path fill-rule="evenodd" clip-rule="evenodd" d="M202.868 207.835C207.878 200.004 210.787 190.663 210.787 180.632C210.787 152.995 188.7 130.591 161.455 130.591C134.21 130.591 112.123 152.995 112.123 180.632C112.123 181.229 112.134 181.823 112.154 182.415L112.123 182.407L100.086 207.115C99.3095 208.709 100.077 210.624 101.738 211.241L108.357 213.7C110.004 214.311 111.143 215.829 111.282 217.581C112.042 227.159 112.723 233.373 113.949 241.405C114.331 243.91 116.277 245.861 118.747 246.427C121.79 247.124 124.56 247.958 127.567 249.169C134.364 251.906 142.224 257.133 141.177 264.385C141.127 264.73 141.068 265.101 141 265.5C161.277 265.784 172.604 263.574 192.75 256.5C185.964 237.609 188.657 232.989 195.688 220.926C197.751 217.386 200.188 213.206 202.868 207.835Z" fill="#3F7CA9"/>
</svg>
