<svg width="294" height="294" viewBox="0 0 294 294" fill="none" xmlns="http://www.w3.org/2000/svg">
<circle cx="147" cy="148" r="138" fill="#BFE4FF"/>
<line x1="108.516" y1="111.763" x2="136.737" y2="136.526" stroke="#354C5E" stroke-width="1.73585" stroke-dasharray="8.68 8.68"/>
<line x1="100.064" y1="154.383" x2="117.314" y2="155.204" stroke="#354C5E" stroke-width="1.73585" stroke-dasharray="8.68 8.68"/>
<line x1="71.2878" y1="186.285" x2="79.1912" y2="166.428" stroke="#354C5E" stroke-width="1.73585" stroke-dasharray="8.68 8.68"/>
<path d="M48.6025 127.897C49.5032 144.511 54.2166 148.722 66.3629 151.718" stroke="#354C5E" stroke-width="1.73585" stroke-dasharray="8.68 8.68"/>
<line x1="140.022" y1="77.455" x2="155.5" y2="130.471" stroke="#354C5E" stroke-width="1.73585" stroke-dasharray="8.68 8.68"/>
<line x1="243.684" y1="146.193" x2="206.546" y2="162.241" stroke="#354C5E" stroke-width="1.73585" stroke-dasharray="8.68 8.68"/>
<line x1="195.544" y1="83.2217" x2="173.116" y2="140.612" stroke="#354C5E" stroke-width="1.73585" stroke-dasharray="8.68 8.68"/>
<line x1="240.976" y1="106.68" x2="193.334" y2="139.369" stroke="#354C5E" stroke-width="1.73585" stroke-dasharray="8.68 8.68"/>
<path d="M76.702 141.951L76.8349 143.546C76.9297 144.684 75.9183 145.602 74.7945 145.398L73.4728 145.157C72.8798 145.05 72.2767 145.286 71.9151 145.768C71.5269 146.286 71.4907 146.987 71.8236 147.542L72.7729 149.124C73.2931 149.991 72.9651 151.117 72.0607 151.57L71.4112 151.894C70.8231 152.188 70.4517 152.789 70.4517 153.447V153.623C70.4517 154.352 70.9083 155.004 71.5943 155.254L72.8924 155.726C73.9498 156.11 74.3676 157.384 73.7435 158.32L73.09 159.3C72.75 159.81 72.8172 160.49 73.2507 160.923C73.5547 161.227 73.9906 161.359 74.4122 161.275L76.0643 160.944C77.0343 160.75 77.97 161.405 78.1204 162.383L78.4973 164.832C78.5943 165.462 79.1363 165.927 79.7737 165.927C80.1162 165.927 80.4447 165.791 80.6869 165.549L81.9671 164.269C82.7825 163.454 84.1518 163.645 84.7119 164.654L85.1573 165.455C85.4601 166 86.0345 166.338 86.6579 166.338C87.497 166.338 88.2132 165.732 88.3511 164.904L88.5902 163.469C88.7687 162.398 89.8754 161.752 90.8957 162.123L92.427 162.68C93.0519 162.907 93.7518 162.752 94.2219 162.282C94.7428 161.761 94.8719 160.965 94.5425 160.306L94.0756 159.373C93.5581 158.338 94.1791 157.096 95.3177 156.889L96.133 156.74C96.9584 156.59 97.5584 155.871 97.5584 155.033V154.885C97.5584 154.339 97.3011 153.824 96.864 153.496L95.9859 152.838C95.1033 152.176 95.054 150.869 95.8843 150.143L96.6331 149.487C97.1875 149.002 97.3742 148.217 97.1006 147.533C96.8754 146.97 96.3717 146.563 95.7734 146.464L93.8122 146.137C92.7601 145.961 92.1135 144.888 92.4508 143.876L92.7971 142.837C92.9463 142.389 92.8298 141.896 92.4962 141.562C92.092 141.158 91.4646 141.081 90.9744 141.375L89.6662 142.16C88.6799 142.751 87.4011 142.238 87.0985 141.128L86.8181 140.1C86.6121 139.345 85.9262 138.821 85.1434 138.821H85.0264C84.396 138.821 83.8151 139.163 83.509 139.714L82.9949 140.639C82.458 141.605 81.1665 141.83 80.3345 141.102L79.6175 140.475C79.0503 139.979 78.2277 139.905 77.5814 140.293L77.5388 140.318C76.9716 140.659 76.6471 141.292 76.702 141.951Z" fill="#FF9567"/>
<circle cx="84.0045" cy="152.375" r="6.98203" fill="#F7F4ED"/>
<circle cx="84.0047" cy="152.374" r="5.3392" fill="#FFC17E"/>
<path d="M245.841 95.9242L245.869 96.2591C245.929 96.9836 245.286 97.568 244.57 97.4379L244.346 97.3972C244.072 97.3473 243.793 97.4567 243.625 97.6798C243.446 97.9193 243.429 98.2437 243.583 98.5004L243.912 99.0492C244.212 99.5492 244.023 100.199 243.502 100.46L243.426 100.497C243.133 100.644 242.948 100.943 242.948 101.271C242.948 101.634 243.176 101.959 243.517 102.083L243.863 102.209C244.462 102.427 244.698 103.147 244.345 103.677L244.169 103.941C244.012 104.177 244.043 104.491 244.243 104.692C244.384 104.832 244.586 104.893 244.781 104.854L245.112 104.788C245.797 104.651 246.457 105.113 246.564 105.804L246.671 106.501C246.716 106.792 246.967 107.007 247.261 107.007C247.42 107.007 247.572 106.944 247.684 106.832L248.071 106.445C248.551 105.965 249.357 106.078 249.687 106.672L249.752 106.789C249.892 107.041 250.158 107.197 250.447 107.197C250.835 107.197 251.166 106.917 251.23 106.534L251.277 106.255C251.392 105.559 252.111 105.139 252.774 105.38L253.116 105.505C253.405 105.61 253.729 105.538 253.946 105.32C254.187 105.079 254.247 104.711 254.095 104.406L253.984 104.185C253.692 103.601 254.043 102.9 254.685 102.783L254.789 102.764C255.195 102.69 255.49 102.336 255.49 101.924C255.49 101.655 255.364 101.401 255.148 101.24L254.997 101.126C254.468 100.73 254.438 99.9465 254.936 99.5112L255.061 99.4015C255.318 99.1765 255.405 98.8138 255.278 98.4966C255.174 98.2354 254.941 98.0476 254.663 98.0014L253.993 97.8898C253.382 97.7879 253.007 97.1643 253.203 96.5766L253.287 96.3235C253.356 96.1164 253.302 95.8881 253.148 95.7337C252.961 95.5467 252.671 95.5109 252.444 95.647L252.106 95.8495C251.516 96.204 250.75 95.8962 250.568 95.2315L250.529 95.0867C250.429 94.7198 250.096 94.4653 249.715 94.4653C249.409 94.4653 249.127 94.6314 248.978 94.899L248.887 95.064C248.569 95.636 247.804 95.7691 247.312 95.3382L247.199 95.2389C246.931 95.0044 246.542 94.9696 246.236 95.1528C245.968 95.3136 245.815 95.6128 245.841 95.9242Z" fill="#03B3A3"/>
<circle cx="249.219" cy="100.736" r="3.23049" fill="#F7F4ED"/>
<circle cx="249.219" cy="100.736" r="2.47037" fill="#7BCEC7"/>
<circle cx="68.0191" cy="195.736" r="8.67924" fill="#64C6A7"/>
<circle cx="68.0186" cy="195.736" r="5.20755" fill="#FEF7F1"/>
<circle cx="48.0565" cy="108.076" r="9.54717" stroke="#8CD4DD" stroke-width="3.4717"/>
<circle cx="48.0564" cy="108.075" r="2.60377" fill="#D6D6D6"/>
<line x1="48.0569" y1="98.5283" x2="48.0569" y2="117.623" stroke="#8CD4DD" stroke-width="1.73585"/>
<line x1="38.4156" y1="112.96" x2="55.6579" y2="103.403" stroke="#8CD4DD" stroke-width="1.73585"/>
<line x1="39.2113" y1="102.885" x2="56.2841" y2="112.742" stroke="#8CD4DD" stroke-width="1.73585"/>
<path d="M48.0564 121.094L51.8146 127.604H44.2982L48.0564 121.094Z" fill="#B71839"/>
<path d="M200.974 56.2223L191.933 68.7185C191.359 69.5119 191.555 70.6227 192.365 71.1725L206.212 80.5671C207 81.1019 208.072 80.9016 208.614 80.1184L217.609 67.1179C218.167 66.311 217.947 65.2022 217.122 64.6709L203.321 55.7806C202.545 55.2811 201.515 55.4751 200.974 56.2223Z" fill="#5BB4BF"/>
<path d="M215.95 75.8762L215.703 76.1755C214.812 77.2574 213.26 77.5189 212.063 76.789C210.534 75.8568 210.251 73.7534 211.479 72.4505L211.745 72.1684C212.702 71.1539 214.258 70.9961 215.399 71.7978C216.735 72.7372 216.989 74.6156 215.95 75.8762Z" fill="#5BB4BF"/>
<path d="M212.344 55.9402L212.669 56.1514C213.845 56.9151 214.281 58.4272 213.691 59.6993C212.938 61.324 210.88 61.8431 209.447 60.77L209.136 60.5377C208.02 59.7023 207.687 58.1738 208.354 56.9498C209.136 55.5154 210.974 55.0504 212.344 55.9402Z" fill="#5BB4BF"/>
<path d="M193.183 59.3332L193.442 59.045C194.38 58.003 195.942 57.8095 197.106 58.5909C198.593 59.5889 198.784 61.7026 197.5 62.9507L197.222 63.221C196.222 64.1927 194.66 64.2825 193.556 63.4318C192.261 62.435 192.09 60.5473 193.183 59.3332Z" fill="#5BB4BF"/>
<path d="M196.92 79.3949L196.603 79.1725C195.454 78.3683 195.072 76.8419 195.706 75.5911C196.515 73.9937 198.59 73.5468 199.985 74.6692L200.287 74.9122C201.373 75.7861 201.653 77.3252 200.943 78.5253C200.111 79.9314 198.259 80.332 196.92 79.3949Z" fill="#5BB4BF"/>
<path d="M94.1546 89.2455L84.9377 99.1003C84.2413 99.8449 84.3335 101.026 85.1371 101.654L96.8286 110.785C97.5482 111.347 98.5802 111.255 99.1897 110.576L108.41 100.288C109.091 99.5281 108.973 98.3465 108.153 97.7371L96.4583 89.0384C95.7496 88.5112 94.7579 88.6003 94.1546 89.2455Z" fill="#03B3A3"/>
<path d="M104.713 107.842L104.465 108.056C103.534 108.862 102.183 108.955 101.15 108.285C99.5415 107.241 99.4574 104.917 100.986 103.76L101.247 103.562C102.223 102.823 103.569 102.816 104.552 103.546C105.968 104.596 106.047 106.688 104.713 107.842Z" fill="#03B3A3"/>
<path d="M103.425 90.3402L103.713 90.5686C104.751 91.3944 105.024 92.858 104.353 94.0026C103.496 95.4643 101.511 95.7666 100.259 94.626L99.9873 94.3791C99.0119 93.4911 98.8368 92.0214 99.5764 90.9292C100.443 89.6493 102.216 89.378 103.425 90.3402Z" fill="#03B3A3"/>
<path d="M88.1092 92.3879L88.3778 92.1512C89.3597 91.2861 90.8197 91.2469 91.8466 92.058C93.2305 93.1509 93.2172 95.2539 91.8197 96.3294L91.536 96.5477C90.5049 97.3412 89.0543 97.2852 88.0875 96.4147C86.8893 95.3359 86.8995 93.4537 88.1092 92.3879Z" fill="#03B3A3"/>
<path d="M92.9705 104.539L93.2344 104.793C94.1887 105.715 94.3201 107.198 93.5428 108.273C92.55 109.646 90.5452 109.757 89.4074 108.501L89.1611 108.229C88.2753 107.252 88.2419 105.772 89.0827 104.756C90.068 103.565 91.8586 103.465 92.9705 104.539Z" fill="#DEF0E4"/>
<path d="M124.042 71.5615C121.324 74.5579 119.517 76.7563 116.085 79.5181C117.657 76.3767 118.277 74.6244 117.532 71.5615H124.042Z" fill="#FECF8E"/>
<path d="M109.834 47.3798C110.06 57.4681 111.596 63.7877 116.274 72.0416C117.285 73.8249 119.305 74.7721 121.333 74.4758C132.855 72.7926 140.987 70.631 150.557 66.6507C152.698 65.7602 153.942 63.5166 153.59 61.2244C150.83 43.2248 147.877 38.2 144.542 36.6819C141.238 35.1776 126.881 37.4476 113.038 42.6339C111.068 43.3718 109.787 45.2768 109.834 47.3798Z" fill="#FECF8E"/>
<circle cx="122.715" cy="64.9314" r="3.9783" fill="white"/>
<circle cx="133.324" cy="62.2791" r="3.9783" fill="white"/>
<circle cx="143.932" cy="59.6272" r="3.9783" fill="white"/>
<path d="M259.283 148.438C260.644 149.939 261.549 151.041 263.269 152.424C262.481 150.851 262.171 149.973 262.544 148.438H259.283Z" fill="#FFDAA9"/>
<path d="M266.33 138.056C266.115 141.577 265.461 144.209 263.966 147.196C263.049 149.029 261.002 149.974 258.98 149.641C254.758 148.948 251.409 148.072 247.815 146.702C245.648 145.877 244.399 143.613 244.795 141.328C246.088 133.874 247.469 131.669 249.013 130.966C250.538 130.272 256.767 131.183 263.162 133.364C265.153 134.043 266.457 135.957 266.33 138.056Z" fill="#FFDAA9"/>
<circle cx="1.99287" cy="1.99287" r="1.99287" transform="matrix(-1 0 0 1 261.94 143.124)" fill="white"/>
<circle cx="1.99287" cy="1.99287" r="1.99287" transform="matrix(-1 0 0 1 256.626 141.796)" fill="white"/>
<circle cx="1.99287" cy="1.99287" r="1.99287" transform="matrix(-1 0 0 1 251.311 140.466)" fill="white"/>
<path fill-rule="evenodd" clip-rule="evenodd" d="M210.784 217.534C216.581 208.472 219.949 197.661 219.949 186.052C219.949 154.07 194.389 128.143 162.86 128.143C131.331 128.143 105.772 154.07 105.772 186.052C105.772 186.743 105.784 187.431 105.807 188.116L105.772 188.106L91.8415 216.699C90.9432 218.543 91.8309 220.76 93.7538 221.474L101.413 224.319C103.319 225.027 104.637 226.784 104.798 228.81C105.678 239.895 106.465 247.086 107.884 256.381C108.327 259.28 110.579 261.537 113.437 262.192C116.959 262.999 120.164 263.964 123.644 265.365C131.51 268.532 140.605 274.582 139.394 282.974C139.336 283.373 139.268 283.802 139.189 284.264C162.654 284.593 175.762 282.035 199.076 273.849C191.223 251.988 194.339 246.641 202.475 232.682C204.863 228.586 207.682 223.748 210.784 217.534Z" fill="#3F7CA9"/>
<path d="M289 147C289 225.424 225.424 289 147 289C68.5756 289 5 225.424 5 147C5 68.5756 68.5756 5 147 5C225.424 5 289 68.5756 289 147Z" stroke="#33719F" stroke-width="10"/>
</svg>
