<svg width="403" height="140" viewBox="0 0 403 140" fill="none" xmlns="http://www.w3.org/2000/svg">
<g clip-path="url(#clip0_1307_1652)">
<path d="M403 19.0943C403 19.0943 254.985 -20.3346 196.525 16.9037C138.065 54.142 0 33.9028 0 33.9028V131.903C0 131.903 82.093 160.162 159.832 111.095C237.571 62.0279 381.233 104.96 381.233 104.96C381.233 104.96 369.417 70.7898 322.151 59.8374C274.886 48.8849 278.617 44.0647 278.617 44.0647C278.617 44.0647 282.971 30.0465 312.201 23.9133C341.431 17.78 403 19.0943 403 19.0943Z" fill="#F3F1E5"/>
<path d="M46.1726 101.125C42.7843 101.617 39.704 101.338 36.9317 100.286C34.1549 99.2018 31.8652 97.4652 30.0626 95.0757C28.2917 92.6816 27.1554 89.7587 26.6535 86.307C26.2759 83.7103 26.3288 81.2936 26.8119 79.0568C27.3268 76.8154 28.2179 74.8264 29.4852 73.09C30.7843 71.349 32.4212 69.9307 34.3961 68.8352C36.3664 67.7079 38.6183 66.9601 41.1516 66.5918C44.54 66.0991 47.6045 66.3811 50.345 67.4378C53.1173 68.4899 55.4047 70.2107 57.2072 72.6002C59.0052 74.958 60.1574 77.8786 60.6639 81.362C61.0414 83.9587 60.9728 86.3777 60.4579 88.6191C59.9747 90.8559 59.0859 92.8607 57.7915 94.6334C56.5242 96.3698 54.9054 97.8016 52.935 98.9288C50.9601 100.024 48.706 100.756 46.1726 101.125ZM45.109 93.8096C46.7874 93.5656 48.1548 92.9626 49.2114 92.0005C50.268 91.0385 51.0047 89.7672 51.4217 88.1868C51.8386 86.6064 51.8952 84.7711 51.5913 82.6811C51.1354 79.5461 50.0842 77.209 48.4377 75.6699C46.7911 74.1308 44.7169 73.5431 42.2152 73.9069C40.5686 74.1463 39.2011 74.7493 38.1128 75.716C37.0517 76.6463 36.3126 77.9017 35.8957 79.4822C35.4741 81.0309 35.4176 82.8662 35.7261 84.9879C36.1819 88.1229 37.2354 90.4758 38.8866 92.0466C40.5332 93.5857 42.6073 94.1733 45.109 93.8096ZM72.077 97.2613C70.6837 97.4638 69.5541 97.2562 68.6881 96.6384C67.8539 96.0159 67.3355 95.008 67.1329 93.6147L64.8469 77.892C64.6489 76.5303 64.8453 75.4347 65.4361 74.605C66.0585 73.7708 67.0347 73.257 68.3648 73.0636C69.6948 72.8702 70.7611 73.0871 71.5636 73.7141C72.3662 74.3412 72.8665 75.3355 73.0645 76.6972L73.3476 78.6447L72.8726 78.7138C72.913 76.7677 73.5018 75.1461 74.639 73.849C75.8079 72.5473 77.3694 71.722 79.3236 71.3732C80.2373 71.208 80.9527 71.3465 81.4697 71.7888C82.0138 72.1947 82.3983 73.0604 82.6234 74.3858C82.7891 75.5258 82.6828 76.4628 82.3045 77.1969C81.9262 77.931 81.0812 78.458 79.7696 78.7781L78.6909 79.0319C77.0356 79.4343 75.8855 80.0866 75.2406 80.9888C74.5911 81.8593 74.3768 83.0545 74.5978 84.5745L75.7305 92.3646C75.9331 93.758 75.7232 94.8718 75.1007 95.706C74.4783 96.5403 73.4704 97.0587 72.077 97.2613ZM96.2549 93.8429C94.4499 94.1053 92.8023 94.0053 91.3123 93.5429C89.8539 93.0759 88.646 92.3299 87.6886 91.305C86.7582 90.2439 86.1848 88.9691 85.9684 87.4807C85.7198 85.7707 85.9675 84.3604 86.7114 83.2498C87.4554 82.1392 88.7791 81.2353 90.6826 80.5382C92.5815 79.8094 95.1618 79.2079 98.4235 78.7336L101.036 78.3538L101.616 82.3438L99.0036 82.7237C97.7686 82.9033 96.7532 83.1479 95.9575 83.4576C95.1889 83.731 94.6422 84.0854 94.3174 84.5207C93.9881 84.9242 93.8648 85.411 93.9477 85.981C94.0536 86.7094 94.3944 87.2742 94.9701 87.6756C95.5775 88.0723 96.3721 88.1993 97.3538 88.0566C98.1454 87.9415 98.8168 87.666 99.3678 87.2302C99.9505 86.7898 100.388 86.2411 100.681 85.5842C100.969 84.8956 101.053 84.1396 100.933 83.3162L100.132 77.8062C99.9661 76.6662 99.5478 75.9024 98.8771 75.5149C98.238 75.1228 97.206 75.0303 95.7809 75.2375C95.0209 75.348 94.1797 75.5673 93.2573 75.8954C92.3304 76.1919 91.3133 76.647 90.206 77.2607C89.3971 77.7017 88.6756 77.8551 88.0417 77.7209C87.4078 77.5867 86.8776 77.2757 86.451 76.788C86.056 76.2958 85.8125 75.7329 85.7204 75.0996C85.66 74.4616 85.7783 73.83 86.0755 73.2048C86.4043 72.5749 86.9573 72.0418 87.7346 71.6054C89.1718 70.8144 90.5099 70.2318 91.7489 69.8576C93.0196 69.4789 94.1933 69.2112 95.27 69.0547C97.8667 68.6771 100.059 68.7463 101.848 69.2623C103.664 69.742 105.097 70.6979 106.146 72.1298C107.222 73.5255 107.935 75.4267 108.285 77.8334L109.68 87.4285C109.882 88.8219 109.704 89.9311 109.145 90.7561C108.586 91.5811 107.673 92.0857 106.406 92.2699C105.108 92.4587 104.057 92.2395 103.255 91.6125C102.484 90.9808 101.997 89.9683 101.795 88.575L101.615 87.34L101.997 87.9636C101.986 88.9999 101.748 89.9237 101.284 90.7349C100.82 91.5461 100.159 92.2244 99.3001 92.7696C98.4417 93.3147 97.4266 93.6725 96.2549 93.8429ZM119.296 90.3958C117.966 90.5892 116.884 90.3746 116.05 89.7522C115.215 89.1297 114.697 88.1218 114.494 86.7285L112.208 71.0058C112.01 69.6441 112.207 68.5485 112.797 67.7188C113.42 66.8846 114.396 66.3708 115.726 66.1774C117.056 65.984 118.122 66.2009 118.925 66.8279C119.728 67.455 120.228 68.4493 120.426 69.811L120.75 72.0435L119.945 70.172C120.488 68.5731 121.399 67.2766 122.678 66.2823C123.987 65.2834 125.545 64.6528 127.35 64.3903C129.218 64.1187 130.807 64.2595 132.116 64.8129C133.421 65.3346 134.485 66.3118 135.307 67.7443C136.125 69.1452 136.7 70.9856 137.032 73.2656L138.482 83.2407C138.685 84.6341 138.475 85.7479 137.852 86.5821C137.23 87.4164 136.238 87.9325 134.876 88.1305C133.514 88.3285 132.416 88.1162 131.582 87.4938C130.748 86.8713 130.23 85.8634 130.027 84.4701L128.625 74.8275C128.418 73.4025 128.017 72.426 127.423 71.898C126.86 71.3653 126.104 71.1681 125.154 71.3062C123.888 71.4904 122.934 72.0494 122.294 72.9833C121.649 73.8854 121.425 75.0174 121.623 76.379L122.949 85.4992C123.364 88.3492 122.146 89.9814 119.296 90.3958ZM156.769 93.7751C155.028 94.0283 153.378 94.1388 151.822 94.1065C150.269 94.1058 148.907 93.9644 147.734 93.6822C146.77 93.499 146.054 93.1343 145.586 92.5878C145.119 92.0414 144.853 91.4334 144.787 90.7638C144.722 90.0942 144.809 89.4672 145.048 88.8828C145.318 88.2938 145.719 87.8312 146.252 87.495C146.79 87.1904 147.426 87.1142 148.159 87.2662C149.636 87.6336 150.955 87.8136 152.118 87.8062C153.286 87.8305 154.266 87.785 155.057 87.6699C156.989 87.3891 158.37 86.7679 159.2 85.8064C160.067 84.872 160.376 83.5498 160.127 81.8398L159.692 78.8473L160.072 78.792C159.79 80.1911 158.983 81.424 157.651 82.4908C156.314 83.526 154.791 84.1679 153.081 84.4165C150.99 84.7204 149.101 84.5101 147.411 83.7857C145.716 83.0297 144.299 81.8452 143.159 80.2325C142.051 78.6151 141.327 76.6347 140.986 74.2914C140.728 72.518 140.749 70.882 141.048 69.3833C141.348 67.8846 141.867 66.5642 142.606 65.4219C143.378 64.275 144.357 63.3403 145.546 62.6178C146.761 61.859 148.145 61.3668 149.696 61.1412C151.47 60.8834 153.113 61.0648 154.626 61.6856C156.171 62.3018 157.277 63.2403 157.946 64.5013L157.754 66.5178L157.45 64.4278C157.252 63.0661 157.464 61.9682 158.087 61.1339C158.741 60.2951 159.733 59.779 161.063 59.5856C162.393 59.3922 163.459 59.609 164.262 60.2361C165.096 60.8585 165.612 61.8506 165.81 63.2123L168.2 79.6475C168.789 83.7009 168.091 86.9066 166.106 89.2648C164.125 91.6547 161.013 93.1581 156.769 93.7751ZM154.788 77.8141C155.738 77.6759 156.516 77.3527 157.121 76.8443C157.722 76.3043 158.154 75.6108 158.419 74.7639C158.679 73.8853 158.727 72.876 158.561 71.736C158.312 70.026 157.707 68.7558 156.746 67.9255C155.784 67.0952 154.607 66.7814 153.214 66.984C152.327 67.1129 151.568 67.4496 150.935 67.9943C150.298 68.5072 149.85 69.203 149.59 70.0816C149.356 70.9239 149.323 71.9151 149.488 73.0551C149.737 74.7651 150.342 76.0353 151.304 76.8656C152.265 77.6959 153.427 78.0121 154.788 77.8141ZM186.401 80.736C183.55 81.1504 181.009 81.0187 178.776 80.3409C176.571 79.6268 174.78 78.432 173.405 76.7565C172.029 75.0809 171.16 72.9923 170.796 70.4906C170.446 68.0839 170.662 65.9021 171.445 63.9451C172.255 61.9519 173.504 60.3151 175.193 59.0347C176.91 57.718 178.956 56.887 181.331 56.5417C183.072 56.2885 184.697 56.3433 186.205 56.7061C187.708 57.0372 189.045 57.6675 190.215 58.5968C191.38 59.4945 192.324 60.6507 193.047 62.0653C193.802 63.4754 194.313 65.0988 194.58 66.9355C194.672 67.5688 194.567 68.0692 194.265 68.4365C193.958 68.7721 193.424 68.9952 192.664 69.1057L178.129 71.2191L177.549 67.229L188.094 65.6958L187.424 66.4238C187.254 65.2521 186.957 64.3251 186.534 63.6428C186.112 62.9605 185.556 62.4754 184.868 62.1875C184.211 61.895 183.423 61.8155 182.505 61.949C181.523 62.0918 180.703 62.4536 180.043 63.0345C179.411 63.5791 178.97 64.3224 178.718 65.2643C178.467 66.2062 178.439 67.3422 178.632 68.6722L178.694 69.0997C179.021 71.3481 179.747 72.8917 180.871 73.7307C182.023 74.5334 183.643 74.7828 185.733 74.4789C186.43 74.3776 187.21 74.1833 188.074 73.8961C188.964 73.5725 189.799 73.1926 190.576 72.7562C191.353 72.3198 192.059 72.1687 192.693 72.3029C193.322 72.4054 193.832 72.687 194.222 73.1476C194.639 73.572 194.91 74.0985 195.034 74.7273C195.153 75.3243 195.098 75.9467 194.869 76.5944C194.635 77.2105 194.177 77.7298 193.495 78.1524C192.46 78.8202 191.328 79.3729 190.098 79.8104C188.9 80.2433 187.667 80.5518 186.401 80.736Z" fill="#47455C"/>
</g>
<defs>
<clipPath id="clip0_1307_1652">
<rect width="403" height="140" fill="white" transform="matrix(1 0 0 -1 0 140)"/>
</clipPath>
</defs>
</svg>
