<svg width="403" height="140" viewBox="0 0 403 140" fill="none" xmlns="http://www.w3.org/2000/svg">
<path d="M403 19.0948C403 19.0948 254.985 -20.3341 196.525 16.9042C138.065 54.1425 0 33.9033 0 33.9033V131.903C0 131.903 82.093 160.162 159.832 111.095C237.571 62.0284 381.233 104.96 381.233 104.96C381.233 104.96 369.417 70.7903 322.151 59.8379C274.886 48.8854 278.617 44.0652 278.617 44.0652C278.617 44.0652 282.971 30.047 312.201 23.9138C341.431 17.7805 403 19.0948 403 19.0948Z" fill="#F3F1E5"/>
<path d="M22.608 97.272C21.104 97.272 19.952 96.888 19.152 96.12C18.384 95.32 18 94.184 18 92.712V67.992C18 66.52 18.384 65.4 19.152 64.632C19.952 63.832 21.104 63.432 22.608 63.432H32.016C37.904 63.432 42.448 64.904 45.648 67.848C48.88 70.792 50.496 74.952 50.496 80.328C50.496 83.016 50.08 85.416 49.248 87.528C48.416 89.608 47.216 91.384 45.648 92.856C44.08 94.296 42.144 95.4 39.84 96.168C37.568 96.904 34.96 97.272 32.016 97.272H22.608ZM26.832 90.12H31.44C33.136 90.12 34.592 89.912 35.808 89.496C37.056 89.08 38.08 88.472 38.88 87.672C39.712 86.872 40.32 85.864 40.704 84.648C41.12 83.432 41.328 81.992 41.328 80.328C41.328 77 40.512 74.552 38.88 72.984C37.248 71.384 34.768 70.584 31.44 70.584H26.832V90.12ZM56.475 97.704C55.483 97.704 54.651 97.48 53.979 97.032C53.307 96.552 52.891 95.912 52.731 95.112C52.571 94.28 52.715 93.352 53.163 92.328L65.115 66.6C65.691 65.352 66.395 64.44 67.227 63.864C68.091 63.288 69.067 63 70.155 63C71.243 63 72.187 63.288 72.987 63.864C73.819 64.44 74.539 65.352 75.147 66.6L87.099 92.328C87.611 93.352 87.787 94.28 87.627 95.112C87.499 95.944 87.099 96.584 86.427 97.032C85.787 97.48 84.987 97.704 84.027 97.704C82.747 97.704 81.755 97.416 81.051 96.84C80.379 96.264 79.771 95.336 79.227 94.056L76.635 87.96L79.995 90.408H60.219L63.627 87.96L61.035 94.056C60.459 95.336 59.867 96.264 59.259 96.84C58.651 97.416 57.723 97.704 56.475 97.704ZM70.059 72.648L64.491 85.944L63.147 83.64H77.115L75.771 85.944L70.155 72.648H70.059ZM100.743 97.704C99.335 97.704 98.247 97.32 97.479 96.552C96.711 95.752 96.327 94.616 96.327 93.144V79.992L98.151 84.84L87.111 68.952C86.567 68.184 86.327 67.336 86.391 66.408C86.487 65.448 86.871 64.648 87.543 64.008C88.247 63.336 89.239 63 90.519 63C91.415 63 92.231 63.224 92.967 63.672C93.703 64.088 94.391 64.808 95.031 65.832L101.751 75.72H100.023L106.743 65.784C107.415 64.76 108.103 64.04 108.807 63.624C109.511 63.208 110.343 63 111.303 63C112.519 63 113.463 63.304 114.135 63.912C114.807 64.52 115.159 65.288 115.191 66.216C115.255 67.144 114.967 68.088 114.327 69.048L103.383 84.84L105.159 79.992V93.144C105.159 96.184 103.687 97.704 100.743 97.704ZM137.495 97.272C136.311 97.272 135.399 96.968 134.759 96.36C134.151 95.72 133.847 94.824 133.847 93.672C133.847 92.52 134.151 91.64 134.759 91.032C135.399 90.424 136.311 90.12 137.495 90.12H141.815V70.488H145.847L138.887 74.76C138.055 75.272 137.271 75.48 136.535 75.384C135.799 75.256 135.175 74.936 134.663 74.424C134.151 73.912 133.815 73.288 133.655 72.552C133.495 71.816 133.559 71.08 133.847 70.344C134.135 69.608 134.711 68.984 135.575 68.472L142.199 64.344C142.903 63.896 143.623 63.56 144.359 63.336C145.127 63.112 145.927 63 146.759 63C147.975 63 148.919 63.32 149.591 63.96C150.263 64.568 150.599 65.464 150.599 66.648V90.12H154.439C155.623 90.12 156.519 90.424 157.127 91.032C157.767 91.64 158.087 92.52 158.087 93.672C158.087 94.824 157.767 95.72 157.127 96.36C156.519 96.968 155.623 97.272 154.439 97.272H137.495Z" fill="#47455C"/>
</svg>
