<svg width="403" height="140" viewBox="0 0 403 140" fill="none" xmlns="http://www.w3.org/2000/svg">
<g clip-path="url(#clip0_1104_13)">
<path d="M403 19.0948C403 19.0948 254.985 -20.3341 196.525 16.9042C138.065 54.1425 0 33.9033 0 33.9033V131.903C0 131.903 82.093 160.162 159.832 111.095C237.571 62.0284 381.233 104.96 381.233 104.96C381.233 104.96 369.417 70.7903 322.151 59.8379C274.886 48.8854 278.617 44.0652 278.617 44.0652C278.617 44.0652 282.971 30.047 312.201 23.9138C341.431 17.7805 403 19.0948 403 19.0948Z" fill="#F3F1E5"/>
<path d="M20.68 96C19.176 96 18.024 95.616 17.224 94.848C16.456 94.048 16.072 92.912 16.072 91.44V66.72C16.072 65.248 16.456 64.128 17.224 63.36C18.024 62.56 19.176 62.16 20.68 62.16H30.088C35.976 62.16 40.52 63.632 43.72 66.576C46.952 69.52 48.568 73.68 48.568 79.056C48.568 81.744 48.152 84.144 47.32 86.256C46.488 88.336 45.288 90.112 43.72 91.584C42.152 93.024 40.216 94.128 37.912 94.896C35.64 95.632 33.032 96 30.088 96H20.68ZM24.904 88.848H29.512C31.208 88.848 32.664 88.64 33.88 88.224C35.128 87.808 36.152 87.2 36.952 86.4C37.784 85.6 38.392 84.592 38.776 83.376C39.192 82.16 39.4 80.72 39.4 79.056C39.4 75.728 38.584 73.28 36.952 71.712C35.32 70.112 32.84 69.312 29.512 69.312H24.904V88.848ZM54.5466 96.432C53.5546 96.432 52.7226 96.208 52.0506 95.76C51.3786 95.28 50.9626 94.64 50.8026 93.84C50.6426 93.008 50.7866 92.08 51.2346 91.056L63.1866 65.328C63.7626 64.08 64.4666 63.168 65.2986 62.592C66.1626 62.016 67.1386 61.728 68.2266 61.728C69.3146 61.728 70.2586 62.016 71.0586 62.592C71.8906 63.168 72.6106 64.08 73.2186 65.328L85.1706 91.056C85.6826 92.08 85.8586 93.008 85.6986 93.84C85.5706 94.672 85.1706 95.312 84.4986 95.76C83.8586 96.208 83.0586 96.432 82.0986 96.432C80.8186 96.432 79.8266 96.144 79.1226 95.568C78.4506 94.992 77.8426 94.064 77.2986 92.784L74.7066 86.688L78.0666 89.136H58.2906L61.6986 86.688L59.1066 92.784C58.5306 94.064 57.9386 94.992 57.3306 95.568C56.7226 96.144 55.7946 96.432 54.5466 96.432ZM68.1306 71.376L62.5626 84.672L61.2186 82.368H75.1866L73.8426 84.672L68.2266 71.376H68.1306ZM98.8154 96.432C97.4074 96.432 96.3194 96.048 95.5514 95.28C94.7834 94.48 94.3994 93.344 94.3994 91.872V78.72L96.2234 83.568L85.1834 67.68C84.6394 66.912 84.3994 66.064 84.4634 65.136C84.5594 64.176 84.9434 63.376 85.6154 62.736C86.3194 62.064 87.3114 61.728 88.5914 61.728C89.4874 61.728 90.3034 61.952 91.0394 62.4C91.7754 62.816 92.4634 63.536 93.1034 64.56L99.8234 74.448H98.0954L104.815 64.512C105.487 63.488 106.175 62.768 106.879 62.352C107.583 61.936 108.415 61.728 109.375 61.728C110.591 61.728 111.535 62.032 112.207 62.64C112.879 63.248 113.231 64.016 113.263 64.944C113.327 65.872 113.039 66.816 112.399 67.776L101.455 83.568L103.231 78.72V91.872C103.231 94.912 101.759 96.432 98.8154 96.432ZM134.943 96C133.535 96 132.511 95.68 131.871 95.04C131.263 94.368 130.959 93.392 130.959 92.112C130.959 91.216 131.151 90.416 131.535 89.712C131.951 89.008 132.479 88.32 133.119 87.648L141.519 78.864C142.767 77.52 143.647 76.368 144.159 75.408C144.703 74.448 144.975 73.488 144.975 72.528C144.975 71.312 144.575 70.4 143.775 69.792C142.975 69.184 141.823 68.88 140.319 68.88C139.551 68.88 138.735 68.992 137.871 69.216C137.007 69.408 136.079 69.76 135.087 70.272C134.223 70.656 133.439 70.768 132.735 70.608C132.063 70.448 131.487 70.096 131.007 69.552C130.559 69.008 130.271 68.384 130.143 67.68C130.047 66.976 130.159 66.288 130.479 65.616C130.799 64.912 131.375 64.336 132.207 63.888C133.679 63.088 135.199 62.512 136.767 62.16C138.367 61.808 139.967 61.632 141.567 61.632C144.191 61.632 146.383 62.016 148.143 62.784C149.935 63.552 151.295 64.672 152.223 66.144C153.151 67.584 153.615 69.376 153.615 71.52C153.615 72.864 153.407 74.176 152.991 75.456C152.607 76.736 151.967 78.016 151.071 79.296C150.207 80.576 149.039 81.936 147.567 83.376L139.791 91.056V88.848H151.647C152.831 88.848 153.727 89.152 154.335 89.76C154.975 90.368 155.295 91.248 155.295 92.4C155.295 93.552 154.975 94.448 154.335 95.088C153.727 95.696 152.831 96 151.647 96H134.943Z" fill="#47455C"/>
</g>
<defs>
<clipPath id="clip0_1104_13">
<rect width="403" height="140" fill="white" transform="matrix(1 0 0 -1 0 140)"/>
</clipPath>
</defs>
</svg>
