<svg width="1758" height="3025" viewBox="0 0 1758 3025" fill="none" xmlns="http://www.w3.org/2000/svg">
<g filter="url(#filter0_i_2_1441)">
<path fill-rule="evenodd" clip-rule="evenodd" d="M1274.68 602C1281.9 602 1293.97 600.887 1301.13 601.806C1302.12 601.934 1303.15 602 1304.19 602C1314.58 602 1323 595.392 1323 587.24C1323 579.089 1314.58 572.481 1304.19 572.481V572.481C1303.83 572.481 1303.53 572.212 1303.48 571.857C1302.38 563.879 1295.25 557.721 1286.62 557.721V557.721C1283.62 557.721 1280.61 556.177 1278.88 553.738C1275.55 549.057 1270.07 546 1263.86 546C1253.72 546 1245.5 554.163 1245.5 564.233V564.233C1245.5 564.483 1245.29 564.686 1245.04 564.678C1244.82 564.67 1244.6 564.667 1244.37 564.667C1233.67 564.667 1225 573.024 1225 583.333C1225 593.643 1233.67 602 1244.37 602C1245.19 602 1245.99 601.952 1246.78 601.858C1253.88 601.011 1267.53 602 1274.68 602V602V602Z" fill="white"/>
</g>
<g filter="url(#filter1_i_2_1441)">
<path fill-rule="evenodd" clip-rule="evenodd" d="M499.676 1474C506.896 1474 518.967 1472.89 526.129 1473.81C527.125 1473.93 528.147 1474 529.189 1474C539.578 1474 548 1467.39 548 1459.24C548 1451.09 539.578 1444.48 529.189 1444.48V1444.48C528.83 1444.48 528.528 1444.21 528.479 1443.86C527.383 1435.88 520.251 1429.72 511.616 1429.72V1429.72C508.625 1429.72 505.61 1428.18 503.878 1425.74C500.555 1421.06 495.068 1418 488.862 1418C478.722 1418 470.501 1426.16 470.501 1436.23V1436.23C470.501 1436.48 470.293 1436.69 470.042 1436.68C469.82 1436.67 469.598 1436.67 469.375 1436.67C458.674 1436.67 450 1445.02 450 1455.33C450 1465.64 458.674 1474 469.375 1474C470.189 1474 470.991 1473.95 471.779 1473.86C478.877 1473.01 492.528 1474 499.676 1474V1474V1474Z" fill="white"/>
</g>
<g filter="url(#filter2_i_2_1441)">
<path fill-rule="evenodd" clip-rule="evenodd" d="M152.676 1375C159.896 1375 171.967 1373.89 179.129 1374.81C180.125 1374.93 181.147 1375 182.189 1375C192.578 1375 201 1368.39 201 1360.24C201 1352.09 192.578 1345.48 182.189 1345.48V1345.48C181.831 1345.48 181.528 1345.21 181.479 1344.86C180.383 1336.88 173.251 1330.72 164.616 1330.72V1330.72C161.625 1330.72 158.61 1329.18 156.878 1326.74C153.555 1322.06 148.068 1319 141.862 1319C131.722 1319 123.501 1327.16 123.501 1337.23V1337.23C123.501 1337.48 123.293 1337.69 123.042 1337.68C122.821 1337.67 122.598 1337.67 122.375 1337.67C111.675 1337.67 103 1346.02 103 1356.33C103 1366.64 111.675 1375 122.375 1375C123.189 1375 123.991 1374.95 124.779 1374.86C131.877 1374.01 145.528 1375 152.676 1375V1375V1375Z" fill="white"/>
</g>
<g filter="url(#filter3_i_2_1441)">
<path fill-rule="evenodd" clip-rule="evenodd" d="M972.676 1676C979.896 1676 991.967 1674.89 999.129 1675.81C1000.12 1675.93 1001.15 1676 1002.19 1676C1012.58 1676 1021 1669.39 1021 1661.24C1021 1653.09 1012.58 1646.48 1002.19 1646.48V1646.48C1001.83 1646.48 1001.53 1646.21 1001.48 1645.86C1000.38 1637.88 993.251 1631.72 984.616 1631.72V1631.72C981.625 1631.72 978.61 1630.18 976.878 1627.74C973.555 1623.06 968.068 1620 961.862 1620C951.722 1620 943.501 1628.16 943.501 1638.23V1638.23C943.501 1638.48 943.293 1638.69 943.042 1638.68C942.821 1638.67 942.598 1638.67 942.375 1638.67C931.675 1638.67 923 1647.02 923 1657.33C923 1667.64 931.675 1676 942.375 1676C943.189 1676 943.991 1675.95 944.779 1675.86C951.877 1675.01 965.528 1676 972.676 1676V1676V1676Z" fill="white"/>
</g>
<g filter="url(#filter4_i_2_1441)">
<path fill-rule="evenodd" clip-rule="evenodd" d="M1658.68 1233C1665.9 1233 1677.97 1231.89 1685.13 1232.81C1686.12 1232.93 1687.15 1233 1688.19 1233C1698.58 1233 1707 1226.39 1707 1218.24C1707 1210.09 1698.58 1203.48 1688.19 1203.48V1203.48C1687.83 1203.48 1687.53 1203.21 1687.48 1202.86C1686.38 1194.88 1679.25 1188.72 1670.62 1188.72V1188.72C1667.62 1188.72 1664.61 1187.18 1662.88 1184.74C1659.55 1180.06 1654.07 1177 1647.86 1177C1637.72 1177 1629.5 1185.16 1629.5 1195.23V1195.23C1629.5 1195.48 1629.29 1195.69 1629.04 1195.68C1628.82 1195.67 1628.6 1195.67 1628.37 1195.67C1617.67 1195.67 1609 1204.02 1609 1214.33C1609 1224.64 1617.67 1233 1628.37 1233C1629.19 1233 1629.99 1232.95 1630.78 1232.86C1637.88 1232.01 1651.53 1233 1658.68 1233V1233V1233Z" fill="white"/>
</g>
<g filter="url(#filter5_i_2_1441)">
<path fill-rule="evenodd" clip-rule="evenodd" d="M654.676 2085C661.896 2085 673.967 2083.89 681.129 2084.81C682.125 2084.93 683.147 2085 684.189 2085C694.578 2085 703 2078.39 703 2070.24C703 2062.09 694.578 2055.48 684.189 2055.48V2055.48C683.831 2055.48 683.528 2055.21 683.479 2054.86C682.383 2046.88 675.251 2040.72 666.616 2040.72V2040.72C663.625 2040.72 660.61 2039.18 658.878 2036.74C655.555 2032.06 650.068 2029 643.862 2029C633.722 2029 625.501 2037.16 625.501 2047.23V2047.23C625.501 2047.48 625.293 2047.69 625.042 2047.68C624.821 2047.67 624.598 2047.67 624.375 2047.67C613.675 2047.67 605 2056.02 605 2066.33C605 2076.64 613.675 2085 624.375 2085C625.189 2085 625.991 2084.95 626.779 2084.86C633.877 2084.01 647.528 2085 654.676 2085V2085V2085Z" fill="white"/>
</g>
<g filter="url(#filter6_i_2_1441)">
<path fill-rule="evenodd" clip-rule="evenodd" d="M807.738 433C820.697 433 842.72 430.943 855.568 432.641C857.353 432.877 859.185 433 861.053 433C879.821 433 895.035 420.61 895.035 405.326C895.035 390.041 879.821 377.651 861.053 377.651V377.651C860.407 377.651 859.86 377.165 859.776 376.524C857.815 361.545 844.921 349.977 829.308 349.977V349.977C823.933 349.977 818.487 347.204 815.488 342.742C809.501 333.834 799.513 328 788.203 328C769.885 328 755.035 343.306 755.035 362.186V362.186C755.035 362.656 754.643 363.035 754.174 363.019C753.784 363.006 753.393 363 753 363C733.67 363 718 378.67 718 398C718 417.33 733.67 433 753 433C754.455 433 755.889 432.911 757.297 432.739C770.021 431.181 794.919 433 807.738 433V433V433Z" fill="white"/>
</g>
<g filter="url(#filter7_i_2_1441)">
<path fill-rule="evenodd" clip-rule="evenodd" d="M1610.6 485C1625.33 485 1651.8 485 1666.53 485V485C1684.27 485 1698.66 470.614 1698.66 452.868C1698.66 436.073 1685.78 422.288 1669.35 420.858C1668.17 420.755 1667.26 419.717 1667.26 418.528V418.528C1667.26 405.93 1654.85 395.717 1639.55 395.717V395.717C1630.23 395.717 1619.53 392.649 1611.89 387.324C1606.17 383.338 1599.22 381 1591.72 381C1572.21 381 1556.4 396.814 1556.4 416.321C1556.4 418.219 1556.55 420.082 1556.83 421.898C1556.9 422.317 1556.58 422.698 1556.15 422.698V422.698C1538.95 422.698 1525 436.645 1525 453.849C1525 471.053 1538.95 485 1556.15 485V485C1570.72 485 1596.03 485 1610.6 485V485V485Z" fill="white"/>
</g>
<g filter="url(#filter8_i_2_1441)">
<path fill-rule="evenodd" clip-rule="evenodd" d="M147.057 954C132.331 954 105.859 954 91.1322 954V954C73.3861 954 59.0001 939.614 59.0001 921.868C59.0001 905.073 71.8852 891.288 88.3091 889.858C89.4928 889.755 90.3969 888.717 90.3969 887.528V887.528C90.3969 874.93 102.806 864.717 118.114 864.717V864.717C127.426 864.717 138.13 861.649 145.769 856.324C151.489 852.338 158.443 850 165.943 850C185.45 850 201.264 865.814 201.264 885.321C201.264 887.219 201.114 889.082 200.826 890.898C200.76 891.317 201.086 891.698 201.51 891.698V891.698C218.714 891.698 232.661 905.645 232.661 922.849C232.661 940.053 218.714 954 201.51 954V954C186.938 954 161.629 954 147.057 954V954V954Z" fill="white"/>
</g>
<g filter="url(#filter9_i_2_1441)">
<path fill-rule="evenodd" clip-rule="evenodd" d="M1071.06 1162C1056.33 1162 1029.86 1162 1015.13 1162V1162C997.386 1162 983 1147.61 983 1129.87C983 1113.07 995.885 1099.29 1012.31 1097.86C1013.49 1097.76 1014.4 1096.72 1014.4 1095.53V1095.53C1014.4 1082.93 1026.81 1072.72 1042.11 1072.72V1072.72C1051.43 1072.72 1062.13 1069.65 1069.77 1064.32C1075.49 1060.34 1082.44 1058 1089.94 1058C1109.45 1058 1125.26 1073.81 1125.26 1093.32C1125.26 1095.22 1125.11 1097.08 1124.83 1098.9C1124.76 1099.32 1125.09 1099.7 1125.51 1099.7V1099.7C1142.71 1099.7 1156.66 1113.64 1156.66 1130.85C1156.66 1148.05 1142.71 1162 1125.51 1162V1162C1110.94 1162 1085.63 1162 1071.06 1162V1162V1162Z" fill="white"/>
</g>
<g filter="url(#filter10_i_2_1441)">
<path fill-rule="evenodd" clip-rule="evenodd" d="M1367.06 1899C1352.33 1899 1325.86 1899 1311.13 1899V1899C1293.39 1899 1279 1884.61 1279 1866.87C1279 1850.07 1291.89 1836.29 1308.31 1834.86C1309.49 1834.76 1310.4 1833.72 1310.4 1832.53V1832.53C1310.4 1819.93 1322.81 1809.72 1338.11 1809.72V1809.72C1347.43 1809.72 1358.13 1806.65 1365.77 1801.32C1371.49 1797.34 1378.44 1795 1385.94 1795C1405.45 1795 1421.26 1810.81 1421.26 1830.32C1421.26 1832.22 1421.11 1834.08 1420.83 1835.9C1420.76 1836.32 1421.09 1836.7 1421.51 1836.7V1836.7C1438.71 1836.7 1452.66 1850.64 1452.66 1867.85C1452.66 1885.05 1438.71 1899 1421.51 1899V1899C1406.94 1899 1381.63 1899 1367.06 1899V1899V1899Z" fill="white"/>
</g>
<g filter="url(#filter11_i_2_1441)">
<path fill-rule="evenodd" clip-rule="evenodd" d="M185.057 1869C170.331 1869 143.859 1869 129.132 1869V1869C111.386 1869 97.0002 1854.61 97.0002 1836.87C97.0002 1820.07 109.885 1806.29 126.309 1804.86C127.493 1804.76 128.397 1803.72 128.397 1802.53V1802.53C128.397 1789.93 140.806 1779.72 156.114 1779.72V1779.72C165.426 1779.72 176.13 1776.65 183.77 1771.32C189.489 1767.34 196.443 1765 203.943 1765C223.45 1765 239.264 1780.81 239.264 1800.32C239.264 1802.22 239.114 1804.08 238.826 1805.9C238.76 1806.32 239.086 1806.7 239.51 1806.7V1806.7C256.714 1806.7 270.661 1820.64 270.661 1837.85C270.661 1855.05 256.714 1869 239.51 1869V1869C224.938 1869 199.629 1869 185.057 1869V1869V1869Z" fill="white"/>
</g>
<path d="M1576.81 1918.37L1598.06 1916.88L1599.89 1919.98L1599.09 1920.03C1599.09 1920.03 1601.68 1926.82 1599.82 1930.45C1598.54 1932.94 1597.19 1933.89 1594.46 1934.46C1590.38 1935.31 1587.22 1935.36 1583.23 1935.25C1580.31 1935.17 1578.67 1934.42 1576.97 1932.05C1574.59 1928.74 1576.24 1921.63 1576.24 1921.63L1575.44 1921.69L1576.81 1918.37Z" fill="#CF9A64"/>
<path d="M1579.45 1906.92C1579.57 1911.7 1578.99 1914.66 1578.11 1918.71" stroke="#ACACAC" stroke-width="0.461538"/>
<path d="M1586.78 1906.4L1587.6 1918.05" stroke="#ACACAC" stroke-width="0.461538"/>
<path d="M1593.68 1905.92C1594.05 1910.58 1595.05 1913.42 1596.65 1917.41" stroke="#ACACAC" stroke-width="0.461538"/>
<path fill-rule="evenodd" clip-rule="evenodd" d="M1639.87 1818.83C1641.05 1814.14 1641.51 1809.25 1641.16 1804.25C1639.12 1774.96 1609.85 1753.15 1575.8 1755.53C1541.75 1757.91 1515.8 1783.58 1517.85 1812.87C1518.2 1817.93 1519.37 1822.76 1521.23 1827.28C1528.29 1849.2 1541.14 1865.6 1572.51 1894.4C1582.63 1889.04 1588.12 1889.64 1598.81 1892.56C1626.11 1857.65 1636.2 1839.67 1639.87 1818.83Z" fill="#F3F1E5"/>
<path d="M1588.47 1893.29C1602.88 1817.01 1601.33 1780.63 1579.71 1755.69C1582.44 1755.34 1588.2 1754.87 1601.17 1758.95C1628.22 1789.72 1624.43 1823.79 1594.93 1892.84C1592.44 1893.4 1591.01 1893.47 1588.47 1893.29Z" fill="#D56774"/>
<path d="M1582.42 1893.71C1557.53 1820.18 1554.01 1783.94 1571.94 1756.23C1569.19 1756.27 1563.42 1756.61 1551.15 1762.45C1528.64 1796.69 1537.13 1829.9 1575.96 1894.16C1578.51 1894.38 1579.93 1894.25 1582.42 1893.71Z" fill="#D56774"/>
<path fill-rule="evenodd" clip-rule="evenodd" d="M1572.94 1894.37C1577.29 1892.02 1579.78 1891.05 1584.37 1890.54C1591.06 1890.31 1593.74 1891.08 1598.38 1892.59L1572.94 1894.37ZM1574.31 1897.28C1576.02 1899.87 1577.67 1902.39 1578.59 1906.98L1594.98 1905.83C1595.5 1900.67 1596.37 1897.76 1598.81 1892.56L1572.51 1894.4C1573.1 1895.43 1573.71 1896.36 1574.31 1897.28Z" fill="#BF4C61"/>
<path d="M1597.06 1892.25C1634.95 1837.41 1644.05 1808.99 1617.72 1766.46L1629.23 1776.05C1652.1 1806.97 1642.13 1836.34 1598.38 1892.59L1597.06 1892.25Z" fill="#D56774"/>
<path d="M1574.21 1893.85C1529.29 1844.8 1516.62 1817.47 1536.64 1771.7C1532.6 1774.87 1530.17 1777.67 1526.41 1783.24C1506.3 1815.2 1523.45 1849.86 1572.95 1894.37L1574.21 1893.85Z" fill="#D56774"/>
<path d="M1598.75 1916.83L1575.52 1918.46L1574.01 1922.03L1574.89 1921.97L1599.87 1920.22L1600.74 1920.16L1598.75 1916.83Z" fill="#5D4227"/>
<path fill-rule="evenodd" clip-rule="evenodd" d="M1581.32 1920.66L1580.62 1918.97L1580.18 1920.69C1578.62 1921.01 1577.51 1922.44 1577.62 1924.07C1577.74 1925.84 1579.28 1927.18 1581.06 1927.05C1582.83 1926.93 1584.17 1925.39 1584.04 1923.62C1583.94 1922.09 1582.77 1920.88 1581.32 1920.66Z" fill="#F2EFDD"/>
<path fill-rule="evenodd" clip-rule="evenodd" d="M1588.46 1920.16L1587.76 1918.47L1587.31 1920.19C1585.76 1920.51 1584.64 1921.94 1584.76 1923.57C1584.88 1925.34 1586.42 1926.68 1588.19 1926.55C1589.97 1926.43 1591.3 1924.89 1591.18 1923.12C1591.07 1921.59 1589.91 1920.38 1588.46 1920.16Z" fill="#F2EFDD"/>
<path fill-rule="evenodd" clip-rule="evenodd" d="M1595.59 1919.66L1594.89 1917.97L1594.45 1919.69C1592.9 1920.01 1591.78 1921.44 1591.89 1923.07C1592.02 1924.84 1593.55 1926.18 1595.33 1926.05C1597.1 1925.93 1598.44 1924.39 1598.32 1922.62C1598.21 1921.09 1597.05 1919.88 1595.59 1919.66Z" fill="#F2EFDD"/>
<path d="M45.9913 1136.01L64.6356 1137.15L65.8706 1140.05L65.167 1140.01C65.167 1140.01 66.6405 1146.21 64.6076 1149.16C63.2155 1151.17 61.9324 1151.84 59.4886 1152.03C55.843 1152.3 53.0915 1151.98 49.6388 1151.42C47.111 1151.02 45.7652 1150.19 44.5562 1147.93C42.8664 1144.77 45.1156 1138.78 45.1156 1138.78L44.4121 1138.74L45.9913 1136.01Z" fill="#CF9A64"/>
<path d="M49.5958 1126.36C49.1528 1130.53 48.308 1133.04 47.0793 1136.46" stroke="#ACACAC" stroke-width="0.758096"/>
<path d="M56.0276 1126.75L55.4028 1136.97" stroke="#ACACAC" stroke-width="0.758096"/>
<path d="M62.0811 1127.12C61.8726 1131.21 62.4106 1133.8 63.348 1137.45" stroke="#ACACAC" stroke-width="0.758096"/>
<path fill-rule="evenodd" clip-rule="evenodd" d="M112.208 1056.68C113.772 1052.74 114.737 1048.54 115.005 1044.15C116.577 1018.45 93.6285 996.137 63.7484 994.309C33.8683 992.482 8.37132 1011.83 6.79937 1037.54C6.52804 1041.97 6.98724 1046.31 8.08652 1050.45C11.7148 1070.31 21.0088 1086.05 44.9932 1114.68C54.4017 1111.18 59.108 1112.33 68.072 1116.1C95.8031 1088.86 106.634 1074.39 112.208 1056.68Z" fill="#F3F1E5"/>
<path d="M58.9919 1115.54C80.2581 1050.87 83.0699 1019.06 67.1304 994.896C69.5461 994.911 74.6042 995.162 85.4145 1000.19C105.412 1030.04 98.2203 1059.23 64.667 1115.89C62.4331 1116.09 61.1844 1115.99 58.9919 1115.54Z" fill="#E7AA36"/>
<path d="M53.6903 1115.22C40.4645 1048.43 41.5495 1016.52 60.3154 994.479C57.9157 994.2 52.8647 993.832 41.5221 997.507C18.0356 1024.7 21.6166 1054.55 48.0152 1114.87C50.2074 1115.34 51.459 1115.4 53.6903 1115.22Z" fill="#E7AA36"/>
<path fill-rule="evenodd" clip-rule="evenodd" d="M45.3716 1114.71C49.4236 1113.16 51.6972 1112.6 55.7488 1112.68C61.5898 1113.24 63.8322 1114.23 67.6937 1116.07L68.0721 1116.1C65.3565 1120.34 64.2661 1122.77 63.2161 1127.19L48.8392 1126.31C48.5643 1122.22 47.4136 1119.84 46.2264 1117.39C45.8076 1116.52 45.3843 1115.65 44.9933 1114.68L45.3716 1114.71Z" fill="#D79439"/>
<path d="M66.5818 1115.62C105.805 1072.27 116.975 1048.61 98.9502 1008.61L107.853 1018.27C124.202 1047.77 112.173 1072.16 67.6936 1116.07L66.5818 1115.62Z" fill="#E7AA36"/>
<path d="M46.5298 1114.4C13.0927 1066.6 5.19937 1041.39 27.8454 1003.89C23.9727 1006.19 21.5408 1008.34 17.6338 1012.75C-3.51123 1038.24 7.43714 1070.33 45.3782 1114.71L46.5298 1114.4Z" fill="#E7AA36"/>
<path d="M65.238 1137.19L44.8573 1135.94L43.134 1138.87L43.9031 1138.92L65.822 1140.26L66.5911 1140.31L65.238 1137.19Z" fill="#5D4227"/>
<path fill-rule="evenodd" clip-rule="evenodd" d="M49.6451 1138.52L49.2314 1136.97L48.6487 1138.42C47.26 1138.52 46.1256 1139.63 46.0383 1141.06C45.9431 1142.62 47.1276 1143.95 48.6839 1144.05C50.2403 1144.14 51.5791 1142.96 51.6743 1141.4C51.7564 1140.06 50.8855 1138.88 49.6451 1138.52Z" fill="#F2EFDD"/>
<path fill-rule="evenodd" clip-rule="evenodd" d="M55.9073 1138.9L55.4936 1137.35L54.9109 1138.8C53.5222 1138.9 52.3878 1140.01 52.3005 1141.44C52.2053 1143 53.3898 1144.34 54.9461 1144.43C56.5025 1144.53 57.8413 1143.34 57.9365 1141.79C58.0186 1140.44 57.1478 1139.26 55.9073 1138.9Z" fill="#F2EFDD"/>
<path fill-rule="evenodd" clip-rule="evenodd" d="M62.1695 1139.29L61.7558 1137.73L61.1731 1139.18C59.7844 1139.28 58.65 1140.4 58.5627 1141.83C58.4675 1143.38 59.652 1144.72 61.2083 1144.82C62.7647 1144.91 64.1035 1143.73 64.1987 1142.17C64.2808 1140.83 63.41 1139.65 62.1695 1139.29Z" fill="#F2EFDD"/>
<path d="M813.042 1784.47L837.788 1785.98L839.427 1789.83L838.493 1789.77C838.493 1789.77 840.449 1798 837.75 1801.91C835.903 1804.59 834.2 1805.48 830.956 1805.72C826.118 1806.08 822.466 1805.66 817.883 1804.92C814.528 1804.38 812.742 1803.28 811.137 1800.28C808.895 1796.1 811.88 1788.14 811.88 1788.14L810.946 1788.09L813.042 1784.47Z" fill="#CF9A64"/>
<path d="M817.826 1771.65C817.238 1777.19 816.117 1780.52 814.486 1785.06" stroke="#ACACAC" stroke-width="0.758096"/>
<path d="M826.363 1772.18L825.533 1785.73" stroke="#ACACAC" stroke-width="0.758096"/>
<path d="M834.397 1772.67C834.12 1778.1 834.835 1781.52 836.079 1786.38" stroke="#ACACAC" stroke-width="0.758096"/>
<path fill-rule="evenodd" clip-rule="evenodd" d="M900.928 1679.17C903.004 1673.94 904.284 1668.37 904.64 1662.55C906.726 1628.44 876.268 1598.82 836.61 1596.39C796.952 1593.97 763.111 1619.65 761.025 1653.76C760.665 1659.65 761.274 1665.41 762.733 1670.91C767.549 1697.27 779.884 1718.15 811.717 1756.16C824.205 1751.51 830.451 1753.03 842.349 1758.03C879.155 1721.88 893.53 1702.68 900.928 1679.17Z" fill="#F3F1E5"/>
<path d="M830.297 1757.3C858.522 1671.46 862.254 1629.25 841.099 1597.17C844.305 1597.19 851.018 1597.52 865.366 1604.2C891.908 1643.82 882.363 1682.56 837.829 1757.76C834.864 1758.03 833.207 1757.9 830.297 1757.3Z" fill="#E7AA36"/>
<path d="M823.26 1756.86C805.707 1668.23 807.147 1625.87 832.054 1596.62C828.869 1596.25 822.165 1595.76 807.11 1600.64C775.938 1636.73 780.691 1676.34 815.728 1756.4C818.638 1757.04 820.299 1757.11 823.26 1756.86Z" fill="#E7AA36"/>
<path fill-rule="evenodd" clip-rule="evenodd" d="M812.22 1756.19C817.597 1754.14 820.615 1753.4 825.993 1753.5C833.745 1754.25 836.721 1755.55 841.846 1758L812.22 1756.19ZM813.354 1759.75C814.93 1763 816.457 1766.16 816.822 1771.59L835.904 1772.76C837.297 1766.89 838.744 1763.66 842.349 1758.03L811.717 1756.16C812.236 1757.44 812.798 1758.6 813.354 1759.75Z" fill="#D79439"/>
<path d="M840.371 1757.41C892.43 1699.87 907.255 1668.46 883.332 1615.38L895.148 1628.2C916.847 1667.35 900.881 1699.72 841.846 1758L840.371 1757.41Z" fill="#E7AA36"/>
<path d="M813.757 1755.78C769.377 1692.35 758.901 1658.88 788.958 1609.1C783.818 1612.16 780.59 1615.02 775.405 1620.87C747.34 1654.69 761.871 1697.3 812.228 1756.19L813.757 1755.78Z" fill="#E7AA36"/>
<path d="M838.587 1786.03L811.537 1784.37L809.25 1788.27L810.27 1788.33L839.362 1790.11L840.383 1790.17L838.587 1786.03Z" fill="#5D4227"/>
<path fill-rule="evenodd" clip-rule="evenodd" d="M817.892 1787.8L817.342 1785.74L816.569 1787.66C814.726 1787.79 813.22 1789.27 813.104 1791.17C812.978 1793.23 814.55 1795.01 816.616 1795.13C818.682 1795.26 820.458 1793.69 820.585 1791.62C820.694 1789.84 819.538 1788.27 817.892 1787.8Z" fill="#F2EFDD"/>
<path fill-rule="evenodd" clip-rule="evenodd" d="M826.203 1788.3L825.654 1786.25L824.881 1788.17C823.037 1788.3 821.532 1789.78 821.416 1791.67C821.29 1793.74 822.862 1795.52 824.927 1795.64C826.993 1795.77 828.77 1794.2 828.896 1792.13C829.005 1790.35 827.849 1788.78 826.203 1788.3Z" fill="#F2EFDD"/>
<path fill-rule="evenodd" clip-rule="evenodd" d="M834.515 1788.81L833.965 1786.75L833.192 1788.67C831.349 1788.81 829.843 1790.29 829.727 1792.18C829.601 1794.25 831.173 1796.03 833.239 1796.15C835.305 1796.28 837.081 1794.71 837.208 1792.64C837.317 1790.86 836.161 1789.29 834.515 1788.81Z" fill="#F2EFDD"/>
<path d="M1512.38 670.065L1528.16 671.585L1529.12 674.081L1528.53 674.024C1528.53 674.024 1529.59 679.327 1527.78 681.764C1526.54 683.433 1525.43 683.966 1523.36 684.048C1520.26 684.171 1517.93 683.818 1515.02 683.246C1512.89 682.827 1511.77 682.08 1510.81 680.13C1509.47 677.405 1511.56 672.39 1511.56 672.39L1510.96 672.332L1512.38 670.065Z" fill="#CF9A64"/>
<path d="M1515.73 661.985C1515.23 665.51 1514.44 667.614 1513.29 670.476" stroke="#ACACAC" stroke-width="0.643357"/>
<path d="M1521.17 662.509L1520.34 671.154" stroke="#ACACAC" stroke-width="0.643357"/>
<path d="M1526.29 663.002C1525.99 666.466 1526.37 668.672 1527.06 671.801" stroke="#ACACAC" stroke-width="0.643357"/>
<path fill-rule="evenodd" clip-rule="evenodd" d="M1570.89 604.743C1572.34 601.447 1573.28 597.913 1573.64 594.202C1575.73 572.451 1556.93 552.844 1531.64 550.409C1506.35 547.974 1484.15 563.633 1482.06 585.384C1481.7 589.139 1481.96 592.829 1482.77 596.379C1485.26 613.331 1492.67 626.948 1512.17 651.947C1520.25 649.256 1524.21 650.365 1531.7 653.828C1556.03 631.55 1565.64 619.597 1570.89 604.743Z" fill="#F3F1E5"/>
<path d="M1524.02 653.088C1543.97 598.865 1547.29 571.975 1534.49 551.006C1536.54 551.091 1540.82 551.454 1549.84 556.039C1565.92 581.949 1558.95 606.492 1528.82 653.55C1526.92 653.658 1525.86 653.537 1524.02 653.088Z" fill="#54AFB2"/>
<path d="M1519.53 652.656C1510.29 595.623 1512.15 568.591 1528.72 550.451C1526.7 550.144 1522.42 549.682 1512.69 552.463C1491.97 574.829 1494.12 600.25 1514.73 652.194C1516.57 652.662 1517.63 652.744 1519.53 652.656Z" fill="#54AFB2"/>
<path fill-rule="evenodd" clip-rule="evenodd" d="M1512.49 651.978C1515.97 650.788 1517.92 650.381 1521.35 650.569C1526.29 651.217 1528.16 652.118 1531.38 653.797L1531.7 653.828C1529.27 657.345 1528.27 659.372 1527.25 663.094L1515.09 661.923C1514.97 658.443 1514.07 656.392 1513.13 654.276C1512.8 653.53 1512.47 652.775 1512.17 651.947L1512.49 651.978Z" fill="#5B9898"/>
<path d="M1530.45 653.384C1565 617.78 1575.18 598.036 1561.07 563.584L1568.34 572.04C1581.33 597.541 1570.4 617.874 1531.38 653.797L1530.45 653.384Z" fill="#54AFB2"/>
<path d="M1513.48 651.75C1486.54 610.224 1480.59 588.605 1500.91 557.467C1497.55 559.305 1495.43 561.06 1491.98 564.687C1473.29 585.672 1481.63 613.22 1512.49 651.978L1513.48 651.75Z" fill="#54AFB2"/>
<path d="M1528.67 671.633L1511.42 669.973L1509.87 672.409L1510.53 672.471L1529.08 674.258L1529.73 674.32L1528.67 671.633Z" fill="#5D4227"/>
<path fill-rule="evenodd" clip-rule="evenodd" d="M1515.41 672.301L1515.1 670.973L1514.57 672.183C1513.38 672.227 1512.39 673.139 1512.27 674.348C1512.15 675.665 1513.11 676.836 1514.43 676.963C1515.75 677.089 1516.92 676.124 1517.04 674.807C1517.15 673.671 1516.45 672.643 1515.41 672.301Z" fill="#F2EFDD"/>
<path fill-rule="evenodd" clip-rule="evenodd" d="M1520.71 672.812L1520.4 671.484L1519.87 672.693C1518.68 672.738 1517.69 673.65 1517.57 674.858C1517.45 676.175 1518.41 677.346 1519.73 677.473C1521.05 677.6 1522.22 676.635 1522.34 675.317C1522.45 674.181 1521.75 673.153 1520.71 672.812Z" fill="#F2EFDD"/>
<path fill-rule="evenodd" clip-rule="evenodd" d="M1526.01 673.322L1525.7 671.994L1525.17 673.204C1523.98 673.248 1522.99 674.16 1522.87 675.368C1522.75 676.686 1523.71 677.856 1525.03 677.983C1526.35 678.11 1527.52 677.145 1527.64 675.828C1527.75 674.691 1527.05 673.664 1526.01 673.322Z" fill="#F2EFDD"/>
<path d="M922.732 1350.08L937.965 1345.69L939.777 1347.66L939.202 1347.82C939.202 1347.82 942.143 1352.36 941.354 1355.3C940.814 1357.31 939.979 1358.21 938.077 1359.05C935.239 1360.3 932.948 1360.83 930.029 1361.37C927.893 1361.76 926.58 1361.48 924.971 1360.01C922.724 1357.97 922.82 1352.54 922.82 1352.54L922.245 1352.71L922.732 1350.08Z" fill="#CF9A64"/>
<path d="M922.871 1341.33C923.703 1344.8 923.741 1347.04 923.729 1350.12" stroke="#ACACAC" stroke-width="0.643357"/>
<path d="M928.126 1339.82L930.53 1348.17" stroke="#ACACAC" stroke-width="0.643357"/>
<path d="M933.072 1338.4C934.068 1341.73 935.232 1343.64 937.021 1346.3" stroke="#ACACAC" stroke-width="0.643357"/>
<path fill-rule="evenodd" clip-rule="evenodd" d="M953.138 1267.82C953.268 1264.23 952.846 1260.59 951.814 1257.01C945.768 1236.01 921.075 1224.69 896.662 1231.72C872.249 1238.75 857.36 1261.47 863.407 1282.47C864.451 1286.09 866.05 1289.43 868.107 1292.43C876.653 1307.28 888.555 1317.22 915.873 1333.31C922.402 1327.83 926.49 1327.41 934.729 1327.88C949.165 1298.22 953.713 1283.57 953.138 1267.82Z" fill="#F3F1E5"/>
<path d="M927.311 1330.01C925.936 1272.25 919.147 1246.02 899.533 1231.23C901.469 1230.55 905.585 1229.32 915.659 1230.26C940.133 1248.45 942.677 1273.84 931.947 1328.68C930.219 1329.48 929.192 1329.75 927.311 1330.01Z" fill="#54AFB2"/>
<path d="M922.979 1331.26C893.424 1281.61 885.223 1255.79 893.965 1232.83C891.967 1233.29 887.823 1234.43 879.797 1240.59C868.744 1269.01 880.09 1291.86 918.342 1332.6C920.231 1332.35 921.246 1332.04 922.979 1331.26Z" fill="#54AFB2"/>
<path fill-rule="evenodd" clip-rule="evenodd" d="M916.182 1333.22C918.984 1330.83 920.643 1329.74 923.905 1328.65C928.735 1327.44 930.808 1327.59 934.42 1327.97L934.729 1327.88C933.763 1332.04 933.581 1334.29 934 1338.13L922.253 1341.51C920.87 1338.32 919.274 1336.74 917.627 1335.12C917.047 1334.54 916.459 1333.96 915.873 1333.31L916.182 1333.22Z" fill="#5B9898"/>
<path d="M933.404 1327.92C952.45 1282.11 954.655 1260.01 928.877 1233.15L938.741 1238.35C960.196 1257.29 957.51 1280.21 934.42 1327.97L933.404 1327.92Z" fill="#54AFB2"/>
<path d="M917.021 1332.64C876.7 1303.92 863.223 1286 870.674 1249.58C868.231 1252.52 866.898 1254.93 865.028 1259.57C855.361 1285.96 873.238 1308.51 916.188 1333.22L917.021 1332.64Z" fill="#54AFB2"/>
<path d="M938.457 1345.55L921.806 1350.34L921.261 1353.18L921.889 1353L939.798 1347.84L940.426 1347.66L938.457 1345.55Z" fill="#5D4227"/>
<path fill-rule="evenodd" clip-rule="evenodd" d="M926.367 1351.04L925.595 1349.92L925.541 1351.24C924.459 1351.72 923.868 1352.93 924.204 1354.1C924.571 1355.37 925.898 1356.11 927.17 1355.74C928.441 1355.37 929.175 1354.05 928.809 1352.77C928.493 1351.68 927.461 1350.98 926.367 1351.04Z" fill="#F2EFDD"/>
<path fill-rule="evenodd" clip-rule="evenodd" d="M931.484 1349.57L930.712 1348.45L930.657 1349.77C929.575 1350.25 928.985 1351.46 929.321 1352.63C929.687 1353.9 931.015 1354.63 932.286 1354.27C933.558 1353.9 934.292 1352.57 933.926 1351.3C933.61 1350.2 932.578 1349.51 931.484 1349.57Z" fill="#F2EFDD"/>
<path fill-rule="evenodd" clip-rule="evenodd" d="M936.6 1348.1L935.828 1346.98L935.773 1348.3C934.692 1348.77 934.101 1349.99 934.437 1351.15C934.803 1352.43 936.131 1353.16 937.403 1352.79C938.674 1352.43 939.408 1351.1 939.042 1349.83C938.726 1348.73 937.694 1348.03 936.6 1348.1Z" fill="#F2EFDD"/>
<path d="M1179.35 480.283L1190.32 479.516L1191.26 481.114L1190.85 481.143C1190.85 481.143 1192.19 484.649 1191.23 486.524C1190.57 487.807 1189.87 488.299 1188.46 488.593C1186.35 489.032 1184.72 489.056 1182.66 488.998C1181.16 488.956 1180.31 488.572 1179.43 487.348C1178.2 485.637 1179.05 481.968 1179.05 481.968L1178.64 481.997L1179.35 480.283Z" fill="#CF9A64"/>
<path d="M1180.71 474.373C1180.78 476.841 1180.48 478.372 1180.02 480.46" stroke="#ACACAC" stroke-width="0.446221"/>
<path d="M1184.5 474.108L1184.92 480.118" stroke="#ACACAC" stroke-width="0.446221"/>
<path d="M1188.06 473.859C1188.25 476.263 1188.76 477.729 1189.59 479.791" stroke="#ACACAC" stroke-width="0.446221"/>
<path fill-rule="evenodd" clip-rule="evenodd" d="M1211.9 428.9C1212.51 426.48 1212.75 423.955 1212.57 421.376C1211.51 406.257 1196.4 394.996 1178.83 396.226C1161.25 397.455 1147.86 410.708 1148.91 425.827C1149.1 428.437 1149.7 430.932 1150.66 433.267C1154.3 444.578 1160.93 453.044 1177.13 467.914C1182.35 465.148 1185.19 465.453 1190.71 466.965C1204.8 448.94 1210.01 439.663 1211.9 428.9Z" fill="#F3F1E5"/>
<path d="M1185.37 467.338C1192.81 427.962 1192 409.186 1180.85 396.308C1182.26 396.132 1185.23 395.889 1191.92 397.994C1205.89 413.878 1203.93 431.464 1188.7 467.105C1187.42 467.396 1186.68 467.434 1185.37 467.338Z" fill="#D8712E"/>
<path d="M1182.25 467.556C1169.4 429.599 1167.58 410.894 1176.84 396.589C1175.42 396.61 1172.44 396.784 1166.1 399.8C1154.49 417.472 1158.87 434.615 1178.91 467.79C1180.22 467.899 1180.96 467.834 1182.25 467.556Z" fill="#D8712E"/>
<path fill-rule="evenodd" clip-rule="evenodd" d="M1177.35 467.898C1179.6 466.686 1180.88 466.185 1183.25 465.92C1186.71 465.799 1188.09 466.201 1190.48 466.98L1177.35 467.898ZM1178.06 469.397C1178.94 470.737 1179.79 472.036 1180.27 474.404L1188.73 473.813C1189 471.149 1189.45 469.649 1190.71 466.965L1177.13 467.914C1177.43 468.446 1177.75 468.924 1178.06 469.397Z" fill="#BD5428"/>
<path d="M1189.8 466.804C1209.36 438.493 1214.06 423.822 1200.47 401.869L1206.41 406.822C1218.21 422.779 1213.07 437.939 1190.48 466.98L1189.8 466.804Z" fill="#D8712E"/>
<path d="M1178.01 467.629C1154.82 442.307 1148.28 428.198 1158.61 404.573C1156.53 406.213 1155.27 407.658 1153.33 410.533C1142.95 427.027 1151.81 444.918 1177.36 467.898L1178.01 467.629Z" fill="#D8712E"/>
<path d="M1190.67 479.491L1178.68 480.33L1177.9 482.174L1178.36 482.142L1191.25 481.24L1191.7 481.209L1190.67 479.491Z" fill="#5D4227"/>
<path fill-rule="evenodd" clip-rule="evenodd" d="M1181.68 481.467L1181.32 480.593L1181.09 481.482C1180.28 481.648 1179.71 482.386 1179.77 483.226C1179.83 484.141 1180.62 484.831 1181.54 484.767C1182.46 484.703 1183.15 483.909 1183.08 482.994C1183.03 482.204 1182.43 481.581 1181.68 481.467Z" fill="#F2EFDD"/>
<path fill-rule="evenodd" clip-rule="evenodd" d="M1185.36 481.209L1185 480.336L1184.77 481.225C1183.97 481.39 1183.39 482.128 1183.45 482.968C1183.51 483.884 1184.31 484.574 1185.22 484.51C1186.14 484.446 1186.83 483.652 1186.77 482.736C1186.71 481.946 1186.11 481.324 1185.36 481.209Z" fill="#F2EFDD"/>
<path fill-rule="evenodd" clip-rule="evenodd" d="M1189.04 480.952L1188.68 480.078L1188.45 480.967C1187.65 481.133 1187.08 481.87 1187.13 482.71C1187.2 483.626 1187.99 484.316 1188.91 484.252C1189.82 484.188 1190.51 483.394 1190.45 482.479C1190.39 481.689 1189.8 481.066 1189.04 480.952Z" fill="#F2EFDD"/>
<path d="M90.3513 2191.28L101.319 2190.52L102.263 2192.11L101.849 2192.14C101.849 2192.14 103.185 2195.65 102.225 2197.52C101.568 2198.81 100.871 2199.3 99.4585 2199.59C97.3518 2200.03 95.7215 2200.06 93.6641 2200C92.1578 2199.96 91.3083 2199.57 90.4294 2198.35C89.201 2196.64 90.0532 2192.97 90.0532 2192.97L89.6393 2193L90.3513 2191.28Z" fill="#CF9A64"/>
<path d="M91.7132 2185.37C91.7752 2187.84 91.4751 2189.37 91.0206 2191.46" stroke="#ACACAC" stroke-width="0.446221"/>
<path d="M95.497 2185.11L95.9172 2191.12" stroke="#ACACAC" stroke-width="0.446221"/>
<path d="M99.058 2184.86C99.2508 2187.26 99.7631 2188.73 100.591 2190.79" stroke="#ACACAC" stroke-width="0.446221"/>
<path fill-rule="evenodd" clip-rule="evenodd" d="M122.899 2139.9C123.509 2137.48 123.749 2134.95 123.569 2132.38C122.511 2117.26 107.405 2106 89.8272 2107.23C72.2496 2108.45 58.8572 2121.71 59.9144 2136.83C60.0969 2139.44 60.6981 2141.93 61.6583 2144.27C65.3016 2155.58 71.9339 2164.04 88.1305 2178.91C93.352 2176.15 96.1863 2176.45 101.707 2177.96C115.798 2159.94 121.007 2150.66 122.899 2139.9Z" fill="#F3F1E5"/>
<path d="M96.3655 2178.34C103.807 2138.96 103.004 2120.19 91.8459 2107.31C93.2568 2107.13 96.2279 2106.89 102.923 2108.99C116.886 2124.88 114.932 2142.46 99.704 2178.1C98.4161 2178.4 97.6797 2178.43 96.3655 2178.34Z" fill="#D8712E"/>
<path d="M93.2466 2178.56C80.3975 2140.6 78.5791 2121.89 87.8368 2107.59C86.415 2107.61 83.4391 2107.78 77.1022 2110.8C65.4852 2128.47 69.8681 2145.62 89.9081 2178.79C91.224 2178.9 91.9585 2178.83 93.2466 2178.56Z" fill="#D8712E"/>
<path fill-rule="evenodd" clip-rule="evenodd" d="M88.3531 2178.9C90.599 2177.69 91.8829 2177.18 94.2534 2176.92C97.7051 2176.8 99.0893 2177.2 101.485 2177.98L88.3531 2178.9ZM89.0577 2180.4C89.939 2181.74 90.7932 2183.04 91.2681 2185.4L99.7257 2184.81C99.9984 2182.15 100.448 2180.65 101.707 2177.96L88.1304 2178.91C88.4326 2179.45 88.7468 2179.92 89.0577 2180.4Z" fill="#BD5428"/>
<path d="M100.801 2177.8C120.36 2149.49 125.06 2134.82 111.469 2112.87L117.407 2117.82C129.214 2133.78 124.068 2148.94 101.484 2177.98L100.801 2177.8Z" fill="#D8712E"/>
<path d="M89.0052 2178.63C65.8203 2153.31 59.2767 2139.2 69.611 2115.57C67.5278 2117.21 66.2742 2118.66 64.3332 2121.53C53.9512 2138.03 62.8065 2155.92 88.3569 2178.9L89.0052 2178.63Z" fill="#D8712E"/>
<path d="M101.674 2190.49L89.6843 2191.33L88.9039 2193.17L89.3564 2193.14L102.251 2192.24L102.703 2192.21L101.674 2190.49Z" fill="#5D4227"/>
<path fill-rule="evenodd" clip-rule="evenodd" d="M92.6766 2192.47L92.3159 2191.59L92.0871 2192.48C91.2844 2192.65 90.708 2193.39 90.7668 2194.23C90.8308 2195.14 91.6249 2195.83 92.5404 2195.77C93.456 2195.7 94.1463 2194.91 94.0823 2193.99C94.027 2193.2 93.4281 2192.58 92.6766 2192.47Z" fill="#F2EFDD"/>
<path fill-rule="evenodd" clip-rule="evenodd" d="M96.3605 2192.21L95.9998 2191.34L95.771 2192.22C94.9683 2192.39 94.3919 2193.13 94.4507 2193.97C94.5147 2194.88 95.3088 2195.57 96.2243 2195.51C97.1399 2195.45 97.8302 2194.65 97.7662 2193.74C97.7109 2192.95 97.112 2192.32 96.3605 2192.21Z" fill="#F2EFDD"/>
<path fill-rule="evenodd" clip-rule="evenodd" d="M100.044 2191.95L99.6837 2191.08L99.4548 2191.97C98.6521 2192.13 98.0758 2192.87 98.1345 2193.71C98.1985 2194.63 98.9926 2195.32 99.9082 2195.25C100.824 2195.19 101.514 2194.39 101.45 2193.48C101.395 2192.69 100.796 2192.07 100.044 2191.95Z" fill="#F2EFDD"/>
<defs>
<filter id="filter0_i_2_1441" x="1213" y="534" width="110" height="68" filterUnits="userSpaceOnUse" color-interpolation-filters="sRGB">
<feFlood flood-opacity="0" result="BackgroundImageFix"/>
<feBlend mode="normal" in="SourceGraphic" in2="BackgroundImageFix" result="shape"/>
<feColorMatrix in="SourceAlpha" type="matrix" values="0 0 0 0 0 0 0 0 0 0 0 0 0 0 0 0 0 0 127 0" result="hardAlpha"/>
<feOffset dx="-12" dy="-12"/>
<feGaussianBlur stdDeviation="12"/>
<feComposite in2="hardAlpha" operator="arithmetic" k2="-1" k3="1"/>
<feColorMatrix type="matrix" values="0 0 0 0 0.74902 0 0 0 0 0.878431 0 0 0 0 1 0 0 0 1 0"/>
<feBlend mode="normal" in2="shape" result="effect1_innerShadow_2_1441"/>
</filter>
<filter id="filter1_i_2_1441" x="438" y="1406" width="110" height="68" filterUnits="userSpaceOnUse" color-interpolation-filters="sRGB">
<feFlood flood-opacity="0" result="BackgroundImageFix"/>
<feBlend mode="normal" in="SourceGraphic" in2="BackgroundImageFix" result="shape"/>
<feColorMatrix in="SourceAlpha" type="matrix" values="0 0 0 0 0 0 0 0 0 0 0 0 0 0 0 0 0 0 127 0" result="hardAlpha"/>
<feOffset dx="-12" dy="-12"/>
<feGaussianBlur stdDeviation="12"/>
<feComposite in2="hardAlpha" operator="arithmetic" k2="-1" k3="1"/>
<feColorMatrix type="matrix" values="0 0 0 0 0.74902 0 0 0 0 0.878431 0 0 0 0 1 0 0 0 1 0"/>
<feBlend mode="normal" in2="shape" result="effect1_innerShadow_2_1441"/>
</filter>
<filter id="filter2_i_2_1441" x="91.0002" y="1307" width="110" height="68" filterUnits="userSpaceOnUse" color-interpolation-filters="sRGB">
<feFlood flood-opacity="0" result="BackgroundImageFix"/>
<feBlend mode="normal" in="SourceGraphic" in2="BackgroundImageFix" result="shape"/>
<feColorMatrix in="SourceAlpha" type="matrix" values="0 0 0 0 0 0 0 0 0 0 0 0 0 0 0 0 0 0 127 0" result="hardAlpha"/>
<feOffset dx="-12" dy="-12"/>
<feGaussianBlur stdDeviation="12"/>
<feComposite in2="hardAlpha" operator="arithmetic" k2="-1" k3="1"/>
<feColorMatrix type="matrix" values="0 0 0 0 0.74902 0 0 0 0 0.878431 0 0 0 0 1 0 0 0 1 0"/>
<feBlend mode="normal" in2="shape" result="effect1_innerShadow_2_1441"/>
</filter>
<filter id="filter3_i_2_1441" x="911" y="1608" width="110" height="68" filterUnits="userSpaceOnUse" color-interpolation-filters="sRGB">
<feFlood flood-opacity="0" result="BackgroundImageFix"/>
<feBlend mode="normal" in="SourceGraphic" in2="BackgroundImageFix" result="shape"/>
<feColorMatrix in="SourceAlpha" type="matrix" values="0 0 0 0 0 0 0 0 0 0 0 0 0 0 0 0 0 0 127 0" result="hardAlpha"/>
<feOffset dx="-12" dy="-12"/>
<feGaussianBlur stdDeviation="12"/>
<feComposite in2="hardAlpha" operator="arithmetic" k2="-1" k3="1"/>
<feColorMatrix type="matrix" values="0 0 0 0 0.74902 0 0 0 0 0.878431 0 0 0 0 1 0 0 0 1 0"/>
<feBlend mode="normal" in2="shape" result="effect1_innerShadow_2_1441"/>
</filter>
<filter id="filter4_i_2_1441" x="1597" y="1165" width="110" height="68" filterUnits="userSpaceOnUse" color-interpolation-filters="sRGB">
<feFlood flood-opacity="0" result="BackgroundImageFix"/>
<feBlend mode="normal" in="SourceGraphic" in2="BackgroundImageFix" result="shape"/>
<feColorMatrix in="SourceAlpha" type="matrix" values="0 0 0 0 0 0 0 0 0 0 0 0 0 0 0 0 0 0 127 0" result="hardAlpha"/>
<feOffset dx="-12" dy="-12"/>
<feGaussianBlur stdDeviation="12"/>
<feComposite in2="hardAlpha" operator="arithmetic" k2="-1" k3="1"/>
<feColorMatrix type="matrix" values="0 0 0 0 0.74902 0 0 0 0 0.878431 0 0 0 0 1 0 0 0 1 0"/>
<feBlend mode="normal" in2="shape" result="effect1_innerShadow_2_1441"/>
</filter>
<filter id="filter5_i_2_1441" x="593" y="2017" width="110" height="68" filterUnits="userSpaceOnUse" color-interpolation-filters="sRGB">
<feFlood flood-opacity="0" result="BackgroundImageFix"/>
<feBlend mode="normal" in="SourceGraphic" in2="BackgroundImageFix" result="shape"/>
<feColorMatrix in="SourceAlpha" type="matrix" values="0 0 0 0 0 0 0 0 0 0 0 0 0 0 0 0 0 0 127 0" result="hardAlpha"/>
<feOffset dx="-12" dy="-12"/>
<feGaussianBlur stdDeviation="12"/>
<feComposite in2="hardAlpha" operator="arithmetic" k2="-1" k3="1"/>
<feColorMatrix type="matrix" values="0 0 0 0 0.74902 0 0 0 0 0.878431 0 0 0 0 1 0 0 0 1 0"/>
<feBlend mode="normal" in2="shape" result="effect1_innerShadow_2_1441"/>
</filter>
<filter id="filter6_i_2_1441" x="706" y="316" width="189.035" height="117" filterUnits="userSpaceOnUse" color-interpolation-filters="sRGB">
<feFlood flood-opacity="0" result="BackgroundImageFix"/>
<feBlend mode="normal" in="SourceGraphic" in2="BackgroundImageFix" result="shape"/>
<feColorMatrix in="SourceAlpha" type="matrix" values="0 0 0 0 0 0 0 0 0 0 0 0 0 0 0 0 0 0 127 0" result="hardAlpha"/>
<feOffset dx="-12" dy="-12"/>
<feGaussianBlur stdDeviation="12"/>
<feComposite in2="hardAlpha" operator="arithmetic" k2="-1" k3="1"/>
<feColorMatrix type="matrix" values="0 0 0 0 0.74902 0 0 0 0 0.878431 0 0 0 0 1 0 0 0 1 0"/>
<feBlend mode="normal" in2="shape" result="effect1_innerShadow_2_1441"/>
</filter>
<filter id="filter7_i_2_1441" x="1513" y="369" width="185.66" height="116" filterUnits="userSpaceOnUse" color-interpolation-filters="sRGB">
<feFlood flood-opacity="0" result="BackgroundImageFix"/>
<feBlend mode="normal" in="SourceGraphic" in2="BackgroundImageFix" result="shape"/>
<feColorMatrix in="SourceAlpha" type="matrix" values="0 0 0 0 0 0 0 0 0 0 0 0 0 0 0 0 0 0 127 0" result="hardAlpha"/>
<feOffset dx="-12" dy="-12"/>
<feGaussianBlur stdDeviation="12"/>
<feComposite in2="hardAlpha" operator="arithmetic" k2="-1" k3="1"/>
<feColorMatrix type="matrix" values="0 0 0 0 0.74902 0 0 0 0 0.878431 0 0 0 0 1 0 0 0 1 0"/>
<feBlend mode="normal" in2="shape" result="effect1_innerShadow_2_1441"/>
</filter>
<filter id="filter8_i_2_1441" x="47.0001" y="838" width="185.661" height="116" filterUnits="userSpaceOnUse" color-interpolation-filters="sRGB">
<feFlood flood-opacity="0" result="BackgroundImageFix"/>
<feBlend mode="normal" in="SourceGraphic" in2="BackgroundImageFix" result="shape"/>
<feColorMatrix in="SourceAlpha" type="matrix" values="0 0 0 0 0 0 0 0 0 0 0 0 0 0 0 0 0 0 127 0" result="hardAlpha"/>
<feOffset dx="-12" dy="-12"/>
<feGaussianBlur stdDeviation="12"/>
<feComposite in2="hardAlpha" operator="arithmetic" k2="-1" k3="1"/>
<feColorMatrix type="matrix" values="0 0 0 0 0.74902 0 0 0 0 0.878431 0 0 0 0 1 0 0 0 1 0"/>
<feBlend mode="normal" in2="shape" result="effect1_innerShadow_2_1441"/>
</filter>
<filter id="filter9_i_2_1441" x="971" y="1046" width="185.66" height="116" filterUnits="userSpaceOnUse" color-interpolation-filters="sRGB">
<feFlood flood-opacity="0" result="BackgroundImageFix"/>
<feBlend mode="normal" in="SourceGraphic" in2="BackgroundImageFix" result="shape"/>
<feColorMatrix in="SourceAlpha" type="matrix" values="0 0 0 0 0 0 0 0 0 0 0 0 0 0 0 0 0 0 127 0" result="hardAlpha"/>
<feOffset dx="-12" dy="-12"/>
<feGaussianBlur stdDeviation="12"/>
<feComposite in2="hardAlpha" operator="arithmetic" k2="-1" k3="1"/>
<feColorMatrix type="matrix" values="0 0 0 0 0.74902 0 0 0 0 0.878431 0 0 0 0 1 0 0 0 1 0"/>
<feBlend mode="normal" in2="shape" result="effect1_innerShadow_2_1441"/>
</filter>
<filter id="filter10_i_2_1441" x="1267" y="1783" width="185.66" height="116" filterUnits="userSpaceOnUse" color-interpolation-filters="sRGB">
<feFlood flood-opacity="0" result="BackgroundImageFix"/>
<feBlend mode="normal" in="SourceGraphic" in2="BackgroundImageFix" result="shape"/>
<feColorMatrix in="SourceAlpha" type="matrix" values="0 0 0 0 0 0 0 0 0 0 0 0 0 0 0 0 0 0 127 0" result="hardAlpha"/>
<feOffset dx="-12" dy="-12"/>
<feGaussianBlur stdDeviation="12"/>
<feComposite in2="hardAlpha" operator="arithmetic" k2="-1" k3="1"/>
<feColorMatrix type="matrix" values="0 0 0 0 0.74902 0 0 0 0 0.878431 0 0 0 0 1 0 0 0 1 0"/>
<feBlend mode="normal" in2="shape" result="effect1_innerShadow_2_1441"/>
</filter>
<filter id="filter11_i_2_1441" x="85.0002" y="1753" width="185.66" height="116" filterUnits="userSpaceOnUse" color-interpolation-filters="sRGB">
<feFlood flood-opacity="0" result="BackgroundImageFix"/>
<feBlend mode="normal" in="SourceGraphic" in2="BackgroundImageFix" result="shape"/>
<feColorMatrix in="SourceAlpha" type="matrix" values="0 0 0 0 0 0 0 0 0 0 0 0 0 0 0 0 0 0 127 0" result="hardAlpha"/>
<feOffset dx="-12" dy="-12"/>
<feGaussianBlur stdDeviation="12"/>
<feComposite in2="hardAlpha" operator="arithmetic" k2="-1" k3="1"/>
<feColorMatrix type="matrix" values="0 0 0 0 0.74902 0 0 0 0 0.878431 0 0 0 0 1 0 0 0 1 0"/>
<feBlend mode="normal" in2="shape" result="effect1_innerShadow_2_1441"/>
</filter>
</defs>
</svg>
