<svg width="1386" height="800" viewBox="0 0 1386 800" fill="none" xmlns="http://www.w3.org/2000/svg">
<path d="M0 0H1386V800H0V0Z" fill="#74ACDF"/>
<mask id="mask0_210_48" style="mask-type:alpha" maskUnits="userSpaceOnUse" x="0" y="0" width="1386" height="800">
<path d="M0 0H1386V800H0V0Z" fill="#74ACDF"/>
</mask>
<g mask="url(#mask0_210_48)">
<path d="M-175 3L-37 -132L1602 867L1160 1392L-175 3Z" fill="white" fill-opacity="0.1"/>
<path d="M499.5 -37.5L563 -71.5L2177 355L1932 657.5L499.5 -37.5Z" fill="white" fill-opacity="0.1"/>
</g>
<path d="M49 50.537L550 32L403.893 175L62.2423 146.598L49 50.537Z" fill="#9E571E"/>
<path d="M42 41H530L397.504 163L54.5408 139.709L42 41Z" fill="#FFC941"/>
<path d="M903 667H1367V787L928.597 746.331L903 667Z" fill="white" fill-opacity="0.4"/>
<path d="M895 657H1359V777L920.597 736.331L895 657Z" fill="white"/>
<path d="M907.707 582H921.707L917.707 647L908.479 642.436L907.707 582Z" fill="white" fill-opacity="0.4"/>
<path d="M842.675 610.627L861.207 600.5L895.707 647.5L886.193 652.57L842.675 610.627Z" fill="white" fill-opacity="0.4"/>
<path d="M843.207 687L837 670.364L884 662.335L884.706 674.5L843.207 687Z" fill="white" fill-opacity="0.4"/>
<path d="M904 579H918L914 644L904.772 639.436L904 579Z" fill="white"/>
<path d="M838.968 608.627L857.5 598.5L892 645.5L882.487 650.57L838.968 608.627Z" fill="white"/>
<path d="M839.5 684L833.293 667.364L880.293 659.335L881 671.5L839.5 684Z" fill="white"/>
<path d="M393.351 156.812L512.368 41H530L397.632 163L55 139.709L393.351 156.812Z" fill="#F6B40E"/>
<path d="M127.06 94.845C127.537 94.845 127.903 95.0833 128.16 95.56C128.453 96 128.6 96.5683 128.6 97.265C128.6 98.1083 128.472 98.7683 128.215 99.245C127.958 99.7217 127.555 100.143 127.005 100.51C124.842 101.94 121.395 104.287 116.665 107.55C115.235 115.14 113.383 121.117 111.11 125.48C108.837 129.843 105.958 132.025 102.475 132.025C100.605 132.025 99.0833 131.438 97.91 130.265C96.7367 129.128 96.15 127.625 96.15 125.755C96.15 124.032 96.535 122.29 97.305 120.53C98.075 118.77 99.505 116.735 101.595 114.425C103.722 112.115 106.71 109.475 110.56 106.505L110.725 105.46C107.828 106.67 104.987 107.275 102.2 107.275C98.0933 107.275 94.4817 106.487 91.365 104.91C88.2483 103.297 85.8283 101.023 84.105 98.09C82.3817 95.1567 81.52 91.7467 81.52 87.86C81.52 82.4333 82.5467 77.6483 84.6 73.505C86.6533 69.325 89.4767 66.0983 93.07 63.825C96.7 61.515 100.752 60.36 105.225 60.36C109.515 60.36 112.723 61.3683 114.85 63.385C117.013 65.365 118.095 68.005 118.095 71.305C118.095 73.4683 117.692 75.21 116.885 76.53C116.115 77.8133 114.997 78.455 113.53 78.455C112.54 78.455 111.733 78.2167 111.11 77.74C110.523 77.2633 110.23 76.6033 110.23 75.76C110.23 75.3933 110.303 74.77 110.45 73.89C110.67 72.8633 110.78 72.0567 110.78 71.47C110.78 69.93 110.303 68.7383 109.35 67.895C108.433 67.0517 106.875 66.63 104.675 66.63C101.998 66.63 99.505 67.4 97.195 68.94C94.9217 70.48 93.0883 72.79 91.695 75.87C90.3017 78.9133 89.605 82.58 89.605 86.87C89.605 91.27 90.7967 94.68 93.18 97.1C95.6 99.4833 99.0833 100.675 103.63 100.675C106.16 100.675 108.8 100.107 111.55 98.97L112.32 92.26H106.71C105.683 92.26 104.895 92.0217 104.345 91.545C103.795 91.0317 103.52 90.2067 103.52 89.07C103.52 88.0433 103.795 87.2367 104.345 86.65C104.895 86.0633 105.628 85.77 106.545 85.77H116.83C117.637 85.77 118.297 86.045 118.81 86.595C119.36 87.1083 119.58 87.86 119.47 88.85C119.36 90.0233 118.993 92.6817 118.37 96.825L117.765 101.005C120.698 98.805 123.375 96.8983 125.795 95.285C126.272 94.9917 126.693 94.845 127.06 94.845ZM103.08 126.69C104.033 126.69 105.078 125.608 106.215 123.445C107.352 121.282 108.415 117.798 109.405 112.995C106.618 115.378 104.602 117.523 103.355 119.43C102.145 121.373 101.54 123.078 101.54 124.545C101.54 125.975 102.053 126.69 103.08 126.69ZM128.534 107.275C127.141 107.275 126.151 106.542 125.564 105.075C125.014 103.608 124.739 101.262 124.739 98.035C124.739 93.2683 125.418 88.74 126.774 84.45C127.104 83.3867 127.636 82.6167 128.369 82.14C129.139 81.6267 130.203 81.37 131.559 81.37C132.293 81.37 132.806 81.4617 133.099 81.645C133.393 81.8283 133.539 82.1767 133.539 82.69C133.539 83.2767 133.264 84.5967 132.714 86.65C132.348 88.1167 132.054 89.4 131.834 90.5C131.614 91.6 131.431 92.9567 131.284 94.57C132.494 91.4167 133.851 88.85 135.354 86.87C136.858 84.89 138.324 83.4783 139.754 82.635C141.221 81.7917 142.559 81.37 143.769 81.37C146.153 81.37 147.344 82.5617 147.344 84.945C147.344 85.4217 147.179 86.5767 146.849 88.41C146.556 89.8767 146.409 90.7933 146.409 91.16C146.409 92.4433 146.868 93.085 147.784 93.085C148.811 93.085 150.131 92.2783 151.744 90.665C152.221 90.1883 152.716 89.95 153.229 89.95C153.706 89.95 154.073 90.17 154.329 90.61C154.623 91.0133 154.769 91.5633 154.769 92.26C154.769 93.6167 154.403 94.68 153.669 95.45C152.643 96.5133 151.433 97.43 150.039 98.2C148.683 98.9333 147.234 99.3 145.694 99.3C143.751 99.3 142.266 98.805 141.239 97.815C140.249 96.825 139.754 95.4867 139.754 93.8C139.754 93.25 139.809 92.7 139.919 92.15C139.993 91.4167 140.029 90.9217 140.029 90.665C140.029 90.0783 139.828 89.785 139.424 89.785C138.874 89.785 138.141 90.4083 137.224 91.655C136.344 92.865 135.464 94.4783 134.584 96.495C133.704 98.5117 132.989 100.638 132.439 102.875C132.036 104.598 131.559 105.772 131.009 106.395C130.496 106.982 129.671 107.275 128.534 107.275ZM174.189 94.735C174.665 94.735 175.032 94.955 175.289 95.395C175.582 95.835 175.729 96.44 175.729 97.21C175.729 98.6767 175.38 99.8133 174.684 100.62C173.327 102.27 171.402 103.792 168.909 105.185C166.452 106.578 163.812 107.275 160.989 107.275C157.139 107.275 154.15 106.23 152.024 104.14C149.897 102.05 148.834 99.19 148.834 95.56C148.834 93.03 149.365 90.6833 150.429 88.52C151.492 86.32 152.959 84.5783 154.829 83.295C156.735 82.0117 158.88 81.37 161.264 81.37C163.39 81.37 165.095 82.0117 166.379 83.295C167.662 84.5417 168.304 86.2467 168.304 88.41C168.304 90.94 167.387 93.1217 165.554 94.955C163.757 96.7517 160.695 98.1817 156.369 99.245C157.285 100.932 159.027 101.775 161.594 101.775C163.244 101.775 165.114 101.207 167.204 100.07C169.33 98.8967 171.164 97.375 172.704 95.505C173.144 94.9917 173.639 94.735 174.189 94.735ZM160.329 86.76C158.972 86.76 157.817 87.5483 156.864 89.125C155.947 90.7017 155.489 92.6083 155.489 94.845V94.955C157.652 94.4417 159.357 93.6717 160.604 92.645C161.85 91.6183 162.474 90.4267 162.474 89.07C162.474 88.3733 162.272 87.8233 161.869 87.42C161.502 86.98 160.989 86.76 160.329 86.76ZM195.78 94.735C196.257 94.735 196.624 94.955 196.88 95.395C197.174 95.835 197.32 96.44 197.32 97.21C197.32 98.6767 196.972 99.8133 196.275 100.62C194.919 102.27 192.994 103.792 190.5 105.185C188.044 106.578 185.404 107.275 182.58 107.275C178.73 107.275 175.742 106.23 173.615 104.14C171.489 102.05 170.425 99.19 170.425 95.56C170.425 93.03 170.957 90.6833 172.02 88.52C173.084 86.32 174.55 84.5783 176.42 83.295C178.327 82.0117 180.472 81.37 182.855 81.37C184.982 81.37 186.687 82.0117 187.97 83.295C189.254 84.5417 189.895 86.2467 189.895 88.41C189.895 90.94 188.979 93.1217 187.145 94.955C185.349 96.7517 182.287 98.1817 177.96 99.245C178.877 100.932 180.619 101.775 183.185 101.775C184.835 101.775 186.705 101.207 188.795 100.07C190.922 98.8967 192.755 97.375 194.295 95.505C194.735 94.9917 195.23 94.735 195.78 94.735ZM181.92 86.76C180.564 86.76 179.409 87.5483 178.455 89.125C177.539 90.7017 177.08 92.6083 177.08 94.845V94.955C179.244 94.4417 180.949 93.6717 182.195 92.645C183.442 91.6183 184.065 90.4267 184.065 89.07C184.065 88.3733 183.864 87.8233 183.46 87.42C183.094 86.98 182.58 86.76 181.92 86.76ZM217.372 94.735C217.849 94.735 218.215 94.955 218.472 95.395C218.765 95.835 218.912 96.44 218.912 97.21C218.912 98.6767 218.564 99.8133 217.867 100.62C216.29 102.563 214.567 104.158 212.697 105.405C210.827 106.652 208.682 107.275 206.262 107.275C198.782 107.275 195.042 102.013 195.042 91.49C195.042 89.8767 195.097 88.245 195.207 86.595H193.062C191.962 86.595 191.21 86.3933 190.807 85.99C190.44 85.5867 190.257 84.945 190.257 84.065C190.257 82.0117 191.082 80.985 192.732 80.985H195.867C196.49 76.9517 197.444 73.2667 198.727 69.93C200.01 66.5933 201.55 63.935 203.347 61.955C205.18 59.975 207.142 58.985 209.232 58.985C210.772 58.985 211.982 59.6633 212.862 61.02C213.742 62.3767 214.182 64.0817 214.182 66.135C214.182 71.8183 211.799 76.7683 207.032 80.985H213.192C213.779 80.985 214.2 81.1133 214.457 81.37C214.714 81.6267 214.842 82.1033 214.842 82.8C214.842 85.33 212.77 86.595 208.627 86.595H201.917C201.844 88.4283 201.807 89.8583 201.807 90.885C201.807 94.6983 202.247 97.375 203.127 98.915C204.044 100.455 205.474 101.225 207.417 101.225C208.994 101.225 210.387 100.748 211.597 99.795C212.807 98.8417 214.237 97.4117 215.887 95.505C216.327 94.9917 216.822 94.735 217.372 94.735ZM207.747 64.265C207.197 64.265 206.574 64.9617 205.877 66.355C205.217 67.7117 204.575 69.6183 203.952 72.075C203.365 74.495 202.87 77.19 202.467 80.16C204.63 78.29 206.244 76.2 207.307 73.89C208.407 71.5433 208.957 69.4167 208.957 67.51C208.957 65.3467 208.554 64.265 207.747 64.265ZM221.639 77.74C220.099 77.74 218.944 77.3917 218.174 76.695C217.404 75.9617 217.019 74.9533 217.019 73.67C217.019 72.3867 217.514 71.3233 218.504 70.48C219.531 69.6 220.796 69.16 222.299 69.16C223.656 69.16 224.756 69.49 225.599 70.15C226.442 70.81 226.864 71.745 226.864 72.955C226.864 74.4217 226.387 75.595 225.434 76.475C224.481 77.3183 223.216 77.74 221.639 77.74ZM221.199 107.275C218.816 107.275 217.074 106.432 215.974 104.745C214.911 103.058 214.379 100.822 214.379 98.035C214.379 96.385 214.581 94.2767 214.984 91.71C215.424 89.1067 215.974 86.6867 216.634 84.45C216.964 83.2767 217.404 82.47 217.954 82.03C218.504 81.59 219.384 81.37 220.594 81.37C222.464 81.37 223.399 81.9933 223.399 83.24C223.399 84.1567 223.051 86.2833 222.354 89.62C221.474 93.6533 221.034 96.385 221.034 97.815C221.034 98.915 221.181 99.7583 221.474 100.345C221.767 100.932 222.262 101.225 222.959 101.225C223.619 101.225 224.444 100.767 225.434 99.85C226.424 98.9333 227.744 97.485 229.394 95.505C229.834 94.9917 230.329 94.735 230.879 94.735C231.356 94.735 231.722 94.955 231.979 95.395C232.272 95.835 232.419 96.44 232.419 97.21C232.419 98.6767 232.071 99.8133 231.374 100.62C227.744 105.057 224.352 107.275 221.199 107.275ZM231.874 107.275C230.481 107.275 229.491 106.542 228.904 105.075C228.354 103.608 228.079 101.262 228.079 98.035C228.079 93.2683 228.757 88.74 230.114 84.45C230.444 83.3867 230.976 82.6167 231.709 82.14C232.479 81.6267 233.542 81.37 234.899 81.37C235.632 81.37 236.146 81.4617 236.439 81.645C236.732 81.8283 236.879 82.1767 236.879 82.69C236.879 83.2767 236.604 84.5967 236.054 86.65C235.687 88.1167 235.394 89.4 235.174 90.5C234.954 91.6 234.771 92.9567 234.624 94.57C235.834 91.4167 237.191 88.85 238.694 86.87C240.197 84.89 241.664 83.4783 243.094 82.635C244.561 81.7917 245.899 81.37 247.109 81.37C249.492 81.37 250.684 82.5617 250.684 84.945C250.684 86.375 250.281 88.96 249.474 92.7C248.777 95.89 248.429 97.9983 248.429 99.025C248.429 100.492 248.961 101.225 250.024 101.225C250.757 101.225 251.619 100.785 252.609 99.905C253.636 98.9883 254.992 97.5217 256.679 95.505C257.119 94.9917 257.614 94.735 258.164 94.735C258.641 94.735 259.007 94.955 259.264 95.395C259.557 95.835 259.704 96.44 259.704 97.21C259.704 98.6767 259.356 99.8133 258.659 100.62C257.082 102.563 255.377 104.158 253.544 105.405C251.747 106.652 249.694 107.275 247.384 107.275C245.514 107.275 244.102 106.743 243.149 105.68C242.196 104.58 241.719 103.003 241.719 100.95C241.719 99.9233 241.976 98.09 242.489 95.45C242.966 93.14 243.204 91.545 243.204 90.665C243.204 90.0783 243.002 89.785 242.599 89.785C242.122 89.785 241.444 90.4083 240.564 91.655C239.721 92.865 238.841 94.4783 237.924 96.495C237.044 98.5117 236.329 100.638 235.779 102.875C235.376 104.598 234.899 105.772 234.349 106.395C233.836 106.982 233.011 107.275 231.874 107.275ZM273.899 83.185C274.816 83.185 275.458 83.3317 275.824 83.625C276.228 83.8817 276.429 84.4133 276.429 85.22C276.429 85.66 276.411 86.0083 276.374 86.265C276.228 87.4017 275.769 90.335 274.999 95.065C274.449 98.255 274.101 100.363 273.954 101.39C272.561 110.85 270.673 118.312 268.289 123.775C265.943 129.275 262.789 132.025 258.829 132.025C256.959 132.025 255.438 131.438 254.264 130.265C253.091 129.128 252.504 127.625 252.504 125.755C252.504 123.152 253.531 120.347 255.584 117.34C257.638 114.37 261.488 110.703 267.134 106.34L267.464 104.195C266.841 105.185 266.016 105.955 264.989 106.505C263.999 107.018 263.009 107.275 262.019 107.275C259.746 107.275 257.931 106.45 256.574 104.8C255.218 103.15 254.539 100.987 254.539 98.31C254.539 95.3767 255.218 92.6083 256.574 90.005C257.931 87.365 259.728 85.2567 261.964 83.68C264.238 82.0667 266.639 81.26 269.169 81.26C269.976 81.26 270.508 81.425 270.764 81.755C271.058 82.0483 271.296 82.5983 271.479 83.405C272.176 83.2583 272.983 83.185 273.899 83.185ZM263.999 101.72C264.843 101.72 265.649 101.207 266.419 100.18C267.189 99.1533 267.739 97.6867 268.069 95.78L269.829 86.375C268.326 86.4117 266.933 86.9983 265.649 88.135C264.366 89.235 263.339 90.7017 262.569 92.535C261.799 94.3683 261.414 96.3117 261.414 98.365C261.414 99.5017 261.634 100.345 262.074 100.895C262.551 101.445 263.193 101.72 263.999 101.72ZM259.434 126.69C260.351 126.69 261.378 125.59 262.514 123.39C263.688 121.19 264.806 117.688 265.869 112.885C263.046 115.305 261.011 117.487 259.764 119.43C258.518 121.373 257.894 123.078 257.894 124.545C257.894 125.168 258.004 125.682 258.224 126.085C258.481 126.488 258.884 126.69 259.434 126.69ZM289.923 108.485C288.016 108.485 286.549 108.045 285.523 107.165C284.533 106.285 284.038 105.295 284.038 104.195C284.038 103.242 284.386 102.417 285.083 101.72C285.779 101.023 286.806 100.675 288.163 100.675C288.639 100.675 289.189 100.73 289.813 100.84C290.473 100.913 290.968 100.968 291.298 101.005C291.261 100.052 291.041 99.1533 290.638 98.31C290.271 97.4667 289.794 96.66 289.208 95.89C288.621 95.0833 288.071 94.3867 287.558 93.8C286.421 95.9633 285.284 97.76 284.148 99.19C283.048 100.62 281.838 101.977 280.518 103.26C279.858 103.92 279.161 104.25 278.428 104.25C277.841 104.25 277.364 104.048 276.998 103.645C276.631 103.205 276.448 102.673 276.448 102.05C276.448 101.317 276.704 100.638 277.218 100.015L277.933 99.135C279.949 96.6417 281.471 94.5883 282.498 92.975C283.158 91.9117 283.818 90.6467 284.478 89.18C285.174 87.7133 286.073 85.715 287.173 83.185C287.869 81.5717 289.318 80.765 291.518 80.765C292.544 80.765 293.259 80.8567 293.663 81.04C294.066 81.2233 294.268 81.5167 294.268 81.92C294.268 82.14 294.194 82.4883 294.048 82.965C293.901 83.4417 293.699 83.9183 293.443 84.395C292.783 85.715 292.453 86.8333 292.453 87.75C292.453 88.3 292.636 88.905 293.003 89.565C293.406 90.225 294.011 91.05 294.818 92.04C295.991 93.58 296.871 94.9 297.458 96C298.081 97.0633 298.393 98.2367 298.393 99.52C298.393 101.06 298.026 102.527 297.293 103.92C296.596 105.277 295.606 106.377 294.323 107.22C293.039 108.063 291.573 108.485 289.923 108.485ZM337.839 91.6C338.866 91.6 339.379 92.37 339.379 93.91C339.379 96.8067 337.106 98.255 332.559 98.255C331.679 98.255 330.414 98.09 328.764 97.76C329.241 100.033 329.626 102.563 329.919 105.35C330.249 108.1 330.414 110.373 330.414 112.17C330.414 116.13 329.772 119.155 328.489 121.245C327.206 123.335 325.519 124.38 323.429 124.38C320.789 124.38 318.901 122.51 317.764 118.77C316.664 115.03 316.114 109.383 316.114 101.83C316.114 94.79 316.866 87.6583 318.369 80.435C319.909 73.175 321.999 67.18 324.639 62.45C327.316 57.6833 330.249 55.3 333.439 55.3C335.162 55.3 336.501 56.07 337.454 57.61C338.444 59.15 338.939 61.2217 338.939 63.825C338.939 72.4417 333.787 81.8283 323.484 91.985C323.117 95.5783 322.934 98.7317 322.934 101.445C322.934 105.222 323.062 109.09 323.319 113.05C323.576 117.047 323.997 119.045 324.584 119.045C325.684 119.045 326.234 117.138 326.234 113.325C326.234 110.465 326.032 107.697 325.629 105.02C325.262 102.343 324.749 99.52 324.089 96.55C324.052 96.0733 324.199 95.4683 324.529 94.735C324.896 94.0017 325.336 93.36 325.849 92.81C326.362 92.26 326.821 91.985 327.224 91.985C327.957 91.985 328.837 92.0217 329.864 92.095C330.194 92.1317 330.579 92.15 331.019 92.15C332.486 92.15 334.117 92.0217 335.914 91.765C336.207 91.7283 336.519 91.6917 336.849 91.655C337.179 91.6183 337.509 91.6 337.839 91.6ZM332.284 60.745C331.624 60.745 330.799 61.8633 329.809 64.1C328.856 66.3367 327.902 69.3067 326.949 73.01C325.996 76.6767 325.171 80.5633 324.474 84.67C327.407 81.3333 329.662 77.8683 331.239 74.275C332.816 70.645 333.622 67.2533 333.659 64.1C333.659 61.8633 333.201 60.745 332.284 60.745ZM339.135 107.275C337.742 107.275 336.752 106.542 336.165 105.075C335.615 103.608 335.34 101.262 335.34 98.035C335.34 93.2683 336.018 88.74 337.375 84.45C337.705 83.3867 338.237 82.6167 338.97 82.14C339.74 81.6267 340.803 81.37 342.16 81.37C342.893 81.37 343.407 81.4617 343.7 81.645C343.993 81.8283 344.14 82.1767 344.14 82.69C344.14 83.2767 343.865 84.5967 343.315 86.65C342.948 88.1167 342.655 89.4 342.435 90.5C342.215 91.6 342.032 92.9567 341.885 94.57C343.095 91.4167 344.452 88.85 345.955 86.87C347.458 84.89 348.925 83.4783 350.355 82.635C351.822 81.7917 353.16 81.37 354.37 81.37C356.753 81.37 357.945 82.5617 357.945 84.945C357.945 85.4217 357.78 86.5767 357.45 88.41C357.157 89.8767 357.01 90.7933 357.01 91.16C357.01 92.4433 357.468 93.085 358.385 93.085C359.412 93.085 360.732 92.2783 362.345 90.665C362.822 90.1883 363.317 89.95 363.83 89.95C364.307 89.95 364.673 90.17 364.93 90.61C365.223 91.0133 365.37 91.5633 365.37 92.26C365.37 93.6167 365.003 94.68 364.27 95.45C363.243 96.5133 362.033 97.43 360.64 98.2C359.283 98.9333 357.835 99.3 356.295 99.3C354.352 99.3 352.867 98.805 351.84 97.815C350.85 96.825 350.355 95.4867 350.355 93.8C350.355 93.25 350.41 92.7 350.52 92.15C350.593 91.4167 350.63 90.9217 350.63 90.665C350.63 90.0783 350.428 89.785 350.025 89.785C349.475 89.785 348.742 90.4083 347.825 91.655C346.945 92.865 346.065 94.4783 345.185 96.495C344.305 98.5117 343.59 100.638 343.04 102.875C342.637 104.598 342.16 105.772 341.61 106.395C341.097 106.982 340.272 107.275 339.135 107.275ZM388.309 90.115C388.786 90.115 389.152 90.3533 389.409 90.83C389.666 91.3067 389.794 91.9117 389.794 92.645C389.794 94.405 389.262 95.45 388.199 95.78C385.999 96.55 383.579 96.99 380.939 97.1C380.242 100.18 378.867 102.655 376.814 104.525C374.761 106.358 372.432 107.275 369.829 107.275C367.629 107.275 365.741 106.743 364.164 105.68C362.624 104.617 361.451 103.205 360.644 101.445C359.837 99.685 359.434 97.7783 359.434 95.725C359.434 92.9383 359.966 90.4633 361.029 88.3C362.092 86.1 363.559 84.395 365.429 83.185C367.299 81.9383 369.371 81.315 371.644 81.315C374.431 81.315 376.667 82.2867 378.354 84.23C380.077 86.1367 381.086 88.5017 381.379 91.325C383.102 91.215 385.156 90.8483 387.539 90.225C387.832 90.1517 388.089 90.115 388.309 90.115ZM370.269 101.445C371.442 101.445 372.451 100.968 373.294 100.015C374.174 99.0617 374.761 97.6867 375.054 95.89C373.917 95.12 373.037 94.1117 372.414 92.865C371.827 91.6183 371.534 90.2983 371.534 88.905C371.534 88.3183 371.589 87.7317 371.699 87.145H371.424C369.957 87.145 368.729 87.86 367.739 89.29C366.786 90.6833 366.309 92.6633 366.309 95.23C366.309 97.2467 366.694 98.7867 367.464 99.85C368.271 100.913 369.206 101.445 370.269 101.445ZM388.979 107.275C387.585 107.275 386.595 106.542 386.009 105.075C385.459 103.608 385.184 101.262 385.184 98.035C385.184 93.2683 385.862 88.74 387.219 84.45C387.549 83.3867 388.08 82.6167 388.814 82.14C389.584 81.6267 390.647 81.37 392.004 81.37C392.737 81.37 393.25 81.4617 393.544 81.645C393.837 81.8283 393.984 82.1767 393.984 82.69C393.984 83.2767 393.709 84.5967 393.159 86.65C392.792 88.1167 392.499 89.4 392.279 90.5C392.059 91.5633 391.875 92.9017 391.729 94.515C392.719 91.655 393.892 89.235 395.249 87.255C396.642 85.275 398.054 83.8083 399.484 82.855C400.95 81.865 402.325 81.37 403.609 81.37C404.892 81.37 405.79 81.6633 406.304 82.25C406.854 82.8367 407.129 83.735 407.129 84.945C407.129 86.1183 406.78 88.245 406.084 91.325C405.79 92.645 405.589 93.635 405.479 94.295C406.689 91.215 408.027 88.7033 409.494 86.76C410.997 84.8167 412.464 83.4417 413.894 82.635C415.324 81.7917 416.644 81.37 417.854 81.37C419.027 81.37 419.907 81.6817 420.494 82.305C421.117 82.8917 421.429 83.7717 421.429 84.945C421.429 85.8983 421.227 87.695 420.824 90.335C420.457 92.5717 420.164 94.6983 419.944 96.715C419.724 98.695 419.614 100.913 419.614 103.37C419.614 104.763 419.32 105.772 418.734 106.395C418.184 106.982 417.267 107.275 415.984 107.275C414.774 107.275 413.894 106.963 413.344 106.34C412.794 105.717 412.519 104.782 412.519 103.535C412.519 102.068 412.775 99.6483 413.289 96.275C413.729 93.3417 413.949 91.4717 413.949 90.665C413.949 90.0783 413.747 89.785 413.344 89.785C412.867 89.785 412.189 90.4083 411.309 91.655C410.429 92.865 409.549 94.4783 408.669 96.495C407.789 98.5117 407.074 100.638 406.524 102.875C406.12 104.635 405.644 105.808 405.094 106.395C404.58 106.982 403.737 107.275 402.564 107.275C401.354 107.275 400.437 106.707 399.814 105.57C399.227 104.397 398.934 102.985 398.934 101.335C398.934 99.9417 399.117 97.925 399.484 95.285C399.777 92.9383 399.924 91.3983 399.924 90.665C399.924 90.0783 399.722 89.785 399.319 89.785C398.769 89.785 398.072 90.445 397.229 91.765C396.385 93.085 395.56 94.7717 394.754 96.825C393.984 98.8783 393.36 100.895 392.884 102.875C392.48 104.598 392.004 105.772 391.454 106.395C390.94 106.982 390.115 107.275 388.979 107.275Z" fill="#74ACDF"/>
<path d="M1101.96 704.92C1102.96 704.92 1103.67 705.137 1104.11 705.57C1104.58 706.003 1104.82 706.567 1104.82 707.26C1104.82 708.387 1104.48 709.383 1103.78 710.25C1103.13 711.117 1102.09 711.572 1100.66 711.615C1097.2 711.702 1094.12 711.442 1091.43 710.835C1088.36 717.292 1084.63 722.665 1080.25 726.955C1075.92 731.202 1071.56 733.325 1067.19 733.325C1062.68 733.325 1059.32 730.703 1057.11 725.46C1054.9 720.217 1053.8 713.132 1053.8 704.205C1053.8 696.578 1054.34 689.732 1055.42 683.665C1055.81 681.412 1056.35 679.895 1057.05 679.115C1057.78 678.292 1059.02 677.88 1060.75 677.88C1063.61 677.88 1065.04 679.115 1065.04 681.585C1065.04 681.845 1065 682.322 1064.91 683.015C1063.61 690.815 1062.96 697.878 1062.96 704.205C1062.96 710.835 1063.5 715.883 1064.59 719.35C1065.71 722.773 1067.38 724.485 1069.59 724.485C1071.85 724.485 1074.29 722.925 1076.94 719.805C1079.58 716.685 1082.01 712.763 1084.22 708.04C1081.57 706.393 1079.58 704.27 1078.24 701.67C1076.89 699.027 1076.22 695.993 1076.22 692.57C1076.22 689.147 1076.74 686.265 1077.78 683.925C1078.87 681.542 1080.32 679.765 1082.14 678.595C1084 677.425 1086.06 676.84 1088.31 676.84C1091.09 676.84 1093.27 677.837 1094.88 679.83C1096.52 681.823 1097.35 684.553 1097.35 688.02C1097.35 693.003 1096.26 698.442 1094.1 704.335C1096.39 704.725 1099.02 704.92 1101.96 704.92ZM1082.79 692.115C1082.79 696.362 1084.15 699.503 1086.88 701.54C1088.57 696.687 1089.42 692.678 1089.42 689.515C1089.42 687.695 1089.18 686.373 1088.7 685.55C1088.23 684.683 1087.58 684.25 1086.75 684.25C1085.58 684.25 1084.63 684.943 1083.89 686.33C1083.16 687.673 1082.79 689.602 1082.79 692.115ZM1131.65 713.045C1132.21 713.045 1132.64 713.327 1132.95 713.89C1133.25 714.453 1133.4 715.168 1133.4 716.035C1133.4 718.115 1132.77 719.35 1131.52 719.74C1128.92 720.65 1126.06 721.17 1122.94 721.3C1122.11 724.94 1120.49 727.865 1118.06 730.075C1115.64 732.242 1112.88 733.325 1109.81 733.325C1107.21 733.325 1104.98 732.697 1103.11 731.44C1101.29 730.183 1099.91 728.515 1098.95 726.435C1098 724.355 1097.52 722.102 1097.52 719.675C1097.52 716.382 1098.15 713.457 1099.41 710.9C1100.66 708.3 1102.4 706.285 1104.61 704.855C1106.82 703.382 1109.27 702.645 1111.95 702.645C1115.25 702.645 1117.89 703.793 1119.88 706.09C1121.92 708.343 1123.11 711.138 1123.46 714.475C1125.49 714.345 1127.92 713.912 1130.74 713.175C1131.08 713.088 1131.39 713.045 1131.65 713.045ZM1110.33 726.435C1111.71 726.435 1112.91 725.872 1113.9 724.745C1114.94 723.618 1115.64 721.993 1115.98 719.87C1114.64 718.96 1113.6 717.768 1112.86 716.295C1112.17 714.822 1111.82 713.262 1111.82 711.615C1111.82 710.922 1111.89 710.228 1112.02 709.535H1111.69C1109.96 709.535 1108.51 710.38 1107.34 712.07C1106.21 713.717 1105.65 716.057 1105.65 719.09C1105.65 721.473 1106.1 723.293 1107.01 724.55C1107.97 725.807 1109.07 726.435 1110.33 726.435ZM1152.46 718.505C1153.02 718.505 1153.45 718.765 1153.76 719.285C1154.1 719.805 1154.28 720.52 1154.28 721.43C1154.28 723.163 1153.87 724.507 1153.04 725.46C1151.18 727.757 1149.14 729.642 1146.93 731.115C1144.77 732.588 1142.3 733.325 1139.52 733.325C1135.71 733.325 1132.87 731.592 1131.01 728.125C1129.19 724.658 1128.28 720.173 1128.28 714.67C1128.28 709.383 1128.95 703.36 1130.29 696.6C1131.68 689.84 1133.69 684.033 1136.34 679.18C1139.02 674.327 1142.21 671.9 1145.89 671.9C1147.97 671.9 1149.6 672.875 1150.77 674.825C1151.98 676.732 1152.59 679.483 1152.59 683.08C1152.59 688.237 1151.16 694.217 1148.3 701.02C1145.44 707.823 1141.56 714.562 1136.66 721.235C1136.97 723.012 1137.46 724.29 1138.16 725.07C1138.85 725.807 1139.76 726.175 1140.89 726.175C1142.66 726.175 1144.22 725.677 1145.57 724.68C1146.91 723.64 1148.62 721.885 1150.7 719.415C1151.22 718.808 1151.81 718.505 1152.46 718.505ZM1144.46 678.335C1143.47 678.335 1142.34 680.133 1141.08 683.73C1139.83 687.327 1138.72 691.79 1137.77 697.12C1136.81 702.45 1136.29 707.563 1136.21 712.46C1139.28 707.39 1141.73 702.32 1143.55 697.25C1145.37 692.137 1146.28 687.478 1146.28 683.275C1146.28 679.982 1145.68 678.335 1144.46 678.335ZM1155.65 733.325C1153.7 733.325 1152.1 732.437 1150.84 730.66C1149.63 728.84 1149.02 726.587 1149.02 723.9C1149.02 720.65 1149.24 717.682 1149.67 714.995C1150.11 712.265 1150.82 709.383 1151.82 706.35C1152.25 705.05 1152.86 704.118 1153.64 703.555C1154.42 702.992 1155.65 702.71 1157.34 702.71C1158.3 702.71 1158.95 702.862 1159.29 703.165C1159.68 703.468 1159.88 703.923 1159.88 704.53C1159.88 704.877 1159.64 706.047 1159.16 708.04C1158.73 709.643 1158.38 711.095 1158.12 712.395C1157.26 716.945 1156.82 719.978 1156.82 721.495C1156.82 722.405 1156.93 723.055 1157.15 723.445C1157.37 723.792 1157.71 723.965 1158.19 723.965C1158.84 723.965 1159.64 723.315 1160.59 722.015C1161.59 720.715 1162.63 718.743 1163.71 716.1C1164.84 713.457 1165.92 710.207 1166.96 706.35C1167.31 705.05 1167.83 704.118 1168.52 703.555C1169.26 702.992 1170.34 702.71 1171.77 702.71C1172.77 702.71 1173.46 702.84 1173.85 703.1C1174.24 703.317 1174.44 703.75 1174.44 704.4C1174.44 705.483 1173.9 708.452 1172.81 713.305C1171.6 718.852 1170.99 722.275 1170.99 723.575C1170.99 724.398 1171.17 725.048 1171.51 725.525C1171.86 725.958 1172.32 726.175 1172.88 726.175C1173.75 726.175 1174.76 725.655 1175.93 724.615C1177.15 723.532 1178.75 721.798 1180.74 719.415C1181.26 718.808 1181.85 718.505 1182.5 718.505C1183.06 718.505 1183.5 718.765 1183.8 719.285C1184.15 719.805 1184.32 720.52 1184.32 721.43C1184.32 723.163 1183.91 724.507 1183.08 725.46C1181.22 727.757 1179.21 729.642 1177.04 731.115C1174.92 732.588 1172.49 733.325 1169.76 733.325C1167.68 733.325 1166.14 732.523 1165.14 730.92C1164.19 729.317 1163.71 727.063 1163.71 724.16C1162.98 727.107 1161.87 729.382 1160.4 730.985C1158.93 732.545 1157.34 733.325 1155.65 733.325ZM1183.66 733.325C1182.02 733.325 1180.85 732.458 1180.15 730.725C1179.5 728.992 1179.18 726.218 1179.18 722.405C1179.18 716.772 1179.98 711.42 1181.58 706.35C1181.97 705.093 1182.6 704.183 1183.47 703.62C1184.38 703.013 1185.64 702.71 1187.24 702.71C1188.11 702.71 1188.71 702.818 1189.06 703.035C1189.41 703.252 1189.58 703.663 1189.58 704.27C1189.58 704.963 1189.25 706.523 1188.6 708.95C1188.17 710.683 1187.82 712.2 1187.56 713.5C1187.3 714.8 1187.09 716.403 1186.91 718.31C1188.34 714.583 1189.95 711.55 1191.72 709.21C1193.5 706.87 1195.23 705.202 1196.92 704.205C1198.66 703.208 1200.24 702.71 1201.67 702.71C1204.49 702.71 1205.89 704.118 1205.89 706.935C1205.89 708.625 1205.42 711.68 1204.46 716.1C1203.64 719.87 1203.23 722.362 1203.23 723.575C1203.23 725.308 1203.86 726.175 1205.11 726.175C1205.98 726.175 1207 725.655 1208.17 724.615C1209.38 723.532 1210.99 721.798 1212.98 719.415C1213.5 718.808 1214.08 718.505 1214.73 718.505C1215.3 718.505 1215.73 718.765 1216.03 719.285C1216.38 719.805 1216.55 720.52 1216.55 721.43C1216.55 723.163 1216.14 724.507 1215.32 725.46C1213.46 727.757 1211.44 729.642 1209.27 731.115C1207.15 732.588 1204.72 733.325 1201.99 733.325C1199.78 733.325 1198.12 732.697 1196.99 731.44C1195.86 730.14 1195.3 728.277 1195.3 725.85C1195.3 724.637 1195.6 722.47 1196.21 719.35C1196.77 716.62 1197.05 714.735 1197.05 713.695C1197.05 713.002 1196.82 712.655 1196.34 712.655C1195.78 712.655 1194.97 713.392 1193.93 714.865C1192.94 716.295 1191.9 718.202 1190.81 720.585C1189.77 722.968 1188.93 725.482 1188.28 728.125C1187.8 730.162 1187.24 731.548 1186.59 732.285C1185.98 732.978 1185.01 733.325 1183.66 733.325ZM1240.28 718.505C1240.85 718.505 1241.28 718.765 1241.58 719.285C1241.93 719.805 1242.1 720.52 1242.1 721.43C1242.1 723.163 1241.69 724.507 1240.87 725.46C1239.01 727.757 1236.97 729.642 1234.76 731.115C1232.55 732.588 1230.01 733.325 1227.15 733.325C1218.31 733.325 1213.89 727.107 1213.89 714.67C1213.89 712.763 1213.96 710.835 1214.09 708.885H1211.55C1210.25 708.885 1209.37 708.647 1208.89 708.17C1208.46 707.693 1208.24 706.935 1208.24 705.895C1208.24 703.468 1209.21 702.255 1211.16 702.255H1214.87C1215.61 697.488 1216.73 693.133 1218.25 689.19C1219.77 685.247 1221.59 682.105 1223.71 679.765C1225.88 677.425 1228.19 676.255 1230.66 676.255C1232.48 676.255 1233.91 677.057 1234.95 678.66C1235.99 680.263 1236.51 682.278 1236.51 684.705C1236.51 691.422 1233.7 697.272 1228.06 702.255H1235.34C1236.04 702.255 1236.54 702.407 1236.84 702.71C1237.14 703.013 1237.29 703.577 1237.29 704.4C1237.29 707.39 1234.85 708.885 1229.95 708.885H1222.02C1221.93 711.052 1221.89 712.742 1221.89 713.955C1221.89 718.462 1222.41 721.625 1223.45 723.445C1224.53 725.265 1226.22 726.175 1228.52 726.175C1230.38 726.175 1232.03 725.612 1233.46 724.485C1234.89 723.358 1236.58 721.668 1238.53 719.415C1239.05 718.808 1239.63 718.505 1240.28 718.505ZM1228.91 682.495C1228.26 682.495 1227.52 683.318 1226.7 684.965C1225.92 686.568 1225.16 688.822 1224.42 691.725C1223.73 694.585 1223.15 697.77 1222.67 701.28C1225.23 699.07 1227.13 696.6 1228.39 693.87C1229.69 691.097 1230.34 688.583 1230.34 686.33C1230.34 683.773 1229.86 682.495 1228.91 682.495ZM1265.8 718.505C1266.37 718.505 1266.8 718.765 1267.1 719.285C1267.45 719.805 1267.62 720.52 1267.62 721.43C1267.62 723.163 1267.21 724.507 1266.39 725.46C1264.78 727.41 1262.51 729.208 1259.56 730.855C1256.66 732.502 1253.54 733.325 1250.2 733.325C1245.65 733.325 1242.12 732.09 1239.61 729.62C1237.09 727.15 1235.84 723.77 1235.84 719.48C1235.84 716.49 1236.47 713.717 1237.72 711.16C1238.98 708.56 1240.71 706.502 1242.92 704.985C1245.18 703.468 1247.71 702.71 1250.53 702.71C1253.04 702.71 1255.06 703.468 1256.57 704.985C1258.09 706.458 1258.85 708.473 1258.85 711.03C1258.85 714.02 1257.76 716.598 1255.6 718.765C1253.47 720.888 1249.86 722.578 1244.74 723.835C1245.83 725.828 1247.88 726.825 1250.92 726.825C1252.87 726.825 1255.08 726.153 1257.55 724.81C1260.06 723.423 1262.23 721.625 1264.05 719.415C1264.57 718.808 1265.15 718.505 1265.8 718.505ZM1249.42 709.08C1247.82 709.08 1246.45 710.012 1245.33 711.875C1244.24 713.738 1243.7 715.992 1243.7 718.635V718.765C1246.26 718.158 1248.27 717.248 1249.75 716.035C1251.22 714.822 1251.96 713.413 1251.96 711.81C1251.96 710.987 1251.72 710.337 1251.24 709.86C1250.81 709.34 1250.2 709.08 1249.42 709.08ZM1291.32 718.505C1291.88 718.505 1292.32 718.765 1292.62 719.285C1292.97 719.805 1293.14 720.52 1293.14 721.43C1293.14 723.163 1292.73 724.507 1291.9 725.46C1290.3 727.41 1288.03 729.208 1285.08 730.855C1282.18 732.502 1279.06 733.325 1275.72 733.325C1271.17 733.325 1267.64 732.09 1265.12 729.62C1262.61 727.15 1261.35 723.77 1261.35 719.48C1261.35 716.49 1261.98 713.717 1263.24 711.16C1264.5 708.56 1266.23 706.502 1268.44 704.985C1270.69 703.468 1273.23 702.71 1276.04 702.71C1278.56 702.71 1280.57 703.468 1282.09 704.985C1283.61 706.458 1284.36 708.473 1284.36 711.03C1284.36 714.02 1283.28 716.598 1281.11 718.765C1278.99 720.888 1275.37 722.578 1270.26 723.835C1271.34 725.828 1273.4 726.825 1276.43 726.825C1278.38 726.825 1280.59 726.153 1283.06 724.81C1285.58 723.423 1287.74 721.625 1289.56 719.415C1290.08 718.808 1290.67 718.505 1291.32 718.505ZM1274.94 709.08C1273.34 709.08 1271.97 710.012 1270.84 711.875C1269.76 713.738 1269.22 715.992 1269.22 718.635V718.765C1271.78 718.158 1273.79 717.248 1275.26 716.035C1276.74 714.822 1277.47 713.413 1277.47 711.81C1277.47 710.987 1277.24 710.337 1276.76 709.86C1276.33 709.34 1275.72 709.08 1274.94 709.08ZM1314.11 711.615C1315.06 711.615 1315.86 711.962 1316.51 712.655C1317.21 713.305 1317.55 714.128 1317.55 715.125C1317.55 715.688 1317.42 716.295 1317.16 716.945C1316.47 718.548 1315.49 719.892 1314.24 720.975C1312.98 722.058 1311.59 722.6 1310.08 722.6C1308.86 722.6 1307.82 722.167 1306.96 721.3C1306.13 720.433 1305.72 719.263 1305.72 717.79C1305.72 716.967 1305.77 716.078 1305.85 715.125C1305.94 714.432 1305.98 713.955 1305.98 713.695C1305.98 713.348 1305.9 713.088 1305.72 712.915C1305.59 712.742 1305.42 712.655 1305.2 712.655C1304.6 712.655 1303.77 713.392 1302.73 714.865C1301.69 716.295 1300.65 718.202 1299.61 720.585C1298.57 722.968 1297.73 725.482 1297.08 728.125C1296.6 730.205 1296.06 731.592 1295.45 732.285C1294.85 732.978 1293.85 733.325 1292.46 733.325C1290.82 733.325 1289.65 732.458 1288.95 730.725C1288.3 728.992 1287.98 726.218 1287.98 722.405C1287.98 716.772 1288.78 711.42 1290.38 706.35C1290.77 705.093 1291.4 704.183 1292.27 703.62C1293.18 703.013 1294.43 702.71 1296.04 702.71C1296.9 702.71 1297.51 702.818 1297.86 703.035C1298.2 703.252 1298.38 703.663 1298.38 704.27C1298.38 704.963 1298.05 706.523 1297.4 708.95C1296.97 710.683 1296.62 712.2 1296.36 713.5C1296.1 714.8 1295.89 716.403 1295.71 718.31C1297.14 714.583 1298.75 711.55 1300.52 709.21C1302.3 706.87 1304.03 705.202 1305.72 704.205C1307.41 703.208 1308.95 702.71 1310.34 702.71C1311.59 702.71 1312.55 703.078 1313.2 703.815C1313.89 704.508 1314.24 705.548 1314.24 706.935C1314.24 707.758 1314 709.318 1313.52 711.615H1314.11ZM1327.31 717.79C1326.44 717.79 1325.73 717.595 1325.17 717.205C1324.6 716.815 1324.32 716.208 1324.32 715.385L1324.39 714.865C1325.12 710.012 1326.12 704.487 1327.38 698.29C1328.63 692.093 1329.8 686.742 1330.89 682.235C1331.58 679.462 1333.46 678.075 1336.54 678.075C1339.31 678.075 1340.7 678.963 1340.7 680.74C1340.7 681.13 1340.64 681.563 1340.51 682.04C1339.38 686.633 1337.88 692.202 1336.02 698.745C1334.16 705.245 1332.38 710.9 1330.69 715.71C1330.21 717.097 1329.09 717.79 1327.31 717.79ZM1324.84 733.325C1322.93 733.325 1321.48 732.805 1320.49 731.765C1319.53 730.725 1319.06 729.36 1319.06 727.67C1319.06 725.72 1319.6 724.16 1320.68 722.99C1321.81 721.82 1323.37 721.235 1325.36 721.235C1327.27 721.235 1328.7 721.712 1329.65 722.665C1330.65 723.575 1331.15 724.94 1331.15 726.76C1331.15 728.753 1330.58 730.357 1329.46 731.57C1328.33 732.74 1326.79 733.325 1324.84 733.325Z" fill="#74ACDF"/>
<path d="M948.4 706.79C948.66 706.79 948.86 706.92 949 707.18C949.14 707.44 949.21 707.77 949.21 708.17C949.21 708.67 949.14 709.06 949 709.34C948.86 709.6 948.64 709.78 948.34 709.88C947.14 710.3 945.82 710.54 944.38 710.6C943.98 712.26 943.22 713.6 942.1 714.62C941 715.64 939.78 716.15 938.44 716.15C936.42 716.15 934.95 715.38 934.03 713.84C933.11 712.3 932.65 710.07 932.65 707.15C932.65 704.57 932.97 701.77 933.61 698.75C934.25 695.71 935.18 693.13 936.4 691.01C937.64 688.87 939.11 687.8 940.81 687.8C941.73 687.8 942.47 688.2 943.03 689C943.59 689.78 943.87 690.8 943.87 692.06C943.87 693.7 943.56 695.33 942.94 696.95C942.32 698.57 941.29 700.27 939.85 702.05C941.19 702.15 942.28 702.71 943.12 703.73C943.96 704.73 944.46 705.97 944.62 707.45C945.56 707.39 946.68 707.19 947.98 706.85C948.1 706.81 948.24 706.79 948.4 706.79ZM940.12 690.77C939.72 690.77 939.28 691.37 938.8 692.57C938.34 693.75 937.91 695.36 937.51 697.4C937.11 699.44 936.81 701.67 936.61 704.09C937.93 701.67 938.98 699.54 939.76 697.7C940.56 695.84 940.96 694.19 940.96 692.75C940.96 692.11 940.88 691.62 940.72 691.28C940.58 690.94 940.38 690.77 940.12 690.77ZM938.56 712.97C939.18 712.97 939.73 712.71 940.21 712.19C940.69 711.67 941.01 710.92 941.17 709.94C940.55 709.52 940.07 708.97 939.73 708.29C939.41 707.61 939.25 706.89 939.25 706.13C939.25 705.85 939.29 705.47 939.37 704.99H939.28C938.46 704.99 937.77 705.4 937.21 706.22C936.67 707.02 936.4 708.1 936.4 709.46C936.4 710.6 936.61 711.47 937.03 712.07C937.47 712.67 937.98 712.97 938.56 712.97ZM960 709.31C960.26 709.31 960.46 709.43 960.6 709.67C960.76 709.91 960.84 710.24 960.84 710.66C960.84 711.46 960.65 712.08 960.27 712.52C959.53 713.42 958.48 714.25 957.12 715.01C955.78 715.77 954.34 716.15 952.8 716.15C950.7 716.15 949.07 715.58 947.91 714.44C946.75 713.3 946.17 711.74 946.17 709.76C946.17 708.38 946.46 707.1 947.04 705.92C947.62 704.72 948.42 703.77 949.44 703.07C950.48 702.37 951.65 702.02 952.95 702.02C954.11 702.02 955.04 702.37 955.74 703.07C956.44 703.75 956.79 704.68 956.79 705.86C956.79 707.24 956.29 708.43 955.29 709.43C954.31 710.41 952.64 711.19 950.28 711.77C950.78 712.69 951.73 713.15 953.13 713.15C954.03 713.15 955.05 712.84 956.19 712.22C957.35 711.58 958.35 710.75 959.19 709.73C959.43 709.45 959.7 709.31 960 709.31ZM952.44 704.96C951.7 704.96 951.07 705.39 950.55 706.25C950.05 707.11 949.8 708.15 949.8 709.37V709.43C950.98 709.15 951.91 708.73 952.59 708.17C953.27 707.61 953.61 706.96 953.61 706.22C953.61 705.84 953.5 705.54 953.28 705.32C953.08 705.08 952.8 704.96 952.44 704.96ZM964.127 716.15C962.167 716.15 960.637 715.6 959.537 714.5C958.457 713.38 957.917 711.91 957.917 710.09C957.917 708.47 958.237 707.05 958.877 705.83C959.517 704.61 960.347 703.67 961.367 703.01C962.387 702.35 963.457 702.02 964.577 702.02C965.677 702.02 966.527 702.35 967.127 703.01C967.747 703.65 968.057 704.48 968.057 705.5C968.057 706.34 967.867 707.05 967.487 707.63C967.127 708.21 966.647 708.5 966.047 708.5C965.667 708.5 965.357 708.41 965.117 708.23C964.897 708.05 964.787 707.8 964.787 707.48C964.787 707.34 964.807 707.18 964.847 707C964.887 706.82 964.917 706.69 964.937 706.61C965.037 706.31 965.087 706.03 965.087 705.77C965.087 705.51 965.017 705.31 964.877 705.17C964.757 705.03 964.577 704.96 964.337 704.96C963.877 704.96 963.447 705.17 963.047 705.59C962.647 705.99 962.327 706.54 962.087 707.24C961.847 707.94 961.727 708.71 961.727 709.55C961.727 711.87 962.737 713.03 964.757 713.03C965.577 713.03 966.457 712.76 967.397 712.22C968.357 711.66 969.297 710.83 970.217 709.73C970.457 709.45 970.727 709.31 971.027 709.31C971.287 709.31 971.487 709.43 971.627 709.67C971.787 709.91 971.867 710.24 971.867 710.66C971.867 711.42 971.677 712.04 971.297 712.52C970.357 713.68 969.227 714.58 967.907 715.22C966.607 715.84 965.347 716.15 964.127 716.15ZM984.742 706.79C985.002 706.79 985.202 706.92 985.342 707.18C985.482 707.44 985.552 707.77 985.552 708.17C985.552 709.13 985.262 709.7 984.682 709.88C983.482 710.3 982.162 710.54 980.722 710.6C980.342 712.28 979.592 713.63 978.472 714.65C977.352 715.65 976.082 716.15 974.662 716.15C973.462 716.15 972.432 715.86 971.572 715.28C970.732 714.7 970.092 713.93 969.652 712.97C969.212 712.01 968.992 710.97 968.992 709.85C968.992 708.33 969.282 706.98 969.862 705.8C970.442 704.6 971.242 703.67 972.262 703.01C973.282 702.33 974.412 701.99 975.652 701.99C977.172 701.99 978.392 702.52 979.312 703.58C980.252 704.62 980.802 705.91 980.962 707.45C981.902 707.39 983.022 707.19 984.322 706.85C984.482 706.81 984.622 706.79 984.742 706.79ZM974.902 712.97C975.542 712.97 976.092 712.71 976.552 712.19C977.032 711.67 977.352 710.92 977.512 709.94C976.892 709.52 976.412 708.97 976.072 708.29C975.752 707.61 975.592 706.89 975.592 706.13C975.592 705.81 975.622 705.49 975.682 705.17H975.532C974.732 705.17 974.062 705.56 973.522 706.34C973.002 707.1 972.742 708.18 972.742 709.58C972.742 710.68 972.952 711.52 973.372 712.1C973.812 712.68 974.322 712.97 974.902 712.97ZM985.107 716.15C984.347 716.15 983.807 715.75 983.487 714.95C983.187 714.15 983.037 712.87 983.037 711.11C983.037 708.51 983.407 706.04 984.147 703.7C984.327 703.12 984.617 702.7 985.017 702.44C985.437 702.16 986.017 702.02 986.757 702.02C987.157 702.02 987.437 702.07 987.597 702.17C987.757 702.27 987.837 702.46 987.837 702.74C987.837 703.06 987.687 703.78 987.387 704.9C987.187 705.7 987.027 706.4 986.907 707C986.787 707.58 986.687 708.31 986.607 709.19C987.147 707.63 987.787 706.31 988.527 705.23C989.287 704.15 990.057 703.35 990.837 702.83C991.637 702.29 992.387 702.02 993.087 702.02C993.787 702.02 994.277 702.18 994.557 702.5C994.857 702.82 995.007 703.31 995.007 703.97C995.007 704.61 994.817 705.77 994.437 707.45C994.277 708.17 994.167 708.71 994.107 709.07C995.107 706.61 996.217 704.82 997.437 703.7C998.657 702.58 999.797 702.02 1000.86 702.02C1002.16 702.02 1002.81 702.67 1002.81 703.97C1002.81 704.75 1002.59 706.16 1002.15 708.2C1001.77 709.94 1001.58 711.09 1001.58 711.65C1001.58 712.45 1001.87 712.85 1002.45 712.85C1002.85 712.85 1003.32 712.61 1003.86 712.13C1004.42 711.63 1005.16 710.83 1006.08 709.73C1006.32 709.45 1006.59 709.31 1006.89 709.31C1007.15 709.31 1007.35 709.43 1007.49 709.67C1007.65 709.91 1007.73 710.24 1007.73 710.66C1007.73 711.46 1007.54 712.08 1007.16 712.52C1006.3 713.58 1005.37 714.45 1004.37 715.13C1003.39 715.81 1002.27 716.15 1001.01 716.15C999.987 716.15 999.217 715.86 998.697 715.28C998.177 714.68 997.917 713.82 997.917 712.7C997.917 712.14 998.057 711.14 998.337 709.7C998.597 708.44 998.727 707.57 998.727 707.09C998.727 706.77 998.617 706.61 998.397 706.61C998.137 706.61 997.767 706.95 997.287 707.63C996.807 708.29 996.327 709.17 995.847 710.27C995.367 711.37 994.977 712.53 994.677 713.75C994.457 714.71 994.197 715.35 993.897 715.67C993.617 715.99 993.157 716.15 992.517 716.15C991.857 716.15 991.357 715.84 991.017 715.22C990.697 714.58 990.537 713.81 990.537 712.91C990.537 712.15 990.637 711.05 990.837 709.61C990.997 708.33 991.077 707.49 991.077 707.09C991.077 706.77 990.967 706.61 990.747 706.61C990.447 706.61 990.067 706.97 989.607 707.69C989.147 708.41 988.697 709.33 988.257 710.45C987.837 711.57 987.497 712.67 987.237 713.75C987.017 714.69 986.757 715.33 986.457 715.67C986.177 715.99 985.727 716.15 985.107 716.15ZM1016.04 710.21C1016.3 710.21 1016.5 710.33 1016.64 710.57C1016.8 710.81 1016.88 711.14 1016.88 711.56C1016.88 712.28 1016.71 712.9 1016.37 713.42C1015.81 714.28 1015.07 714.95 1014.15 715.43C1013.25 715.91 1012.17 716.15 1010.91 716.15C1008.99 716.15 1007.5 715.58 1006.44 714.44C1005.38 713.28 1004.85 711.72 1004.85 709.76C1004.85 708.38 1005.14 707.1 1005.72 705.92C1006.3 704.72 1007.1 703.77 1008.12 703.07C1009.16 702.37 1010.33 702.02 1011.63 702.02C1012.79 702.02 1013.72 702.37 1014.42 703.07C1015.12 703.75 1015.47 704.68 1015.47 705.86C1015.47 707.24 1014.97 708.43 1013.97 709.43C1012.99 710.41 1011.31 711.19 1008.93 711.77C1009.41 712.69 1010.22 713.15 1011.36 713.15C1012.18 713.15 1012.85 712.96 1013.37 712.58C1013.91 712.2 1014.53 711.56 1015.23 710.66C1015.47 710.36 1015.74 710.21 1016.04 710.21ZM1011.12 704.96C1010.38 704.96 1009.75 705.39 1009.23 706.25C1008.73 707.11 1008.48 708.15 1008.48 709.37V709.43C1009.66 709.15 1010.59 708.73 1011.27 708.17C1011.95 707.61 1012.29 706.96 1012.29 706.22C1012.29 705.84 1012.18 705.54 1011.96 705.32C1011.76 705.08 1011.48 704.96 1011.12 704.96ZM1029.02 716.15C1027.88 716.15 1026.95 715.7 1026.23 714.8C1025.53 713.9 1025.18 712.72 1025.18 711.26C1025.18 709.66 1025.55 708.15 1026.29 706.73C1027.03 705.29 1028.01 704.14 1029.23 703.28C1030.47 702.4 1031.78 701.96 1033.16 701.96C1033.6 701.96 1033.89 702.05 1034.03 702.23C1034.19 702.39 1034.32 702.69 1034.42 703.13C1034.8 703.05 1035.22 703.01 1035.68 703.01C1036.16 703.01 1036.53 703.13 1036.79 703.37C1037.05 703.61 1037.18 703.95 1037.18 704.39C1037.18 704.85 1037.08 705.65 1036.88 706.79C1036.66 708.01 1036.49 709.18 1036.37 710.3C1036.25 711.4 1036.19 712.64 1036.19 714.02C1036.19 714.78 1036.03 715.33 1035.71 715.67C1035.41 715.99 1034.91 716.15 1034.21 716.15C1033.53 716.15 1033.02 715.99 1032.68 715.67C1032.36 715.33 1032.2 714.79 1032.2 714.05L1032.23 713.57C1031.61 715.29 1030.54 716.15 1029.02 716.15ZM1030.19 713.12C1030.75 713.12 1031.26 712.73 1031.72 711.95C1032.18 711.17 1032.59 709.78 1032.95 707.78L1033.52 704.75C1032.7 704.77 1031.94 705.09 1031.24 705.71C1030.54 706.31 1029.98 707.11 1029.56 708.11C1029.14 709.11 1028.93 710.17 1028.93 711.29C1028.93 711.89 1029.04 712.35 1029.26 712.67C1029.5 712.97 1029.81 713.12 1030.19 713.12Z" fill="#74ACDF"/>
</svg>
