<svg width="314" height="393" viewBox="0 0 314 393" fill="none" xmlns="http://www.w3.org/2000/svg">
<circle cx="152.25" cy="147.75" r="119.25" fill="#BFE4FF"/>
<path fill-rule="evenodd" clip-rule="evenodd" d="M58.68 220.727C58.5606 218.821 58.5 216.899 58.5 214.963C58.5 164.173 100.198 123 151.634 123C203.071 123 244.769 164.173 244.769 214.963C244.769 220.481 244.276 225.887 243.333 231.138C221.526 255.018 190.138 270 155.25 270C115.534 270 80.3529 250.585 58.68 220.727Z" fill="#7ED1FF"/>
<g filter="url(#filter0_d_176_1120)">
<path d="M246.411 207.812C246.654 201.847 247.959 208.134 247.439 202.024C247.406 201.638 247.319 201.252 247.186 200.887L239.925 181.007L230.612 163.322L202.672 137.148L201.84 138.792C201.038 140.374 201.307 142.224 202.682 143.343C204.017 144.43 205.758 145.77 207.467 147.131C208.519 147.969 209.206 149.269 208.874 150.573C207.872 154.517 204.016 155.377 201.411 155.517C200.825 155.549 200.243 155.426 199.7 155.202L191.925 152.004C190.493 152.004 177.597 159.078 180.463 161.907C184.475 165.869 181.418 167.095 180.463 167.567C179.433 167.973 177.836 168.415 174.843 169.255C173.845 169.535 172.949 170.139 172.443 171.044C169.221 176.813 173.045 179.892 176.449 180.785C177.191 180.98 177.97 180.856 178.681 180.566L189.776 176.056C190.425 176.056 191.385 175.846 192.494 175.656C194.301 175.345 195.893 176.498 196.782 178.101C198.074 180.43 199.161 180.8 200.744 180.557C201.545 180.434 202.26 179.999 202.836 179.43L205.364 176.934C206.375 175.936 207.797 175.474 209.202 175.687L215.726 176.678C216.096 176.734 216.462 176.831 216.792 177.008C218.525 177.937 221.102 180.248 220.582 183.837C220.009 187.798 216.045 188.317 214.135 188.081H181.896C176.642 187.61 165.418 189.072 162.552 198.693C159.687 208.313 164.463 215.199 166.851 217.793C168.522 219.443 172.582 222.037 179.746 222.037C187.627 222.037 191.209 225.574 192.642 230.526C194.075 236.892 193.358 239.722 194.075 255.992C194.791 272.263 221.299 277.922 227.746 255.992L229.896 225.574C230.309 223.127 232.429 221.33 234.911 221.33C239.553 221.33 251.562 218.905 247.638 211.811C246.953 210.571 246.354 209.227 246.411 207.812Z" fill="#73D16C"/>
<path d="M246.411 207.812C246.654 201.847 247.959 208.134 247.439 202.024C247.406 201.638 247.319 201.252 247.186 200.887L239.925 181.007L230.612 163.322L202.672 137.148L201.84 138.792C201.038 140.374 201.307 142.224 202.682 143.343C204.017 144.43 205.758 145.77 207.467 147.131C208.519 147.969 209.206 149.269 208.874 150.573C207.872 154.517 204.016 155.377 201.411 155.517C200.825 155.549 200.243 155.426 199.7 155.202L191.925 152.004C190.493 152.004 177.597 159.078 180.463 161.907C184.475 165.869 181.418 167.095 180.463 167.567C179.433 167.973 177.836 168.415 174.843 169.255C173.845 169.535 172.949 170.139 172.443 171.044C169.221 176.813 173.045 179.892 176.449 180.785C177.191 180.98 177.97 180.856 178.681 180.566L189.776 176.056C190.425 176.056 191.385 175.846 192.494 175.656C194.301 175.345 195.893 176.498 196.782 178.101C198.074 180.43 199.161 180.8 200.744 180.557C201.545 180.434 202.26 179.999 202.836 179.43L205.364 176.934C206.375 175.936 207.797 175.474 209.202 175.687L215.726 176.678C216.096 176.734 216.462 176.831 216.792 177.008C218.525 177.937 221.102 180.248 220.582 183.837C220.009 187.798 216.045 188.317 214.135 188.081H181.896C176.642 187.61 165.418 189.072 162.552 198.693C159.687 208.313 164.463 215.199 166.851 217.793C168.522 219.443 172.582 222.037 179.746 222.037C187.627 222.037 191.209 225.574 192.642 230.526C194.075 236.892 193.358 239.722 194.075 255.992C194.791 272.263 221.299 277.922 227.746 255.992L229.896 225.574C230.309 223.127 232.429 221.33 234.911 221.33C239.553 221.33 251.562 218.905 247.638 211.811C246.953 210.571 246.354 209.227 246.411 207.812Z" stroke="#73D16C" stroke-width="1.5"/>
</g>
<g filter="url(#filter1_d_176_1120)">
<path d="M92.0986 213.236C92.2252 210.532 91.3877 207.181 87.1565 207.181L75.6939 206.474C71.6342 206.238 67.8133 202.23 67.8133 197.278C66.3805 190.911 64.2312 184.544 62.7983 181.715L66.3804 173.933L69.9625 166.859L74.261 160.493L78.5595 155.541L80.7088 152.711L83.5745 149.882L86.4401 147.052L89.3058 144.222L92.1715 142.1L96.47 139.27L100.052 137.148L100.906 136.811C102.564 136.156 104.572 136.409 105.841 137.661C106.454 138.266 107.164 139.029 107.933 139.978C110.4 143.023 109.504 145.893 108.445 147.686C108.131 148.217 107.659 148.629 107.128 148.943L105.221 150.073C104.648 150.413 104.147 150.869 103.816 151.446C102.512 153.718 101.328 157.298 104.351 159.785C107.789 162.615 110.798 161.672 112.231 160.493L122.654 152.623C123.8 151.757 125.172 151.197 126.608 151.252C129.878 151.375 134.3 152.435 136.589 156.956C139.455 162.615 137.306 166.859 133.724 169.689L124.247 174.68C123.421 175.114 122.751 175.796 122.329 176.628L114.342 192.403C113.902 193.271 113.192 193.974 112.319 194.405L105.067 197.985C104.393 197.985 103.083 196.731 99.9431 193.043C99.5419 192.571 99.0482 192.175 98.4798 191.93C92.3812 189.302 90.3218 192.779 91.2476 197.158C91.3641 197.709 91.6314 198.214 91.9748 198.66L103.716 213.915C104.568 215.022 105.882 215.669 107.279 215.676C113.51 215.708 123.395 215.877 124.41 216.378C127.849 216.944 127.992 222.744 130.858 224.159C131.882 224.665 134.206 223.565 142.474 222.237C143.306 222.103 144.175 222.203 144.924 222.591C152.871 226.709 152.287 234.221 150.918 237.6L135.873 251.748L133.724 255.992C133.007 258.115 131.76 262.359 130.858 263.774C126.798 270.141 121.5 262.5 121.5 262.5C121.5 262.5 122.149 265.189 120 263.774C117.355 266.915 108.31 266.079 106.07 262.638C104.378 260.038 102.631 257.548 101.25 255.992C99.4019 253.911 98.7983 263.425 98.7983 251.748C98.7983 241.343 93.1154 253.384 84.7892 237.182C84.46 236.542 84.3003 235.819 84.3139 235.099C84.37 232.128 84.4804 223.749 84.066 218.729C83.8199 215.749 85.2404 216.378 88.2312 216.378C90.2086 216.378 92.006 215.211 92.0986 213.236Z" fill="#73D16C"/>
<path d="M92.0986 213.236C92.2252 210.532 91.3877 207.181 87.1565 207.181L75.6939 206.474C71.6342 206.238 67.8133 202.23 67.8133 197.278C66.3805 190.911 64.2312 184.544 62.7983 181.715L66.3804 173.933L69.9625 166.859L74.261 160.493L78.5595 155.541L80.7088 152.711L83.5745 149.882L86.4401 147.052L89.3058 144.222L92.1715 142.1L96.47 139.27L100.052 137.148L100.906 136.811C102.564 136.156 104.572 136.409 105.841 137.661C106.454 138.266 107.164 139.029 107.933 139.978C110.4 143.023 109.504 145.893 108.445 147.686C108.131 148.217 107.659 148.629 107.128 148.943L105.221 150.073C104.648 150.413 104.147 150.869 103.816 151.446C102.512 153.718 101.328 157.298 104.351 159.785C107.789 162.615 110.798 161.672 112.231 160.493L122.654 152.623C123.8 151.757 125.172 151.197 126.608 151.252C129.878 151.375 134.3 152.435 136.589 156.956C139.455 162.615 137.306 166.859 133.724 169.689L124.247 174.68C123.421 175.114 122.751 175.796 122.329 176.628L114.342 192.403C113.902 193.271 113.192 193.974 112.319 194.405L105.067 197.985C104.393 197.985 103.083 196.731 99.9431 193.043C99.5419 192.571 99.0482 192.175 98.4798 191.93C92.3812 189.302 90.3218 192.779 91.2476 197.158C91.3641 197.709 91.6314 198.214 91.9748 198.66L103.716 213.915C104.568 215.022 105.882 215.669 107.279 215.676C113.51 215.708 123.395 215.877 124.41 216.378C127.849 216.944 127.992 222.744 130.858 224.159C131.882 224.665 134.206 223.565 142.474 222.237C143.306 222.103 144.175 222.203 144.924 222.591C152.871 226.709 152.287 234.221 150.918 237.6L135.873 251.748L133.724 255.992C133.007 258.115 131.76 262.359 130.858 263.774C126.798 270.141 121.5 262.5 121.5 262.5C121.5 262.5 122.149 265.189 120 263.774C117.355 266.915 108.31 266.079 106.07 262.638C104.378 260.038 102.631 257.548 101.25 255.992C99.4019 253.911 98.7983 263.425 98.7983 251.748C98.7983 241.343 93.1154 253.384 84.7892 237.182C84.46 236.542 84.3003 235.819 84.3139 235.099C84.37 232.128 84.4804 223.749 84.066 218.729C83.8199 215.749 85.2404 216.378 88.2312 216.378C90.2086 216.378 92.006 215.211 92.0986 213.236Z" stroke="#73D16C" stroke-width="1.5"/>
</g>
<g filter="url(#filter2_d_176_1120)">
<path d="M135.156 201.522H127.276C120.112 201.522 120.828 210.718 125.843 210.718H135.156C141.604 210.718 138.739 201.522 135.156 201.522Z" fill="#73D16C"/>
<path d="M133.002 132.196H151.853C152.184 132.196 152.513 132.236 152.834 132.316L153.11 132.384C154.406 132.704 155.421 133.712 155.749 135.007C155.87 135.486 155.892 135.981 155.815 136.469C155.031 141.429 153.757 150.557 153.267 154.091C153.136 155.037 152.72 155.93 151.94 156.48C151.133 157.048 149.98 157.663 148.769 157.663C147.336 157.663 145.664 156.72 145.187 155.541L140.888 142.807C140.172 140.685 138.022 140.685 132.291 139.978C128.917 139.561 128.16 135.055 130.376 132.956C131.06 132.308 132.059 132.196 133.002 132.196Z" fill="#73D16C"/>
<path d="M135.156 201.522H127.276C120.112 201.522 120.828 210.718 125.843 210.718H135.156C141.604 210.718 138.739 201.522 135.156 201.522Z" stroke="#73D16C" stroke-width="1.5"/>
<path d="M133.002 132.196H151.853C152.184 132.196 152.513 132.236 152.834 132.316L153.11 132.384C154.406 132.704 155.421 133.712 155.749 135.007C155.87 135.486 155.892 135.981 155.815 136.469C155.031 141.429 153.757 150.557 153.267 154.091C153.136 155.037 152.72 155.93 151.94 156.48C151.133 157.048 149.98 157.663 148.769 157.663C147.336 157.663 145.664 156.72 145.187 155.541L140.888 142.807C140.172 140.685 138.022 140.685 132.291 139.978C128.917 139.561 128.16 135.055 130.376 132.956C131.06 132.308 132.059 132.196 133.002 132.196Z" stroke="#73D16C" stroke-width="1.5"/>
</g>
<path d="M19.7514 359.5C19.6662 358.435 19.2667 357.604 18.5529 357.007C17.8498 356.411 16.7791 356.112 15.3409 356.112C14.4247 356.112 13.6737 356.224 13.0877 356.448C12.5124 356.661 12.0863 356.954 11.8093 357.327C11.5323 357.7 11.3885 358.126 11.3778 358.605C11.3565 358.999 11.4258 359.356 11.5856 359.676C11.756 359.985 12.0224 360.267 12.3846 360.523C12.7468 360.768 13.2102 360.991 13.7749 361.194C14.3395 361.396 15.0107 361.577 15.7884 361.737L18.473 362.312C20.2841 362.696 21.8342 363.202 23.1232 363.831C24.4123 364.459 25.467 365.2 26.2873 366.052C27.1076 366.893 27.7095 367.842 28.093 368.896C28.4872 369.951 28.6896 371.102 28.7003 372.348C28.6896 374.5 28.1516 376.322 27.0863 377.813C26.021 379.305 24.4975 380.439 22.516 381.217C20.5451 381.995 18.1747 382.384 15.4048 382.384C12.5604 382.384 10.0781 381.963 7.9581 381.121C5.84872 380.279 4.2081 378.985 3.03622 377.238C1.875 375.48 1.28906 373.232 1.27841 370.494H9.71591C9.76918 371.496 10.0195 372.337 10.467 373.019C10.9144 373.701 11.543 374.218 12.3526 374.569C13.1729 374.921 14.1477 375.097 15.277 375.097C16.2251 375.097 17.0188 374.979 17.658 374.745C18.2972 374.511 18.782 374.186 19.1122 373.77C19.4425 373.355 19.6129 372.881 19.6236 372.348C19.6129 371.847 19.4478 371.411 19.1282 371.038C18.8192 370.654 18.3079 370.313 17.5941 370.015C16.8803 369.706 15.9162 369.418 14.7017 369.152L11.4418 368.449C8.54403 367.82 6.25888 366.771 4.58629 365.301C2.92436 363.82 2.09872 361.801 2.10938 359.244C2.09872 357.167 2.6527 355.35 3.77131 353.795C4.90057 352.229 6.46129 351.009 8.45348 350.136C10.4563 349.262 12.7521 348.825 15.3409 348.825C17.983 348.825 20.2681 349.267 22.1964 350.152C24.1246 351.036 25.6108 352.282 26.6548 353.891C27.7095 355.489 28.2422 357.359 28.2528 359.5H19.7514ZM48.1241 371.261V357.455H56.9451V382H48.5716V377.334H48.3159C47.7832 378.9 46.851 380.125 45.5194 381.009C44.1877 381.883 42.6056 382.32 40.7733 382.32C39.0581 382.32 37.5559 381.925 36.2669 381.137C34.9885 380.349 33.9924 379.262 33.2786 377.877C32.5755 376.492 32.2186 374.905 32.2079 373.115V357.455H41.0289V371.261C41.0396 372.476 41.3485 373.429 41.9558 374.122C42.5737 374.814 43.4366 375.161 44.5446 375.161C45.2797 375.161 45.9135 375.006 46.4462 374.697C46.9895 374.377 47.405 373.93 47.6926 373.355C47.9909 372.769 48.1348 372.071 48.1241 371.261ZM83.8676 365.445H75.7497C75.7071 364.944 75.5313 364.512 75.2224 364.15C74.9134 363.788 74.5139 363.511 74.0239 363.319C73.5445 363.117 73.0118 363.016 72.4259 363.016C71.6695 363.016 71.0196 363.154 70.4763 363.431C69.933 363.708 69.6666 364.102 69.6773 364.614C69.6666 364.976 69.8211 365.311 70.1407 365.62C70.471 365.929 71.1048 366.169 72.0423 366.339L77.0281 367.234C79.5423 367.692 81.412 368.465 82.6372 369.551C83.873 370.627 84.4962 372.071 84.5068 373.882C84.4962 375.629 83.9742 377.147 82.9408 378.436C81.9181 379.715 80.5171 380.706 78.738 381.409C76.9695 382.101 74.9507 382.447 72.6816 382.447C68.9316 382.447 65.9965 381.68 63.8765 380.146C61.7671 378.612 60.5899 376.588 60.3449 374.074H69.102C69.2192 374.852 69.6027 375.453 70.2526 375.88C70.9131 376.295 71.7441 376.503 72.7455 376.503C73.5551 376.503 74.221 376.364 74.743 376.087C75.2757 375.81 75.5473 375.416 75.558 374.905C75.5473 374.436 75.3129 374.063 74.8548 373.786C74.4074 373.509 73.7043 373.286 72.7455 373.115L68.3989 372.348C65.8953 371.911 64.0203 371.08 62.7739 369.855C61.5274 368.63 60.9095 367.053 60.9202 365.125C60.9095 363.42 61.357 361.977 62.2625 360.794C63.1787 359.601 64.4838 358.696 66.1776 358.078C67.8822 357.449 69.901 357.135 72.2341 357.135C75.7817 357.135 78.5782 357.87 80.6237 359.34C82.6798 360.81 83.7611 362.845 83.8676 365.445ZM102.524 357.455V363.847H86.3525V357.455H102.524ZM89.4846 351.574H98.3057V374.106C98.3057 374.447 98.3643 374.734 98.4814 374.969C98.5986 375.192 98.7797 375.363 99.0248 375.48C99.2698 375.587 99.5841 375.64 99.9676 375.64C100.234 375.64 100.543 375.608 100.894 375.544C101.257 375.48 101.523 375.427 101.693 375.384L102.972 381.585C102.578 381.702 102.013 381.846 101.278 382.016C100.554 382.186 99.6906 382.298 98.6892 382.352C96.665 382.458 94.9658 382.25 93.5915 381.728C92.2172 381.196 91.1839 380.359 90.4914 379.219C89.7989 378.08 89.4633 376.652 89.4846 374.937V351.574ZM112.963 382.384C111.397 382.384 110.012 382.128 108.809 381.616C107.615 381.094 106.678 380.306 105.996 379.251C105.314 378.197 104.973 376.854 104.973 375.224C104.973 373.882 105.202 372.737 105.661 371.789C106.119 370.83 106.758 370.047 107.578 369.44C108.398 368.832 109.352 368.369 110.439 368.049C111.536 367.73 112.718 367.522 113.986 367.426C115.36 367.32 116.463 367.192 117.294 367.043C118.136 366.883 118.743 366.664 119.116 366.387C119.489 366.1 119.675 365.722 119.675 365.253V365.189C119.675 364.55 119.43 364.06 118.94 363.719C118.45 363.378 117.821 363.207 117.054 363.207C116.213 363.207 115.526 363.394 114.993 363.767C114.471 364.129 114.157 364.688 114.05 365.445H105.932C106.039 363.953 106.513 362.579 107.354 361.322C108.207 360.054 109.448 359.042 111.078 358.286C112.708 357.518 114.743 357.135 117.182 357.135C118.94 357.135 120.517 357.343 121.912 357.758C123.308 358.163 124.496 358.733 125.476 359.468C126.456 360.192 127.202 361.045 127.713 362.025C128.235 362.994 128.496 364.049 128.496 365.189V382H120.25V378.548H120.059C119.569 379.464 118.972 380.205 118.269 380.77C117.576 381.334 116.783 381.744 115.888 382C115.004 382.256 114.029 382.384 112.963 382.384ZM115.84 376.822C116.511 376.822 117.14 376.684 117.725 376.407C118.322 376.13 118.807 375.73 119.18 375.208C119.553 374.686 119.739 374.053 119.739 373.307V371.261C119.505 371.357 119.254 371.448 118.988 371.533C118.732 371.618 118.455 371.698 118.157 371.773C117.869 371.847 117.56 371.917 117.23 371.98C116.911 372.044 116.575 372.103 116.223 372.156C115.542 372.263 114.982 372.439 114.545 372.684C114.119 372.918 113.8 373.211 113.587 373.562C113.384 373.903 113.283 374.287 113.283 374.713C113.283 375.395 113.523 375.917 114.002 376.279C114.482 376.641 115.094 376.822 115.84 376.822ZM132.711 382V357.455H141.532V382H132.711ZM137.121 354.898C135.928 354.898 134.905 354.504 134.053 353.715C133.201 352.927 132.775 351.979 132.775 350.871C132.775 349.763 133.201 348.815 134.053 348.026C134.905 347.238 135.928 346.844 137.121 346.844C138.325 346.844 139.348 347.238 140.19 348.026C141.042 348.815 141.468 349.763 141.468 350.871C141.468 351.979 141.042 352.927 140.19 353.715C139.348 354.504 138.325 354.898 137.121 354.898ZM154.847 368.193V382H146.026V357.455H154.4V362.121H154.656C155.188 360.565 156.126 359.346 157.468 358.461C158.821 357.577 160.398 357.135 162.198 357.135C163.935 357.135 165.442 357.534 166.721 358.333C168.01 359.122 169.006 360.208 169.709 361.593C170.423 362.978 170.774 364.56 170.763 366.339V382H161.942V368.193C161.953 366.979 161.644 366.025 161.016 365.333C160.398 364.64 159.535 364.294 158.427 364.294C157.702 364.294 157.069 364.454 156.525 364.773C155.993 365.082 155.582 365.53 155.295 366.116C155.007 366.691 154.858 367.384 154.847 368.193ZM181.958 382.384C180.392 382.384 179.007 382.128 177.803 381.616C176.61 381.094 175.672 380.306 174.99 379.251C174.308 378.197 173.968 376.854 173.968 375.224C173.968 373.882 174.197 372.737 174.655 371.789C175.113 370.83 175.752 370.047 176.572 369.44C177.393 368.832 178.346 368.369 179.433 368.049C180.53 367.73 181.713 367.522 182.98 367.426C184.355 367.32 185.457 367.192 186.288 367.043C187.13 366.883 187.737 366.664 188.11 366.387C188.483 366.1 188.669 365.722 188.669 365.253V365.189C188.669 364.55 188.424 364.06 187.934 363.719C187.444 363.378 186.816 363.207 186.048 363.207C185.207 363.207 184.52 363.394 183.987 363.767C183.465 364.129 183.151 364.688 183.044 365.445H174.926C175.033 363.953 175.507 362.579 176.349 361.322C177.201 360.054 178.442 359.042 180.072 358.286C181.702 357.518 183.737 357.135 186.176 357.135C187.934 357.135 189.511 357.343 190.906 357.758C192.302 358.163 193.49 358.733 194.47 359.468C195.45 360.192 196.196 361.045 196.707 362.025C197.229 362.994 197.49 364.049 197.49 365.189V382H189.244V378.548H189.053C188.563 379.464 187.966 380.205 187.263 380.77C186.57 381.334 185.777 381.744 184.882 382C183.998 382.256 183.023 382.384 181.958 382.384ZM184.834 376.822C185.505 376.822 186.134 376.684 186.72 376.407C187.316 376.13 187.801 375.73 188.174 375.208C188.547 374.686 188.733 374.053 188.733 373.307V371.261C188.499 371.357 188.248 371.448 187.982 371.533C187.726 371.618 187.449 371.698 187.151 371.773C186.863 371.847 186.555 371.917 186.224 371.98C185.905 372.044 185.569 372.103 185.218 372.156C184.536 372.263 183.976 372.439 183.54 372.684C183.113 372.918 182.794 373.211 182.581 373.562C182.378 373.903 182.277 374.287 182.277 374.713C182.277 375.395 182.517 375.917 182.996 376.279C183.476 376.641 184.088 376.822 184.834 376.822ZM201.577 382V349.273H210.398V361.737H210.526C210.846 360.906 211.314 360.145 211.932 359.452C212.55 358.749 213.317 358.19 214.233 357.774C215.15 357.348 216.215 357.135 217.429 357.135C219.049 357.135 220.588 357.566 222.048 358.429C223.518 359.292 224.711 360.651 225.627 362.504C226.554 364.358 227.017 366.766 227.017 369.727C227.017 372.561 226.575 374.91 225.691 376.775C224.818 378.639 223.646 380.029 222.176 380.945C220.716 381.862 219.113 382.32 217.366 382.32C216.215 382.32 215.187 382.133 214.281 381.76C213.386 381.377 212.619 380.86 211.98 380.21C211.352 379.55 210.867 378.804 210.526 377.973H210.334V382H201.577ZM210.206 369.727C210.206 370.92 210.361 371.954 210.67 372.827C210.989 373.69 211.437 374.362 212.012 374.841C212.598 375.31 213.296 375.544 214.106 375.544C214.915 375.544 215.602 375.315 216.167 374.857C216.742 374.388 217.179 373.722 217.477 372.859C217.786 371.986 217.941 370.942 217.941 369.727C217.941 368.513 217.786 367.474 217.477 366.611C217.179 365.738 216.742 365.072 216.167 364.614C215.602 364.145 214.915 363.911 214.106 363.911C213.296 363.911 212.598 364.145 212.012 364.614C211.437 365.072 210.989 365.738 210.67 366.611C210.361 367.474 210.206 368.513 210.206 369.727ZM230.709 382V357.455H239.53V382H230.709ZM235.119 354.898C233.926 354.898 232.903 354.504 232.051 353.715C231.199 352.927 230.773 351.979 230.773 350.871C230.773 349.763 231.199 348.815 232.051 348.026C232.903 347.238 233.926 346.844 235.119 346.844C236.323 346.844 237.346 347.238 238.188 348.026C239.04 348.815 239.466 349.763 239.466 350.871C239.466 351.979 239.04 352.927 238.188 353.715C237.346 354.504 236.323 354.898 235.119 354.898ZM252.845 349.273V382H244.024V349.273H252.845ZM257.34 382V357.455H266.161V382H257.34ZM261.75 354.898C260.557 354.898 259.534 354.504 258.682 353.715C257.83 352.927 257.404 351.979 257.404 350.871C257.404 349.763 257.83 348.815 258.682 348.026C259.534 347.238 260.557 346.844 261.75 346.844C262.954 346.844 263.977 347.238 264.818 348.026C265.671 348.815 266.097 349.763 266.097 350.871C266.097 351.979 265.671 352.927 264.818 353.715C263.977 354.504 262.954 354.898 261.75 354.898ZM285.293 357.455V363.847H269.121V357.455H285.293ZM272.253 351.574H281.074V374.106C281.074 374.447 281.133 374.734 281.25 374.969C281.367 375.192 281.548 375.363 281.793 375.48C282.038 375.587 282.353 375.64 282.736 375.64C283.002 375.64 283.311 375.608 283.663 375.544C284.025 375.48 284.292 375.427 284.462 375.384L285.74 381.585C285.346 381.702 284.782 381.846 284.047 382.016C283.322 382.186 282.459 382.298 281.458 382.352C279.434 382.458 277.734 382.25 276.36 381.728C274.986 381.196 273.952 380.359 273.26 379.219C272.567 378.08 272.232 376.652 272.253 374.937V351.574ZM294.262 391.205C293.25 391.205 292.286 391.125 291.369 390.965C290.453 390.816 289.649 390.608 288.956 390.342L290.874 384.077C291.598 384.333 292.259 384.498 292.856 384.573C293.463 384.647 293.979 384.605 294.406 384.445C294.842 384.285 295.157 383.982 295.348 383.534L295.54 383.087L286.911 357.455H296.116L300.079 374.457H300.334L304.361 357.455H313.63L304.681 384.045C304.233 385.398 303.584 386.613 302.731 387.689C301.89 388.776 300.782 389.633 299.407 390.262C298.033 390.89 296.318 391.205 294.262 391.205Z" fill="#514F66"/>
<circle cx="151.5" cy="147" r="132.75" stroke="#33719F" stroke-width="28.5"/>
<path fill-rule="evenodd" clip-rule="evenodd" d="M69.9 119.85L69.9 119.867C65.7955 120.137 62.55 123.552 62.55 127.725C62.55 129.037 62.8706 130.273 63.4378 131.361C62.2387 132.591 61.4999 134.272 61.4999 136.125C61.4999 139.894 64.5556 142.95 68.3249 142.95C71.9121 142.95 74.853 140.183 75.1288 136.666C75.5403 136.36 75.9054 135.996 76.2118 135.585C77.2702 136.259 78.5269 136.65 79.875 136.65C80.3764 136.65 80.8653 136.596 81.336 136.493C81.6769 136.984 82.0993 137.413 82.5835 137.762C83.1195 141.294 86.1687 144 89.85 144C93.9092 144 97.2 140.709 97.2 136.65C97.2 133.484 95.1982 130.786 92.3913 129.751C93.428 128.484 94.05 126.865 94.05 125.1C94.05 121.041 90.7592 117.75 86.7 117.75C86.5843 117.75 86.4692 117.753 86.3548 117.758C85.3251 114.718 82.1085 112.5 78.3 112.5C73.6608 112.5 69.9 115.791 69.9 119.85Z" fill="url(#paint0_linear_176_1120)"/>
<path d="M81.7498 130.5H82.4998L81.7498 136.5V141L83.2498 139.5L86.2498 137.25H87.7498C87.7498 137.25 87.226 137.795 86.2498 138.75C85.2735 139.705 84.7498 141 84.7498 141C84.7498 141 85.4998 141 86.9998 141.75L88.4998 142.5H83.2498C83.2498 142.5 82.4998 142.5 81.7498 144C80.9998 145.5 80.9998 145.5 80.9998 147C80.9998 148.5 81.259 157.5 81.259 157.5H76.759C76.759 157.5 78.7498 150.75 77.9998 147.75C77.2498 144.75 74.2498 143.25 74.2498 143.25L69.7498 139.5L70.4998 138.75L74.2498 141L71.9998 135H72.7498L76.4998 142.5L78.7498 144C78.7498 144 76.4998 138.75 75.7498 137.25C74.9998 135.75 71.9998 133.5 71.9998 133.5L72.7498 132L76.4998 135L77.2498 132H77.9998L77.2498 136.5L79.4998 139.5L81.7498 130.5Z" fill="#3A1F0A"/>
<path fill-rule="evenodd" clip-rule="evenodd" d="M123.429 85.5L123.429 85.5211C128.454 85.8519 132.429 90.0333 132.429 95.1429C132.429 96.7489 132.036 98.2632 131.341 99.5951C132.81 101.101 133.714 103.159 133.714 105.429C133.714 110.044 129.973 113.786 125.357 113.786C120.965 113.786 117.364 110.397 117.026 106.091C116.522 105.717 116.075 105.27 115.7 104.767C114.404 105.593 112.865 106.071 111.214 106.071C110.6 106.071 110.001 106.005 109.425 105.879C109.008 106.48 108.491 107.006 107.898 107.433C107.241 111.757 103.508 115.071 99 115.071C94.0294 115.071 90 111.042 90 106.071C90 102.195 92.4511 98.8905 95.8881 97.6239C94.6187 96.0725 93.8571 94.0895 93.8571 91.9286C93.8571 86.958 97.8866 82.9286 102.857 82.9286C102.999 82.9286 103.14 82.9318 103.28 82.9383C104.541 79.2157 108.479 76.5 113.143 76.5C118.823 76.5 123.429 80.5294 123.429 85.5Z" fill="url(#paint1_linear_176_1120)"/>
<path d="M109.929 100.928H109.286L109.929 106.071V109.928L108.643 108.643L106.071 106.714H104.786C104.786 106.714 105.235 107.182 106.071 108C106.908 108.818 107.357 109.928 107.357 109.928C107.357 109.928 106.714 109.928 105.429 110.571L104.143 111.214H108.643C108.643 111.214 109.286 111.214 109.929 112.5C110.571 113.786 110.571 113.786 110.571 115.071C110.571 116.357 110.011 136.5 110.011 136.5H113.869C113.869 136.5 112.5 118.286 113.143 115.714C113.786 113.143 116.357 111.857 116.357 111.857L120.214 108.643L119.571 108L116.357 109.928L118.286 104.786H117.643L114.429 111.214L112.5 112.5C112.5 112.5 114.429 108 115.071 106.714C115.714 105.428 118.286 103.5 118.286 103.5L117.643 102.214L114.429 104.786L113.786 102.214H113.143L113.786 106.071L111.857 108.643L109.929 100.928Z" fill="#72491F"/>
<path fill-rule="evenodd" clip-rule="evenodd" d="M208.3 112.7L208.3 112.718C204 113.001 200.6 116.578 200.6 120.95C200.6 122.324 200.936 123.62 201.53 124.759C200.274 126.048 199.5 127.808 199.5 129.75C199.5 133.699 202.701 136.9 206.65 136.9C210.408 136.9 213.489 134.001 213.778 130.317C214.209 129.997 214.591 129.615 214.912 129.184C216.021 129.891 217.338 130.3 218.75 130.3C219.275 130.3 219.787 130.243 220.28 130.136C220.638 130.65 221.08 131.099 221.587 131.465C222.149 135.165 225.343 138 229.2 138C233.452 138 236.9 134.553 236.9 130.3C236.9 126.983 234.803 124.156 231.862 123.073C232.948 121.745 233.6 120.049 233.6 118.2C233.6 113.947 230.152 110.5 225.9 110.5C225.779 110.5 225.658 110.503 225.538 110.508C224.46 107.323 221.09 105 217.1 105C212.24 105 208.3 108.447 208.3 112.7Z" fill="url(#paint2_linear_176_1120)"/>
<path d="M219.75 121.5H220.5L219.75 127.5V132L221.25 130.5L224.25 128.25H225.75C225.75 128.25 225.226 128.795 224.25 129.75C223.273 130.705 222.75 132 222.75 132C222.75 132 223.5 132 225 132.75L226.5 133.5H221.25C221.25 133.5 220.5 133.5 219.75 135C219 136.5 219 136.5 219 138C219 139.5 219.38 153 219.38 153H214.88C214.88 153 216.75 141.75 216 138.75C215.25 135.75 212.25 134.25 212.25 134.25L207.75 130.5L208.5 129.75L212.25 132L210 126H210.75L214.5 133.5L216.75 135C216.75 135 214.5 129.75 213.75 128.25C213 126.75 210 124.5 210 124.5L210.75 123L214.5 126L215.25 123H216L215.25 127.5L217.5 130.5L219.75 121.5Z" fill="#72491F"/>
<path fill-rule="evenodd" clip-rule="evenodd" d="M204.176 85.7206L204.176 85.7387C208.488 86.0223 211.897 89.6093 211.897 93.9926C211.897 95.3703 211.56 96.6693 210.965 97.8119C212.224 99.1038 213 100.869 213 102.816C213 106.776 209.791 109.985 205.831 109.985C202.063 109.985 198.974 107.078 198.684 103.385C198.252 103.063 197.868 102.68 197.546 102.248C196.435 102.957 195.114 103.368 193.698 103.368C193.172 103.368 192.658 103.311 192.164 103.203C191.806 103.718 191.362 104.169 190.853 104.536C190.29 108.245 187.087 111.088 183.221 111.088C178.957 111.088 175.5 107.632 175.5 103.368C175.5 100.042 177.603 97.2075 180.551 96.121C179.462 94.7901 178.809 93.089 178.809 91.2353C178.809 86.9713 182.266 83.5147 186.53 83.5147C186.651 83.5147 186.772 83.5175 186.892 83.5231C187.973 80.3296 191.352 78 195.353 78C200.226 78 204.176 81.4566 204.176 85.7206Z" fill="url(#paint3_linear_176_1120)"/>
<path d="M192.75 97.5H192L192.75 103.5V108L191.25 106.5L188.25 104.25H186.75C186.75 104.25 187.274 104.795 188.25 105.75C189.226 106.705 189.75 108 189.75 108C189.75 108 189 108 187.5 108.75L186 109.5H191.25C191.25 109.5 192 109.5 192.75 111C193.5 112.5 193.5 112.5 193.5 114C193.5 115.5 192.031 128.25 192.031 128.25H196.531C196.531 128.25 195.75 117.75 196.5 114.75C197.25 111.75 200.25 110.25 200.25 110.25L204.75 106.5L204 105.75L200.25 108L202.5 102H201.75L198 109.5L195.75 111C195.75 111 198 105.75 198.75 104.25C199.5 102.75 202.5 100.5 202.5 100.5L201.75 99L198 102L197.25 99H196.5L197.25 103.5L195 106.5L192.75 97.5Z" fill="#9B692E"/>
<path fill-rule="evenodd" clip-rule="evenodd" d="M111.3 109.35L111.3 109.367C115.404 109.637 118.65 113.052 118.65 117.225C118.65 118.537 118.329 119.773 117.762 120.861C118.961 122.091 119.7 123.772 119.7 125.625C119.7 129.394 116.644 132.45 112.875 132.45C109.288 132.45 106.347 129.683 106.071 126.166C105.66 125.86 105.295 125.496 104.988 125.085C103.93 125.759 102.673 126.15 101.325 126.15C100.823 126.15 100.334 126.096 99.8637 125.993C99.5229 126.483 99.1006 126.913 98.6164 127.262C98.0805 130.794 95.0313 133.5 91.35 133.5C87.2907 133.5 84 130.209 84 126.15C84 122.984 86.0017 120.286 88.8086 119.251C87.7719 117.984 87.15 116.365 87.15 114.6C87.15 110.541 90.4407 107.25 94.5 107.25C94.6157 107.25 94.7308 107.253 94.8452 107.258C95.8749 104.218 99.0914 102 102.9 102C107.539 102 111.3 105.291 111.3 109.35Z" fill="url(#paint4_linear_176_1120)"/>
<path d="M99.75 117H99L99.75 123V127.5L98.25 126L95.25 123.75H93.75C93.75 123.75 94.2737 124.295 95.25 125.25C96.2263 126.205 96.75 127.5 96.75 127.5C96.75 127.5 96 127.5 94.5 128.25L93 129H98.25C98.25 129 99 129 99.75 130.5C100.5 132 100.5 132 100.5 133.5C100.5 135 99.75 148.5 99.75 148.5H104.25C104.25 148.5 102.75 137.25 103.5 134.25C104.25 131.25 107.25 129.75 107.25 129.75L111.75 126L111 125.25L107.25 127.5L109.5 121.5H108.75L105 129L102.75 130.5C102.75 130.5 105 125.25 105.75 123.75C106.5 122.25 109.5 120 109.5 120L108.75 118.5L105 121.5L104.25 118.5H103.5L104.25 123L102 126L99.75 117Z" fill="#BE9A7D"/>
<path fill-rule="evenodd" clip-rule="evenodd" d="M166.5 64.5L166.5 64.5246C172.364 64.9105 177 69.7888 177 75.75C177 77.6237 176.542 79.3904 175.732 80.9442C177.445 82.7012 178.5 85.1024 178.5 87.75C178.5 93.1348 174.135 97.5 168.75 97.5C163.625 97.5 159.424 93.5465 159.03 88.5231C158.442 88.0862 157.921 87.5653 157.483 86.9781C155.971 87.9417 154.176 88.5 152.25 88.5C151.533 88.5 150.835 88.4227 150.162 88.276C149.676 88.9764 149.072 89.5899 148.381 90.0884C147.615 95.1337 143.259 99 138 99C132.201 99 127.5 94.299 127.5 88.5C127.5 83.9772 130.36 80.1222 134.369 78.6446C132.888 76.8346 132 74.5211 132 72C132 66.201 136.701 61.5 142.5 61.5C142.665 61.5 142.83 61.5038 142.993 61.5114C144.464 57.1683 149.059 54 154.5 54C161.127 54 166.5 58.701 166.5 64.5Z" fill="url(#paint5_linear_176_1120)"/>
<path d="M150.75 82.5H150L150.75 88.5V93L149.25 91.5L146.25 89.25H144.75C144.75 89.25 145.274 89.7954 146.25 90.75C147.226 91.7046 147.75 93 147.75 93C147.75 93 147 93 145.5 93.75L144 94.5H149.25C149.25 94.5 150 94.5 150.75 96C151.5 97.5 151.5 97.5 151.5 99C151.5 100.5 150.75 127.5 150.75 127.5H155.25C155.25 127.5 153.75 102.75 154.5 99.75C155.25 96.75 158.25 95.25 158.25 95.25L162.75 91.5L162 90.75L158.25 93L160.5 87H159.75L156 94.5L153.75 96C153.75 96 156 90.75 156.75 89.25C157.5 87.75 160.5 85.5 160.5 85.5L159.75 84L156 87L155.25 84H154.5L155.25 88.5L153 91.5L150.75 82.5Z" fill="#3A1F0A"/>
<path fill-rule="evenodd" clip-rule="evenodd" d="M121.3 99.2L121.3 99.218C117 99.5011 113.6 103.078 113.6 107.45C113.6 108.824 113.936 110.12 114.53 111.259C113.274 112.548 112.5 114.308 112.5 116.25C112.5 120.199 115.701 123.4 119.65 123.4C123.408 123.4 126.489 120.501 126.778 116.817C127.209 116.497 127.591 116.115 127.912 115.684C129.021 116.391 130.338 116.8 131.75 116.8C132.275 116.8 132.787 116.743 133.28 116.636C133.638 117.15 134.08 117.599 134.587 117.965C135.149 121.665 138.343 124.5 142.2 124.5C146.452 124.5 149.9 121.053 149.9 116.8C149.9 113.483 147.803 110.656 144.862 109.573C145.948 108.245 146.6 106.549 146.6 104.7C146.6 100.447 143.152 97 138.9 97C138.779 97 138.658 97.0028 138.538 97.0083C137.46 93.8234 134.09 91.5 130.1 91.5C125.24 91.5 121.3 94.9474 121.3 99.2Z" fill="url(#paint6_linear_176_1120)"/>
<path d="M132.75 108H133.5L132.75 114V118.5L134.25 117L137.25 114.75H138.75C138.75 114.75 138.226 115.295 137.25 116.25C136.273 117.205 135.75 118.5 135.75 118.5C135.75 118.5 136.5 118.5 138 119.25L139.5 120H134.25C134.25 120 133.5 120 132.75 121.5C132 123 132 123 132 124.5C132 126 132.38 139.5 132.38 139.5H127.88C127.88 139.5 129.75 128.25 129 125.25C128.25 122.25 125.25 120.75 125.25 120.75L120.75 117L121.5 116.25L125.25 118.5L123 112.5H123.75L127.5 120L129.75 121.5C129.75 121.5 127.5 116.25 126.75 114.75C126 113.25 123 111 123 111L123.75 109.5L127.5 112.5L128.25 109.5H129L128.25 114L130.5 117L132.75 108Z" fill="#72491F"/>
<path fill-rule="evenodd" clip-rule="evenodd" d="M164.8 100.7L164.8 100.718C160.5 101.001 157.1 104.578 157.1 108.95C157.1 110.324 157.436 111.62 158.03 112.759C156.774 114.048 156 115.808 156 117.75C156 121.699 159.201 124.9 163.15 124.9C166.908 124.9 169.989 122.001 170.278 118.317C170.709 117.997 171.091 117.615 171.412 117.184C172.521 117.891 173.838 118.3 175.25 118.3C175.775 118.3 176.287 118.243 176.78 118.136C177.138 118.65 177.58 119.099 178.087 119.465C178.649 123.165 181.843 126 185.7 126C189.952 126 193.4 122.553 193.4 118.3C193.4 114.983 191.303 112.156 188.362 111.073C189.448 109.745 190.1 108.049 190.1 106.2C190.1 101.947 186.652 98.5 182.4 98.5C182.279 98.5 182.158 98.5028 182.038 98.5083C180.96 95.3234 177.59 93 173.6 93C168.74 93 164.8 96.4474 164.8 100.7Z" fill="url(#paint7_linear_176_1120)"/>
<path d="M176.25 109.5H177L176.25 115.5V120L177.75 118.5L180.75 116.25H182.25C182.25 116.25 181.726 116.795 180.75 117.75C179.773 118.705 179.25 120 179.25 120C179.25 120 180 120 181.5 120.75L183 121.5H177.75C177.75 121.5 177 121.5 176.25 123C175.5 124.5 175.5 124.5 175.5 126C175.5 127.5 175.88 141 175.88 141H171.38C171.38 141 173.25 129.75 172.5 126.75C171.75 123.75 168.75 122.25 168.75 122.25L164.25 118.5L165 117.75L168.75 120L166.5 114H167.25L171 121.5L173.25 123C173.25 123 171 117.75 170.25 116.25C169.5 114.75 166.5 112.5 166.5 112.5L167.25 111L171 114L171.75 111H172.5L171.75 115.5L174 118.5L176.25 109.5Z" fill="#72491F"/>
<path fill-rule="evenodd" clip-rule="evenodd" d="M186.9 112.35L186.9 112.367C182.795 112.637 179.55 116.052 179.55 120.225C179.55 121.537 179.871 122.773 180.438 123.861C179.239 125.091 178.5 126.772 178.5 128.625C178.5 132.394 181.556 135.45 185.325 135.45C188.912 135.45 191.853 132.683 192.129 129.166C192.54 128.86 192.905 128.496 193.212 128.085C194.27 128.759 195.527 129.15 196.875 129.15C197.376 129.15 197.865 129.096 198.336 128.993C198.677 129.484 199.099 129.913 199.584 130.262C200.12 133.794 203.169 136.5 206.85 136.5C210.909 136.5 214.2 133.209 214.2 129.15C214.2 125.984 212.198 123.286 209.391 122.251C210.428 120.984 211.05 119.365 211.05 117.6C211.05 113.541 207.759 110.25 203.7 110.25C203.584 110.25 203.469 110.253 203.355 110.258C202.325 107.218 199.109 105 195.3 105C190.661 105 186.9 108.291 186.9 112.35Z" fill="url(#paint8_linear_176_1120)"/>
<path d="M198.75 123H199.5L198.75 129V133.5L200.25 132L203.25 129.75H204.75C204.75 129.75 204.226 130.295 203.25 131.25C202.273 132.205 201.75 133.5 201.75 133.5C201.75 133.5 202.5 133.5 204 134.25L205.5 135H200.25C200.25 135 199.5 135 198.75 136.5C198 138 198 138 198 139.5C198 141 198.259 150 198.259 150H193.759C193.759 150 195.75 143.25 195 140.25C194.25 137.25 191.25 135.75 191.25 135.75L186.75 132L187.5 131.25L191.25 133.5L189 127.5H189.75L193.5 135L195.75 136.5C195.75 136.5 193.5 131.25 192.75 129.75C192 128.25 189 126 189 126L189.75 124.5L193.5 127.5L194.25 124.5H195L194.25 129L196.5 132L198.75 123Z" fill="#3A1F0A"/>
<defs>
<filter id="filter0_d_176_1120" x="160.913" y="135.917" width="88.2512" height="136.728" filterUnits="userSpaceOnUse" color-interpolation-filters="sRGB">
<feFlood flood-opacity="0" result="BackgroundImageFix"/>
<feColorMatrix in="SourceAlpha" type="matrix" values="0 0 0 0 0 0 0 0 0 0 0 0 0 0 0 0 0 0 127 0" result="hardAlpha"/>
<feOffset dy="1.5"/>
<feComposite in2="hardAlpha" operator="out"/>
<feColorMatrix type="matrix" values="0 0 0 0 0 0 0 0 0 0 0 0 0 0 0 0 0 0 0.25 0"/>
<feBlend mode="normal" in2="BackgroundImageFix" result="effect1_dropShadow_176_1120"/>
<feBlend mode="normal" in="SourceGraphic" in2="effect1_dropShadow_176_1120" result="shape"/>
</filter>
<filter id="filter1_d_176_1120" x="61.9656" y="135.711" width="92.0227" height="132.846" filterUnits="userSpaceOnUse" color-interpolation-filters="sRGB">
<feFlood flood-opacity="0" result="BackgroundImageFix"/>
<feColorMatrix in="SourceAlpha" type="matrix" values="0 0 0 0 0 0 0 0 0 0 0 0 0 0 0 0 0 0 127 0" result="hardAlpha"/>
<feOffset dx="1.5" dy="1.5"/>
<feComposite in2="hardAlpha" operator="out"/>
<feColorMatrix type="matrix" values="0 0 0 0 0.422049 0 0 0 0 0.673537 0 0 0 0 0.920833 0 0 0 1 0"/>
<feBlend mode="normal" in2="BackgroundImageFix" result="effect1_dropShadow_176_1120"/>
<feBlend mode="normal" in="SourceGraphic" in2="effect1_dropShadow_176_1120" result="shape"/>
</filter>
<filter id="filter2_d_176_1120" x="121.239" y="131.446" width="38.3716" height="81.5222" filterUnits="userSpaceOnUse" color-interpolation-filters="sRGB">
<feFlood flood-opacity="0" result="BackgroundImageFix"/>
<feColorMatrix in="SourceAlpha" type="matrix" values="0 0 0 0 0 0 0 0 0 0 0 0 0 0 0 0 0 0 127 0" result="hardAlpha"/>
<feOffset dx="3" dy="1.5"/>
<feComposite in2="hardAlpha" operator="out"/>
<feColorMatrix type="matrix" values="0 0 0 0 0 0 0 0 0 0 0 0 0 0 0 0 0 0 0.25 0"/>
<feBlend mode="normal" in2="BackgroundImageFix" result="effect1_dropShadow_176_1120"/>
<feBlend mode="normal" in="SourceGraphic" in2="effect1_dropShadow_176_1120" result="shape"/>
</filter>
<linearGradient id="paint0_linear_176_1120" x1="93" y1="117.75" x2="65.175" y2="140.325" gradientUnits="userSpaceOnUse">
<stop stop-color="#55A145"/>
<stop offset="1" stop-color="#106A35"/>
</linearGradient>
<linearGradient id="paint1_linear_176_1120" x1="95.1429" y1="82.9286" x2="129.214" y2="110.571" gradientUnits="userSpaceOnUse">
<stop stop-color="#9ACA3B"/>
<stop offset="1" stop-color="#7AA721"/>
</linearGradient>
<linearGradient id="paint2_linear_176_1120" x1="232.5" y1="110.5" x2="203.35" y2="134.15" gradientUnits="userSpaceOnUse">
<stop stop-color="#9ACA3B"/>
<stop offset="1" stop-color="#1C7D3E"/>
</linearGradient>
<linearGradient id="paint3_linear_176_1120" x1="179.912" y1="83.5147" x2="209.14" y2="107.228" gradientUnits="userSpaceOnUse">
<stop stop-color="#CEDB2B"/>
<stop offset="1" stop-color="#AED138"/>
</linearGradient>
<linearGradient id="paint4_linear_176_1120" x1="88.2" y1="107.25" x2="116.025" y2="129.825" gradientUnits="userSpaceOnUse">
<stop stop-color="#CEDB2B"/>
<stop offset="1" stop-color="#AED138"/>
</linearGradient>
<linearGradient id="paint5_linear_176_1120" x1="133.5" y1="61.5" x2="173.25" y2="93.75" gradientUnits="userSpaceOnUse">
<stop stop-color="#55A145"/>
<stop offset="1" stop-color="#106A35"/>
</linearGradient>
<linearGradient id="paint6_linear_176_1120" x1="145.5" y1="97" x2="116.35" y2="120.65" gradientUnits="userSpaceOnUse">
<stop stop-color="#9ACA3B"/>
<stop offset="1" stop-color="#1C7D3E"/>
</linearGradient>
<linearGradient id="paint7_linear_176_1120" x1="189" y1="98.5" x2="159.85" y2="122.15" gradientUnits="userSpaceOnUse">
<stop stop-color="#9ACA3B"/>
<stop offset="1" stop-color="#1C7D3E"/>
</linearGradient>
<linearGradient id="paint8_linear_176_1120" x1="210" y1="110.25" x2="182.175" y2="132.825" gradientUnits="userSpaceOnUse">
<stop stop-color="#55A145"/>
<stop offset="1" stop-color="#106A35"/>
</linearGradient>
</defs>
</svg>
