<svg width="1386" height="800" viewBox="0 0 1386 800" fill="none" xmlns="http://www.w3.org/2000/svg">
<path d="M0 0H1386V800H0V0Z" fill="#FFB81C"/>
<mask id="mask0_210_2" style="mask-type:alpha" maskUnits="userSpaceOnUse" x="0" y="0" width="1386" height="800">
<path d="M0 0H1386V800H0V0Z" fill="#FFB81C"/>
</mask>
<g mask="url(#mask0_210_2)">
<path d="M-175 3L-37 -132L1602 867L1160 1392L-175 3Z" fill="white" fill-opacity="0.19"/>
<path d="M499.5 -37.5L563 -71.5L2177 355L1932 657.5L499.5 -37.5Z" fill="white" fill-opacity="0.19"/>
</g>
<path d="M49 50.537L550 32L403.893 175L62.2423 146.598L49 50.537Z" fill="#001489"/>
<path d="M42 41H530L397.504 163L54.5408 139.709L42 41Z" fill="#007749"/>
<path d="M934 667H1367V791L977.737 762.067L934 667Z" fill="black" fill-opacity="0.4"/>
<path d="M926 657H1359V781L969.737 752.067L926 657Z" fill="black"/>
<path d="M936.707 580H950.707L946.707 645L937.479 640.436L936.707 580Z" fill="black" fill-opacity="0.4"/>
<path d="M871.675 608.627L890.207 598.5L924.707 645.5L915.193 650.57L871.675 608.627Z" fill="black" fill-opacity="0.4"/>
<path d="M872.207 685L866 668.364L913 660.335L913.706 672.5L872.207 685Z" fill="black" fill-opacity="0.4"/>
<path d="M933 577H947L943 642L933.772 637.436L933 577Z" fill="black"/>
<path d="M867.968 606.627L886.5 596.5L921 643.5L911.487 648.57L867.968 606.627Z" fill="black"/>
<path d="M868.5 682L862.293 665.364L909.293 657.335L910 669.5L868.5 682Z" fill="black"/>
<path d="M393.351 156.812L512.368 41H530L397.632 163L55 139.709L393.351 156.812Z" fill="#026740"/>
<path d="M127.06 94.845C127.537 94.845 127.903 95.0833 128.16 95.56C128.453 96 128.6 96.5683 128.6 97.265C128.6 98.1083 128.472 98.7683 128.215 99.245C127.958 99.7217 127.555 100.143 127.005 100.51C124.842 101.94 121.395 104.287 116.665 107.55C115.235 115.14 113.383 121.117 111.11 125.48C108.837 129.843 105.958 132.025 102.475 132.025C100.605 132.025 99.0833 131.438 97.91 130.265C96.7367 129.128 96.15 127.625 96.15 125.755C96.15 124.032 96.535 122.29 97.305 120.53C98.075 118.77 99.505 116.735 101.595 114.425C103.722 112.115 106.71 109.475 110.56 106.505L110.725 105.46C107.828 106.67 104.987 107.275 102.2 107.275C98.0933 107.275 94.4817 106.487 91.365 104.91C88.2483 103.297 85.8283 101.023 84.105 98.09C82.3817 95.1567 81.52 91.7467 81.52 87.86C81.52 82.4333 82.5467 77.6483 84.6 73.505C86.6533 69.325 89.4767 66.0983 93.07 63.825C96.7 61.515 100.752 60.36 105.225 60.36C109.515 60.36 112.723 61.3683 114.85 63.385C117.013 65.365 118.095 68.005 118.095 71.305C118.095 73.4683 117.692 75.21 116.885 76.53C116.115 77.8133 114.997 78.455 113.53 78.455C112.54 78.455 111.733 78.2167 111.11 77.74C110.523 77.2633 110.23 76.6033 110.23 75.76C110.23 75.3933 110.303 74.77 110.45 73.89C110.67 72.8633 110.78 72.0567 110.78 71.47C110.78 69.93 110.303 68.7383 109.35 67.895C108.433 67.0517 106.875 66.63 104.675 66.63C101.998 66.63 99.505 67.4 97.195 68.94C94.9217 70.48 93.0883 72.79 91.695 75.87C90.3017 78.9133 89.605 82.58 89.605 86.87C89.605 91.27 90.7967 94.68 93.18 97.1C95.6 99.4833 99.0833 100.675 103.63 100.675C106.16 100.675 108.8 100.107 111.55 98.97L112.32 92.26H106.71C105.683 92.26 104.895 92.0217 104.345 91.545C103.795 91.0317 103.52 90.2067 103.52 89.07C103.52 88.0433 103.795 87.2367 104.345 86.65C104.895 86.0633 105.628 85.77 106.545 85.77H116.83C117.637 85.77 118.297 86.045 118.81 86.595C119.36 87.1083 119.58 87.86 119.47 88.85C119.36 90.0233 118.993 92.6817 118.37 96.825L117.765 101.005C120.698 98.805 123.375 96.8983 125.795 95.285C126.272 94.9917 126.693 94.845 127.06 94.845ZM103.08 126.69C104.033 126.69 105.078 125.608 106.215 123.445C107.352 121.282 108.415 117.798 109.405 112.995C106.618 115.378 104.602 117.523 103.355 119.43C102.145 121.373 101.54 123.078 101.54 124.545C101.54 125.975 102.053 126.69 103.08 126.69ZM128.534 107.275C127.141 107.275 126.151 106.542 125.564 105.075C125.014 103.608 124.739 101.262 124.739 98.035C124.739 93.2683 125.418 88.74 126.774 84.45C127.104 83.3867 127.636 82.6167 128.369 82.14C129.139 81.6267 130.203 81.37 131.559 81.37C132.293 81.37 132.806 81.4617 133.099 81.645C133.393 81.8283 133.539 82.1767 133.539 82.69C133.539 83.2767 133.264 84.5967 132.714 86.65C132.348 88.1167 132.054 89.4 131.834 90.5C131.614 91.6 131.431 92.9567 131.284 94.57C132.494 91.4167 133.851 88.85 135.354 86.87C136.858 84.89 138.324 83.4783 139.754 82.635C141.221 81.7917 142.559 81.37 143.769 81.37C146.153 81.37 147.344 82.5617 147.344 84.945C147.344 85.4217 147.179 86.5767 146.849 88.41C146.556 89.8767 146.409 90.7933 146.409 91.16C146.409 92.4433 146.868 93.085 147.784 93.085C148.811 93.085 150.131 92.2783 151.744 90.665C152.221 90.1883 152.716 89.95 153.229 89.95C153.706 89.95 154.073 90.17 154.329 90.61C154.623 91.0133 154.769 91.5633 154.769 92.26C154.769 93.6167 154.403 94.68 153.669 95.45C152.643 96.5133 151.433 97.43 150.039 98.2C148.683 98.9333 147.234 99.3 145.694 99.3C143.751 99.3 142.266 98.805 141.239 97.815C140.249 96.825 139.754 95.4867 139.754 93.8C139.754 93.25 139.809 92.7 139.919 92.15C139.993 91.4167 140.029 90.9217 140.029 90.665C140.029 90.0783 139.828 89.785 139.424 89.785C138.874 89.785 138.141 90.4083 137.224 91.655C136.344 92.865 135.464 94.4783 134.584 96.495C133.704 98.5117 132.989 100.638 132.439 102.875C132.036 104.598 131.559 105.772 131.009 106.395C130.496 106.982 129.671 107.275 128.534 107.275ZM174.189 94.735C174.665 94.735 175.032 94.955 175.289 95.395C175.582 95.835 175.729 96.44 175.729 97.21C175.729 98.6767 175.38 99.8133 174.684 100.62C173.327 102.27 171.402 103.792 168.909 105.185C166.452 106.578 163.812 107.275 160.989 107.275C157.139 107.275 154.15 106.23 152.024 104.14C149.897 102.05 148.834 99.19 148.834 95.56C148.834 93.03 149.365 90.6833 150.429 88.52C151.492 86.32 152.959 84.5783 154.829 83.295C156.735 82.0117 158.88 81.37 161.264 81.37C163.39 81.37 165.095 82.0117 166.379 83.295C167.662 84.5417 168.304 86.2467 168.304 88.41C168.304 90.94 167.387 93.1217 165.554 94.955C163.757 96.7517 160.695 98.1817 156.369 99.245C157.285 100.932 159.027 101.775 161.594 101.775C163.244 101.775 165.114 101.207 167.204 100.07C169.33 98.8967 171.164 97.375 172.704 95.505C173.144 94.9917 173.639 94.735 174.189 94.735ZM160.329 86.76C158.972 86.76 157.817 87.5483 156.864 89.125C155.947 90.7017 155.489 92.6083 155.489 94.845V94.955C157.652 94.4417 159.357 93.6717 160.604 92.645C161.85 91.6183 162.474 90.4267 162.474 89.07C162.474 88.3733 162.272 87.8233 161.869 87.42C161.502 86.98 160.989 86.76 160.329 86.76ZM195.78 94.735C196.257 94.735 196.624 94.955 196.88 95.395C197.174 95.835 197.32 96.44 197.32 97.21C197.32 98.6767 196.972 99.8133 196.275 100.62C194.919 102.27 192.994 103.792 190.5 105.185C188.044 106.578 185.404 107.275 182.58 107.275C178.73 107.275 175.742 106.23 173.615 104.14C171.489 102.05 170.425 99.19 170.425 95.56C170.425 93.03 170.957 90.6833 172.02 88.52C173.084 86.32 174.55 84.5783 176.42 83.295C178.327 82.0117 180.472 81.37 182.855 81.37C184.982 81.37 186.687 82.0117 187.97 83.295C189.254 84.5417 189.895 86.2467 189.895 88.41C189.895 90.94 188.979 93.1217 187.145 94.955C185.349 96.7517 182.287 98.1817 177.96 99.245C178.877 100.932 180.619 101.775 183.185 101.775C184.835 101.775 186.705 101.207 188.795 100.07C190.922 98.8967 192.755 97.375 194.295 95.505C194.735 94.9917 195.23 94.735 195.78 94.735ZM181.92 86.76C180.564 86.76 179.409 87.5483 178.455 89.125C177.539 90.7017 177.08 92.6083 177.08 94.845V94.955C179.244 94.4417 180.949 93.6717 182.195 92.645C183.442 91.6183 184.065 90.4267 184.065 89.07C184.065 88.3733 183.864 87.8233 183.46 87.42C183.094 86.98 182.58 86.76 181.92 86.76ZM217.372 94.735C217.849 94.735 218.215 94.955 218.472 95.395C218.765 95.835 218.912 96.44 218.912 97.21C218.912 98.6767 218.564 99.8133 217.867 100.62C216.29 102.563 214.567 104.158 212.697 105.405C210.827 106.652 208.682 107.275 206.262 107.275C198.782 107.275 195.042 102.013 195.042 91.49C195.042 89.8767 195.097 88.245 195.207 86.595H193.062C191.962 86.595 191.21 86.3933 190.807 85.99C190.44 85.5867 190.257 84.945 190.257 84.065C190.257 82.0117 191.082 80.985 192.732 80.985H195.867C196.49 76.9517 197.444 73.2667 198.727 69.93C200.01 66.5933 201.55 63.935 203.347 61.955C205.18 59.975 207.142 58.985 209.232 58.985C210.772 58.985 211.982 59.6633 212.862 61.02C213.742 62.3767 214.182 64.0817 214.182 66.135C214.182 71.8183 211.799 76.7683 207.032 80.985H213.192C213.779 80.985 214.2 81.1133 214.457 81.37C214.714 81.6267 214.842 82.1033 214.842 82.8C214.842 85.33 212.77 86.595 208.627 86.595H201.917C201.844 88.4283 201.807 89.8583 201.807 90.885C201.807 94.6983 202.247 97.375 203.127 98.915C204.044 100.455 205.474 101.225 207.417 101.225C208.994 101.225 210.387 100.748 211.597 99.795C212.807 98.8417 214.237 97.4117 215.887 95.505C216.327 94.9917 216.822 94.735 217.372 94.735ZM207.747 64.265C207.197 64.265 206.574 64.9617 205.877 66.355C205.217 67.7117 204.575 69.6183 203.952 72.075C203.365 74.495 202.87 77.19 202.467 80.16C204.63 78.29 206.244 76.2 207.307 73.89C208.407 71.5433 208.957 69.4167 208.957 67.51C208.957 65.3467 208.554 64.265 207.747 64.265ZM221.639 77.74C220.099 77.74 218.944 77.3917 218.174 76.695C217.404 75.9617 217.019 74.9533 217.019 73.67C217.019 72.3867 217.514 71.3233 218.504 70.48C219.531 69.6 220.796 69.16 222.299 69.16C223.656 69.16 224.756 69.49 225.599 70.15C226.442 70.81 226.864 71.745 226.864 72.955C226.864 74.4217 226.387 75.595 225.434 76.475C224.481 77.3183 223.216 77.74 221.639 77.74ZM221.199 107.275C218.816 107.275 217.074 106.432 215.974 104.745C214.911 103.058 214.379 100.822 214.379 98.035C214.379 96.385 214.581 94.2767 214.984 91.71C215.424 89.1067 215.974 86.6867 216.634 84.45C216.964 83.2767 217.404 82.47 217.954 82.03C218.504 81.59 219.384 81.37 220.594 81.37C222.464 81.37 223.399 81.9933 223.399 83.24C223.399 84.1567 223.051 86.2833 222.354 89.62C221.474 93.6533 221.034 96.385 221.034 97.815C221.034 98.915 221.181 99.7583 221.474 100.345C221.767 100.932 222.262 101.225 222.959 101.225C223.619 101.225 224.444 100.767 225.434 99.85C226.424 98.9333 227.744 97.485 229.394 95.505C229.834 94.9917 230.329 94.735 230.879 94.735C231.356 94.735 231.722 94.955 231.979 95.395C232.272 95.835 232.419 96.44 232.419 97.21C232.419 98.6767 232.071 99.8133 231.374 100.62C227.744 105.057 224.352 107.275 221.199 107.275ZM231.874 107.275C230.481 107.275 229.491 106.542 228.904 105.075C228.354 103.608 228.079 101.262 228.079 98.035C228.079 93.2683 228.757 88.74 230.114 84.45C230.444 83.3867 230.976 82.6167 231.709 82.14C232.479 81.6267 233.542 81.37 234.899 81.37C235.632 81.37 236.146 81.4617 236.439 81.645C236.732 81.8283 236.879 82.1767 236.879 82.69C236.879 83.2767 236.604 84.5967 236.054 86.65C235.687 88.1167 235.394 89.4 235.174 90.5C234.954 91.6 234.771 92.9567 234.624 94.57C235.834 91.4167 237.191 88.85 238.694 86.87C240.197 84.89 241.664 83.4783 243.094 82.635C244.561 81.7917 245.899 81.37 247.109 81.37C249.492 81.37 250.684 82.5617 250.684 84.945C250.684 86.375 250.281 88.96 249.474 92.7C248.777 95.89 248.429 97.9983 248.429 99.025C248.429 100.492 248.961 101.225 250.024 101.225C250.757 101.225 251.619 100.785 252.609 99.905C253.636 98.9883 254.992 97.5217 256.679 95.505C257.119 94.9917 257.614 94.735 258.164 94.735C258.641 94.735 259.007 94.955 259.264 95.395C259.557 95.835 259.704 96.44 259.704 97.21C259.704 98.6767 259.356 99.8133 258.659 100.62C257.082 102.563 255.377 104.158 253.544 105.405C251.747 106.652 249.694 107.275 247.384 107.275C245.514 107.275 244.102 106.743 243.149 105.68C242.196 104.58 241.719 103.003 241.719 100.95C241.719 99.9233 241.976 98.09 242.489 95.45C242.966 93.14 243.204 91.545 243.204 90.665C243.204 90.0783 243.002 89.785 242.599 89.785C242.122 89.785 241.444 90.4083 240.564 91.655C239.721 92.865 238.841 94.4783 237.924 96.495C237.044 98.5117 236.329 100.638 235.779 102.875C235.376 104.598 234.899 105.772 234.349 106.395C233.836 106.982 233.011 107.275 231.874 107.275ZM273.899 83.185C274.816 83.185 275.458 83.3317 275.824 83.625C276.228 83.8817 276.429 84.4133 276.429 85.22C276.429 85.66 276.411 86.0083 276.374 86.265C276.228 87.4017 275.769 90.335 274.999 95.065C274.449 98.255 274.101 100.363 273.954 101.39C272.561 110.85 270.673 118.312 268.289 123.775C265.943 129.275 262.789 132.025 258.829 132.025C256.959 132.025 255.438 131.438 254.264 130.265C253.091 129.128 252.504 127.625 252.504 125.755C252.504 123.152 253.531 120.347 255.584 117.34C257.638 114.37 261.488 110.703 267.134 106.34L267.464 104.195C266.841 105.185 266.016 105.955 264.989 106.505C263.999 107.018 263.009 107.275 262.019 107.275C259.746 107.275 257.931 106.45 256.574 104.8C255.218 103.15 254.539 100.987 254.539 98.31C254.539 95.3767 255.218 92.6083 256.574 90.005C257.931 87.365 259.728 85.2567 261.964 83.68C264.238 82.0667 266.639 81.26 269.169 81.26C269.976 81.26 270.508 81.425 270.764 81.755C271.058 82.0483 271.296 82.5983 271.479 83.405C272.176 83.2583 272.983 83.185 273.899 83.185ZM263.999 101.72C264.843 101.72 265.649 101.207 266.419 100.18C267.189 99.1533 267.739 97.6867 268.069 95.78L269.829 86.375C268.326 86.4117 266.933 86.9983 265.649 88.135C264.366 89.235 263.339 90.7017 262.569 92.535C261.799 94.3683 261.414 96.3117 261.414 98.365C261.414 99.5017 261.634 100.345 262.074 100.895C262.551 101.445 263.193 101.72 263.999 101.72ZM259.434 126.69C260.351 126.69 261.378 125.59 262.514 123.39C263.688 121.19 264.806 117.688 265.869 112.885C263.046 115.305 261.011 117.487 259.764 119.43C258.518 121.373 257.894 123.078 257.894 124.545C257.894 125.168 258.004 125.682 258.224 126.085C258.481 126.488 258.884 126.69 259.434 126.69ZM289.923 108.485C288.016 108.485 286.549 108.045 285.523 107.165C284.533 106.285 284.038 105.295 284.038 104.195C284.038 103.242 284.386 102.417 285.083 101.72C285.779 101.023 286.806 100.675 288.163 100.675C288.639 100.675 289.189 100.73 289.813 100.84C290.473 100.913 290.968 100.968 291.298 101.005C291.261 100.052 291.041 99.1533 290.638 98.31C290.271 97.4667 289.794 96.66 289.208 95.89C288.621 95.0833 288.071 94.3867 287.558 93.8C286.421 95.9633 285.284 97.76 284.148 99.19C283.048 100.62 281.838 101.977 280.518 103.26C279.858 103.92 279.161 104.25 278.428 104.25C277.841 104.25 277.364 104.048 276.998 103.645C276.631 103.205 276.448 102.673 276.448 102.05C276.448 101.317 276.704 100.638 277.218 100.015L277.933 99.135C279.949 96.6417 281.471 94.5883 282.498 92.975C283.158 91.9117 283.818 90.6467 284.478 89.18C285.174 87.7133 286.073 85.715 287.173 83.185C287.869 81.5717 289.318 80.765 291.518 80.765C292.544 80.765 293.259 80.8567 293.663 81.04C294.066 81.2233 294.268 81.5167 294.268 81.92C294.268 82.14 294.194 82.4883 294.048 82.965C293.901 83.4417 293.699 83.9183 293.443 84.395C292.783 85.715 292.453 86.8333 292.453 87.75C292.453 88.3 292.636 88.905 293.003 89.565C293.406 90.225 294.011 91.05 294.818 92.04C295.991 93.58 296.871 94.9 297.458 96C298.081 97.0633 298.393 98.2367 298.393 99.52C298.393 101.06 298.026 102.527 297.293 103.92C296.596 105.277 295.606 106.377 294.323 107.22C293.039 108.063 291.573 108.485 289.923 108.485ZM337.839 91.6C338.866 91.6 339.379 92.37 339.379 93.91C339.379 96.8067 337.106 98.255 332.559 98.255C331.679 98.255 330.414 98.09 328.764 97.76C329.241 100.033 329.626 102.563 329.919 105.35C330.249 108.1 330.414 110.373 330.414 112.17C330.414 116.13 329.772 119.155 328.489 121.245C327.206 123.335 325.519 124.38 323.429 124.38C320.789 124.38 318.901 122.51 317.764 118.77C316.664 115.03 316.114 109.383 316.114 101.83C316.114 94.79 316.866 87.6583 318.369 80.435C319.909 73.175 321.999 67.18 324.639 62.45C327.316 57.6833 330.249 55.3 333.439 55.3C335.162 55.3 336.501 56.07 337.454 57.61C338.444 59.15 338.939 61.2217 338.939 63.825C338.939 72.4417 333.787 81.8283 323.484 91.985C323.117 95.5783 322.934 98.7317 322.934 101.445C322.934 105.222 323.062 109.09 323.319 113.05C323.576 117.047 323.997 119.045 324.584 119.045C325.684 119.045 326.234 117.138 326.234 113.325C326.234 110.465 326.032 107.697 325.629 105.02C325.262 102.343 324.749 99.52 324.089 96.55C324.052 96.0733 324.199 95.4683 324.529 94.735C324.896 94.0017 325.336 93.36 325.849 92.81C326.362 92.26 326.821 91.985 327.224 91.985C327.957 91.985 328.837 92.0217 329.864 92.095C330.194 92.1317 330.579 92.15 331.019 92.15C332.486 92.15 334.117 92.0217 335.914 91.765C336.207 91.7283 336.519 91.6917 336.849 91.655C337.179 91.6183 337.509 91.6 337.839 91.6ZM332.284 60.745C331.624 60.745 330.799 61.8633 329.809 64.1C328.856 66.3367 327.902 69.3067 326.949 73.01C325.996 76.6767 325.171 80.5633 324.474 84.67C327.407 81.3333 329.662 77.8683 331.239 74.275C332.816 70.645 333.622 67.2533 333.659 64.1C333.659 61.8633 333.201 60.745 332.284 60.745ZM339.135 107.275C337.742 107.275 336.752 106.542 336.165 105.075C335.615 103.608 335.34 101.262 335.34 98.035C335.34 93.2683 336.018 88.74 337.375 84.45C337.705 83.3867 338.237 82.6167 338.97 82.14C339.74 81.6267 340.803 81.37 342.16 81.37C342.893 81.37 343.407 81.4617 343.7 81.645C343.993 81.8283 344.14 82.1767 344.14 82.69C344.14 83.2767 343.865 84.5967 343.315 86.65C342.948 88.1167 342.655 89.4 342.435 90.5C342.215 91.6 342.032 92.9567 341.885 94.57C343.095 91.4167 344.452 88.85 345.955 86.87C347.458 84.89 348.925 83.4783 350.355 82.635C351.822 81.7917 353.16 81.37 354.37 81.37C356.753 81.37 357.945 82.5617 357.945 84.945C357.945 85.4217 357.78 86.5767 357.45 88.41C357.157 89.8767 357.01 90.7933 357.01 91.16C357.01 92.4433 357.468 93.085 358.385 93.085C359.412 93.085 360.732 92.2783 362.345 90.665C362.822 90.1883 363.317 89.95 363.83 89.95C364.307 89.95 364.673 90.17 364.93 90.61C365.223 91.0133 365.37 91.5633 365.37 92.26C365.37 93.6167 365.003 94.68 364.27 95.45C363.243 96.5133 362.033 97.43 360.64 98.2C359.283 98.9333 357.835 99.3 356.295 99.3C354.352 99.3 352.867 98.805 351.84 97.815C350.85 96.825 350.355 95.4867 350.355 93.8C350.355 93.25 350.41 92.7 350.52 92.15C350.593 91.4167 350.63 90.9217 350.63 90.665C350.63 90.0783 350.428 89.785 350.025 89.785C349.475 89.785 348.742 90.4083 347.825 91.655C346.945 92.865 346.065 94.4783 345.185 96.495C344.305 98.5117 343.59 100.638 343.04 102.875C342.637 104.598 342.16 105.772 341.61 106.395C341.097 106.982 340.272 107.275 339.135 107.275ZM388.309 90.115C388.786 90.115 389.152 90.3533 389.409 90.83C389.666 91.3067 389.794 91.9117 389.794 92.645C389.794 94.405 389.262 95.45 388.199 95.78C385.999 96.55 383.579 96.99 380.939 97.1C380.242 100.18 378.867 102.655 376.814 104.525C374.761 106.358 372.432 107.275 369.829 107.275C367.629 107.275 365.741 106.743 364.164 105.68C362.624 104.617 361.451 103.205 360.644 101.445C359.837 99.685 359.434 97.7783 359.434 95.725C359.434 92.9383 359.966 90.4633 361.029 88.3C362.092 86.1 363.559 84.395 365.429 83.185C367.299 81.9383 369.371 81.315 371.644 81.315C374.431 81.315 376.667 82.2867 378.354 84.23C380.077 86.1367 381.086 88.5017 381.379 91.325C383.102 91.215 385.156 90.8483 387.539 90.225C387.832 90.1517 388.089 90.115 388.309 90.115ZM370.269 101.445C371.442 101.445 372.451 100.968 373.294 100.015C374.174 99.0617 374.761 97.6867 375.054 95.89C373.917 95.12 373.037 94.1117 372.414 92.865C371.827 91.6183 371.534 90.2983 371.534 88.905C371.534 88.3183 371.589 87.7317 371.699 87.145H371.424C369.957 87.145 368.729 87.86 367.739 89.29C366.786 90.6833 366.309 92.6633 366.309 95.23C366.309 97.2467 366.694 98.7867 367.464 99.85C368.271 100.913 369.206 101.445 370.269 101.445ZM388.979 107.275C387.585 107.275 386.595 106.542 386.009 105.075C385.459 103.608 385.184 101.262 385.184 98.035C385.184 93.2683 385.862 88.74 387.219 84.45C387.549 83.3867 388.08 82.6167 388.814 82.14C389.584 81.6267 390.647 81.37 392.004 81.37C392.737 81.37 393.25 81.4617 393.544 81.645C393.837 81.8283 393.984 82.1767 393.984 82.69C393.984 83.2767 393.709 84.5967 393.159 86.65C392.792 88.1167 392.499 89.4 392.279 90.5C392.059 91.5633 391.875 92.9017 391.729 94.515C392.719 91.655 393.892 89.235 395.249 87.255C396.642 85.275 398.054 83.8083 399.484 82.855C400.95 81.865 402.325 81.37 403.609 81.37C404.892 81.37 405.79 81.6633 406.304 82.25C406.854 82.8367 407.129 83.735 407.129 84.945C407.129 86.1183 406.78 88.245 406.084 91.325C405.79 92.645 405.589 93.635 405.479 94.295C406.689 91.215 408.027 88.7033 409.494 86.76C410.997 84.8167 412.464 83.4417 413.894 82.635C415.324 81.7917 416.644 81.37 417.854 81.37C419.027 81.37 419.907 81.6817 420.494 82.305C421.117 82.8917 421.429 83.7717 421.429 84.945C421.429 85.8983 421.227 87.695 420.824 90.335C420.457 92.5717 420.164 94.6983 419.944 96.715C419.724 98.695 419.614 100.913 419.614 103.37C419.614 104.763 419.32 105.772 418.734 106.395C418.184 106.982 417.267 107.275 415.984 107.275C414.774 107.275 413.894 106.963 413.344 106.34C412.794 105.717 412.519 104.782 412.519 103.535C412.519 102.068 412.775 99.6483 413.289 96.275C413.729 93.3417 413.949 91.4717 413.949 90.665C413.949 90.0783 413.747 89.785 413.344 89.785C412.867 89.785 412.189 90.4083 411.309 91.655C410.429 92.865 409.549 94.4783 408.669 96.495C407.789 98.5117 407.074 100.638 406.524 102.875C406.12 104.635 405.644 105.808 405.094 106.395C404.58 106.982 403.737 107.275 402.564 107.275C401.354 107.275 400.437 106.707 399.814 105.57C399.227 104.397 398.934 102.985 398.934 101.335C398.934 99.9417 399.117 97.925 399.484 95.285C399.777 92.9383 399.924 91.3983 399.924 90.665C399.924 90.0783 399.722 89.785 399.319 89.785C398.769 89.785 398.072 90.445 397.229 91.765C396.385 93.085 395.56 94.7717 394.754 96.825C393.984 98.8783 393.36 100.895 392.884 102.875C392.48 104.598 392.004 105.772 391.454 106.395C390.94 106.982 390.115 107.275 388.979 107.275Z" fill="#FFB81C"/>
<path d="M1110.98 727.52C1105.22 727.52 1100.6 726.437 1097.14 724.27C1093.67 722.06 1091.94 718.702 1091.94 714.195C1091.94 711.812 1092.35 709.992 1093.17 708.735C1094 707.478 1095.21 706.85 1096.81 706.85C1097.98 706.85 1098.94 707.153 1099.67 707.76C1100.41 708.367 1100.78 709.147 1100.78 710.1C1100.78 710.967 1100.71 711.725 1100.58 712.375C1100.58 712.548 1100.54 712.852 1100.45 713.285C1100.41 713.718 1100.39 714.173 1100.39 714.65C1100.39 716.6 1101.36 718.052 1103.31 719.005C1105.31 719.958 1108.08 720.435 1111.63 720.435C1115.32 720.435 1118.2 719.785 1120.28 718.485C1122.36 717.142 1123.4 715.278 1123.4 712.895C1123.4 711.422 1122.92 710.165 1121.97 709.125C1121.01 708.042 1119.82 707.153 1118.39 706.46C1116.96 705.723 1114.95 704.835 1112.35 703.795C1109.01 702.495 1106.28 701.26 1104.16 700.09C1102.08 698.92 1100.28 697.338 1098.76 695.345C1097.29 693.308 1096.55 690.795 1096.55 687.805C1096.55 684.685 1097.38 681.912 1099.02 679.485C1100.71 677.058 1103.12 675.173 1106.24 673.83C1109.4 672.487 1113.11 671.815 1117.35 671.815C1120.52 671.815 1123.42 672.292 1126.06 673.245C1128.71 674.155 1130.81 675.563 1132.37 677.47C1133.97 679.377 1134.77 681.717 1134.77 684.49C1134.77 687.22 1134.36 689.278 1133.54 690.665C1132.71 692.052 1131.5 692.745 1129.9 692.745C1128.77 692.745 1127.82 692.398 1127.04 691.705C1126.3 691.012 1125.93 690.188 1125.93 689.235C1125.93 688.412 1126 687.653 1126.13 686.96C1126.26 685.66 1126.32 684.837 1126.32 684.49C1126.32 682.67 1125.43 681.283 1123.66 680.33C1121.88 679.377 1119.67 678.9 1117.03 678.9C1113.3 678.9 1110.44 679.593 1108.45 680.98C1106.5 682.323 1105.52 684.23 1105.52 686.7C1105.52 688.347 1106.02 689.755 1107.02 690.925C1108.06 692.095 1109.34 693.07 1110.85 693.85C1112.37 694.63 1114.49 695.562 1117.22 696.645C1120.52 697.988 1123.16 699.202 1125.15 700.285C1127.15 701.368 1128.84 702.842 1130.22 704.705C1131.65 706.568 1132.37 708.865 1132.37 711.595C1132.37 716.708 1130.42 720.652 1126.52 723.425C1122.66 726.155 1117.48 727.52 1110.98 727.52ZM1172.63 712.505C1173.19 712.505 1173.62 712.765 1173.93 713.285C1174.27 713.805 1174.45 714.52 1174.45 715.43C1174.45 717.163 1174.03 718.507 1173.21 719.46C1171.35 721.757 1169.33 723.642 1167.17 725.115C1165.04 726.588 1162.62 727.325 1159.89 727.325C1157.59 727.325 1155.73 726.502 1154.3 724.855C1151.83 726.458 1149.25 727.282 1146.56 727.325C1146 735.688 1144.72 742.665 1142.73 748.255C1140.73 753.888 1137.81 756.705 1133.95 756.705C1131.61 756.705 1129.88 755.86 1128.75 754.17C1127.62 752.48 1127.06 750.14 1127.06 747.15C1127.06 742.903 1128.04 737.942 1129.99 732.265C1131.94 726.632 1134.95 720.413 1139.02 713.61C1139.02 707.283 1138.98 702.885 1138.89 700.415C1138.85 699.158 1139.35 698.162 1140.39 697.425C1141.43 696.688 1142.73 696.32 1144.29 696.32C1145.2 696.32 1145.85 696.515 1146.24 696.905C1146.67 697.252 1146.91 697.967 1146.95 699.05C1146.95 700.133 1146.97 700.935 1147.02 701.455C1148.4 699.722 1149.77 698.487 1151.11 697.75C1152.45 696.97 1153.88 696.58 1155.4 696.58C1157.83 696.58 1159.8 697.555 1161.32 699.505C1162.88 701.455 1163.66 704.012 1163.66 707.175C1163.66 709.472 1163.29 711.703 1162.55 713.87C1161.81 716.037 1160.8 718.008 1159.5 719.785C1160.41 720.045 1161.16 720.175 1161.77 720.175C1163.2 720.175 1164.57 719.655 1165.87 718.615C1167.17 717.575 1168.83 715.842 1170.87 713.415C1171.39 712.808 1171.98 712.505 1172.63 712.505ZM1146.89 721.085C1148.45 720.738 1149.88 719.893 1151.18 718.55C1152.52 717.163 1153.58 715.473 1154.36 713.48C1155.14 711.443 1155.53 709.32 1155.53 707.11C1155.53 705.81 1155.27 704.835 1154.75 704.185C1154.23 703.492 1153.54 703.145 1152.67 703.145C1151.11 703.145 1149.23 704.792 1147.02 708.085C1146.97 709.992 1146.95 712.787 1146.95 716.47C1146.95 718.463 1146.93 720.002 1146.89 721.085ZM1134.47 750.335C1135.64 750.335 1136.62 747.778 1137.4 742.665C1138.18 737.595 1138.67 731.268 1138.89 723.685C1137.03 728.018 1135.55 732.157 1134.47 736.1C1133.39 740.043 1132.85 743.358 1132.85 746.045C1132.85 747.432 1133.02 748.493 1133.37 749.23C1133.67 749.967 1134.04 750.335 1134.47 750.335ZM1202.36 707.045C1202.92 707.045 1203.36 707.327 1203.66 707.89C1203.96 708.453 1204.11 709.168 1204.11 710.035C1204.11 712.115 1203.49 713.35 1202.23 713.74C1199.63 714.65 1196.77 715.17 1193.65 715.3C1192.83 718.94 1191.2 721.865 1188.77 724.075C1186.35 726.242 1183.6 727.325 1180.52 727.325C1177.92 727.325 1175.69 726.697 1173.82 725.44C1172 724.183 1170.62 722.515 1169.66 720.435C1168.71 718.355 1168.23 716.102 1168.23 713.675C1168.23 710.382 1168.86 707.457 1170.12 704.9C1171.38 702.3 1173.11 700.285 1175.32 698.855C1177.53 697.382 1179.98 696.645 1182.66 696.645C1185.96 696.645 1188.6 697.793 1190.59 700.09C1192.63 702.343 1193.82 705.138 1194.17 708.475C1196.21 708.345 1198.63 707.912 1201.45 707.175C1201.8 707.088 1202.1 707.045 1202.36 707.045ZM1181.04 720.435C1182.43 720.435 1183.62 719.872 1184.61 718.745C1185.65 717.618 1186.35 715.993 1186.69 713.87C1185.35 712.96 1184.31 711.768 1183.57 710.295C1182.88 708.822 1182.53 707.262 1182.53 705.615C1182.53 704.922 1182.6 704.228 1182.73 703.535H1182.4C1180.67 703.535 1179.22 704.38 1178.05 706.07C1176.92 707.717 1176.36 710.057 1176.36 713.09C1176.36 715.473 1176.81 717.293 1177.72 718.55C1178.68 719.807 1179.78 720.435 1181.04 720.435ZM1203.15 727.325C1201.5 727.325 1200.33 726.458 1199.64 724.725C1198.99 722.992 1198.67 720.218 1198.67 716.405C1198.67 710.772 1199.47 705.42 1201.07 700.35C1201.46 699.093 1202.09 698.183 1202.96 697.62C1203.87 697.013 1205.12 696.71 1206.73 696.71C1207.59 696.71 1208.2 696.818 1208.55 697.035C1208.89 697.252 1209.07 697.663 1209.07 698.27C1209.07 698.963 1208.74 700.523 1208.09 702.95C1207.66 704.683 1207.31 706.2 1207.05 707.5C1206.79 708.8 1206.57 710.403 1206.4 712.31C1207.83 708.583 1209.43 705.55 1211.21 703.21C1212.99 700.87 1214.72 699.202 1216.41 698.205C1218.14 697.208 1219.73 696.71 1221.16 696.71C1223.97 696.71 1225.38 698.118 1225.38 700.935C1225.38 702.625 1224.9 705.68 1223.95 710.1C1223.13 713.87 1222.72 716.362 1222.72 717.575C1222.72 719.308 1223.34 720.175 1224.6 720.175C1225.47 720.175 1226.49 719.655 1227.66 718.615C1228.87 717.532 1230.47 715.798 1232.47 713.415C1232.99 712.808 1233.57 712.505 1234.22 712.505C1234.78 712.505 1235.22 712.765 1235.52 713.285C1235.87 713.805 1236.04 714.52 1236.04 715.43C1236.04 717.163 1235.63 718.507 1234.81 719.46C1232.94 721.757 1230.93 723.642 1228.76 725.115C1226.64 726.588 1224.21 727.325 1221.48 727.325C1219.27 727.325 1217.6 726.697 1216.48 725.44C1215.35 724.14 1214.79 722.277 1214.79 719.85C1214.79 718.637 1215.09 716.47 1215.7 713.35C1216.26 710.62 1216.54 708.735 1216.54 707.695C1216.54 707.002 1216.3 706.655 1215.83 706.655C1215.26 706.655 1214.46 707.392 1213.42 708.865C1212.42 710.295 1211.38 712.202 1210.3 714.585C1209.26 716.968 1208.42 719.482 1207.77 722.125C1207.29 724.162 1206.73 725.548 1206.08 726.285C1205.47 726.978 1204.49 727.325 1203.15 727.325ZM1242.87 728.755C1240.62 728.755 1238.89 728.235 1237.67 727.195C1236.5 726.155 1235.92 724.985 1235.92 723.685C1235.92 722.558 1236.33 721.583 1237.15 720.76C1237.98 719.937 1239.19 719.525 1240.79 719.525C1241.36 719.525 1242.01 719.59 1242.74 719.72C1243.52 719.807 1244.11 719.872 1244.5 719.915C1244.45 718.788 1244.19 717.727 1243.72 716.73C1243.28 715.733 1242.72 714.78 1242.03 713.87C1241.33 712.917 1240.68 712.093 1240.08 711.4C1238.73 713.957 1237.39 716.08 1236.05 717.77C1234.75 719.46 1233.32 721.063 1231.76 722.58C1230.98 723.36 1230.15 723.75 1229.29 723.75C1228.59 723.75 1228.03 723.512 1227.6 723.035C1227.16 722.515 1226.95 721.887 1226.95 721.15C1226.95 720.283 1227.25 719.482 1227.86 718.745L1228.7 717.705C1231.09 714.758 1232.88 712.332 1234.1 710.425C1234.83 709.168 1235.7 707.5 1236.7 705.42C1237.69 703.297 1238.67 701.108 1239.62 698.855C1240.45 696.948 1242.16 695.995 1244.76 695.995C1245.97 695.995 1246.82 696.103 1247.29 696.32C1247.77 696.537 1248.01 696.883 1248.01 697.36C1248.01 697.62 1247.92 698.032 1247.75 698.595C1247.57 699.158 1247.34 699.722 1247.03 700.285C1246.25 701.845 1245.86 703.167 1245.86 704.25C1245.86 704.9 1246.08 705.615 1246.51 706.395C1246.99 707.175 1247.7 708.15 1248.66 709.32C1250.04 711.14 1251.08 712.7 1251.78 714C1252.51 715.257 1252.88 716.643 1252.88 718.16C1252.88 718.593 1252.84 719.2 1252.75 719.98C1254.88 719.157 1257.37 716.968 1260.23 713.415C1260.75 712.808 1261.33 712.505 1261.98 712.505C1262.55 712.505 1262.98 712.765 1263.28 713.285C1263.63 713.805 1263.8 714.52 1263.8 715.43C1263.8 717.077 1263.39 718.42 1262.57 719.46C1260.4 722.147 1258.32 723.988 1256.33 724.985C1254.38 725.938 1251.95 726.458 1249.05 726.545C1247.31 728.018 1245.26 728.755 1242.87 728.755ZM1291.67 707.045C1292.23 707.045 1292.67 707.327 1292.97 707.89C1293.27 708.453 1293.43 709.168 1293.43 710.035C1293.43 712.115 1292.8 713.35 1291.54 713.74C1288.94 714.65 1286.08 715.17 1282.96 715.3C1282.14 718.94 1280.51 721.865 1278.09 724.075C1275.66 726.242 1272.91 727.325 1269.83 727.325C1267.23 727.325 1265 726.697 1263.14 725.44C1261.32 724.183 1259.93 722.515 1258.98 720.435C1258.02 718.355 1257.55 716.102 1257.55 713.675C1257.55 710.382 1258.17 707.457 1259.43 704.9C1260.69 702.3 1262.42 700.285 1264.63 698.855C1266.84 697.382 1269.29 696.645 1271.98 696.645C1275.27 696.645 1277.91 697.793 1279.91 700.09C1281.94 702.343 1283.13 705.138 1283.48 708.475C1285.52 708.345 1287.94 707.912 1290.76 707.175C1291.11 707.088 1291.41 707.045 1291.67 707.045ZM1270.35 720.435C1271.74 720.435 1272.93 719.872 1273.93 718.745C1274.97 717.618 1275.66 715.993 1276.01 713.87C1274.66 712.96 1273.62 711.768 1272.89 710.295C1272.19 708.822 1271.85 707.262 1271.85 705.615C1271.85 704.922 1271.91 704.228 1272.04 703.535H1271.72C1269.98 703.535 1268.53 704.38 1267.36 706.07C1266.23 707.717 1265.67 710.057 1265.67 713.09C1265.67 715.473 1266.13 717.293 1267.04 718.55C1267.99 719.807 1269.09 720.435 1270.35 720.435ZM1314.11 705.615C1315.06 705.615 1315.86 705.962 1316.51 706.655C1317.21 707.305 1317.55 708.128 1317.55 709.125C1317.55 709.688 1317.42 710.295 1317.16 710.945C1316.47 712.548 1315.49 713.892 1314.24 714.975C1312.98 716.058 1311.59 716.6 1310.08 716.6C1308.86 716.6 1307.82 716.167 1306.96 715.3C1306.13 714.433 1305.72 713.263 1305.72 711.79C1305.72 710.967 1305.77 710.078 1305.85 709.125C1305.94 708.432 1305.98 707.955 1305.98 707.695C1305.98 707.348 1305.9 707.088 1305.72 706.915C1305.59 706.742 1305.42 706.655 1305.2 706.655C1304.6 706.655 1303.77 707.392 1302.73 708.865C1301.69 710.295 1300.65 712.202 1299.61 714.585C1298.57 716.968 1297.73 719.482 1297.08 722.125C1296.6 724.205 1296.06 725.592 1295.45 726.285C1294.85 726.978 1293.85 727.325 1292.46 727.325C1290.82 727.325 1289.65 726.458 1288.95 724.725C1288.3 722.992 1287.98 720.218 1287.98 716.405C1287.98 710.772 1288.78 705.42 1290.38 700.35C1290.77 699.093 1291.4 698.183 1292.27 697.62C1293.18 697.013 1294.43 696.71 1296.04 696.71C1296.9 696.71 1297.51 696.818 1297.86 697.035C1298.2 697.252 1298.38 697.663 1298.38 698.27C1298.38 698.963 1298.05 700.523 1297.4 702.95C1296.97 704.683 1296.62 706.2 1296.36 707.5C1296.1 708.8 1295.89 710.403 1295.71 712.31C1297.14 708.583 1298.75 705.55 1300.52 703.21C1302.3 700.87 1304.03 699.202 1305.72 698.205C1307.41 697.208 1308.95 696.71 1310.34 696.71C1311.59 696.71 1312.55 697.078 1313.2 697.815C1313.89 698.508 1314.24 699.548 1314.24 700.935C1314.24 701.758 1314 703.318 1313.52 705.615H1314.11ZM1327.31 711.79C1326.44 711.79 1325.73 711.595 1325.17 711.205C1324.6 710.815 1324.32 710.208 1324.32 709.385L1324.39 708.865C1325.12 704.012 1326.12 698.487 1327.38 692.29C1328.63 686.093 1329.8 680.742 1330.89 676.235C1331.58 673.462 1333.46 672.075 1336.54 672.075C1339.31 672.075 1340.7 672.963 1340.7 674.74C1340.7 675.13 1340.64 675.563 1340.51 676.04C1339.38 680.633 1337.88 686.202 1336.02 692.745C1334.16 699.245 1332.38 704.9 1330.69 709.71C1330.21 711.097 1329.09 711.79 1327.31 711.79ZM1324.84 727.325C1322.93 727.325 1321.48 726.805 1320.49 725.765C1319.53 724.725 1319.06 723.36 1319.06 721.67C1319.06 719.72 1319.6 718.16 1320.68 716.99C1321.81 715.82 1323.37 715.235 1325.36 715.235C1327.27 715.235 1328.7 715.712 1329.65 716.665C1330.65 717.575 1331.15 718.94 1331.15 720.76C1331.15 722.753 1330.58 724.357 1329.46 725.57C1328.33 726.74 1326.79 727.325 1324.84 727.325Z" fill="#FFB81C"/>
<path d="M985.4 703.79C985.66 703.79 985.86 703.92 986 704.18C986.14 704.44 986.21 704.77 986.21 705.17C986.21 705.67 986.14 706.06 986 706.34C985.86 706.6 985.64 706.78 985.34 706.88C984.14 707.3 982.82 707.54 981.38 707.6C980.98 709.26 980.22 710.6 979.1 711.62C978 712.64 976.78 713.15 975.44 713.15C973.42 713.15 971.95 712.38 971.03 710.84C970.11 709.3 969.65 707.07 969.65 704.15C969.65 701.57 969.97 698.77 970.61 695.75C971.25 692.71 972.18 690.13 973.4 688.01C974.64 685.87 976.11 684.8 977.81 684.8C978.73 684.8 979.47 685.2 980.03 686C980.59 686.78 980.87 687.8 980.87 689.06C980.87 690.7 980.56 692.33 979.94 693.95C979.32 695.57 978.29 697.27 976.85 699.05C978.19 699.15 979.28 699.71 980.12 700.73C980.96 701.73 981.46 702.97 981.62 704.45C982.56 704.39 983.68 704.19 984.98 703.85C985.1 703.81 985.24 703.79 985.4 703.79ZM977.12 687.77C976.72 687.77 976.28 688.37 975.8 689.57C975.34 690.75 974.91 692.36 974.51 694.4C974.11 696.44 973.81 698.67 973.61 701.09C974.93 698.67 975.98 696.54 976.76 694.7C977.56 692.84 977.96 691.19 977.96 689.75C977.96 689.11 977.88 688.62 977.72 688.28C977.58 687.94 977.38 687.77 977.12 687.77ZM975.56 709.97C976.18 709.97 976.73 709.71 977.21 709.19C977.69 708.67 978.01 707.92 978.17 706.94C977.55 706.52 977.07 705.97 976.73 705.29C976.41 704.61 976.25 703.89 976.25 703.13C976.25 702.85 976.29 702.47 976.37 701.99H976.28C975.46 701.99 974.77 702.4 974.21 703.22C973.67 704.02 973.4 705.1 973.4 706.46C973.4 707.6 973.61 708.47 974.03 709.07C974.47 709.67 974.98 709.97 975.56 709.97ZM997 706.31C997.26 706.31 997.46 706.43 997.6 706.67C997.76 706.91 997.84 707.24 997.84 707.66C997.84 708.46 997.65 709.08 997.27 709.52C996.53 710.42 995.48 711.25 994.12 712.01C992.78 712.77 991.34 713.15 989.8 713.15C987.7 713.15 986.07 712.58 984.91 711.44C983.75 710.3 983.17 708.74 983.17 706.76C983.17 705.38 983.46 704.1 984.04 702.92C984.62 701.72 985.42 700.77 986.44 700.07C987.48 699.37 988.65 699.02 989.95 699.02C991.11 699.02 992.04 699.37 992.74 700.07C993.44 700.75 993.79 701.68 993.79 702.86C993.79 704.24 993.29 705.43 992.29 706.43C991.31 707.41 989.64 708.19 987.28 708.77C987.78 709.69 988.73 710.15 990.13 710.15C991.03 710.15 992.05 709.84 993.19 709.22C994.35 708.58 995.35 707.75 996.19 706.73C996.43 706.45 996.7 706.31 997 706.31ZM989.44 701.96C988.7 701.96 988.07 702.39 987.55 703.25C987.05 704.11 986.8 705.15 986.8 706.37V706.43C987.98 706.15 988.91 705.73 989.59 705.17C990.27 704.61 990.61 703.96 990.61 703.22C990.61 702.84 990.5 702.54 990.28 702.32C990.08 702.08 989.8 701.96 989.44 701.96ZM1001.13 713.15C999.167 713.15 997.637 712.6 996.537 711.5C995.457 710.38 994.917 708.91 994.917 707.09C994.917 705.47 995.237 704.05 995.877 702.83C996.517 701.61 997.347 700.67 998.367 700.01C999.387 699.35 1000.46 699.02 1001.58 699.02C1002.68 699.02 1003.53 699.35 1004.13 700.01C1004.75 700.65 1005.06 701.48 1005.06 702.5C1005.06 703.34 1004.87 704.05 1004.49 704.63C1004.13 705.21 1003.65 705.5 1003.05 705.5C1002.67 705.5 1002.36 705.41 1002.12 705.23C1001.9 705.05 1001.79 704.8 1001.79 704.48C1001.79 704.34 1001.81 704.18 1001.85 704C1001.89 703.82 1001.92 703.69 1001.94 703.61C1002.04 703.31 1002.09 703.03 1002.09 702.77C1002.09 702.51 1002.02 702.31 1001.88 702.17C1001.76 702.03 1001.58 701.96 1001.34 701.96C1000.88 701.96 1000.45 702.17 1000.05 702.59C999.647 702.99 999.327 703.54 999.087 704.24C998.847 704.94 998.727 705.71 998.727 706.55C998.727 708.87 999.737 710.03 1001.76 710.03C1002.58 710.03 1003.46 709.76 1004.4 709.22C1005.36 708.66 1006.3 707.83 1007.22 706.73C1007.46 706.45 1007.73 706.31 1008.03 706.31C1008.29 706.31 1008.49 706.43 1008.63 706.67C1008.79 706.91 1008.87 707.24 1008.87 707.66C1008.87 708.42 1008.68 709.04 1008.3 709.52C1007.36 710.68 1006.23 711.58 1004.91 712.22C1003.61 712.84 1002.35 713.15 1001.13 713.15ZM1021.74 703.79C1022 703.79 1022.2 703.92 1022.34 704.18C1022.48 704.44 1022.55 704.77 1022.55 705.17C1022.55 706.13 1022.26 706.7 1021.68 706.88C1020.48 707.3 1019.16 707.54 1017.72 707.6C1017.34 709.28 1016.59 710.63 1015.47 711.65C1014.35 712.65 1013.08 713.15 1011.66 713.15C1010.46 713.15 1009.43 712.86 1008.57 712.28C1007.73 711.7 1007.09 710.93 1006.65 709.97C1006.21 709.01 1005.99 707.97 1005.99 706.85C1005.99 705.33 1006.28 703.98 1006.86 702.8C1007.44 701.6 1008.24 700.67 1009.26 700.01C1010.28 699.33 1011.41 698.99 1012.65 698.99C1014.17 698.99 1015.39 699.52 1016.31 700.58C1017.25 701.62 1017.8 702.91 1017.96 704.45C1018.9 704.39 1020.02 704.19 1021.32 703.85C1021.48 703.81 1021.62 703.79 1021.74 703.79ZM1011.9 709.97C1012.54 709.97 1013.09 709.71 1013.55 709.19C1014.03 708.67 1014.35 707.92 1014.51 706.94C1013.89 706.52 1013.41 705.97 1013.07 705.29C1012.75 704.61 1012.59 703.89 1012.59 703.13C1012.59 702.81 1012.62 702.49 1012.68 702.17H1012.53C1011.73 702.17 1011.06 702.56 1010.52 703.34C1010 704.1 1009.74 705.18 1009.74 706.58C1009.74 707.68 1009.95 708.52 1010.37 709.1C1010.81 709.68 1011.32 709.97 1011.9 709.97ZM1022.11 713.15C1021.35 713.15 1020.81 712.75 1020.49 711.95C1020.19 711.15 1020.04 709.87 1020.04 708.11C1020.04 705.51 1020.41 703.04 1021.15 700.7C1021.33 700.12 1021.62 699.7 1022.02 699.44C1022.44 699.16 1023.02 699.02 1023.76 699.02C1024.16 699.02 1024.44 699.07 1024.6 699.17C1024.76 699.27 1024.84 699.46 1024.84 699.74C1024.84 700.06 1024.69 700.78 1024.39 701.9C1024.19 702.7 1024.03 703.4 1023.91 704C1023.79 704.58 1023.69 705.31 1023.61 706.19C1024.15 704.63 1024.79 703.31 1025.53 702.23C1026.29 701.15 1027.06 700.35 1027.84 699.83C1028.64 699.29 1029.39 699.02 1030.09 699.02C1030.79 699.02 1031.28 699.18 1031.56 699.5C1031.86 699.82 1032.01 700.31 1032.01 700.97C1032.01 701.61 1031.82 702.77 1031.44 704.45C1031.28 705.17 1031.17 705.71 1031.11 706.07C1032.11 703.61 1033.22 701.82 1034.44 700.7C1035.66 699.58 1036.8 699.02 1037.86 699.02C1039.16 699.02 1039.81 699.67 1039.81 700.97C1039.81 701.75 1039.59 703.16 1039.15 705.2C1038.77 706.94 1038.58 708.09 1038.58 708.65C1038.58 709.45 1038.87 709.85 1039.45 709.85C1039.85 709.85 1040.32 709.61 1040.86 709.13C1041.42 708.63 1042.16 707.83 1043.08 706.73C1043.32 706.45 1043.59 706.31 1043.89 706.31C1044.15 706.31 1044.35 706.43 1044.49 706.67C1044.65 706.91 1044.73 707.24 1044.73 707.66C1044.73 708.46 1044.54 709.08 1044.16 709.52C1043.3 710.58 1042.37 711.45 1041.37 712.13C1040.39 712.81 1039.27 713.15 1038.01 713.15C1036.99 713.15 1036.22 712.86 1035.7 712.28C1035.18 711.68 1034.92 710.82 1034.92 709.7C1034.92 709.14 1035.06 708.14 1035.34 706.7C1035.6 705.44 1035.73 704.57 1035.73 704.09C1035.73 703.77 1035.62 703.61 1035.4 703.61C1035.14 703.61 1034.77 703.95 1034.29 704.63C1033.81 705.29 1033.33 706.17 1032.85 707.27C1032.37 708.37 1031.98 709.53 1031.68 710.75C1031.46 711.71 1031.2 712.35 1030.9 712.67C1030.62 712.99 1030.16 713.15 1029.52 713.15C1028.86 713.15 1028.36 712.84 1028.02 712.22C1027.7 711.58 1027.54 710.81 1027.54 709.91C1027.54 709.15 1027.64 708.05 1027.84 706.61C1028 705.33 1028.08 704.49 1028.08 704.09C1028.08 703.77 1027.97 703.61 1027.75 703.61C1027.45 703.61 1027.07 703.97 1026.61 704.69C1026.15 705.41 1025.7 706.33 1025.26 707.45C1024.84 708.57 1024.5 709.67 1024.24 710.75C1024.02 711.69 1023.76 712.33 1023.46 712.67C1023.18 712.99 1022.73 713.15 1022.11 713.15ZM1053.04 707.21C1053.3 707.21 1053.5 707.33 1053.64 707.57C1053.8 707.81 1053.88 708.14 1053.88 708.56C1053.88 709.28 1053.71 709.9 1053.37 710.42C1052.81 711.28 1052.07 711.95 1051.15 712.43C1050.25 712.91 1049.17 713.15 1047.91 713.15C1045.99 713.15 1044.5 712.58 1043.44 711.44C1042.38 710.28 1041.85 708.72 1041.85 706.76C1041.85 705.38 1042.14 704.1 1042.72 702.92C1043.3 701.72 1044.1 700.77 1045.12 700.07C1046.16 699.37 1047.33 699.02 1048.63 699.02C1049.79 699.02 1050.72 699.37 1051.42 700.07C1052.12 700.75 1052.47 701.68 1052.47 702.86C1052.47 704.24 1051.97 705.43 1050.97 706.43C1049.99 707.41 1048.31 708.19 1045.93 708.77C1046.41 709.69 1047.22 710.15 1048.36 710.15C1049.18 710.15 1049.85 709.96 1050.37 709.58C1050.91 709.2 1051.53 708.56 1052.23 707.66C1052.47 707.36 1052.74 707.21 1053.04 707.21ZM1048.12 701.96C1047.38 701.96 1046.75 702.39 1046.23 703.25C1045.73 704.11 1045.48 705.15 1045.48 706.37V706.43C1046.66 706.15 1047.59 705.73 1048.27 705.17C1048.95 704.61 1049.29 703.96 1049.29 703.22C1049.29 702.84 1049.18 702.54 1048.96 702.32C1048.76 702.08 1048.48 701.96 1048.12 701.96ZM1066.02 713.15C1064.88 713.15 1063.95 712.7 1063.23 711.8C1062.53 710.9 1062.18 709.72 1062.18 708.26C1062.18 706.66 1062.55 705.15 1063.29 703.73C1064.03 702.29 1065.01 701.14 1066.23 700.28C1067.47 699.4 1068.78 698.96 1070.16 698.96C1070.6 698.96 1070.89 699.05 1071.03 699.23C1071.19 699.39 1071.32 699.69 1071.42 700.13C1071.8 700.05 1072.22 700.01 1072.68 700.01C1073.16 700.01 1073.53 700.13 1073.79 700.37C1074.05 700.61 1074.18 700.95 1074.18 701.39C1074.18 701.85 1074.08 702.65 1073.88 703.79C1073.66 705.01 1073.49 706.18 1073.37 707.3C1073.25 708.4 1073.19 709.64 1073.19 711.02C1073.19 711.78 1073.03 712.33 1072.71 712.67C1072.41 712.99 1071.91 713.15 1071.21 713.15C1070.53 713.15 1070.02 712.99 1069.68 712.67C1069.36 712.33 1069.2 711.79 1069.2 711.05L1069.23 710.57C1068.61 712.29 1067.54 713.15 1066.02 713.15ZM1067.19 710.12C1067.75 710.12 1068.26 709.73 1068.72 708.95C1069.18 708.17 1069.59 706.78 1069.95 704.78L1070.52 701.75C1069.7 701.77 1068.94 702.09 1068.24 702.71C1067.54 703.31 1066.98 704.11 1066.56 705.11C1066.14 706.11 1065.93 707.17 1065.93 708.29C1065.93 708.89 1066.04 709.35 1066.26 709.67C1066.5 709.97 1066.81 710.12 1067.19 710.12Z" fill="#FFB81C"/>
</svg>
