<svg width="1386" height="800" viewBox="0 0 1386 800" fill="none" xmlns="http://www.w3.org/2000/svg">
<path d="M0 0H1386V800H0V0Z" fill="#E1DFDD"/>
<mask id="mask0_210_94" style="mask-type:alpha" maskUnits="userSpaceOnUse" x="0" y="0" width="1386" height="800">
<path d="M0 0H1386V800H0V0Z" fill="#FFB81C"/>
</mask>
<g mask="url(#mask0_210_94)">
<path d="M-175 3L-37 -132L1602 867L1160 1392L-175 3Z" fill="white" fill-opacity="0.19"/>
<path d="M499.5 -37.5L563 -71.5L2177 355L1932 657.5L499.5 -37.5Z" fill="white" fill-opacity="0.19"/>
</g>
<path d="M49 50.537L550 32L403.893 175L62.2423 146.598L49 50.537Z" fill="#B15500"/>
<path d="M941 667H1367V787L964.5 746.331L941 667Z" fill="#000085" fill-opacity="0.4"/>
<path d="M42 41H530L397.504 163L54.5408 139.709L42 41Z" fill="#FF9933"/>
<path d="M933 657H1359V777L956.5 736.331L933 657Z" fill="#000085"/>
<path d="M945.707 585H959.707L955.707 650L946.479 645.436L945.707 585Z" fill="#000085" fill-opacity="0.4"/>
<path d="M880.675 613.627L899.207 603.5L933.707 650.5L924.193 655.57L880.675 613.627Z" fill="#000085" fill-opacity="0.4"/>
<path d="M881.207 690L875 673.364L922 665.335L922.706 677.5L881.207 690Z" fill="#000085" fill-opacity="0.4"/>
<path d="M942 582H956L952 647L942.772 642.436L942 582Z" fill="#000085"/>
<path d="M876.968 611.627L895.5 601.5L930 648.5L920.487 653.57L876.968 611.627Z" fill="#000085"/>
<path d="M877.5 687L871.293 670.364L918.293 662.335L919 674.5L877.5 687Z" fill="#000085"/>
<path d="M393.351 156.812L512.368 41H530L397.632 163L55 139.709L393.351 156.812Z" fill="#D57A20"/>
<path d="M127.06 94.845C127.537 94.845 127.903 95.0833 128.16 95.56C128.453 96 128.6 96.5683 128.6 97.265C128.6 98.1083 128.472 98.7683 128.215 99.245C127.958 99.7217 127.555 100.143 127.005 100.51C124.842 101.94 121.395 104.287 116.665 107.55C115.235 115.14 113.383 121.117 111.11 125.48C108.837 129.843 105.958 132.025 102.475 132.025C100.605 132.025 99.0833 131.438 97.91 130.265C96.7367 129.128 96.15 127.625 96.15 125.755C96.15 124.032 96.535 122.29 97.305 120.53C98.075 118.77 99.505 116.735 101.595 114.425C103.722 112.115 106.71 109.475 110.56 106.505L110.725 105.46C107.828 106.67 104.987 107.275 102.2 107.275C98.0933 107.275 94.4817 106.487 91.365 104.91C88.2483 103.297 85.8283 101.023 84.105 98.09C82.3817 95.1567 81.52 91.7467 81.52 87.86C81.52 82.4333 82.5467 77.6483 84.6 73.505C86.6533 69.325 89.4767 66.0983 93.07 63.825C96.7 61.515 100.752 60.36 105.225 60.36C109.515 60.36 112.723 61.3683 114.85 63.385C117.013 65.365 118.095 68.005 118.095 71.305C118.095 73.4683 117.692 75.21 116.885 76.53C116.115 77.8133 114.997 78.455 113.53 78.455C112.54 78.455 111.733 78.2167 111.11 77.74C110.523 77.2633 110.23 76.6033 110.23 75.76C110.23 75.3933 110.303 74.77 110.45 73.89C110.67 72.8633 110.78 72.0567 110.78 71.47C110.78 69.93 110.303 68.7383 109.35 67.895C108.433 67.0517 106.875 66.63 104.675 66.63C101.998 66.63 99.505 67.4 97.195 68.94C94.9217 70.48 93.0883 72.79 91.695 75.87C90.3017 78.9133 89.605 82.58 89.605 86.87C89.605 91.27 90.7967 94.68 93.18 97.1C95.6 99.4833 99.0833 100.675 103.63 100.675C106.16 100.675 108.8 100.107 111.55 98.97L112.32 92.26H106.71C105.683 92.26 104.895 92.0217 104.345 91.545C103.795 91.0317 103.52 90.2067 103.52 89.07C103.52 88.0433 103.795 87.2367 104.345 86.65C104.895 86.0633 105.628 85.77 106.545 85.77H116.83C117.637 85.77 118.297 86.045 118.81 86.595C119.36 87.1083 119.58 87.86 119.47 88.85C119.36 90.0233 118.993 92.6817 118.37 96.825L117.765 101.005C120.698 98.805 123.375 96.8983 125.795 95.285C126.272 94.9917 126.693 94.845 127.06 94.845ZM103.08 126.69C104.033 126.69 105.078 125.608 106.215 123.445C107.352 121.282 108.415 117.798 109.405 112.995C106.618 115.378 104.602 117.523 103.355 119.43C102.145 121.373 101.54 123.078 101.54 124.545C101.54 125.975 102.053 126.69 103.08 126.69ZM128.534 107.275C127.141 107.275 126.151 106.542 125.564 105.075C125.014 103.608 124.739 101.262 124.739 98.035C124.739 93.2683 125.418 88.74 126.774 84.45C127.104 83.3867 127.636 82.6167 128.369 82.14C129.139 81.6267 130.203 81.37 131.559 81.37C132.293 81.37 132.806 81.4617 133.099 81.645C133.393 81.8283 133.539 82.1767 133.539 82.69C133.539 83.2767 133.264 84.5967 132.714 86.65C132.348 88.1167 132.054 89.4 131.834 90.5C131.614 91.6 131.431 92.9567 131.284 94.57C132.494 91.4167 133.851 88.85 135.354 86.87C136.858 84.89 138.324 83.4783 139.754 82.635C141.221 81.7917 142.559 81.37 143.769 81.37C146.153 81.37 147.344 82.5617 147.344 84.945C147.344 85.4217 147.179 86.5767 146.849 88.41C146.556 89.8767 146.409 90.7933 146.409 91.16C146.409 92.4433 146.868 93.085 147.784 93.085C148.811 93.085 150.131 92.2783 151.744 90.665C152.221 90.1883 152.716 89.95 153.229 89.95C153.706 89.95 154.073 90.17 154.329 90.61C154.623 91.0133 154.769 91.5633 154.769 92.26C154.769 93.6167 154.403 94.68 153.669 95.45C152.643 96.5133 151.433 97.43 150.039 98.2C148.683 98.9333 147.234 99.3 145.694 99.3C143.751 99.3 142.266 98.805 141.239 97.815C140.249 96.825 139.754 95.4867 139.754 93.8C139.754 93.25 139.809 92.7 139.919 92.15C139.993 91.4167 140.029 90.9217 140.029 90.665C140.029 90.0783 139.828 89.785 139.424 89.785C138.874 89.785 138.141 90.4083 137.224 91.655C136.344 92.865 135.464 94.4783 134.584 96.495C133.704 98.5117 132.989 100.638 132.439 102.875C132.036 104.598 131.559 105.772 131.009 106.395C130.496 106.982 129.671 107.275 128.534 107.275ZM174.189 94.735C174.665 94.735 175.032 94.955 175.289 95.395C175.582 95.835 175.729 96.44 175.729 97.21C175.729 98.6767 175.38 99.8133 174.684 100.62C173.327 102.27 171.402 103.792 168.909 105.185C166.452 106.578 163.812 107.275 160.989 107.275C157.139 107.275 154.15 106.23 152.024 104.14C149.897 102.05 148.834 99.19 148.834 95.56C148.834 93.03 149.365 90.6833 150.429 88.52C151.492 86.32 152.959 84.5783 154.829 83.295C156.735 82.0117 158.88 81.37 161.264 81.37C163.39 81.37 165.095 82.0117 166.379 83.295C167.662 84.5417 168.304 86.2467 168.304 88.41C168.304 90.94 167.387 93.1217 165.554 94.955C163.757 96.7517 160.695 98.1817 156.369 99.245C157.285 100.932 159.027 101.775 161.594 101.775C163.244 101.775 165.114 101.207 167.204 100.07C169.33 98.8967 171.164 97.375 172.704 95.505C173.144 94.9917 173.639 94.735 174.189 94.735ZM160.329 86.76C158.972 86.76 157.817 87.5483 156.864 89.125C155.947 90.7017 155.489 92.6083 155.489 94.845V94.955C157.652 94.4417 159.357 93.6717 160.604 92.645C161.85 91.6183 162.474 90.4267 162.474 89.07C162.474 88.3733 162.272 87.8233 161.869 87.42C161.502 86.98 160.989 86.76 160.329 86.76ZM195.78 94.735C196.257 94.735 196.624 94.955 196.88 95.395C197.174 95.835 197.32 96.44 197.32 97.21C197.32 98.6767 196.972 99.8133 196.275 100.62C194.919 102.27 192.994 103.792 190.5 105.185C188.044 106.578 185.404 107.275 182.58 107.275C178.73 107.275 175.742 106.23 173.615 104.14C171.489 102.05 170.425 99.19 170.425 95.56C170.425 93.03 170.957 90.6833 172.02 88.52C173.084 86.32 174.55 84.5783 176.42 83.295C178.327 82.0117 180.472 81.37 182.855 81.37C184.982 81.37 186.687 82.0117 187.97 83.295C189.254 84.5417 189.895 86.2467 189.895 88.41C189.895 90.94 188.979 93.1217 187.145 94.955C185.349 96.7517 182.287 98.1817 177.96 99.245C178.877 100.932 180.619 101.775 183.185 101.775C184.835 101.775 186.705 101.207 188.795 100.07C190.922 98.8967 192.755 97.375 194.295 95.505C194.735 94.9917 195.23 94.735 195.78 94.735ZM181.92 86.76C180.564 86.76 179.409 87.5483 178.455 89.125C177.539 90.7017 177.08 92.6083 177.08 94.845V94.955C179.244 94.4417 180.949 93.6717 182.195 92.645C183.442 91.6183 184.065 90.4267 184.065 89.07C184.065 88.3733 183.864 87.8233 183.46 87.42C183.094 86.98 182.58 86.76 181.92 86.76ZM217.372 94.735C217.849 94.735 218.215 94.955 218.472 95.395C218.765 95.835 218.912 96.44 218.912 97.21C218.912 98.6767 218.564 99.8133 217.867 100.62C216.29 102.563 214.567 104.158 212.697 105.405C210.827 106.652 208.682 107.275 206.262 107.275C198.782 107.275 195.042 102.013 195.042 91.49C195.042 89.8767 195.097 88.245 195.207 86.595H193.062C191.962 86.595 191.21 86.3933 190.807 85.99C190.44 85.5867 190.257 84.945 190.257 84.065C190.257 82.0117 191.082 80.985 192.732 80.985H195.867C196.49 76.9517 197.444 73.2667 198.727 69.93C200.01 66.5933 201.55 63.935 203.347 61.955C205.18 59.975 207.142 58.985 209.232 58.985C210.772 58.985 211.982 59.6633 212.862 61.02C213.742 62.3767 214.182 64.0817 214.182 66.135C214.182 71.8183 211.799 76.7683 207.032 80.985H213.192C213.779 80.985 214.2 81.1133 214.457 81.37C214.714 81.6267 214.842 82.1033 214.842 82.8C214.842 85.33 212.77 86.595 208.627 86.595H201.917C201.844 88.4283 201.807 89.8583 201.807 90.885C201.807 94.6983 202.247 97.375 203.127 98.915C204.044 100.455 205.474 101.225 207.417 101.225C208.994 101.225 210.387 100.748 211.597 99.795C212.807 98.8417 214.237 97.4117 215.887 95.505C216.327 94.9917 216.822 94.735 217.372 94.735ZM207.747 64.265C207.197 64.265 206.574 64.9617 205.877 66.355C205.217 67.7117 204.575 69.6183 203.952 72.075C203.365 74.495 202.87 77.19 202.467 80.16C204.63 78.29 206.244 76.2 207.307 73.89C208.407 71.5433 208.957 69.4167 208.957 67.51C208.957 65.3467 208.554 64.265 207.747 64.265ZM221.639 77.74C220.099 77.74 218.944 77.3917 218.174 76.695C217.404 75.9617 217.019 74.9533 217.019 73.67C217.019 72.3867 217.514 71.3233 218.504 70.48C219.531 69.6 220.796 69.16 222.299 69.16C223.656 69.16 224.756 69.49 225.599 70.15C226.442 70.81 226.864 71.745 226.864 72.955C226.864 74.4217 226.387 75.595 225.434 76.475C224.481 77.3183 223.216 77.74 221.639 77.74ZM221.199 107.275C218.816 107.275 217.074 106.432 215.974 104.745C214.911 103.058 214.379 100.822 214.379 98.035C214.379 96.385 214.581 94.2767 214.984 91.71C215.424 89.1067 215.974 86.6867 216.634 84.45C216.964 83.2767 217.404 82.47 217.954 82.03C218.504 81.59 219.384 81.37 220.594 81.37C222.464 81.37 223.399 81.9933 223.399 83.24C223.399 84.1567 223.051 86.2833 222.354 89.62C221.474 93.6533 221.034 96.385 221.034 97.815C221.034 98.915 221.181 99.7583 221.474 100.345C221.767 100.932 222.262 101.225 222.959 101.225C223.619 101.225 224.444 100.767 225.434 99.85C226.424 98.9333 227.744 97.485 229.394 95.505C229.834 94.9917 230.329 94.735 230.879 94.735C231.356 94.735 231.722 94.955 231.979 95.395C232.272 95.835 232.419 96.44 232.419 97.21C232.419 98.6767 232.071 99.8133 231.374 100.62C227.744 105.057 224.352 107.275 221.199 107.275ZM231.874 107.275C230.481 107.275 229.491 106.542 228.904 105.075C228.354 103.608 228.079 101.262 228.079 98.035C228.079 93.2683 228.757 88.74 230.114 84.45C230.444 83.3867 230.976 82.6167 231.709 82.14C232.479 81.6267 233.542 81.37 234.899 81.37C235.632 81.37 236.146 81.4617 236.439 81.645C236.732 81.8283 236.879 82.1767 236.879 82.69C236.879 83.2767 236.604 84.5967 236.054 86.65C235.687 88.1167 235.394 89.4 235.174 90.5C234.954 91.6 234.771 92.9567 234.624 94.57C235.834 91.4167 237.191 88.85 238.694 86.87C240.197 84.89 241.664 83.4783 243.094 82.635C244.561 81.7917 245.899 81.37 247.109 81.37C249.492 81.37 250.684 82.5617 250.684 84.945C250.684 86.375 250.281 88.96 249.474 92.7C248.777 95.89 248.429 97.9983 248.429 99.025C248.429 100.492 248.961 101.225 250.024 101.225C250.757 101.225 251.619 100.785 252.609 99.905C253.636 98.9883 254.992 97.5217 256.679 95.505C257.119 94.9917 257.614 94.735 258.164 94.735C258.641 94.735 259.007 94.955 259.264 95.395C259.557 95.835 259.704 96.44 259.704 97.21C259.704 98.6767 259.356 99.8133 258.659 100.62C257.082 102.563 255.377 104.158 253.544 105.405C251.747 106.652 249.694 107.275 247.384 107.275C245.514 107.275 244.102 106.743 243.149 105.68C242.196 104.58 241.719 103.003 241.719 100.95C241.719 99.9233 241.976 98.09 242.489 95.45C242.966 93.14 243.204 91.545 243.204 90.665C243.204 90.0783 243.002 89.785 242.599 89.785C242.122 89.785 241.444 90.4083 240.564 91.655C239.721 92.865 238.841 94.4783 237.924 96.495C237.044 98.5117 236.329 100.638 235.779 102.875C235.376 104.598 234.899 105.772 234.349 106.395C233.836 106.982 233.011 107.275 231.874 107.275ZM273.899 83.185C274.816 83.185 275.458 83.3317 275.824 83.625C276.228 83.8817 276.429 84.4133 276.429 85.22C276.429 85.66 276.411 86.0083 276.374 86.265C276.228 87.4017 275.769 90.335 274.999 95.065C274.449 98.255 274.101 100.363 273.954 101.39C272.561 110.85 270.673 118.312 268.289 123.775C265.943 129.275 262.789 132.025 258.829 132.025C256.959 132.025 255.438 131.438 254.264 130.265C253.091 129.128 252.504 127.625 252.504 125.755C252.504 123.152 253.531 120.347 255.584 117.34C257.638 114.37 261.488 110.703 267.134 106.34L267.464 104.195C266.841 105.185 266.016 105.955 264.989 106.505C263.999 107.018 263.009 107.275 262.019 107.275C259.746 107.275 257.931 106.45 256.574 104.8C255.218 103.15 254.539 100.987 254.539 98.31C254.539 95.3767 255.218 92.6083 256.574 90.005C257.931 87.365 259.728 85.2567 261.964 83.68C264.238 82.0667 266.639 81.26 269.169 81.26C269.976 81.26 270.508 81.425 270.764 81.755C271.058 82.0483 271.296 82.5983 271.479 83.405C272.176 83.2583 272.983 83.185 273.899 83.185ZM263.999 101.72C264.843 101.72 265.649 101.207 266.419 100.18C267.189 99.1533 267.739 97.6867 268.069 95.78L269.829 86.375C268.326 86.4117 266.933 86.9983 265.649 88.135C264.366 89.235 263.339 90.7017 262.569 92.535C261.799 94.3683 261.414 96.3117 261.414 98.365C261.414 99.5017 261.634 100.345 262.074 100.895C262.551 101.445 263.193 101.72 263.999 101.72ZM259.434 126.69C260.351 126.69 261.378 125.59 262.514 123.39C263.688 121.19 264.806 117.688 265.869 112.885C263.046 115.305 261.011 117.487 259.764 119.43C258.518 121.373 257.894 123.078 257.894 124.545C257.894 125.168 258.004 125.682 258.224 126.085C258.481 126.488 258.884 126.69 259.434 126.69ZM289.923 108.485C288.016 108.485 286.549 108.045 285.523 107.165C284.533 106.285 284.038 105.295 284.038 104.195C284.038 103.242 284.386 102.417 285.083 101.72C285.779 101.023 286.806 100.675 288.163 100.675C288.639 100.675 289.189 100.73 289.813 100.84C290.473 100.913 290.968 100.968 291.298 101.005C291.261 100.052 291.041 99.1533 290.638 98.31C290.271 97.4667 289.794 96.66 289.208 95.89C288.621 95.0833 288.071 94.3867 287.558 93.8C286.421 95.9633 285.284 97.76 284.148 99.19C283.048 100.62 281.838 101.977 280.518 103.26C279.858 103.92 279.161 104.25 278.428 104.25C277.841 104.25 277.364 104.048 276.998 103.645C276.631 103.205 276.448 102.673 276.448 102.05C276.448 101.317 276.704 100.638 277.218 100.015L277.933 99.135C279.949 96.6417 281.471 94.5883 282.498 92.975C283.158 91.9117 283.818 90.6467 284.478 89.18C285.174 87.7133 286.073 85.715 287.173 83.185C287.869 81.5717 289.318 80.765 291.518 80.765C292.544 80.765 293.259 80.8567 293.663 81.04C294.066 81.2233 294.268 81.5167 294.268 81.92C294.268 82.14 294.194 82.4883 294.048 82.965C293.901 83.4417 293.699 83.9183 293.443 84.395C292.783 85.715 292.453 86.8333 292.453 87.75C292.453 88.3 292.636 88.905 293.003 89.565C293.406 90.225 294.011 91.05 294.818 92.04C295.991 93.58 296.871 94.9 297.458 96C298.081 97.0633 298.393 98.2367 298.393 99.52C298.393 101.06 298.026 102.527 297.293 103.92C296.596 105.277 295.606 106.377 294.323 107.22C293.039 108.063 291.573 108.485 289.923 108.485ZM337.839 91.6C338.866 91.6 339.379 92.37 339.379 93.91C339.379 96.8067 337.106 98.255 332.559 98.255C331.679 98.255 330.414 98.09 328.764 97.76C329.241 100.033 329.626 102.563 329.919 105.35C330.249 108.1 330.414 110.373 330.414 112.17C330.414 116.13 329.772 119.155 328.489 121.245C327.206 123.335 325.519 124.38 323.429 124.38C320.789 124.38 318.901 122.51 317.764 118.77C316.664 115.03 316.114 109.383 316.114 101.83C316.114 94.79 316.866 87.6583 318.369 80.435C319.909 73.175 321.999 67.18 324.639 62.45C327.316 57.6833 330.249 55.3 333.439 55.3C335.162 55.3 336.501 56.07 337.454 57.61C338.444 59.15 338.939 61.2217 338.939 63.825C338.939 72.4417 333.787 81.8283 323.484 91.985C323.117 95.5783 322.934 98.7317 322.934 101.445C322.934 105.222 323.062 109.09 323.319 113.05C323.576 117.047 323.997 119.045 324.584 119.045C325.684 119.045 326.234 117.138 326.234 113.325C326.234 110.465 326.032 107.697 325.629 105.02C325.262 102.343 324.749 99.52 324.089 96.55C324.052 96.0733 324.199 95.4683 324.529 94.735C324.896 94.0017 325.336 93.36 325.849 92.81C326.362 92.26 326.821 91.985 327.224 91.985C327.957 91.985 328.837 92.0217 329.864 92.095C330.194 92.1317 330.579 92.15 331.019 92.15C332.486 92.15 334.117 92.0217 335.914 91.765C336.207 91.7283 336.519 91.6917 336.849 91.655C337.179 91.6183 337.509 91.6 337.839 91.6ZM332.284 60.745C331.624 60.745 330.799 61.8633 329.809 64.1C328.856 66.3367 327.902 69.3067 326.949 73.01C325.996 76.6767 325.171 80.5633 324.474 84.67C327.407 81.3333 329.662 77.8683 331.239 74.275C332.816 70.645 333.622 67.2533 333.659 64.1C333.659 61.8633 333.201 60.745 332.284 60.745ZM339.135 107.275C337.742 107.275 336.752 106.542 336.165 105.075C335.615 103.608 335.34 101.262 335.34 98.035C335.34 93.2683 336.018 88.74 337.375 84.45C337.705 83.3867 338.237 82.6167 338.97 82.14C339.74 81.6267 340.803 81.37 342.16 81.37C342.893 81.37 343.407 81.4617 343.7 81.645C343.993 81.8283 344.14 82.1767 344.14 82.69C344.14 83.2767 343.865 84.5967 343.315 86.65C342.948 88.1167 342.655 89.4 342.435 90.5C342.215 91.6 342.032 92.9567 341.885 94.57C343.095 91.4167 344.452 88.85 345.955 86.87C347.458 84.89 348.925 83.4783 350.355 82.635C351.822 81.7917 353.16 81.37 354.37 81.37C356.753 81.37 357.945 82.5617 357.945 84.945C357.945 85.4217 357.78 86.5767 357.45 88.41C357.157 89.8767 357.01 90.7933 357.01 91.16C357.01 92.4433 357.468 93.085 358.385 93.085C359.412 93.085 360.732 92.2783 362.345 90.665C362.822 90.1883 363.317 89.95 363.83 89.95C364.307 89.95 364.673 90.17 364.93 90.61C365.223 91.0133 365.37 91.5633 365.37 92.26C365.37 93.6167 365.003 94.68 364.27 95.45C363.243 96.5133 362.033 97.43 360.64 98.2C359.283 98.9333 357.835 99.3 356.295 99.3C354.352 99.3 352.867 98.805 351.84 97.815C350.85 96.825 350.355 95.4867 350.355 93.8C350.355 93.25 350.41 92.7 350.52 92.15C350.593 91.4167 350.63 90.9217 350.63 90.665C350.63 90.0783 350.428 89.785 350.025 89.785C349.475 89.785 348.742 90.4083 347.825 91.655C346.945 92.865 346.065 94.4783 345.185 96.495C344.305 98.5117 343.59 100.638 343.04 102.875C342.637 104.598 342.16 105.772 341.61 106.395C341.097 106.982 340.272 107.275 339.135 107.275ZM388.309 90.115C388.786 90.115 389.152 90.3533 389.409 90.83C389.666 91.3067 389.794 91.9117 389.794 92.645C389.794 94.405 389.262 95.45 388.199 95.78C385.999 96.55 383.579 96.99 380.939 97.1C380.242 100.18 378.867 102.655 376.814 104.525C374.761 106.358 372.432 107.275 369.829 107.275C367.629 107.275 365.741 106.743 364.164 105.68C362.624 104.617 361.451 103.205 360.644 101.445C359.837 99.685 359.434 97.7783 359.434 95.725C359.434 92.9383 359.966 90.4633 361.029 88.3C362.092 86.1 363.559 84.395 365.429 83.185C367.299 81.9383 369.371 81.315 371.644 81.315C374.431 81.315 376.667 82.2867 378.354 84.23C380.077 86.1367 381.086 88.5017 381.379 91.325C383.102 91.215 385.156 90.8483 387.539 90.225C387.832 90.1517 388.089 90.115 388.309 90.115ZM370.269 101.445C371.442 101.445 372.451 100.968 373.294 100.015C374.174 99.0617 374.761 97.6867 375.054 95.89C373.917 95.12 373.037 94.1117 372.414 92.865C371.827 91.6183 371.534 90.2983 371.534 88.905C371.534 88.3183 371.589 87.7317 371.699 87.145H371.424C369.957 87.145 368.729 87.86 367.739 89.29C366.786 90.6833 366.309 92.6633 366.309 95.23C366.309 97.2467 366.694 98.7867 367.464 99.85C368.271 100.913 369.206 101.445 370.269 101.445ZM388.979 107.275C387.585 107.275 386.595 106.542 386.009 105.075C385.459 103.608 385.184 101.262 385.184 98.035C385.184 93.2683 385.862 88.74 387.219 84.45C387.549 83.3867 388.08 82.6167 388.814 82.14C389.584 81.6267 390.647 81.37 392.004 81.37C392.737 81.37 393.25 81.4617 393.544 81.645C393.837 81.8283 393.984 82.1767 393.984 82.69C393.984 83.2767 393.709 84.5967 393.159 86.65C392.792 88.1167 392.499 89.4 392.279 90.5C392.059 91.5633 391.875 92.9017 391.729 94.515C392.719 91.655 393.892 89.235 395.249 87.255C396.642 85.275 398.054 83.8083 399.484 82.855C400.95 81.865 402.325 81.37 403.609 81.37C404.892 81.37 405.79 81.6633 406.304 82.25C406.854 82.8367 407.129 83.735 407.129 84.945C407.129 86.1183 406.78 88.245 406.084 91.325C405.79 92.645 405.589 93.635 405.479 94.295C406.689 91.215 408.027 88.7033 409.494 86.76C410.997 84.8167 412.464 83.4417 413.894 82.635C415.324 81.7917 416.644 81.37 417.854 81.37C419.027 81.37 419.907 81.6817 420.494 82.305C421.117 82.8917 421.429 83.7717 421.429 84.945C421.429 85.8983 421.227 87.695 420.824 90.335C420.457 92.5717 420.164 94.6983 419.944 96.715C419.724 98.695 419.614 100.913 419.614 103.37C419.614 104.763 419.32 105.772 418.734 106.395C418.184 106.982 417.267 107.275 415.984 107.275C414.774 107.275 413.894 106.963 413.344 106.34C412.794 105.717 412.519 104.782 412.519 103.535C412.519 102.068 412.775 99.6483 413.289 96.275C413.729 93.3417 413.949 91.4717 413.949 90.665C413.949 90.0783 413.747 89.785 413.344 89.785C412.867 89.785 412.189 90.4083 411.309 91.655C410.429 92.865 409.549 94.4783 408.669 96.495C407.789 98.5117 407.074 100.638 406.524 102.875C406.12 104.635 405.644 105.808 405.094 106.395C404.58 106.982 403.737 107.275 402.564 107.275C401.354 107.275 400.437 106.707 399.814 105.57C399.227 104.397 398.934 102.985 398.934 101.335C398.934 99.9417 399.117 97.925 399.484 95.285C399.777 92.9383 399.924 91.3983 399.924 90.665C399.924 90.0783 399.722 89.785 399.319 89.785C398.769 89.785 398.072 90.445 397.229 91.765C396.385 93.085 395.56 94.7717 394.754 96.825C393.984 98.8783 393.36 100.895 392.884 102.875C392.48 104.598 392.004 105.772 391.454 106.395C390.94 106.982 390.115 107.275 388.979 107.275Z" fill="#E1DFDD"/>
<path d="M1107.09 735.325C1105.49 735.325 1104.34 734.978 1103.65 734.285C1102.95 733.548 1102.61 732.183 1102.61 730.19C1102.61 728.847 1102.74 727.135 1103 725.055C1103.3 722.932 1103.78 720.028 1104.43 716.345C1105.55 709.542 1106.44 703.648 1107.09 698.665C1107.48 695.545 1107.68 692.945 1107.68 690.865C1107.68 688.915 1106.96 687.94 1105.53 687.94C1104.41 687.94 1103.04 688.525 1101.44 689.695C1099.88 690.822 1098.14 692.642 1096.24 695.155C1095.63 695.978 1094.96 696.39 1094.22 696.39C1093.62 696.39 1093.07 696.108 1092.6 695.545C1092.16 694.938 1091.95 694.267 1091.95 693.53C1091.95 692.837 1092.08 692.143 1092.34 691.45C1092.64 690.713 1093.12 689.89 1093.77 688.98C1095.85 686.077 1098.17 683.845 1100.72 682.285C1103.28 680.682 1105.84 679.88 1108.39 679.88C1110.78 679.88 1112.6 680.638 1113.85 682.155C1115.15 683.672 1115.8 685.882 1115.8 688.785C1115.8 689.955 1115.69 691.342 1115.48 692.945C1115.26 694.505 1115.07 695.783 1114.89 696.78C1114.72 697.777 1114.59 698.47 1114.5 698.86C1116.97 691.797 1119.75 686.878 1122.82 684.105C1125.9 681.288 1129.28 679.88 1132.96 679.88C1135.78 679.88 1137.99 680.877 1139.59 682.87C1141.24 684.863 1142.06 687.68 1142.06 691.32C1142.06 692.75 1141.87 694.527 1141.48 696.65C1143.64 690.67 1146.18 686.38 1149.08 683.78C1151.99 681.18 1155.32 679.88 1159.09 679.88C1162.13 679.88 1164.44 680.855 1166.05 682.805C1167.69 684.755 1168.52 687.485 1168.52 690.995C1168.52 692.902 1168.24 695.22 1167.67 697.95L1163.71 716.54C1163.27 718.707 1163.06 720.57 1163.06 722.13C1163.06 723.95 1163.47 725.315 1164.29 726.225C1165.16 727.135 1166.35 727.59 1167.87 727.59C1169.3 727.59 1170.68 727.113 1172.03 726.16C1173.41 725.207 1175.04 723.625 1176.9 721.415C1177.42 720.808 1178.01 720.505 1178.66 720.505C1179.22 720.505 1179.65 720.765 1179.96 721.285C1180.3 721.805 1180.48 722.52 1180.48 723.43C1180.48 725.12 1180.07 726.463 1179.24 727.46C1176.99 730.19 1174.76 732.183 1172.55 733.44C1170.34 734.697 1168.02 735.325 1165.59 735.325C1161.91 735.325 1159.03 734.242 1156.95 732.075C1154.87 729.865 1153.83 726.918 1153.83 723.235C1153.83 720.678 1154.35 716.973 1155.39 712.12L1157.99 700.225C1158.07 699.835 1158.23 699.142 1158.44 698.145C1158.66 697.148 1158.83 696.217 1158.96 695.35C1159.09 694.44 1159.16 693.552 1159.16 692.685C1159.16 691.168 1158.85 690.042 1158.25 689.305C1157.68 688.525 1156.86 688.135 1155.78 688.135C1153.74 688.135 1151.6 689.457 1149.34 692.1C1147.13 694.7 1145.01 699.033 1142.97 705.1C1140.98 711.167 1139.35 719.053 1138.1 728.76C1137.79 731.36 1137.25 733.115 1136.47 734.025C1135.74 734.892 1134.52 735.325 1132.83 735.325C1131.36 735.325 1130.28 734.978 1129.58 734.285C1128.93 733.592 1128.61 732.292 1128.61 730.385C1128.61 728.608 1128.85 726.29 1129.32 723.43C1129.8 720.527 1130.41 717.125 1131.14 713.225C1133.14 702.738 1134.13 695.978 1134.13 692.945C1134.13 691.298 1133.81 690.085 1133.16 689.305C1132.55 688.525 1131.62 688.135 1130.36 688.135C1128.24 688.135 1126.05 689.348 1123.8 691.775C1121.54 694.158 1119.33 698.427 1117.17 704.58C1115.04 710.69 1113.27 718.967 1111.84 729.41C1111.53 731.62 1111.08 733.158 1110.47 734.025C1109.91 734.892 1108.78 735.325 1107.09 735.325ZM1204.23 720.505C1204.79 720.505 1205.23 720.765 1205.53 721.285C1205.88 721.805 1206.05 722.52 1206.05 723.43C1206.05 725.163 1205.64 726.507 1204.82 727.46C1203.21 729.41 1200.94 731.208 1197.99 732.855C1195.09 734.502 1191.97 735.325 1188.63 735.325C1184.08 735.325 1180.55 734.09 1178.04 731.62C1175.52 729.15 1174.27 725.77 1174.27 721.48C1174.27 718.49 1174.89 715.717 1176.15 713.16C1177.41 710.56 1179.14 708.502 1181.35 706.985C1183.6 705.468 1186.14 704.71 1188.96 704.71C1191.47 704.71 1193.48 705.468 1195 706.985C1196.52 708.458 1197.28 710.473 1197.28 713.03C1197.28 716.02 1196.19 718.598 1194.03 720.765C1191.9 722.888 1188.28 724.578 1183.17 725.835C1184.25 727.828 1186.31 728.825 1189.35 728.825C1191.3 728.825 1193.51 728.153 1195.98 726.81C1198.49 725.423 1200.66 723.625 1202.48 721.415C1203 720.808 1203.58 720.505 1204.23 720.505ZM1187.85 711.08C1186.25 711.08 1184.88 712.012 1183.76 713.875C1182.67 715.738 1182.13 717.992 1182.13 720.635V720.765C1184.69 720.158 1186.7 719.248 1188.18 718.035C1189.65 716.822 1190.39 715.413 1190.39 713.81C1190.39 712.987 1190.15 712.337 1189.67 711.86C1189.24 711.34 1188.63 711.08 1187.85 711.08ZM1205.37 735.325C1203.73 735.325 1202.56 734.458 1201.86 732.725C1201.21 730.992 1200.89 728.218 1200.89 724.405C1200.89 718.772 1201.69 713.42 1203.29 708.35C1203.68 707.093 1204.31 706.183 1205.18 705.62C1206.09 705.013 1207.34 704.71 1208.95 704.71C1209.81 704.71 1210.42 704.818 1210.77 705.035C1211.11 705.252 1211.29 705.663 1211.29 706.27C1211.29 706.963 1210.96 708.523 1210.31 710.95C1209.88 712.683 1209.53 714.2 1209.27 715.5C1209.01 716.8 1208.8 718.403 1208.62 720.31C1210.05 716.583 1211.66 713.55 1213.43 711.21C1215.21 708.87 1216.94 707.202 1218.63 706.205C1220.37 705.208 1221.95 704.71 1223.38 704.71C1226.19 704.71 1227.6 706.118 1227.6 708.935C1227.6 710.625 1227.13 713.68 1226.17 718.1C1225.35 721.87 1224.94 724.362 1224.94 725.575C1224.94 727.308 1225.57 728.175 1226.82 728.175C1227.69 728.175 1228.71 727.655 1229.88 726.615C1231.09 725.532 1232.69 723.798 1234.69 721.415C1235.21 720.808 1235.79 720.505 1236.44 720.505C1237.01 720.505 1237.44 720.765 1237.74 721.285C1238.09 721.805 1238.26 722.52 1238.26 723.43C1238.26 725.163 1237.85 726.507 1237.03 727.46C1235.16 729.757 1233.15 731.642 1230.98 733.115C1228.86 734.588 1226.43 735.325 1223.7 735.325C1221.49 735.325 1219.82 734.697 1218.7 733.44C1217.57 732.14 1217.01 730.277 1217.01 727.85C1217.01 726.637 1217.31 724.47 1217.92 721.35C1218.48 718.62 1218.76 716.735 1218.76 715.695C1218.76 715.002 1218.52 714.655 1218.05 714.655C1217.48 714.655 1216.68 715.392 1215.64 716.865C1214.65 718.295 1213.61 720.202 1212.52 722.585C1211.48 724.968 1210.64 727.482 1209.99 730.125C1209.51 732.162 1208.95 733.548 1208.3 734.285C1207.69 734.978 1206.72 735.325 1205.37 735.325ZM1261.99 720.505C1262.56 720.505 1262.99 720.765 1263.29 721.285C1263.64 721.805 1263.81 722.52 1263.81 723.43C1263.81 725.163 1263.4 726.507 1262.58 727.46C1260.72 729.757 1258.68 731.642 1256.47 733.115C1254.26 734.588 1251.72 735.325 1248.86 735.325C1240.02 735.325 1235.6 729.107 1235.6 716.67C1235.6 714.763 1235.67 712.835 1235.8 710.885H1233.26C1231.96 710.885 1231.08 710.647 1230.6 710.17C1230.17 709.693 1229.95 708.935 1229.95 707.895C1229.95 705.468 1230.92 704.255 1232.87 704.255H1236.58C1237.32 699.488 1238.44 695.133 1239.96 691.19C1241.48 687.247 1243.3 684.105 1245.42 681.765C1247.59 679.425 1249.9 678.255 1252.37 678.255C1254.19 678.255 1255.62 679.057 1256.66 680.66C1257.7 682.263 1258.22 684.278 1258.22 686.705C1258.22 693.422 1255.41 699.272 1249.77 704.255H1257.05C1257.75 704.255 1258.25 704.407 1258.55 704.71C1258.85 705.013 1259 705.577 1259 706.4C1259 709.39 1256.56 710.885 1251.66 710.885H1243.73C1243.64 713.052 1243.6 714.742 1243.6 715.955C1243.6 720.462 1244.12 723.625 1245.16 725.445C1246.24 727.265 1247.93 728.175 1250.23 728.175C1252.09 728.175 1253.74 727.612 1255.17 726.485C1256.6 725.358 1258.29 723.668 1260.24 721.415C1260.76 720.808 1261.34 720.505 1261.99 720.505ZM1250.62 684.495C1249.97 684.495 1249.23 685.318 1248.41 686.965C1247.63 688.568 1246.87 690.822 1246.13 693.725C1245.44 696.585 1244.86 699.77 1244.38 703.28C1246.94 701.07 1248.84 698.6 1250.1 695.87C1251.4 693.097 1252.05 690.583 1252.05 688.33C1252.05 685.773 1251.57 684.495 1250.62 684.495ZM1291.67 715.045C1292.23 715.045 1292.67 715.327 1292.97 715.89C1293.27 716.453 1293.43 717.168 1293.43 718.035C1293.43 720.115 1292.8 721.35 1291.54 721.74C1288.94 722.65 1286.08 723.17 1282.96 723.3C1282.14 726.94 1280.51 729.865 1278.09 732.075C1275.66 734.242 1272.91 735.325 1269.83 735.325C1267.23 735.325 1265 734.697 1263.14 733.44C1261.32 732.183 1259.93 730.515 1258.98 728.435C1258.02 726.355 1257.55 724.102 1257.55 721.675C1257.55 718.382 1258.17 715.457 1259.43 712.9C1260.69 710.3 1262.42 708.285 1264.63 706.855C1266.84 705.382 1269.29 704.645 1271.98 704.645C1275.27 704.645 1277.91 705.793 1279.91 708.09C1281.94 710.343 1283.13 713.138 1283.48 716.475C1285.52 716.345 1287.94 715.912 1290.76 715.175C1291.11 715.088 1291.41 715.045 1291.67 715.045ZM1270.35 728.435C1271.74 728.435 1272.93 727.872 1273.93 726.745C1274.97 725.618 1275.66 723.993 1276.01 721.87C1274.66 720.96 1273.62 719.768 1272.89 718.295C1272.19 716.822 1271.85 715.262 1271.85 713.615C1271.85 712.922 1271.91 712.228 1272.04 711.535H1271.72C1269.98 711.535 1268.53 712.38 1267.36 714.07C1266.23 715.717 1265.67 718.057 1265.67 721.09C1265.67 723.473 1266.13 725.293 1267.04 726.55C1267.99 727.807 1269.09 728.435 1270.35 728.435ZM1314.11 713.615C1315.06 713.615 1315.86 713.962 1316.51 714.655C1317.21 715.305 1317.55 716.128 1317.55 717.125C1317.55 717.688 1317.42 718.295 1317.16 718.945C1316.47 720.548 1315.49 721.892 1314.24 722.975C1312.98 724.058 1311.59 724.6 1310.08 724.6C1308.86 724.6 1307.82 724.167 1306.96 723.3C1306.13 722.433 1305.72 721.263 1305.72 719.79C1305.72 718.967 1305.77 718.078 1305.85 717.125C1305.94 716.432 1305.98 715.955 1305.98 715.695C1305.98 715.348 1305.9 715.088 1305.72 714.915C1305.59 714.742 1305.42 714.655 1305.2 714.655C1304.6 714.655 1303.77 715.392 1302.73 716.865C1301.69 718.295 1300.65 720.202 1299.61 722.585C1298.57 724.968 1297.73 727.482 1297.08 730.125C1296.6 732.205 1296.06 733.592 1295.45 734.285C1294.85 734.978 1293.85 735.325 1292.46 735.325C1290.82 735.325 1289.65 734.458 1288.95 732.725C1288.3 730.992 1287.98 728.218 1287.98 724.405C1287.98 718.772 1288.78 713.42 1290.38 708.35C1290.77 707.093 1291.4 706.183 1292.27 705.62C1293.18 705.013 1294.43 704.71 1296.04 704.71C1296.9 704.71 1297.51 704.818 1297.86 705.035C1298.2 705.252 1298.38 705.663 1298.38 706.27C1298.38 706.963 1298.05 708.523 1297.4 710.95C1296.97 712.683 1296.62 714.2 1296.36 715.5C1296.1 716.8 1295.89 718.403 1295.71 720.31C1297.14 716.583 1298.75 713.55 1300.52 711.21C1302.3 708.87 1304.03 707.202 1305.72 706.205C1307.41 705.208 1308.95 704.71 1310.34 704.71C1311.59 704.71 1312.55 705.078 1313.2 705.815C1313.89 706.508 1314.24 707.548 1314.24 708.935C1314.24 709.758 1314 711.318 1313.52 713.615H1314.11ZM1327.31 719.79C1326.44 719.79 1325.73 719.595 1325.17 719.205C1324.6 718.815 1324.32 718.208 1324.32 717.385L1324.39 716.865C1325.12 712.012 1326.12 706.487 1327.38 700.29C1328.63 694.093 1329.8 688.742 1330.89 684.235C1331.58 681.462 1333.46 680.075 1336.54 680.075C1339.31 680.075 1340.7 680.963 1340.7 682.74C1340.7 683.13 1340.64 683.563 1340.51 684.04C1339.38 688.633 1337.88 694.202 1336.02 700.745C1334.16 707.245 1332.38 712.9 1330.69 717.71C1330.21 719.097 1329.09 719.79 1327.31 719.79ZM1324.84 735.325C1322.93 735.325 1321.48 734.805 1320.49 733.765C1319.53 732.725 1319.06 731.36 1319.06 729.67C1319.06 727.72 1319.6 726.16 1320.68 724.99C1321.81 723.82 1323.37 723.235 1325.36 723.235C1327.27 723.235 1328.7 723.712 1329.65 724.665C1330.65 725.575 1331.15 726.94 1331.15 728.76C1331.15 730.753 1330.58 732.357 1329.46 733.57C1328.33 734.74 1326.79 735.325 1324.84 735.325Z" fill="#E1DFDD"/>
<path d="M988.4 708.79C988.66 708.79 988.86 708.92 989 709.18C989.14 709.44 989.21 709.77 989.21 710.17C989.21 710.67 989.14 711.06 989 711.34C988.86 711.6 988.64 711.78 988.34 711.88C987.14 712.3 985.82 712.54 984.38 712.6C983.98 714.26 983.22 715.6 982.1 716.62C981 717.64 979.78 718.15 978.44 718.15C976.42 718.15 974.95 717.38 974.03 715.84C973.11 714.3 972.65 712.07 972.65 709.15C972.65 706.57 972.97 703.77 973.61 700.75C974.25 697.71 975.18 695.13 976.4 693.01C977.64 690.87 979.11 689.8 980.81 689.8C981.73 689.8 982.47 690.2 983.03 691C983.59 691.78 983.87 692.8 983.87 694.06C983.87 695.7 983.56 697.33 982.94 698.95C982.32 700.57 981.29 702.27 979.85 704.05C981.19 704.15 982.28 704.71 983.12 705.73C983.96 706.73 984.46 707.97 984.62 709.45C985.56 709.39 986.68 709.19 987.98 708.85C988.1 708.81 988.24 708.79 988.4 708.79ZM980.12 692.77C979.72 692.77 979.28 693.37 978.8 694.57C978.34 695.75 977.91 697.36 977.51 699.4C977.11 701.44 976.81 703.67 976.61 706.09C977.93 703.67 978.98 701.54 979.76 699.7C980.56 697.84 980.96 696.19 980.96 694.75C980.96 694.11 980.88 693.62 980.72 693.28C980.58 692.94 980.38 692.77 980.12 692.77ZM978.56 714.97C979.18 714.97 979.73 714.71 980.21 714.19C980.69 713.67 981.01 712.92 981.17 711.94C980.55 711.52 980.07 710.97 979.73 710.29C979.41 709.61 979.25 708.89 979.25 708.13C979.25 707.85 979.29 707.47 979.37 706.99H979.28C978.46 706.99 977.77 707.4 977.21 708.22C976.67 709.02 976.4 710.1 976.4 711.46C976.4 712.6 976.61 713.47 977.03 714.07C977.47 714.67 977.98 714.97 978.56 714.97ZM1000 711.31C1000.26 711.31 1000.46 711.43 1000.6 711.67C1000.76 711.91 1000.84 712.24 1000.84 712.66C1000.84 713.46 1000.65 714.08 1000.27 714.52C999.53 715.42 998.48 716.25 997.12 717.01C995.78 717.77 994.34 718.15 992.8 718.15C990.7 718.15 989.07 717.58 987.91 716.44C986.75 715.3 986.17 713.74 986.17 711.76C986.17 710.38 986.46 709.1 987.04 707.92C987.62 706.72 988.42 705.77 989.44 705.07C990.48 704.37 991.65 704.02 992.95 704.02C994.11 704.02 995.04 704.37 995.74 705.07C996.44 705.75 996.79 706.68 996.79 707.86C996.79 709.24 996.29 710.43 995.29 711.43C994.31 712.41 992.64 713.19 990.28 713.77C990.78 714.69 991.73 715.15 993.13 715.15C994.03 715.15 995.05 714.84 996.19 714.22C997.35 713.58 998.35 712.75 999.19 711.73C999.43 711.45 999.7 711.31 1000 711.31ZM992.44 706.96C991.7 706.96 991.07 707.39 990.55 708.25C990.05 709.11 989.8 710.15 989.8 711.37V711.43C990.98 711.15 991.91 710.73 992.59 710.17C993.27 709.61 993.61 708.96 993.61 708.22C993.61 707.84 993.5 707.54 993.28 707.32C993.08 707.08 992.8 706.96 992.44 706.96ZM1004.13 718.15C1002.17 718.15 1000.64 717.6 999.537 716.5C998.457 715.38 997.917 713.91 997.917 712.09C997.917 710.47 998.237 709.05 998.877 707.83C999.517 706.61 1000.35 705.67 1001.37 705.01C1002.39 704.35 1003.46 704.02 1004.58 704.02C1005.68 704.02 1006.53 704.35 1007.13 705.01C1007.75 705.65 1008.06 706.48 1008.06 707.5C1008.06 708.34 1007.87 709.05 1007.49 709.63C1007.13 710.21 1006.65 710.5 1006.05 710.5C1005.67 710.5 1005.36 710.41 1005.12 710.23C1004.9 710.05 1004.79 709.8 1004.79 709.48C1004.79 709.34 1004.81 709.18 1004.85 709C1004.89 708.82 1004.92 708.69 1004.94 708.61C1005.04 708.31 1005.09 708.03 1005.09 707.77C1005.09 707.51 1005.02 707.31 1004.88 707.17C1004.76 707.03 1004.58 706.96 1004.34 706.96C1003.88 706.96 1003.45 707.17 1003.05 707.59C1002.65 707.99 1002.33 708.54 1002.09 709.24C1001.85 709.94 1001.73 710.71 1001.73 711.55C1001.73 713.87 1002.74 715.03 1004.76 715.03C1005.58 715.03 1006.46 714.76 1007.4 714.22C1008.36 713.66 1009.3 712.83 1010.22 711.73C1010.46 711.45 1010.73 711.31 1011.03 711.31C1011.29 711.31 1011.49 711.43 1011.63 711.67C1011.79 711.91 1011.87 712.24 1011.87 712.66C1011.87 713.42 1011.68 714.04 1011.3 714.52C1010.36 715.68 1009.23 716.58 1007.91 717.22C1006.61 717.84 1005.35 718.15 1004.13 718.15ZM1024.74 708.79C1025 708.79 1025.2 708.92 1025.34 709.18C1025.48 709.44 1025.55 709.77 1025.55 710.17C1025.55 711.13 1025.26 711.7 1024.68 711.88C1023.48 712.3 1022.16 712.54 1020.72 712.6C1020.34 714.28 1019.59 715.63 1018.47 716.65C1017.35 717.65 1016.08 718.15 1014.66 718.15C1013.46 718.15 1012.43 717.86 1011.57 717.28C1010.73 716.7 1010.09 715.93 1009.65 714.97C1009.21 714.01 1008.99 712.97 1008.99 711.85C1008.99 710.33 1009.28 708.98 1009.86 707.8C1010.44 706.6 1011.24 705.67 1012.26 705.01C1013.28 704.33 1014.41 703.99 1015.65 703.99C1017.17 703.99 1018.39 704.52 1019.31 705.58C1020.25 706.62 1020.8 707.91 1020.96 709.45C1021.9 709.39 1023.02 709.19 1024.32 708.85C1024.48 708.81 1024.62 708.79 1024.74 708.79ZM1014.9 714.97C1015.54 714.97 1016.09 714.71 1016.55 714.19C1017.03 713.67 1017.35 712.92 1017.51 711.94C1016.89 711.52 1016.41 710.97 1016.07 710.29C1015.75 709.61 1015.59 708.89 1015.59 708.13C1015.59 707.81 1015.62 707.49 1015.68 707.17H1015.53C1014.73 707.17 1014.06 707.56 1013.52 708.34C1013 709.1 1012.74 710.18 1012.74 711.58C1012.74 712.68 1012.95 713.52 1013.37 714.1C1013.81 714.68 1014.32 714.97 1014.9 714.97ZM1025.11 718.15C1024.35 718.15 1023.81 717.75 1023.49 716.95C1023.19 716.15 1023.04 714.87 1023.04 713.11C1023.04 710.51 1023.41 708.04 1024.15 705.7C1024.33 705.12 1024.62 704.7 1025.02 704.44C1025.44 704.16 1026.02 704.02 1026.76 704.02C1027.16 704.02 1027.44 704.07 1027.6 704.17C1027.76 704.27 1027.84 704.46 1027.84 704.74C1027.84 705.06 1027.69 705.78 1027.39 706.9C1027.19 707.7 1027.03 708.4 1026.91 709C1026.79 709.58 1026.69 710.31 1026.61 711.19C1027.15 709.63 1027.79 708.31 1028.53 707.23C1029.29 706.15 1030.06 705.35 1030.84 704.83C1031.64 704.29 1032.39 704.02 1033.09 704.02C1033.79 704.02 1034.28 704.18 1034.56 704.5C1034.86 704.82 1035.01 705.31 1035.01 705.97C1035.01 706.61 1034.82 707.77 1034.44 709.45C1034.28 710.17 1034.17 710.71 1034.11 711.07C1035.11 708.61 1036.22 706.82 1037.44 705.7C1038.66 704.58 1039.8 704.02 1040.86 704.02C1042.16 704.02 1042.81 704.67 1042.81 705.97C1042.81 706.75 1042.59 708.16 1042.15 710.2C1041.77 711.94 1041.58 713.09 1041.58 713.65C1041.58 714.45 1041.87 714.85 1042.45 714.85C1042.85 714.85 1043.32 714.61 1043.86 714.13C1044.42 713.63 1045.16 712.83 1046.08 711.73C1046.32 711.45 1046.59 711.31 1046.89 711.31C1047.15 711.31 1047.35 711.43 1047.49 711.67C1047.65 711.91 1047.73 712.24 1047.73 712.66C1047.73 713.46 1047.54 714.08 1047.16 714.52C1046.3 715.58 1045.37 716.45 1044.37 717.13C1043.39 717.81 1042.27 718.15 1041.01 718.15C1039.99 718.15 1039.22 717.86 1038.7 717.28C1038.18 716.68 1037.92 715.82 1037.92 714.7C1037.92 714.14 1038.06 713.14 1038.34 711.7C1038.6 710.44 1038.73 709.57 1038.73 709.09C1038.73 708.77 1038.62 708.61 1038.4 708.61C1038.14 708.61 1037.77 708.95 1037.29 709.63C1036.81 710.29 1036.33 711.17 1035.85 712.27C1035.37 713.37 1034.98 714.53 1034.68 715.75C1034.46 716.71 1034.2 717.35 1033.9 717.67C1033.62 717.99 1033.16 718.15 1032.52 718.15C1031.86 718.15 1031.36 717.84 1031.02 717.22C1030.7 716.58 1030.54 715.81 1030.54 714.91C1030.54 714.15 1030.64 713.05 1030.84 711.61C1031 710.33 1031.08 709.49 1031.08 709.09C1031.08 708.77 1030.97 708.61 1030.75 708.61C1030.45 708.61 1030.07 708.97 1029.61 709.69C1029.15 710.41 1028.7 711.33 1028.26 712.45C1027.84 713.57 1027.5 714.67 1027.24 715.75C1027.02 716.69 1026.76 717.33 1026.46 717.67C1026.18 717.99 1025.73 718.15 1025.11 718.15ZM1056.04 712.21C1056.3 712.21 1056.5 712.33 1056.64 712.57C1056.8 712.81 1056.88 713.14 1056.88 713.56C1056.88 714.28 1056.71 714.9 1056.37 715.42C1055.81 716.28 1055.07 716.95 1054.15 717.43C1053.25 717.91 1052.17 718.15 1050.91 718.15C1048.99 718.15 1047.5 717.58 1046.44 716.44C1045.38 715.28 1044.85 713.72 1044.85 711.76C1044.85 710.38 1045.14 709.1 1045.72 707.92C1046.3 706.72 1047.1 705.77 1048.12 705.07C1049.16 704.37 1050.33 704.02 1051.63 704.02C1052.79 704.02 1053.72 704.37 1054.42 705.07C1055.12 705.75 1055.47 706.68 1055.47 707.86C1055.47 709.24 1054.97 710.43 1053.97 711.43C1052.99 712.41 1051.31 713.19 1048.93 713.77C1049.41 714.69 1050.22 715.15 1051.36 715.15C1052.18 715.15 1052.85 714.96 1053.37 714.58C1053.91 714.2 1054.53 713.56 1055.23 712.66C1055.47 712.36 1055.74 712.21 1056.04 712.21ZM1051.12 706.96C1050.38 706.96 1049.75 707.39 1049.23 708.25C1048.73 709.11 1048.48 710.15 1048.48 711.37V711.43C1049.66 711.15 1050.59 710.73 1051.27 710.17C1051.95 709.61 1052.29 708.96 1052.29 708.22C1052.29 707.84 1052.18 707.54 1051.96 707.32C1051.76 707.08 1051.48 706.96 1051.12 706.96ZM1069.02 718.15C1067.88 718.15 1066.95 717.7 1066.23 716.8C1065.53 715.9 1065.18 714.72 1065.18 713.26C1065.18 711.66 1065.55 710.15 1066.29 708.73C1067.03 707.29 1068.01 706.14 1069.23 705.28C1070.47 704.4 1071.78 703.96 1073.16 703.96C1073.6 703.96 1073.89 704.05 1074.03 704.23C1074.19 704.39 1074.32 704.69 1074.42 705.13C1074.8 705.05 1075.22 705.01 1075.68 705.01C1076.16 705.01 1076.53 705.13 1076.79 705.37C1077.05 705.61 1077.18 705.95 1077.18 706.39C1077.18 706.85 1077.08 707.65 1076.88 708.79C1076.66 710.01 1076.49 711.18 1076.37 712.3C1076.25 713.4 1076.19 714.64 1076.19 716.02C1076.19 716.78 1076.03 717.33 1075.71 717.67C1075.41 717.99 1074.91 718.15 1074.21 718.15C1073.53 718.15 1073.02 717.99 1072.68 717.67C1072.36 717.33 1072.2 716.79 1072.2 716.05L1072.23 715.57C1071.61 717.29 1070.54 718.15 1069.02 718.15ZM1070.19 715.12C1070.75 715.12 1071.26 714.73 1071.72 713.95C1072.18 713.17 1072.59 711.78 1072.95 709.78L1073.52 706.75C1072.7 706.77 1071.94 707.09 1071.24 707.71C1070.54 708.31 1069.98 709.11 1069.56 710.11C1069.14 711.11 1068.93 712.17 1068.93 713.29C1068.93 713.89 1069.04 714.35 1069.26 714.67C1069.5 714.97 1069.81 715.12 1070.19 715.12Z" fill="#E1DFDD"/>
</svg>
