<svg width="486" height="552" viewBox="0 0 486 552" fill="none" xmlns="http://www.w3.org/2000/svg">
<path d="M154.42 68.6664L385.797 14.5067C396.552 11.9892 407.188 18.6951 409.553 29.4846L478.194 342.635C480.559 353.424 473.757 364.212 463.002 366.729L231.625 420.889L154.42 68.6664Z" fill="#171D56"/>
<path d="M157.432 67.5171L383.975 14.4892C394.73 11.9718 405.365 18.6776 407.73 29.4671L475.702 339.567C478.067 350.356 471.266 361.144 460.511 363.661L233.968 416.689L157.432 67.5171Z" fill="#BBBBBB"/>
<path d="M154.51 67.9469L381.053 14.919C391.808 12.4016 402.443 19.1074 404.808 29.8969L472.78 339.997C475.145 350.786 468.344 361.574 457.589 364.091L231.046 417.119L154.51 67.9469Z" fill="#D7D7D7"/>
<path d="M146.517 62.2355L377.124 8.25618C387.879 5.7387 398.515 12.4445 400.88 23.2341L470.029 338.706C472.394 349.496 465.593 360.283 454.838 362.801L224.231 416.78L146.517 62.2355Z" fill="#171D56"/>
<path d="M209.87 111.208C210.174 112.594 210.126 113.971 209.726 115.339C209.35 116.702 208.541 117.919 207.297 118.991C206.079 120.056 204.409 120.837 202.288 121.334L197.959 122.347L200.139 132.295L194.959 133.508L189.28 107.599L198.789 105.373C200.787 104.905 202.565 104.853 204.123 105.217C205.681 105.581 206.938 106.288 207.894 107.339C208.875 108.384 209.534 109.674 209.87 111.208ZM201.146 117.191C202.577 116.857 203.567 116.287 204.117 115.482C204.661 114.652 204.803 113.643 204.542 112.455C203.989 109.931 202.306 108.998 199.494 109.656L195.388 110.618L197.039 118.153L201.146 117.191ZM232.224 119.595L221.938 122.002L221.318 127.338L215.879 128.611L219.479 100.491L225.509 99.0792L240.484 122.851L235.008 124.133L232.224 119.595ZM229.906 115.767L223.794 105.803L222.432 117.516L229.906 115.767ZM252.929 120.211C251.128 120.633 249.432 120.705 247.842 120.427C246.275 120.143 244.945 119.518 243.852 118.551C242.758 117.584 242.025 116.312 241.654 114.734L247.204 113.435C247.511 114.481 248.065 115.236 248.867 115.699C249.693 116.156 250.698 116.246 251.882 115.969C253.091 115.686 253.978 115.179 254.544 114.448C255.105 113.693 255.282 112.845 255.076 111.904C254.908 111.137 254.535 110.561 253.958 110.176C253.381 109.791 252.705 109.546 251.93 109.441C251.174 109.306 250.141 109.209 248.832 109.151C247.046 109.049 245.571 108.887 244.408 108.665C243.263 108.413 242.203 107.893 241.227 107.107C240.27 106.291 239.612 105.066 239.254 103.432C238.918 101.898 239.007 100.472 239.523 99.1551C240.038 97.8378 240.921 96.7206 242.172 95.8033C243.418 94.8613 244.929 94.1825 246.705 93.7668C249.369 93.1432 251.671 93.2938 253.611 94.2184C255.57 95.1126 256.891 96.7025 257.574 98.9882L251.876 100.322C251.631 99.4427 251.089 98.8022 250.249 98.4005C249.428 97.9682 248.438 97.8878 247.278 98.1592C246.267 98.3959 245.51 98.8463 245.007 99.5103C244.529 100.168 244.399 100.993 244.616 101.982C244.767 102.675 245.117 103.205 245.664 103.571C246.23 103.907 246.879 104.145 247.61 104.286C248.36 104.397 249.393 104.493 250.708 104.576C252.493 104.678 253.971 104.853 255.14 105.099C256.309 105.346 257.385 105.875 258.366 106.685C259.348 107.496 260.015 108.706 260.367 110.314C260.671 111.7 260.596 113.071 260.141 114.426C259.686 115.781 258.846 116.979 257.622 118.02C256.393 119.036 254.828 119.767 252.929 120.211ZM275.476 114.934C273.675 115.355 271.979 115.427 270.388 115.149C268.822 114.865 267.492 114.24 266.399 113.273C265.305 112.307 264.572 111.034 264.2 109.456L269.75 108.157C270.058 109.204 270.612 109.959 271.414 110.421C272.24 110.878 273.245 110.968 274.429 110.691C275.638 110.408 276.525 109.901 277.091 109.17C277.651 108.415 277.829 107.567 277.622 106.627C277.454 105.86 277.082 105.283 276.505 104.898C275.927 104.513 275.251 104.268 274.476 104.163C273.721 104.028 272.688 103.931 271.379 103.874C269.593 103.771 268.118 103.609 266.954 103.387C265.81 103.135 264.75 102.616 263.773 101.83C262.817 101.013 262.159 99.788 261.801 98.1548C261.465 96.6205 261.554 95.1948 262.069 93.8775C262.584 92.5602 263.468 91.4429 264.719 90.5257C265.965 89.5837 267.475 88.9049 269.251 88.4891C271.915 87.8656 274.217 88.0161 276.158 88.9408C278.117 89.835 279.438 91.4249 280.12 93.7106L274.422 95.0443C274.178 94.165 273.636 93.5245 272.795 93.1228C271.975 92.6906 270.984 92.6102 269.825 92.8815C268.814 93.1182 268.057 93.5686 267.554 94.2326C267.076 94.8909 266.945 95.7149 267.162 96.7047C267.314 97.3976 267.664 97.9272 268.211 98.2934C268.777 98.6291 269.426 98.8675 270.157 99.0086C270.907 99.1191 271.94 99.2156 273.254 99.2981C275.04 99.4004 276.518 99.5749 277.687 99.8215C278.856 100.068 279.931 100.597 280.913 101.408C281.895 102.219 282.562 103.428 282.914 105.037C283.218 106.423 283.142 107.793 282.687 109.148C282.232 110.504 281.393 111.702 280.169 112.743C278.939 113.759 277.375 114.489 275.476 114.934ZM303.96 89.184C304.264 90.5698 304.215 91.9469 303.815 93.3153C303.44 94.678 302.63 95.895 301.387 96.9665C300.168 98.0322 298.498 98.8134 296.377 99.3099L292.048 100.323L294.229 110.271L289.049 111.484L283.37 85.5747L292.879 83.3488C294.877 82.8812 296.654 82.8292 298.212 83.193C299.77 83.5568 301.027 84.2641 301.984 85.315C302.965 86.3601 303.624 87.6497 303.96 89.184ZM295.236 95.1675C296.666 94.8326 297.657 94.2626 298.206 93.4575C298.75 92.6277 298.892 91.6189 298.632 90.4311C298.079 87.9071 296.396 86.9741 293.584 87.6323L289.477 88.5937L291.129 96.1288L295.236 95.1675ZM323.604 103.668C321.187 104.234 318.842 104.184 316.57 103.52C314.298 102.855 312.35 101.659 310.727 99.9314C309.098 98.1794 308.004 96.029 307.445 93.4801C306.892 90.9561 306.988 88.5533 307.733 86.2717C308.472 83.9654 309.728 82.0064 311.501 80.3946C313.274 78.7828 315.369 77.694 317.787 77.1282C320.229 76.5566 322.574 76.6061 324.821 77.2767C327.093 77.9416 329.031 79.1529 330.635 80.9107C332.259 82.638 333.347 84.7636 333.9 87.2877C334.459 89.8365 334.369 92.2641 333.63 94.5704C332.91 96.8462 331.663 98.79 329.89 100.402C328.117 102.013 326.022 103.102 323.604 103.668ZM322.587 99.0283C324.141 98.6645 325.434 97.9976 326.466 97.0276C327.493 96.0328 328.196 94.8017 328.574 93.3343C328.953 91.8669 328.952 90.2671 328.572 88.5349C328.193 86.8027 327.529 85.3711 326.581 84.2402C325.627 83.0846 324.483 82.2989 323.147 81.8832C321.811 81.4674 320.366 81.4414 318.812 81.8052C317.258 82.1689 315.953 82.8387 314.896 83.8145C313.864 84.7845 313.158 86.0033 312.78 87.4707C312.396 88.9134 312.394 90.5008 312.773 92.233C313.153 93.9652 313.82 95.4091 314.773 96.5648C315.727 97.7204 316.874 98.5185 318.215 98.959C319.576 99.3689 321.033 99.392 322.587 99.0283ZM353.93 96.2965L346.019 87.5339L343.577 88.1055L345.79 98.2018L340.61 99.4143L334.931 73.5054L344.625 71.2363C346.623 70.7686 348.404 70.7291 349.967 71.1176C351.525 71.4814 352.782 72.1887 353.738 73.2396C354.714 74.2599 355.365 75.5125 355.69 76.9972C356.064 78.7047 355.91 80.3668 355.227 81.9835C354.539 83.5755 353.277 84.8594 351.442 85.8352L359.924 94.8934L353.93 96.2965ZM342.723 84.2081L347.052 83.1947C348.458 82.8656 349.433 82.2862 349.977 81.4564C350.516 80.6018 350.652 79.5683 350.386 78.3557C350.126 77.1679 349.58 76.3332 348.748 75.8514C347.911 75.345 346.79 75.2563 345.384 75.5854L341.055 76.5987L342.723 84.2081ZM376.209 63.8433L377.128 68.0377L370.246 69.6486L375.006 91.3631L369.826 92.5756L365.066 70.8611L358.184 72.472L357.265 68.2776L376.209 63.8433Z" fill="white"/>
<rect width="14.3058" height="363.779" transform="matrix(0.973682 -0.227911 0.214107 0.97681 146.517 62.2401)" fill="#0C124F"/>
<rect width="14.3299" height="3.28665" transform="matrix(0.976027 -0.216915 0.204757 0.978952 224.185 416.606)" fill="#0C124F"/>
<path d="M268.914 204.951C307.132 211.427 324.033 207.253 355.866 184.598" stroke="#FFAC01" stroke-width="3"/>
<path d="M372.756 252.685C333.785 246.385 316.52 250.645 283.935 273.476" stroke="#FFAC01" stroke-width="3"/>
<path d="M374.287 217.35C381.281 249.256 362.588 280.671 332.749 287.656C302.909 294.64 272.941 274.616 265.948 242.71C258.954 210.804 277.647 179.389 307.486 172.405C337.326 165.42 367.294 185.445 374.287 217.35Z" stroke="#FFAC01" stroke-width="3"/>
<path d="M336.889 226.104C340.44 242.308 341.458 257.428 340.27 268.753C339.675 274.424 338.536 279.055 336.946 282.378C335.347 285.72 333.418 287.499 331.346 287.984C329.275 288.469 326.792 287.723 323.955 285.419C321.135 283.128 318.176 279.456 315.274 274.604C309.48 264.914 304.093 250.816 300.541 234.612C296.99 218.409 295.972 203.288 297.16 191.964C297.755 186.293 298.894 181.661 300.484 178.339C302.083 174.996 304.012 173.218 306.084 172.733C308.156 172.248 310.638 172.994 313.475 175.298C316.295 177.588 319.254 181.261 322.156 186.113C327.95 195.803 333.337 209.901 336.889 226.104Z" stroke="#FFAC01" stroke-width="3"/>
<path d="M359.327 220.852C362.846 236.906 361.486 252.439 356.516 264.555C351.544 276.677 343.032 285.248 332.281 287.765C321.529 290.281 310.274 286.337 300.732 277.613C291.196 268.892 283.491 255.481 279.972 239.427C276.453 223.373 277.813 207.84 282.783 195.724C287.755 183.602 296.267 175.03 307.018 172.514C317.77 169.997 329.025 173.941 338.567 182.666C348.103 191.387 355.808 204.797 359.327 220.852Z" stroke="#FFAC01" stroke-width="3"/>
<path d="M265.531 243.329L373.987 217.943" stroke="#FFAC01" stroke-width="3"/>
<path fill-rule="evenodd" clip-rule="evenodd" d="M269.54 185.177C265.988 179.462 260.01 175.525 253.17 175.146C248.171 174.87 243.559 176.539 239.968 179.53C243.586 185.421 249.786 189.407 256.829 189.597C261.643 189.727 266.065 188.062 269.54 185.177Z" fill="#4EE343"/>
<path fill-rule="evenodd" clip-rule="evenodd" d="M262.644 158.014C261.455 161.755 261.732 166.607 263.716 171.222C265.699 175.837 268.945 179.179 272.347 180.586C273.536 176.845 273.259 171.992 271.275 167.378C269.292 162.763 266.046 159.421 262.644 158.014Z" fill="#4EE343"/>
<path d="M65 101H76.5L77 228H65V101Z" fill="#D9D9D9"/>
<path d="M135.5 100H147V226H135.5V100Z" fill="#D9D9D9"/>
<path d="M83.5819 76H128.2C128.2 76 132.25 90.7545 128.2 88C124.149 85.2455 87.5496 85.2455 83.9999 88C80.4503 90.7545 83.5819 76 83.5819 76Z" fill="#272531"/>
<path d="M128 76C141.6 80.5833 147 92.6667 147 101H135.5C135.5 94.75 130.5 89.5417 128 87.9792V76Z" fill="#272531"/>
<path d="M83.5 76C69.9 80.5833 65 92.6667 65 101H76.5C76.5 94.75 81.5 89.5417 84 87.9792L83.5 76Z" fill="#272531"/>
<path d="M134.5 217H148V219H134.5V217Z" fill="#909090"/>
<rect x="64" y="217" width="14" height="2" fill="#909090"/>
<rect x="150" y="345" width="288" height="191" rx="22" fill="#99111F"/>
<path d="M150 495C263.5 529.5 336 536 438 489V515C438 526.598 428.598 536 417 536H171C159.402 536 150 526.598 150 515V495Z" fill="#810915"/>
<rect x="365" y="345" width="20" height="191" fill="#372412"/>
<rect x="359" y="370" width="32" height="25" rx="5" fill="#9FA0A8"/>
<rect x="365" y="374" width="20" height="16.6667" fill="#372412"/>
<rect x="202" y="345" width="20" height="191" fill="#372412"/>
<rect x="196" y="370" width="32" height="25" rx="5" fill="#9FA0A8"/>
<rect x="202" y="374" width="20" height="16.6667" fill="#372412"/>
<path d="M245 328V345H259V326C259 326 259.808 323.276 261 322C262.732 320.145 267 319.5 267 319.5H313.5C313.5 319.5 316.468 320.698 318 322C320.146 323.824 322 328 322 328V345H334.5V326C334.5 326 331.422 315.695 326.5 311.5C322.305 307.924 313.5 306 313.5 306H265.5C265.5 306 256.597 308.943 252.5 313C247.846 317.608 245 328 245 328Z" fill="#372412"/>
<rect x="321" y="343" width="15" height="2" fill="#948F8F"/>
<rect x="244" y="343" width="16" height="2" fill="#948F8F"/>
<rect x="320" y="359.823" width="19" height="21.1765" fill="#FBEAD8"/>
<path d="M321 345H328.941M336 345H328.941M328.941 345V354.529" stroke="#F5F4F3"/>
<path d="M324.08 352.412H334.763L339 359.824H320L324.08 352.412Z" fill="#FBEAD8"/>
<path d="M324.216 363.384C328.647 364.933 330.791 364.879 335.218 363.226" stroke="#FFAC01" stroke-width="0.4"/>
<path d="M335.461 370.754C330.936 369.207 328.746 369.261 324.223 370.915" stroke="#FFAC01" stroke-width="0.4"/>
<path d="M336.558 367.079C336.561 370.541 333.518 373.418 329.726 373.473C325.933 373.527 322.884 370.738 322.88 367.276C322.877 363.814 325.92 360.937 329.712 360.883C333.505 360.828 336.554 363.618 336.558 367.079Z" stroke="#FFAC01" stroke-width="0.4"/>
<path d="M331.826 367.148C331.828 368.924 331.554 370.526 331.116 371.68C330.897 372.257 330.641 372.712 330.367 373.02C330.092 373.328 329.815 373.472 329.549 373.476C329.282 373.48 329.005 373.343 328.729 373.043C328.454 372.743 328.197 372.296 327.977 371.725C327.537 370.584 327.26 368.989 327.258 367.214C327.256 365.438 327.53 363.836 327.967 362.682C328.186 362.105 328.442 361.65 328.717 361.342C328.992 361.034 329.268 360.89 329.535 360.886C329.802 360.882 330.079 361.019 330.354 361.319C330.629 361.619 330.887 362.066 331.107 362.637C331.547 363.778 331.824 365.373 331.826 367.148Z" stroke="#FFAC01" stroke-width="0.4"/>
<path d="M334.666 367.107C334.669 370.628 332.393 373.435 329.667 373.474C326.942 373.513 324.659 370.771 324.656 367.251C324.652 363.731 326.929 360.923 329.654 360.884C332.379 360.845 334.662 363.587 334.666 367.107Z" stroke="#FFAC01" stroke-width="0.4"/>
<path d="M322.801 367.333L336.525 367.136" stroke="#FFAC01" stroke-width="0.4"/>
<path fill-rule="evenodd" clip-rule="evenodd" d="M325.254 361.512C324.943 360.717 324.252 360.075 323.34 359.846C322.673 359.679 322.001 359.761 321.428 360.032C321.743 360.851 322.462 361.505 323.407 361.716C324.054 361.86 324.7 361.774 325.254 361.512Z" fill="#4EE343"/>
<path fill-rule="evenodd" clip-rule="evenodd" d="M325.121 357.999C324.85 358.426 324.745 359.029 324.876 359.648C325.008 360.267 325.348 360.763 325.766 361.026C326.037 360.599 326.143 359.997 326.011 359.377C325.879 358.759 325.539 358.262 325.121 357.999Z" fill="#4EE343"/>
<rect x="21" y="514" width="16" height="38" rx="8" fill="#272531"/>
<rect x="168" y="514" width="16" height="38" rx="8" fill="#272531"/>
<rect x="26" y="522" width="152" height="13" fill="#272531"/>
<rect y="219" width="212" height="304" rx="21" fill="#FBA84C"/>
<path d="M0 466C78.5 496.5 125.5 502.5 212 466V506C212 517.598 202.598 527 191 527H21C9.40202 527 0 517.598 0 506V466Z" fill="#E28B2B"/>
<rect x="17" y="244" width="12" height="262" rx="4" fill="#D37A19"/>
<rect x="41" y="244" width="12" height="262" rx="4" fill="#D37A19"/>
<rect x="64" y="244" width="12" height="262" rx="4" fill="#D37A19"/>
<rect x="88" y="244" width="12" height="262" rx="4" fill="#D37A19"/>
<rect x="113" y="244" width="12" height="262" rx="4" fill="#D37A19"/>
<rect x="137" y="244" width="12" height="262" rx="4" fill="#D37A19"/>
<rect x="160" y="244" width="12" height="262" rx="4" fill="#D37A19"/>
<rect x="184" y="244" width="12" height="262" rx="4" fill="#D37A19"/>
<rect x="63" y="233" width="17" height="20" fill="#FBEAD8"/>
<path d="M64 219H71M78 219H71M71 219V228" stroke="#F5F4F3"/>
<path d="M66.6502 226H76.2089L80 233H63L66.6502 226Z" fill="#FBEAD8"/>
<path d="M66.7722 236.363C70.7363 237.825 72.6546 237.775 76.6157 236.213" stroke="#FFAC01" stroke-width="0.4"/>
<path d="M76.8338 243.323C72.7845 241.862 70.8249 241.913 66.7787 243.476" stroke="#FFAC01" stroke-width="0.4"/>
<path d="M77.7936 239.853C77.7969 243.126 75.0746 245.829 71.7019 245.88C68.3292 245.931 65.6015 243.311 65.5982 240.038C65.5949 236.766 68.3172 234.063 71.6899 234.011C75.0626 233.96 77.7903 236.581 77.7936 239.853Z" stroke="#FFAC01" stroke-width="0.4"/>
<path d="M73.5603 239.918C73.562 241.595 73.3169 243.108 72.9256 244.197C72.7296 244.742 72.5008 245.171 72.2565 245.46C72.0116 245.75 71.77 245.879 71.5436 245.883C71.3172 245.886 71.0753 245.764 70.8299 245.482C70.585 245.2 70.3553 244.778 70.1582 244.239C69.7647 243.162 69.5166 241.656 69.5149 239.979C69.5132 238.302 69.7583 236.789 70.1496 235.7C70.3456 235.155 70.5745 234.727 70.8187 234.437C71.0636 234.147 71.3052 234.018 71.5316 234.014C71.758 234.011 71.9999 234.133 72.2454 234.416C72.4902 234.697 72.7199 235.119 72.917 235.658C73.3105 236.735 73.5587 238.241 73.5603 239.918Z" stroke="#FFAC01" stroke-width="0.4"/>
<path d="M76.1008 239.879C76.1025 241.534 75.5947 243.031 74.7817 244.116C73.9689 245.2 72.8597 245.863 71.6497 245.881C70.4396 245.899 69.3291 245.271 68.5141 244.211C67.699 243.151 67.1882 241.669 67.1866 240.014C67.1849 238.36 67.6927 236.862 68.5056 235.778C69.3185 234.693 70.4277 234.031 71.6377 234.013C72.8477 233.994 73.9582 234.623 74.7732 235.683C75.5884 236.743 76.0992 238.225 76.1008 239.879Z" stroke="#FFAC01" stroke-width="0.4"/>
<path d="M65.5056 240.093L77.7852 239.907" stroke="#FFAC01" stroke-width="0.4"/>
<path fill-rule="evenodd" clip-rule="evenodd" d="M67.701 234.595C67.4225 233.844 66.8043 233.237 65.9881 233.021C65.3914 232.863 64.7901 232.941 64.2774 233.197C64.5591 233.97 65.2029 234.588 66.0485 234.787C66.6268 234.923 67.2051 234.842 67.701 234.595Z" fill="#4EE343"/>
<path fill-rule="evenodd" clip-rule="evenodd" d="M67.5821 231.277C67.3397 231.681 67.2452 232.25 67.3632 232.834C67.4812 233.419 67.7853 233.888 68.1592 234.136C68.4016 233.733 68.4961 233.164 68.3781 232.579C68.2601 231.995 67.956 231.526 67.5821 231.277Z" fill="#4EE343"/>
<path d="M252 407C242.059 407 234 415.12 234 425.136C234 430.318 236.158 435.695 239.618 439H264.382C267.842 435.695 270 430.318 270 425.136C270 415.12 261.941 407 252 407Z" fill="#A3DEFF"/>
<path fill-rule="evenodd" clip-rule="evenodd" d="M261.58 420.621C260.993 420.621 259.894 420.621 259.306 420.621V420.621C258.585 420.621 258 419.981 258 419.193C258 418.45 258.52 417.839 259.183 417.772C259.236 417.766 259.276 417.72 259.276 417.667V417.667C259.276 417.108 259.781 416.654 260.403 416.654V416.654C260.776 416.654 261.212 416.532 261.503 416.3C261.74 416.111 262.032 416 262.348 416C263.141 416 263.784 416.703 263.784 417.569C263.784 417.655 263.778 417.738 263.766 417.82C263.763 417.837 263.777 417.853 263.794 417.853V417.853C264.493 417.853 265.06 418.472 265.06 419.237C265.06 420.001 264.493 420.621 263.794 420.621V420.621C263.212 420.621 262.162 420.621 261.58 420.621V420.621V420.621Z" fill="white"/>
<path fill-rule="evenodd" clip-rule="evenodd" d="M244.409 416.359C244.894 416.359 245.75 416.277 246.23 416.345C246.297 416.354 246.365 416.359 246.434 416.359C247.147 416.359 247.725 415.845 247.725 415.21C247.725 414.576 247.147 414.061 246.434 414.061V414.061C246.41 414.061 246.389 414.043 246.386 414.018C246.314 413.395 245.823 412.912 245.229 412.912V412.912C245.027 412.912 244.82 412.809 244.717 412.635C244.492 412.252 244.105 412 243.667 412C242.971 412 242.407 412.635 242.407 413.419V413.419C242.407 413.439 242.391 413.454 242.371 413.454C242.357 413.453 242.344 413.453 242.33 413.453C241.595 413.453 241 414.104 241 414.906C241 415.708 241.595 416.359 242.33 416.359C242.383 416.359 242.436 416.355 242.488 416.349C242.963 416.287 243.93 416.359 244.409 416.359V416.359V416.359Z" fill="white"/>
<path d="M261.513 425.386H261.227C261.262 425.055 261.254 424.85 260.976 424.542C261.501 423.941 262.05 423.486 262.479 423.275C262.515 423.557 262.122 424.345 261.513 425.386Z" fill="#021E31"/>
<path d="M261.227 425.386H260.389C260.56 425.088 260.652 424.912 260.976 424.542C261.263 424.823 261.263 425.07 261.227 425.386Z" fill="#00111C"/>
<path d="M259.939 426.441H259.787C260.261 424.929 260.986 424.04 262.614 423.029C262.578 423.733 262.164 424.551 261.621 425.456L261.477 425.421C261.978 424.647 262.479 423.627 262.479 423.275C261.298 423.909 260.261 425.356 259.939 426.441Z" fill="#C8C8CE"/>
<path d="M253.211 426.441H252.889C253.104 425.562 253.39 423.205 253.426 422.326C253.641 423.873 253.516 424.692 253.211 426.441Z" fill="#636F78"/>
<path d="M253.247 426.195L253.212 426.441H255.864L255.752 425.949C254.965 425.75 254.362 425.847 253.247 426.195Z" fill="#426074"/>
<path d="M253.319 425.808C253.295 425.961 253.279 426.046 253.247 426.195C254.321 425.878 254.888 425.734 255.752 425.949L255.68 425.667C254.929 425.527 254.213 425.562 253.319 425.808Z" fill="#122F44"/>
<path d="M255.645 425.667C254.672 425.51 254.173 425.6 253.319 425.808C253.543 424.395 253.606 423.56 253.426 422.326C254.428 422.853 255.144 423.733 255.645 425.667Z" fill="#C9CBD7"/>
<path d="M253.032 425.773C252.18 425.408 251.564 425.315 250.313 425.351C251.315 423.522 252.174 422.502 253.426 422.326C253.354 423.487 253.247 424.436 253.032 425.773Z" fill="#C9CBD7"/>
<path d="M250.277 425.351L250.17 425.597C251.458 425.597 252.317 425.703 252.961 426.125L253.032 425.773C252.317 425.421 251.422 425.316 250.277 425.351Z" fill="#122F44"/>
<path d="M252.889 426.441H249.74L250.17 425.562C250.563 425.562 252.245 425.562 252.961 426.124L252.925 426.3L252.889 426.441Z" fill="#426074"/>
<path d="M255.966 426.441H255.859C256.074 424.225 257.255 422.221 258.292 421.482C258.48 421.775 258.543 422.572 258.185 424.155C258.141 424.164 258.136 424.16 258.042 424.19C258.257 423.381 258.435 422.045 258.292 421.693C256.754 423.17 256.109 425.175 255.966 426.441Z" fill="#BEBEC5"/>
<path d="M258.292 421.482C256.145 421.412 255.322 421.763 253.426 422.326C255 423.276 255.287 424.366 255.859 426.406C256.11 424.296 257.04 422.502 258.292 421.482Z" fill="#F1F2F8"/>
<path d="M253.426 422.326C251.948 422.59 251.123 423.763 249.74 426.441H249.49H249.204C249.597 422.889 248.631 418.633 247.379 418C249.526 418.246 251.923 419.231 253.426 422.326Z" fill="#F1F2F8"/>
<path d="M247.522 420.743C247.262 420.573 247.073 420.525 246.771 420.427C246.908 419.429 247.057 418.844 247.415 418.281C247.665 418.422 247.764 418.627 247.916 418.879C247.701 419.442 247.629 419.864 247.522 420.743Z" fill="#1E394D"/>
<path d="M247.916 418.879C248.345 419.512 248.667 420.638 248.739 421.588C248.274 421.236 248.02 420.999 247.522 420.743C247.61 419.924 247.682 419.496 247.916 418.879Z" fill="#011B2E"/>
<path d="M244.66 422.071C244.66 422.074 244.659 422.077 244.659 422.08C244.656 422.077 244.656 422.074 244.66 422.071C244.698 421.611 244.912 420.741 245.232 420.286C245.625 420.568 246.448 421.975 246.484 422.291C246.365 422.232 246.012 422.136 245.411 422.08C244.884 422.031 244.685 422.05 244.66 422.071Z" fill="#1E3646"/>
<rect x="237.932" y="429.325" width="29.127" height="0.562731" fill="#585A5E"/>
<path d="M243.756 422.643C243.183 423.381 243.324 425.468 243.586 426.441L246.475 426.371L246.44 426.019C246.392 425.679 246.139 424.809 245.509 424.05C244.88 423.29 244.078 422.784 243.756 422.643Z" fill="#172A36"/>
<g filter="url(#filter0_i_90_1067)">
<path d="M243.586 426.476C243.815 425.351 244.743 424.178 245.16 423.768C245.554 424.155 245.697 424.391 245.805 424.542C246.27 425.195 246.52 426.195 246.484 426.476L243.586 426.476Z" fill="#426074"/>
</g>
<path d="M246.449 422.256C245.361 421.918 244.123 422.009 243.658 422.22C244.23 422.431 244.839 423.057 245.089 423.276C246.055 424.12 246.556 425.21 246.699 426.441H247.737C247.498 425.269 246.907 422.734 246.449 422.256Z" fill="#F1F2F8"/>
<path d="M246.627 420.356L246.806 420.392C246.941 419.422 247.036 418.919 247.415 418.281C247.772 418.528 248.13 419.161 248.381 419.97C248.381 419.97 248.703 420.919 248.739 421.587C248.774 421.904 249.096 424.19 248.989 426.441H249.24C249.301 425.15 249.351 424.395 249.24 423.135C249.158 421.904 249.073 421.213 248.667 419.97C248.223 418.861 247.957 418.326 247.379 418C247.093 418.281 246.858 419.076 246.627 420.356Z" fill="#D1D1D6"/>
<path d="M243.658 422.22C243.011 423.05 243.075 425.347 243.371 426.441H243.586C243.397 425.237 243.359 424.628 243.443 423.697C243.506 423.226 243.579 423.019 243.729 422.677C244.346 423.028 244.699 423.323 245.339 423.944C246.091 424.858 246.377 425.737 246.484 426.441H246.699L246.663 426.124C246.609 425.742 246.363 424.717 245.626 423.832C245.044 423.135 244.135 422.396 243.658 422.22Z" fill="#BFBFC4"/>
<path d="M257.434 426.441H257.362C257.541 425.949 257.613 425.632 257.756 425.175C257.577 424.858 257.47 424.718 257.219 424.436C257.899 424.155 258.114 424.12 259.223 424.12C258.472 424.858 258.328 425.562 258.328 426.406C258.257 425.843 257.827 425.281 257.827 425.281L257.434 426.441Z" fill="#C9CBD7"/>
<path d="M259.795 426.441H258.328C258.257 424.401 259.724 423.135 262.622 423.029C261.045 423.979 260.225 424.999 259.795 426.441Z" fill="#F1F2F8"/>
<path d="M262.265 426.441H260.547C260.547 426.159 260.762 425.702 261.012 425.386H261.585L262.265 426.441Z" fill="#C9CBD7"/>
<path d="M258.543 424.12C258.119 424.134 257.577 424.225 257.148 424.436C257.398 424.718 257.613 424.929 257.827 425.281C257.918 424.72 258.128 424.351 258.543 424.12Z" fill="#ACAFBC"/>
<rect x="236" y="429.888" width="32.7769" height="1.75854" rx="0.879268" fill="#122F44"/>
<rect x="240.365" y="428.199" width="24.4037" height="1.12546" fill="#F1F2F8"/>
<rect x="241.511" y="427.215" width="22.3999" height="0.98478" fill="#F1F2F8"/>
<rect x="242.226" y="426.441" width="20.5392" height="0.773756" fill="#F1F2F8"/>
<path d="M247.415 425.281C247.567 425.705 247.608 425.907 247.737 426.441H247.272C247.441 425.952 247.49 425.754 247.415 425.281Z" fill="#111F29"/>
<path d="M249.025 426.441H248.059C248.488 424.331 248.851 422.724 248.774 421.833C249.038 423.479 249.044 424.554 249.025 426.441Z" fill="#011B2E"/>
<path d="M247.522 420.743C247.962 420.97 248.224 421.14 248.739 421.588C248.816 422.052 248.781 422.371 248.739 422.924C248.62 423.804 248.504 424.297 248.309 425.175L248.345 423.944C248.269 423.186 248.171 422.779 247.987 422.115C247.795 421.514 247.722 421.217 247.522 420.743Z" fill="#C9CBD7"/>
<path d="M248.059 426.441H247.916C247.522 423.381 246.162 420.497 245.161 420.04C246.162 420.075 247.057 420.462 247.522 420.743C248.667 423.487 248.417 425.105 248.059 426.441Z" fill="#F1F2F8"/>
<path d="M257.362 426.441H255.967C256.181 424.683 257.04 422.854 258.293 421.693C258.424 422.233 258.313 423.116 258.042 424.19C257.687 424.241 257.537 424.299 257.219 424.436C257.398 424.647 257.55 424.833 257.767 425.175L257.763 425.19C257.643 425.582 257.509 426.024 257.362 426.441Z" fill="#011B2E"/>
<path d="M244.516 422.045L244.659 422.01C244.743 421.435 245.089 420.427 245.232 420.286C245.697 420.638 246.44 422.115 246.484 422.291C246.556 422.572 247.379 425.069 247.737 426.441H247.916C247.808 425.316 247.248 423.37 247.057 422.854C246.783 422.115 245.805 420.251 245.16 420.04C244.874 420.321 244.612 421.494 244.516 422.045Z" fill="#D2D2D6"/>
<path d="M245.125 422.045C245.411 422.045 245.733 422.045 246.448 422.256C246.592 422.361 246.781 422.922 246.949 423.452C247.164 424.127 247.236 424.546 247.415 425.316C246.698 423.56 246.205 422.851 245.125 422.045Z" fill="#C6C8D1"/>
<path d="M260.547 426.441H259.938C260.075 426.045 260.161 425.788 260.404 425.386H261.012C260.756 425.775 260.651 426.033 260.547 426.441Z" fill="#999CAE"/>
<rect x="242.226" y="427.004" width="2.64791" height="0.211024" fill="#011B2E"/>
<rect x="241.439" y="427.848" width="3.43513" height="0.351707" fill="#011B2E"/>
<rect x="240.365" y="428.973" width="4.50861" height="0.351707" fill="#011B2E"/>
<rect x="251.816" y="428.34" width="7.65748" height="0.633073" fill="#011B2E"/>
<path d="M318.5 454L323.103 468.856H337.997L325.947 478.038L330.55 492.894L318.5 483.712L306.45 492.894L311.053 478.038L299.003 468.856H313.897L318.5 454Z" fill="#810915" fill-opacity="0.65"/>
<defs>
<filter id="filter0_i_90_1067" x="243.586" y="423.768" width="2.90176" height="2.70825" filterUnits="userSpaceOnUse" color-interpolation-filters="sRGB">
<feFlood flood-opacity="0" result="BackgroundImageFix"/>
<feBlend mode="normal" in="SourceGraphic" in2="BackgroundImageFix" result="shape"/>
<feColorMatrix in="SourceAlpha" type="matrix" values="0 0 0 0 0 0 0 0 0 0 0 0 0 0 0 0 0 0 127 0" result="hardAlpha"/>
<feOffset dx="-3" dy="5"/>
<feComposite in2="hardAlpha" operator="arithmetic" k2="-1" k3="1"/>
<feColorMatrix type="matrix" values="0 0 0 0 0.183333 0 0 0 0 0.273333 0 0 0 0 0.333333 0 0 0 1 0"/>
<feBlend mode="normal" in2="shape" result="effect1_innerShadow_90_1067"/>
</filter>
</defs>
</svg>
