<svg width="295" height="313" viewBox="0 0 295 313" fill="none" xmlns="http://www.w3.org/2000/svg">
<circle cx="148.25" cy="147.75" r="119.25" fill="#BFE4FF"/>
<path fill-rule="evenodd" clip-rule="evenodd" d="M54.68 220.727C54.5606 218.821 54.5 216.899 54.5 214.963C54.5 164.173 96.1977 123 147.634 123C199.071 123 240.769 164.173 240.769 214.963C240.769 220.481 240.276 225.887 239.333 231.138C217.526 255.018 186.138 270 151.25 270C111.534 270 76.3529 250.585 54.68 220.727Z" fill="#7ED1FF"/>
<g filter="url(#filter0_d_732_4)">
<path d="M242.412 207.812C242.655 201.847 243.96 208.134 243.439 202.024C243.406 201.638 243.319 201.252 243.186 200.887L235.926 181.007L226.612 163.322L198.672 137.148L197.84 138.792C197.038 140.374 197.307 142.224 198.683 143.343C200.018 144.43 201.758 145.77 203.467 147.131C204.519 147.969 205.206 149.269 204.875 150.573C203.872 154.517 200.017 155.377 197.412 155.517C196.825 155.549 196.243 155.426 195.7 155.202L187.926 152.004C186.493 152.004 173.597 159.078 176.463 161.907C180.475 165.869 177.418 167.095 176.463 167.567C175.433 167.973 173.836 168.415 170.843 169.255C169.845 169.535 168.949 170.139 168.443 171.044C165.221 176.813 169.045 179.892 172.449 180.785C173.192 180.98 173.971 180.856 174.682 180.566L185.776 176.056C186.426 176.056 187.385 175.846 188.495 175.656C190.301 175.345 191.893 176.498 192.782 178.101C194.074 180.43 195.161 180.8 196.744 180.557C197.545 180.434 198.26 179.999 198.837 179.43L201.364 176.934C202.375 175.936 203.798 175.474 205.202 175.687L211.726 176.678C212.097 176.734 212.462 176.831 212.792 177.008C214.525 177.937 217.102 180.248 216.583 183.837C216.009 187.798 212.045 188.317 210.135 188.081H177.896C172.642 187.61 161.418 189.072 158.553 198.693C155.687 208.313 160.463 215.199 162.851 217.793C164.523 219.443 168.582 222.037 175.747 222.037C183.627 222.037 187.209 225.574 188.642 230.526C190.075 236.892 189.359 239.722 190.075 255.992C190.791 272.263 217.299 277.922 223.747 255.992L225.896 225.574C226.309 223.127 228.429 221.33 230.911 221.33C235.553 221.33 247.562 218.905 243.639 211.811C242.953 210.571 242.354 209.227 242.412 207.812Z" fill="#73D16C"/>
<path d="M242.412 207.812C242.655 201.847 243.96 208.134 243.439 202.024C243.406 201.638 243.319 201.252 243.186 200.887L235.926 181.007L226.612 163.322L198.672 137.148L197.84 138.792C197.038 140.374 197.307 142.224 198.683 143.343C200.018 144.43 201.758 145.77 203.467 147.131C204.519 147.969 205.206 149.269 204.875 150.573C203.872 154.517 200.017 155.377 197.412 155.517C196.825 155.549 196.243 155.426 195.7 155.202L187.926 152.004C186.493 152.004 173.597 159.078 176.463 161.907C180.475 165.869 177.418 167.095 176.463 167.567C175.433 167.973 173.836 168.415 170.843 169.255C169.845 169.535 168.949 170.139 168.443 171.044C165.221 176.813 169.045 179.892 172.449 180.785C173.192 180.98 173.971 180.856 174.682 180.566L185.776 176.056C186.426 176.056 187.385 175.846 188.495 175.656C190.301 175.345 191.893 176.498 192.782 178.101C194.074 180.43 195.161 180.8 196.744 180.557C197.545 180.434 198.26 179.999 198.837 179.43L201.364 176.934C202.375 175.936 203.798 175.474 205.202 175.687L211.726 176.678C212.097 176.734 212.462 176.831 212.792 177.008C214.525 177.937 217.102 180.248 216.583 183.837C216.009 187.798 212.045 188.317 210.135 188.081H177.896C172.642 187.61 161.418 189.072 158.553 198.693C155.687 208.313 160.463 215.199 162.851 217.793C164.523 219.443 168.582 222.037 175.747 222.037C183.627 222.037 187.209 225.574 188.642 230.526C190.075 236.892 189.359 239.722 190.075 255.992C190.791 272.263 217.299 277.922 223.747 255.992L225.896 225.574C226.309 223.127 228.429 221.33 230.911 221.33C235.553 221.33 247.562 218.905 243.639 211.811C242.953 210.571 242.354 209.227 242.412 207.812Z" stroke="#73D16C" stroke-width="1.5"/>
</g>
<g filter="url(#filter1_d_732_4)">
<path d="M88.0986 213.236C88.2252 210.532 87.3877 207.181 83.1565 207.181L71.6939 206.474C67.6342 206.238 63.8133 202.23 63.8133 197.278C62.3805 190.911 60.2312 184.544 58.7983 181.715L62.3804 173.933L65.9625 166.859L70.261 160.493L74.5595 155.541L76.7088 152.711L79.5745 149.882L82.4401 147.052L85.3058 144.222L88.1715 142.1L92.47 139.27L96.0521 137.148L96.9063 136.811C98.5643 136.156 100.572 136.409 101.841 137.661C102.454 138.266 103.164 139.029 103.933 139.978C106.4 143.023 105.504 145.893 104.445 147.686C104.131 148.217 103.659 148.629 103.128 148.943L101.221 150.073C100.648 150.413 100.147 150.869 99.8158 151.446C98.5119 153.718 97.3279 157.298 100.351 159.785C103.789 162.615 106.798 161.672 108.231 160.493L118.654 152.623C119.8 151.757 121.172 151.197 122.608 151.252C125.878 151.375 130.3 152.435 132.589 156.956C135.455 162.615 133.306 166.859 129.724 169.689L120.247 174.68C119.421 175.114 118.751 175.796 118.329 176.628L110.342 192.403C109.902 193.271 109.192 193.974 108.319 194.405L101.067 197.985C100.393 197.985 99.0831 196.731 95.9431 193.043C95.5419 192.571 95.0482 192.175 94.4798 191.93C88.3812 189.302 86.3218 192.779 87.2476 197.158C87.3641 197.709 87.6314 198.214 87.9748 198.66L99.716 213.915C100.568 215.022 101.882 215.669 103.279 215.676C109.51 215.708 119.395 215.877 120.41 216.378C123.849 216.944 123.992 222.744 126.858 224.159C127.882 224.665 130.206 223.565 138.474 222.237C139.306 222.103 140.175 222.203 140.924 222.591C148.871 226.709 148.287 234.221 146.918 237.6L131.873 251.748L129.724 255.992C129.007 258.115 127.76 262.359 126.858 263.774C122.798 270.141 117.5 262.5 117.5 262.5C117.5 262.5 118.149 265.189 116 263.774C113.355 266.915 104.31 266.079 102.07 262.638C100.378 260.038 98.6306 257.548 97.2498 255.992C95.4019 253.911 94.7983 263.425 94.7983 251.748C94.7983 241.343 89.1154 253.384 80.7892 237.182C80.46 236.542 80.3003 235.819 80.3139 235.099C80.37 232.128 80.4804 223.749 80.066 218.729C79.8199 215.749 81.2404 216.378 84.2312 216.378C86.2086 216.378 88.006 215.211 88.0986 213.236Z" fill="#73D16C"/>
<path d="M88.0986 213.236C88.2252 210.532 87.3877 207.181 83.1565 207.181L71.6939 206.474C67.6342 206.238 63.8133 202.23 63.8133 197.278C62.3805 190.911 60.2312 184.544 58.7983 181.715L62.3804 173.933L65.9625 166.859L70.261 160.493L74.5595 155.541L76.7088 152.711L79.5745 149.882L82.4401 147.052L85.3058 144.222L88.1715 142.1L92.47 139.27L96.0521 137.148L96.9063 136.811C98.5643 136.156 100.572 136.409 101.841 137.661C102.454 138.266 103.164 139.029 103.933 139.978C106.4 143.023 105.504 145.893 104.445 147.686C104.131 148.217 103.659 148.629 103.128 148.943L101.221 150.073C100.648 150.413 100.147 150.869 99.8158 151.446C98.5119 153.718 97.3279 157.298 100.351 159.785C103.789 162.615 106.798 161.672 108.231 160.493L118.654 152.623C119.8 151.757 121.172 151.197 122.608 151.252C125.878 151.375 130.3 152.435 132.589 156.956C135.455 162.615 133.306 166.859 129.724 169.689L120.247 174.68C119.421 175.114 118.751 175.796 118.329 176.628L110.342 192.403C109.902 193.271 109.192 193.974 108.319 194.405L101.067 197.985C100.393 197.985 99.0831 196.731 95.9431 193.043C95.5419 192.571 95.0482 192.175 94.4798 191.93C88.3812 189.302 86.3218 192.779 87.2476 197.158C87.3641 197.709 87.6314 198.214 87.9748 198.66L99.716 213.915C100.568 215.022 101.882 215.669 103.279 215.676C109.51 215.708 119.395 215.877 120.41 216.378C123.849 216.944 123.992 222.744 126.858 224.159C127.882 224.665 130.206 223.565 138.474 222.237C139.306 222.103 140.175 222.203 140.924 222.591C148.871 226.709 148.287 234.221 146.918 237.6L131.873 251.748L129.724 255.992C129.007 258.115 127.76 262.359 126.858 263.774C122.798 270.141 117.5 262.5 117.5 262.5C117.5 262.5 118.149 265.189 116 263.774C113.355 266.915 104.31 266.079 102.07 262.638C100.378 260.038 98.6306 257.548 97.2498 255.992C95.4019 253.911 94.7983 263.425 94.7983 251.748C94.7983 241.343 89.1154 253.384 80.7892 237.182C80.46 236.542 80.3003 235.819 80.3139 235.099C80.37 232.128 80.4804 223.749 80.066 218.729C79.8199 215.749 81.2404 216.378 84.2312 216.378C86.2086 216.378 88.006 215.211 88.0986 213.236Z" stroke="#73D16C" stroke-width="1.5"/>
</g>
<g filter="url(#filter2_d_732_4)">
<path d="M131.156 201.522H123.276C116.112 201.522 116.828 210.718 121.843 210.718H131.156C137.604 210.718 134.739 201.522 131.156 201.522Z" fill="#73D16C"/>
<path d="M129.002 132.196H147.853C148.184 132.196 148.513 132.236 148.834 132.316L149.11 132.384C150.406 132.704 151.421 133.712 151.749 135.007C151.87 135.486 151.892 135.981 151.815 136.469C151.031 141.429 149.757 150.557 149.267 154.091C149.136 155.037 148.72 155.93 147.94 156.48C147.133 157.048 145.98 157.663 144.769 157.663C143.336 157.663 141.664 156.72 141.187 155.541L136.888 142.807C136.172 140.685 134.022 140.685 128.291 139.978C124.917 139.561 124.16 135.055 126.376 132.956C127.06 132.308 128.059 132.196 129.002 132.196Z" fill="#73D16C"/>
<path d="M131.156 201.522H123.276C116.112 201.522 116.828 210.718 121.843 210.718H131.156C137.604 210.718 134.739 201.522 131.156 201.522Z" stroke="#73D16C" stroke-width="1.5"/>
<path d="M129.002 132.196H147.853C148.184 132.196 148.513 132.236 148.834 132.316L149.11 132.384C150.406 132.704 151.421 133.712 151.749 135.007C151.87 135.486 151.892 135.981 151.815 136.469C151.031 141.429 149.757 150.557 149.267 154.091C149.136 155.037 148.72 155.93 147.94 156.48C147.133 157.048 145.98 157.663 144.769 157.663C143.336 157.663 141.664 156.72 141.187 155.541L136.888 142.807C136.172 140.685 134.022 140.685 128.291 139.978C124.917 139.561 124.16 135.055 126.376 132.956C127.06 132.308 128.059 132.196 129.002 132.196Z" stroke="#73D16C" stroke-width="1.5"/>
</g>
<circle cx="147.5" cy="147" r="132.75" stroke="#33719F" stroke-width="28.5"/>
<path fill-rule="evenodd" clip-rule="evenodd" d="M65.9002 119.85L65.9002 119.867C61.7957 120.137 58.5502 123.552 58.5502 127.725C58.5502 129.037 58.8708 130.273 59.438 131.361C58.2389 132.591 57.5002 134.272 57.5002 136.125C57.5002 139.894 60.5559 142.95 64.3252 142.95C67.9124 142.95 70.8532 140.183 71.1291 136.666C71.5405 136.36 71.9057 135.996 72.2121 135.585C73.2704 136.259 74.5272 136.65 75.8752 136.65C76.3767 136.65 76.8655 136.596 77.3362 136.493C77.6771 136.984 78.0995 137.413 78.5838 137.762C79.1198 141.294 82.1689 144 85.8502 144C89.9095 144 93.2002 140.709 93.2002 136.65C93.2002 133.484 91.1985 130.786 88.3916 129.751C89.4282 128.484 90.0502 126.865 90.0502 125.1C90.0502 121.041 86.7595 117.75 82.7002 117.75C82.5845 117.75 82.4694 117.753 82.355 117.758C81.3253 114.718 78.1087 112.5 74.3002 112.5C69.661 112.5 65.9002 115.791 65.9002 119.85Z" fill="url(#paint0_linear_732_4)"/>
<path d="M77.75 130.5H78.5L77.75 136.5V141L79.25 139.5L82.25 137.25H83.75C83.75 137.25 83.2263 137.795 82.25 138.75C81.2737 139.705 80.75 141 80.75 141C80.75 141 81.5 141 83 141.75L84.5 142.5H79.25C79.25 142.5 78.5 142.5 77.75 144C77 145.5 77 145.5 77 147C77 148.5 77.2592 157.5 77.2592 157.5H72.7592C72.7592 157.5 74.75 150.75 74 147.75C73.25 144.75 70.25 143.25 70.25 143.25L65.75 139.5L66.5 138.75L70.25 141L68 135H68.75L72.5 142.5L74.75 144C74.75 144 72.5 138.75 71.75 137.25C71 135.75 68 133.5 68 133.5L68.75 132L72.5 135L73.25 132H74L73.25 136.5L75.5 139.5L77.75 130.5Z" fill="#3A1F0A"/>
<path fill-rule="evenodd" clip-rule="evenodd" d="M119.429 85.5L119.429 85.5211C124.454 85.8519 128.429 90.0333 128.429 95.1429C128.429 96.7489 128.036 98.2632 127.341 99.5951C128.81 101.101 129.714 103.159 129.714 105.429C129.714 110.044 125.973 113.786 121.357 113.786C116.965 113.786 113.364 110.397 113.026 106.091C112.522 105.717 112.075 105.27 111.7 104.767C110.404 105.593 108.865 106.071 107.214 106.071C106.6 106.071 106.001 106.005 105.425 105.879C105.008 106.48 104.491 107.006 103.898 107.433C103.241 111.757 99.5078 115.071 95 115.071C90.0294 115.071 86 111.042 86 106.071C86 102.195 88.4511 98.8905 91.8881 97.6239C90.6187 96.0725 89.8571 94.0895 89.8571 91.9286C89.8571 86.958 93.8866 82.9286 98.8571 82.9286C98.9988 82.9286 99.1397 82.9318 99.2798 82.9383C100.541 79.2157 104.479 76.5 109.143 76.5C114.823 76.5 119.429 80.5294 119.429 85.5Z" fill="url(#paint1_linear_732_4)"/>
<path d="M105.929 100.928H105.286L105.929 106.071V109.928L104.643 108.643L102.072 106.714H100.786C100.786 106.714 101.235 107.182 102.072 108C102.908 108.818 103.357 109.928 103.357 109.928C103.357 109.928 102.714 109.928 101.429 110.571L100.143 111.214H104.643C104.643 111.214 105.286 111.214 105.929 112.5C106.572 113.786 106.572 113.786 106.572 115.071C106.572 116.357 106.012 136.5 106.012 136.5H109.869C109.869 136.5 108.5 118.286 109.143 115.714C109.786 113.143 112.357 111.857 112.357 111.857L116.214 108.643L115.572 108L112.357 109.928L114.286 104.786H113.643L110.429 111.214L108.5 112.5C108.5 112.5 110.429 108 111.072 106.714C111.714 105.428 114.286 103.5 114.286 103.5L113.643 102.214L110.429 104.786L109.786 102.214H109.143L109.786 106.071L107.857 108.643L105.929 100.928Z" fill="#72491F"/>
<path fill-rule="evenodd" clip-rule="evenodd" d="M204.3 112.7L204.3 112.718C200 113.001 196.6 116.578 196.6 120.95C196.6 122.324 196.936 123.62 197.53 124.759C196.274 126.048 195.5 127.808 195.5 129.75C195.5 133.699 198.701 136.9 202.65 136.9C206.408 136.9 209.489 134.001 209.778 130.317C210.209 129.997 210.591 129.615 210.912 129.184C212.021 129.891 213.338 130.3 214.75 130.3C215.275 130.3 215.787 130.243 216.28 130.136C216.638 130.65 217.08 131.099 217.587 131.465C218.149 135.165 221.343 138 225.2 138C229.452 138 232.9 134.553 232.9 130.3C232.9 126.983 230.803 124.156 227.862 123.073C228.948 121.745 229.6 120.049 229.6 118.2C229.6 113.947 226.152 110.5 221.9 110.5C221.779 110.5 221.658 110.503 221.538 110.508C220.46 107.323 217.09 105 213.1 105C208.24 105 204.3 108.447 204.3 112.7Z" fill="url(#paint2_linear_732_4)"/>
<path d="M215.75 121.5H216.5L215.75 127.5V132L217.25 130.5L220.25 128.25H221.75C221.75 128.25 221.226 128.795 220.25 129.75C219.274 130.705 218.75 132 218.75 132C218.75 132 219.5 132 221 132.75L222.5 133.5H217.25C217.25 133.5 216.5 133.5 215.75 135C215 136.5 215 136.5 215 138C215 139.5 215.38 153 215.38 153H210.88C210.88 153 212.75 141.75 212 138.75C211.25 135.75 208.25 134.25 208.25 134.25L203.75 130.5L204.5 129.75L208.25 132L206 126H206.75L210.5 133.5L212.75 135C212.75 135 210.5 129.75 209.75 128.25C209 126.75 206 124.5 206 124.5L206.75 123L210.5 126L211.25 123H212L211.25 127.5L213.5 130.5L215.75 121.5Z" fill="#72491F"/>
<path fill-rule="evenodd" clip-rule="evenodd" d="M200.176 85.7206L200.176 85.7387C204.488 86.0223 207.897 89.6093 207.897 93.9926C207.897 95.3703 207.56 96.6693 206.965 97.8119C208.224 99.1038 209 100.869 209 102.816C209 106.776 205.791 109.985 201.831 109.985C198.063 109.985 194.974 107.078 194.684 103.385C194.252 103.063 193.868 102.68 193.546 102.248C192.435 102.957 191.114 103.368 189.698 103.368C189.172 103.368 188.658 103.311 188.164 103.203C187.806 103.718 187.362 104.169 186.853 104.536C186.29 108.245 183.087 111.088 179.221 111.088C174.957 111.088 171.5 107.632 171.5 103.368C171.5 100.042 173.603 97.2075 176.551 96.121C175.462 94.7901 174.809 93.089 174.809 91.2353C174.809 86.9713 178.266 83.5147 182.53 83.5147C182.651 83.5147 182.772 83.5175 182.892 83.5231C183.973 80.3296 187.352 78 191.353 78C196.226 78 200.176 81.4566 200.176 85.7206Z" fill="url(#paint3_linear_732_4)"/>
<path d="M188.75 97.5H188L188.75 103.5V108L187.25 106.5L184.25 104.25H182.75C182.75 104.25 183.274 104.795 184.25 105.75C185.226 106.705 185.75 108 185.75 108C185.75 108 185 108 183.5 108.75L182 109.5H187.25C187.25 109.5 188 109.5 188.75 111C189.5 112.5 189.5 112.5 189.5 114C189.5 115.5 188.031 128.25 188.031 128.25H192.531C192.531 128.25 191.75 117.75 192.5 114.75C193.25 111.75 196.25 110.25 196.25 110.25L200.75 106.5L200 105.75L196.25 108L198.5 102H197.75L194 109.5L191.75 111C191.75 111 194 105.75 194.75 104.25C195.5 102.75 198.5 100.5 198.5 100.5L197.75 99L194 102L193.25 99H192.5L193.25 103.5L191 106.5L188.75 97.5Z" fill="#9B692E"/>
<path fill-rule="evenodd" clip-rule="evenodd" d="M107.3 109.35L107.3 109.367C111.404 109.637 114.65 113.052 114.65 117.225C114.65 118.537 114.329 119.773 113.762 120.861C114.961 122.091 115.7 123.772 115.7 125.625C115.7 129.394 112.644 132.45 108.875 132.45C105.288 132.45 102.347 129.683 102.071 126.166C101.66 125.86 101.295 125.496 100.988 125.085C99.9298 125.759 98.673 126.15 97.325 126.15C96.8234 126.15 96.3345 126.096 95.8637 125.993C95.5229 126.483 95.1006 126.913 94.6164 127.262C94.0805 130.794 91.0313 133.5 87.35 133.5C83.2907 133.5 80 130.209 80 126.15C80 122.984 82.0017 120.286 84.8086 119.251C83.7719 117.984 83.15 116.365 83.15 114.6C83.15 110.541 86.4407 107.25 90.5 107.25C90.6157 107.25 90.7308 107.253 90.8452 107.258C91.8749 104.218 95.0914 102 98.9 102C103.539 102 107.3 105.291 107.3 109.35Z" fill="url(#paint4_linear_732_4)"/>
<path d="M95.75 117H95L95.75 123V127.5L94.25 126L91.25 123.75H89.75C89.75 123.75 90.2737 124.295 91.25 125.25C92.2263 126.205 92.75 127.5 92.75 127.5C92.75 127.5 92 127.5 90.5 128.25L89 129H94.25C94.25 129 95 129 95.75 130.5C96.5 132 96.5 132 96.5 133.5C96.5 135 95.75 148.5 95.75 148.5H100.25C100.25 148.5 98.75 137.25 99.5 134.25C100.25 131.25 103.25 129.75 103.25 129.75L107.75 126L107 125.25L103.25 127.5L105.5 121.5H104.75L101 129L98.75 130.5C98.75 130.5 101 125.25 101.75 123.75C102.5 122.25 105.5 120 105.5 120L104.75 118.5L101 121.5L100.25 118.5H99.5L100.25 123L98 126L95.75 117Z" fill="#BE9A7D"/>
<path fill-rule="evenodd" clip-rule="evenodd" d="M162.5 64.5L162.5 64.5246C168.364 64.9105 173 69.7888 173 75.75C173 77.6237 172.542 79.3904 171.732 80.9442C173.445 82.7012 174.5 85.1024 174.5 87.75C174.5 93.1348 170.135 97.5 164.75 97.5C159.625 97.5 155.424 93.5465 155.03 88.5231C154.442 88.0862 153.921 87.5653 153.483 86.9781C151.971 87.9417 150.176 88.5 148.25 88.5C147.533 88.5 146.835 88.4227 146.162 88.276C145.676 88.9764 145.072 89.5899 144.381 90.0884C143.615 95.1337 139.259 99 134 99C128.201 99 123.5 94.299 123.5 88.5C123.5 83.9772 126.36 80.1222 130.369 78.6446C128.888 76.8346 128 74.5211 128 72C128 66.201 132.701 61.5 138.5 61.5C138.665 61.5 138.83 61.5038 138.993 61.5114C140.464 57.1683 145.059 54 150.5 54C157.127 54 162.5 58.701 162.5 64.5Z" fill="url(#paint5_linear_732_4)"/>
<path d="M146.75 82.5H146L146.75 88.5V93L145.25 91.5L142.25 89.25H140.75C140.75 89.25 141.274 89.7954 142.25 90.75C143.226 91.7046 143.75 93 143.75 93C143.75 93 143 93 141.5 93.75L140 94.5H145.25C145.25 94.5 146 94.5 146.75 96C147.5 97.5 147.5 97.5 147.5 99C147.5 100.5 146.75 127.5 146.75 127.5H151.25C151.25 127.5 149.75 102.75 150.5 99.75C151.25 96.75 154.25 95.25 154.25 95.25L158.75 91.5L158 90.75L154.25 93L156.5 87H155.75L152 94.5L149.75 96C149.75 96 152 90.75 152.75 89.25C153.5 87.75 156.5 85.5 156.5 85.5L155.75 84L152 87L151.25 84H150.5L151.25 88.5L149 91.5L146.75 82.5Z" fill="#3A1F0A"/>
<path fill-rule="evenodd" clip-rule="evenodd" d="M117.3 99.2L117.3 99.218C113 99.501 109.6 103.078 109.6 107.45C109.6 108.824 109.936 110.12 110.53 111.259C109.274 112.548 108.5 114.308 108.5 116.25C108.5 120.199 111.701 123.4 115.65 123.4C119.408 123.4 122.489 120.501 122.778 116.817C123.209 116.497 123.591 116.115 123.912 115.684C125.021 116.391 126.338 116.8 127.75 116.8C128.275 116.8 128.787 116.743 129.28 116.636C129.638 117.15 130.08 117.599 130.587 117.965C131.149 121.665 134.343 124.5 138.2 124.5C142.452 124.5 145.9 121.053 145.9 116.8C145.9 113.483 143.803 110.656 140.862 109.573C141.948 108.245 142.6 106.549 142.6 104.7C142.6 100.447 139.152 97 134.9 97C134.779 97 134.658 97.0028 134.538 97.0083C133.46 93.8234 130.09 91.5 126.1 91.5C121.24 91.5 117.3 94.9474 117.3 99.2Z" fill="url(#paint6_linear_732_4)"/>
<path d="M128.75 108H129.5L128.75 114V118.5L130.25 117L133.25 114.75H134.75C134.75 114.75 134.226 115.295 133.25 116.25C132.274 117.205 131.75 118.5 131.75 118.5C131.75 118.5 132.5 118.5 134 119.25L135.5 120H130.25C130.25 120 129.5 120 128.75 121.5C128 123 128 123 128 124.5C128 126 128.38 139.5 128.38 139.5H123.88C123.88 139.5 125.75 128.25 125 125.25C124.25 122.25 121.25 120.75 121.25 120.75L116.75 117L117.5 116.25L121.25 118.5L119 112.5H119.75L123.5 120L125.75 121.5C125.75 121.5 123.5 116.25 122.75 114.75C122 113.25 119 111 119 111L119.75 109.5L123.5 112.5L124.25 109.5H125L124.25 114L126.5 117L128.75 108Z" fill="#72491F"/>
<path fill-rule="evenodd" clip-rule="evenodd" d="M160.8 100.7L160.8 100.718C156.5 101.001 153.1 104.578 153.1 108.95C153.1 110.324 153.436 111.62 154.03 112.759C152.774 114.048 152 115.808 152 117.75C152 121.699 155.201 124.9 159.15 124.9C162.908 124.9 165.989 122.001 166.278 118.317C166.709 117.997 167.091 117.615 167.412 117.184C168.521 117.891 169.838 118.3 171.25 118.3C171.775 118.3 172.287 118.243 172.78 118.136C173.138 118.65 173.58 119.099 174.087 119.465C174.649 123.165 177.843 126 181.7 126C185.952 126 189.4 122.553 189.4 118.3C189.4 114.983 187.303 112.156 184.362 111.073C185.448 109.745 186.1 108.049 186.1 106.2C186.1 101.947 182.652 98.5 178.4 98.5C178.279 98.5 178.158 98.5028 178.038 98.5083C176.96 95.3234 173.59 93 169.6 93C164.74 93 160.8 96.4474 160.8 100.7Z" fill="url(#paint7_linear_732_4)"/>
<path d="M172.25 109.5H173L172.25 115.5V120L173.75 118.5L176.75 116.25H178.25C178.25 116.25 177.726 116.795 176.75 117.75C175.774 118.705 175.25 120 175.25 120C175.25 120 176 120 177.5 120.75L179 121.5H173.75C173.75 121.5 173 121.5 172.25 123C171.5 124.5 171.5 124.5 171.5 126C171.5 127.5 171.88 141 171.88 141H167.38C167.38 141 169.25 129.75 168.5 126.75C167.75 123.75 164.75 122.25 164.75 122.25L160.25 118.5L161 117.75L164.75 120L162.5 114H163.25L167 121.5L169.25 123C169.25 123 167 117.75 166.25 116.25C165.5 114.75 162.5 112.5 162.5 112.5L163.25 111L167 114L167.75 111H168.5L167.75 115.5L170 118.5L172.25 109.5Z" fill="#72491F"/>
<path fill-rule="evenodd" clip-rule="evenodd" d="M182.9 112.35L182.9 112.367C178.796 112.637 175.55 116.052 175.55 120.225C175.55 121.537 175.871 122.773 176.438 123.861C175.239 125.091 174.5 126.772 174.5 128.625C174.5 132.394 177.556 135.45 181.325 135.45C184.912 135.45 187.853 132.683 188.129 129.166C188.541 128.86 188.906 128.496 189.212 128.085C190.27 128.759 191.527 129.15 192.875 129.15C193.377 129.15 193.866 129.096 194.336 128.993C194.677 129.484 195.1 129.913 195.584 130.262C196.12 133.794 199.169 136.5 202.85 136.5C206.909 136.5 210.2 133.209 210.2 129.15C210.2 125.984 208.198 123.286 205.392 122.251C206.428 120.984 207.05 119.365 207.05 117.6C207.05 113.541 203.759 110.25 199.7 110.25C199.585 110.25 199.469 110.253 199.355 110.258C198.325 107.218 195.109 105 191.3 105C186.661 105 182.9 108.291 182.9 112.35Z" fill="url(#paint8_linear_732_4)"/>
<path d="M194.75 123H195.5L194.75 129V133.5L196.25 132L199.25 129.75H200.75C200.75 129.75 200.226 130.295 199.25 131.25C198.274 132.205 197.75 133.5 197.75 133.5C197.75 133.5 198.5 133.5 200 134.25L201.5 135H196.25C196.25 135 195.5 135 194.75 136.5C194 138 194 138 194 139.5C194 141 194.259 150 194.259 150H189.759C189.759 150 191.75 143.25 191 140.25C190.25 137.25 187.25 135.75 187.25 135.75L182.75 132L183.5 131.25L187.25 133.5L185 127.5H185.75L189.5 135L191.75 136.5C191.75 136.5 189.5 131.25 188.75 129.75C188 128.25 185 126 185 126L185.75 124.5L189.5 127.5L190.25 124.5H191L190.25 129L192.5 132L194.75 123Z" fill="#3A1F0A"/>
<defs>
<filter id="filter0_d_732_4" x="156.913" y="135.917" width="88.251" height="136.728" filterUnits="userSpaceOnUse" color-interpolation-filters="sRGB">
<feFlood flood-opacity="0" result="BackgroundImageFix"/>
<feColorMatrix in="SourceAlpha" type="matrix" values="0 0 0 0 0 0 0 0 0 0 0 0 0 0 0 0 0 0 127 0" result="hardAlpha"/>
<feOffset dy="1.5"/>
<feComposite in2="hardAlpha" operator="out"/>
<feColorMatrix type="matrix" values="0 0 0 0 0 0 0 0 0 0 0 0 0 0 0 0 0 0 0.25 0"/>
<feBlend mode="normal" in2="BackgroundImageFix" result="effect1_dropShadow_732_4"/>
<feBlend mode="normal" in="SourceGraphic" in2="effect1_dropShadow_732_4" result="shape"/>
</filter>
<filter id="filter1_d_732_4" x="57.9653" y="135.711" width="92.0229" height="132.846" filterUnits="userSpaceOnUse" color-interpolation-filters="sRGB">
<feFlood flood-opacity="0" result="BackgroundImageFix"/>
<feColorMatrix in="SourceAlpha" type="matrix" values="0 0 0 0 0 0 0 0 0 0 0 0 0 0 0 0 0 0 127 0" result="hardAlpha"/>
<feOffset dx="1.5" dy="1.5"/>
<feComposite in2="hardAlpha" operator="out"/>
<feColorMatrix type="matrix" values="0 0 0 0 0.422049 0 0 0 0 0.673537 0 0 0 0 0.920833 0 0 0 1 0"/>
<feBlend mode="normal" in2="BackgroundImageFix" result="effect1_dropShadow_732_4"/>
<feBlend mode="normal" in="SourceGraphic" in2="effect1_dropShadow_732_4" result="shape"/>
</filter>
<filter id="filter2_d_732_4" x="117.238" y="131.446" width="38.3716" height="81.5222" filterUnits="userSpaceOnUse" color-interpolation-filters="sRGB">
<feFlood flood-opacity="0" result="BackgroundImageFix"/>
<feColorMatrix in="SourceAlpha" type="matrix" values="0 0 0 0 0 0 0 0 0 0 0 0 0 0 0 0 0 0 127 0" result="hardAlpha"/>
<feOffset dx="3" dy="1.5"/>
<feComposite in2="hardAlpha" operator="out"/>
<feColorMatrix type="matrix" values="0 0 0 0 0 0 0 0 0 0 0 0 0 0 0 0 0 0 0.25 0"/>
<feBlend mode="normal" in2="BackgroundImageFix" result="effect1_dropShadow_732_4"/>
<feBlend mode="normal" in="SourceGraphic" in2="effect1_dropShadow_732_4" result="shape"/>
</filter>
<linearGradient id="paint0_linear_732_4" x1="89.0002" y1="117.75" x2="61.1752" y2="140.325" gradientUnits="userSpaceOnUse">
<stop stop-color="#55A145"/>
<stop offset="1" stop-color="#106A35"/>
</linearGradient>
<linearGradient id="paint1_linear_732_4" x1="91.1429" y1="82.9286" x2="125.214" y2="110.571" gradientUnits="userSpaceOnUse">
<stop stop-color="#9ACA3B"/>
<stop offset="1" stop-color="#7AA721"/>
</linearGradient>
<linearGradient id="paint2_linear_732_4" x1="228.5" y1="110.5" x2="199.35" y2="134.15" gradientUnits="userSpaceOnUse">
<stop stop-color="#9ACA3B"/>
<stop offset="1" stop-color="#1C7D3E"/>
</linearGradient>
<linearGradient id="paint3_linear_732_4" x1="175.912" y1="83.5147" x2="205.14" y2="107.228" gradientUnits="userSpaceOnUse">
<stop stop-color="#CEDB2B"/>
<stop offset="1" stop-color="#AED138"/>
</linearGradient>
<linearGradient id="paint4_linear_732_4" x1="84.2" y1="107.25" x2="112.025" y2="129.825" gradientUnits="userSpaceOnUse">
<stop stop-color="#CEDB2B"/>
<stop offset="1" stop-color="#AED138"/>
</linearGradient>
<linearGradient id="paint5_linear_732_4" x1="129.5" y1="61.5" x2="169.25" y2="93.75" gradientUnits="userSpaceOnUse">
<stop stop-color="#55A145"/>
<stop offset="1" stop-color="#106A35"/>
</linearGradient>
<linearGradient id="paint6_linear_732_4" x1="141.5" y1="97" x2="112.35" y2="120.65" gradientUnits="userSpaceOnUse">
<stop stop-color="#9ACA3B"/>
<stop offset="1" stop-color="#1C7D3E"/>
</linearGradient>
<linearGradient id="paint7_linear_732_4" x1="185" y1="98.5" x2="155.85" y2="122.15" gradientUnits="userSpaceOnUse">
<stop stop-color="#9ACA3B"/>
<stop offset="1" stop-color="#1C7D3E"/>
</linearGradient>
<linearGradient id="paint8_linear_732_4" x1="206" y1="110.25" x2="178.175" y2="132.825" gradientUnits="userSpaceOnUse">
<stop stop-color="#55A145"/>
<stop offset="1" stop-color="#106A35"/>
</linearGradient>
</defs>
</svg>
