<svg width="295" height="340" viewBox="0 0 295 340" fill="none" xmlns="http://www.w3.org/2000/svg">
<circle cx="146.5" cy="148.5" r="138.5" fill="#BFE4FF"/>
<path fill-rule="evenodd" clip-rule="evenodd" d="M37.8253 233.258C37.6866 231.044 37.6162 228.811 37.6162 226.563C37.6162 167.574 86.0449 119.755 145.785 119.755C205.525 119.755 253.953 167.574 253.953 226.563C253.953 232.972 253.382 239.25 252.286 245.349C226.959 273.084 190.503 290.484 149.984 290.484C103.857 290.484 62.9967 267.935 37.8253 233.258Z" fill="#7ED1FF"/>
<g filter="url(#filter0_d_0_1)">
<path d="M257.507 219.445C257.547 212.305 257.741 218.699 257.058 211.535C257.015 211.086 256.916 210.638 256.761 210.214L248.328 187.126L237.512 166.586L205.061 136.187L204.094 138.096C203.164 139.933 203.476 142.081 205.073 143.382C206.624 144.644 208.645 146.2 210.63 147.781C211.852 148.755 212.65 150.264 212.265 151.778C211.101 156.359 206.623 157.358 203.597 157.521C202.916 157.558 202.24 157.415 201.609 157.155L192.58 153.44C190.916 153.44 175.939 161.656 179.267 164.943C183.926 169.543 180.376 170.968 179.267 171.515C178.071 171.988 176.216 172.501 172.74 173.476C171.581 173.801 170.54 174.503 169.953 175.555C166.21 182.254 170.651 185.83 174.605 186.868C175.468 187.094 176.372 186.949 177.198 186.614L190.084 181.375C190.838 181.375 191.952 181.132 193.241 180.91C195.339 180.549 197.188 181.889 198.22 183.75C199.72 186.455 200.983 186.885 202.822 186.602C203.752 186.459 204.583 185.955 205.252 185.294L208.188 182.395C209.362 181.236 211.014 180.699 212.645 180.947L220.222 182.098C220.653 182.163 221.077 182.275 221.461 182.48C223.473 183.56 226.466 186.244 225.863 190.412C225.197 195.013 220.593 195.616 218.374 195.342H180.931C174.829 194.794 161.794 196.492 158.465 207.666C155.137 218.839 160.684 226.836 163.458 229.849C165.399 231.766 170.114 234.778 178.435 234.778C187.588 234.778 191.748 238.887 193.412 244.638C195.076 252.032 194.295 254.603 195.127 273.5C195.231 275.874 196 278.5 197.079 275.387C203.653 288.929 211.326 269.5 234.56 257.5L236.258 233.471C236.308 232.752 237.352 232.722 237.445 233.437C237.483 233.734 237.736 233.957 238.036 233.957H242.504C247.889 233.957 263.25 232.163 258.958 224.099C258.185 222.647 257.497 221.09 257.507 219.445Z" fill="#73D16C"/>
<path d="M257.507 219.445C257.547 212.305 257.741 218.699 257.058 211.535C257.015 211.086 256.916 210.638 256.761 210.214L248.328 187.126L237.512 166.586L205.061 136.187L204.094 138.096C203.164 139.933 203.476 142.081 205.073 143.382C206.624 144.644 208.645 146.2 210.63 147.781C211.852 148.755 212.65 150.264 212.265 151.778C211.101 156.359 206.623 157.358 203.597 157.521C202.916 157.558 202.24 157.415 201.609 157.155L192.58 153.44C190.916 153.44 175.939 161.656 179.267 164.943C183.926 169.543 180.376 170.968 179.267 171.515C178.071 171.988 176.216 172.501 172.74 173.476C171.581 173.801 170.54 174.503 169.953 175.555C166.21 182.254 170.651 185.83 174.605 186.868C175.468 187.094 176.372 186.949 177.198 186.614L190.084 181.375C190.838 181.375 191.952 181.132 193.241 180.91C195.339 180.549 197.188 181.889 198.22 183.75C199.72 186.455 200.983 186.885 202.822 186.602C203.752 186.459 204.583 185.955 205.252 185.294L208.188 182.395C209.362 181.236 211.014 180.699 212.645 180.947L220.222 182.098C220.653 182.163 221.077 182.275 221.461 182.48C223.473 183.56 226.466 186.244 225.863 190.412C225.197 195.013 220.593 195.616 218.374 195.342H180.931C174.829 194.794 161.794 196.492 158.465 207.666C155.137 218.839 160.684 226.836 163.458 229.849C165.399 231.766 170.114 234.778 178.435 234.778C187.588 234.778 191.748 238.887 193.412 244.638C195.076 252.032 194.295 254.603 195.127 273.5C195.231 275.874 196 278.5 197.079 275.387C203.653 288.929 211.326 269.5 234.56 257.5L236.258 233.471C236.308 232.752 237.352 232.722 237.445 233.437C237.483 233.734 237.736 233.957 238.036 233.957H242.504C247.889 233.957 263.25 232.163 258.958 224.099C258.185 222.647 257.497 221.09 257.507 219.445Z" stroke="#73D16C" stroke-width="1.74214"/>
</g>
<g filter="url(#filter1_d_0_1)">
<path d="M76.6387 224.558C76.7858 221.417 75.813 217.526 70.8988 217.526L57.5858 216.704C52.8708 216.43 48.4331 211.774 48.4331 206.023C46.7691 198.629 44.2728 191.234 42.6086 187.948L46.769 178.91L50.9293 170.694L55.9217 163.3L60.9141 157.549L63.4103 154.262L66.7386 150.976L70.0668 147.69L73.3951 144.403L76.7234 141.938L81.7157 138.652L85.8761 136.187L86.8682 135.795C88.7939 135.035 91.1254 135.329 92.5996 136.783C93.3114 137.485 94.1357 138.371 95.0287 139.474C97.8942 143.01 96.8536 146.344 95.6238 148.426C95.2596 149.043 94.7107 149.521 94.0945 149.886L91.8789 151.199C91.2135 151.593 90.6323 152.123 90.2473 152.794C88.733 155.432 87.3578 159.59 90.8684 162.478C94.8623 165.765 98.357 164.669 100.021 163.3L112.126 154.16C113.458 153.154 115.051 152.504 116.719 152.567C120.516 152.71 125.653 153.941 128.311 159.192C131.64 165.765 129.144 170.694 124.983 173.981L113.977 179.777C113.018 180.282 112.239 181.073 111.749 182.04L102.472 200.361C101.961 201.37 101.137 202.186 100.123 202.686L91.7005 206.845C90.9172 206.845 89.3964 205.388 85.7495 201.104C85.2835 200.557 84.7102 200.096 84.05 199.812C76.9669 196.76 74.5751 200.799 75.6503 205.884C75.7856 206.524 76.0961 207.111 76.495 207.629L90.1314 225.346C91.1208 226.632 92.6475 227.383 94.2696 227.392C101.507 227.429 112.988 227.624 114.166 228.206C118.16 228.864 118.327 235.601 121.655 237.244C122.844 237.831 125.543 236.554 135.146 235.011C136.113 234.856 137.122 234.972 137.991 235.423C147.221 240.206 146.543 248.93 144.953 252.854L127.479 269.286L124.983 274.216C124.151 276.681 122.703 281.61 121.655 283.254C116.94 290.648 110.786 281.774 110.786 281.774C110.786 281.774 111.54 284.897 109.044 283.254L107.027 283.566C103.859 284.057 98.5727 282.943 95.8921 281.186C93.0301 279.309 89.582 276.824 87.2671 274.216C85.1209 271.798 84.4199 282.849 84.4199 269.286C84.4199 257.202 77.8197 271.186 68.1493 252.37C67.767 251.626 67.5815 250.786 67.5973 249.95C67.6625 246.499 67.7907 236.767 67.3094 230.938C67.0236 227.476 68.6734 228.206 72.1471 228.206C74.4437 228.206 76.5312 226.852 76.6387 224.558Z" fill="#73D16C"/>
<path d="M76.6387 224.558C76.7858 221.417 75.813 217.526 70.8988 217.526L57.5858 216.704C52.8708 216.43 48.4331 211.774 48.4331 206.023C46.7691 198.629 44.2728 191.234 42.6086 187.948L46.769 178.91L50.9293 170.694L55.9217 163.3L60.9141 157.549L63.4103 154.262L66.7386 150.976L70.0668 147.69L73.3951 144.403L76.7234 141.938L81.7157 138.652L85.8761 136.187L86.8682 135.795C88.7939 135.035 91.1254 135.329 92.5996 136.783C93.3114 137.485 94.1357 138.371 95.0287 139.474C97.8942 143.01 96.8536 146.344 95.6238 148.426C95.2596 149.043 94.7107 149.521 94.0945 149.886L91.8789 151.199C91.2135 151.593 90.6323 152.123 90.2473 152.794C88.733 155.432 87.3578 159.59 90.8684 162.478C94.8623 165.765 98.357 164.669 100.021 163.3L112.126 154.16C113.458 153.154 115.051 152.504 116.719 152.567C120.516 152.71 125.653 153.941 128.311 159.192C131.64 165.765 129.144 170.694 124.983 173.981L113.977 179.777C113.018 180.282 112.239 181.073 111.749 182.04L102.472 200.361C101.961 201.37 101.137 202.186 100.123 202.686L91.7005 206.845C90.9172 206.845 89.3964 205.388 85.7495 201.104C85.2835 200.557 84.7102 200.096 84.05 199.812C76.9669 196.76 74.5751 200.799 75.6503 205.884C75.7856 206.524 76.0961 207.111 76.495 207.629L90.1314 225.346C91.1208 226.632 92.6475 227.383 94.2696 227.392C101.507 227.429 112.988 227.624 114.166 228.206C118.16 228.864 118.327 235.601 121.655 237.244C122.844 237.831 125.543 236.554 135.146 235.011C136.113 234.856 137.122 234.972 137.991 235.423C147.221 240.206 146.543 248.93 144.953 252.854L127.479 269.286L124.983 274.216C124.151 276.681 122.703 281.61 121.655 283.254C116.94 290.648 110.786 281.774 110.786 281.774C110.786 281.774 111.54 284.897 109.044 283.254L107.027 283.566C103.859 284.057 98.5727 282.943 95.8921 281.186C93.0301 279.309 89.582 276.824 87.2671 274.216C85.1209 271.798 84.4199 282.849 84.4199 269.286C84.4199 257.202 77.8197 271.186 68.1493 252.37C67.767 251.626 67.5815 250.786 67.5973 249.95C67.6625 246.499 67.7907 236.767 67.3094 230.938C67.0236 227.476 68.6734 228.206 72.1471 228.206C74.4437 228.206 76.5312 226.852 76.6387 224.558Z" stroke="#73D16C" stroke-width="1.74214"/>
</g>
<g filter="url(#filter2_d_0_1)">
<path d="M126.647 210.952H117.494C109.174 210.952 110.006 221.633 115.83 221.633H126.647C134.136 221.633 130.808 210.952 126.647 210.952Z" fill="#73D16C"/>
<path d="M124.145 130.436H146.039C146.423 130.436 146.805 130.482 147.178 130.574L147.499 130.653C149.005 131.025 150.183 132.196 150.564 133.7C150.705 134.256 150.73 134.831 150.641 135.398C149.73 141.158 148.25 151.761 147.682 155.864C147.529 156.963 147.046 158 146.139 158.639C145.203 159.298 143.864 160.013 142.457 160.013C140.792 160.013 138.851 158.918 138.296 157.548L133.304 142.76C132.472 140.295 129.976 140.295 123.319 139.473C119.4 138.989 118.522 133.756 121.095 131.318C121.89 130.565 123.049 130.436 124.145 130.436Z" fill="#73D16C"/>
<path d="M126.647 210.952H117.494C109.174 210.952 110.006 221.633 115.83 221.633H126.647C134.136 221.633 130.808 210.952 126.647 210.952Z" stroke="#73D16C" stroke-width="1.74214"/>
<path d="M124.145 130.436H146.039C146.423 130.436 146.805 130.482 147.178 130.574L147.499 130.653C149.005 131.025 150.183 132.196 150.564 133.7C150.705 134.256 150.73 134.831 150.641 135.398C149.73 141.158 148.25 151.761 147.682 155.864C147.529 156.963 147.046 158 146.139 158.639C145.203 159.298 143.864 160.013 142.457 160.013C140.792 160.013 138.851 158.918 138.296 157.548L133.304 142.76C132.472 140.295 129.976 140.295 123.319 139.473C119.4 138.989 118.522 133.756 121.095 131.318C121.89 130.565 123.049 130.436 124.145 130.436Z" stroke="#73D16C" stroke-width="1.74214"/>
</g>
<path fill-rule="evenodd" clip-rule="evenodd" d="M50.8566 116.096L50.8566 116.116C46.0896 116.43 42.3202 120.396 42.3202 125.242C42.3202 126.766 42.6925 128.202 43.3511 129.465C41.9585 130.893 41.1005 132.846 41.1005 134.998C41.1005 139.376 44.6494 142.925 49.0272 142.925C53.1933 142.925 56.6088 139.711 56.9294 135.627C57.4074 135.272 57.8315 134.848 58.1874 134.371C59.4166 135.154 60.8762 135.608 62.4418 135.608C63.0241 135.608 63.5918 135.545 64.1385 135.426C64.5345 135.996 65.0251 136.495 65.5877 136.9C66.2104 141.001 69.7517 144.144 74.027 144.144C78.7416 144.144 82.5635 140.322 82.5635 135.608C82.5635 131.931 80.2387 128.797 76.9788 127.595C78.1828 126.124 78.9051 124.243 78.9051 122.194C78.9051 117.479 75.0832 113.657 70.3686 113.657C70.2342 113.657 70.1005 113.66 69.9676 113.666C68.7717 110.135 65.0359 107.56 60.6125 107.56C55.2245 107.56 50.8566 111.381 50.8566 116.096Z" fill="url(#paint0_linear_0_1)"/>
<path d="M64.6191 128.465H65.4902L64.6191 135.434V140.66L66.3613 138.918L69.8455 136.305H71.5877C71.5877 136.305 70.9794 136.938 69.8455 138.047C68.7117 139.156 68.1034 140.66 68.1034 140.66C68.1034 140.66 68.9745 140.66 70.7166 141.531L72.4587 142.402H66.3613C66.3613 142.402 65.4902 142.402 64.6191 144.145C63.748 145.887 63.748 145.887 63.748 147.629C63.748 149.371 64.0491 159.824 64.0491 159.824H58.8227C58.8227 159.824 61.1348 151.984 60.2638 148.5C59.3927 145.016 55.9084 143.274 55.9084 143.274L50.682 138.918L51.5531 138.047L55.9084 140.66L53.2952 133.692H54.1663L58.5216 142.402L61.1348 144.145C61.1348 144.145 58.5216 138.047 57.6506 136.305C56.7795 134.563 53.2952 131.95 53.2952 131.95L54.1663 130.207L58.5216 133.692L59.3927 130.207H60.2638L59.3927 135.434L62.0059 138.918L64.6191 128.465Z" fill="#3A1F0A"/>
<path fill-rule="evenodd" clip-rule="evenodd" d="M113.026 76.2009L113.026 76.2258C118.863 76.6101 123.479 81.4664 123.479 87.4008C123.479 89.2659 123.023 91.0245 122.216 92.5713C123.922 94.3203 124.972 96.7107 124.972 99.3464C124.972 104.707 120.626 109.053 115.266 109.053C110.165 109.053 105.982 105.117 105.59 100.117C105.005 99.6816 104.485 99.1629 104.049 98.5783C102.544 99.5374 100.757 100.093 98.8401 100.093C98.1268 100.093 97.4315 100.016 96.762 99.8702C96.2772 100.568 95.6766 101.178 94.988 101.675C94.2257 106.697 89.8893 110.546 84.654 110.546C78.8811 110.546 74.2012 105.866 74.2012 100.093C74.2012 95.5906 77.0478 91.7531 81.0395 90.282C79.5653 88.4802 78.6809 86.1771 78.6809 83.6675C78.6809 77.8946 83.3608 73.2147 89.1337 73.2147C89.2983 73.2147 89.462 73.2185 89.6247 73.226C91.089 68.9023 95.6635 65.748 101.08 65.748C107.678 65.748 113.026 70.4279 113.026 76.2009Z" fill="url(#paint1_linear_0_1)"/>
<path d="M97.3466 94.1206H96.6L97.3466 100.094V104.573L95.8534 103.08L92.8668 100.84H91.3736C91.3736 100.84 91.895 101.383 92.8668 102.334C93.8387 103.284 94.3601 104.573 94.3601 104.573C94.3601 104.573 93.6135 104.573 92.1202 105.32L90.627 106.067H95.8534C95.8534 106.067 96.6 106.067 97.3466 107.56C98.0933 109.053 98.0933 109.053 98.0933 110.546C98.0933 112.04 97.4429 135.434 97.4429 135.434H101.923C101.923 135.434 100.333 114.28 101.08 111.293C101.826 108.307 104.813 106.813 104.813 106.813L109.293 103.08L108.546 102.334L104.813 104.573L107.053 98.6004H106.306L102.573 106.067L100.333 107.56C100.333 107.56 102.573 102.334 103.32 100.84C104.066 99.347 107.053 97.1071 107.053 97.1071L106.306 95.6139L102.573 98.6004L101.826 95.6139H101.08L101.826 100.094L99.5865 103.08L97.3466 94.1206Z" fill="#72491F"/>
<path fill-rule="evenodd" clip-rule="evenodd" d="M211.598 107.792L211.598 107.813C206.604 108.142 202.655 112.297 202.655 117.374C202.655 118.97 203.045 120.474 203.735 121.798C202.276 123.294 201.377 125.339 201.377 127.594C201.377 132.181 205.095 135.898 209.681 135.898C214.046 135.898 217.624 132.531 217.96 128.253C218.46 127.881 218.905 127.437 219.278 126.937C220.565 127.758 222.094 128.233 223.735 128.233C224.345 128.233 224.94 128.167 225.512 128.042C225.927 128.639 226.441 129.162 227.03 129.586C227.682 133.883 231.392 137.176 235.871 137.176C240.811 137.176 244.814 133.172 244.814 128.233C244.814 124.381 242.379 121.098 238.964 119.839C240.225 118.297 240.982 116.327 240.982 114.18C240.982 109.241 236.978 105.237 232.039 105.237C231.898 105.237 231.758 105.24 231.619 105.246C230.366 101.547 226.452 98.8491 221.818 98.8491C216.174 98.8491 211.598 102.853 211.598 107.792Z" fill="url(#paint2_linear_0_1)"/>
<path d="M224.896 118.013H225.767L224.896 124.981V130.208L226.638 128.466L230.122 125.852H231.865C231.865 125.852 231.256 126.486 230.122 127.594C228.989 128.703 228.38 130.208 228.38 130.208C228.38 130.208 229.251 130.208 230.993 131.079L232.736 131.95H226.638C226.638 131.95 225.767 131.95 224.896 133.692C224.025 135.434 224.025 135.434 224.025 137.176C224.025 138.918 224.466 154.598 224.466 154.598H219.24C219.24 154.598 221.412 141.532 220.541 138.047C219.67 134.563 216.185 132.821 216.185 132.821L210.959 128.466L211.83 127.594L216.185 130.208L213.572 123.239H214.443L218.798 131.95L221.412 133.692C221.412 133.692 218.798 127.594 217.927 125.852C217.056 124.11 213.572 121.497 213.572 121.497L214.443 119.755L218.798 123.239L219.67 119.755H220.541L219.67 124.981L222.283 128.466L224.896 118.013Z" fill="#72491F"/>
<path fill-rule="evenodd" clip-rule="evenodd" d="M206.809 76.4576L206.809 76.4787C211.816 76.8082 215.776 80.9742 215.776 86.0651C215.776 87.6651 215.385 89.1738 214.693 90.5007C216.156 92.0011 217.057 94.0518 217.057 96.3129C217.057 100.911 213.329 104.639 208.731 104.639C204.355 104.639 200.767 101.263 200.43 96.9735C199.928 96.6003 199.482 96.1553 199.108 95.6537C197.817 96.4766 196.284 96.9534 194.639 96.9534C194.028 96.9534 193.431 96.8874 192.857 96.7622C192.441 97.3603 191.926 97.8841 191.335 98.3098C190.681 102.618 186.961 105.92 182.47 105.92C177.518 105.92 173.503 101.906 173.503 96.9534C173.503 93.091 175.945 89.799 179.37 88.537C178.105 86.9913 177.346 85.0157 177.346 82.8628C177.346 77.9105 181.361 73.8959 186.313 73.8959C186.454 73.8959 186.595 73.8992 186.734 73.9056C187.99 70.1965 191.914 67.4907 196.561 67.4907C202.221 67.4907 206.809 71.5053 206.809 76.4576Z" fill="url(#paint3_linear_0_1)"/>
<path d="M193.538 90.1387H192.667L193.538 97.1072V102.334L191.796 100.592L188.311 97.9783H186.569C186.569 97.9783 187.178 98.6118 188.311 99.7204C189.445 100.829 190.054 102.334 190.054 102.334C190.054 102.334 189.183 102.334 187.44 103.205L185.698 104.076H191.796C191.796 104.076 192.667 104.076 193.538 105.818C194.409 107.56 194.409 107.56 194.409 109.302C194.409 111.044 192.703 125.853 192.703 125.853H197.93C197.93 125.853 197.022 113.658 197.893 110.173C198.764 106.689 202.249 104.947 202.249 104.947L207.475 100.592L206.604 99.7204L202.249 102.334L204.862 95.3651H203.991L199.635 104.076L197.022 105.818C197.022 105.818 199.635 99.7204 200.506 97.9783C201.377 96.2362 204.862 93.6229 204.862 93.6229L203.991 91.8808L199.635 95.3651L198.764 91.8808H197.893L198.764 97.1072L196.151 100.592L193.538 90.1387Z" fill="#9B692E"/>
<path fill-rule="evenodd" clip-rule="evenodd" d="M98.9396 103.901L98.9396 103.921C103.707 104.235 107.476 108.201 107.476 113.048C107.476 114.571 107.104 116.007 106.445 117.27C107.838 118.699 108.696 120.651 108.696 122.803C108.696 127.181 105.147 130.73 100.769 130.73C96.6028 130.73 93.1874 127.516 92.8668 123.432C92.3888 123.077 91.9646 122.653 91.6087 122.176C90.3795 122.959 88.92 123.413 87.3544 123.413C86.7719 123.413 86.204 123.35 85.6573 123.231C85.2614 123.801 84.7709 124.299 84.2085 124.705C83.586 128.806 80.0446 131.949 75.7691 131.949C71.0546 131.949 67.2327 128.128 67.2327 123.413C67.2327 119.736 69.5574 116.602 72.8173 115.401C71.6134 113.929 70.8911 112.048 70.8911 109.999C70.8911 105.284 74.713 101.462 79.4275 101.462C79.5619 101.462 79.6956 101.465 79.8285 101.471C81.0245 97.9406 84.7603 95.3647 89.1836 95.3647C94.5717 95.3647 98.9396 99.1867 98.9396 103.901Z" fill="url(#paint4_linear_0_1)"/>
<path d="M85.5252 112.786H84.6541L85.5252 119.755V124.981L83.783 123.239L80.2988 120.626H78.5566C78.5566 120.626 79.1649 121.259 80.2988 122.368C81.4326 123.477 82.0409 124.981 82.0409 124.981C82.0409 124.981 81.1698 124.981 79.4277 125.852L77.6855 126.723H83.783C83.783 126.723 84.6541 126.723 85.5252 128.465C86.3962 130.208 86.3962 130.208 86.3962 131.95C86.3962 133.692 85.5252 149.371 85.5252 149.371H90.7516C90.7516 149.371 89.0094 136.305 89.8805 132.821C90.7516 129.336 94.2359 127.594 94.2359 127.594L99.4623 123.239L98.5912 122.368L94.2359 124.981L96.8491 118.013H95.978L91.6227 126.723L89.0094 128.465C89.0094 128.465 91.6227 122.368 92.4937 120.626C93.3648 118.884 96.8491 116.27 96.8491 116.27L95.978 114.528L91.6227 118.013L90.7516 114.528H89.8805L90.7516 119.755L88.1384 123.239L85.5252 112.786Z" fill="#BE9A7D"/>
<path fill-rule="evenodd" clip-rule="evenodd" d="M163.05 51.8117L163.05 51.8402C169.861 52.2884 175.246 57.9542 175.246 64.8777C175.246 67.0538 174.714 69.1056 173.773 70.9102C175.762 72.9508 176.988 75.7395 176.988 78.8145C176.988 85.0685 171.918 90.1384 165.664 90.1384C159.712 90.1384 154.833 85.5469 154.375 79.7129C153.692 79.2054 153.086 78.6002 152.578 77.9182C150.822 79.0372 148.737 79.6856 146.5 79.6856C145.668 79.6856 144.857 79.5958 144.075 79.4254C143.51 80.2387 142.809 80.9511 142.006 81.53C141.117 87.3899 136.058 91.8805 129.95 91.8805C123.215 91.8805 117.755 86.4206 117.755 79.6855C117.755 74.4327 121.076 69.9555 125.733 68.2393C124.013 66.1371 122.981 63.4502 122.981 60.5222C122.981 53.7871 128.441 48.3273 135.176 48.3273C135.368 48.3273 135.559 48.3317 135.749 48.3405C137.458 43.2964 142.794 39.6167 149.113 39.6167C156.811 39.6167 163.05 45.0766 163.05 51.8117Z" fill="url(#paint5_linear_0_1)"/>
<path d="M144.758 72.7173H143.887L144.758 79.6858V84.9123L143.016 83.1701L139.532 80.5569H137.79C137.79 80.5569 138.398 81.1904 139.532 82.299C140.666 83.4077 141.274 84.9123 141.274 84.9123C141.274 84.9123 140.403 84.9123 138.661 85.7833L136.918 86.6544H143.016C143.016 86.6544 143.887 86.6544 144.758 88.3965C145.629 90.1387 145.629 90.1387 145.629 91.8808C145.629 93.6229 144.758 124.981 144.758 124.981H149.984C149.984 124.981 148.242 96.2362 149.113 92.7519C149.984 89.2676 153.469 87.5255 153.469 87.5255L158.695 83.1701L157.824 82.299L153.469 84.9123L156.082 77.9437H155.211L150.856 86.6544L148.242 88.3965C148.242 88.3965 150.856 82.299 151.727 80.5569C152.598 78.8148 156.082 76.2016 156.082 76.2016L155.211 74.4594L150.856 77.9437L149.984 74.4594H149.113L149.984 79.6858L147.371 83.1701L144.758 72.7173Z" fill="#3A1F0A"/>
<path fill-rule="evenodd" clip-rule="evenodd" d="M110.554 92.1129L110.554 92.1342C105.56 92.463 101.611 96.6178 101.611 101.695C101.611 103.291 102.001 104.795 102.691 106.119C101.232 107.615 100.333 109.66 100.333 111.915C100.333 116.501 104.051 120.219 108.637 120.219C113.002 120.219 116.58 116.852 116.916 112.573C117.416 112.201 117.861 111.758 118.233 111.258C119.521 112.078 121.05 112.554 122.691 112.554C123.301 112.554 123.896 112.488 124.469 112.363C124.883 112.96 125.397 113.482 125.986 113.907C126.638 118.204 130.348 121.497 134.828 121.497C139.767 121.497 143.771 117.493 143.771 112.554C143.771 108.702 141.335 105.418 137.92 104.16C139.181 102.618 139.938 100.648 139.938 98.5005C139.938 93.5614 135.934 89.5575 130.995 89.5575C130.854 89.5575 130.714 89.5608 130.575 89.5672C129.322 85.8683 125.408 83.1699 120.774 83.1699C115.13 83.1699 110.554 87.1738 110.554 92.1129Z" fill="url(#paint6_linear_0_1)"/>
<path d="M123.852 102.333H124.723L123.852 109.302V114.528L125.594 112.786L129.078 110.173H130.82C130.82 110.173 130.212 110.806 129.078 111.915C127.944 113.023 127.336 114.528 127.336 114.528C127.336 114.528 128.207 114.528 129.949 115.399L131.691 116.27H125.594C125.594 116.27 124.723 116.27 123.852 118.012C122.981 119.754 122.981 119.754 122.981 121.497C122.981 123.239 123.422 138.918 123.422 138.918H118.196C118.196 138.918 120.368 125.852 119.496 122.368C118.625 118.883 115.141 117.141 115.141 117.141L109.915 112.786L110.786 111.915L115.141 114.528L112.528 107.559H113.399L117.754 116.27L120.368 118.012C120.368 118.012 117.754 111.915 116.883 110.173C116.012 108.43 112.528 105.817 112.528 105.817L113.399 104.075L117.754 107.559L118.625 104.075H119.496L118.625 109.302L121.239 112.786L123.852 102.333Z" fill="#72491F"/>
<path fill-rule="evenodd" clip-rule="evenodd" d="M161.076 93.8551L161.076 93.8759C156.082 94.2045 152.133 98.3594 152.133 103.437C152.133 105.033 152.523 106.537 153.213 107.861C151.754 109.357 150.855 111.402 150.855 113.657C150.855 118.244 154.573 121.961 159.159 121.961C163.524 121.961 167.102 118.594 167.438 114.316C167.939 113.944 168.383 113.5 168.756 113C170.043 113.821 171.573 114.296 173.213 114.296C173.823 114.296 174.418 114.23 174.99 114.106C175.405 114.702 175.919 115.225 176.508 115.649C177.161 119.946 180.871 123.239 185.35 123.239C190.289 123.239 194.293 119.235 194.293 114.296C194.293 110.444 191.857 107.16 188.442 105.902C189.703 104.36 190.46 102.39 190.46 100.243C190.46 95.3036 186.456 91.2997 181.517 91.2997C181.376 91.2997 181.236 91.303 181.097 91.3094C179.844 87.6105 175.93 84.9121 171.296 84.9121C165.652 84.9121 161.076 88.916 161.076 93.8551Z" fill="url(#paint7_linear_0_1)"/>
<path d="M174.374 104.075H175.245L174.374 111.044V116.27L176.116 114.528L179.6 111.915H181.343C181.343 111.915 180.734 112.548 179.6 113.657C178.467 114.766 177.858 116.27 177.858 116.27C177.858 116.27 178.729 116.27 180.471 117.141L182.214 118.012H176.116C176.116 118.012 175.245 118.012 174.374 119.754C173.503 121.497 173.503 121.497 173.503 123.239C173.503 124.981 173.944 140.66 173.944 140.66H168.718C168.718 140.66 170.89 127.594 170.019 124.11C169.148 120.626 165.663 118.883 165.663 118.883L160.437 114.528L161.308 113.657L165.663 116.27L163.05 109.302H163.921L168.277 118.012L170.89 119.754C170.89 119.754 168.277 113.657 167.405 111.915C166.534 110.173 163.05 107.559 163.05 107.559L163.921 105.817L168.277 109.302L169.148 105.817H170.019L169.148 111.044L171.761 114.528L174.374 104.075Z" fill="#72491F"/>
<path fill-rule="evenodd" clip-rule="evenodd" d="M186.743 107.386L186.743 107.406C181.976 107.72 178.207 111.686 178.207 116.532C178.207 118.055 178.579 119.491 179.238 120.755C177.845 122.183 176.987 124.135 176.987 126.288C176.987 130.665 180.536 134.214 184.914 134.214C189.08 134.214 192.495 131 192.816 126.917C193.294 126.561 193.718 126.138 194.074 125.66C195.303 126.444 196.763 126.898 198.328 126.898C198.911 126.898 199.479 126.835 200.025 126.715C200.421 127.285 200.912 127.784 201.474 128.189C202.097 132.291 205.638 135.434 209.914 135.434C214.628 135.434 218.45 131.612 218.45 126.897C218.45 123.22 216.125 120.086 212.866 118.885C214.069 117.414 214.792 115.533 214.792 113.483C214.792 108.769 210.97 104.947 206.255 104.947C206.121 104.947 205.987 104.95 205.854 104.956C204.658 101.425 200.923 98.8491 196.499 98.8491C191.111 98.8491 186.743 102.671 186.743 107.386Z" fill="url(#paint8_linear_0_1)"/>
<path d="M200.506 119.755H201.377L200.506 126.723V131.95L202.248 130.208L205.732 127.595H207.475C207.475 127.595 206.866 128.228 205.732 129.337C204.599 130.445 203.99 131.95 203.99 131.95C203.99 131.95 204.861 131.95 206.604 132.821L208.346 133.692H202.248C202.248 133.692 201.377 133.692 200.506 135.434C199.635 137.176 199.635 137.176 199.635 138.918C199.635 140.661 199.936 151.113 199.936 151.113H194.71C194.71 151.113 197.022 143.274 196.151 139.789C195.28 136.305 191.795 134.563 191.795 134.563L186.569 130.208L187.44 129.337L191.795 131.95L189.182 124.981H190.053L194.409 133.692L197.022 135.434C197.022 135.434 194.409 129.337 193.538 127.595C192.666 125.852 189.182 123.239 189.182 123.239L190.053 121.497L194.409 124.981L195.28 121.497H196.151L195.28 126.723L197.893 130.208L200.506 119.755Z" fill="#3A1F0A"/>
<circle cx="147.5" cy="147" r="142" stroke="#33719F" stroke-width="10"/>
<defs>
<filter id="filter0_d_0_1" x="156.561" y="134.757" width="104.015" height="147.855" filterUnits="userSpaceOnUse" color-interpolation-filters="sRGB">
<feFlood flood-opacity="0" result="BackgroundImageFix"/>
<feColorMatrix in="SourceAlpha" type="matrix" values="0 0 0 0 0 0 0 0 0 0 0 0 0 0 0 0 0 0 127 0" result="hardAlpha"/>
<feOffset dy="1.74214"/>
<feComposite in2="hardAlpha" operator="out"/>
<feColorMatrix type="matrix" values="0 0 0 0 0 0 0 0 0 0 0 0 0 0 0 0 0 0 0.25 0"/>
<feBlend mode="normal" in2="BackgroundImageFix" result="effect1_dropShadow_0_1"/>
<feBlend mode="normal" in="SourceGraphic" in2="effect1_dropShadow_0_1" result="shape"/>
</filter>
<filter id="filter1_d_0_1" x="41.6414" y="134.519" width="106.877" height="154.29" filterUnits="userSpaceOnUse" color-interpolation-filters="sRGB">
<feFlood flood-opacity="0" result="BackgroundImageFix"/>
<feColorMatrix in="SourceAlpha" type="matrix" values="0 0 0 0 0 0 0 0 0 0 0 0 0 0 0 0 0 0 127 0" result="hardAlpha"/>
<feOffset dx="1.74214" dy="1.74214"/>
<feComposite in2="hardAlpha" operator="out"/>
<feColorMatrix type="matrix" values="0 0 0 0 0.422049 0 0 0 0 0.673537 0 0 0 0 0.920833 0 0 0 1 0"/>
<feBlend mode="normal" in2="BackgroundImageFix" result="effect1_dropShadow_0_1"/>
<feBlend mode="normal" in="SourceGraphic" in2="effect1_dropShadow_0_1" result="shape"/>
</filter>
<filter id="filter2_d_0_1" x="110.482" y="129.564" width="44.5658" height="94.6821" filterUnits="userSpaceOnUse" color-interpolation-filters="sRGB">
<feFlood flood-opacity="0" result="BackgroundImageFix"/>
<feColorMatrix in="SourceAlpha" type="matrix" values="0 0 0 0 0 0 0 0 0 0 0 0 0 0 0 0 0 0 127 0" result="hardAlpha"/>
<feOffset dx="3.48428" dy="1.74214"/>
<feComposite in2="hardAlpha" operator="out"/>
<feColorMatrix type="matrix" values="0 0 0 0 0 0 0 0 0 0 0 0 0 0 0 0 0 0 0.25 0"/>
<feBlend mode="normal" in2="BackgroundImageFix" result="effect1_dropShadow_0_1"/>
<feBlend mode="normal" in="SourceGraphic" in2="effect1_dropShadow_0_1" result="shape"/>
</filter>
<linearGradient id="paint0_linear_0_1" x1="77.6855" y1="113.657" x2="45.3688" y2="139.876" gradientUnits="userSpaceOnUse">
<stop stop-color="#55A145"/>
<stop offset="1" stop-color="#106A35"/>
</linearGradient>
<linearGradient id="paint1_linear_0_1" x1="80.1742" y1="73.2144" x2="119.746" y2="105.319" gradientUnits="userSpaceOnUse">
<stop stop-color="#9ACA3B"/>
<stop offset="1" stop-color="#7AA721"/>
</linearGradient>
<linearGradient id="paint2_linear_0_1" x1="239.704" y1="105.237" x2="205.849" y2="132.705" gradientUnits="userSpaceOnUse">
<stop stop-color="#9ACA3B"/>
<stop offset="1" stop-color="#1C7D3E"/>
</linearGradient>
<linearGradient id="paint3_linear_0_1" x1="178.627" y1="73.8956" x2="212.574" y2="101.437" gradientUnits="userSpaceOnUse">
<stop stop-color="#CEDB2B"/>
<stop offset="1" stop-color="#AED138"/>
</linearGradient>
<linearGradient id="paint4_linear_0_1" x1="72.1107" y1="101.462" x2="104.427" y2="127.681" gradientUnits="userSpaceOnUse">
<stop stop-color="#CEDB2B"/>
<stop offset="1" stop-color="#AED138"/>
</linearGradient>
<linearGradient id="paint5_linear_0_1" x1="124.723" y1="48.3273" x2="170.89" y2="85.7834" gradientUnits="userSpaceOnUse">
<stop stop-color="#55A145"/>
<stop offset="1" stop-color="#106A35"/>
</linearGradient>
<linearGradient id="paint6_linear_0_1" x1="138.66" y1="89.5578" x2="104.805" y2="117.025" gradientUnits="userSpaceOnUse">
<stop stop-color="#9ACA3B"/>
<stop offset="1" stop-color="#1C7D3E"/>
</linearGradient>
<linearGradient id="paint7_linear_0_1" x1="189.182" y1="91.3" x2="155.327" y2="118.768" gradientUnits="userSpaceOnUse">
<stop stop-color="#9ACA3B"/>
<stop offset="1" stop-color="#1C7D3E"/>
</linearGradient>
<linearGradient id="paint8_linear_0_1" x1="213.572" y1="104.947" x2="181.256" y2="131.166" gradientUnits="userSpaceOnUse">
<stop stop-color="#55A145"/>
<stop offset="1" stop-color="#106A35"/>
</linearGradient>
</defs>
</svg>
