<svg width="403" height="140" viewBox="0 0 403 140" fill="none" xmlns="http://www.w3.org/2000/svg">
<path d="M403 19.0946C403 19.0946 232.96 -18.1439 174.5 19.0944C116.04 56.3327 0 33.9031 0 33.9031V131.903C0 131.903 73.261 154.027 151 104.96C228.739 55.8932 381.233 104.96 381.233 104.96C381.233 104.96 369.417 70.7901 322.151 59.8377C274.886 48.8852 278.617 44.065 278.617 44.065C278.617 44.065 282.971 30.0468 312.201 23.9136C341.431 17.7803 403 19.0946 403 19.0946Z" fill="#F3F1E5"/>
<path d="M36.6553 98.0296C35.2794 98.3285 34.1347 98.1842 33.2211 97.5968C32.3008 96.9781 31.6912 95.9808 31.3922 94.6049L26.5926 72.5122L19.2284 74.1121C18.0714 74.3635 17.1156 74.26 16.3611 73.8017C15.6311 73.3054 15.1438 72.4944 14.8992 71.3686C14.6479 70.2116 14.7547 69.2715 15.2198 68.5483C15.7161 67.8183 16.5428 67.3276 17.6998 67.0762L41.0589 62.0014C42.2159 61.7501 43.156 61.8569 43.8793 62.322C44.6337 62.7803 45.1367 63.5879 45.388 64.7449C45.6326 65.8706 45.5101 66.8142 45.0206 67.5754C44.5555 68.2987 43.7445 68.7859 42.5875 69.0373L35.2233 70.6372L40.0229 92.7298C40.3218 94.1057 40.1966 95.2627 39.6472 96.2007C39.091 97.1075 38.0937 97.7171 36.6553 98.0296ZM58.5081 93.3803C56.7257 93.7675 55.0752 93.7822 53.5566 93.4245C52.0693 93.0599 50.8125 92.3997 49.7862 91.4438C48.7843 90.4498 48.1238 89.218 47.8045 87.7483C47.4376 86.0597 47.5867 84.6355 48.2516 83.4759C48.9166 82.3163 50.1743 81.3227 52.0248 80.495C53.8685 79.636 56.4007 78.8566 59.6216 78.1569L62.2014 77.5964L63.0574 81.5365L60.4776 82.0969C59.258 82.3619 58.2621 82.6765 57.4898 83.0408C56.742 83.367 56.2213 83.7584 55.9276 84.2152C55.627 84.6407 55.5379 85.1349 55.6602 85.6978C55.8165 86.417 56.1957 86.9568 56.7979 87.3171C57.4314 87.6707 58.2329 87.7422 59.2023 87.5316C59.984 87.3617 60.6346 87.0403 61.154 86.5672C61.7047 86.0874 62.1031 85.5096 62.3493 84.834C62.5887 84.127 62.6201 83.3671 62.4434 82.554L61.2613 77.1129C61.0168 75.9872 60.5465 75.2543 59.8504 74.9144C59.1857 74.5676 58.1497 74.5471 56.7425 74.8528C55.992 75.0158 55.1681 75.2931 54.2707 75.6845C53.3666 76.0446 52.3836 76.5693 51.3217 77.2584C50.5453 77.7546 49.8363 77.9577 49.1946 77.8679C48.5529 77.7781 48.0023 77.5048 47.5428 77.0479C47.1146 76.5842 46.8326 76.0397 46.6967 75.4143C46.5921 74.7821 46.6663 74.1438 46.9193 73.4994C47.2035 72.8482 47.7182 72.2779 48.4633 71.7886C49.842 70.8996 51.1363 70.2255 52.3464 69.7661C53.5877 69.2999 54.74 68.9514 55.8032 68.7204C58.3674 68.1633 60.5597 68.08 62.3801 68.4704C64.2249 68.8228 65.7203 69.6768 66.8662 71.0324C68.0366 72.35 68.88 74.197 69.3963 76.5736L71.4547 86.0486C71.7537 87.4245 71.6529 88.5434 71.1525 89.4053C70.652 90.2672 69.7764 90.834 68.5256 91.1057C67.2435 91.3843 66.1804 91.2386 65.3361 90.6689C64.5232 90.0923 63.9673 89.1161 63.6684 87.7402L63.4034 86.5206L63.8275 87.1162C63.8886 88.1508 63.7158 89.0889 63.3092 89.9304C62.9025 90.7719 62.29 91.4944 61.4714 92.0979C60.6529 92.7015 59.6651 93.1289 58.5081 93.3803ZM81.2539 88.3405C79.9406 88.6258 78.8461 88.487 77.9707 87.924C77.0952 87.361 76.508 86.3916 76.2091 85.0157L72.8361 69.4899C72.5439 68.1452 72.6637 67.0386 73.1954 66.1699C73.7584 65.2944 74.6966 64.714 76.0099 64.4287C77.3233 64.1434 78.4021 64.2856 79.2463 64.8553C80.0905 65.4251 80.6587 66.3823 80.9508 67.7269L81.4297 69.9315L80.496 68.1205C80.9272 66.4877 81.7458 65.131 82.9519 64.0503C84.1892 62.9628 85.6991 62.2255 87.4815 61.8382C89.3264 61.4374 90.9212 61.4675 92.2657 61.9286C93.6035 62.3584 94.7325 63.2593 95.6527 64.6312C96.5661 65.9718 97.2674 67.7679 97.7566 70.0193L99.8965 79.8696C100.195 81.2455 100.063 82.3712 99.5004 83.2466C98.9375 84.1221 97.9837 84.7059 96.639 84.998C95.2944 85.2902 94.1844 85.1547 93.3089 84.5918C92.4334 84.0288 91.8462 83.0594 91.5473 81.6835L89.4786 72.1616C89.1729 70.7544 88.7054 69.8081 88.076 69.3226C87.4778 68.8304 86.7097 68.6862 85.7716 68.89C84.5208 69.1617 83.6084 69.7857 83.0346 70.7617C82.4539 71.7065 82.3096 72.8513 82.6018 74.1959L84.5583 83.2018C85.1697 86.0162 84.0683 87.7291 81.2539 88.3405ZM118.872 89.1077C117.152 89.4814 115.514 89.7062 113.959 89.7821C112.41 89.8893 111.041 89.8429 109.852 89.6429C108.877 89.5272 108.137 89.213 107.633 88.7004C107.129 88.1878 106.821 87.5998 106.709 86.9363C106.598 86.2728 106.641 85.6413 106.838 85.0418C107.067 84.4354 107.435 83.946 107.944 83.5736C108.459 83.2324 109.088 83.1122 109.83 83.2129C111.328 83.4768 112.657 83.5647 113.817 83.4765C114.983 83.4195 115.958 83.3062 116.739 83.1363C118.647 82.7219 119.981 82.0063 120.743 80.9894C121.542 79.9971 121.759 78.6566 121.392 76.968L120.75 74.0129L121.125 73.9314C120.941 75.3467 120.222 76.6327 118.967 77.7895C117.705 78.915 116.23 79.6612 114.541 80.0281C112.478 80.4765 110.578 80.398 108.842 79.7928C107.099 79.1563 105.603 78.0732 104.353 76.5436C103.135 75.0071 102.275 73.0819 101.772 70.7678C101.392 69.0167 101.299 67.3832 101.494 65.8673C101.688 64.3514 102.115 62.9981 102.773 61.8072C103.462 60.6095 104.375 59.609 105.51 58.8057C106.67 57.9643 108.016 57.3771 109.548 57.0442C111.299 56.6638 112.951 56.7306 114.504 57.2447C116.087 57.7521 117.257 58.6115 118.011 59.8229L117.96 61.848L117.511 59.7841C117.219 58.4395 117.355 57.3294 117.918 56.4539C118.512 55.5717 119.466 54.9879 120.779 54.7025C122.092 54.4172 123.171 54.5594 124.015 55.1292C124.891 55.6922 125.475 56.646 125.767 57.9906L129.293 74.22C130.162 78.2227 129.689 81.4692 127.872 83.9596C126.062 86.4814 123.062 88.1974 118.872 89.1077ZM115.786 73.323C116.724 73.1191 117.478 72.7427 118.046 72.1935C118.608 71.613 118.991 70.8911 119.196 70.0279C119.395 69.1333 119.372 68.1232 119.128 66.9974C118.761 65.3088 118.069 64.0838 117.052 63.3223C116.035 62.5608 114.839 62.3295 113.463 62.6284C112.587 62.8186 111.853 63.2074 111.26 63.7946C110.661 64.3506 110.261 65.0759 110.063 65.9704C109.889 66.8269 109.924 67.818 110.169 68.9438C110.535 70.6324 111.227 71.8574 112.244 72.6189C113.261 73.3804 114.442 73.6151 115.786 73.323ZM147.525 74.0412C144.711 74.6526 142.166 74.6978 139.892 74.1768C137.642 73.6177 135.773 72.5502 134.284 70.9743C132.796 69.3984 131.783 67.3753 131.246 64.9049C130.73 62.5283 130.794 60.3367 131.439 58.3301C132.108 56.2855 133.241 54.5658 134.837 53.1711C136.458 51.7383 138.441 50.7672 140.786 50.2577C142.506 49.884 144.131 49.8258 145.66 50.083C147.183 50.3088 148.56 50.8447 149.792 51.6905C151.017 52.505 152.039 53.5928 152.858 54.9538C153.709 56.3081 154.332 57.892 154.726 59.7057C154.862 60.3311 154.792 60.8375 154.516 61.225C154.233 61.5811 153.716 61.8407 152.966 62.0038L138.612 65.122L137.756 61.182L148.17 58.9197L147.552 59.6925C147.3 58.5355 146.94 57.6314 146.471 56.9801C146.002 56.3288 145.414 55.8834 144.707 55.6441C144.032 55.3979 143.24 55.3733 142.333 55.5703C141.364 55.7809 140.571 56.1989 139.953 56.8242C139.361 57.4115 138.972 58.1836 138.787 59.1407C138.602 60.0978 138.652 61.2331 138.937 62.5464L139.029 62.9686C139.511 65.1888 140.342 66.6783 141.522 67.4371C142.727 68.1578 144.361 68.294 146.425 67.8456C147.113 67.6961 147.877 67.4481 148.719 67.1015C149.585 66.7169 150.391 66.2799 151.136 65.7906C151.881 65.3012 152.574 65.1015 153.216 65.1913C153.851 65.2498 154.379 65.4953 154.8 65.9277C155.246 66.322 155.553 66.8285 155.72 67.4471C155.88 68.0345 155.869 68.6592 155.685 69.3212C155.495 69.9521 155.074 70.5019 154.423 70.9709C153.437 71.709 152.346 72.339 151.149 72.8609C149.984 73.376 148.776 73.7695 147.525 74.0412ZM165.22 70.0986C163.845 70.3975 162.703 70.2689 161.797 69.7127C160.921 69.1498 160.334 68.1803 160.035 66.8044L156.662 51.2786C156.37 49.9339 156.49 48.8273 157.021 47.9586C157.584 47.0831 158.522 46.5027 159.836 46.2174C161.149 45.9321 162.228 46.0743 163.072 46.6441C163.916 47.2138 164.485 48.171 164.777 49.5156L165.194 51.4388L164.725 51.5407C164.63 49.5965 165.105 47.9379 166.149 46.5649C167.225 45.1851 168.725 44.2534 170.651 43.7696C171.551 43.5413 172.274 43.6298 172.82 44.035C173.391 44.4022 173.835 45.239 174.152 46.5456C174.396 47.6713 174.355 48.6135 174.029 49.3721C173.703 50.1307 172.896 50.7152 171.61 51.1256L170.552 51.4538C168.928 51.9702 167.826 52.7008 167.246 53.6456C166.658 54.5592 166.528 55.7664 166.854 57.2674L168.525 64.96C168.824 66.3359 168.692 67.4616 168.129 68.337C167.566 69.2125 166.596 69.7997 165.22 70.0986ZM185.418 65.7107C184.104 65.996 183.003 65.8259 182.114 65.2004C181.225 64.5749 180.621 63.5273 180.302 62.0576L177.082 47.2354C176.762 45.7656 176.877 44.5618 177.427 43.6238C177.976 42.6857 178.907 42.0741 180.221 41.7887C181.565 41.4966 182.682 41.6633 183.571 42.2888C184.492 42.9075 185.111 43.9518 185.431 45.4215L188.651 60.2437C188.97 61.7134 188.855 62.9173 188.306 63.8553C187.756 64.7933 186.794 65.4118 185.418 65.7107ZM179.497 38.4584C178.028 38.7777 176.811 38.6817 175.849 38.1704C174.918 37.6523 174.309 36.7365 174.024 35.4232C173.746 34.1411 173.922 33.0711 174.555 32.2133C175.218 31.3488 176.285 30.7568 177.755 30.4375C179.287 30.1046 180.519 30.1973 181.45 30.7154C182.381 31.2335 182.986 32.1336 183.265 33.4157C183.55 34.729 183.376 35.8146 182.744 36.6724C182.112 37.5302 181.03 38.1255 179.497 38.4584ZM198.61 62.8447C197.297 63.13 196.202 62.9912 195.327 62.4282C194.451 61.8652 193.864 60.8958 193.565 59.5199L190.192 43.9941C189.9 42.6494 190.02 41.5428 190.552 40.6741C191.115 39.7986 192.053 39.2182 193.366 38.9329C194.679 38.6476 195.758 38.7898 196.602 39.3595C197.447 39.9293 198.015 40.8865 198.307 42.2311L198.786 44.4357L197.852 42.6247C198.283 40.9919 199.102 39.6352 200.308 38.5545C201.545 37.467 203.055 36.7297 204.838 36.3424C206.683 35.9416 208.277 35.9717 209.622 36.4328C210.96 36.8626 212.089 37.7635 213.009 39.1354C213.922 40.476 214.624 42.2721 215.113 44.5235L217.253 54.3738C217.552 55.7497 217.42 56.8754 216.857 57.7508C216.294 58.6263 215.34 59.2101 213.995 59.5022C212.651 59.7944 211.541 59.6589 210.665 59.096C209.79 58.533 209.202 57.5636 208.903 56.1876L206.835 46.6658C206.529 45.2586 206.062 44.3123 205.432 43.8268C204.834 43.3346 204.066 43.1904 203.128 43.3942C201.877 43.6659 200.965 44.2898 200.391 45.2659C199.81 46.2107 199.666 47.3555 199.958 48.7001L201.915 57.706C202.526 60.5204 201.424 62.2332 198.61 62.8447ZM235.519 54.9243C232.705 55.5357 230.161 55.5809 227.886 55.0599C225.636 54.5009 223.767 53.4334 222.278 51.8574C220.79 50.2815 219.777 48.2584 219.241 45.788C218.724 43.4114 218.789 41.2199 219.433 39.2133C220.102 37.1686 221.235 35.4489 222.831 34.0542C224.452 32.6215 226.435 31.6503 228.781 31.1408C230.5 30.7672 232.125 30.7089 233.655 30.9661C235.177 31.192 236.554 31.7278 237.786 32.5736C239.011 33.3882 240.033 34.4759 240.853 35.837C241.704 37.1912 242.326 38.7751 242.72 40.5888C242.856 41.2142 242.786 41.7207 242.51 42.1081C242.227 42.4643 241.71 42.7239 240.96 42.8869L226.607 46.0052L225.751 42.0651L236.164 39.8028L235.546 40.5756C235.294 39.4186 234.934 38.5145 234.465 37.8632C233.996 37.2119 233.408 36.7666 232.701 36.5272C232.026 36.281 231.235 36.2564 230.328 36.4535C229.358 36.6641 228.565 37.082 227.948 37.7073C227.355 38.2946 226.966 39.0667 226.781 40.0238C226.596 40.9809 226.646 42.1162 226.931 43.4295L227.023 43.8517C227.505 46.0719 228.336 47.5614 229.516 48.3202C230.721 49.0409 232.355 49.1771 234.419 48.7287C235.107 48.5792 235.872 48.3312 236.713 47.9847C237.579 47.6 238.385 47.163 239.13 46.6737C239.875 46.1844 240.569 45.9846 241.21 46.0744C241.845 46.133 242.373 46.3784 242.795 46.8108C243.241 47.2051 243.547 47.7116 243.714 48.3302C243.875 48.9176 243.863 49.5423 243.679 50.2044C243.489 50.8352 243.068 51.3851 242.417 51.854C241.431 52.5921 240.34 53.2221 239.143 53.744C237.978 54.2591 236.77 54.6526 235.519 54.9243Z" fill="#47455C"/>
</svg>
