<svg width="403" height="140" viewBox="0 0 403 140" fill="none" xmlns="http://www.w3.org/2000/svg">
<path d="M403 19.0943C403 19.0943 254.985 -20.3346 196.525 16.9037C138.065 54.142 0 33.9028 0 33.9028V131.903C0 131.903 82.093 160.162 159.832 111.095C237.571 62.0279 381.233 104.96 381.233 104.96C381.233 104.96 369.417 70.7898 322.151 59.8374C274.886 48.8849 278.617 44.0647 278.617 44.0647C278.617 44.0647 282.971 30.0465 312.201 23.9133C341.431 17.78 403 19.0943 403 19.0943Z" fill="#F3F1E5"/>
<path d="M37.4067 104.23C36.0067 104.379 34.884 104.113 34.0388 103.431C33.1903 102.717 32.6912 101.66 32.5418 100.26L30.1417 77.7797L22.6483 78.5797C21.471 78.7054 20.5318 78.4999 19.8309 77.9633C19.1584 77.3915 18.761 76.5328 18.6387 75.3873C18.513 74.21 18.7202 73.2868 19.2602 72.6177C19.832 71.9452 20.7066 71.5461 21.8839 71.4204L45.6528 68.8827C46.8301 68.757 47.7534 68.9642 48.4225 69.5042C49.1234 70.0408 49.5367 70.8978 49.6624 72.0751C49.7847 73.2206 49.5616 74.1455 48.9932 74.8499C48.4532 75.519 47.5945 75.9164 46.4172 76.0421L38.9238 76.8421L41.3238 99.3223C41.4733 100.722 41.2246 101.859 40.5777 102.733C39.9274 103.575 38.8704 104.074 37.4067 104.23ZM61.9065 101.614C60.5701 101.757 59.4935 101.47 58.6767 100.752C57.8599 100.035 57.3717 98.9284 57.2121 97.4329L55.6018 82.3507C55.4421 80.8552 55.6858 79.6706 56.3327 78.797C56.9796 77.9234 57.9713 77.4152 59.3077 77.2726C60.6759 77.1265 61.7684 77.4121 62.5851 78.1295C63.4337 78.8434 63.9379 79.9481 64.0975 81.4436L65.7078 96.5259C65.8674 98.0214 65.6238 99.206 64.9769 100.08C64.33 100.953 63.3065 101.465 61.9065 101.614ZM58.9459 73.8838C57.4504 74.0435 56.2516 73.8175 55.3496 73.2058C54.4793 72.5907 53.9729 71.6149 53.8302 70.2785C53.6909 68.9739 53.9817 67.9292 54.7024 67.1442C55.455 66.3559 56.579 65.8819 58.0745 65.7222C59.6336 65.5557 60.8483 65.7801 61.7185 66.3951C62.5888 67.0102 63.0935 67.9701 63.2328 69.2747C63.3755 70.6111 63.0864 71.6717 62.3657 72.4567C61.6449 73.2416 60.505 73.7174 58.9459 73.8838ZM83.9315 99.3593C81.0678 99.665 78.5333 99.4368 76.3279 98.6746C74.1509 97.8772 72.4071 96.6152 71.0964 94.8886C69.7857 93.162 68.9962 91.0418 68.7278 88.5281C68.4696 86.1099 68.7687 83.9378 69.6251 82.012C70.5099 80.051 71.8207 78.4629 73.5575 77.2476C75.3228 75.9972 77.3986 75.2446 79.785 74.9898C81.5351 74.8029 83.1566 74.9194 84.6496 75.3393C86.1392 75.7274 87.4509 76.408 88.5846 77.3811C89.7149 78.3224 90.6145 79.5137 91.2833 80.9548C91.9839 82.3926 92.4327 84.0342 92.6297 85.8797C92.6976 86.5161 92.5736 87.0121 92.2576 87.3676C91.9381 87.6914 91.3966 87.894 90.6329 87.9755L76.0279 89.5348L75.5999 85.5256L86.1957 84.3944L85.4982 85.0964C85.3725 83.9191 85.1115 82.9815 84.7152 82.2836C84.3189 81.5857 83.7821 81.0798 83.105 80.766C82.4597 80.4487 81.6756 80.3393 80.7529 80.4378C79.7665 80.5431 78.9328 80.8735 78.252 81.4289C77.5995 81.9491 77.1299 82.6751 76.8432 83.6068C76.5565 84.5385 76.4845 85.6725 76.6271 87.0089L76.673 87.4385C76.9142 89.6977 77.5807 91.2678 78.6724 92.1489C79.7925 92.9947 81.4026 93.3056 83.5026 93.0813C84.2027 93.0066 84.9897 92.8421 85.8636 92.5879C86.766 92.2985 87.6138 91.9505 88.4072 91.544C89.2005 91.1375 89.9113 91.0133 90.5397 91.1715C91.1646 91.2979 91.6634 91.5986 92.0359 92.0738C92.4369 92.5137 92.6872 93.0501 92.787 93.6831C92.8834 94.2843 92.8047 94.9041 92.5511 95.5427C92.294 96.1494 91.8166 96.6509 91.1187 97.0472C90.0594 97.6752 88.9069 98.1845 87.6613 98.5749C86.4476 98.9619 85.2043 99.2234 83.9315 99.3593ZM101.948 97.3392C100.548 97.4887 99.4269 97.2383 98.5851 96.588C97.7752 95.9343 97.2954 94.9074 97.146 93.5074L95.4593 77.7092C95.3132 76.3409 95.5511 75.2535 96.173 74.4469C96.8267 73.637 97.8218 73.1606 99.1582 73.018C100.495 72.8753 101.552 73.1325 102.33 73.7896C103.108 74.4467 103.57 75.4594 103.716 76.8276L103.925 78.7845L103.448 78.8354C103.562 76.8923 104.212 75.2943 105.398 74.0413C106.616 72.785 108.207 72.0197 110.173 71.7454C111.093 71.6151 111.802 71.7807 112.302 72.2422C112.83 72.6686 113.182 73.5482 113.356 74.8812C113.479 76.0267 113.337 76.959 112.931 77.6782C112.525 78.3974 111.66 78.8919 110.338 79.1619L109.25 79.3745C107.581 79.7137 106.407 80.3218 105.728 81.1988C105.046 82.044 104.786 83.2302 104.949 84.7575L105.785 92.585C105.934 93.9851 105.682 95.0901 105.029 95.9001C104.375 96.7101 103.348 97.1898 101.948 97.3392ZM127.431 94.7151C126.031 94.8646 124.588 94.9061 123.1 94.8396C121.648 94.8015 120.304 94.5749 119.069 94.1597C118.24 93.9264 117.621 93.558 117.213 93.0544C116.837 92.5475 116.617 91.9917 116.553 91.3872C116.52 90.7792 116.637 90.2196 116.904 89.7083C117.2 89.1619 117.608 88.7643 118.129 88.5156C118.678 88.2317 119.316 88.1797 120.043 88.3595C121.43 88.6941 122.661 88.9168 123.735 89.0274C124.837 89.1028 125.881 89.0878 126.868 88.9825C128.045 88.8568 128.871 88.6077 129.346 88.2352C129.818 87.8308 130.025 87.3582 129.967 86.8172C129.916 86.3399 129.702 85.9927 129.325 85.7755C128.98 85.5549 128.5 85.4292 127.885 85.3983L122.495 85.1048C120.485 84.9654 118.881 84.4125 117.684 83.4462C116.483 82.448 115.788 81.058 115.598 79.2761C115.421 77.6215 115.731 76.1563 116.528 74.8805C117.354 73.5694 118.544 72.5091 120.099 71.6995C121.682 70.8546 123.539 70.3184 125.671 70.0908C127.103 69.9379 128.42 69.91 129.621 70.007C130.819 70.0723 132.003 70.3159 133.174 70.7379C133.905 70.9495 134.442 71.3105 134.787 71.8209C135.131 72.3312 135.303 72.8921 135.304 73.5034C135.302 74.083 135.153 74.646 134.857 75.1925C134.59 75.7037 134.18 76.0854 133.627 76.3375C133.072 76.5577 132.398 76.5813 131.608 76.4083C130.513 76.1067 129.542 75.9047 128.695 75.8021C127.879 75.6961 127.121 75.6805 126.421 75.7552C125.116 75.8945 124.212 76.168 123.709 76.5758C123.205 76.9835 122.982 77.4579 123.04 77.9988C123.084 78.4125 123.265 78.7472 123.582 79.003C123.895 79.227 124.359 79.3544 124.974 79.3853L130.369 79.7265C132.439 79.8273 134.073 80.3609 135.27 81.3272C136.496 82.2584 137.206 83.6308 137.4 85.4445C137.675 88.0218 136.902 90.1317 135.082 91.7742C133.259 93.3849 130.709 94.3652 127.431 94.7151Z" fill="#47455C"/>
</svg>
