<svg width="368" height="215" viewBox="0 0 368 215" fill="none" xmlns="http://www.w3.org/2000/svg">
<path d="M349.998 92.8448C304.821 214.028 239.884 184.99 135.293 169.867C63.3995 159.471 1.68093 153.567 5.58731 126.551C10.8356 107.993 72.1073 88.895 147.796 83.3955C187.678 83.8375 227.153 87.0894 270.738 88.4795C299.186 89.3868 326.694 50.3006 341.886 48.0082C381.073 47.9436 366.037 49.8215 349.998 92.8448Z" fill="url(#paint0_linear_1265_492)"/>
<path d="M115.149 104.89C114.453 109.702 92.3362 121.63 80.2449 123.156C77.7515 122.796 24.4996 112.64 20.7373 112.096C40.8225 100.693 69.3022 94.9863 84.8223 91.4996C90.0894 92.2612 103.633 94.2195 110.405 95.1987C114.688 97.4554 115.725 100.904 115.149 104.89Z" fill="#8DB0C4"/>
<path d="M115.49 104.938C114.794 109.75 92.3356 121.628 80.2444 123.155C77.751 122.794 43.1947 116.16 39.4324 115.616C62.4698 115.673 95.056 118.755 104.726 94.3764C109.994 95.138 103.221 94.1588 109.994 95.138C114.276 97.3946 116.067 100.952 115.49 104.938Z" fill="#739CB2"/>
<rect width="10.6439" height="22.6874" rx="5.32194" transform="matrix(0.989707 0.143107 -0.143105 0.989708 152.36 110.27)" fill="#739CB3"/>
<rect width="10.6439" height="22.6874" rx="5.32194" transform="matrix(0.989707 0.143107 -0.143105 0.989708 173.428 113.315)" fill="#739CB3"/>
<rect width="10.6439" height="22.6874" rx="5.32194" transform="matrix(0.989707 0.143107 -0.143105 0.989708 194.497 116.36)" fill="#739CB3"/>
<rect width="10.6439" height="22.6874" rx="5.32194" transform="matrix(0.989707 0.143107 -0.143105 0.989708 215.566 119.408)" fill="#739CB3"/>
<rect width="10.6439" height="22.6874" rx="5.32194" transform="matrix(0.989707 0.143107 -0.143105 0.989708 236.635 122.453)" fill="#739CB3"/>
<rect width="10.6439" height="22.6874" rx="5.32194" transform="matrix(0.989707 0.143107 -0.143105 0.989708 257.703 125.503)" fill="#739CB3"/>
<rect width="10.6439" height="22.6874" rx="5.32194" transform="matrix(0.989707 0.143107 -0.143105 0.989708 131.291 107.224)" fill="#739CB3"/>
<rect width="10.6439" height="22.6874" rx="5.32194" transform="matrix(0.989707 0.143107 -0.143105 0.989708 278.772 128.547)" fill="#739CB3"/>
<path d="M221.57 149.748C221.784 149.779 221.984 149.87 222.148 150.011L282.297 201.792C283.288 202.645 282.287 204.221 281.093 203.687L139.043 140.063C137.842 139.525 138.367 137.717 139.669 137.905L221.57 149.748Z" fill="#E8E8E8"/>
<path d="M221.57 149.749C221.784 149.78 221.985 149.871 222.148 150.013L279.971 199.946L223.193 153.41C223.045 153.289 222.869 153.207 222.681 153.172L142.919 138.376L221.57 149.749Z" fill="#212121" fill-opacity="0.09"/>
<g filter="url(#filter0_d_1265_492)">
<path d="M317.523 121.016C314.56 120.588 312.092 119.696 310.119 118.341C308.145 116.987 306.606 115.374 305.502 113.503C304.427 111.637 303.719 109.67 303.376 107.604C303.033 105.538 302.993 103.592 303.257 101.766L303.4 100.779C303.694 98.7436 304.299 96.7838 305.213 94.8994C306.157 93.0193 307.419 91.3686 308.999 89.9471C310.58 88.5257 312.472 87.4854 314.676 86.8263C316.913 86.1416 319.454 86.0048 322.297 86.4159C325.26 86.8443 327.756 87.7552 329.785 89.1486C331.848 90.5163 333.398 92.2681 334.433 94.4039C335.473 96.5098 335.942 98.8691 335.839 101.482L329.419 100.554C329.396 99.0226 329.039 97.6877 328.348 96.549C327.692 95.3846 326.772 94.4571 325.588 93.7666C324.409 93.0461 323.027 92.5712 321.44 92.3418C319.824 92.1081 318.346 92.1848 317.007 92.5716C315.672 92.9286 314.512 93.5553 313.527 94.4517C312.542 95.3481 311.725 96.4522 311.077 97.764C310.459 99.0802 310.029 100.576 309.787 102.252C309.553 103.868 309.546 105.395 309.766 106.832C310.016 108.274 310.499 109.581 311.216 110.754C311.937 111.898 312.884 112.844 314.059 113.595C315.264 114.349 316.704 114.848 318.38 115.09C320.834 115.445 322.986 115.145 324.835 114.19C326.719 113.21 327.998 111.653 328.673 109.52L335.093 110.449C334.456 112.74 333.353 114.765 331.785 116.524C330.217 118.284 328.226 119.585 325.812 120.427C323.399 121.27 320.636 121.466 317.523 121.016Z" fill="#FAA902"/>
</g>
<path fill-rule="evenodd" clip-rule="evenodd" d="M307.488 88.7584C307.027 86.7599 305.616 84.9811 303.538 84.0966C302.021 83.4504 300.405 83.3909 298.958 83.8159C299.42 85.8706 300.895 87.6886 303.056 88.5436C304.533 89.1277 306.089 89.167 307.488 88.7584Z" fill="#2BAD21"/>
<path fill-rule="evenodd" clip-rule="evenodd" d="M308.875 87.7957C307.978 87.0166 307.345 85.7146 307.247 84.2012C307.148 82.6897 307.604 81.3062 308.39 80.3987C309.288 81.1778 309.921 82.4798 310.019 83.9932C310.118 85.5047 309.661 86.8882 308.875 87.7957Z" fill="#2BAD21"/>
<defs>
<filter id="filter0_d_1265_492" x="296.287" y="84.0332" width="46.4834" height="48.3269" filterUnits="userSpaceOnUse" color-interpolation-filters="sRGB">
<feFlood flood-opacity="0" result="BackgroundImageFix"/>
<feColorMatrix in="SourceAlpha" type="matrix" values="0 0 0 0 0 0 0 0 0 0 0 0 0 0 0 0 0 0 127 0" result="hardAlpha"/>
<feOffset dy="4.53602"/>
<feGaussianBlur stdDeviation="2.26801"/>
<feComposite in2="hardAlpha" operator="out"/>
<feColorMatrix type="matrix" values="0 0 0 0 1 0 0 0 0 0.898 0 0 0 0 0.7 0 0 0 0.25 0"/>
<feBlend mode="normal" in2="BackgroundImageFix" result="effect1_dropShadow_1265_492"/>
<feBlend mode="normal" in="SourceGraphic" in2="effect1_dropShadow_1265_492" result="shape"/>
</filter>
<linearGradient id="paint0_linear_1265_492" x1="194.572" y1="13.6081" x2="165.553" y2="200.948" gradientUnits="userSpaceOnUse">
<stop offset="0.723958" stop-color="#F1F1F1"/>
<stop offset="1" stop-color="#9B9B9B"/>
</linearGradient>
</defs>
</svg>
