<svg width="528" height="305" viewBox="0 0 528 305" fill="none" xmlns="http://www.w3.org/2000/svg">
<path d="M0 0H527.277V304.345H0V0Z" fill="#FFB81C"/>
<mask id="mask0_17_310" style="mask-type:alpha" maskUnits="userSpaceOnUse" x="0" y="0" width="528" height="305">
<path d="M0 0H527.277V304.345H0V0Z" fill="#FFB81C"/>
</mask>
<g mask="url(#mask0_17_310)">
<path d="M-66.5754 1.14126L-14.076 -50.2169L609.45 329.834L441.3 529.56L-66.5754 1.14126Z" fill="white" fill-opacity="0.19"/>
<path d="M190.025 -14.2663L214.183 -27.2009L828.198 135.053L734.993 250.133L190.025 -14.2663Z" fill="white" fill-opacity="0.19"/>
</g>
<rect x="19" y="22" width="490" height="265" fill="white" fill-opacity="0.67"/>
<g clip-path="url(#clip0_17_310)">
<rect width="465" height="237" transform="translate(31 36)" fill="#AFE5FF" fill-opacity="0.87"/>
<path fill-rule="evenodd" clip-rule="evenodd" d="M365.708 85C361.743 85 354.616 84.9999 350.651 84.9999V84.9999C345.873 84.9999 342 81.1267 342 76.349C342 71.8273 345.469 68.1159 349.891 67.731C350.21 67.7032 350.453 67.4236 350.453 67.1037V67.1037C350.453 63.7118 353.794 60.9622 357.915 60.9622V60.9622C360.422 60.9622 363.304 60.1362 365.361 58.7026C366.901 57.6294 368.773 57 370.792 57C376.044 57 380.302 61.2575 380.302 66.5094C380.302 67.0204 380.261 67.5219 380.184 68.0111C380.166 68.1238 380.254 68.2263 380.368 68.2263V68.2263C385 68.2263 388.755 71.9812 388.755 76.6131C388.755 81.245 385 84.9999 380.368 84.9999V84.9999C376.445 84.9999 369.631 85 365.708 85V85V85Z" fill="white"/>
<ellipse cx="376.5" cy="176.5" rx="119.5" ry="12.5" fill="#6C6965"/>
<path d="M201.518 205.391C129.889 218.504 15.8683 225.244 15.8683 225.244H10V301H504V178.746C504 178.746 460.877 184.498 433.048 185.538C387.371 187.244 361.746 174.902 316.216 178.746C270.269 182.625 246.804 197.101 201.518 205.391Z" fill="#5ECFFF"/>
<path fill-rule="evenodd" clip-rule="evenodd" d="M491.313 142.232L491.313 142.246C487.833 142.476 485.081 145.371 485.081 148.909C485.081 150.021 485.353 151.069 485.834 151.992C484.818 153.034 484.191 154.459 484.191 156.031C484.191 159.227 486.782 161.817 489.978 161.817C493.019 161.817 495.513 159.471 495.747 156.489C496.095 156.23 496.405 155.921 496.665 155.572C497.562 156.144 498.628 156.476 499.77 156.476C500.196 156.476 500.61 156.43 501.009 156.343C501.298 156.759 501.656 157.123 502.067 157.419C502.521 160.413 505.107 162.708 508.228 162.708C511.669 162.708 514.459 159.918 514.459 156.476C514.459 153.792 512.762 151.504 510.383 150.627C511.262 149.553 511.789 148.179 511.789 146.683C511.789 143.242 508.999 140.452 505.557 140.452C505.459 140.452 505.361 140.454 505.264 140.458C504.392 137.881 501.664 136 498.435 136C494.502 136 491.313 138.79 491.313 142.232Z" fill="url(#paint0_linear_17_310)"/>
<path d="M500.661 152.915H501.106L500.661 156.476V159.147L501.551 158.257L503.331 156.921H504.222C504.222 156.921 503.911 157.245 503.331 157.811C502.752 158.378 502.441 159.147 502.441 159.147C502.441 159.147 502.886 159.147 503.777 159.592L504.667 160.037H501.551C501.551 160.037 501.106 160.037 500.661 160.927C500.216 161.818 500.216 161.818 500.216 162.708C500.216 163.598 500.661 186.232 500.661 186.232H497.99C497.99 186.232 498.88 164.933 498.435 163.153C497.99 161.372 496.209 160.482 496.209 160.482L493.539 158.257L493.984 157.811L496.209 159.147L494.874 155.586H495.319L497.545 160.037L498.88 160.927C498.88 160.927 497.545 157.811 497.1 156.921C496.655 156.031 494.874 154.696 494.874 154.696L495.319 153.805L497.545 155.586L497.99 153.805H498.435L497.99 156.476L499.325 158.257L500.661 152.915Z" fill="#72491F"/>
<path fill-rule="evenodd" clip-rule="evenodd" d="M477.147 147.958L477.147 147.972C480.626 148.201 483.378 151.097 483.378 154.635C483.378 155.747 483.106 156.795 482.625 157.717C483.642 158.76 484.268 160.185 484.268 161.757C484.268 164.952 481.678 167.543 478.482 167.543C475.44 167.543 472.947 165.197 472.713 162.215C472.364 161.956 472.055 161.647 471.795 161.298C470.898 161.87 469.832 162.201 468.689 162.201C468.264 162.201 467.85 162.156 467.45 162.069C467.161 162.484 466.803 162.849 466.393 163.145C465.938 166.139 463.353 168.433 460.232 168.433C456.79 168.433 454 165.643 454 162.202C454 159.517 455.697 157.229 458.077 156.353C457.198 155.278 456.671 153.905 456.671 152.409C456.671 148.967 459.461 146.177 462.903 146.177C463.001 146.177 463.098 146.18 463.195 146.184C464.068 143.606 466.795 141.726 470.025 141.726C473.958 141.726 477.147 144.516 477.147 147.958Z" fill="url(#paint1_linear_17_310)"/>
<path d="M467.799 158.641H467.354L467.799 162.202V164.873L466.909 163.982L465.128 162.647H464.238C464.238 162.647 464.549 162.971 465.128 163.537C465.708 164.104 466.018 164.873 466.018 164.873C466.018 164.873 465.573 164.873 464.683 165.318L463.793 165.763H466.909C466.909 165.763 467.354 165.763 467.799 166.653C468.244 167.543 468.244 167.543 468.244 168.434C468.244 169.324 467.799 185.348 467.799 185.348H470.47C470.47 185.348 469.579 170.659 470.024 168.879C470.47 167.098 472.25 166.208 472.25 166.208L474.921 163.982L474.476 163.537L472.25 164.873L473.585 161.312H473.14L470.915 165.763L469.579 166.653C469.579 166.653 470.915 163.537 471.36 162.647C471.805 161.757 473.585 160.421 473.585 160.421L473.14 159.531L470.915 161.312L470.47 159.531H470.024L470.47 162.202L469.134 163.982L467.799 158.641Z" fill="#BE9A7D"/>
<path fill-rule="evenodd" clip-rule="evenodd" d="M480.327 164.828L480.327 164.838C477.891 164.998 475.965 167.025 475.965 169.502C475.965 170.28 476.155 171.014 476.492 171.66C475.78 172.39 475.342 173.387 475.342 174.487C475.342 176.724 477.155 178.538 479.393 178.538C481.522 178.538 483.267 176.895 483.431 174.808C483.675 174.626 483.891 174.41 484.073 174.166C484.701 174.567 485.447 174.799 486.247 174.799C486.545 174.799 486.835 174.767 487.115 174.706C487.317 174.997 487.568 175.252 487.855 175.459C488.173 177.555 489.983 179.161 492.168 179.161C494.577 179.161 496.53 177.208 496.53 174.799C496.53 172.92 495.342 171.318 493.676 170.704C494.291 169.952 494.66 168.991 494.66 167.944C494.66 165.534 492.707 163.581 490.298 163.581C490.229 163.581 490.161 163.583 490.093 163.586C489.482 161.782 487.573 160.466 485.313 160.466C482.559 160.466 480.327 162.419 480.327 164.828Z" fill="url(#paint2_linear_17_310)"/>
<path d="M487.36 171.149H487.805L487.36 174.71V177.38L488.25 176.49L490.031 175.155H490.921C490.921 175.155 490.61 175.478 490.031 176.045C489.451 176.611 489.14 177.38 489.14 177.38C489.14 177.38 489.585 177.38 490.476 177.825L491.366 178.271H488.25C488.25 178.271 487.805 178.271 487.36 179.161C486.915 180.051 486.915 180.051 486.915 180.941C486.915 181.832 487.069 187.173 487.069 187.173H484.398C484.398 187.173 485.579 183.167 485.134 181.386C484.689 179.606 482.909 178.716 482.909 178.716L480.238 176.49L480.683 176.045L482.909 177.38L481.573 173.819H482.018L484.244 178.271L485.579 179.161C485.579 179.161 484.244 176.045 483.799 175.155C483.354 174.264 481.573 172.929 481.573 172.929L482.018 172.039L484.244 173.819L484.689 172.039H485.134L484.689 174.71L486.024 176.49L487.36 171.149Z" fill="#3A1F0A"/>
<path d="M310.198 242.145C381.827 255.257 491.132 270.244 491.132 270.244H497V346H2.99997V223.746C2.99997 223.746 46.6708 222.707 74.5 223.746C120.176 225.452 149.97 211.656 195.5 215.5C241.447 219.379 264.912 233.855 310.198 242.145Z" fill="url(#paint3_linear_17_310)"/>
<rect x="288" y="123" width="18" height="46" fill="#D9D9D9"/>
<rect x="308" y="57" width="29" height="108" fill="#D9D9D9"/>
<rect x="333" y="78" width="23" height="76" fill="#D9D9D9"/>
<rect x="346" y="101" width="34" height="65" fill="#D9D9D9"/>
<rect x="389" y="73" width="29" height="95" fill="#D9D9D9"/>
<rect x="290" y="125" width="2" height="2" fill="#8B8B8B"/>
<rect x="293" y="125" width="2" height="2" fill="#8B8B8B"/>
<rect x="296" y="125" width="2" height="2" fill="#8B8B8B"/>
<rect x="299" y="125" width="2" height="2" fill="#8B8B8B"/>
<rect x="302" y="125" width="2" height="2" fill="#8B8B8B"/>
<rect x="290" y="128" width="2" height="2" fill="#8B8B8B"/>
<rect x="293" y="128" width="2" height="2" fill="#8B8B8B"/>
<rect x="296" y="128" width="2" height="2" fill="#8B8B8B"/>
<rect x="299" y="128" width="2" height="2" fill="#8B8B8B"/>
<rect x="302" y="128" width="2" height="2" fill="#8B8B8B"/>
<rect x="290" y="131" width="2" height="2" fill="#8B8B8B"/>
<rect x="293" y="131" width="2" height="2" fill="#8B8B8B"/>
<rect x="296" y="131" width="2" height="2" fill="#8B8B8B"/>
<rect x="299" y="131" width="2" height="2" fill="#8B8B8B"/>
<rect x="302" y="131" width="2" height="2" fill="#8B8B8B"/>
<rect x="290" y="134" width="2" height="2" fill="#8B8B8B"/>
<rect x="293" y="134" width="2" height="2" fill="#8B8B8B"/>
<rect x="296" y="134" width="2" height="2" fill="#8B8B8B"/>
<rect x="299" y="134" width="2" height="2" fill="#8B8B8B"/>
<rect x="302" y="134" width="2" height="2" fill="#8B8B8B"/>
<rect x="290" y="137" width="2" height="2" fill="#8B8B8B"/>
<rect x="293" y="137" width="2" height="2" fill="#8B8B8B"/>
<rect x="296" y="137" width="2" height="2" fill="#8B8B8B"/>
<rect x="299" y="137" width="2" height="2" fill="#8B8B8B"/>
<rect x="302" y="137" width="2" height="2" fill="#8B8B8B"/>
<rect x="290" y="140" width="2" height="2" fill="#8B8B8B"/>
<rect x="293" y="140" width="2" height="2" fill="#8B8B8B"/>
<rect x="296" y="140" width="2" height="2" fill="#8B8B8B"/>
<rect x="299" y="140" width="2" height="2" fill="#8B8B8B"/>
<rect x="302" y="140" width="2" height="2" fill="#8B8B8B"/>
<rect x="290" y="134" width="2" height="2" fill="#8B8B8B"/>
<rect x="293" y="134" width="2" height="2" fill="#8B8B8B"/>
<rect x="296" y="134" width="2" height="2" fill="#8B8B8B"/>
<rect x="299" y="134" width="2" height="2" fill="#8B8B8B"/>
<rect x="302" y="134" width="2" height="2" fill="#8B8B8B"/>
<rect x="290" y="137" width="2" height="2" fill="#8B8B8B"/>
<rect x="293" y="137" width="2" height="2" fill="#8B8B8B"/>
<rect x="296" y="137" width="2" height="2" fill="#8B8B8B"/>
<rect x="299" y="137" width="2" height="2" fill="#8B8B8B"/>
<rect x="302" y="137" width="2" height="2" fill="#8B8B8B"/>
<rect x="290" y="140" width="2" height="2" fill="#8B8B8B"/>
<rect x="293" y="140" width="2" height="2" fill="#8B8B8B"/>
<rect x="296" y="140" width="2" height="2" fill="#8B8B8B"/>
<rect x="299" y="140" width="2" height="2" fill="#8B8B8B"/>
<rect x="302" y="140" width="2" height="2" fill="#8B8B8B"/>
<rect x="290" y="143" width="2" height="2" fill="#8B8B8B"/>
<rect x="293" y="143" width="2" height="2" fill="#8B8B8B"/>
<rect x="296" y="143" width="2" height="2" fill="#8B8B8B"/>
<rect x="299" y="143" width="2" height="2" fill="#8B8B8B"/>
<rect x="302" y="143" width="2" height="2" fill="#8B8B8B"/>
<rect x="290" y="146" width="2" height="2" fill="#8B8B8B"/>
<rect x="293" y="146" width="2" height="2" fill="#8B8B8B"/>
<rect x="296" y="146" width="2" height="2" fill="#8B8B8B"/>
<rect x="299" y="146" width="2" height="2" fill="#8B8B8B"/>
<rect x="302" y="146" width="2" height="2" fill="#8B8B8B"/>
<rect x="290" y="149" width="2" height="2" fill="#8B8B8B"/>
<rect x="293" y="149" width="2" height="2" fill="#8B8B8B"/>
<rect x="296" y="149" width="2" height="2" fill="#8B8B8B"/>
<rect x="299" y="149" width="2" height="2" fill="#8B8B8B"/>
<rect x="302" y="149" width="2" height="2" fill="#8B8B8B"/>
<rect x="290" y="152" width="2" height="2" fill="#8B8B8B"/>
<rect x="293" y="152" width="2" height="2" fill="#8B8B8B"/>
<rect x="296" y="152" width="2" height="2" fill="#8B8B8B"/>
<rect x="299" y="152" width="2" height="2" fill="#8B8B8B"/>
<rect x="302" y="152" width="2" height="2" fill="#8B8B8B"/>
<rect x="290" y="155" width="2" height="2" fill="#8B8B8B"/>
<rect x="293" y="155" width="2" height="2" fill="#8B8B8B"/>
<rect x="296" y="155" width="2" height="2" fill="#8B8B8B"/>
<rect x="299" y="155" width="2" height="2" fill="#8B8B8B"/>
<rect x="302" y="155" width="2" height="2" fill="#8B8B8B"/>
<rect x="290" y="158" width="2" height="2" fill="#8B8B8B"/>
<rect x="293" y="158" width="2" height="2" fill="#8B8B8B"/>
<rect x="296" y="158" width="2" height="2" fill="#8B8B8B"/>
<rect x="299" y="158" width="2" height="2" fill="#8B8B8B"/>
<rect x="302" y="158" width="2" height="2" fill="#8B8B8B"/>
<rect x="290" y="152" width="2" height="2" fill="#8B8B8B"/>
<rect x="293" y="152" width="2" height="2" fill="#8B8B8B"/>
<rect x="296" y="152" width="2" height="2" fill="#8B8B8B"/>
<rect x="299" y="152" width="2" height="2" fill="#8B8B8B"/>
<rect x="302" y="152" width="2" height="2" fill="#8B8B8B"/>
<rect x="290" y="155" width="2" height="2" fill="#8B8B8B"/>
<rect x="293" y="155" width="2" height="2" fill="#8B8B8B"/>
<rect x="296" y="155" width="2" height="2" fill="#8B8B8B"/>
<rect x="299" y="155" width="2" height="2" fill="#8B8B8B"/>
<rect x="302" y="155" width="2" height="2" fill="#8B8B8B"/>
<rect x="290" y="158" width="2" height="2" fill="#8B8B8B"/>
<rect x="293" y="158" width="2" height="2" fill="#8B8B8B"/>
<rect x="296" y="158" width="2" height="2" fill="#8B8B8B"/>
<rect x="299" y="158" width="2" height="2" fill="#8B8B8B"/>
<rect x="302" y="158" width="2" height="2" fill="#8B8B8B"/>
<path d="M389.75 197H362.75C361.507 197 360.5 198.007 360.5 199.25C360.5 200.493 361.507 201.5 362.75 201.5H380.5C381.881 201.5 383 202.619 383 204C383 205.381 381.881 206.5 380.5 206.5H374C372.619 206.5 371.5 207.619 371.5 209C371.5 210.381 372.619 211.5 374 211.5H395C396.381 211.5 397.5 210.381 397.5 209C397.5 207.619 396.381 206.5 395 206.5H390C388.619 206.5 387.5 205.381 387.5 204V203.75C387.5 202.507 388.507 201.5 389.75 201.5C390.993 201.5 392 200.493 392 199.25C392 198.007 390.993 197 389.75 197Z" fill="url(#paint4_linear_17_310)"/>
<path d="M282.672 248H262.272C260.987 248 259.944 249.042 259.944 250.328C259.944 251.613 260.987 252.655 262.272 252.655H270.192C271.62 252.655 272.778 253.813 272.778 255.241C272.778 256.67 271.62 257.828 270.192 257.828H257.086C255.658 257.828 254.5 258.985 254.5 260.414C254.5 261.842 255.658 263 257.086 263H282.193C283.68 263 284.828 261.691 284.635 260.217L284.627 260.16C284.487 259.089 283.645 258.246 282.574 258.103C281.387 257.946 280.5 256.933 280.5 255.736V255.5V254.905C280.5 253.663 281.507 252.655 282.75 252.655C283.993 252.655 285 251.648 285 250.405V250.328C285 249.042 283.958 248 282.672 248Z" fill="url(#paint5_linear_17_310)"/>
<path d="M116.707 233.033L86.2449 233.468C84.9999 233.486 84 234.5 84 235.745C84 236.994 85.0058 238.01 86.2547 238.023L91.5126 238.075C92.8904 238.089 94 239.21 94 240.588V241.35C94 242.316 93.2165 243.1 92.25 243.1C91.2835 243.1 90.5 243.884 90.5 244.85V245.6C90.5 246.981 91.6193 248.1 93 248.1H109.45C110.858 248.1 112 246.958 112 245.55C112 244.142 110.858 243 109.45 243H101.03C99.6329 243 98.5 241.867 98.5 240.47C98.5 239.096 99.5957 237.973 100.969 237.94L116.794 237.554C118.021 237.524 119 236.521 119 235.294C119 234.032 117.968 233.015 116.707 233.033Z" fill="url(#paint6_linear_17_310)"/>
<ellipse cx="469.423" cy="51.4235" rx="76.4225" ry="76.4235" fill="#FFE974" fill-opacity="0.33"/>
<ellipse cx="469.853" cy="46.4511" rx="60.6528" ry="60.651" fill="#FFE974" fill-opacity="0.6"/>
<ellipse cx="469.68" cy="48.08" rx="38.88" ry="38.88" fill="#FFE249"/>
<path d="M570.5 -4.00007C578.984 61.4504 519.78 212.757 409.966 226.991C315 244 181.311 112.997 172.827 47.5462C164.343 -17.9043 246.488 -82.5014 356.302 -96.7355C466.117 -110.97 562.016 -69.4506 570.5 -4.00007Z" fill="url(#paint7_linear_17_310)" fill-opacity="0.29"/>
<path d="M500.721 165C462.425 170.694 411.221 195.5 415.221 206.5H504.721L500.721 165Z" fill="#55A145"/>
<path fill-rule="evenodd" clip-rule="evenodd" d="M452.313 157.232L452.313 157.246C448.833 157.476 446.081 160.371 446.081 163.909C446.081 165.021 446.353 166.069 446.834 166.992C445.818 168.034 445.191 169.459 445.191 171.031C445.191 174.227 447.782 176.817 450.978 176.817C454.019 176.817 456.513 174.471 456.747 171.489C457.095 171.23 457.405 170.921 457.665 170.572C458.562 171.144 459.628 171.476 460.77 171.476C461.196 171.476 461.61 171.43 462.009 171.343C462.298 171.759 462.656 172.123 463.067 172.419C463.521 175.413 466.107 177.708 469.228 177.708C472.669 177.708 475.459 174.918 475.459 171.476C475.459 168.792 473.762 166.504 471.383 165.627C472.262 164.553 472.789 163.179 472.789 161.683C472.789 158.242 469.999 155.452 466.557 155.452C466.459 155.452 466.361 155.454 466.264 155.458C465.392 152.881 462.664 151 459.435 151C455.502 151 452.313 153.79 452.313 157.232Z" fill="url(#paint8_linear_17_310)"/>
<path d="M461.661 167.915H462.106L461.661 171.476V174.147L462.551 173.257L464.331 171.921H465.222C465.222 171.921 464.911 172.245 464.331 172.811C463.752 173.378 463.441 174.147 463.441 174.147C463.441 174.147 463.886 174.147 464.777 174.592L465.667 175.037H462.551C462.551 175.037 462.106 175.037 461.661 175.927C461.216 176.818 461.216 176.818 461.216 177.708C461.216 178.598 461.661 201.232 461.661 201.232H458.99C458.99 201.232 459.88 179.933 459.435 178.153C458.99 176.372 457.209 175.482 457.209 175.482L454.539 173.257L454.984 172.811L457.209 174.147L455.874 170.586H456.319L458.545 175.037L459.88 175.927C459.88 175.927 458.545 172.811 458.1 171.921C457.655 171.031 455.874 169.696 455.874 169.696L456.319 168.805L458.545 170.586L458.99 168.805H459.435L458.99 171.476L460.325 173.257L461.661 167.915Z" fill="#72491F"/>
<path fill-rule="evenodd" clip-rule="evenodd" d="M438.147 162.958L438.147 162.972C441.626 163.201 444.378 166.097 444.378 169.635C444.378 170.747 444.106 171.795 443.625 172.717C444.642 173.76 445.268 175.185 445.268 176.757C445.268 179.952 442.678 182.543 439.482 182.543C436.44 182.543 433.947 180.197 433.713 177.215C433.364 176.956 433.055 176.647 432.795 176.298C431.898 176.87 430.832 177.201 429.689 177.201C429.264 177.201 428.85 177.156 428.45 177.069C428.161 177.484 427.803 177.849 427.393 178.145C426.938 181.139 424.353 183.433 421.232 183.433C417.79 183.433 415 180.643 415 177.202C415 174.517 416.697 172.229 419.077 171.353C418.198 170.278 417.671 168.905 417.671 167.409C417.671 163.967 420.461 161.177 423.903 161.177C424.001 161.177 424.098 161.18 424.195 161.184C425.068 158.606 427.795 156.726 431.025 156.726C434.958 156.726 438.147 159.516 438.147 162.958Z" fill="url(#paint9_linear_17_310)"/>
<path d="M428.799 173.641H428.354L428.799 177.202V179.873L427.909 178.982L426.128 177.647H425.238C425.238 177.647 425.549 177.971 426.128 178.537C426.708 179.104 427.018 179.873 427.018 179.873C427.018 179.873 426.573 179.873 425.683 180.318L424.793 180.763H427.909C427.909 180.763 428.354 180.763 428.799 181.653C429.244 182.543 429.244 182.543 429.244 183.434C429.244 184.324 428.799 200.348 428.799 200.348H431.47C431.47 200.348 430.579 185.659 431.024 183.879C431.47 182.098 433.25 181.208 433.25 181.208L435.921 178.982L435.476 178.537L433.25 179.873L434.585 176.312H434.14L431.915 180.763L430.579 181.653C430.579 181.653 431.915 178.537 432.36 177.647C432.805 176.757 434.585 175.421 434.585 175.421L434.14 174.531L431.915 176.312L431.47 174.531H431.024L431.47 177.202L430.134 178.982L428.799 173.641Z" fill="#BE9A7D"/>
<path fill-rule="evenodd" clip-rule="evenodd" d="M441.327 179.828L441.327 179.838C438.891 179.998 436.965 182.025 436.965 184.502C436.965 185.28 437.155 186.014 437.492 186.66C436.78 187.39 436.342 188.387 436.342 189.487C436.342 191.724 438.155 193.538 440.393 193.538C442.522 193.538 444.267 191.895 444.431 189.808C444.675 189.626 444.891 189.41 445.073 189.166C445.701 189.567 446.447 189.799 447.247 189.799C447.545 189.799 447.835 189.767 448.115 189.706C448.317 189.997 448.568 190.252 448.855 190.459C449.173 192.555 450.983 194.161 453.168 194.161C455.577 194.161 457.53 192.208 457.53 189.799C457.53 187.92 456.342 186.318 454.676 185.704C455.291 184.952 455.66 183.991 455.66 182.944C455.66 180.534 453.707 178.581 451.298 178.581C451.229 178.581 451.161 178.583 451.093 178.586C450.482 176.782 448.573 175.466 446.313 175.466C443.559 175.466 441.327 177.419 441.327 179.828Z" fill="url(#paint10_linear_17_310)"/>
<path d="M448.36 186.149H448.805L448.36 189.71V192.38L449.25 191.49L451.031 190.155H451.921C451.921 190.155 451.61 190.478 451.031 191.045C450.451 191.611 450.14 192.38 450.14 192.38C450.14 192.38 450.585 192.38 451.476 192.825L452.366 193.271H449.25C449.25 193.271 448.805 193.271 448.36 194.161C447.915 195.051 447.915 195.051 447.915 195.941C447.915 196.832 448.069 202.173 448.069 202.173H445.398C445.398 202.173 446.579 198.167 446.134 196.386C445.689 194.606 443.909 193.716 443.909 193.716L441.238 191.49L441.683 191.045L443.909 192.38L442.573 188.819H443.018L445.244 193.271L446.579 194.161C446.579 194.161 445.244 191.045 444.799 190.155C444.354 189.264 442.573 187.929 442.573 187.929L443.018 187.039L445.244 188.819L445.689 187.039H446.134L445.689 189.71L447.024 191.49L448.36 186.149Z" fill="#3A1F0A"/>
<path d="M270.204 167.808H267.565C267.893 164.814 267.816 162.959 265.255 160.172C270.095 154.737 275.152 150.629 279.11 148.72C279.44 151.265 275.816 158.393 270.204 167.808Z" fill="#021E31"/>
<path d="M267.564 167.808H259.846C261.416 165.108 262.263 163.52 265.255 160.172C267.894 162.717 267.894 164.944 267.564 167.808Z" fill="#00111C"/>
<path d="M255.689 177.351H254.292C258.658 163.672 265.346 155.636 280.353 146.492C280.023 152.855 276.201 160.254 271.193 168.444L269.874 168.125C274.492 161.127 279.11 151.901 279.11 148.719C268.224 154.446 258.658 167.536 255.689 177.351Z" fill="#C8C8CE"/>
<path d="M193.672 177.351H190.703C192.682 169.398 195.321 148.083 195.651 140.13C197.63 154.128 196.482 161.529 193.672 177.351Z" fill="#636F78"/>
<path d="M194.002 175.125L193.672 177.352H218.124L217.093 172.898C209.833 171.098 204.28 171.978 194.002 175.125Z" fill="#426074"/>
<path d="M194.661 171.625C194.444 173.011 194.291 173.777 194.001 175.125C203.898 172.261 209.133 170.954 217.093 172.898L216.433 170.353C209.506 169.08 202.908 169.398 194.661 171.625Z" fill="#122F44"/>
<path d="M216.104 170.353C207.134 168.935 202.534 169.745 194.662 171.625C196.727 158.847 197.307 151.296 195.651 140.13C204.888 144.902 211.485 152.855 216.104 170.353Z" fill="#C9CBD7"/>
<path d="M192.022 171.307C184.168 168.012 178.489 167.163 166.951 167.489C176.188 150.947 184.105 141.721 195.651 140.13C194.991 150.628 194.002 159.218 192.022 171.307Z" fill="#C9CBD7"/>
<path d="M166.621 167.489L165.632 169.716C177.507 169.716 185.425 170.671 191.362 174.488L192.022 171.307C185.425 168.126 177.178 167.171 166.621 167.489Z" fill="#122F44"/>
<path d="M190.703 177.351H161.673L165.632 169.398H165.632C169.261 169.398 184.765 169.398 191.362 174.488L191.033 176.079L190.703 177.351Z" fill="#426074"/>
<path d="M219.072 177.352H218.083C220.062 157.309 230.948 139.176 240.515 132.495C242.247 135.149 242.824 142.357 239.525 156.673C239.115 156.753 239.072 156.719 238.205 156.991C240.185 149.674 241.834 137.585 240.515 134.404C226.33 147.765 220.386 165.899 219.072 177.352Z" fill="#BEBEC5"/>
<path d="M240.514 132.495C220.722 131.858 213.134 135.04 195.651 140.13C210.166 148.719 212.805 158.582 218.083 177.033C220.392 157.945 228.969 141.721 240.514 132.495Z" fill="#F1F2F8"/>
<path d="M195.651 140.13C182.023 142.514 174.415 153.127 161.674 177.352H159.364H156.725C160.354 145.22 151.447 106.726 139.902 101C159.694 103.227 181.796 112.135 195.651 140.13Z" fill="#F1F2F8"/>
<path d="M141.221 125.814C138.824 124.273 137.085 123.841 134.293 122.951C135.56 113.93 136.932 108.635 140.231 103.545C142.54 104.817 143.449 106.673 144.85 108.953C142.87 114.043 142.211 117.861 141.221 125.814Z" fill="#1E394D"/>
<path d="M144.85 108.953C148.808 114.679 151.777 124.86 152.437 133.449C148.148 130.268 145.815 128.126 141.221 125.814C142.032 118.405 142.695 114.534 144.85 108.953Z" fill="#011B2E"/>
<path d="M114.837 137.822C114.835 137.849 114.833 137.876 114.83 137.903C114.803 137.877 114.804 137.849 114.837 137.822C115.186 133.664 117.159 125.787 120.109 121.678C123.737 124.223 131.324 136.949 131.654 139.812C130.555 139.282 127.3 138.412 121.758 137.903C116.905 137.457 115.07 137.63 114.837 137.822Z" fill="#1E3646"/>
<rect x="52.8135" y="203.438" width="268.522" height="5.09012" fill="#585A5E"/>
<path d="M106.502 142.993C101.224 149.674 102.515 168.55 104.934 177.351L131.573 176.715L131.243 173.534C130.803 170.459 128.472 162.59 122.666 155.718C116.86 148.847 109.471 144.266 106.502 142.993Z" fill="#172A36"/>
<g filter="url(#filter0_i_17_310)">
<path d="M104.934 177.669C107.046 167.489 115.6 156.885 119.449 153.173C123.078 156.672 124.397 158.808 125.387 160.172C129.675 166.08 131.984 175.124 131.655 177.669L104.934 177.669Z" fill="#426074"/>
</g>
<path d="M131.325 139.493C121.296 136.439 109.882 137.267 105.594 139.175C110.872 141.084 116.48 146.74 118.789 148.719C127.696 156.355 132.314 166.217 133.634 177.351H143.2C141.001 166.747 135.547 143.82 131.325 139.493Z" fill="#F1F2F8"/>
<path d="M132.974 122.315L134.623 122.633C135.868 113.863 136.741 109.31 140.231 103.545C143.53 105.772 146.829 111.498 149.138 118.815C149.138 118.815 152.107 127.405 152.437 133.449C152.767 136.313 155.736 156.991 154.746 177.352H157.055C157.62 165.676 158.086 158.844 157.055 147.447C156.3 136.311 155.52 130.066 151.777 118.815C147.685 108.79 145.231 103.947 139.901 101C137.262 103.545 135.099 110.733 132.974 122.315Z" fill="#D1D1D6"/>
<path d="M105.594 139.175C99.6318 146.683 100.222 167.46 102.955 177.351H104.934C103.195 166.461 102.837 160.955 103.615 152.537C104.193 148.273 104.871 146.398 106.254 143.311C111.943 146.478 115.192 149.151 121.098 154.764C128.026 163.035 130.665 170.989 131.655 177.351H133.634L133.304 174.488C132.807 171.032 130.539 161.763 123.738 153.755C118.38 147.447 109.999 140.766 105.594 139.175Z" fill="#BFBFC4"/>
<path d="M232.597 177.351H231.938C233.587 172.897 234.247 170.034 235.566 165.899C233.917 163.035 232.927 161.763 230.618 159.218C236.886 156.673 238.865 156.355 249.091 156.355C242.164 163.035 240.844 169.398 240.844 177.033C240.185 171.943 236.226 166.853 236.226 166.853L232.597 177.351Z" fill="#C9CBD7"/>
<path d="M254.37 177.351H240.845C240.185 158.9 253.71 147.447 280.43 146.492C265.893 155.082 258.328 164.308 254.37 177.351Z" fill="#F1F2F8"/>
<path d="M277.132 177.351H261.297C261.297 174.806 263.277 170.67 265.586 167.807H270.864L277.132 177.351Z" fill="#C9CBD7"/>
<path d="M242.824 156.355C238.916 156.483 233.917 157.309 229.958 159.218C232.268 161.763 234.247 163.672 236.226 166.853C237.061 161.783 238.998 158.443 242.824 156.355Z" fill="#ACAFBC"/>
<rect x="35" y="208.529" width="302.169" height="15.9066" rx="7.95331" fill="#122F44"/>
<rect x="75.2449" y="193.258" width="224.978" height="10.1802" fill="#F1F2F8"/>
<rect x="85.8013" y="184.351" width="206.504" height="8.90771" fill="#F1F2F8"/>
<rect x="92.3987" y="177.351" width="189.351" height="6.99891" fill="#F1F2F8"/>
<path d="M140.231 166.853C141.634 170.694 142.013 172.519 143.2 177.352H138.912C140.472 172.929 140.927 171.133 140.231 166.853Z" fill="#111F29"/>
<path d="M155.076 177.351H146.169C150.128 158.263 153.475 143.733 152.767 135.676C155.201 150.56 155.252 160.282 155.076 177.351Z" fill="#011B2E"/>
<path d="M141.221 125.814C145.28 127.863 147.689 129.404 152.437 133.449C153.15 137.647 152.824 140.533 152.437 145.538C151.345 153.501 150.274 157.96 148.478 165.899L148.808 154.764C148.11 147.909 147.202 144.226 145.509 138.221C143.741 132.78 143.063 130.1 141.221 125.814Z" fill="#C9CBD7"/>
<path d="M146.169 177.351H144.85C141.221 149.674 128.686 123.587 119.449 119.451C128.686 119.769 136.933 123.269 141.221 125.814C151.777 150.628 149.468 165.262 146.169 177.351Z" fill="#F1F2F8"/>
<path d="M231.938 177.352H219.073C221.052 161.445 228.969 144.902 240.515 134.404C241.729 139.284 240.7 147.279 238.206 156.991C234.934 157.451 233.551 157.975 230.618 159.218C232.268 161.127 233.67 162.805 235.671 165.899L235.628 166.039C234.527 169.584 233.288 173.576 231.938 177.352Z" fill="#011B2E"/>
<path d="M113.511 137.585L114.831 137.267C115.6 132.071 118.789 122.951 120.109 121.678C124.397 124.86 131.242 138.221 131.654 139.812C132.314 142.357 139.901 164.944 143.2 177.351H144.85C143.86 167.171 138.692 149.568 136.932 144.902C134.403 138.221 125.387 121.36 119.449 119.451C116.81 121.996 114.391 132.601 113.511 137.585Z" fill="#D2D2D6"/>
<path d="M119.119 137.585C121.758 137.585 124.727 137.585 131.325 139.494C132.644 140.448 134.392 145.52 135.943 150.31C137.922 156.423 138.582 160.213 140.231 167.171C133.622 151.288 129.078 144.875 119.119 137.585Z" fill="#C6C8D1"/>
<path d="M261.297 177.351H255.689C256.951 173.773 257.741 171.444 259.978 167.807H265.586C263.222 171.329 262.262 173.664 261.297 177.351Z" fill="#999CAE"/>
<rect x="92.3987" y="182.442" width="24.4111" height="1.90879" fill="#011B2E"/>
<rect x="85.1416" y="190.077" width="31.6684" height="3.18132" fill="#011B2E"/>
<rect x="75.2449" y="200.257" width="41.5648" height="3.18132" fill="#011B2E"/>
<rect x="180.807" y="194.531" width="70.5941" height="5.72638" fill="#011B2E"/>
<path fill-rule="evenodd" clip-rule="evenodd" d="M68.0472 106C72.0121 106 79.1391 106 83.1039 106V106C87.8817 106 91.7549 102.127 91.7549 97.349C91.7549 92.8273 88.2858 89.1159 83.864 88.731C83.5453 88.7032 83.3019 88.4236 83.3019 88.1037V88.1037C83.3019 84.7118 79.9609 81.9622 75.8396 81.9622V81.9622C73.3325 81.9622 70.4506 81.1362 68.3938 79.7026C66.854 78.6294 64.9818 78 62.9625 78C57.7106 78 53.4531 82.2575 53.4531 87.5094C53.4531 88.0204 53.4934 88.5219 53.571 89.0111C53.5889 89.1238 53.501 89.2263 53.3869 89.2263V89.2263C48.755 89.2263 45.0001 92.9812 45.0001 97.6131C45.0001 102.245 48.755 106 53.3869 106V106C57.31 106 64.1241 106 68.0472 106V106V106Z" fill="white"/>
</g>
<path d="M18.6411 19.2259L209.237 12.1738L153.654 66.5755L23.6789 55.7704L18.6411 19.2259Z" fill="#001489"/>
<path d="M15.978 15.5977H201.628L151.223 62.0102L20.7489 53.1496L15.978 15.5977Z" fill="#007749"/>
<path d="M149.643 59.656L194.921 15.5977H201.629L151.272 62.0102L20.9238 53.1496L149.643 59.656Z" fill="#026740"/>
<path d="M48.3378 35.691C48.5191 35.691 48.6586 35.7817 48.7562 35.9631C48.8678 36.1304 48.9236 36.3467 48.9236 36.6117C48.9236 36.9325 48.8748 37.1836 48.7772 37.3649C48.6795 37.5463 48.5261 37.7067 48.3168 37.8462C47.4938 38.3902 46.1826 39.2829 44.3832 40.5244C43.8392 43.4119 43.1347 45.6856 42.2699 47.3456C41.4051 49.0055 40.31 49.8355 38.9849 49.8355C38.2735 49.8355 37.6946 49.6123 37.2482 49.1659C36.8018 48.7335 36.5787 48.1616 36.5787 47.4502C36.5787 46.7946 36.7251 46.132 37.018 45.4624C37.311 44.7929 37.855 44.0187 38.6501 43.1399C39.4591 42.2611 40.596 41.2568 42.0607 40.1269L42.1234 39.7293C41.0214 40.1896 39.9404 40.4198 38.8803 40.4198C37.318 40.4198 35.944 40.1199 34.7583 39.5201C33.5726 38.9063 32.652 38.0415 31.9964 36.9255C31.3407 35.8096 31.0129 34.5123 31.0129 33.0337C31.0129 30.9693 31.4035 29.1489 32.1847 27.5727C32.9658 25.9824 34.0399 24.7549 35.4069 23.8901C36.7879 23.0113 38.3293 22.5719 40.0311 22.5719C41.6631 22.5719 42.8837 22.9555 43.6927 23.7227C44.5157 24.4759 44.9272 25.4803 44.9272 26.7357C44.9272 27.5587 44.7738 28.2213 44.4669 28.7235C44.174 29.2117 43.7485 29.4558 43.1905 29.4558C42.8139 29.4558 42.507 29.3651 42.2699 29.1838C42.0467 29.0024 41.9351 28.7514 41.9351 28.4305C41.9351 28.291 41.963 28.0539 42.0188 27.7191C42.1025 27.3285 42.1444 27.0217 42.1444 26.7985C42.1444 26.2126 41.963 25.7593 41.6003 25.4384C41.2516 25.1176 40.6588 24.9572 39.8218 24.9572C38.8035 24.9572 37.855 25.2501 36.9762 25.836C36.1114 26.4218 35.4139 27.3006 34.8838 28.4724C34.3538 29.6301 34.0887 31.0251 34.0887 32.6571C34.0887 34.331 34.5421 35.6283 35.4488 36.5489C36.3694 37.4556 37.6946 37.909 39.4243 37.909C40.3868 37.909 41.3911 37.6927 42.4373 37.2603L42.7302 34.7076H40.596C40.2054 34.7076 39.9055 34.617 39.6963 34.4356C39.487 34.2403 39.3824 33.9265 39.3824 33.4941C39.3824 33.1035 39.487 32.7966 39.6963 32.5734C39.9055 32.3502 40.1845 32.2386 40.5332 32.2386H44.446C44.7528 32.2386 45.0039 32.3433 45.1992 32.5525C45.4085 32.7478 45.4921 33.0337 45.4503 33.4104C45.4085 33.8567 45.269 34.868 45.0318 36.4443L44.8017 38.0345C45.9176 37.1976 46.9359 36.4722 47.8565 35.8584C48.0379 35.7468 48.1983 35.691 48.3378 35.691ZM39.215 47.8059C39.5777 47.8059 39.9753 47.3944 40.4077 46.5714C40.8401 45.7484 41.2446 44.4232 41.6213 42.5959C40.5611 43.5026 39.7939 44.3186 39.3197 45.0439C38.8593 45.7832 38.6292 46.4319 38.6292 46.9898C38.6292 47.5339 38.8245 47.8059 39.215 47.8059ZM48.8986 40.4198C48.3686 40.4198 47.9919 40.1408 47.7687 39.5829C47.5595 39.0249 47.4549 38.1321 47.4549 36.9046C47.4549 35.0912 47.7129 33.3685 48.2291 31.7365C48.3546 31.3319 48.5569 31.039 48.8359 30.8577C49.1288 30.6624 49.5333 30.5647 50.0494 30.5647C50.3284 30.5647 50.5237 30.5996 50.6353 30.6694C50.7469 30.7391 50.8027 30.8716 50.8027 31.0669C50.8027 31.2901 50.6981 31.7923 50.4888 32.5734C50.3493 33.1314 50.2377 33.6196 50.154 34.0381C50.0704 34.4565 50.0006 34.9727 49.9448 35.5864C50.4051 34.3868 50.9212 33.4104 51.4932 32.6571C52.0651 31.9039 52.623 31.3668 53.1671 31.046C53.725 30.7252 54.2342 30.5647 54.6945 30.5647C55.6012 30.5647 56.0545 31.0181 56.0545 31.9248C56.0545 32.1061 55.9918 32.5455 55.8662 33.243C55.7546 33.8009 55.6988 34.1497 55.6988 34.2892C55.6988 34.7774 55.8732 35.0215 56.2219 35.0215C56.6125 35.0215 57.1147 34.7146 57.7284 34.1008C57.9098 33.9195 58.0981 33.8288 58.2934 33.8288C58.4747 33.8288 58.6142 33.9125 58.7118 34.0799C58.8234 34.2334 58.8792 34.4426 58.8792 34.7076C58.8792 35.2238 58.7397 35.6283 58.4608 35.9212C58.0702 36.3257 57.6099 36.6745 57.0798 36.9674C56.5637 37.2464 56.0127 37.3859 55.4268 37.3859C54.6875 37.3859 54.1226 37.1976 53.732 36.8209C53.3554 36.4443 53.1671 35.9352 53.1671 35.2935C53.1671 35.0843 53.188 34.875 53.2298 34.6658C53.2577 34.3868 53.2717 34.1985 53.2717 34.1008C53.2717 33.8777 53.195 33.7661 53.0415 33.7661C52.8323 33.7661 52.5533 34.0032 52.2046 34.4775C51.8698 34.9378 51.535 35.5516 51.2002 36.3188C50.8655 37.086 50.5934 37.895 50.3842 38.7459C50.2308 39.4015 50.0494 39.8479 49.8402 40.085C49.6449 40.3082 49.331 40.4198 48.8986 40.4198ZM66.2669 35.6492C66.4483 35.6492 66.5878 35.7329 66.6854 35.9003C66.797 36.0677 66.8528 36.2978 66.8528 36.5908C66.8528 37.1487 66.7203 37.5812 66.4552 37.888C65.9391 38.5157 65.2068 39.0946 64.2583 39.6247C63.3237 40.1548 62.3193 40.4198 61.2452 40.4198C59.7806 40.4198 58.6437 40.0223 57.8347 39.2272C57.0256 38.4321 56.6211 37.344 56.6211 35.9631C56.6211 35.0006 56.8234 34.1078 57.2279 33.2848C57.6324 32.4479 58.1904 31.7853 58.9018 31.2971C59.6271 30.8088 60.4432 30.5647 61.3499 30.5647C62.1589 30.5647 62.8075 30.8088 63.2958 31.2971C63.784 31.7713 64.0281 32.42 64.0281 33.243C64.0281 34.2055 63.6794 35.0354 62.9819 35.7329C62.2984 36.4164 61.1336 36.9604 59.4877 37.3649C59.8364 38.0066 60.499 38.3274 61.4754 38.3274C62.1031 38.3274 62.8145 38.1112 63.6096 37.6788C64.4187 37.2324 65.1161 36.6535 65.702 35.9421C65.8694 35.7468 66.0577 35.6492 66.2669 35.6492ZM60.9942 32.6153C60.478 32.6153 60.0386 32.9152 59.676 33.515C59.3272 34.1148 59.1529 34.8401 59.1529 35.691V35.7329C59.9759 35.5376 60.6245 35.2447 61.0988 34.8541C61.573 34.4635 61.8102 34.0102 61.8102 33.4941C61.8102 33.229 61.7335 33.0198 61.58 32.8663C61.4405 32.699 61.2452 32.6153 60.9942 32.6153ZM74.4811 35.6492C74.6625 35.6492 74.8019 35.7329 74.8996 35.9003C75.0112 36.0677 75.067 36.2978 75.067 36.5908C75.067 37.1487 74.9345 37.5812 74.6694 37.888C74.1533 38.5157 73.421 39.0946 72.4724 39.6247C71.5379 40.1548 70.5335 40.4198 69.4594 40.4198C67.9948 40.4198 66.8579 40.0223 66.0489 39.2272C65.2398 38.4321 64.8353 37.344 64.8353 35.9631C64.8353 35.0006 65.0376 34.1078 65.4421 33.2848C65.8466 32.4479 66.4046 31.7853 67.116 31.2971C67.8413 30.8088 68.6574 30.5647 69.564 30.5647C70.3731 30.5647 71.0217 30.8088 71.51 31.2971C71.9982 31.7713 72.2423 32.42 72.2423 33.243C72.2423 34.2055 71.8936 35.0354 71.1961 35.7329C70.5126 36.4164 69.3478 36.9604 67.7018 37.3649C68.0506 38.0066 68.7132 38.3274 69.6896 38.3274C70.3173 38.3274 71.0287 38.1112 71.8238 37.6788C72.6329 37.2324 73.3303 36.6535 73.9162 35.9421C74.0836 35.7468 74.2719 35.6492 74.4811 35.6492ZM69.2083 32.6153C68.6922 32.6153 68.2528 32.9152 67.8902 33.515C67.5414 34.1148 67.3671 34.8401 67.3671 35.691V35.7329C68.1901 35.5376 68.8387 35.2447 69.313 34.8541C69.7872 34.4635 70.0244 34.0102 70.0244 33.4941C70.0244 33.229 69.9477 33.0198 69.7942 32.8663C69.6547 32.699 69.4594 32.6153 69.2083 32.6153ZM82.6953 35.6492C82.8766 35.6492 83.0161 35.7329 83.1138 35.9003C83.2254 36.0677 83.2812 36.2978 83.2812 36.5908C83.2812 37.1487 83.1487 37.5812 82.8836 37.888C82.2838 38.6273 81.6282 39.2341 80.9168 39.7084C80.2054 40.1827 79.3894 40.4198 78.4687 40.4198C75.6231 40.4198 74.2003 38.4181 74.2003 34.4147C74.2003 33.8009 74.2212 33.1802 74.2631 32.5525H73.447C73.0286 32.5525 72.7426 32.4758 72.5892 32.3223C72.4497 32.1689 72.3799 31.9248 72.3799 31.59C72.3799 30.8088 72.6938 30.4183 73.3215 30.4183H74.5141C74.7513 28.8839 75.114 27.482 75.6022 26.2126C76.0904 24.9432 76.6763 23.9319 77.3598 23.1787C78.0572 22.4254 78.8035 22.0488 79.5986 22.0488C80.1845 22.0488 80.6448 22.3069 80.9796 22.823C81.3143 23.3391 81.4817 23.9877 81.4817 24.7689C81.4817 26.931 80.575 28.8141 78.7617 30.4183H81.1051C81.3283 30.4183 81.4887 30.4671 81.5864 30.5647C81.684 30.6624 81.7328 30.8437 81.7328 31.1088C81.7328 32.0712 80.9447 32.5525 79.3684 32.5525H76.8157C76.7878 33.2499 76.7739 33.794 76.7739 34.1845C76.7739 35.6353 76.9413 36.6535 77.2761 37.2394C77.6248 37.8253 78.1688 38.1182 78.9081 38.1182C79.5079 38.1182 80.038 37.9369 80.4983 37.5742C80.9586 37.2115 81.5027 36.6675 82.1304 35.9421C82.2978 35.7468 82.4861 35.6492 82.6953 35.6492ZM79.0337 24.0575C78.8244 24.0575 78.5873 24.3225 78.3223 24.8526C78.0712 25.3687 77.8271 26.094 77.5899 27.0286C77.3667 27.9493 77.1784 28.9745 77.025 30.1044C77.848 29.393 78.4617 28.5979 78.8663 27.7191C79.2847 26.8264 79.494 26.0173 79.494 25.292C79.494 24.469 79.3405 24.0575 79.0337 24.0575ZM84.3185 29.1838C83.7327 29.1838 83.2933 29.0513 83.0003 28.7862C82.7074 28.5072 82.5609 28.1236 82.5609 27.6354C82.5609 27.1472 82.7493 26.7427 83.1259 26.4218C83.5165 26.0871 83.9977 25.9197 84.5696 25.9197C85.0857 25.9197 85.5042 26.0452 85.825 26.2963C86.1459 26.5474 86.3063 26.9031 86.3063 27.3634C86.3063 27.9214 86.1249 28.3678 85.7623 28.7025C85.3996 29.0234 84.9183 29.1838 84.3185 29.1838ZM84.1511 40.4198C83.2444 40.4198 82.5819 40.099 82.1634 39.4573C81.7589 38.8157 81.5566 37.9648 81.5566 36.9046C81.5566 36.2769 81.6333 35.4748 81.7868 34.4984C81.9541 33.508 82.1634 32.5874 82.4145 31.7365C82.54 31.2901 82.7074 30.9832 82.9166 30.8158C83.1259 30.6484 83.4607 30.5647 83.921 30.5647C84.6324 30.5647 84.9881 30.8019 84.9881 31.2761C84.9881 31.6249 84.8556 32.4339 84.5905 33.7033C84.2558 35.2377 84.0884 36.2769 84.0884 36.8209C84.0884 37.2394 84.1442 37.5602 84.2558 37.7834C84.3673 38.0066 84.5557 38.1182 84.8207 38.1182C85.0718 38.1182 85.3856 37.9438 85.7623 37.5951C86.1389 37.2464 86.6411 36.6954 87.2688 35.9421C87.4362 35.7468 87.6245 35.6492 87.8337 35.6492C88.015 35.6492 88.1545 35.7329 88.2522 35.9003C88.3638 36.0677 88.4196 36.2978 88.4196 36.5908C88.4196 37.1487 88.2871 37.5812 88.022 37.888C86.6411 39.5759 85.3508 40.4198 84.1511 40.4198ZM88.2123 40.4198C87.6822 40.4198 87.3056 40.1408 87.0824 39.5829C86.8732 39.0249 86.7686 38.1321 86.7686 36.9046C86.7686 35.0912 87.0266 33.3685 87.5427 31.7365C87.6683 31.3319 87.8705 31.039 88.1495 30.8577C88.4425 30.6624 88.847 30.5647 89.3631 30.5647C89.6421 30.5647 89.8374 30.5996 89.949 30.6694C90.0606 30.7391 90.1164 30.8716 90.1164 31.0669C90.1164 31.2901 90.0117 31.7923 89.8025 32.5734C89.663 33.1314 89.5514 33.6196 89.4677 34.0381C89.384 34.4565 89.3143 34.9727 89.2585 35.5864C89.7188 34.3868 90.2349 33.4104 90.8068 32.6571C91.3788 31.9039 91.9367 31.3668 92.4807 31.046C93.0387 30.7252 93.5478 30.5647 94.0082 30.5647C94.9149 30.5647 95.3682 31.0181 95.3682 31.9248C95.3682 32.4688 95.2148 33.4522 94.9079 34.875C94.6428 36.0886 94.5103 36.8907 94.5103 37.2812C94.5103 37.8392 94.7126 38.1182 95.1171 38.1182C95.3961 38.1182 95.7239 37.9508 96.1005 37.616C96.4911 37.2673 97.0072 36.7093 97.6489 35.9421C97.8163 35.7468 98.0046 35.6492 98.2138 35.6492C98.3952 35.6492 98.5347 35.7329 98.6323 35.9003C98.7439 36.0677 98.7997 36.2978 98.7997 36.5908C98.7997 37.1487 98.6672 37.5812 98.4021 37.888C97.8023 38.6273 97.1537 39.2341 96.4562 39.7084C95.7727 40.1827 94.9916 40.4198 94.1128 40.4198C93.4014 40.4198 92.8643 40.2175 92.5017 39.813C92.139 39.3945 91.9576 38.7947 91.9576 38.0136C91.9576 37.623 92.0553 36.9255 92.2506 35.9212C92.4319 35.0424 92.5226 34.4356 92.5226 34.1008C92.5226 33.8777 92.4459 33.7661 92.2924 33.7661C92.1111 33.7661 91.853 34.0032 91.5182 34.4775C91.1974 34.9378 90.8626 35.5516 90.5139 36.3188C90.1791 37.086 89.9071 37.895 89.6979 38.7459C89.5444 39.4015 89.3631 39.8479 89.1539 40.085C88.9586 40.3082 88.6447 40.4198 88.2123 40.4198ZM104.2 31.2552C104.549 31.2552 104.793 31.311 104.932 31.4226C105.086 31.5203 105.162 31.7225 105.162 32.0294C105.162 32.1968 105.155 32.3293 105.142 32.4269C105.086 32.8594 104.911 33.9753 104.618 35.7747C104.409 36.9883 104.277 37.7904 104.221 38.181C103.691 41.7798 102.972 44.6185 102.066 46.6969C101.173 48.7893 99.9734 49.8355 98.4669 49.8355C97.7555 49.8355 97.1766 49.6123 96.7302 49.1659C96.2838 48.7335 96.0606 48.1616 96.0606 47.4502C96.0606 46.4598 96.4512 45.3927 97.2324 44.2488C98.0135 43.119 99.4782 41.724 101.626 40.0641L101.752 39.2481C101.515 39.6247 101.201 39.9176 100.81 40.1269C100.434 40.3222 100.057 40.4198 99.6804 40.4198C98.8156 40.4198 98.1251 40.1059 97.609 39.4782C97.0929 38.8505 96.8348 38.0275 96.8348 37.0092C96.8348 35.8933 97.0929 34.8401 97.609 33.8498C98.1251 32.8454 98.8086 32.0433 99.6595 31.4435C100.524 30.8298 101.438 30.5229 102.401 30.5229C102.707 30.5229 102.91 30.5857 103.007 30.7112C103.119 30.8228 103.21 31.032 103.279 31.3389C103.544 31.2831 103.851 31.2552 104.2 31.2552ZM100.434 38.3065C100.755 38.3065 101.061 38.1112 101.354 37.7206C101.647 37.3301 101.857 36.7721 101.982 36.0468L102.652 32.4688C102.08 32.4827 101.55 32.7059 101.061 33.1384C100.573 33.5568 100.183 34.1148 99.8897 34.8123C99.5968 35.5097 99.4503 36.249 99.4503 37.0302C99.4503 37.4626 99.534 37.7834 99.7014 37.9927C99.8827 38.2019 100.127 38.3065 100.434 38.3065ZM98.697 47.8059C99.0458 47.8059 99.4363 47.3874 99.8688 46.5504C100.315 45.7135 100.741 44.3814 101.145 42.554C100.071 43.4747 99.2968 44.3046 98.8226 45.0439C98.3483 45.7832 98.1112 46.4319 98.1112 46.9898C98.1112 47.227 98.153 47.4223 98.2367 47.5757C98.3344 47.7292 98.4878 47.8059 98.697 47.8059ZM110.296 40.8801C109.57 40.8801 109.012 40.7127 108.622 40.378C108.245 40.0432 108.057 39.6666 108.057 39.2481C108.057 38.8854 108.189 38.5715 108.455 38.3065C108.72 38.0415 109.11 37.909 109.626 37.909C109.808 37.909 110.017 37.9299 110.254 37.9717C110.505 37.9996 110.693 38.0206 110.819 38.0345C110.805 37.6718 110.721 37.3301 110.568 37.0092C110.428 36.6884 110.247 36.3815 110.024 36.0886C109.801 35.7817 109.591 35.5167 109.396 35.2935C108.964 36.1165 108.531 36.8 108.099 37.344C107.68 37.888 107.22 38.4042 106.718 38.8924C106.467 39.1435 106.202 39.269 105.923 39.269C105.7 39.269 105.518 39.1923 105.379 39.0388C105.239 38.8714 105.169 38.6692 105.169 38.4321C105.169 38.1531 105.267 37.895 105.462 37.6579L105.734 37.3231C106.502 36.3746 107.081 35.5934 107.471 34.9796C107.722 34.5751 107.973 34.0939 108.224 33.5359C108.489 32.9779 108.831 32.2177 109.25 31.2552C109.515 30.6415 110.066 30.3346 110.903 30.3346C111.293 30.3346 111.565 30.3695 111.719 30.4392C111.872 30.5089 111.949 30.6205 111.949 30.774C111.949 30.8577 111.921 30.9902 111.865 31.1715C111.809 31.3529 111.733 31.5342 111.635 31.7155C111.384 32.2177 111.258 32.6432 111.258 32.9919C111.258 33.2011 111.328 33.4313 111.468 33.6824C111.621 33.9335 111.851 34.2473 112.158 34.6239C112.604 35.2098 112.939 35.712 113.162 36.1304C113.399 36.535 113.518 36.9813 113.518 37.4696C113.518 38.0554 113.379 38.6134 113.1 39.1435C112.835 39.6596 112.458 40.0781 111.97 40.3989C111.481 40.7197 110.924 40.8801 110.296 40.8801ZM128.525 34.4565C128.915 34.4565 129.11 34.7495 129.11 35.3353C129.11 36.4373 128.246 36.9883 126.516 36.9883C126.181 36.9883 125.7 36.9255 125.072 36.8C125.254 37.6648 125.4 38.6273 125.512 39.6875C125.637 40.7337 125.7 41.5985 125.7 42.282C125.7 43.7885 125.456 44.9393 124.968 45.7344C124.479 46.5295 123.838 46.9271 123.043 46.9271C122.038 46.9271 121.32 46.2157 120.887 44.7929C120.469 43.37 120.26 41.2219 120.26 38.3484C120.26 35.6701 120.546 32.957 121.118 30.209C121.703 27.4471 122.499 25.1664 123.503 23.367C124.521 21.5536 125.637 20.6469 126.851 20.6469C127.506 20.6469 128.015 20.9398 128.378 21.5257C128.755 22.1116 128.943 22.8997 128.943 23.8901C128.943 27.1681 126.983 30.7391 123.064 34.603C122.924 35.97 122.854 37.1697 122.854 38.2019C122.854 39.6387 122.903 41.1103 123.001 42.6168C123.098 44.1372 123.259 44.8975 123.482 44.8975C123.9 44.8975 124.11 44.1721 124.11 42.7214C124.11 41.6334 124.033 40.5802 123.88 39.5619C123.74 38.5436 123.545 37.4696 123.294 36.3397C123.28 36.1583 123.336 35.9282 123.461 35.6492C123.601 35.3702 123.768 35.1261 123.963 34.9169C124.159 34.7076 124.333 34.603 124.486 34.603C124.765 34.603 125.1 34.617 125.491 34.6449C125.616 34.6588 125.763 34.6658 125.93 34.6658C126.488 34.6658 127.109 34.617 127.792 34.5193C127.904 34.5054 128.022 34.4914 128.148 34.4775C128.274 34.4635 128.399 34.4565 128.525 34.4565ZM126.411 22.7184C126.16 22.7184 125.846 23.1438 125.47 23.9947C125.107 24.8456 124.744 25.9755 124.382 27.3843C124.019 28.7793 123.705 30.2579 123.44 31.8202C124.556 30.5508 125.414 29.2326 126.014 27.8656C126.614 26.4846 126.92 25.1943 126.934 23.9947C126.934 23.1438 126.76 22.7184 126.411 22.7184ZM129.018 40.4198C128.488 40.4198 128.111 40.1408 127.888 39.5829C127.678 39.0249 127.574 38.1321 127.574 36.9046C127.574 35.0912 127.832 33.3685 128.348 31.7365C128.474 31.3319 128.676 31.039 128.955 30.8577C129.248 30.6624 129.652 30.5647 130.168 30.5647C130.447 30.5647 130.643 30.5996 130.754 30.6694C130.866 30.7391 130.922 30.8716 130.922 31.0669C130.922 31.2901 130.817 31.7923 130.608 32.5734C130.468 33.1314 130.357 33.6196 130.273 34.0381C130.189 34.4565 130.12 34.9727 130.064 35.5864C130.524 34.3868 131.04 33.4104 131.612 32.6571C132.184 31.9039 132.742 31.3668 133.286 31.046C133.844 30.7252 134.353 30.5647 134.813 30.5647C135.72 30.5647 136.174 31.0181 136.174 31.9248C136.174 32.1061 136.111 32.5455 135.985 33.243C135.874 33.8009 135.818 34.1497 135.818 34.2892C135.818 34.7774 135.992 35.0215 136.341 35.0215C136.731 35.0215 137.234 34.7146 137.847 34.1008C138.029 33.9195 138.217 33.8288 138.412 33.8288C138.594 33.8288 138.733 33.9125 138.831 34.0799C138.942 34.2334 138.998 34.4426 138.998 34.7076C138.998 35.2238 138.859 35.6283 138.58 35.9212C138.189 36.3257 137.729 36.6745 137.199 36.9674C136.683 37.2464 136.132 37.3859 135.546 37.3859C134.806 37.3859 134.242 37.1976 133.851 36.8209C133.474 36.4443 133.286 35.9352 133.286 35.2935C133.286 35.0843 133.307 34.875 133.349 34.6658C133.377 34.3868 133.391 34.1985 133.391 34.1008C133.391 33.8777 133.314 33.7661 133.16 33.7661C132.951 33.7661 132.672 34.0032 132.324 34.4775C131.989 34.9378 131.654 35.5516 131.319 36.3188C130.984 37.086 130.712 37.895 130.503 38.7459C130.35 39.4015 130.168 39.8479 129.959 40.085C129.764 40.3082 129.45 40.4198 129.018 40.4198ZM147.725 33.8916C147.906 33.8916 148.046 33.9823 148.144 34.1636C148.241 34.345 148.29 34.5751 148.29 34.8541C148.29 35.5237 148.088 35.9212 147.683 36.0468C146.846 36.3397 145.926 36.5071 144.921 36.5489C144.656 37.7206 144.133 38.6622 143.352 39.3736C142.571 40.0711 141.685 40.4198 140.695 40.4198C139.858 40.4198 139.139 40.2175 138.54 39.813C137.954 39.4085 137.507 38.8715 137.2 38.2019C136.894 37.5323 136.74 36.807 136.74 36.0258C136.74 34.9657 136.942 34.0241 137.347 33.2011C137.751 32.3642 138.309 31.7155 139.021 31.2552C139.732 30.781 140.52 30.5438 141.385 30.5438C142.445 30.5438 143.296 30.9135 143.938 31.6528C144.593 32.3781 144.977 33.2778 145.089 34.3519C145.744 34.3101 146.525 34.1706 147.432 33.9335C147.544 33.9056 147.641 33.8916 147.725 33.8916ZM140.862 38.2019C141.308 38.2019 141.692 38.0206 142.013 37.6579C142.348 37.2952 142.571 36.7721 142.682 36.0886C142.25 35.7957 141.915 35.4121 141.678 34.9378C141.455 34.4635 141.343 33.9614 141.343 33.4313C141.343 33.2081 141.364 32.9849 141.406 32.7617H141.301C140.743 32.7617 140.276 33.0337 139.9 33.5778C139.537 34.1078 139.356 34.8611 139.356 35.8375C139.356 36.6047 139.502 37.1906 139.795 37.5951C140.102 37.9996 140.458 38.2019 140.862 38.2019ZM147.98 40.4198C147.45 40.4198 147.073 40.1408 146.85 39.5829C146.641 39.0249 146.536 38.1321 146.536 36.9046C146.536 35.0912 146.794 33.3685 147.31 31.7365C147.436 31.3319 147.638 31.039 147.917 30.8577C148.21 30.6624 148.614 30.5647 149.131 30.5647C149.409 30.5647 149.605 30.5996 149.716 30.6694C149.828 30.7391 149.884 30.8716 149.884 31.0669C149.884 31.2901 149.779 31.7923 149.57 32.5734C149.43 33.1314 149.319 33.6196 149.235 34.0381C149.151 34.4426 149.082 34.9517 149.026 35.5655C149.403 34.4775 149.849 33.5568 150.365 32.8036C150.895 32.0503 151.432 31.4924 151.976 31.1297C152.534 30.7531 153.057 30.5647 153.545 30.5647C154.034 30.5647 154.375 30.6763 154.571 30.8995C154.78 31.1227 154.885 31.4645 154.885 31.9248C154.885 32.3712 154.752 33.1802 154.487 34.3519C154.375 34.8541 154.299 35.2307 154.257 35.4818C154.717 34.3101 155.226 33.3546 155.784 32.6153C156.356 31.876 156.914 31.3529 157.458 31.046C158.002 30.7252 158.504 30.5647 158.965 30.5647C159.411 30.5647 159.746 30.6833 159.969 30.9204C160.206 31.1436 160.325 31.4784 160.325 31.9248C160.325 32.2875 160.248 32.971 160.095 33.9753C159.955 34.8262 159.843 35.6353 159.76 36.4025C159.676 37.1557 159.634 37.9996 159.634 38.9342C159.634 39.4643 159.523 39.8479 159.299 40.085C159.09 40.3082 158.741 40.4198 158.253 40.4198C157.793 40.4198 157.458 40.3012 157.249 40.0641C157.04 39.827 156.935 39.4713 156.935 38.997C156.935 38.439 157.033 37.5184 157.228 36.2351C157.395 35.1191 157.479 34.4077 157.479 34.1008C157.479 33.8777 157.402 33.7661 157.249 33.7661C157.068 33.7661 156.81 34.0032 156.475 34.4775C156.14 34.9378 155.805 35.5516 155.47 36.3188C155.136 37.086 154.864 37.895 154.654 38.7459C154.501 39.4155 154.32 39.8618 154.11 40.085C153.915 40.3082 153.594 40.4198 153.148 40.4198C152.688 40.4198 152.339 40.2036 152.102 39.7712C151.878 39.3248 151.767 38.7878 151.767 38.16C151.767 37.63 151.837 36.8628 151.976 35.8584C152.088 34.9657 152.144 34.3798 152.144 34.1008C152.144 33.8777 152.067 33.7661 151.913 33.7661C151.704 33.7661 151.439 34.0172 151.118 34.5193C150.797 35.0215 150.484 35.6631 150.177 36.4443C149.884 37.2255 149.647 37.9927 149.465 38.7459C149.312 39.4015 149.131 39.8479 148.921 40.085C148.726 40.3082 148.412 40.4198 147.98 40.4198Z" fill="#FFB81C"/>
<path d="M36.4418 256.342C36.8635 256.098 38.1023 255.288 38.1023 254.168M64.3067 211.003C67.4175 213.261 69.1555 215.593 69.5898 218.633M27.0042 243.569L27.0041 243.569L27.0037 243.567L27.0021 243.558L26.9957 243.522C26.9903 243.49 26.9826 243.442 26.9738 243.382C26.9561 243.26 26.9339 243.086 26.9162 242.875C26.8807 242.451 26.8634 241.886 26.9341 241.309C27.005 240.73 27.1631 240.151 27.4701 239.694C27.7737 239.241 28.2257 238.902 28.9038 238.798C29.5916 238.692 30.1264 238.876 30.5486 239.21C30.9756 239.548 31.2935 240.044 31.5273 240.566C31.7605 241.088 31.9054 241.625 31.992 242.033C32.0352 242.237 32.0636 242.408 32.0813 242.527C32.0901 242.587 32.0962 242.634 32.1001 242.666L32.1042 242.702L32.1047 242.706V246.821H31.1302V247.121H32.2547H35.4335C35.541 247.121 35.6436 247.144 35.7349 247.19C36.0127 247.331 36.5761 247.64 37.0678 248.049C37.5686 248.466 37.9523 248.953 37.9523 249.445C37.9523 249.973 37.7912 250.515 37.6256 250.931C37.5433 251.138 37.461 251.31 37.3994 251.431C37.3762 251.477 37.356 251.515 37.3398 251.544H33.1543V251.844H37.3398C37.3558 251.874 37.3759 251.912 37.3989 251.958C37.4602 252.081 37.5423 252.259 37.6245 252.478C37.7893 252.918 37.9523 253.518 37.9523 254.168C37.9523 254.776 37.5448 255.3 37.1039 255.686C36.8867 255.876 36.6687 256.026 36.5047 256.129C36.4229 256.18 36.3549 256.219 36.3078 256.245C36.2913 256.254 36.2774 256.262 36.2663 256.268H33.8291V256.568H36.2441C36.2449 256.568 36.2456 256.569 36.2463 256.57C36.2749 256.597 36.3161 256.637 36.3657 256.687C36.4653 256.789 36.5982 256.932 36.732 257.1C37.0062 257.445 37.2591 257.862 37.2778 258.225C37.2875 258.412 37.2222 258.623 37.1042 258.843C36.9871 259.062 36.8247 259.277 36.6573 259.469C36.4904 259.66 36.3216 259.824 36.1942 259.941C36.1306 259.999 36.0777 260.045 36.0408 260.077C36.0328 260.084 36.0255 260.09 36.0191 260.095C36.017 260.097 36.0149 260.099 36.013 260.1L35.9854 260.105C35.9421 260.113 35.878 260.124 35.7952 260.138C35.6296 260.165 35.3891 260.203 35.0904 260.246C34.4929 260.332 33.6632 260.435 32.7345 260.506C30.8704 260.648 28.632 260.66 27.0671 260.154C26.9795 260.126 26.8984 260.077 26.8253 260.013C26.7736 259.967 26.7221 259.921 26.6709 259.876C25.742 259.056 24.8947 258.308 24.2393 257.219C23.5499 256.074 23.0675 254.54 22.9583 252.137C22.8219 249.136 23.82 247.033 24.8484 245.681C25.3633 245.004 25.8864 244.514 26.28 244.194C26.4505 244.056 26.5965 243.949 26.7069 243.873L27.0042 243.569ZM36.5799 256.477C36.5707 256.468 36.5618 256.459 36.5532 256.45C36.5865 256.431 36.6236 256.408 36.6637 256.383C36.8371 256.275 37.0689 256.115 37.3015 255.912C37.7602 255.51 38.2523 254.91 38.2523 254.168C38.2523 253.47 38.0779 252.833 37.9054 252.373C37.819 252.142 37.7324 251.955 37.6672 251.824C37.6408 251.771 37.6178 251.728 37.5997 251.694C37.6177 251.662 37.6404 251.619 37.6667 251.567C37.7316 251.44 37.818 251.259 37.9043 251.042C38.0761 250.611 38.2523 250.028 38.2523 249.445C38.2523 248.807 37.768 248.242 37.2598 247.819C36.7427 247.388 36.1563 247.068 35.8706 246.923C35.7328 246.853 35.5828 246.821 35.4335 246.821H32.4047V242.795C32.4104 242.792 32.4164 242.79 32.4227 242.787C32.4916 242.757 32.5926 242.713 32.7206 242.661C32.9766 242.557 33.3396 242.418 33.7673 242.278C34.6252 241.999 35.7322 241.723 36.7528 241.723C37.0858 241.723 37.4382 241.732 37.8042 241.748C38.1423 241.762 38.4416 241.561 38.6771 241.287C38.9152 241.009 39.1089 240.634 39.2379 240.241C39.3669 239.849 39.4347 239.428 39.412 239.057C39.3895 238.691 39.276 238.344 39.0106 238.14C37.6904 237.124 36.5123 235.979 35.7562 234.748C34.6754 232.987 34.0288 230.29 33.7283 228.756C33.5965 228.084 32.8771 227.674 32.2261 227.82C31.1325 228.067 29.3563 228.254 27.4724 227.583C25.5934 226.914 23.5892 225.385 22.044 222.166C19.4833 216.832 20.4717 209.727 24.0526 205.004C25.0699 203.662 26.6947 202.449 28.3427 201.454C29.9881 200.46 31.6438 199.691 32.7116 199.233C33.055 199.085 33.2258 198.784 33.3211 198.467C33.3974 198.212 33.4313 197.925 33.4617 197.667C33.4687 197.607 33.4756 197.549 33.4827 197.493C33.4917 197.423 33.5185 197.365 33.5692 197.317C33.6208 197.267 33.7071 197.22 33.8506 197.19C37.1618 196.905 39.0547 198.209 39.9699 199.143C40.063 199.239 40.1945 199.289 40.324 199.316C40.4562 199.343 40.6043 199.35 40.7495 199.345C41.0386 199.334 41.3408 199.274 41.5273 199.206C41.9443 199.055 42.3118 199.031 42.6378 199.105C42.9643 199.178 43.26 199.351 43.529 199.608C44.0709 200.126 44.4923 200.975 44.816 201.986C45.462 204.003 45.6947 206.583 45.778 208.177C45.8186 208.955 46.6536 209.454 47.3608 209.135C53.0408 206.569 56.9379 207.103 63.6029 208.412L63.7799 210.359C63.8079 210.667 63.9706 210.945 64.2186 211.125C67.3102 213.368 69.0148 215.668 69.4413 218.654C69.6669 220.233 70.1739 222.824 70.6236 225.016C70.8486 226.113 71.0596 227.112 71.2142 227.836C71.2916 228.198 71.3549 228.492 71.3988 228.695L71.4496 228.929L71.4629 228.99L71.4659 229.004L71.4667 229.01L71.4714 229.051C71.4755 229.088 71.4813 229.141 71.4883 229.211C71.5023 229.35 71.5208 229.552 71.5392 229.803C71.5758 230.305 71.6114 231.003 71.6072 231.785C71.5987 233.355 71.4294 235.238 70.8036 236.561C70.1392 237.967 68.7465 239.189 67.2384 240.174C65.7341 241.157 64.1342 241.891 63.0798 242.326C62.4189 242.599 62.1712 243.447 62.6791 243.987C63.1779 244.517 63.8602 245.187 64.6237 245.779C65.3853 246.37 66.2379 246.892 67.0771 247.116C67.6876 247.279 68.3185 247.336 68.7942 247.353C69.0326 247.361 69.2333 247.36 69.3748 247.356C69.3981 247.355 69.4198 247.354 69.4398 247.354V248.321C69.4398 248.51 69.4865 248.737 69.551 248.963C69.6161 249.191 69.7024 249.428 69.7879 249.642C69.8734 249.855 69.9589 250.048 70.0229 250.186C70.0521 250.25 70.0769 250.302 70.0953 250.34C70.0793 250.369 70.0591 250.407 70.0357 250.451C69.9767 250.563 69.8972 250.721 69.8155 250.903C69.6541 251.262 69.4762 251.731 69.4404 252.131C69.3762 252.847 69.7356 253.669 70.0893 254.292C70.2686 254.608 70.4514 254.881 70.5893 255.075C70.6578 255.172 70.7154 255.249 70.7562 255.302C70.7511 255.31 70.7458 255.319 70.7403 255.328C70.6967 255.401 70.6385 255.503 70.5802 255.619C70.4671 255.846 70.3394 256.154 70.3394 256.418C70.3394 256.681 70.4671 256.989 70.5802 257.216C70.6385 257.332 70.6967 257.434 70.7403 257.507C70.742 257.51 70.7436 257.512 70.7452 257.515C70.2434 257.954 69.7199 258.206 68.9831 258.299C68.2055 258.397 67.1876 258.319 65.7035 258.082L62.9813 251.413L62.7036 251.526L65.4571 258.272C65.4617 258.284 65.4676 258.295 65.475 258.305C65.475 258.305 65.475 258.305 65.475 258.305L65.475 258.305L65.4754 258.305L65.4772 258.308L65.4849 258.319C65.4918 258.329 65.5022 258.344 65.5156 258.363C65.5424 258.403 65.5814 258.462 65.6293 258.538C65.7252 258.692 65.8565 258.915 65.9972 259.192C66.279 259.749 66.596 260.521 66.7429 261.391C67.0203 263.033 67.0007 264.266 66.9777 265.712C66.9692 266.248 66.9602 266.813 66.9657 267.439C66.9975 271.055 68.0277 273.442 69.4098 275.739C69.8201 276.421 70.2593 277.093 70.7118 277.784C71.7856 279.425 72.9344 281.181 73.9508 283.468C74.1584 283.935 74.1281 284.326 73.9297 284.662C73.7258 285.008 73.3332 285.315 72.7798 285.576C72.2009 285.85 71.4651 286.064 70.634 286.223C70.6841 286.083 70.6641 285.919 70.5478 285.79C70.5335 285.775 70.5219 285.754 70.5144 285.729C70.4456 285.501 70.1871 284.75 69.5962 284.159L68.9214 283.484L68.7093 283.696L69.384 284.371C69.9224 284.91 70.1632 285.603 70.2272 285.816C70.2461 285.879 70.2783 285.94 70.3256 285.992L70.4367 285.891L70.3257 285.992C70.3991 286.073 70.3444 286.203 70.2351 286.207L66.1943 286.353C66.0982 286.357 66.0302 286.349 65.9877 286.332C65.969 286.324 65.9594 286.315 65.9537 286.308C65.9482 286.301 65.9406 286.288 65.9368 286.262C65.8715 285.802 65.6816 284.81 64.4159 283.702L64.2184 283.928C65.4157 284.976 65.5816 285.894 65.6398 286.304C65.65 286.376 65.6759 286.441 65.719 286.495C65.7377 286.519 65.7585 286.539 65.7806 286.556C64.735 286.526 63.7105 286.437 62.788 286.295C61.9748 286.169 61.2443 286.002 60.6499 285.799C60.0517 285.594 59.6068 285.357 59.35 285.1C58.1951 283.945 57.1307 281.968 56.2711 280.009C55.4136 278.055 54.7681 276.138 54.4449 275.119C54.2863 274.619 53.7895 274.305 53.2705 274.37C51.8695 274.547 50.8088 274.559 49.2752 274.372C48.7435 274.307 48.2385 274.635 48.0885 275.151C47.7265 276.397 46.915 278.926 45.7044 281.234C45.099 282.389 44.3968 283.483 43.6054 284.332C42.8132 285.183 41.9416 285.779 40.9981 285.958C38.6538 286.405 35.1337 286.573 32.4536 286.211C31.1089 286.03 30.0009 285.719 29.3549 285.261C29.0348 285.035 28.8413 284.782 28.7761 284.503C28.7111 284.225 28.7666 283.894 29.0025 283.496L29.0027 283.496L29.0028 283.495C29.007 283.488 29.0081 283.486 29.0116 283.481C29.0918 283.356 30.274 281.504 31.6052 279.032C32.935 276.563 34.4199 273.464 35.0988 270.849C35.6241 268.826 35.9059 266.172 36.0567 264.03C36.1322 262.958 36.1751 262.011 36.199 261.333C36.211 260.994 36.2183 260.721 36.2225 260.534C36.2247 260.44 36.2261 260.367 36.2269 260.318L36.227 260.312C36.2297 260.31 36.2324 260.308 36.2352 260.305C36.2745 260.272 36.3303 260.223 36.3968 260.162C36.5298 260.041 36.707 259.868 36.8833 259.666C37.0591 259.465 37.2371 259.231 37.3686 258.985C37.4993 258.741 37.5911 258.473 37.5774 258.209C37.5535 257.744 37.2442 257.262 36.9667 256.913C36.8248 256.735 36.6845 256.584 36.5799 256.477ZM71.0625 257.457L71.0598 257.452L71.0465 257.432C71.0348 257.413 71.0179 257.386 70.9976 257.352C70.9568 257.285 70.9026 257.19 70.8485 257.081C70.7366 256.858 70.6394 256.604 70.6394 256.418C70.6394 256.231 70.7366 255.977 70.8485 255.754C70.9026 255.645 70.9568 255.551 70.9976 255.483C71.0033 255.473 71.0087 255.464 71.0138 255.456C71.0165 255.451 71.0191 255.447 71.0217 255.443H73.1883V255.143H71.0122C71.0071 255.136 71.0015 255.129 70.9955 255.121C70.9565 255.07 70.9007 254.995 70.8338 254.901C70.7001 254.713 70.5232 254.449 70.3502 254.144C69.9992 253.526 69.6839 252.774 69.7392 252.158C69.7703 251.81 69.9298 251.38 70.0891 251.026C70.1677 250.851 70.2443 250.699 70.3013 250.591C70.321 250.553 70.3384 250.521 70.3526 250.495H73.1883V250.195H70.3583C70.3415 250.16 70.32 250.114 70.2953 250.061C70.2328 249.925 70.1495 249.738 70.0664 249.53C69.9832 249.322 69.9008 249.095 69.8394 248.88C69.7774 248.663 69.7398 248.468 69.7398 248.321V247.267C69.7625 247.248 69.7918 247.224 69.8265 247.196C69.9141 247.126 70.0357 247.031 70.1721 246.93C70.4507 246.725 70.7711 246.514 70.9886 246.438C71.0995 246.4 71.3675 246.345 71.6216 246.299C71.7457 246.277 71.8622 246.257 71.9477 246.243L72.0496 246.226L72.0739 246.222L72.1011 246.223L72.2212 246.225C72.3268 246.227 72.4827 246.231 72.6841 246.234C73.0867 246.241 73.6711 246.249 74.3983 246.255C75.8421 246.265 77.8489 246.266 80.114 246.223C80.2437 246.321 80.3783 246.486 80.5107 246.719C80.6544 246.972 80.7894 247.294 80.9103 247.671C81.1521 248.424 81.3331 249.382 81.4167 250.413C81.5845 252.482 81.3576 254.807 80.4801 256.343C80.0524 257.092 79.0726 257.843 77.9582 258.391C76.845 258.939 75.6367 259.264 74.7752 259.192C73.4542 259.082 72.5228 258.642 71.9234 258.233C71.6233 258.029 71.4059 257.832 71.2644 257.687C71.1937 257.614 71.1419 257.555 71.1083 257.514C71.0916 257.494 71.0793 257.479 71.0715 257.468L71.0631 257.457L71.0625 257.457ZM72.2275 245.925L72.1612 245.924C72.1533 245.906 72.1442 245.886 72.1341 245.863C72.0923 245.769 72.0331 245.633 71.9633 245.466C71.8236 245.131 71.6423 244.67 71.4751 244.169C71.3077 243.666 71.1557 243.126 71.0731 242.631C70.9897 242.131 70.9811 241.697 71.0815 241.396C71.3228 240.672 71.713 239.9 72.2279 239.314C72.7429 238.728 73.3689 238.342 74.0864 238.35C74.3254 238.352 74.5031 238.405 74.6389 238.491C74.7747 238.577 74.8792 238.702 74.9609 238.866C75.128 239.202 75.1889 239.679 75.2272 240.242C75.2367 240.382 75.2449 240.526 75.2531 240.674C75.2777 241.11 75.3037 241.575 75.3719 242.021C75.4634 242.62 75.6334 243.209 75.9922 243.688C76.6217 244.527 77.0863 244.996 77.6874 245.337C78.1002 245.571 78.5742 245.742 79.2008 245.938C77.3119 245.965 75.6463 245.964 74.4006 245.955C73.6744 245.949 73.091 245.941 72.6892 245.934C72.4883 245.931 72.3328 245.928 72.2275 245.925ZM64.0787 210.332L63.8951 208.313L63.9335 208.231C63.9697 208.153 64.0231 208.04 64.092 207.897C64.2298 207.611 64.4292 207.206 64.6758 206.73C65.1693 205.777 65.8501 204.544 66.6015 203.416C67.3559 202.282 68.1703 201.272 68.9278 200.749C69.3061 200.488 69.6523 200.361 69.9584 200.381C70.2563 200.401 70.5471 200.563 70.8161 200.95C70.9289 201.113 71.0445 201.324 71.1478 201.534C71.3818 202.008 71.9138 202.283 72.4374 202.158C73.3944 201.93 75.0423 201.593 76.4164 201.589C77.1063 201.587 77.7057 201.67 78.1129 201.876C78.3139 201.978 78.4617 202.107 78.5538 202.265C78.6453 202.422 78.6891 202.619 78.6619 202.873C78.6216 203.249 78.4303 203.702 78.2299 204.086C77.9725 204.579 78.0781 205.212 78.5267 205.562C81.2475 207.685 82.9486 210.014 83.8122 212.609C84.6761 215.205 84.706 218.081 84.0618 221.302C83.4318 224.452 81.5585 226.305 79.7587 227.386C77.9556 228.469 76.23 228.774 75.9172 228.823C75.8888 228.827 75.8626 228.829 75.8295 228.829H71.7348L71.692 228.631C71.6481 228.429 71.5849 228.135 71.5076 227.773C71.3531 227.05 71.1423 226.052 70.9175 224.956C70.4676 222.763 69.9624 220.181 69.7383 218.611C69.2963 215.517 67.5248 213.153 64.3948 210.882C64.2147 210.751 64.0986 210.551 64.0787 210.332ZM31.3905 285.905C31.6964 285.271 32.0434 284.597 33.1319 283.944L32.9775 283.687C31.8168 284.383 31.4375 285.117 31.1203 285.774L31.3905 285.905ZM35.6787 286.289C35.6787 285.256 36.5074 284.622 37.1505 284.407L37.0556 284.123C36.3493 284.358 35.3787 285.074 35.3787 286.289H35.6787Z" fill="#A8B7BE" stroke="#747474" stroke-width="0.3" stroke-linejoin="round"/>
<path d="M58.4126 223.764C57.5132 222.865 53.9146 222.864 53.0149 223.764C51.2157 225.563 49.7067 232.098 51.2155 234.11C52.565 235.909 58.4127 236.134 59.7621 234.11C61.3365 230.286 59.312 224.664 58.4126 223.764Z" fill="#343434"/>
<ellipse cx="46.5492" cy="223.089" rx="1.88924" ry="1.88928" fill="#232323"/>
<ellipse cx="63.1925" cy="224.439" rx="1.7543" ry="1.75433" fill="#232323"/>
<path d="M53.5 245.5C60.5711 245.5 63.0909 252 66 260C67.8182 265 64.821 269.59 61 271.5C54 275 47 275.5 44 270.5C41.6698 266.616 41.6991 262.156 43.5 258C45.7569 252.792 48.5 245.5 53.5 245.5Z" fill="#BCC6CA"/>
<path d="M41.4864 204.357C44.0076 207.315 42.5514 211.714 38.2556 216.357C33.9598 221 28.981 223.959 26.4598 221C23.9387 218.041 24.8204 209.312 29.1258 205.643C33.4311 201.974 38.9653 201.398 41.4864 204.357Z" fill="#BCC6CA"/>
<path d="M71.7043 206.602C69.0016 207.969 67.7042 211.102 71.1823 217.098C74.6603 223.094 72.7043 225.102 76.2043 225.102C79.2329 225.102 83.0772 216.315 80.9695 212.148C78.8617 207.98 76.7043 206.102 71.7043 206.602Z" fill="#BCC6CA"/>
<path d="M251.413 88.1236C250.275 88.1236 249.245 87.8434 248.322 87.2829C247.415 86.7224 246.698 85.9146 246.17 84.8595C245.643 83.788 245.379 82.5269 245.379 81.0762C245.379 78.5704 245.915 76.2542 246.987 74.1276C248.058 71.9845 249.641 70.27 251.734 68.9842C253.828 67.6818 256.342 67.0306 259.276 67.0306C260.035 67.0306 260.842 67.0883 261.7 67.2037C262.573 67.3191 263.365 67.4922 264.074 67.723C264.535 67.8549 264.766 68.1846 264.766 68.7122C264.766 69.1408 264.601 69.5447 264.271 69.9238C263.958 70.303 263.587 70.4926 263.159 70.4926C263.027 70.4926 262.928 70.4843 262.862 70.4678C262.005 70.27 261.271 70.1299 260.661 70.0475C260.051 69.9486 259.408 69.8991 258.732 69.8991C256.639 69.8991 254.858 70.4101 253.391 71.4322C251.924 72.4378 250.828 73.7732 250.102 75.4382C249.377 77.1032 249.014 78.9001 249.014 80.8289C249.014 82.2301 249.286 83.3182 249.83 84.093C250.391 84.8513 251.116 85.2305 252.006 85.2305C253.012 85.2305 253.894 84.8183 254.652 83.9941C255.411 83.1698 256.103 81.8345 256.729 79.9881C257.356 78.1418 257.974 75.636 258.584 72.4708C258.683 72.0092 258.881 71.696 259.177 71.5311C259.474 71.3663 259.87 71.2839 260.364 71.2839C261.535 71.2839 262.12 71.663 262.12 72.4214C262.12 72.5532 262.095 72.7181 262.046 72.9159C261.617 74.515 261.222 76.2872 260.859 78.2324C260.513 80.1612 260.34 81.6284 260.34 82.634C260.34 83.5242 260.472 84.1754 260.735 84.5875C260.999 84.9832 261.403 85.181 261.947 85.181C262.474 85.181 262.977 85.0079 263.455 84.6617C263.933 84.299 264.535 83.6891 265.261 82.8318C265.458 82.6011 265.681 82.4857 265.928 82.4857C266.142 82.4857 266.307 82.5846 266.423 82.7824C266.555 82.9802 266.621 83.2522 266.621 83.5984C266.621 84.2413 266.464 84.7524 266.151 85.1316C265.343 86.1042 264.552 86.846 263.777 87.3571C263.002 87.8681 262.054 88.1236 260.933 88.1236C259.779 88.1236 258.848 87.7939 258.139 87.1345C257.43 86.4586 256.985 85.5107 256.804 84.2908C255.584 86.846 253.787 88.1236 251.413 88.1236ZM266.377 88.1236C265.75 88.1236 265.305 87.7939 265.041 87.1345C264.794 86.4751 264.67 85.42 264.67 83.9693C264.67 81.8262 264.975 79.7903 265.585 77.8615C265.734 77.3834 265.973 77.0372 266.302 76.8229C266.649 76.5921 267.127 76.4767 267.737 76.4767C268.066 76.4767 268.297 76.518 268.429 76.6004C268.561 76.6828 268.627 76.8394 268.627 77.0702C268.627 77.334 268.503 77.9275 268.256 78.8506C268.091 79.51 267.959 80.087 267.86 80.5816C267.761 81.0597 267.679 81.6614 267.613 82.3867C268.058 81.1009 268.586 80.0129 269.196 79.1226C269.822 78.2324 270.457 77.573 271.1 77.1444C271.759 76.6993 272.377 76.4767 272.954 76.4767C273.531 76.4767 273.935 76.6086 274.166 76.8724C274.413 77.1362 274.537 77.5401 274.537 78.0841C274.537 78.6116 274.38 79.5677 274.067 80.9525C273.935 81.546 273.844 81.9911 273.795 82.2878C274.619 80.2601 275.534 78.7847 276.54 77.8615C277.545 76.9383 278.485 76.4767 279.359 76.4767C280.43 76.4767 280.966 77.0125 280.966 78.0841C280.966 78.727 280.785 79.8892 280.422 81.5707C280.109 83.0049 279.952 83.9528 279.952 84.4144C279.952 85.0739 280.191 85.4036 280.669 85.4036C280.999 85.4036 281.386 85.2057 281.832 84.8101C282.293 84.398 282.903 83.7385 283.661 82.8318C283.859 82.6011 284.082 82.4857 284.329 82.4857C284.543 82.4857 284.708 82.5846 284.824 82.7824C284.956 82.9802 285.021 83.2522 285.021 83.5984C285.021 84.2578 284.865 84.7689 284.552 85.1316C283.843 86.0053 283.076 86.7224 282.252 87.2829C281.444 87.8434 280.521 88.1236 279.482 88.1236C278.642 88.1236 278.007 87.8846 277.578 87.4065C277.15 86.912 276.935 86.2031 276.935 85.2799C276.935 84.8183 277.051 83.9941 277.282 82.8071C277.496 81.7685 277.603 81.0514 277.603 80.6558C277.603 80.392 277.512 80.2601 277.331 80.2601C277.117 80.2601 276.812 80.5404 276.416 81.1009C276.02 81.6449 275.625 82.3703 275.229 83.2769C274.834 84.1836 274.512 85.1398 274.265 86.1454C274.083 86.9367 273.869 87.4642 273.622 87.728C273.391 87.9918 273.012 88.1236 272.484 88.1236C271.94 88.1236 271.528 87.8681 271.248 87.3571C270.984 86.8295 270.852 86.1949 270.852 85.453C270.852 84.8266 270.935 83.9199 271.1 82.7329C271.231 81.6779 271.297 80.9855 271.297 80.6558C271.297 80.392 271.207 80.2601 271.025 80.2601C270.778 80.2601 270.465 80.5569 270.086 81.1503C269.707 81.7438 269.336 82.5021 268.973 83.4253C268.627 84.3485 268.347 85.2552 268.132 86.1454C267.951 86.9202 267.737 87.4477 267.489 87.728C267.259 87.9918 266.888 88.1236 266.377 88.1236ZM286.064 88.1236C285.041 88.1236 284.225 87.7527 283.615 87.0109C283.005 86.269 282.701 85.2964 282.701 84.093C282.701 82.7741 283.005 81.5295 283.615 80.359C284.225 79.1721 285.033 78.2242 286.039 77.5153C287.061 76.79 288.141 76.4273 289.278 76.4273C289.641 76.4273 289.88 76.5015 289.995 76.6498C290.127 76.7817 290.234 77.029 290.317 77.3917C290.663 77.3257 291.026 77.2928 291.405 77.2928C292.213 77.2928 292.616 77.5813 292.616 78.1583C292.616 78.5044 292.493 79.3287 292.246 80.6311C291.866 82.5269 291.677 83.8457 291.677 84.5875C291.677 84.8348 291.734 85.0326 291.85 85.181C291.982 85.3294 292.147 85.4036 292.344 85.4036C292.658 85.4036 293.037 85.2057 293.482 84.8101C293.927 84.398 294.529 83.7385 295.287 82.8318C295.485 82.6011 295.707 82.4857 295.955 82.4857C296.169 82.4857 296.334 82.5846 296.449 82.7824C296.581 82.9802 296.647 83.2522 296.647 83.5984C296.647 84.2578 296.491 84.7689 296.177 85.1316C295.501 85.9723 294.784 86.6812 294.026 87.2582C293.268 87.8351 292.534 88.1236 291.825 88.1236C291.281 88.1236 290.778 87.9423 290.317 87.5796C289.872 87.2005 289.534 86.6894 289.303 86.0465C288.446 87.4313 287.366 88.1236 286.064 88.1236ZM286.954 85.6261C287.316 85.6261 287.663 85.4118 287.992 84.9832C288.322 84.5546 288.561 83.9858 288.709 83.2769L289.624 78.727C288.932 78.7435 288.289 79.0072 287.696 79.5183C287.119 80.0129 286.657 80.6723 286.311 81.4965C285.965 82.3208 285.792 83.1945 285.792 84.1177C285.792 84.6287 285.89 85.0079 286.088 85.2552C286.303 85.5025 286.591 85.6261 286.954 85.6261ZM306.494 82.4857C306.708 82.4857 306.873 82.5846 306.988 82.7824C307.12 82.9802 307.186 83.2522 307.186 83.5984C307.186 84.2084 307.029 84.7194 306.716 85.1316C305.941 86.1372 304.977 86.9285 303.823 87.5054C302.686 88.0824 301.4 88.3709 299.965 88.3709C298.844 88.3709 297.872 88.2061 297.048 87.8764C296.223 87.5302 295.589 87.0686 295.144 86.4916C294.715 85.8981 294.501 85.2387 294.501 84.5134C294.501 83.4253 294.937 82.4609 295.811 81.6202C296.685 80.7794 297.938 79.9716 299.57 79.1968L295.514 79.2957C295.152 79.3122 294.872 79.1886 294.674 78.9248C294.492 78.6446 294.402 78.3149 294.402 77.9357C294.402 77.5401 294.492 77.1939 294.674 76.8971C294.872 76.5839 295.135 76.4273 295.465 76.4273C296.223 76.4273 297.237 76.485 298.507 76.6004C298.77 76.6169 299.248 76.6498 299.941 76.6993C300.65 76.7488 301.243 76.7735 301.721 76.7735C301.886 76.7735 302.199 76.7075 302.661 76.5757C302.743 76.5592 302.9 76.518 303.131 76.452C303.378 76.3861 303.584 76.3531 303.749 76.3531C304.013 76.3531 304.227 76.4685 304.392 76.6993C304.573 76.9301 304.664 77.2845 304.664 77.7626C304.664 78.2901 304.54 78.7023 304.293 78.999C304.046 79.2957 303.658 79.5595 303.131 79.7903C301.631 80.4332 300.386 81.1256 299.397 81.8675C298.408 82.5928 297.913 83.3182 297.913 84.0435C297.913 84.5051 298.127 84.8843 298.556 85.181C298.985 85.4777 299.619 85.6261 300.46 85.6261C301.383 85.6261 302.315 85.3953 303.254 84.9337C304.21 84.4721 305.068 83.7715 305.826 82.8318C306.024 82.6011 306.246 82.4857 306.494 82.4857ZM317.777 80.4085C317.992 80.4085 318.157 80.5157 318.272 80.73C318.387 80.9443 318.445 81.2163 318.445 81.546C318.445 82.3373 318.206 82.8071 317.728 82.9555C316.739 83.3017 315.651 83.4995 314.464 83.549C314.151 84.9337 313.532 86.0465 312.609 86.8872C311.686 87.7115 310.639 88.1236 309.469 88.1236C308.48 88.1236 307.631 87.8846 306.922 87.4065C306.229 86.9285 305.702 86.2938 305.339 85.5025C304.977 84.7112 304.795 83.8539 304.795 82.9308C304.795 81.6779 305.034 80.5651 305.512 79.5925C305.99 78.6034 306.65 77.8368 307.491 77.2928C308.331 76.7323 309.263 76.452 310.285 76.452C311.538 76.452 312.543 76.8889 313.302 77.7626C314.076 78.6198 314.53 79.6831 314.662 80.9525C315.436 80.9031 316.36 80.7382 317.431 80.458C317.563 80.425 317.678 80.4085 317.777 80.4085ZM309.667 85.5025C310.194 85.5025 310.647 85.2882 311.027 84.8595C311.422 84.4309 311.686 83.8127 311.818 83.0049C311.307 82.6587 310.911 82.2054 310.631 81.6449C310.367 81.0844 310.235 80.4909 310.235 79.8645C310.235 79.6007 310.26 79.337 310.31 79.0732H310.186C309.526 79.0732 308.974 79.3947 308.529 80.0376C308.1 80.664 307.886 81.5542 307.886 82.7082C307.886 83.6149 308.059 84.3073 308.405 84.7854C308.768 85.2634 309.189 85.5025 309.667 85.5025ZM318.078 88.1236C317.452 88.1236 317.007 87.7939 316.743 87.1345C316.496 86.4751 316.372 85.42 316.372 83.9693C316.372 81.8262 316.677 79.7903 317.287 77.8615C317.435 77.3834 317.674 77.0372 318.004 76.8229C318.35 76.5921 318.828 76.4767 319.438 76.4767C319.768 76.4767 319.999 76.518 320.131 76.6004C320.263 76.6828 320.329 76.8394 320.329 77.0702C320.329 77.334 320.205 77.9275 319.958 78.8506C319.793 79.51 319.661 80.087 319.562 80.5816C319.463 81.0762 319.381 81.6861 319.315 82.4115C319.859 80.9937 320.469 79.8398 321.145 78.9495C321.821 78.0593 322.48 77.4247 323.123 77.0455C323.782 76.6663 324.384 76.4767 324.928 76.4767C325.456 76.4767 325.851 76.6169 326.115 76.8971C326.395 77.1609 326.535 77.5565 326.535 78.0841C326.535 78.5127 326.445 79.3205 326.263 80.5074C326.098 81.513 325.967 82.4692 325.868 83.3759C325.769 84.2661 325.719 85.2634 325.719 86.368C325.719 86.9944 325.587 87.4477 325.324 87.728C325.076 87.9918 324.664 88.1236 324.087 88.1236C323.543 88.1236 323.148 87.9835 322.9 87.7033C322.653 87.423 322.529 87.0026 322.529 86.4421C322.529 85.7827 322.645 84.6947 322.876 83.178C323.073 81.8592 323.172 81.0185 323.172 80.6558C323.172 80.392 323.082 80.2601 322.9 80.2601C322.686 80.2601 322.381 80.5404 321.985 81.1009C321.606 81.6449 321.211 82.3703 320.798 83.2769C320.403 84.1836 320.081 85.1398 319.834 86.1454C319.653 86.9202 319.438 87.4477 319.191 87.728C318.96 87.9918 318.589 88.1236 318.078 88.1236ZM331.553 82.2136C331.223 82.2136 330.951 82.1395 330.737 81.9911C330.522 81.8427 330.415 81.6119 330.415 81.2987L330.44 81.1009C330.72 79.2545 331.099 77.1526 331.578 74.7952C332.056 72.4378 332.501 70.4019 332.913 68.6874C333.177 67.6324 333.894 67.1048 335.064 67.1048C336.119 67.1048 336.647 67.4428 336.647 68.1187C336.647 68.267 336.622 68.4319 336.573 68.6132C336.144 70.3607 335.575 72.4791 334.866 74.9683C334.158 77.4411 333.482 79.5925 332.839 81.4223C332.657 81.9499 332.229 82.2136 331.553 82.2136ZM330.613 88.1236C329.888 88.1236 329.336 87.9258 328.956 87.5302C328.594 87.1345 328.412 86.6152 328.412 85.9723C328.412 85.2305 328.618 84.637 329.031 84.1919C329.459 83.7468 330.053 83.5242 330.811 83.5242C331.536 83.5242 332.08 83.7056 332.443 84.0682C332.822 84.4144 333.012 84.9337 333.012 85.6261C333.012 86.3844 332.797 86.9944 332.369 87.456C331.94 87.9011 331.355 88.1236 330.613 88.1236Z" fill="#FFB81C"/>
<defs>
<filter id="filter0_i_17_310" x="104.934" y="153.173" width="26.7512" height="24.4962" filterUnits="userSpaceOnUse" color-interpolation-filters="sRGB">
<feFlood flood-opacity="0" result="BackgroundImageFix"/>
<feBlend mode="normal" in="SourceGraphic" in2="BackgroundImageFix" result="shape"/>
<feColorMatrix in="SourceAlpha" type="matrix" values="0 0 0 0 0 0 0 0 0 0 0 0 0 0 0 0 0 0 127 0" result="hardAlpha"/>
<feOffset dx="-2.4" dy="4"/>
<feComposite in2="hardAlpha" operator="arithmetic" k2="-1" k3="1"/>
<feColorMatrix type="matrix" values="0 0 0 0 0.183333 0 0 0 0 0.273333 0 0 0 0 0.333333 0 0 0 1 0"/>
<feBlend mode="normal" in2="shape" result="effect1_innerShadow_17_310"/>
</filter>
<linearGradient id="paint0_linear_17_310" x1="510.898" y1="140.451" x2="487.307" y2="159.592" gradientUnits="userSpaceOnUse">
<stop stop-color="#9ACA3B"/>
<stop offset="1" stop-color="#1C7D3E"/>
</linearGradient>
<linearGradient id="paint1_linear_17_310" x1="457.561" y1="146.177" x2="481.153" y2="165.317" gradientUnits="userSpaceOnUse">
<stop stop-color="#CEDB2B"/>
<stop offset="1" stop-color="#AED138"/>
</linearGradient>
<linearGradient id="paint2_linear_17_310" x1="494.037" y1="163.581" x2="477.523" y2="176.98" gradientUnits="userSpaceOnUse">
<stop stop-color="#55A145"/>
<stop offset="1" stop-color="#106A35"/>
</linearGradient>
<linearGradient id="paint3_linear_17_310" x1="250" y1="223" x2="250" y2="323.5" gradientUnits="userSpaceOnUse">
<stop stop-color="#39C4FF"/>
<stop offset="1" stop-color="#CBE7D6"/>
</linearGradient>
<linearGradient id="paint4_linear_17_310" x1="381.5" y1="178" x2="375.5" y2="215.5" gradientUnits="userSpaceOnUse">
<stop stop-color="#FFE769" stop-opacity="0.06"/>
<stop offset="0.859375" stop-color="#21BDFF"/>
</linearGradient>
<linearGradient id="paint5_linear_17_310" x1="269" y1="239" x2="269.111" y2="274.897" gradientUnits="userSpaceOnUse">
<stop stop-color="#42C7FF" stop-opacity="0"/>
<stop offset="1" stop-color="#0DB7FF"/>
</linearGradient>
<linearGradient id="paint6_linear_17_310" x1="105.5" y1="219" x2="106" y2="259" gradientUnits="userSpaceOnUse">
<stop stop-color="#42C7FF" stop-opacity="0"/>
<stop offset="1" stop-color="#0DB7FF"/>
</linearGradient>
<linearGradient id="paint7_linear_17_310" x1="448.5" y1="55.9998" x2="240" y2="178.5" gradientUnits="userSpaceOnUse">
<stop stop-color="#FFE974"/>
<stop offset="1" stop-color="#FFE974" stop-opacity="0"/>
</linearGradient>
<linearGradient id="paint8_linear_17_310" x1="471.898" y1="155.451" x2="448.307" y2="174.592" gradientUnits="userSpaceOnUse">
<stop stop-color="#9ACA3B"/>
<stop offset="1" stop-color="#1C7D3E"/>
</linearGradient>
<linearGradient id="paint9_linear_17_310" x1="418.561" y1="161.177" x2="442.153" y2="180.317" gradientUnits="userSpaceOnUse">
<stop stop-color="#CEDB2B"/>
<stop offset="1" stop-color="#AED138"/>
</linearGradient>
<linearGradient id="paint10_linear_17_310" x1="455.037" y1="178.581" x2="438.523" y2="191.98" gradientUnits="userSpaceOnUse">
<stop stop-color="#55A145"/>
<stop offset="1" stop-color="#106A35"/>
</linearGradient>
<clipPath id="clip0_17_310">
<rect width="465" height="237" fill="white" transform="translate(31 36)"/>
</clipPath>
</defs>
</svg>
