<svg width="2380" height="2452" viewBox="0 0 2380 2452" fill="none" xmlns="http://www.w3.org/2000/svg">
<path d="M2086.92 2018.38C1074.93 2500 446.872 2097.04 44.8336 1852.29C19.9557 1836.86 -22.3282 1855.89 14.3588 1898.03C148.298 2060.44 587.244 2451.88 1160.2 2451.88C1733.54 2451.88 2074.63 2139.03 2117.3 2084.46C2159.68 2030.35 2129.75 2000.5 2086.91 2018.38H2086.92ZM2371.14 1861.41C2343.96 1826.03 2205.89 1819.43 2118.99 1830.1C2031.96 1840.47 1901.33 1893.66 1912.69 1925.59C1918.52 1937.56 1930.41 1932.19 1990.2 1926.82C2050.15 1920.83 2218.09 1899.64 2253.09 1945.39C2288.25 1991.45 2199.52 2210.88 2183.32 2246.27C2167.66 2281.66 2189.3 2290.78 2218.71 2267.21C2247.71 2243.65 2300.22 2182.64 2335.45 2096.29C2370.45 2009.47 2391.79 1888.36 2371.13 1861.41H2371.14Z" fill="#FF9900"/>
<path fill-rule="evenodd" clip-rule="evenodd" d="M1406.47 1035.62C1406.47 1161.99 1409.66 1267.38 1345.79 1379.61C1294.23 1470.86 1212.57 1526.97 1121.33 1526.97C996.774 1526.97 924.236 1432.07 924.236 1292.02C924.236 1015.54 1171.96 965.365 1406.47 965.365V1035.62ZM1733.57 1826.26C1712.13 1845.41 1681.11 1846.79 1656.93 1834.01C1549.26 1744.59 1530.1 1703.08 1470.79 1617.76C1292.87 1799.34 1166.95 1853.62 936.103 1853.62C663.282 1853.62 450.68 1685.28 450.68 1348.13C450.68 1084.9 593.485 905.598 796.49 818.011C972.598 740.444 1218.5 726.76 1406.47 705.324V663.348C1406.47 586.243 1412.39 495.001 1367.23 428.397C1327.53 368.63 1251.8 343.993 1185.19 343.993C1061.56 343.993 951.153 407.404 924.236 538.795C918.755 568 897.319 596.744 868.124 598.11L553.327 564.356C526.871 558.413 497.676 536.977 504.975 496.367C577.512 114.975 921.947 0 1230.35 0C1388.2 0 1594.41 41.9762 1718.97 161.51C1876.82 308.864 1861.76 505.493 1861.76 719.461V1224.95C1861.76 1376.88 1924.72 1443.48 1984.03 1525.6C2005.01 1554.8 2009.58 1589.94 1983.11 1611.83C1916.96 1667.03 1799.25 1769.68 1734.48 1827.17L1733.56 1826.26" fill="white"/>
<path d="M2086.92 2018.38C1074.93 2500 446.872 2097.04 44.8336 1852.29C19.9557 1836.86 -22.3282 1855.89 14.3588 1898.03C148.298 2060.44 587.244 2451.88 1160.2 2451.88C1733.54 2451.88 2074.63 2139.03 2117.3 2084.46C2159.68 2030.35 2129.75 2000.5 2086.91 2018.38H2086.92ZM2371.14 1861.41C2343.96 1826.03 2205.89 1819.43 2118.99 1830.1C2031.96 1840.47 1901.33 1893.66 1912.69 1925.59C1918.52 1937.56 1930.41 1932.19 1990.2 1926.82C2050.15 1920.83 2218.09 1899.64 2253.09 1945.39C2288.25 1991.45 2199.52 2210.88 2183.32 2246.27C2167.66 2281.66 2189.3 2290.78 2218.71 2267.21C2247.71 2243.65 2300.22 2182.64 2335.45 2096.29C2370.45 2009.47 2391.79 1888.36 2371.13 1861.41H2371.14Z" fill="#FF9900"/>
<path fill-rule="evenodd" clip-rule="evenodd" d="M1406.47 1035.62C1406.47 1161.99 1409.66 1267.38 1345.79 1379.61C1294.23 1470.86 1212.57 1526.97 1121.33 1526.97C996.774 1526.97 924.236 1432.07 924.236 1292.02C924.236 1015.54 1171.96 965.365 1406.47 965.365V1035.62ZM1733.57 1826.26C1712.13 1845.41 1681.11 1846.79 1656.93 1834.01C1549.26 1744.59 1530.1 1703.08 1470.79 1617.76C1292.87 1799.34 1166.95 1853.62 936.103 1853.62C663.282 1853.62 450.68 1685.28 450.68 1348.13C450.68 1084.9 593.485 905.598 796.49 818.011C972.598 740.444 1218.5 726.76 1406.47 705.324V663.348C1406.47 586.243 1412.39 495.001 1367.23 428.397C1327.53 368.63 1251.8 343.993 1185.19 343.993C1061.56 343.993 951.153 407.404 924.236 538.795C918.755 568 897.319 596.744 868.124 598.11L553.327 564.356C526.871 558.413 497.676 536.977 504.975 496.367C577.512 114.975 921.947 0 1230.35 0C1388.2 0 1594.41 41.9762 1718.97 161.51C1876.82 308.864 1861.76 505.493 1861.76 719.461V1224.95C1861.76 1376.88 1924.72 1443.48 1984.03 1525.6C2005.01 1554.8 2009.58 1589.94 1983.11 1611.83C1916.96 1667.03 1799.25 1769.68 1734.48 1827.17L1733.56 1826.26" fill="white"/>
</svg>
