<svg width="528" height="305" viewBox="0 0 528 305" fill="none" xmlns="http://www.w3.org/2000/svg">
<path d="M0 0H527.277V304.345H0V0Z" fill="#AD78B6"/>
<path d="M359.776 222.552H365.102L363.58 247.28L360.07 245.544L359.776 222.552Z" fill="#000085" fill-opacity="0.4"/>
<path d="M335.036 233.442L342.086 229.59L355.211 247.47L351.592 249.399L335.036 233.442Z" fill="#000085" fill-opacity="0.4"/>
<path d="M335.238 262.497L332.877 256.168L350.757 253.113L351.026 257.741L335.238 262.497Z" fill="#000085" fill-opacity="0.4"/>
<rect x="20" y="20" width="490" height="265" fill="white" fill-opacity="0.67"/>
<g clip-path="url(#clip0_1142_72)">
<rect width="460" height="236" transform="translate(35 35)" fill="url(#paint0_linear_1142_72)"/>
<path opacity="0.5" fill-rule="evenodd" clip-rule="evenodd" d="M117.604 122C122.467 122 130.776 122 135.638 122V122C141.361 122 146 117.85 146 112.731C146 107.864 141.806 103.873 136.474 103.492C136.134 103.468 135.876 103.167 135.876 102.825V102.825C135.876 99.1912 131.874 96.2452 126.938 96.2452V96.2452C123.875 96.2452 120.422 95.2412 117.787 93.6827C115.988 92.6192 113.832 92 111.514 92C105.224 92 100.124 96.5616 100.124 102.189C100.124 102.727 100.171 103.255 100.261 103.771C100.284 103.905 100.181 104.028 100.045 104.028V104.028C94.4974 104.028 90 108.051 90 113.014C90 117.977 94.4974 122 100.045 122V122C104.852 122 112.798 122 117.604 122V122V122Z" fill="#FFCED7"/>
<g opacity="0.5">
<rect x="267.3" y="107.6" width="66.4" height="17.6" rx="8" fill="#FFCED7"/>
<path d="M290.5 106C290.5 101.582 294.082 98 298.5 98H314.5C318.918 98 322.5 101.582 322.5 106V107.6C322.5 112.018 318.918 115.6 314.5 115.6H298.5C294.082 115.6 290.5 112.018 290.5 107.6V106Z" fill="#FFCED7"/>
<rect x="251" y="117.6" width="13" height="6" rx="3" fill="#FFCED7"/>
</g>
<g opacity="0.5">
<path d="M364 84C364 79.0294 368.029 75 373 75H438C442.971 75 447 79.0294 447 84V84C447 88.9706 442.971 93 438 93H373C368.029 93 364 88.9706 364 84V84Z" fill="#FFCED7"/>
<path d="M375 72C375 66.4772 379.477 62 385 62H405C410.523 62 415 66.4772 415 72V74C415 79.5228 410.523 84 405 84H385C379.477 84 375 79.5228 375 74V72Z" fill="#FFCED7"/>
<rect x="411" y="69" width="13" height="11" rx="5.5" fill="#FFCED7"/>
</g>
<rect x="36" y="227" width="459" height="44" fill="url(#paint1_linear_1142_72)"/>
<path d="M103.519 200.238C103.812 200.089 104.158 200.093 104.447 200.248L152.507 226.119C153.421 226.612 153.072 228 152.033 228H53.1675C52.1163 228 51.777 226.586 52.7138 226.109L103.519 200.238Z" fill="url(#paint2_linear_1142_72)"/>
<path d="M174.09 193.306C174.411 193.118 174.809 193.123 175.124 193.318L228.02 226.15C228.875 226.681 228.499 228 227.493 228H118.678C117.659 228 117.293 226.654 118.172 226.138L174.09 193.306Z" fill="url(#paint3_linear_1142_72)"/>
<path d="M442.326 176.306C442.647 176.118 443.045 176.123 443.36 176.319L522.021 225.15C522.876 225.681 522.499 227 521.493 227H359.678C358.658 227 358.292 225.654 359.171 225.138L442.326 176.306Z" fill="url(#paint4_linear_1142_72)"/>
<path d="M43.0904 193.306C43.4106 193.118 43.8086 193.123 44.1241 193.318L97.02 226.15C97.875 226.681 97.499 228 96.4927 228H-12.3218C-13.341 228 -13.707 226.654 -12.8281 226.138L43.0904 193.306Z" fill="url(#paint5_linear_1142_72)"/>
<path d="M293.526 181.431V178.359L287.497 179.695V181.431H293.526Z" fill="#E63711"/>
<path d="M293.526 174.219H287.497V179.828L293.526 178.352V174.219Z" fill="#C32E0D"/>
<rect x="305.76" y="181.431" width="15.7805" height="5.60945" fill="#EF3A12"/>
<path d="M260.723 174.486L260.103 169.277C264.358 169.856 276.504 171.307 290.689 171.414C304.873 171.521 316.93 170.123 321.186 169.411L320.654 174.486H260.723Z" fill="#EF3A12"/>
<path d="M258.418 169.277L257 163C261.462 163.935 274.997 166.74 290.689 166.74C303.987 166.74 318.969 164.469 324.2 163L323.225 169.277C322.102 169.589 309.306 171.281 290.689 171.548C280.05 171.7 262.408 169.811 258.418 169.277Z" fill="#242323"/>
<rect x="259.482" y="181.431" width="8.15619" height="5.60945" fill="#EF3A12"/>
<rect x="266.929" y="181.431" width="40.7809" height="5.60945" fill="#EF3A12"/>
<ellipse cx="270.653" cy="231.115" rx="3.72348" ry="0.80135" fill="black"/>
<path d="M274.376 231.115C271.471 231.476 269.836 231.472 266.929 231.115V240.202C269.838 240.946 271.468 240.869 274.376 240.202V231.115Z" fill="#282828"/>
<path d="M274.377 231.115C272.966 231.476 272.158 231.783 271.008 231.648V240.731C271.501 240.731 273.224 240.464 274.377 240.197V231.115Z" fill="#0E0D0D"/>
<path d="M273.21 176.891H268.183C267.93 176.891 267.726 177.095 267.725 177.347L267.639 230.833C267.639 231.04 267.779 231.222 267.98 231.273C270.013 231.781 271.29 231.77 273.324 231.271C273.526 231.222 273.667 231.039 273.667 230.831V177.348C273.667 177.095 273.463 176.891 273.21 176.891Z" fill="#EF3A12"/>
<path d="M273.209 176.623H271.113C270.86 176.623 270.654 176.83 270.656 177.084L271.04 231.649C271.495 231.649 272.88 231.366 273.402 231.196C273.528 231.155 273.593 231.039 273.593 230.906L273.667 177.081C273.667 176.828 273.462 176.623 273.209 176.623Z" fill="#CF310E"/>
<path d="M266.929 176.7V174.944C266.929 174.691 267.134 174.486 267.387 174.486H274.274C274.526 174.486 274.731 174.691 274.731 174.944V176.7C274.731 176.953 274.526 177.157 274.274 177.157H267.387C267.134 177.157 266.929 176.953 266.929 176.7Z" fill="#C32E0D"/>
<path d="M274.731 174.944V176.7C274.731 176.953 274.526 177.157 274.274 177.157H271.03C270.957 177.157 270.885 177.14 270.821 177.107L267.243 175.27C267.105 175.199 267.018 175.056 267.018 174.901C267.018 174.672 267.204 174.486 267.433 174.486H274.274C274.526 174.486 274.731 174.691 274.731 174.944Z" fill="#CF310E"/>
<ellipse cx="309.503" cy="230.887" rx="3.72348" ry="0.80135" fill="black"/>
<path d="M313.207 230.848C310.302 231.208 308.666 231.205 305.76 230.848V239.934C308.668 240.679 310.298 240.601 313.207 239.934V230.848Z" fill="#282828"/>
<path d="M313.207 230.848C311.796 231.208 310.988 231.516 309.838 231.38V240.464C310.331 240.464 312.054 240.197 313.207 239.93V230.848Z" fill="#0E0D0D"/>
<path d="M312.04 176.623H307.013C306.761 176.623 306.556 176.827 306.556 177.08L306.47 230.565C306.469 230.772 306.609 230.955 306.81 231.005C308.844 231.513 310.121 231.502 312.154 231.004C312.356 230.954 312.497 230.772 312.497 230.563V177.08C312.497 176.828 312.293 176.623 312.04 176.623Z" fill="#EF3A12"/>
<path d="M312.04 176.355H309.944C309.69 176.355 309.485 176.562 309.487 176.816L309.87 231.382C310.326 231.382 311.711 231.098 312.232 230.929C312.358 230.888 312.423 230.771 312.424 230.638L312.497 176.813C312.497 176.561 312.293 176.355 312.04 176.355Z" fill="#CF310E"/>
<path d="M305.76 176.433V174.676C305.76 174.423 305.964 174.219 306.217 174.219H313.104C313.357 174.219 313.561 174.423 313.561 174.676V176.433C313.561 176.685 313.357 176.89 313.104 176.89H306.217C305.964 176.89 305.76 176.685 305.76 176.433Z" fill="#C42E0D"/>
<path d="M313.561 174.676V176.433C313.561 176.685 313.357 176.89 313.104 176.89H309.86C309.787 176.89 309.715 176.873 309.651 176.839L306.074 175.002C305.935 174.931 305.848 174.789 305.848 174.633C305.848 174.404 306.034 174.219 306.263 174.219H313.104C313.357 174.219 313.561 174.423 313.561 174.676Z" fill="#CF310E"/>
<path d="M350.188 193.214V191.012L345.866 191.969V193.214H350.188Z" fill="#E63711"/>
<path d="M350.188 188.044H345.866V192.066L350.188 191.007V188.044Z" fill="#C32E0D"/>
<rect x="358.959" y="193.215" width="11.3141" height="4.02182" fill="#EF3A12"/>
<path d="M326.67 188.236L326.225 184.501C329.276 184.916 337.984 185.956 348.154 186.033C358.324 186.11 366.968 185.107 370.019 184.597L369.638 188.236H326.67Z" fill="#EF3A12"/>
<path d="M325.017 184.501L324 180C327.199 180.67 336.903 182.681 348.154 182.681C357.688 182.681 368.43 181.053 372.18 180L371.481 184.501C370.676 184.724 361.502 185.937 348.154 186.128C340.526 186.238 327.877 184.884 325.017 184.501Z" fill="#242323"/>
<rect x="325.78" y="193.215" width="5.84776" height="4.02182" fill="#EF3A12"/>
<rect x="331.119" y="193.215" width="29.2388" height="4.02182" fill="#EF3A12"/>
<ellipse cx="333.789" cy="228.836" rx="2.66963" ry="0.574546" fill="black"/>
<path d="M336.458 228.837C334.375 229.095 333.203 229.093 331.119 228.837V235.352C333.204 235.886 334.373 235.83 336.458 235.352V228.837Z" fill="#282828"/>
<path d="M336.458 228.837C335.447 229.095 334.868 229.316 334.043 229.219V235.731C334.397 235.731 335.632 235.54 336.458 235.348V228.837Z" fill="#0E0D0D"/>
<path d="M335.622 189.959H332.018C331.837 189.959 331.69 190.105 331.69 190.286L331.628 228.634C331.628 228.783 331.728 228.913 331.872 228.949C333.33 229.314 334.246 229.306 335.704 228.948C335.849 228.913 335.95 228.782 335.95 228.633V190.287C335.95 190.106 335.803 189.959 335.622 189.959Z" fill="#EF3A12"/>
<path d="M335.622 189.768H334.119C333.937 189.768 333.79 189.916 333.791 190.098L334.066 229.22C334.393 229.22 335.385 229.017 335.759 228.895C335.85 228.866 335.897 228.782 335.897 228.687L335.949 190.096C335.95 189.915 335.803 189.768 335.622 189.768Z" fill="#CF310E"/>
<path d="M331.119 189.823V188.563C331.119 188.382 331.266 188.235 331.447 188.235H336.385C336.566 188.235 336.713 188.382 336.713 188.563V189.823C336.713 190.004 336.566 190.151 336.385 190.151H331.447C331.266 190.151 331.119 190.004 331.119 189.823Z" fill="#C32E0D"/>
<path d="M336.713 188.563V189.823C336.713 190.004 336.566 190.151 336.385 190.151H334.059C334.007 190.151 333.955 190.138 333.909 190.114L331.344 188.797C331.245 188.746 331.183 188.644 331.183 188.533C331.183 188.368 331.316 188.235 331.48 188.235H336.385C336.566 188.235 336.713 188.382 336.713 188.563Z" fill="#CF310E"/>
<ellipse cx="361.643" cy="228.673" rx="2.66963" ry="0.574546" fill="black"/>
<path d="M364.299 228.646C362.216 228.904 361.043 228.902 358.959 228.646V235.16C361.045 235.694 362.213 235.638 364.299 235.16V228.646Z" fill="#282828"/>
<path d="M364.299 228.646C363.287 228.904 362.708 229.124 361.883 229.027V235.54C362.237 235.54 363.472 235.349 364.299 235.157V228.646Z" fill="#0E0D0D"/>
<path d="M363.462 189.768H359.858C359.677 189.768 359.53 189.914 359.53 190.095L359.468 228.442C359.468 228.591 359.568 228.722 359.713 228.758C361.17 229.122 362.086 229.114 363.544 228.757C363.689 228.722 363.79 228.591 363.79 228.441V190.095C363.79 189.914 363.643 189.768 363.462 189.768Z" fill="#EF3A12"/>
<path d="M363.462 189.576H361.959C361.777 189.576 361.63 189.724 361.631 189.906L361.906 229.028C362.233 229.028 363.226 228.825 363.6 228.704C363.69 228.674 363.737 228.591 363.737 228.495L363.79 189.904C363.79 189.723 363.643 189.576 363.462 189.576Z" fill="#CF310E"/>
<path d="M358.959 189.631V188.372C358.959 188.191 359.106 188.044 359.287 188.044H364.225C364.406 188.044 364.553 188.191 364.553 188.372V189.631C364.553 189.812 364.406 189.959 364.225 189.959H359.287C359.106 189.959 358.959 189.812 358.959 189.631Z" fill="#C42E0D"/>
<path d="M364.553 188.372V189.631C364.553 189.812 364.406 189.959 364.225 189.959H361.899C361.847 189.959 361.795 189.947 361.749 189.923L359.184 188.606C359.085 188.555 359.023 188.453 359.023 188.341C359.023 188.177 359.156 188.044 359.32 188.044H364.225C364.406 188.044 364.553 188.191 364.553 188.372Z" fill="#CF310E"/>
<path d="M217.092 164.781V160.484L208.66 162.353V164.781H217.092Z" fill="#E63711"/>
<path d="M217.092 154.693H208.66V162.54L217.092 160.475V154.693Z" fill="#C32E0D"/>
<rect x="234.206" y="164.781" width="22.0739" height="7.84656" fill="#EF3A12"/>
<path d="M171.208 155.066L170.34 147.78C176.293 148.59 193.282 150.62 213.124 150.769C232.966 150.919 249.831 148.963 255.784 147.967L255.04 155.066H171.208Z" fill="#EF3A12"/>
<path d="M167.984 147.781L166 139C172.242 140.308 191.174 144.231 213.124 144.231C231.726 144.231 252.683 141.055 260 139L258.636 147.781C257.065 148.217 239.166 150.583 213.124 150.957C198.243 151.17 173.565 148.528 167.984 147.781Z" fill="#242323"/>
<rect x="169.472" y="164.781" width="11.409" height="7.84656" fill="#EF3A12"/>
<rect x="179.889" y="164.781" width="57.0449" height="7.84656" fill="#EF3A12"/>
<ellipse cx="185.098" cy="234.28" rx="5.20844" ry="1.12094" fill="black"/>
<path d="M190.306 234.279C186.242 234.784 183.955 234.779 179.889 234.279V246.99C183.958 248.031 186.237 247.923 190.306 246.99V234.279Z" fill="#282828"/>
<path d="M190.306 234.279C188.334 234.784 187.203 235.214 185.594 235.024V247.731C186.284 247.731 188.694 247.357 190.306 246.983V234.279Z" fill="#0E0D0D"/>
<path d="M188.675 158.429H181.642C181.29 158.429 181.003 158.714 181.003 159.067L180.882 233.883C180.882 234.174 181.078 234.429 181.359 234.499C184.203 235.21 185.989 235.194 188.834 234.497C189.117 234.428 189.314 234.172 189.314 233.881V159.068C189.314 158.715 189.028 158.429 188.675 158.429Z" fill="#EF3A12"/>
<path d="M188.674 158.056H185.742C185.387 158.056 185.1 158.345 185.102 158.7L185.639 235.027C186.276 235.027 188.213 234.631 188.943 234.393C189.119 234.336 189.211 234.173 189.211 233.987L189.313 158.696C189.314 158.343 189.027 158.056 188.674 158.056Z" fill="#CF310E"/>
<path d="M179.889 158.163V155.706C179.889 155.353 180.176 155.066 180.529 155.066H190.162C190.516 155.066 190.802 155.353 190.802 155.706V158.163C190.802 158.517 190.516 158.803 190.162 158.803H180.529C180.176 158.803 179.889 158.517 179.889 158.163Z" fill="#C32E0D"/>
<path d="M190.802 155.706V158.163C190.802 158.517 190.516 158.803 190.163 158.803H185.625C185.523 158.803 185.423 158.779 185.332 158.732L180.328 156.162C180.135 156.063 180.013 155.864 180.013 155.646C180.013 155.326 180.273 155.066 180.593 155.066H190.163C190.516 155.066 190.802 155.353 190.802 155.706Z" fill="#CF310E"/>
<ellipse cx="239.442" cy="233.962" rx="5.20844" ry="1.12094" fill="black"/>
<path d="M244.623 233.906C240.559 234.411 238.272 234.406 234.206 233.906V246.616C238.274 247.658 240.554 247.55 244.623 246.616V233.906Z" fill="#282828"/>
<path d="M244.622 233.906C242.65 234.411 241.519 234.841 239.91 234.651V247.358C240.6 247.358 243.01 246.984 244.622 246.61V233.906Z" fill="#0E0D0D"/>
<path d="M242.991 158.056H235.959C235.606 158.056 235.32 158.341 235.319 158.694L235.199 233.51C235.198 233.801 235.394 234.056 235.675 234.126C238.519 234.837 240.306 234.821 243.15 234.124C243.433 234.055 243.63 233.799 243.63 233.508V158.695C243.63 158.342 243.344 158.056 242.991 158.056Z" fill="#EF3A12"/>
<path d="M242.99 157.683H240.058C239.703 157.683 239.416 157.972 239.419 158.327L239.955 234.654C240.592 234.654 242.53 234.258 243.259 234.02C243.436 233.963 243.527 233.8 243.527 233.614L243.63 158.323C243.63 157.97 243.344 157.683 242.99 157.683Z" fill="#CF310E"/>
<path d="M234.206 157.79V155.333C234.206 154.98 234.492 154.693 234.845 154.693H244.479C244.832 154.693 245.119 154.98 245.119 155.333V157.79C245.119 158.143 244.832 158.43 244.479 158.43H234.845C234.492 158.43 234.206 158.143 234.206 157.79Z" fill="#C42E0D"/>
<path d="M245.119 155.333V157.79C245.119 158.143 244.832 158.43 244.479 158.43H239.941C239.839 158.43 239.739 158.406 239.648 158.359L234.645 155.789C234.451 155.69 234.33 155.491 234.33 155.273C234.33 154.953 234.589 154.693 234.91 154.693H244.479C244.832 154.693 245.119 154.98 245.119 155.333Z" fill="#CF310E"/>
<path d="M446.42 117.364C446.42 117.364 440.044 112.031 441.483 105.432C441.754 104.188 443.878 104.886 444.228 105.681C444.745 106.857 445.372 107.035 445.582 107.787C445.538 105.576 445.809 103.17 447.389 102.647C448.33 102.336 448.578 103.226 449.553 103.336C450.618 103.457 451.616 102.026 452.274 103.179C452.713 103.948 452.762 104.801 452.415 105.615C453.018 104.865 453.715 104.689 454.508 105.086C455.226 105.447 455.435 106.14 456.114 106.623C456.864 107.156 456.902 106.872 457.672 107.347C459.483 108.464 455.861 112.746 454.094 113.663L446.42 117.364Z" fill="url(#paint6_radial_1142_72)"/>
<path d="M446.42 117.364C445.176 116.107 443.431 109.647 445.625 108.858M446.42 117.364C446.42 117.364 440.044 112.031 441.483 105.432C441.754 104.188 443.878 104.886 444.228 105.681C444.926 107.269 445.826 107.038 445.625 108.858M446.42 117.364L454.094 113.663M445.625 108.858C447.073 108.626 446.276 108.672 447.741 108.736C448.393 108.764 449.021 109.883 451.114 109.355M445.625 108.858C445.484 106.422 445.548 103.256 447.389 102.647C448.33 102.336 448.578 103.226 449.553 103.336C450.618 103.457 451.616 102.026 452.274 103.179C452.713 103.948 452.762 104.801 452.415 105.615M452.415 105.615C451.857 107.237 451.672 107.732 451.114 109.355M452.415 105.615C453.018 104.865 453.715 104.689 454.508 105.086C455.226 105.447 455.435 106.14 456.114 106.623C456.864 107.156 456.902 106.872 457.672 107.347C459.483 108.464 455.861 112.746 454.094 113.663M451.114 109.355C451.764 109.318 452.371 110.097 452.371 110.097C452.371 110.097 453.627 110.839 454.094 113.663" stroke="#E9496D" stroke-width="0.2"/>
<path d="M457.932 117.119C457.932 117.119 454.031 111.745 454.74 110.092C455.449 108.438 460.625 106.785 461.833 109.265C462.58 110.798 462.268 113.438 461.921 115.229L462.543 112.572C465.025 110.505 469.636 112.985 468.927 116.705C468.425 119.338 465.082 119.28 463.17 119.021C464.784 119.367 467.387 120.087 468.217 121.252C469.452 122.985 463.799 126.93 461.833 125.8C460.873 125.247 460.343 123.853 460.053 122.572C460.064 123.289 459.984 124.019 459.706 124.559C457.866 128.135 450.327 123.056 451.548 119.186C451.724 118.628 455.454 118.708 456.769 118.754C455.276 118.679 450.59 118.316 450.13 116.705C449.42 114.225 451.801 112.286 452.967 112.572C455.914 113.293 458.375 118.414 457.932 117.119Z" fill="url(#paint7_radial_1142_72)"/>
<path d="M457.932 117.119C457.932 117.119 454.031 111.745 454.74 110.092C455.449 108.438 460.625 106.785 461.833 109.265C463.041 111.745 461.479 117.119 461.479 117.119L462.543 112.572C465.025 110.505 469.636 112.985 468.927 116.705C468.217 120.426 461.833 118.772 461.833 118.772C461.833 118.772 466.983 119.52 468.217 121.252C469.452 122.985 463.799 126.93 461.833 125.8C459.868 124.669 459.706 120.012 459.706 120.012C459.706 120.012 460.489 123.036 459.706 124.559C457.866 128.135 450.327 123.056 451.548 119.186C451.762 118.508 457.223 118.772 457.223 118.772C457.223 118.772 450.678 118.624 450.13 116.705C449.42 114.225 451.801 112.286 452.967 112.572C455.914 113.293 458.375 118.414 457.932 117.119Z" stroke="#E9496D" stroke-width="0.1"/>
<path d="M461.932 108.119C461.932 108.119 458.031 102.745 458.74 101.092C459.449 99.4381 464.625 97.7845 465.833 100.265C466.58 101.798 466.268 104.438 465.921 106.229L466.543 103.572C469.025 101.505 473.636 103.985 472.927 107.705C472.425 110.338 469.082 110.28 467.17 110.021C468.784 110.367 471.387 111.087 472.217 112.252C473.452 113.985 467.799 117.93 465.833 116.8C464.873 116.247 464.343 114.853 464.053 113.572C464.064 114.289 463.984 115.019 463.706 115.559C461.866 119.135 454.327 114.056 455.548 110.186C455.724 109.628 459.454 109.708 460.769 109.754C459.276 109.679 454.59 109.316 454.13 107.705C453.42 105.225 455.801 103.286 456.967 103.572C459.914 104.293 462.375 109.414 461.932 108.119Z" fill="url(#paint8_radial_1142_72)"/>
<path d="M461.932 108.119C461.932 108.119 458.031 102.745 458.74 101.092C459.449 99.4381 464.625 97.7845 465.833 100.265C467.041 102.745 465.479 108.119 465.479 108.119L466.543 103.572C469.025 101.505 473.636 103.985 472.927 107.705C472.217 111.426 465.833 109.772 465.833 109.772C465.833 109.772 470.983 110.52 472.217 112.252C473.452 113.985 467.799 117.93 465.833 116.8C463.868 115.669 463.706 111.012 463.706 111.012C463.706 111.012 464.489 114.036 463.706 115.559C461.866 119.135 454.327 114.056 455.548 110.186C455.762 109.508 461.223 109.772 461.223 109.772C461.223 109.772 454.678 109.624 454.13 107.705C453.42 105.225 455.801 103.286 456.967 103.572C459.914 104.293 462.375 109.414 461.932 108.119Z" stroke="#E9496D" stroke-width="0.1"/>
<path d="M53.1748 91.5594C53.1748 91.5594 51.1216 88.8725 51.4948 88.0458C51.868 87.219 54.5924 86.3923 55.2281 87.6324C55.6212 88.3991 55.4569 89.7188 55.2742 90.6146L55.6015 89.2858C56.9081 88.2524 59.3347 89.4925 58.9614 91.3527C58.6973 92.6688 56.9379 92.6399 55.9315 92.5104C56.7811 92.6835 58.151 93.0435 58.5881 93.6262C59.2378 94.4924 56.2626 96.4652 55.2281 95.8998C54.7228 95.6236 54.4439 94.9266 54.2908 94.286C54.297 94.6443 54.2546 95.0093 54.1082 95.2797C53.1402 97.0677 49.1722 94.5279 49.8149 92.5928C49.9075 92.314 51.8703 92.3541 52.5625 92.377C51.7769 92.3395 49.3107 92.1581 49.0682 91.3527C48.6949 90.1126 49.9479 89.1431 50.5616 89.2858C52.1124 89.6465 53.4077 92.207 53.1748 91.5594Z" fill="url(#paint9_radial_1142_72)"/>
<path d="M53.1748 91.5594C53.1748 91.5594 51.1216 88.8725 51.4948 88.0458C51.868 87.219 54.5924 86.3923 55.2281 87.6324C55.8639 88.8725 55.0415 91.5594 55.0415 91.5594L55.6015 89.2858C56.9081 88.2524 59.3347 89.4925 58.9614 91.3527C58.5881 93.2129 55.2281 92.3861 55.2281 92.3861C55.2281 92.3861 57.9384 92.76 58.5881 93.6262C59.2378 94.4924 56.2626 96.4652 55.2281 95.8998C54.1937 95.3344 54.1082 93.0062 54.1082 93.0062C54.1082 93.0062 54.5205 94.5182 54.1082 95.2797C53.1402 97.0677 49.1722 94.5279 49.8149 92.5928C49.9275 92.254 52.8015 92.3861 52.8015 92.3861C52.8015 92.3861 49.357 92.3121 49.0682 91.3527C48.6949 90.1126 49.9479 89.1431 50.5616 89.2858C52.1124 89.6465 53.4077 92.207 53.1748 91.5594Z" stroke="#E9496D" stroke-width="0.1"/>
<path d="M82.2352 88.9008C82.2352 88.9008 83.1875 83.0852 79.3379 80.569C78.6124 80.0948 77.7925 81.5031 77.9743 82.0681C78.2434 82.9048 77.9882 83.3072 78.2258 83.7813C77.2194 82.6742 75.9526 81.6294 74.857 82.166C74.2054 82.4851 74.4861 83.046 74.012 83.5898C73.4946 84.1833 72.2897 83.9821 72.472 84.878C72.5936 85.4752 72.9642 85.9183 73.5306 86.1435C72.8561 86.0782 72.3985 86.3415 72.1564 86.9345C71.9372 87.4714 72.1476 87.916 72.0066 88.4938C71.8509 89.1319 71.6978 89.0116 71.5039 89.6313C71.0482 91.088 74.9952 91.3716 76.3748 90.9347L82.2352 88.9008Z" fill="url(#paint10_radial_1142_72)"/>
<path d="M82.2352 88.9008C82.3196 87.6598 80.2515 83.6145 78.7013 84.3281M82.2352 88.9008C82.2352 88.9008 83.1875 83.0852 79.3379 80.569C78.6124 80.0948 77.7925 81.5031 77.9743 82.0681C78.3378 83.1981 77.7449 83.536 78.7013 84.3281M82.2352 88.9008L76.3748 90.9347M78.7013 84.3281C77.813 84.941 78.2637 84.564 77.5035 85.33C77.1655 85.6705 77.3483 86.5353 75.9741 87.3263M78.7013 84.3281C77.6427 83.0625 76.1335 81.5408 74.857 82.166C74.2054 82.4851 74.4861 83.046 74.012 83.5898C73.4946 84.1833 72.2897 83.9821 72.472 84.878C72.5936 85.4752 72.9642 85.9183 73.5306 86.1435M73.5306 86.1435C74.5872 86.6598 74.9175 86.8099 75.9741 87.3263M73.5306 86.1435C72.8561 86.0782 72.3985 86.3415 72.1564 86.9345C71.9372 87.4714 72.1476 87.916 72.0066 88.4938C71.8509 89.1319 71.6978 89.0116 71.5039 89.6313C71.0482 91.088 74.9952 91.3716 76.3748 90.9347M75.9741 87.3263C75.6065 87.6337 75.6425 88.3206 75.6425 88.3206C75.6425 88.3206 75.3109 89.315 76.3748 90.9347" stroke="#E9496D" stroke-width="0.2"/>
<path d="M83.1748 89.5594C83.1748 89.5594 81.1216 86.8725 81.4948 86.0458C81.868 85.219 84.5924 84.3923 85.2281 85.6324C85.6212 86.3991 85.4569 87.7188 85.2742 88.6146L85.6015 87.2858C86.9081 86.2524 89.3347 87.4925 88.9614 89.3527C88.6973 90.6688 86.9379 90.6399 85.9315 90.5104C86.7811 90.6835 88.151 91.0435 88.5881 91.6262C89.2378 92.4924 86.2626 94.4652 85.2281 93.8998C84.7228 93.6236 84.4439 92.9266 84.2908 92.286C84.297 92.6443 84.2546 93.0093 84.1082 93.2797C83.1402 95.0677 79.1722 92.5279 79.8149 90.5928C79.9075 90.314 81.8703 90.3541 82.5625 90.377C81.7769 90.3395 79.3107 90.1581 79.0682 89.3527C78.6949 88.1126 79.9479 87.1431 80.5616 87.2858C82.1124 87.6465 83.4077 90.207 83.1748 89.5594Z" fill="url(#paint11_radial_1142_72)"/>
<path d="M83.1748 89.5594C83.1748 89.5594 81.1216 86.8725 81.4948 86.0458C81.868 85.219 84.5924 84.3923 85.2281 85.6324C85.8639 86.8725 85.0415 89.5594 85.0415 89.5594L85.6015 87.2858C86.9081 86.2524 89.3347 87.4925 88.9614 89.3527C88.5881 91.2129 85.2281 90.3861 85.2281 90.3861C85.2281 90.3861 87.9384 90.76 88.5881 91.6262C89.2378 92.4924 86.2626 94.4652 85.2281 93.8998C84.1937 93.3344 84.1082 91.0062 84.1082 91.0062C84.1082 91.0062 84.5205 92.5182 84.1082 93.2797C83.1402 95.0677 79.1722 92.5279 79.8149 90.5928C79.9275 90.254 82.8015 90.3861 82.8015 90.3861C82.8015 90.3861 79.357 90.3121 79.0682 89.3527C78.6949 88.1126 79.9479 87.1431 80.5616 87.2858C82.1124 87.6465 83.4077 90.207 83.1748 89.5594Z" stroke="#E9496D" stroke-width="0.1"/>
<path d="M85.1748 83.5594C85.1748 83.5594 83.1216 80.8725 83.4948 80.0458C83.868 79.219 86.5924 78.3923 87.2281 79.6324C87.6212 80.3991 87.4569 81.7188 87.2742 82.6146L87.6015 81.2858C88.9081 80.2524 91.3347 81.4925 90.9614 83.3527C90.6973 84.6688 88.9379 84.6399 87.9315 84.5104C88.7811 84.6835 90.151 85.0435 90.5881 85.6262C91.2378 86.4924 88.2626 88.4652 87.2281 87.8998C86.7228 87.6236 86.4439 86.9266 86.2908 86.286C86.297 86.6443 86.2546 87.0093 86.1082 87.2797C85.1402 89.0677 81.1722 86.5279 81.8149 84.5928C81.9075 84.314 83.8703 84.3541 84.5625 84.377C83.7769 84.3395 81.3107 84.1581 81.0682 83.3527C80.6949 82.1126 81.9479 81.1431 82.5616 81.2858C84.1124 81.6465 85.4077 84.207 85.1748 83.5594Z" fill="url(#paint12_radial_1142_72)"/>
<path d="M85.1748 83.5594C85.1748 83.5594 83.1216 80.8725 83.4948 80.0458C83.868 79.219 86.5924 78.3923 87.2281 79.6324C87.8639 80.8725 87.0415 83.5594 87.0415 83.5594L87.6015 81.2858C88.9081 80.2524 91.3347 81.4925 90.9614 83.3527C90.5881 85.2129 87.2281 84.3861 87.2281 84.3861C87.2281 84.3861 89.9384 84.76 90.5881 85.6262C91.2378 86.4924 88.2626 88.4652 87.2281 87.8998C86.1937 87.3344 86.1082 85.0062 86.1082 85.0062C86.1082 85.0062 86.5205 86.5182 86.1082 87.2797C85.1402 89.0677 81.1722 86.5279 81.8149 84.5928C81.9275 84.254 84.8015 84.3861 84.8015 84.3861C84.8015 84.3861 81.357 84.3121 81.0682 83.3527C80.6949 82.1126 81.9479 81.1431 82.5616 81.2858C84.1124 81.6465 85.4077 84.207 85.1748 83.5594Z" stroke="#E9496D" stroke-width="0.1"/>
<path d="M92.1748 89.5594C92.1748 89.5594 90.1216 86.8725 90.4948 86.0458C90.868 85.219 93.5924 84.3923 94.2281 85.6324C94.6212 86.3991 94.4569 87.7188 94.2742 88.6146L94.6015 87.2858C95.9081 86.2524 98.3347 87.4925 97.9614 89.3527C97.6973 90.6688 95.9379 90.6399 94.9315 90.5104C95.7811 90.6835 97.151 91.0435 97.5881 91.6262C98.2378 92.4924 95.2626 94.4652 94.2281 93.8998C93.7228 93.6236 93.4439 92.9266 93.2908 92.286C93.297 92.6443 93.2546 93.0093 93.1082 93.2797C92.1402 95.0677 88.1722 92.5279 88.8149 90.5928C88.9075 90.314 90.8703 90.3541 91.5625 90.377C90.7769 90.3395 88.3107 90.1581 88.0682 89.3527C87.6949 88.1126 88.9479 87.1431 89.5616 87.2858C91.1124 87.6465 92.4077 90.207 92.1748 89.5594Z" fill="url(#paint13_radial_1142_72)"/>
<path d="M92.1748 89.5594C92.1748 89.5594 90.1216 86.8725 90.4948 86.0458C90.868 85.219 93.5924 84.3923 94.2281 85.6324C94.8639 86.8725 94.0415 89.5594 94.0415 89.5594L94.6015 87.2858C95.9081 86.2524 98.3347 87.4925 97.9614 89.3527C97.5881 91.2129 94.2281 90.3861 94.2281 90.3861C94.2281 90.3861 96.9384 90.76 97.5881 91.6262C98.2378 92.4924 95.2626 94.4652 94.2281 93.8998C93.1937 93.3344 93.1082 91.0062 93.1082 91.0062C93.1082 91.0062 93.5205 92.5182 93.1082 93.2797C92.1402 95.0677 88.1722 92.5279 88.8149 90.5928C88.9275 90.254 91.8015 90.3861 91.8015 90.3861C91.8015 90.3861 88.357 90.3121 88.0682 89.3527C87.6949 88.1126 88.9479 87.1431 89.5616 87.2858C91.1124 87.6465 92.4077 90.207 92.1748 89.5594Z" stroke="#E9496D" stroke-width="0.1"/>
<path d="M63.1748 89.5594C63.1748 89.5594 61.1216 86.8725 61.4948 86.0458C61.868 85.219 64.5924 84.3923 65.2281 85.6324C65.6212 86.3991 65.4569 87.7188 65.2742 88.6146L65.6015 87.2858C66.9081 86.2524 69.3347 87.4925 68.9614 89.3527C68.6973 90.6688 66.9379 90.6399 65.9315 90.5104C66.7811 90.6835 68.151 91.0435 68.5881 91.6262C69.2378 92.4924 66.2626 94.4652 65.2281 93.8998C64.7228 93.6236 64.4439 92.9266 64.2908 92.286C64.297 92.6443 64.2546 93.0093 64.1082 93.2797C63.1402 95.0677 59.1722 92.5279 59.8149 90.5928C59.9075 90.314 61.8703 90.3541 62.5625 90.377C61.7769 90.3395 59.3107 90.1581 59.0682 89.3527C58.6949 88.1126 59.9479 87.1431 60.5616 87.2858C62.1124 87.6465 63.4077 90.207 63.1748 89.5594Z" fill="url(#paint14_radial_1142_72)"/>
<path d="M63.1748 89.5594C63.1748 89.5594 61.1216 86.8725 61.4948 86.0458C61.868 85.219 64.5924 84.3923 65.2281 85.6324C65.8639 86.8725 65.0415 89.5594 65.0415 89.5594L65.6015 87.2858C66.9081 86.2524 69.3347 87.4925 68.9614 89.3527C68.5881 91.2129 65.2281 90.3861 65.2281 90.3861C65.2281 90.3861 67.9384 90.76 68.5881 91.6262C69.2378 92.4924 66.2626 94.4652 65.2281 93.8998C64.1937 93.3344 64.1082 91.0062 64.1082 91.0062C64.1082 91.0062 64.5205 92.5182 64.1082 93.2797C63.1402 95.0677 59.1722 92.5279 59.8149 90.5928C59.9275 90.254 62.8015 90.3861 62.8015 90.3861C62.8015 90.3861 59.357 90.3121 59.0682 89.3527C58.6949 88.1126 59.9479 87.1431 60.5616 87.2858C62.1124 87.6465 63.4077 90.207 63.1748 89.5594Z" stroke="#E9496D" stroke-width="0.1"/>
<path d="M55.1748 85.5594C55.1748 85.5594 53.1216 82.8725 53.4948 82.0458C53.868 81.219 56.5924 80.3923 57.2281 81.6324C57.6212 82.3991 57.4569 83.7188 57.2742 84.6146L57.6015 83.2858C58.9081 82.2524 61.3347 83.4925 60.9614 85.3527C60.6973 86.6688 58.9379 86.6399 57.9315 86.5104C58.7811 86.6835 60.151 87.0435 60.5881 87.6262C61.2378 88.4924 58.2626 90.4652 57.2281 89.8998C56.7228 89.6236 56.4439 88.9266 56.2908 88.286C56.297 88.6443 56.2546 89.0093 56.1082 89.2797C55.1402 91.0677 51.1722 88.5279 51.8149 86.5928C51.9075 86.314 53.8703 86.3541 54.5625 86.377C53.7769 86.3395 51.3107 86.1581 51.0682 85.3527C50.6949 84.1126 51.9479 83.1431 52.5616 83.2858C54.1124 83.6465 55.4077 86.207 55.1748 85.5594Z" fill="url(#paint15_radial_1142_72)"/>
<path d="M55.1748 85.5594C55.1748 85.5594 53.1216 82.8725 53.4948 82.0458C53.868 81.219 56.5924 80.3923 57.2281 81.6324C57.8639 82.8725 57.0415 85.5594 57.0415 85.5594L57.6015 83.2858C58.9081 82.2524 61.3347 83.4925 60.9614 85.3527C60.5881 87.2129 57.2281 86.3861 57.2281 86.3861C57.2281 86.3861 59.9384 86.76 60.5881 87.6262C61.2378 88.4924 58.2626 90.4652 57.2281 89.8998C56.1937 89.3344 56.1082 87.0062 56.1082 87.0062C56.1082 87.0062 56.5205 88.5182 56.1082 89.2797C55.1402 91.0677 51.1722 88.5279 51.8149 86.5928C51.9275 86.254 54.8015 86.3861 54.8015 86.3861C54.8015 86.3861 51.357 86.3121 51.0682 85.3527C50.6949 84.1126 51.9479 83.1431 52.5616 83.2858C54.1124 83.6465 55.4077 86.207 55.1748 85.5594Z" stroke="#E9496D" stroke-width="0.1"/>
<path d="M60.1748 85.5594C60.1748 85.5594 58.1216 82.8725 58.4948 82.0458C58.868 81.219 61.5924 80.3923 62.2281 81.6324C62.6212 82.3991 62.4569 83.7188 62.2742 84.6146L62.6015 83.2858C63.9081 82.2524 66.3347 83.4925 65.9614 85.3527C65.6973 86.6688 63.9379 86.6399 62.9315 86.5104C63.7811 86.6835 65.151 87.0435 65.5881 87.6262C66.2378 88.4924 63.2626 90.4652 62.2281 89.8998C61.7228 89.6236 61.4439 88.9266 61.2908 88.286C61.297 88.6443 61.2546 89.0093 61.1082 89.2797C60.1402 91.0677 56.1722 88.5279 56.8149 86.5928C56.9075 86.314 58.8703 86.3541 59.5625 86.377C58.7769 86.3395 56.3107 86.1581 56.0682 85.3527C55.6949 84.1126 56.9479 83.1431 57.5616 83.2858C59.1124 83.6465 60.4077 86.207 60.1748 85.5594Z" fill="url(#paint16_radial_1142_72)"/>
<path d="M60.1748 85.5594C60.1748 85.5594 58.1216 82.8725 58.4948 82.0458C58.868 81.219 61.5924 80.3923 62.2281 81.6324C62.8639 82.8725 62.0415 85.5594 62.0415 85.5594L62.6015 83.2858C63.9081 82.2524 66.3347 83.4925 65.9614 85.3527C65.5881 87.2129 62.2281 86.3861 62.2281 86.3861C62.2281 86.3861 64.9384 86.76 65.5881 87.6262C66.2378 88.4924 63.2626 90.4652 62.2281 89.8998C61.1937 89.3344 61.1082 87.0062 61.1082 87.0062C61.1082 87.0062 61.5205 88.5182 61.1082 89.2797C60.1402 91.0677 56.1722 88.5279 56.8149 86.5928C56.9275 86.254 59.8015 86.3861 59.8015 86.3861C59.8015 86.3861 56.357 86.3121 56.0682 85.3527C55.6949 84.1126 56.9479 83.1431 57.5616 83.2858C59.1124 83.6465 60.4077 86.207 60.1748 85.5594Z" stroke="#E9496D" stroke-width="0.1"/>
<path d="M63.1748 96.5594C63.1748 96.5594 61.1216 93.8725 61.4948 93.0458C61.868 92.219 64.5924 91.3923 65.2281 92.6324C65.6212 93.3991 65.4569 94.7188 65.2742 95.6146L65.6015 94.2858C66.9081 93.2524 69.3347 94.4925 68.9614 96.3527C68.6973 97.6688 66.9379 97.6399 65.9315 97.5104C66.7811 97.6835 68.151 98.0435 68.5881 98.6262C69.2378 99.4924 66.2626 101.465 65.2281 100.9C64.7228 100.624 64.4439 99.9266 64.2908 99.286C64.297 99.6443 64.2546 100.009 64.1082 100.28C63.1402 102.068 59.1722 99.5279 59.8149 97.5928C59.9075 97.314 61.8703 97.3541 62.5625 97.377C61.7769 97.3395 59.3107 97.1581 59.0682 96.3527C58.6949 95.1126 59.9479 94.1431 60.5616 94.2858C62.1124 94.6465 63.4077 97.207 63.1748 96.5594Z" fill="url(#paint17_radial_1142_72)"/>
<path d="M63.1748 96.5594C63.1748 96.5594 61.1216 93.8725 61.4948 93.0458C61.868 92.219 64.5924 91.3923 65.2281 92.6324C65.8639 93.8725 65.0415 96.5594 65.0415 96.5594L65.6015 94.2858C66.9081 93.2524 69.3347 94.4925 68.9614 96.3527C68.5881 98.2129 65.2281 97.3861 65.2281 97.3861C65.2281 97.3861 67.9384 97.76 68.5881 98.6262C69.2378 99.4924 66.2626 101.465 65.2281 100.9C64.1937 100.334 64.1082 98.0062 64.1082 98.0062C64.1082 98.0062 64.5205 99.5182 64.1082 100.28C63.1402 102.068 59.1722 99.5279 59.8149 97.5928C59.9275 97.254 62.8015 97.3861 62.8015 97.3861C62.8015 97.3861 59.357 97.3121 59.0682 96.3527C58.6949 95.1126 59.9479 94.1431 60.5616 94.2858C62.1124 94.6465 63.4077 97.207 63.1748 96.5594Z" stroke="#E9496D" stroke-width="0.1"/>
<path d="M91.6226 80.3351C93.1394 78.8765 94.9595 82.5229 94.6561 84.6817C94.9914 83.6898 97.1915 82.9448 98.2963 83.2522C98.9011 83.4205 98.11 83.7466 98.5996 84.1274C99.0602 84.4855 99.821 84.1582 99.9647 84.7108C100.416 86.4481 96.3851 86.7484 96.3253 86.7528C96.4026 86.8308 97.0829 87.5577 97.0829 88.2114C97.0829 88.9407 97.8413 89.3783 97.5379 90.2534C97.2981 90.9453 96.0212 90.8369 95.2628 90.5452C94.2977 90.1739 93.8605 88.7732 93.6892 88.001C93.7579 88.4447 93.8261 89.0801 93.7461 89.5241C93.5457 90.6353 91.3473 92.5345 90.4091 91.8579C89.1958 90.9827 89.3475 91.5722 89.3475 90.3993C89.3475 87.7738 91.926 87.4821 91.926 87.4821C91.926 87.4821 85.7073 88.0656 86.0108 85.7318C86.1806 84.4254 88.4706 81.5698 88.7869 82.777C88.7569 82.6448 88.7408 82.5113 88.7408 82.3771C88.7408 80.7726 90.0282 81.8683 91.6226 80.3351Z" fill="url(#paint18_radial_1142_72)"/>
<path d="M92.5327 86.3152C92.5327 86.3152 88.7408 84.4398 88.7408 82.3771C88.7408 80.7726 90.0282 81.8683 91.6226 80.3351C93.1394 78.8765 94.9595 82.5229 94.6561 84.6817C94.9914 83.6898 97.1915 82.9448 98.2963 83.2522C98.9011 83.4205 98.11 83.7466 98.5996 84.1274C99.0602 84.4855 99.821 84.1582 99.9647 84.7108C100.42 86.4611 96.3246 86.7528 96.3246 86.7528C96.2363 86.6619 97.0829 87.4821 97.0829 88.2114C97.0829 88.9407 97.8413 89.3783 97.5379 90.2534C97.2981 90.9453 96.0212 90.8369 95.2628 90.5452C93.9101 90.0248 93.5945 87.4821 93.5945 87.4821C93.5945 87.4821 93.8811 88.7754 93.7461 89.5241C93.5457 90.6353 91.3473 92.5345 90.4091 91.8579C89.1958 90.9827 89.3475 91.5722 89.3475 90.3993C89.3475 87.7738 91.926 87.4821 91.926 87.4821C91.926 87.4821 85.7073 88.0656 86.0108 85.7318C86.1823 84.4123 88.5168 81.5122 88.7958 82.8147C89.1958 84.6817 92.5327 86.3152 92.5327 86.3152Z" stroke="#F97794" stroke-width="0.1"/>
<path d="M92.1748 78.5594C92.1748 78.5594 90.1216 75.8725 90.4948 75.0458C90.868 74.219 93.5924 73.3923 94.2281 74.6324C94.6212 75.3991 94.4569 76.7188 94.2742 77.6146L94.6015 76.2858C95.9081 75.2524 98.3347 76.4925 97.9614 78.3527C97.6973 79.6688 95.9379 79.6399 94.9315 79.5104C95.7811 79.6835 97.151 80.0435 97.5881 80.6262C98.2378 81.4924 95.2626 83.4652 94.2281 82.8998C93.7228 82.6236 93.4439 81.9266 93.2908 81.286C93.297 81.6443 93.2546 82.0093 93.1082 82.2797C92.1402 84.0677 88.1722 81.5279 88.8149 79.5928C88.9075 79.314 90.8703 79.3541 91.5625 79.377C90.7769 79.3395 88.3107 79.1581 88.0682 78.3527C87.6949 77.1126 88.9479 76.1431 89.5616 76.2858C91.1124 76.6465 92.4077 79.207 92.1748 78.5594Z" fill="url(#paint19_radial_1142_72)"/>
<path d="M92.1748 78.5594C92.1748 78.5594 90.1216 75.8725 90.4948 75.0458C90.868 74.219 93.5924 73.3923 94.2281 74.6324C94.8639 75.8725 94.0415 78.5594 94.0415 78.5594L94.6015 76.2858C95.9081 75.2524 98.3347 76.4925 97.9614 78.3527C97.5881 80.2129 94.2281 79.3861 94.2281 79.3861C94.2281 79.3861 96.9384 79.76 97.5881 80.6262C98.2378 81.4924 95.2626 83.4652 94.2281 82.8998C93.1937 82.3344 93.1082 80.0062 93.1082 80.0062C93.1082 80.0062 93.5205 81.5182 93.1082 82.2797C92.1402 84.0677 88.1722 81.5279 88.8149 79.5928C88.9275 79.254 91.8015 79.3861 91.8015 79.3861C91.8015 79.3861 88.357 79.3121 88.0682 78.3527C87.6949 77.1126 88.9479 76.1431 89.5616 76.2858C91.1124 76.6465 92.4077 79.207 92.1748 78.5594Z" stroke="#E9496D" stroke-width="0.1"/>
<path d="M88.1748 93.5594C88.1748 93.5594 86.1216 90.8725 86.4948 90.0458C86.868 89.219 89.5924 88.3923 90.2281 89.6324C90.6212 90.3991 90.4569 91.7188 90.2742 92.6146L90.6015 91.2858C91.9081 90.2524 94.3347 91.4925 93.9614 93.3527C93.6973 94.6688 91.9379 94.6399 90.9315 94.5104C91.7811 94.6835 93.151 95.0435 93.5881 95.6262C94.2378 96.4924 91.2626 98.4652 90.2281 97.8998C89.7228 97.6236 89.4439 96.9266 89.2908 96.286C89.297 96.6443 89.2546 97.0093 89.1082 97.2797C88.1402 99.0677 84.1722 96.5279 84.8149 94.5928C84.9075 94.314 86.8703 94.3541 87.5625 94.377C86.7769 94.3395 84.3107 94.1581 84.0682 93.3527C83.6949 92.1126 84.9479 91.1431 85.5616 91.2858C87.1124 91.6465 88.4077 94.207 88.1748 93.5594Z" fill="url(#paint20_radial_1142_72)"/>
<path d="M88.1748 93.5594C88.1748 93.5594 86.1216 90.8725 86.4948 90.0458C86.868 89.219 89.5924 88.3923 90.2281 89.6324C90.8639 90.8725 90.0415 93.5594 90.0415 93.5594L90.6015 91.2858C91.9081 90.2524 94.3347 91.4925 93.9614 93.3527C93.5881 95.2129 90.2281 94.3861 90.2281 94.3861C90.2281 94.3861 92.9384 94.76 93.5881 95.6262C94.2378 96.4924 91.2626 98.4652 90.2281 97.8998C89.1937 97.3344 89.1082 95.0062 89.1082 95.0062C89.1082 95.0062 89.5205 96.5182 89.1082 97.2797C88.1402 99.0677 84.1722 96.5279 84.8149 94.5928C84.9275 94.254 87.8015 94.3861 87.8015 94.3861C87.8015 94.3861 84.357 94.3121 84.0682 93.3527C83.6949 92.1126 84.9479 91.1431 85.5616 91.2858C87.1124 91.6465 88.4077 94.207 88.1748 93.5594Z" stroke="#E9496D" stroke-width="0.1"/>
<path d="M320.221 65.4586C320.221 65.4586 323.579 60.6154 321.183 56.6899C320.731 55.9502 319.386 56.8699 319.307 57.4582C319.191 58.3294 318.788 58.5832 318.799 59.1134C318.366 57.6814 317.67 56.1938 316.45 56.2079C315.725 56.2163 315.737 56.8434 315.076 57.1309C314.354 57.4447 313.352 56.7455 313.132 57.6329C312.985 58.2245 313.13 58.7838 313.544 59.2304C312.963 58.8818 312.437 58.9231 311.964 59.3546C311.535 59.7453 311.534 60.2373 311.159 60.6985C310.744 61.2079 310.657 61.0335 310.216 61.5099C309.179 62.6297 312.622 64.5808 314.055 64.7787L320.221 65.4586Z" fill="url(#paint21_radial_1142_72)"/>
<path d="M320.221 65.4586C320.83 64.3741 320.7 59.8327 318.994 59.8114M320.221 65.4586C320.221 65.4586 323.579 60.6154 321.183 56.6899C320.731 55.9502 319.386 56.8699 319.307 57.4582C319.15 58.6348 318.47 58.6853 318.994 59.8114M320.221 65.4586L314.055 64.7787M318.994 59.8114C317.928 59.9834 318.497 59.8365 317.482 60.2018C317.03 60.3642 316.824 61.2237 315.243 61.3479M318.994 59.8114C318.581 58.2138 317.872 56.1915 316.45 56.2079C315.725 56.2163 315.737 56.8434 315.076 57.1309C314.354 57.4447 313.352 56.7455 313.132 57.6329C312.985 58.2245 313.13 58.7838 313.544 59.2304M313.544 59.2304C314.277 60.1504 314.511 60.4279 315.243 61.3479M313.544 59.2304C312.963 58.8818 312.437 58.9231 311.964 59.3546C311.535 59.7453 311.534 60.2373 311.159 60.6985C310.744 61.2079 310.657 61.0335 310.216 61.5099C309.179 62.6297 312.622 64.5808 314.055 64.7787M315.243 61.3479C314.779 61.4677 314.517 62.1035 314.517 62.1035C314.517 62.1035 313.79 62.8591 314.055 64.7787" stroke="#E9496D" stroke-width="0.2"/>
<path d="M327.68 66.1055C327.68 66.1055 324.395 61.3289 324.992 59.8591C325.589 58.3894 329.948 56.9196 330.965 59.1243C331.594 60.4873 331.331 62.8334 331.039 64.426L331.562 62.0637C333.653 60.2265 337.536 62.4311 336.938 65.7381C336.516 68.078 333.701 68.0264 332.09 67.7962C333.45 68.104 335.642 68.7439 336.341 69.78C337.381 71.3199 332.62 74.827 330.965 73.8218C330.157 73.3308 329.71 72.0918 329.465 70.9529C329.475 71.5899 329.407 72.2388 329.173 72.7195C327.624 75.8981 321.276 71.3829 322.304 67.9427C322.452 67.4471 325.593 67.5184 326.7 67.5592C325.443 67.4925 321.497 67.17 321.109 65.7381C320.512 63.5334 322.517 61.8099 323.499 62.0637C325.98 62.705 328.052 67.257 327.68 66.1055Z" fill="url(#paint22_radial_1142_72)"/>
<path d="M327.68 66.1055C327.68 66.1055 324.395 61.3289 324.992 59.8591C325.589 58.3894 329.948 56.9196 330.965 59.1243C331.982 61.3289 330.666 66.1055 330.666 66.1055L331.562 62.0637C333.653 60.2265 337.536 62.4311 336.938 65.7381C336.341 69.0451 330.965 67.5753 330.965 67.5753C330.965 67.5753 335.302 68.2401 336.341 69.78C337.381 71.3199 332.62 74.827 330.965 73.8218C329.31 72.8167 329.173 68.6776 329.173 68.6776C329.173 68.6776 329.833 71.3657 329.173 72.7195C327.624 75.8981 321.276 71.3829 322.304 67.9427C322.484 67.3405 327.083 67.5753 327.083 67.5753C327.083 67.5753 321.571 67.4438 321.109 65.7381C320.512 63.5334 322.517 61.8099 323.499 62.0637C325.98 62.705 328.052 67.257 327.68 66.1055Z" stroke="#E9496D" stroke-width="0.1"/>
<path fill-rule="evenodd" clip-rule="evenodd" d="M451.374 166.482L451.374 166.502C457.643 166.814 462.601 170.755 462.601 175.571C462.601 177.084 462.111 178.512 461.245 179.767C463.076 181.186 464.205 183.126 464.205 185.265C464.205 189.615 459.537 193.141 453.78 193.141C448.301 193.141 443.809 189.948 443.387 185.89C442.759 185.537 442.201 185.116 441.732 184.641C440.116 185.42 438.197 185.87 436.138 185.87C435.372 185.87 434.625 185.808 433.906 185.69C433.385 186.256 432.74 186.751 432 187.154C431.182 191.23 426.524 194.353 420.901 194.353C414.701 194.353 409.674 190.555 409.674 185.871C409.674 182.217 412.732 179.103 417.019 177.909C415.436 176.447 414.486 174.578 414.486 172.542C414.486 167.857 419.512 164.059 425.713 164.059C425.889 164.059 426.065 164.062 426.24 164.068C427.813 160.56 432.726 158 438.544 158C445.63 158 451.374 161.798 451.374 166.482Z" fill="url(#paint23_linear_1142_72)"/>
<path d="M435.011 171.899H434.096L435.011 179.214V184.7L433.182 182.871L429.525 180.128H427.696C427.696 180.128 428.335 180.793 429.525 181.957C430.715 183.12 431.353 184.7 431.353 184.7C431.353 184.7 430.439 184.7 428.61 185.614L426.782 186.528H433.182C433.182 186.528 434.096 186.528 435.011 188.357C435.925 190.186 435.925 190.186 435.925 192.014C435.925 193.843 435.011 226.758 435.011 226.758H440.496C440.496 226.758 438.668 196.586 439.582 192.928C440.496 189.271 444.154 187.443 444.154 187.443L449.64 182.871L448.725 181.957L444.154 184.7L446.897 177.385H445.982L441.411 186.528L438.668 188.357C438.668 188.357 441.411 181.957 442.325 180.128C443.239 178.3 446.897 175.557 446.897 175.557L445.982 173.728L441.411 177.385L440.496 173.728H439.582L440.496 179.214L437.754 182.871L435.011 171.899Z" fill="#BE9A7D"/>
<path fill-rule="evenodd" clip-rule="evenodd" d="M464.076 176.073L464.076 176.09C469.268 176.348 473.374 179.613 473.374 183.601C473.374 184.855 472.969 186.037 472.251 187.076C473.768 188.252 474.703 189.859 474.703 191.63C474.703 195.233 470.837 198.154 466.068 198.154C461.53 198.154 457.81 195.509 457.461 192.148C456.94 191.856 456.478 191.507 456.09 191.114C454.751 191.759 453.162 192.132 451.456 192.132C450.821 192.132 450.203 192.081 449.607 191.983C449.176 192.451 448.642 192.861 448.029 193.195C447.351 196.571 443.494 199.158 438.836 199.158C433.701 199.158 429.538 196.012 429.538 192.132C429.538 189.106 432.07 186.526 435.621 185.538C434.31 184.327 433.523 182.779 433.523 181.092C433.523 177.212 437.686 174.066 442.822 174.066C442.968 174.066 443.114 174.069 443.258 174.074C444.561 171.168 448.63 169.048 453.449 169.048C459.318 169.048 464.076 172.193 464.076 176.073Z" fill="url(#paint24_linear_1142_72)"/>
<path d="M450.523 180.561H449.765L450.523 186.619V191.162L449.008 189.648L445.979 187.376H444.464C444.464 187.376 444.993 187.927 445.979 188.891C446.965 189.854 447.493 191.162 447.493 191.162C447.493 191.162 446.736 191.162 445.222 191.92L443.707 192.677H449.008C449.008 192.677 449.765 192.677 450.523 194.192C451.28 195.706 451.28 195.706 451.28 197.221C451.28 198.735 450.523 225.997 450.523 225.997H455.066C455.066 225.997 453.552 201.007 454.309 197.978C455.066 194.949 458.095 193.434 458.095 193.434L462.639 189.648L461.882 188.891L458.095 191.162L460.367 185.104H459.61L455.823 192.677L453.552 194.192C453.552 194.192 455.823 188.891 456.581 187.376C457.338 185.861 460.367 183.59 460.367 183.59L459.61 182.075L455.823 185.104L455.066 182.075H454.309L455.066 186.619L452.794 189.648L450.523 180.561Z" fill="#BE9A7D"/>
<path fill-rule="evenodd" clip-rule="evenodd" d="M425.331 178.46C425.329 178.644 425.318 178.825 425.3 179.004C425.79 178.931 426.296 178.904 426.811 178.931C430.905 179.139 434.058 182.581 433.852 186.62C433.833 187.002 433.784 187.375 433.708 187.739C436.161 188.765 437.711 190.284 437.686 191.956C437.641 194.936 432.614 197.276 426.457 197.184C423.622 197.141 421.042 196.59 419.088 195.717C418.338 196.393 417.367 196.913 416.262 197.211C415.031 199.83 411.829 201.669 408.101 201.613C403.353 201.542 399.551 198.425 399.608 194.651C399.61 194.457 399.624 194.264 399.647 194.074C396.938 192.908 395.158 190.899 395.192 188.641C395.239 185.536 398.701 183.003 403.231 182.523C403.17 182.102 403.141 181.669 403.148 181.227C403.206 177.314 406.029 174.185 409.453 174.236C410.418 174.251 411.329 174.517 412.137 174.979C413.386 172.991 415.708 171.673 418.347 171.713C422.26 171.772 425.387 174.793 425.331 178.46Z" fill="url(#paint25_linear_1142_72)"/>
<path d="M413.588 181.854L415.075 184.953L417.307 193.278L419.539 191.196L418.795 186.34H419.539L420.283 189.115H421.664L424.746 187.728C424.746 187.728 421.77 189.809 421.027 191.196C420.283 192.584 418.051 197.44 418.051 197.44L420.283 196.052L422.514 192.584L424.746 189.115L422.514 194.665L429.634 191.196L426.978 193.278L422.514 196.746C422.514 196.746 419.539 198.133 418.795 200.908C418.051 203.683 419.539 226.575 419.539 226.575H415.075C415.075 226.575 415.819 201.602 415.819 200.215C415.819 198.827 415.819 198.827 415.075 197.44C414.332 196.052 413.588 196.052 413.588 196.052L408.813 195.631C407.383 195.792 405.724 195.359 405.724 195.359L408.813 195.631C409.193 195.589 409.556 195.504 409.868 195.359C411.356 194.665 412.1 194.665 412.1 194.665C412.1 194.665 411.58 193.467 410.612 192.584C409.644 191.701 404.395 189.115 404.395 189.115L409.868 191.196L413.588 193.278L415.075 194.665V190.503L413.588 181.854Z" fill="#BE9A7D"/>
<path fill-rule="evenodd" clip-rule="evenodd" d="M116.194 166.606L116.194 166.626C122.555 166.942 127.584 170.94 127.584 175.826C127.584 177.362 127.087 178.81 126.208 180.083C128.066 181.523 129.211 183.491 129.211 185.661C129.211 190.075 124.476 193.653 118.635 193.653C113.076 193.653 108.519 190.412 108.091 186.295C107.453 185.937 106.887 185.51 106.412 185.029C104.772 185.818 102.825 186.276 100.736 186.276C99.959 186.276 99.2013 186.212 98.4718 186.092C97.9435 186.666 97.289 187.169 96.5385 187.578C95.708 191.713 90.9827 194.882 85.278 194.882C78.9874 194.882 73.8879 191.029 73.8879 186.276C73.8879 182.569 76.9898 179.41 81.3393 178.199C79.7331 176.715 78.7694 174.819 78.7694 172.753C78.7694 168 83.8689 164.147 90.1595 164.147C90.3388 164.147 90.5172 164.151 90.6945 164.157C92.29 160.597 97.2748 158 103.177 158C110.366 158 116.194 161.853 116.194 166.606Z" fill="url(#paint26_linear_1142_72)"/>
<path d="M99.5926 172.102H98.665L99.5926 179.522V185.088L97.7374 183.233L94.027 180.45H92.1717C92.1717 180.45 92.8195 181.125 94.027 182.305C95.2344 183.486 95.8822 185.088 95.8822 185.088C95.8822 185.088 94.9546 185.088 93.0993 186.016L91.2441 186.943H97.7374C97.7374 186.943 98.665 186.943 99.5926 188.798C100.52 190.654 100.52 190.654 100.52 192.509C100.52 194.364 99.5926 227.758 99.5926 227.758H105.158C105.158 227.758 103.303 197.147 104.231 193.436C105.158 189.726 108.869 187.871 108.869 187.871L114.434 183.233L113.507 182.305L108.869 185.088L111.651 177.667H110.724L106.086 186.943L103.303 188.798C103.303 188.798 106.086 182.305 107.013 180.45C107.941 178.595 111.651 175.812 111.651 175.812L110.724 173.957L106.086 177.667L105.158 173.957H104.231L105.158 179.522L102.375 183.233L99.5926 172.102Z" fill="#BE9A7D"/>
<path fill-rule="evenodd" clip-rule="evenodd" d="M129.08 176.336L129.08 176.353C134.348 176.615 138.514 179.926 138.514 183.973C138.514 185.245 138.103 186.444 137.375 187.499C138.914 188.691 139.862 190.321 139.862 192.119C139.862 195.774 135.94 198.737 131.102 198.737C126.498 198.737 122.723 196.054 122.369 192.644C121.841 192.347 121.372 191.994 120.979 191.595C119.62 192.249 118.007 192.628 116.277 192.628C115.633 192.628 115.006 192.576 114.401 192.476C113.964 192.952 113.422 193.368 112.8 193.706C112.112 197.131 108.199 199.756 103.474 199.756C98.2637 199.756 94.04 196.564 94.04 192.628C94.04 189.558 96.6092 186.941 100.212 185.938C98.8813 184.709 98.0831 183.139 98.0831 181.427C98.0831 177.491 102.307 174.3 107.517 174.3C107.666 174.3 107.813 174.302 107.96 174.307C109.282 171.359 113.41 169.208 118.299 169.208C124.253 169.208 129.08 172.399 129.08 176.336Z" fill="url(#paint27_linear_1142_72)"/>
<path d="M115.33 180.888H114.562L115.33 187.034V191.644L113.794 190.107L110.72 187.802H109.184C109.184 187.802 109.72 188.361 110.72 189.339C111.72 190.317 112.257 191.644 112.257 191.644C112.257 191.644 111.489 191.644 109.952 192.412L108.416 193.18H113.794C113.794 193.18 114.562 193.18 115.33 194.717C116.098 196.254 116.098 196.254 116.098 197.79C116.098 199.327 115.33 226.985 115.33 226.985H119.94C119.94 226.985 118.403 201.632 119.172 198.558C119.94 195.485 123.013 193.949 123.013 193.949L127.623 190.107L126.855 189.339L123.013 191.644L125.318 185.497H124.55L120.708 193.18L118.403 194.717C118.403 194.717 120.708 189.339 121.477 187.802C122.245 186.266 125.318 183.961 125.318 183.961L124.55 182.424L120.708 185.497L119.94 182.424H119.172L119.94 187.034L117.635 190.107L115.33 180.888Z" fill="#BE9A7D"/>
<path fill-rule="evenodd" clip-rule="evenodd" d="M89.7725 178.758C89.7697 178.944 89.7589 179.128 89.7404 179.31C90.238 179.235 90.7507 179.208 91.2732 179.235C95.4272 179.446 98.6258 182.939 98.4174 187.036C98.3977 187.423 98.3482 187.802 98.2712 188.171C100.76 189.213 102.332 190.753 102.307 192.45C102.261 195.473 97.1608 197.848 90.9146 197.754C88.0385 197.71 85.421 197.151 83.4381 196.265C82.6775 196.951 81.6919 197.479 80.5716 197.781C79.3229 200.439 76.0741 202.304 72.2915 202.247C67.4749 202.175 63.617 199.012 63.6746 195.184C63.6776 194.987 63.6909 194.791 63.7142 194.599C60.9662 193.416 59.1605 191.377 59.195 189.087C59.2424 185.936 62.7554 183.366 67.3512 182.88C67.2888 182.453 67.2594 182.013 67.2662 181.564C67.3259 177.595 70.1898 174.42 73.6628 174.472C74.6427 174.487 75.5664 174.757 76.3862 175.226C77.6534 173.209 80.0096 171.872 82.6871 171.912C86.6563 171.972 89.8285 175.037 89.7725 178.758Z" fill="url(#paint28_linear_1142_72)"/>
<path d="M77.858 182.2L79.3674 185.345L81.6316 193.79L83.8957 191.679L83.141 186.752H83.8957L84.6504 189.568H86.052L89.1787 188.16C89.1787 188.16 86.1598 190.271 85.4051 191.679C84.6504 193.087 82.3863 198.013 82.3863 198.013L84.6504 196.606L86.9145 193.087L89.1787 189.568L86.9145 195.198L94.1382 191.679L91.4428 193.79L86.9145 197.309C86.9145 197.309 83.8957 198.717 83.141 201.532C82.3863 204.347 83.8957 227.573 83.8957 227.573H79.3674C79.3674 227.573 80.1222 202.236 80.1222 200.828C80.1222 199.421 80.1222 199.421 79.3674 198.013C78.6127 196.606 77.858 196.606 77.858 196.606L73.0144 196.178C71.5632 196.341 69.8797 195.902 69.8797 195.902L73.0144 196.178C73.3994 196.135 73.768 196.049 74.0845 195.902C75.5939 195.198 76.3486 195.198 76.3486 195.198C76.3486 195.198 75.8216 193.982 74.8392 193.087C73.8568 192.191 68.532 189.568 68.532 189.568L74.0845 191.679L77.858 193.79L79.3674 195.198V190.975L77.858 182.2Z" fill="#BE9A7D"/>
<path d="M162.325 90.4857C162.539 90.4857 162.704 90.5846 162.82 90.7824C162.951 90.9802 163.017 91.2522 163.017 91.5984C163.017 92.2413 162.861 92.7524 162.548 93.1316C161.756 94.0877 160.957 94.8295 160.149 95.3571C159.341 95.8681 158.385 96.1236 157.281 96.1236C156.061 96.1236 155.063 95.7692 154.288 95.0603C153.514 94.335 152.788 93.214 152.112 91.6973C151.618 90.6093 151.206 89.8015 150.876 89.274C150.563 88.73 150.25 88.3508 149.936 88.1365C149.623 87.9057 149.227 87.7656 148.749 87.7161L148.477 89.546C148.131 91.9034 147.455 93.6014 146.45 94.64C145.461 95.6785 144.092 96.1978 142.345 96.1978C141.207 96.1978 140.193 95.9258 139.303 95.3818C138.43 94.8213 137.82 94.1124 137.473 93.2552C137.358 92.9585 137.3 92.637 137.3 92.2908C137.3 91.7962 137.416 91.3676 137.646 91.0049C137.877 90.6423 138.174 90.4609 138.537 90.4609C138.751 90.4609 138.932 90.5186 139.081 90.634C139.229 90.7329 139.369 90.9143 139.501 91.178C140.012 92.1342 140.457 92.8018 140.836 93.181C141.232 93.5602 141.718 93.7498 142.295 93.7498C142.955 93.7498 143.515 93.453 143.977 92.8595C144.455 92.2496 144.793 91.3182 144.991 90.0653L145.337 87.7161H144.941C144.562 87.7161 144.265 87.609 144.051 87.3947C143.837 87.1803 143.73 86.8836 143.73 86.5044C143.73 86.0758 143.837 85.7379 144.051 85.4906C144.282 85.2268 144.562 85.0949 144.892 85.0949H145.708C145.823 84.2872 145.906 83.7267 145.955 83.4134L146.722 77.8496C146.293 77.8002 145.889 77.7755 145.51 77.7755C144.109 77.7755 143.045 78.0227 142.32 78.5173C141.595 78.9954 141.232 79.6878 141.232 80.5944C141.232 81.0066 141.273 81.3445 141.356 81.6083C141.455 81.8556 141.578 82.1358 141.727 82.449C141.793 82.5809 141.826 82.7293 141.826 82.8942C141.826 83.2568 141.652 83.5783 141.306 83.8585C140.977 84.1223 140.606 84.2542 140.193 84.2542C139.666 84.2542 139.279 84.0234 139.031 83.5618C138.537 82.6881 138.289 81.7484 138.289 80.7428C138.289 79.7042 138.57 78.7563 139.13 77.8991C139.707 77.0419 140.573 76.3577 141.727 75.8467C142.881 75.3191 144.307 75.0554 146.005 75.0554C146.746 75.0554 147.422 75.0966 148.032 75.179C148.659 75.2614 149.343 75.4181 150.085 75.6488C150.892 75.8961 151.296 76.3577 151.296 77.0336C151.296 77.9403 150.909 78.3937 150.134 78.3937L149.17 85.0455C151.099 84.8477 152.665 84.0234 153.868 82.5727C155.088 81.1055 156.102 79.119 156.91 76.6132C157.058 76.1516 157.305 75.7972 157.651 75.5499C158.014 75.3027 158.467 75.179 159.011 75.179C159.473 75.179 159.828 75.2862 160.075 75.5005C160.339 75.6983 160.47 75.9868 160.47 76.366C160.47 76.4814 160.437 76.6709 160.372 76.9347C159.547 79.6548 158.369 81.8144 156.835 83.4134C155.302 85.0125 153.629 86.0758 151.816 86.6034C152.442 86.7517 152.953 86.9743 153.349 87.271C153.761 87.5677 154.107 87.9387 154.387 88.3838C154.668 88.8124 154.989 89.4141 155.352 90.1889C155.863 91.2769 156.341 92.0518 156.786 92.5134C157.231 92.9585 157.75 93.181 158.344 93.181C158.871 93.181 159.374 93.0079 159.852 92.6617C160.33 92.299 160.932 91.6891 161.657 90.8318C161.855 90.6011 162.078 90.4857 162.325 90.4857ZM173.663 90.5351C173.878 90.5351 174.043 90.6423 174.158 90.8566C174.29 91.0544 174.356 91.3099 174.356 91.6231C174.356 92.0023 174.298 92.299 174.183 92.5134C174.067 92.7277 173.886 92.9172 173.639 93.0821L168.891 96.272C168.264 99.6845 167.44 102.363 166.418 104.309C165.412 106.27 164.127 107.251 162.561 107.251C161.72 107.251 161.036 106.987 160.508 106.46C159.981 105.949 159.717 105.273 159.717 104.432C159.717 103.657 159.89 102.866 160.236 102.058C160.599 101.251 161.258 100.319 162.214 99.2641C163.187 98.2255 164.555 97.0303 166.319 95.6785L166.393 95.1098C166.509 94.4998 166.641 93.6261 166.789 92.4886C166.459 93.6756 165.998 94.5823 165.404 95.2087C164.811 95.8187 164.184 96.1236 163.525 96.1236C162.783 96.1236 162.173 95.7857 161.695 95.1098C161.233 94.4174 161.003 93.5602 161.003 92.5381C161.003 91.3017 161.085 90.1724 161.25 89.1503C161.415 88.1118 161.687 87.0155 162.066 85.8615C162.231 85.367 162.462 85.0125 162.758 84.7982C163.055 84.5839 163.525 84.4767 164.168 84.4767C164.531 84.4767 164.778 84.5344 164.91 84.6498C165.058 84.7652 165.132 84.9383 165.132 85.1691C165.132 85.301 165.042 85.7461 164.86 86.5044C164.695 87.1144 164.564 87.6667 164.465 88.1612C164.333 88.8371 164.217 89.4883 164.118 90.1147C164.019 90.7247 163.97 91.2275 163.97 91.6231C163.97 92.2496 164.143 92.5628 164.489 92.5628C164.737 92.5628 165.042 92.3155 165.404 91.821C165.783 91.3264 166.179 90.5763 166.591 89.5707C167.02 88.5651 167.432 87.3287 167.828 85.8615C167.959 85.367 168.157 85.0125 168.421 84.7982C168.701 84.5839 169.113 84.4767 169.657 84.4767C170.037 84.4767 170.3 84.5262 170.449 84.6251C170.597 84.724 170.671 84.8889 170.671 85.1197C170.671 85.5318 170.457 86.9495 170.028 89.3729L169.385 93.3541C170.655 92.398 171.891 91.5242 173.095 90.7329C173.309 90.6011 173.499 90.5351 173.663 90.5351ZM162.833 104.853C163.245 104.853 163.706 104.375 164.217 103.418C164.728 102.462 165.239 100.871 165.75 98.6459C164.481 99.7174 163.558 100.69 162.981 101.564C162.42 102.454 162.14 103.229 162.14 103.888C162.14 104.168 162.19 104.399 162.289 104.581C162.404 104.762 162.585 104.853 162.833 104.853ZM185.447 88.4085C185.661 88.4085 185.826 88.5157 185.941 88.73C186.057 88.9443 186.114 89.2163 186.114 89.546C186.114 90.3373 185.875 90.8071 185.397 90.9555C184.408 91.3017 183.32 91.4995 182.133 91.549C181.82 92.9337 181.202 94.0465 180.279 94.8872C179.355 95.7115 178.309 96.1236 177.138 96.1236C176.149 96.1236 175.3 95.8846 174.591 95.4065C173.899 94.9285 173.371 94.2938 173.009 93.5025C172.646 92.7112 172.464 91.8539 172.464 90.9308C172.464 89.6779 172.704 88.5651 173.182 87.5925C173.66 86.6034 174.319 85.8368 175.16 85.2928C176.001 84.7323 176.932 84.452 177.954 84.452C179.207 84.452 180.213 84.8889 180.971 85.7626C181.746 86.6198 182.199 87.6831 182.331 88.9525C183.106 88.9031 184.029 88.7382 185.101 88.458C185.232 88.425 185.348 88.4085 185.447 88.4085ZM177.336 93.5025C177.863 93.5025 178.317 93.2882 178.696 92.8595C179.092 92.4309 179.355 91.8127 179.487 91.0049C178.976 90.6587 178.581 90.2054 178.3 89.6449C178.037 89.0844 177.905 88.4909 177.905 87.8645C177.905 87.6007 177.929 87.337 177.979 87.0732H177.855C177.196 87.0732 176.644 87.3947 176.198 88.0376C175.77 88.664 175.555 89.5542 175.555 90.7082C175.555 91.6149 175.729 92.3073 176.075 92.7854C176.437 93.2634 176.858 93.5025 177.336 93.5025ZM195.649 90.4857C195.863 90.4857 196.028 90.5846 196.143 90.7824C196.275 90.9802 196.341 91.2522 196.341 91.5984C196.341 92.2578 196.184 92.7689 195.871 93.1316C195.162 94.0053 194.387 94.7224 193.547 95.2829C192.706 95.8434 191.742 96.1236 190.653 96.1236C187.29 96.1236 185.609 93.758 185.609 89.0267C185.609 88.3013 185.634 87.5677 185.683 86.8259H184.719C184.224 86.8259 183.886 86.7352 183.705 86.5539C183.54 86.3726 183.458 86.0841 183.458 85.6884C183.458 84.7652 183.829 84.3037 184.57 84.3037H185.98C186.26 82.4903 186.689 80.8335 187.266 79.3333C187.843 77.8332 188.535 76.638 189.343 75.7478C190.167 74.8576 191.049 74.4124 191.989 74.4124C192.681 74.4124 193.225 74.7174 193.621 75.3274C194.016 75.9373 194.214 76.7039 194.214 77.6271C194.214 80.1823 193.143 82.4078 191 84.3037H193.769C194.033 84.3037 194.223 84.3613 194.338 84.4767C194.453 84.5921 194.511 84.8065 194.511 85.1197C194.511 86.2572 193.58 86.8259 191.717 86.8259H188.7C188.667 87.6502 188.651 88.2931 188.651 88.7547C188.651 90.4692 188.848 91.6726 189.244 92.365C189.656 93.0574 190.299 93.4036 191.173 93.4036C191.882 93.4036 192.508 93.1892 193.052 92.7606C193.596 92.332 194.239 91.6891 194.981 90.8318C195.179 90.6011 195.401 90.4857 195.649 90.4857ZM191.321 76.7863C191.074 76.7863 190.794 77.0996 190.48 77.726C190.184 78.336 189.895 79.1932 189.615 80.2977C189.351 81.3857 189.129 82.5974 188.947 83.9327C189.92 83.092 190.645 82.1523 191.123 81.1137C191.618 80.0587 191.865 79.1025 191.865 78.2453C191.865 77.2727 191.684 76.7863 191.321 76.7863ZM198.507 96.1236C197.534 96.1236 196.701 95.8846 196.009 95.4065C195.333 94.912 194.822 94.269 194.476 93.4777C194.13 92.6864 193.957 91.8375 193.957 90.9308C193.957 89.6779 194.187 88.5651 194.649 87.5925C195.127 86.6034 195.77 85.8368 196.578 85.2928C197.386 84.7323 198.292 84.452 199.298 84.452C200.27 84.452 201.103 84.6993 201.795 85.1939C202.488 85.6719 203.007 86.3066 203.353 87.0979C203.699 87.8892 203.873 88.7382 203.873 89.6449C203.873 90.8978 203.634 92.0188 203.155 93.0079C202.677 93.9805 202.026 94.7471 201.202 95.3076C200.394 95.8516 199.496 96.1236 198.507 96.1236ZM198.779 93.453C199.339 93.453 199.809 93.148 200.188 92.5381C200.584 91.9281 200.782 91.0379 200.782 89.8675C200.782 88.9608 200.617 88.2766 200.287 87.815C199.957 87.3534 199.562 87.1226 199.1 87.1226C198.507 87.1226 198.012 87.4276 197.616 88.0376C197.237 88.6311 197.048 89.5213 197.048 90.7082C197.048 91.6479 197.212 92.3403 197.542 92.7854C197.872 93.2305 198.284 93.453 198.779 93.453ZM205.928 99.907C205.565 99.907 205.277 99.8246 205.063 99.6597C204.848 99.4949 204.741 99.2311 204.741 98.8684C204.741 98.7201 204.766 98.547 204.815 98.3492C204.997 97.5908 205.129 96.8902 205.211 96.2473C205.31 95.6044 205.359 94.8872 205.359 94.0959C205.359 93.2717 205.549 92.637 205.928 92.1919C206.324 91.7468 206.827 91.5242 207.436 91.5242C208.03 91.5242 208.475 91.6891 208.772 92.0188C209.085 92.332 209.242 92.7606 209.242 93.3046C209.242 93.8816 209.069 94.6482 208.722 95.6044C208.376 96.5605 207.956 97.4919 207.461 98.3986C207.131 99.0086 206.868 99.4125 206.67 99.6103C206.489 99.8081 206.241 99.907 205.928 99.907ZM236.182 77.0336C236.182 77.5282 236.075 77.8991 235.861 78.1464C235.663 78.3937 235.333 78.5173 234.872 78.5173C234.839 78.8635 234.765 79.4652 234.649 80.3224C234.484 81.4764 234.394 82.1193 234.377 82.2512C232.91 93.181 229.852 98.6459 225.203 98.6459C223.835 98.6459 222.763 98.2585 221.989 97.4837C221.23 96.7089 220.851 95.7362 220.851 94.5658C220.851 92.4721 221.741 90.6258 223.522 89.0267C225.302 87.4111 227.643 86.0758 230.544 85.0208C230.726 83.8503 230.866 82.8035 230.965 81.8803L231.41 78.1464C230.421 78.0475 229.498 77.998 228.64 77.998C226.349 77.998 224.659 78.2206 223.571 78.6657C222.483 79.1108 221.939 79.8361 221.939 80.8417C221.939 81.3363 222.104 81.8721 222.434 82.449C222.533 82.6139 222.582 82.787 222.582 82.9683C222.582 83.3145 222.401 83.6278 222.038 83.908C221.692 84.1718 221.313 84.3037 220.9 84.3037C220.373 84.3037 219.969 84.0811 219.689 83.636C219.227 82.8777 218.996 81.9957 218.996 80.9901C218.996 77.0336 222.458 75.0554 229.382 75.0554C231.393 75.0554 233.19 75.2532 234.773 75.6488C235.713 75.8796 236.182 76.3412 236.182 77.0336ZM225.525 96C226.332 96 227.14 95.39 227.948 94.1701C228.756 92.9502 229.465 90.8154 230.075 87.7656C226.052 89.5295 224.041 91.6891 224.041 94.2443C224.041 94.8048 224.173 95.2417 224.437 95.5549C224.7 95.8516 225.063 96 225.525 96ZM238.228 96.1236C237.206 96.1236 236.39 95.7527 235.78 95.0109C235.17 94.269 234.865 93.2964 234.865 92.093C234.865 90.7741 235.17 89.5295 235.78 88.359C236.39 87.1721 237.198 86.2242 238.204 85.5153C239.226 84.79 240.305 84.4273 241.443 84.4273C241.806 84.4273 242.045 84.5015 242.16 84.6498C242.292 84.7817 242.399 85.029 242.481 85.3917C242.828 85.3257 243.19 85.2928 243.569 85.2928C244.377 85.2928 244.781 85.5813 244.781 86.1583C244.781 86.5044 244.658 87.3287 244.41 88.6311C244.031 90.5269 243.842 91.8457 243.842 92.5875C243.842 92.8348 243.899 93.0326 244.015 93.181C244.146 93.3294 244.311 93.4036 244.509 93.4036C244.822 93.4036 245.202 93.2057 245.647 92.8101C246.092 92.398 246.693 91.7385 247.452 90.8318C247.65 90.6011 247.872 90.4857 248.119 90.4857C248.334 90.4857 248.499 90.5846 248.614 90.7824C248.746 90.9802 248.812 91.2522 248.812 91.5984C248.812 92.2578 248.655 92.7689 248.342 93.1316C247.666 93.9723 246.949 94.6812 246.191 95.2582C245.432 95.8351 244.699 96.1236 243.99 96.1236C243.446 96.1236 242.943 95.9423 242.481 95.5796C242.036 95.2005 241.698 94.6894 241.468 94.0465C240.61 95.4313 239.531 96.1236 238.228 96.1236ZM239.118 93.6261C239.481 93.6261 239.827 93.4118 240.157 92.9832C240.487 92.5546 240.726 91.9858 240.874 91.2769L241.789 86.727C241.097 86.7435 240.454 87.0072 239.86 87.5183C239.283 88.0129 238.822 88.6723 238.476 89.4965C238.129 90.3208 237.956 91.1945 237.956 92.1177C237.956 92.6287 238.055 93.0079 238.253 93.2552C238.467 93.5025 238.756 93.6261 239.118 93.6261ZM260.007 90.4857C260.221 90.4857 260.386 90.5846 260.501 90.7824C260.633 90.9802 260.699 91.2522 260.699 91.5984C260.699 92.2578 260.543 92.7689 260.229 93.1316C259.521 94.0053 258.754 94.7224 257.93 95.2829C257.122 95.8434 256.199 96.1236 255.16 96.1236C254.286 96.1236 253.578 95.8104 253.034 95.184C252.094 95.7939 251.113 96.1072 250.091 96.1236C249.877 99.3053 249.39 101.959 248.632 104.086C247.874 106.229 246.761 107.301 245.294 107.301C244.403 107.301 243.744 106.979 243.315 106.336C242.887 105.693 242.673 104.803 242.673 103.666C242.673 102.05 243.043 100.163 243.785 98.003C244.527 95.8599 245.673 93.4942 247.222 90.906C247.222 88.4992 247.206 86.8259 247.173 85.8862C247.157 85.4082 247.346 85.029 247.742 84.7488C248.137 84.4685 248.632 84.3284 249.225 84.3284C249.572 84.3284 249.819 84.4026 249.967 84.5509C250.132 84.6828 250.223 84.9548 250.239 85.367C250.239 85.7791 250.248 86.0841 250.264 86.2819C250.792 85.6225 251.311 85.1526 251.822 84.8724C252.333 84.5757 252.877 84.4273 253.454 84.4273C254.377 84.4273 255.127 84.7982 255.704 85.5401C256.298 86.2819 256.594 87.2545 256.594 88.458C256.594 89.3317 256.454 90.1807 256.174 91.0049C255.894 91.8292 255.506 92.5793 255.012 93.2552C255.358 93.3541 255.646 93.4036 255.877 93.4036C256.421 93.4036 256.941 93.2057 257.435 92.8101C257.93 92.4144 258.564 91.755 259.339 90.8318C259.537 90.6011 259.76 90.4857 260.007 90.4857ZM250.215 93.7498C250.808 93.6179 251.352 93.2964 251.847 92.7854C252.358 92.2578 252.762 91.6149 253.058 90.8566C253.355 90.0818 253.503 89.274 253.503 88.4332C253.503 87.9387 253.404 87.5677 253.207 87.3205C253.009 87.0567 252.745 86.9248 252.415 86.9248C251.822 86.9248 251.105 87.5513 250.264 88.8041C250.248 89.5295 250.239 90.5928 250.239 91.9941C250.239 92.7524 250.231 93.3376 250.215 93.7498ZM245.492 104.877C245.937 104.877 246.308 103.905 246.604 101.959C246.901 100.031 247.091 97.6238 247.173 94.7389C246.464 96.3874 245.904 97.9618 245.492 99.4619C245.079 100.962 244.873 102.223 244.873 103.245C244.873 103.773 244.939 104.177 245.071 104.457C245.187 104.737 245.327 104.877 245.492 104.877ZM261.749 96.1236C260.727 96.1236 259.911 95.7527 259.301 95.0109C258.691 94.269 258.386 93.2964 258.386 92.093C258.386 90.7741 258.691 89.5295 259.301 88.359C259.911 87.1721 260.718 86.2242 261.724 85.5153C262.746 84.79 263.826 84.4273 264.963 84.4273C265.326 84.4273 265.565 84.5015 265.681 84.6498C265.812 84.7817 265.92 85.029 266.002 85.3917C266.348 85.3257 266.711 85.2928 267.09 85.2928C267.898 85.2928 268.302 85.5813 268.302 86.1583C268.302 86.5044 268.178 87.3287 267.931 88.6311C267.552 90.5269 267.362 91.8457 267.362 92.5875C267.362 92.8348 267.42 93.0326 267.535 93.181C267.667 93.3294 267.832 93.4036 268.03 93.4036C268.343 93.4036 268.722 93.2057 269.167 92.8101C269.612 92.398 270.214 91.7385 270.972 90.8318C271.17 90.6011 271.393 90.4857 271.64 90.4857C271.854 90.4857 272.019 90.5846 272.135 90.7824C272.266 90.9802 272.332 91.2522 272.332 91.5984C272.332 92.2578 272.176 92.7689 271.863 93.1316C271.187 93.9723 270.47 94.6812 269.711 95.2582C268.953 95.8351 268.219 96.1236 267.51 96.1236C266.966 96.1236 266.464 95.9423 266.002 95.5796C265.557 95.2005 265.219 94.6894 264.988 94.0465C264.131 95.4313 263.051 96.1236 261.749 96.1236ZM262.639 93.6261C263.002 93.6261 263.348 93.4118 263.678 92.9832C264.007 92.5546 264.246 91.9858 264.395 91.2769L265.31 86.727C264.617 86.7435 263.974 87.0072 263.381 87.5183C262.804 88.0129 262.342 88.6723 261.996 89.4965C261.65 90.3208 261.477 91.1945 261.477 92.1177C261.477 92.6287 261.576 93.0079 261.774 93.2552C261.988 93.5025 262.276 93.6261 262.639 93.6261ZM272.078 96.1236C271.452 96.1236 271.007 95.7939 270.743 95.1345C270.496 94.4751 270.372 93.42 270.372 91.9693C270.372 89.8262 270.677 87.7903 271.287 85.8615C271.435 85.3834 271.674 85.0372 272.004 84.8229C272.35 84.5921 272.828 84.4767 273.438 84.4767C273.768 84.4767 273.999 84.518 274.131 84.6004C274.263 84.6828 274.329 84.8394 274.329 85.0702C274.329 85.334 274.205 85.9275 273.958 86.8506C273.793 87.51 273.661 88.087 273.562 88.5816C273.463 89.0762 273.381 89.6861 273.315 90.4115C273.859 88.9937 274.469 87.8398 275.145 86.9495C275.821 86.0593 276.48 85.4247 277.123 85.0455C277.782 84.6663 278.384 84.4767 278.928 84.4767C279.456 84.4767 279.851 84.6169 280.115 84.8971C280.395 85.1609 280.535 85.5565 280.535 86.0841C280.535 86.5127 280.445 87.3205 280.263 88.5074C280.098 89.513 279.967 90.4692 279.868 91.3759C279.769 92.2661 279.719 93.2634 279.719 94.368C279.719 94.9944 279.587 95.4477 279.324 95.728C279.076 95.9918 278.664 96.1236 278.087 96.1236C277.543 96.1236 277.148 95.9835 276.9 95.7033C276.653 95.423 276.529 95.0026 276.529 94.4421C276.529 93.7827 276.645 92.6947 276.876 91.178C277.073 89.8592 277.172 89.0185 277.172 88.6558C277.172 88.392 277.082 88.2601 276.9 88.2601C276.686 88.2601 276.381 88.5404 275.985 89.1009C275.606 89.6449 275.211 90.3703 274.798 91.2769C274.403 92.1836 274.081 93.1398 273.834 94.1454C273.653 94.9202 273.438 95.4477 273.191 95.728C272.96 95.9918 272.589 96.1236 272.078 96.1236ZM285.553 90.2136C285.223 90.2136 284.951 90.1395 284.737 89.9911C284.522 89.8427 284.415 89.6119 284.415 89.2987L284.44 89.1009C284.72 87.2545 285.099 85.1526 285.578 82.7952C286.056 80.4378 286.501 78.4019 286.913 76.6874C287.177 75.6324 287.894 75.1048 289.064 75.1048C290.119 75.1048 290.647 75.4428 290.647 76.1187C290.647 76.267 290.622 76.4319 290.573 76.6132C290.144 78.3607 289.575 80.4791 288.866 82.9683C288.158 85.4411 287.482 87.5925 286.839 89.4223C286.657 89.9499 286.229 90.2136 285.553 90.2136ZM284.613 96.1236C283.888 96.1236 283.336 95.9258 282.956 95.5302C282.594 95.1345 282.412 94.6152 282.412 93.9723C282.412 93.2305 282.618 92.637 283.031 92.1919C283.459 91.7468 284.053 91.5242 284.811 91.5242C285.536 91.5242 286.08 91.7056 286.443 92.0682C286.822 92.4144 287.012 92.9337 287.012 93.6261C287.012 94.3844 286.797 94.9944 286.369 95.456C285.94 95.9011 285.355 96.1236 284.613 96.1236Z" fill="#F1EFEC"/>
</g>
<path d="M18.6411 19.2259L209.237 12.1738L153.654 66.5755L23.6789 55.7704L18.6411 19.2259Z" fill="#5A2A61"/>
<path d="M15.978 15.5977H201.628L151.223 62.0102L20.7489 53.1496L15.978 15.5977Z" fill="#793F81"/>
<path d="M48.3375 35.6913C48.5189 35.6913 48.6584 35.782 48.756 35.9633C48.8676 36.1307 48.9234 36.3469 48.9234 36.6119C48.9234 36.9328 48.8746 37.1838 48.7769 37.3652C48.6793 37.5465 48.5258 37.7069 48.3166 37.8464C47.4936 38.3904 46.1824 39.2832 44.3829 40.5247C43.8389 43.4121 43.1345 45.6858 42.2697 47.3458C41.4048 49.0057 40.3098 49.8357 38.9846 49.8357C38.2732 49.8357 37.6943 49.6125 37.248 49.1662C36.8016 48.7337 36.5784 48.1618 36.5784 47.4504C36.5784 46.7948 36.7249 46.1322 37.0178 45.4627C37.3107 44.7931 37.8548 44.0189 38.6499 43.1401C39.4589 42.2613 40.5958 41.257 42.0604 40.1271L42.1232 39.7296C41.0212 40.1899 39.9401 40.42 38.88 40.42C37.3177 40.42 35.9437 40.1201 34.758 39.5203C33.5724 38.9066 32.6517 38.0417 31.9961 36.9258C31.3405 35.8099 31.0127 34.5126 31.0127 33.034C31.0127 30.9695 31.4033 29.1491 32.1844 27.5729C32.9656 25.9827 34.0397 24.7552 35.4067 23.8903C36.7876 23.0115 38.329 22.5721 40.0308 22.5721C41.6629 22.5721 42.8834 22.9557 43.6925 23.7229C44.5155 24.4762 44.927 25.4805 44.927 26.7359C44.927 27.5589 44.7735 28.2215 44.4666 28.7237C44.1737 29.2119 43.7483 29.456 43.1903 29.456C42.8137 29.456 42.5068 29.3654 42.2697 29.184C42.0465 29.0027 41.9349 28.7516 41.9349 28.4308C41.9349 28.2913 41.9628 28.0541 42.0186 27.7194C42.1023 27.3288 42.1441 27.0219 42.1441 26.7987C42.1441 26.2129 41.9628 25.7595 41.6001 25.4387C41.2514 25.1178 40.6585 24.9574 39.8216 24.9574C38.8033 24.9574 37.8548 25.2504 36.976 25.8362C36.1111 26.4221 35.4137 27.3009 34.8836 28.4726C34.3535 29.6304 34.0885 31.0253 34.0885 32.6574C34.0885 34.3313 34.5418 35.6285 35.4485 36.5492C36.3692 37.4559 37.6943 37.9092 39.424 37.9092C40.3865 37.9092 41.3909 37.693 42.437 37.2606L42.73 34.7079H40.5958C40.2052 34.7079 39.9053 34.6172 39.696 34.4359C39.4868 34.2406 39.3822 33.9267 39.3822 33.4943C39.3822 33.1037 39.4868 32.7968 39.696 32.5737C39.9053 32.3505 40.1843 32.2389 40.533 32.2389H44.4457C44.7526 32.2389 45.0037 32.3435 45.199 32.5527C45.4082 32.748 45.4919 33.034 45.4501 33.4106C45.4082 33.857 45.2687 34.8683 45.0316 36.4445L44.8014 38.0347C45.9174 37.1978 46.9356 36.4724 47.8563 35.8587C48.0376 35.7471 48.198 35.6913 48.3375 35.6913ZM39.2148 47.8061C39.5775 47.8061 39.975 47.3946 40.4074 46.5716C40.8399 45.7486 41.2444 44.4235 41.621 42.5961C40.5609 43.5028 39.7937 44.3188 39.3194 45.0442C38.8591 45.7835 38.6289 46.4321 38.6289 46.9901C38.6289 47.5341 38.8242 47.8061 39.2148 47.8061ZM48.8984 40.42C48.3683 40.42 47.9917 40.1411 47.7685 39.5831C47.5593 39.0251 47.4546 38.1324 47.4546 36.9049C47.4546 35.0915 47.7127 33.3688 48.2288 31.7367C48.3544 31.3322 48.5566 31.0393 48.8356 30.8579C49.1285 30.6626 49.5331 30.565 50.0492 30.565C50.3282 30.565 50.5235 30.5999 50.635 30.6696C50.7466 30.7393 50.8024 30.8719 50.8024 31.0672C50.8024 31.2903 50.6978 31.7925 50.4886 32.5737C50.3491 33.1316 50.2375 33.6198 50.1538 34.0383C50.0701 34.4568 50.0004 34.9729 49.9446 35.5867C50.4049 34.387 50.921 33.4106 51.4929 32.6574C52.0648 31.9041 52.6228 31.3671 53.1668 31.0462C53.7248 30.7254 54.2339 30.565 54.6942 30.565C55.6009 30.565 56.0543 31.0183 56.0543 31.925C56.0543 32.1064 55.9915 32.5458 55.866 33.2432C55.7544 33.8012 55.6986 34.1499 55.6986 34.2894C55.6986 34.7776 55.8729 35.0217 56.2217 35.0217C56.6123 35.0217 57.1144 34.7149 57.7282 34.1011C57.9095 33.9198 58.0978 33.8291 58.2931 33.8291C58.4745 33.8291 58.614 33.9128 58.7116 34.0802C58.8232 34.2336 58.879 34.4428 58.879 34.7079C58.879 35.224 58.7395 35.6285 58.4605 35.9215C58.0699 36.326 57.6096 36.6747 57.0795 36.9676C56.5634 37.2466 56.0124 37.3861 55.4266 37.3861C54.6873 37.3861 54.1223 37.1978 53.7318 36.8212C53.3551 36.4445 53.1668 35.9354 53.1668 35.2937C53.1668 35.0845 53.1877 34.8753 53.2296 34.666C53.2575 34.387 53.2714 34.1987 53.2714 34.1011C53.2714 33.8779 53.1947 33.7663 53.0413 33.7663C52.832 33.7663 52.5531 34.0034 52.2043 34.4777C51.8695 34.938 51.5348 35.5518 51.2 36.319C50.8652 37.0862 50.5932 37.8953 50.384 38.7462C50.2305 39.4018 50.0492 39.8481 49.8399 40.0853C49.6447 40.3085 49.3308 40.42 48.8984 40.42ZM66.2667 35.6494C66.448 35.6494 66.5875 35.7331 66.6852 35.9005C66.7968 36.0679 66.8526 36.2981 66.8526 36.591C66.8526 37.149 66.72 37.5814 66.455 37.8883C65.9389 38.516 65.2066 39.0949 64.258 39.6249C63.3234 40.155 62.3191 40.42 61.245 40.42C59.7803 40.42 58.6435 40.0225 57.8344 39.2274C57.0254 38.4323 56.6209 37.3443 56.6209 35.9633C56.6209 35.0008 56.8231 34.1081 57.2276 33.2851C57.6322 32.4481 58.1901 31.7855 58.9015 31.2973C59.6269 30.8091 60.4429 30.565 61.3496 30.565C62.1587 30.565 62.8073 30.8091 63.2955 31.2973C63.7837 31.7716 64.0279 32.4202 64.0279 33.2432C64.0279 34.2057 63.6791 35.0357 62.9817 35.7331C62.2982 36.4166 61.1334 36.9607 59.4874 37.3652C59.8361 38.0068 60.4987 38.3277 61.4752 38.3277C62.1029 38.3277 62.8143 38.1115 63.6094 37.679C64.4184 37.2327 65.1159 36.6538 65.7017 35.9424C65.8691 35.7471 66.0575 35.6494 66.2667 35.6494ZM60.9939 32.6155C60.4778 32.6155 60.0384 32.9154 59.6757 33.5152C59.327 34.115 59.1526 34.8404 59.1526 35.6913V35.7331C59.9756 35.5379 60.6243 35.2449 61.0985 34.8543C61.5728 34.4638 61.8099 34.0104 61.8099 33.4943C61.8099 33.2293 61.7332 33.02 61.5798 32.8666C61.4403 32.6992 61.245 32.6155 60.9939 32.6155ZM74.4809 35.6494C74.6622 35.6494 74.8017 35.7331 74.8993 35.9005C75.0109 36.0679 75.0667 36.2981 75.0667 36.591C75.0667 37.149 74.9342 37.5814 74.6692 37.8883C74.1531 38.516 73.4207 39.0949 72.4722 39.6249C71.5376 40.155 70.5333 40.42 69.4592 40.42C67.9945 40.42 66.8577 40.0225 66.0486 39.2274C65.2396 38.4323 64.835 37.3443 64.835 35.9633C64.835 35.0008 65.0373 34.1081 65.4418 33.2851C65.8464 32.4481 66.4043 31.7855 67.1157 31.2973C67.8411 30.8091 68.6571 30.565 69.5638 30.565C70.3729 30.565 71.0215 30.8091 71.5097 31.2973C71.9979 31.7716 72.242 32.4202 72.242 33.2432C72.242 34.2057 71.8933 35.0357 71.1959 35.7331C70.5123 36.4166 69.3476 36.9607 67.7016 37.3652C68.0503 38.0068 68.7129 38.3277 69.6893 38.3277C70.3171 38.3277 71.0285 38.1115 71.8236 37.679C72.6326 37.2327 73.3301 36.6538 73.9159 35.9424C74.0833 35.7471 74.2716 35.6494 74.4809 35.6494ZM69.2081 32.6155C68.692 32.6155 68.2526 32.9154 67.8899 33.5152C67.5412 34.115 67.3668 34.8404 67.3668 35.6913V35.7331C68.1898 35.5379 68.8384 35.2449 69.3127 34.8543C69.787 34.4638 70.0241 34.0104 70.0241 33.4943C70.0241 33.2293 69.9474 33.02 69.794 32.8666C69.6545 32.6992 69.4592 32.6155 69.2081 32.6155ZM82.6951 35.6494C82.8764 35.6494 83.0159 35.7331 83.1135 35.9005C83.2251 36.0679 83.2809 36.2981 83.2809 36.591C83.2809 37.149 83.1484 37.5814 82.8834 37.8883C82.2836 38.6276 81.628 39.2344 80.9165 39.7086C80.2051 40.1829 79.3891 40.42 78.4685 40.42C75.6229 40.42 74.2 38.4183 74.2 34.4149C74.2 33.8012 74.221 33.1804 74.2628 32.5527H73.4468C73.0283 32.5527 72.7424 32.476 72.5889 32.3226C72.4494 32.1691 72.3797 31.925 72.3797 31.5902C72.3797 30.8091 72.6935 30.4185 73.3212 30.4185H74.5139C74.751 28.8841 75.1137 27.4822 75.6019 26.2129C76.0901 24.9435 76.676 23.9322 77.3595 23.1789C78.057 22.4257 78.8033 22.049 79.5984 22.049C80.1842 22.049 80.6445 22.3071 80.9793 22.8232C81.3141 23.3393 81.4815 23.988 81.4815 24.7691C81.4815 26.9312 80.5748 28.8144 78.7614 30.4185H81.1049C81.328 30.4185 81.4885 30.4673 81.5861 30.565C81.6838 30.6626 81.7326 30.844 81.7326 31.109C81.7326 32.0715 80.9444 32.5527 79.3682 32.5527H76.8155C76.7876 33.2502 76.7737 33.7942 76.7737 34.1848C76.7737 35.6355 76.941 36.6538 77.2758 37.2396C77.6246 37.8255 78.1686 38.1184 78.9079 38.1184C79.5077 38.1184 80.0378 37.9371 80.4981 37.5744C80.9584 37.2117 81.5024 36.6677 82.1301 35.9424C82.2975 35.7471 82.4858 35.6494 82.6951 35.6494ZM79.0334 24.0577C78.8242 24.0577 78.587 24.3227 78.322 24.8528C78.0709 25.3689 77.8268 26.0943 77.5897 27.0289C77.3665 27.9495 77.1782 28.9748 77.0247 30.1047C77.8477 29.3933 78.4615 28.5982 78.866 27.7194C79.2845 26.8266 79.4937 26.0176 79.4937 25.2922C79.4937 24.4692 79.3403 24.0577 79.0334 24.0577ZM84.3183 29.184C83.7324 29.184 83.293 29.0515 83.0001 28.7865C82.7072 28.5075 82.5607 28.1239 82.5607 27.6357C82.5607 27.1474 82.749 26.7429 83.1256 26.4221C83.5162 26.0873 83.9975 25.9199 84.5694 25.9199C85.0855 25.9199 85.504 26.0455 85.8248 26.2965C86.1456 26.5476 86.306 26.9033 86.306 27.3637C86.306 27.9216 86.1247 28.368 85.762 28.7028C85.3993 29.0236 84.9181 29.184 84.3183 29.184ZM84.1509 40.42C83.2442 40.42 82.5816 40.0992 82.1631 39.4576C81.7586 38.8159 81.5564 37.965 81.5564 36.9049C81.5564 36.2772 81.6331 35.4751 81.7865 34.4986C81.9539 33.5083 82.1631 32.5876 82.4142 31.7367C82.5398 31.2903 82.7072 30.9835 82.9164 30.8161C83.1256 30.6487 83.4604 30.565 83.9207 30.565C84.6321 30.565 84.9878 30.8021 84.9878 31.2764C84.9878 31.6251 84.8553 32.4342 84.5903 33.7035C84.2555 35.2379 84.0881 36.2772 84.0881 36.8212C84.0881 37.2396 84.1439 37.5605 84.2555 37.7837C84.3671 38.0068 84.5554 38.1184 84.8205 38.1184C85.0715 38.1184 85.3854 37.9441 85.762 37.5953C86.1386 37.2466 86.6408 36.6956 87.2685 35.9424C87.4359 35.7471 87.6242 35.6494 87.8335 35.6494C88.0148 35.6494 88.1543 35.7331 88.2519 35.9005C88.3635 36.0679 88.4193 36.2981 88.4193 36.591C88.4193 37.149 88.2868 37.5814 88.0218 37.8883C86.6408 39.5761 85.3505 40.42 84.1509 40.42ZM88.2121 40.42C87.682 40.42 87.3054 40.1411 87.0822 39.5831C86.8729 39.0251 86.7683 38.1324 86.7683 36.9049C86.7683 35.0915 87.0264 33.3688 87.5425 31.7367C87.668 31.3322 87.8703 31.0393 88.1493 30.8579C88.4422 30.6626 88.8467 30.565 89.3629 30.565C89.6418 30.565 89.8371 30.5999 89.9487 30.6696C90.0603 30.7393 90.1161 30.8719 90.1161 31.0672C90.1161 31.2903 90.0115 31.7925 89.8023 32.5737C89.6628 33.1316 89.5512 33.6198 89.4675 34.0383C89.3838 34.4568 89.314 34.9729 89.2582 35.5867C89.7186 34.387 90.2347 33.4106 90.8066 32.6574C91.3785 31.9041 91.9365 31.3671 92.4805 31.0462C93.0385 30.7254 93.5476 30.565 94.0079 30.565C94.9146 30.565 95.368 31.0183 95.368 31.925C95.368 32.469 95.2145 33.4525 94.9076 34.8753C94.6426 36.0888 94.5101 36.8909 94.5101 37.2815C94.5101 37.8395 94.7124 38.1184 95.1169 38.1184C95.3959 38.1184 95.7237 37.9511 96.1003 37.6163C96.4909 37.2675 97.007 36.7096 97.6486 35.9424C97.816 35.7471 98.0043 35.6494 98.2136 35.6494C98.3949 35.6494 98.5344 35.7331 98.6321 35.9005C98.7437 36.0679 98.7994 36.2981 98.7994 36.591C98.7994 37.149 98.6669 37.5814 98.4019 37.8883C97.8021 38.6276 97.1535 39.2344 96.456 39.7086C95.7725 40.1829 94.9913 40.42 94.1125 40.42C93.4011 40.42 92.8641 40.2178 92.5014 39.8133C92.1387 39.3948 91.9574 38.795 91.9574 38.0138C91.9574 37.6232 92.055 36.9258 92.2503 35.9215C92.4317 35.0427 92.5223 34.4359 92.5223 34.1011C92.5223 33.8779 92.4456 33.7663 92.2922 33.7663C92.1108 33.7663 91.8528 34.0034 91.518 34.4777C91.1972 34.938 90.8624 35.5518 90.5137 36.319C90.1789 37.0862 89.9069 37.8953 89.6976 38.7462C89.5442 39.4018 89.3629 39.8481 89.1536 40.0853C88.9583 40.3085 88.6445 40.42 88.2121 40.42ZM104.2 31.2555C104.548 31.2555 104.793 31.3113 104.932 31.4229C105.085 31.5205 105.162 31.7228 105.162 32.0296C105.162 32.197 105.155 32.3295 105.141 32.4272C105.085 32.8596 104.911 33.9755 104.618 35.775C104.409 36.9886 104.276 37.7906 104.221 38.1812C103.691 41.7801 102.972 44.6187 102.066 46.6972C101.173 48.7895 99.9731 49.8357 98.4666 49.8357C97.7552 49.8357 97.1763 49.6125 96.73 49.1662C96.2836 48.7337 96.0604 48.1618 96.0604 47.4504C96.0604 46.46 96.451 45.3929 97.2321 44.2491C98.0133 43.1192 99.4779 41.7243 101.626 40.0643L101.752 39.2483C101.515 39.6249 101.201 39.9179 100.81 40.1271C100.433 40.3224 100.057 40.42 99.6802 40.42C98.8154 40.42 98.1249 40.1062 97.6088 39.4785C97.0926 38.8508 96.8346 38.0278 96.8346 37.0095C96.8346 35.8936 97.0926 34.8404 97.6088 33.85C98.1249 32.8457 98.8084 32.0436 99.6593 31.4438C100.524 30.83 101.438 30.5231 102.4 30.5231C102.707 30.5231 102.909 30.5859 103.007 30.7114C103.119 30.823 103.209 31.0323 103.279 31.3392C103.544 31.2834 103.851 31.2555 104.2 31.2555ZM100.433 38.3068C100.754 38.3068 101.061 38.1115 101.354 37.7209C101.647 37.3303 101.856 36.7723 101.982 36.047L102.651 32.469C102.079 32.483 101.549 32.7062 101.061 33.1386C100.573 33.5571 100.182 34.115 99.8894 34.8125C99.5965 35.51 99.45 36.2493 99.45 37.0304C99.45 37.4628 99.5337 37.7837 99.7011 37.9929C99.8825 38.2021 100.127 38.3068 100.433 38.3068ZM98.6968 47.8061C99.0455 47.8061 99.4361 47.3876 99.8685 46.5507C100.315 45.7137 100.74 44.3816 101.145 42.5543C100.071 43.4749 99.2966 44.3049 98.8223 45.0442C98.3481 45.7835 98.1109 46.4321 98.1109 46.9901C98.1109 47.2272 98.1528 47.4225 98.2365 47.576C98.3341 47.7294 98.4876 47.8061 98.6968 47.8061ZM110.296 40.8804C109.57 40.8804 109.012 40.713 108.622 40.3782C108.245 40.0434 108.057 39.6668 108.057 39.2483C108.057 38.8856 108.189 38.5718 108.454 38.3068C108.719 38.0417 109.11 37.9092 109.626 37.9092C109.807 37.9092 110.017 37.9301 110.254 37.972C110.505 37.9999 110.693 38.0208 110.819 38.0347C110.805 37.6721 110.721 37.3303 110.568 37.0095C110.428 36.6887 110.247 36.3818 110.024 36.0888C109.8 35.782 109.591 35.5169 109.396 35.2937C108.963 36.1167 108.531 36.8002 108.099 37.3443C107.68 37.8883 107.22 38.4044 106.718 38.8926C106.467 39.1437 106.201 39.2692 105.922 39.2692C105.699 39.2692 105.518 39.1925 105.378 39.0391C105.239 38.8717 105.169 38.6694 105.169 38.4323C105.169 38.1533 105.267 37.8953 105.462 37.6581L105.734 37.3233C106.501 36.3748 107.08 35.5936 107.471 34.9799C107.722 34.5754 107.973 34.0941 108.224 33.5362C108.489 32.9782 108.831 32.218 109.249 31.2555C109.514 30.6417 110.065 30.3348 110.902 30.3348C111.293 30.3348 111.565 30.3697 111.718 30.4394C111.872 30.5092 111.949 30.6208 111.949 30.7742C111.949 30.8579 111.921 30.9904 111.865 31.1718C111.809 31.3531 111.732 31.5344 111.635 31.7158C111.384 32.218 111.258 32.6434 111.258 32.9921C111.258 33.2014 111.328 33.4315 111.467 33.6826C111.621 33.9337 111.851 34.2476 112.158 34.6242C112.604 35.21 112.939 35.7122 113.162 36.1307C113.399 36.5352 113.518 36.9816 113.518 37.4698C113.518 38.0557 113.378 38.6136 113.099 39.1437C112.834 39.6598 112.458 40.0783 111.969 40.3991C111.481 40.72 110.923 40.8804 110.296 40.8804ZM128.524 34.4568C128.915 34.4568 129.11 34.7497 129.11 35.3356C129.11 36.4376 128.245 36.9886 126.516 36.9886C126.181 36.9886 125.7 36.9258 125.072 36.8002C125.253 37.6651 125.4 38.6276 125.511 39.6877C125.637 40.7339 125.7 41.5988 125.7 42.2823C125.7 43.7888 125.456 44.9396 124.967 45.7347C124.479 46.5298 123.837 46.9273 123.042 46.9273C122.038 46.9273 121.32 46.2159 120.887 44.7931C120.469 43.3703 120.259 41.2221 120.259 38.3486C120.259 35.6704 120.545 32.9573 121.117 30.2093C121.703 27.4474 122.498 25.1667 123.503 23.3672C124.521 21.5538 125.637 20.6471 126.85 20.6471C127.506 20.6471 128.015 20.9401 128.378 21.5259C128.755 22.1118 128.943 22.8999 128.943 23.8903C128.943 27.1684 126.983 30.7393 123.063 34.6033C122.924 35.9703 122.854 37.1699 122.854 38.2021C122.854 39.6389 122.903 41.1105 123 42.617C123.098 44.1375 123.259 44.8977 123.482 44.8977C123.9 44.8977 124.109 44.1724 124.109 42.7217C124.109 41.6336 124.033 40.5805 123.879 39.5622C123.74 38.5439 123.545 37.4698 123.293 36.3399C123.279 36.1586 123.335 35.9284 123.461 35.6494C123.6 35.3705 123.768 35.1264 123.963 34.9171C124.158 34.7079 124.333 34.6033 124.486 34.6033C124.765 34.6033 125.1 34.6172 125.49 34.6451C125.616 34.6591 125.762 34.666 125.93 34.666C126.488 34.666 127.109 34.6172 127.792 34.5196C127.904 34.5056 128.022 34.4917 128.148 34.4777C128.273 34.4638 128.399 34.4568 128.524 34.4568ZM126.411 22.7186C126.16 22.7186 125.846 23.144 125.469 23.9949C125.107 24.8458 124.744 25.9757 124.381 27.3846C124.019 28.7795 123.705 30.2581 123.44 31.8204C124.556 30.551 125.414 29.2328 126.013 27.8658C126.613 26.4849 126.92 25.1946 126.934 23.9949C126.934 23.144 126.76 22.7186 126.411 22.7186ZM129.017 40.42C128.487 40.42 128.111 40.1411 127.887 39.5831C127.678 39.0251 127.574 38.1324 127.574 36.9049C127.574 35.0915 127.832 33.3688 128.348 31.7367C128.473 31.3322 128.676 31.0393 128.955 30.8579C129.248 30.6626 129.652 30.565 130.168 30.565C130.447 30.565 130.642 30.5999 130.754 30.6696C130.866 30.7393 130.921 30.8719 130.921 31.0672C130.921 31.2903 130.817 31.7925 130.608 32.5737C130.468 33.1316 130.356 33.6198 130.273 34.0383C130.189 34.4568 130.119 34.9729 130.064 35.5867C130.524 34.387 131.04 33.4106 131.612 32.6574C132.184 31.9041 132.742 31.3671 133.286 31.0462C133.844 30.7254 134.353 30.565 134.813 30.565C135.72 30.565 136.173 31.0183 136.173 31.925C136.173 32.1064 136.11 32.5458 135.985 33.2432C135.873 33.8012 135.818 34.1499 135.818 34.2894C135.818 34.7776 135.992 35.0217 136.341 35.0217C136.731 35.0217 137.233 34.7149 137.847 34.1011C138.028 33.9198 138.217 33.8291 138.412 33.8291C138.593 33.8291 138.733 33.9128 138.831 34.0802C138.942 34.2336 138.998 34.4428 138.998 34.7079C138.998 35.224 138.858 35.6285 138.579 35.9215C138.189 36.326 137.729 36.6747 137.199 36.9676C136.682 37.2466 136.131 37.3861 135.546 37.3861C134.806 37.3861 134.241 37.1978 133.851 36.8212C133.474 36.4445 133.286 35.9354 133.286 35.2937C133.286 35.0845 133.307 34.8753 133.349 34.666C133.376 34.387 133.39 34.1987 133.39 34.1011C133.39 33.8779 133.314 33.7663 133.16 33.7663C132.951 33.7663 132.672 34.0034 132.323 34.4777C131.989 34.938 131.654 35.5518 131.319 36.319C130.984 37.0862 130.712 37.8953 130.503 38.7462C130.349 39.4018 130.168 39.8481 129.959 40.0853C129.764 40.3085 129.45 40.42 129.017 40.42ZM147.725 33.8919C147.906 33.8919 148.046 33.9825 148.143 34.1639C148.241 34.3452 148.29 34.5754 148.29 34.8543C148.29 35.5239 148.087 35.9215 147.683 36.047C146.846 36.3399 145.925 36.5073 144.921 36.5492C144.656 37.7209 144.133 38.6625 143.352 39.3739C142.571 40.0713 141.685 40.42 140.694 40.42C139.857 40.42 139.139 40.2178 138.539 39.8133C137.953 39.4087 137.507 38.8717 137.2 38.2021C136.893 37.5326 136.74 36.8072 136.74 36.0261C136.74 34.9659 136.942 34.0244 137.347 33.2014C137.751 32.3644 138.309 31.7158 139.021 31.2555C139.732 30.7812 140.52 30.5441 141.385 30.5441C142.445 30.5441 143.296 30.9137 143.938 31.653C144.593 32.3784 144.977 33.2781 145.088 34.3522C145.744 34.3103 146.525 34.1708 147.432 33.9337C147.543 33.9058 147.641 33.8919 147.725 33.8919ZM140.862 38.2021C141.308 38.2021 141.692 38.0208 142.013 37.6581C142.347 37.2954 142.571 36.7723 142.682 36.0888C142.25 35.7959 141.915 35.4123 141.678 34.938C141.455 34.4638 141.343 33.9616 141.343 33.4315C141.343 33.2083 141.364 32.9852 141.406 32.762H141.301C140.743 32.762 140.276 33.034 139.899 33.578C139.537 34.1081 139.355 34.8613 139.355 35.8378C139.355 36.605 139.502 37.1908 139.795 37.5953C140.102 37.9999 140.457 38.2021 140.862 38.2021ZM147.979 40.42C147.449 40.42 147.073 40.1411 146.85 39.5831C146.64 39.0251 146.536 38.1324 146.536 36.9049C146.536 35.0915 146.794 33.3688 147.31 31.7367C147.435 31.3322 147.638 31.0393 147.917 30.8579C148.21 30.6626 148.614 30.565 149.13 30.565C149.409 30.565 149.605 30.5999 149.716 30.6696C149.828 30.7393 149.884 30.8719 149.884 31.0672C149.884 31.2903 149.779 31.7925 149.57 32.5737C149.43 33.1316 149.319 33.6198 149.235 34.0383C149.151 34.4428 149.081 34.952 149.026 35.5657C149.402 34.4777 149.849 33.5571 150.365 32.8038C150.895 32.0506 151.432 31.4926 151.976 31.1299C152.534 30.7533 153.057 30.565 153.545 30.565C154.033 30.565 154.375 30.6766 154.57 30.8998C154.78 31.1229 154.884 31.4647 154.884 31.925C154.884 32.3714 154.752 33.1804 154.487 34.3522C154.375 34.8543 154.298 35.231 154.257 35.4821C154.717 34.3103 155.226 33.3548 155.784 32.6155C156.356 31.8762 156.914 31.3531 157.458 31.0462C158.002 30.7254 158.504 30.565 158.964 30.565C159.411 30.565 159.746 30.6836 159.969 30.9207C160.206 31.1439 160.324 31.4787 160.324 31.925C160.324 32.2877 160.248 32.9712 160.094 33.9755C159.955 34.8264 159.843 35.6355 159.76 36.4027C159.676 37.156 159.634 37.9999 159.634 38.9345C159.634 39.4645 159.522 39.8481 159.299 40.0853C159.09 40.3085 158.741 40.42 158.253 40.42C157.793 40.42 157.458 40.3015 157.249 40.0643C157.039 39.8272 156.935 39.4715 156.935 38.9972C156.935 38.4393 157.032 37.5186 157.228 36.2353C157.395 35.1194 157.479 34.408 157.479 34.1011C157.479 33.8779 157.402 33.7663 157.249 33.7663C157.067 33.7663 156.809 34.0034 156.474 34.4777C156.14 34.938 155.805 35.5518 155.47 36.319C155.135 37.0862 154.863 37.8953 154.654 38.7462C154.501 39.4157 154.319 39.8621 154.11 40.0853C153.915 40.3085 153.594 40.42 153.148 40.42C152.687 40.42 152.339 40.2038 152.101 39.7714C151.878 39.325 151.767 38.788 151.767 38.1603C151.767 37.6302 151.836 36.863 151.976 35.8587C152.087 34.9659 152.143 34.3801 152.143 34.1011C152.143 33.8779 152.067 33.7663 151.913 33.7663C151.704 33.7663 151.439 34.0174 151.118 34.5196C150.797 35.0217 150.483 35.6634 150.176 36.4445C149.884 37.2257 149.646 37.9929 149.465 38.7462C149.312 39.4018 149.13 39.8481 148.921 40.0853C148.726 40.3085 148.412 40.42 147.979 40.42Z" fill="#E1DFDD"/>
<path d="M149.643 59.656L194.92 15.5977H201.628L151.271 62.0102L20.9236 53.1496L149.643 59.656Z" fill="#8D4996"/>
<defs>
<linearGradient id="paint0_linear_1142_72" x1="230" y1="-9.5" x2="230" y2="236" gradientUnits="userSpaceOnUse">
<stop stop-color="#3C4F8F"/>
<stop offset="0.1875" stop-color="#6070C5"/>
<stop offset="0.390625" stop-color="#C67EA4"/>
<stop offset="0.661458" stop-color="#DA9EAB"/>
<stop offset="0.994792" stop-color="#FFDBB9"/>
</linearGradient>
<linearGradient id="paint1_linear_1142_72" x1="265.5" y1="227" x2="265.5" y2="271" gradientUnits="userSpaceOnUse">
<stop offset="0.03125" stop-color="#FFC6AB"/>
<stop offset="0.614583" stop-color="#F5ACA2"/>
<stop offset="1" stop-color="#FF908F"/>
</linearGradient>
<linearGradient id="paint2_linear_1142_72" x1="139.281" y1="217.111" x2="67.5877" y2="218.087" gradientUnits="userSpaceOnUse">
<stop stop-color="#C67D9B"/>
<stop offset="1" stop-color="#6E367D"/>
</linearGradient>
<linearGradient id="paint3_linear_1142_72" x1="212.875" y1="214.389" x2="135.148" y2="215.307" gradientUnits="userSpaceOnUse">
<stop stop-color="#C67D9B"/>
<stop offset="1" stop-color="#6E367D"/>
</linearGradient>
<linearGradient id="paint4_linear_1142_72" x1="498.594" y1="207.167" x2="385.353" y2="208.503" gradientUnits="userSpaceOnUse">
<stop stop-color="#C67D9B"/>
<stop offset="1" stop-color="#6E367D"/>
</linearGradient>
<linearGradient id="paint5_linear_1142_72" x1="81.875" y1="214.389" x2="4.14764" y2="215.307" gradientUnits="userSpaceOnUse">
<stop stop-color="#C67D9B"/>
<stop offset="1" stop-color="#6E367D"/>
</linearGradient>
<radialGradient id="paint6_radial_1142_72" cx="0" cy="0" r="1" gradientUnits="userSpaceOnUse" gradientTransform="translate(449.727 112.241) rotate(-159.666) scale(15.2084 11.5997)">
<stop offset="0.0125377" stop-color="#FF7C94"/>
<stop offset="0.294564" stop-color="#FFA2B2"/>
<stop offset="0.692969" stop-color="#FDE1E6"/>
</radialGradient>
<radialGradient id="paint7_radial_1142_72" cx="0" cy="0" r="1" gradientUnits="userSpaceOnUse" gradientTransform="translate(459.5 117) rotate(90) scale(9 9.5)">
<stop stop-color="#F27193"/>
<stop offset="0.588542" stop-color="#F9C4D5"/>
</radialGradient>
<radialGradient id="paint8_radial_1142_72" cx="0" cy="0" r="1" gradientUnits="userSpaceOnUse" gradientTransform="translate(463.5 108) rotate(90) scale(9 9.5)">
<stop stop-color="#F27193"/>
<stop offset="0.588542" stop-color="#F9C4D5"/>
</radialGradient>
<radialGradient id="paint9_radial_1142_72" cx="0" cy="0" r="1" gradientUnits="userSpaceOnUse" gradientTransform="translate(54 91.5) rotate(90) scale(4.5 5)">
<stop stop-color="#F27193"/>
<stop offset="0.588542" stop-color="#F9C4D5"/>
</radialGradient>
<radialGradient id="paint10_radial_1142_72" cx="0" cy="0" r="1" gradientUnits="userSpaceOnUse" gradientTransform="translate(78.066 88.0459) rotate(-61.8092) scale(11.0598 7.94628)">
<stop offset="0.0125377" stop-color="#FF7C94"/>
<stop offset="0.294564" stop-color="#FFA2B2"/>
<stop offset="0.692969" stop-color="#FDE1E6"/>
</radialGradient>
<radialGradient id="paint11_radial_1142_72" cx="0" cy="0" r="1" gradientUnits="userSpaceOnUse" gradientTransform="translate(84 89.5) rotate(90) scale(4.5 5)">
<stop stop-color="#F27193"/>
<stop offset="0.588542" stop-color="#F9C4D5"/>
</radialGradient>
<radialGradient id="paint12_radial_1142_72" cx="0" cy="0" r="1" gradientUnits="userSpaceOnUse" gradientTransform="translate(86 83.5) rotate(90) scale(4.5 5)">
<stop stop-color="#F27193"/>
<stop offset="0.588542" stop-color="#F9C4D5"/>
</radialGradient>
<radialGradient id="paint13_radial_1142_72" cx="0" cy="0" r="1" gradientUnits="userSpaceOnUse" gradientTransform="translate(93 89.5) rotate(90) scale(4.5 5)">
<stop stop-color="#F27193"/>
<stop offset="0.588542" stop-color="#F9C4D5"/>
</radialGradient>
<radialGradient id="paint14_radial_1142_72" cx="0" cy="0" r="1" gradientUnits="userSpaceOnUse" gradientTransform="translate(64 89.5) rotate(90) scale(4.5 5)">
<stop stop-color="#F27193"/>
<stop offset="0.588542" stop-color="#F9C4D5"/>
</radialGradient>
<radialGradient id="paint15_radial_1142_72" cx="0" cy="0" r="1" gradientUnits="userSpaceOnUse" gradientTransform="translate(56 85.5) rotate(90) scale(4.5 5)">
<stop stop-color="#F27193"/>
<stop offset="0.588542" stop-color="#F9C4D5"/>
</radialGradient>
<radialGradient id="paint16_radial_1142_72" cx="0" cy="0" r="1" gradientUnits="userSpaceOnUse" gradientTransform="translate(61 85.5) rotate(90) scale(4.5 5)">
<stop stop-color="#F27193"/>
<stop offset="0.588542" stop-color="#F9C4D5"/>
</radialGradient>
<radialGradient id="paint17_radial_1142_72" cx="0" cy="0" r="1" gradientUnits="userSpaceOnUse" gradientTransform="translate(64 96.5) rotate(90) scale(4.5 5)">
<stop stop-color="#F27193"/>
<stop offset="0.588542" stop-color="#F9C4D5"/>
</radialGradient>
<radialGradient id="paint18_radial_1142_72" cx="0" cy="0" r="1" gradientUnits="userSpaceOnUse" gradientTransform="translate(93 86) rotate(90) scale(6 7)">
<stop stop-color="#F75B84"/>
<stop offset="0.572917" stop-color="#FFA9C5"/>
</radialGradient>
<radialGradient id="paint19_radial_1142_72" cx="0" cy="0" r="1" gradientUnits="userSpaceOnUse" gradientTransform="translate(93 78.5) rotate(90) scale(4.5 5)">
<stop stop-color="#F27193"/>
<stop offset="0.588542" stop-color="#F9C4D5"/>
</radialGradient>
<radialGradient id="paint20_radial_1142_72" cx="0" cy="0" r="1" gradientUnits="userSpaceOnUse" gradientTransform="translate(89 93.5) rotate(90) scale(4.5 5)">
<stop stop-color="#F27193"/>
<stop offset="0.588542" stop-color="#F9C4D5"/>
</radialGradient>
<radialGradient id="paint21_radial_1142_72" cx="0" cy="0" r="1" gradientUnits="userSpaceOnUse" gradientTransform="translate(316.823 62.8961) rotate(-36.3774) scale(11.0598 7.94628)">
<stop offset="0.0125377" stop-color="#FF7C94"/>
<stop offset="0.294564" stop-color="#FFA2B2"/>
<stop offset="0.692969" stop-color="#FDE1E6"/>
</radialGradient>
<radialGradient id="paint22_radial_1142_72" cx="0" cy="0" r="1" gradientUnits="userSpaceOnUse" gradientTransform="translate(329 66) rotate(90) scale(8)">
<stop stop-color="#F27193"/>
<stop offset="0.588542" stop-color="#F9C4D5"/>
</radialGradient>
<linearGradient id="paint23_linear_1142_72" x1="416.09" y1="164.059" x2="448.823" y2="199.209" gradientUnits="userSpaceOnUse">
<stop stop-color="#F9C4D5"/>
<stop offset="1" stop-color="#F594AF"/>
</linearGradient>
<linearGradient id="paint24_linear_1142_72" x1="434.851" y1="174.066" x2="461.963" y2="203.179" gradientUnits="userSpaceOnUse">
<stop stop-color="#F9C4D5"/>
<stop offset="1" stop-color="#F594AF"/>
</linearGradient>
<linearGradient id="paint25_linear_1142_72" x1="397.932" y1="174.673" x2="425.558" y2="204.257" gradientUnits="userSpaceOnUse">
<stop stop-color="#F9C4D5"/>
<stop offset="1" stop-color="#F594AF"/>
</linearGradient>
<linearGradient id="paint26_linear_1142_72" x1="80.3966" y1="164.147" x2="113.606" y2="199.808" gradientUnits="userSpaceOnUse">
<stop stop-color="#F9C4D5"/>
<stop offset="1" stop-color="#F594AF"/>
</linearGradient>
<linearGradient id="paint27_linear_1142_72" x1="99.4308" y1="174.299" x2="126.937" y2="203.836" gradientUnits="userSpaceOnUse">
<stop stop-color="#F9C4D5"/>
<stop offset="1" stop-color="#F594AF"/>
</linearGradient>
<linearGradient id="paint28_linear_1142_72" x1="61.9749" y1="174.915" x2="90.0025" y2="204.93" gradientUnits="userSpaceOnUse">
<stop stop-color="#F9C4D5"/>
<stop offset="1" stop-color="#F594AF"/>
</linearGradient>
<clipPath id="clip0_1142_72">
<rect width="460" height="236" fill="white" transform="translate(35 35)"/>
</clipPath>
</defs>
</svg>
