<svg width="528" height="305" viewBox="0 0 528 305" fill="none" xmlns="http://www.w3.org/2000/svg">
<path d="M0 0H527.277V304.345H0V0Z" fill="#AD78B6"/>
<path d="M359.776 222.552H365.102L363.58 247.28L360.07 245.544L359.776 222.552Z" fill="#000085" fill-opacity="0.4"/>
<path d="M335.036 233.443L342.086 229.59L355.211 247.471L351.592 249.399L335.036 233.443Z" fill="#000085" fill-opacity="0.4"/>
<path d="M335.238 262.498L332.877 256.169L350.757 253.114L351.026 257.742L335.238 262.498Z" fill="#000085" fill-opacity="0.4"/>
<rect x="20" y="20" width="490" height="265" fill="white" fill-opacity="0.67"/>
<g clip-path="url(#clip0_102_276)">
<rect width="460" height="236" transform="translate(35 35)" fill="url(#paint0_linear_102_276)"/>
<g opacity="0.5">
<rect x="239.3" y="101.6" width="66.4" height="17.6" rx="8" fill="#FFCED7"/>
<path d="M262.5 100C262.5 95.5817 266.082 92 270.5 92H286.5C290.918 92 294.5 95.5817 294.5 100V101.6C294.5 106.018 290.918 109.6 286.5 109.6H270.5C266.082 109.6 262.5 106.018 262.5 101.6V100Z" fill="#FFCED7"/>
<rect x="223" y="111.6" width="13" height="6" rx="3" fill="#FFCED7"/>
</g>
<g opacity="0.5">
<path d="M341 89C341 84.0294 345.029 80 350 80H415C419.971 80 424 84.0294 424 89C424 93.9706 419.971 98 415 98H350C345.029 98 341 93.9706 341 89Z" fill="#FFCED7"/>
<path d="M352 77C352 71.4772 356.477 67 362 67H382C387.523 67 392 71.4772 392 77V79C392 84.5228 387.523 89 382 89H362C356.477 89 352 84.5228 352 79V77Z" fill="#FFCED7"/>
<rect x="388" y="74" width="13" height="11" rx="5.5" fill="#FFCED7"/>
</g>
<rect x="36" y="227" width="459" height="44" fill="url(#paint1_linear_102_276)"/>
<path d="M103.519 200.238C103.812 200.089 104.158 200.093 104.447 200.248L152.507 226.119C153.421 226.612 153.072 228 152.033 228H53.1675C52.1163 228 51.777 226.586 52.7138 226.109L103.519 200.238Z" fill="url(#paint2_linear_102_276)"/>
<path d="M174.09 193.306C174.411 193.118 174.809 193.123 175.124 193.318L228.02 226.15C228.875 226.681 228.499 228 227.493 228H118.678C117.659 228 117.293 226.654 118.172 226.138L174.09 193.306Z" fill="url(#paint3_linear_102_276)"/>
<path d="M442.326 176.306C442.647 176.118 443.045 176.123 443.36 176.319L522.021 225.15C522.876 225.681 522.499 227 521.493 227H359.678C358.658 227 358.292 225.654 359.171 225.138L442.326 176.306Z" fill="url(#paint4_linear_102_276)"/>
<path d="M43.0904 193.306C43.4106 193.118 43.8086 193.123 44.1241 193.318L97.02 226.15C97.875 226.681 97.499 228 96.4927 228H-12.3218C-13.341 228 -13.707 226.654 -12.8281 226.138L43.0904 193.306Z" fill="url(#paint5_linear_102_276)"/>
<path d="M293.526 181.431V178.359L287.497 179.695V181.431H293.526Z" fill="#E63711"/>
<path d="M293.526 174.219H287.497V179.828L293.526 178.352V174.219Z" fill="#C32E0D"/>
<rect x="305.76" y="181.431" width="15.7805" height="5.60945" fill="#EF3A12"/>
<path d="M260.723 174.486L260.103 169.277C264.358 169.856 276.504 171.307 290.688 171.414C304.873 171.521 316.93 170.123 321.186 169.411L320.654 174.486H260.723Z" fill="#EF3A12"/>
<path d="M258.418 169.277L257 163C261.462 163.935 274.997 166.74 290.689 166.74C303.987 166.74 318.969 164.469 324.2 163L323.225 169.277C322.102 169.589 309.306 171.281 290.689 171.548C280.05 171.7 262.408 169.811 258.418 169.277Z" fill="#242323"/>
<rect x="259.482" y="181.431" width="8.15619" height="5.60945" fill="#EF3A12"/>
<rect x="266.929" y="181.431" width="40.7809" height="5.60945" fill="#EF3A12"/>
<ellipse cx="270.653" cy="231.115" rx="3.72348" ry="0.80135" fill="black"/>
<path d="M274.376 231.115C271.471 231.475 269.836 231.472 266.929 231.115V240.201C269.838 240.946 271.468 240.868 274.376 240.201V231.115Z" fill="#282828"/>
<path d="M274.376 231.115C272.966 231.475 272.158 231.783 271.008 231.647V240.731C271.501 240.731 273.224 240.464 274.376 240.197V231.115Z" fill="#0E0D0D"/>
<path d="M273.21 176.89H268.183C267.93 176.89 267.726 177.094 267.725 177.347L267.639 230.832C267.639 231.04 267.779 231.222 267.98 231.272C270.013 231.78 271.29 231.769 273.324 231.271C273.526 231.221 273.667 231.039 273.667 230.831V177.347C273.667 177.095 273.462 176.89 273.21 176.89Z" fill="#EF3A12"/>
<path d="M273.209 176.623H271.113C270.86 176.623 270.654 176.83 270.656 177.084L271.04 231.649C271.495 231.649 272.88 231.366 273.402 231.196C273.528 231.155 273.593 231.039 273.593 230.906L273.666 177.081C273.667 176.828 273.462 176.623 273.209 176.623Z" fill="#CF310E"/>
<path d="M266.929 176.7V174.944C266.929 174.691 267.134 174.486 267.386 174.486H274.274C274.526 174.486 274.731 174.691 274.731 174.944V176.7C274.731 176.953 274.526 177.157 274.274 177.157H267.386C267.134 177.157 266.929 176.953 266.929 176.7Z" fill="#C32E0D"/>
<path d="M274.731 174.944V176.7C274.731 176.953 274.526 177.157 274.274 177.157H271.029C270.957 177.157 270.885 177.14 270.821 177.107L267.243 175.27C267.105 175.199 267.018 175.056 267.018 174.901C267.018 174.672 267.204 174.486 267.433 174.486H274.274C274.526 174.486 274.731 174.691 274.731 174.944Z" fill="#CF310E"/>
<ellipse cx="309.503" cy="230.887" rx="3.72348" ry="0.80135" fill="black"/>
<path d="M313.207 230.847C310.302 231.208 308.666 231.204 305.76 230.847V239.934C308.668 240.678 310.298 240.601 313.207 239.934V230.847Z" fill="#282828"/>
<path d="M313.207 230.848C311.796 231.208 310.988 231.516 309.838 231.38V240.464C310.331 240.464 312.054 240.197 313.207 239.93V230.848Z" fill="#0E0D0D"/>
<path d="M312.04 176.623H307.013C306.761 176.623 306.556 176.827 306.556 177.079L306.47 230.565C306.469 230.772 306.609 230.954 306.81 231.005C308.844 231.513 310.121 231.502 312.154 231.003C312.356 230.954 312.497 230.771 312.497 230.563V177.08C312.497 176.827 312.293 176.623 312.04 176.623Z" fill="#EF3A12"/>
<path d="M312.04 176.355H309.944C309.69 176.355 309.485 176.562 309.487 176.816L309.87 231.382C310.326 231.382 311.711 231.098 312.232 230.929C312.358 230.888 312.423 230.771 312.424 230.638L312.497 176.813C312.497 176.561 312.293 176.355 312.04 176.355Z" fill="#CF310E"/>
<path d="M305.76 176.433V174.676C305.76 174.423 305.964 174.219 306.217 174.219H313.104C313.357 174.219 313.561 174.423 313.561 174.676V176.433C313.561 176.685 313.357 176.89 313.104 176.89H306.217C305.964 176.89 305.76 176.685 305.76 176.433Z" fill="#C42E0D"/>
<path d="M313.561 174.676V176.433C313.561 176.685 313.357 176.89 313.104 176.89H309.86C309.787 176.89 309.715 176.873 309.651 176.839L306.074 175.002C305.935 174.931 305.848 174.789 305.848 174.633C305.848 174.404 306.034 174.219 306.263 174.219H313.104C313.357 174.219 313.561 174.423 313.561 174.676Z" fill="#CF310E"/>
<path d="M350.188 193.215V191.012L345.865 191.97V193.215H350.188Z" fill="#E63711"/>
<path d="M350.188 188.044H345.865V192.066L350.188 191.007V188.044Z" fill="#C32E0D"/>
<rect x="358.959" y="193.214" width="11.3141" height="4.02182" fill="#EF3A12"/>
<path d="M326.67 188.235L326.225 184.5C329.276 184.915 337.984 185.956 348.154 186.033C358.324 186.109 366.968 185.107 370.019 184.596L369.638 188.235H326.67Z" fill="#EF3A12"/>
<path d="M325.017 184.501L324 180C327.199 180.67 336.903 182.681 348.154 182.681C357.688 182.681 368.43 181.053 372.18 180L371.481 184.501C370.676 184.724 361.502 185.937 348.154 186.128C340.526 186.238 327.877 184.884 325.017 184.501Z" fill="#242323"/>
<rect x="325.78" y="193.214" width="5.84776" height="4.02182" fill="#EF3A12"/>
<rect x="331.119" y="193.214" width="29.2388" height="4.02182" fill="#EF3A12"/>
<ellipse cx="333.789" cy="228.836" rx="2.66963" ry="0.574546" fill="black"/>
<path d="M336.458 228.836C334.375 229.095 333.203 229.092 331.119 228.836V235.351C333.204 235.885 334.373 235.829 336.458 235.351V228.836Z" fill="#282828"/>
<path d="M336.458 228.836C335.447 229.095 334.868 229.315 334.043 229.218V235.731C334.396 235.731 335.632 235.539 336.458 235.348V228.836Z" fill="#0E0D0D"/>
<path d="M335.622 189.959H332.018C331.837 189.959 331.69 190.105 331.69 190.286L331.628 228.634C331.628 228.783 331.728 228.913 331.872 228.949C333.33 229.314 334.246 229.306 335.704 228.948C335.849 228.913 335.95 228.782 335.95 228.633V190.287C335.95 190.106 335.803 189.959 335.622 189.959Z" fill="#EF3A12"/>
<path d="M335.621 189.768H334.119C333.937 189.768 333.79 189.916 333.791 190.098L334.066 229.22C334.392 229.22 335.385 229.017 335.759 228.895C335.85 228.866 335.897 228.782 335.897 228.687L335.949 190.096C335.95 189.915 335.803 189.768 335.621 189.768Z" fill="#CF310E"/>
<path d="M331.119 189.823V188.563C331.119 188.382 331.266 188.235 331.447 188.235H336.385C336.566 188.235 336.712 188.382 336.712 188.563V189.823C336.712 190.004 336.566 190.151 336.385 190.151H331.447C331.266 190.151 331.119 190.004 331.119 189.823Z" fill="#C32E0D"/>
<path d="M336.713 188.563V189.823C336.713 190.004 336.566 190.151 336.385 190.151H334.059C334.007 190.151 333.955 190.138 333.909 190.114L331.344 188.797C331.245 188.746 331.183 188.644 331.183 188.533C331.183 188.368 331.316 188.235 331.48 188.235H336.385C336.566 188.235 336.713 188.382 336.713 188.563Z" fill="#CF310E"/>
<ellipse cx="361.643" cy="228.673" rx="2.66963" ry="0.574546" fill="black"/>
<path d="M364.299 228.645C362.216 228.904 361.043 228.901 358.959 228.645V235.16C361.045 235.694 362.213 235.638 364.299 235.16V228.645Z" fill="#282828"/>
<path d="M364.299 228.645C363.287 228.904 362.708 229.124 361.883 229.027V235.54C362.237 235.54 363.472 235.348 364.299 235.157V228.645Z" fill="#0E0D0D"/>
<path d="M363.462 189.768H359.858C359.677 189.768 359.53 189.914 359.53 190.095L359.468 228.442C359.468 228.591 359.569 228.722 359.713 228.758C361.171 229.122 362.086 229.114 363.544 228.757C363.689 228.722 363.79 228.591 363.79 228.441V190.095C363.79 189.914 363.644 189.768 363.462 189.768Z" fill="#EF3A12"/>
<path d="M363.462 189.576H361.959C361.777 189.576 361.63 189.724 361.631 189.906L361.907 229.028C362.233 229.028 363.226 228.825 363.6 228.704C363.69 228.674 363.737 228.591 363.737 228.495L363.79 189.904C363.79 189.723 363.643 189.576 363.462 189.576Z" fill="#CF310E"/>
<path d="M358.959 189.631V188.372C358.959 188.191 359.106 188.044 359.287 188.044H364.225C364.406 188.044 364.553 188.191 364.553 188.372V189.631C364.553 189.812 364.406 189.959 364.225 189.959H359.287C359.106 189.959 358.959 189.812 358.959 189.631Z" fill="#C42E0D"/>
<path d="M364.553 188.372V189.631C364.553 189.812 364.406 189.959 364.225 189.959H361.899C361.847 189.959 361.796 189.947 361.749 189.923L359.184 188.606C359.085 188.555 359.023 188.453 359.023 188.341C359.023 188.177 359.156 188.044 359.32 188.044H364.225C364.406 188.044 364.553 188.191 364.553 188.372Z" fill="#CF310E"/>
<path d="M217.092 164.782V160.485L208.66 162.353V164.782H217.092Z" fill="#E63711"/>
<path d="M217.092 154.693H208.66V162.54L217.092 160.475V154.693Z" fill="#C32E0D"/>
<rect x="234.206" y="164.782" width="22.0739" height="7.84656" fill="#EF3A12"/>
<path d="M171.208 155.067L170.34 147.781C176.293 148.59 193.282 150.62 213.124 150.77C232.966 150.919 249.831 148.964 255.784 147.968L255.04 155.067H171.208Z" fill="#EF3A12"/>
<path d="M167.984 147.781L166 139C172.242 140.308 191.174 144.231 213.124 144.231C231.726 144.231 252.683 141.055 260 139L258.636 147.781C257.065 148.217 239.166 150.583 213.124 150.957C198.243 151.17 173.565 148.528 167.984 147.781Z" fill="#242323"/>
<rect x="169.472" y="164.782" width="11.409" height="7.84656" fill="#EF3A12"/>
<rect x="179.889" y="164.782" width="57.0449" height="7.84656" fill="#EF3A12"/>
<ellipse cx="185.098" cy="234.28" rx="5.20844" ry="1.12094" fill="black"/>
<path d="M190.306 234.28C186.242 234.784 183.955 234.779 179.889 234.28V246.99C183.958 248.032 186.237 247.923 190.306 246.99V234.28Z" fill="#282828"/>
<path d="M190.306 234.28C188.334 234.784 187.203 235.214 185.594 235.025V247.731C186.284 247.731 188.694 247.357 190.306 246.984V234.28Z" fill="#0E0D0D"/>
<path d="M188.675 158.43H181.642C181.29 158.43 181.003 158.715 181.003 159.068L180.882 233.884C180.882 234.175 181.078 234.43 181.359 234.5C184.203 235.211 185.989 235.195 188.834 234.498C189.117 234.429 189.314 234.173 189.314 233.882V159.069C189.314 158.716 189.028 158.43 188.675 158.43Z" fill="#EF3A12"/>
<path d="M188.674 158.056H185.742C185.387 158.056 185.1 158.345 185.102 158.7L185.639 235.027C186.276 235.027 188.213 234.631 188.943 234.394C189.119 234.336 189.211 234.173 189.211 233.988L189.313 158.697C189.314 158.343 189.027 158.056 188.674 158.056Z" fill="#CF310E"/>
<path d="M179.889 158.164V155.706C179.889 155.353 180.176 155.067 180.529 155.067H190.162C190.516 155.067 190.802 155.353 190.802 155.706V158.164C190.802 158.517 190.516 158.803 190.162 158.803H180.529C180.176 158.803 179.889 158.517 179.889 158.164Z" fill="#C32E0D"/>
<path d="M190.802 155.706V158.164C190.802 158.517 190.516 158.803 190.163 158.803H185.625C185.523 158.803 185.423 158.779 185.332 158.733L180.328 156.163C180.135 156.063 180.013 155.864 180.013 155.647C180.013 155.327 180.273 155.067 180.593 155.067H190.163C190.516 155.067 190.802 155.353 190.802 155.706Z" fill="#CF310E"/>
<ellipse cx="239.442" cy="233.961" rx="5.20844" ry="1.12094" fill="black"/>
<path d="M244.623 233.906C240.559 234.411 238.272 234.406 234.206 233.906V246.616C238.275 247.658 240.554 247.55 244.623 246.616V233.906Z" fill="#282828"/>
<path d="M244.623 233.906C242.65 234.411 241.519 234.841 239.91 234.651V247.358C240.6 247.358 243.01 246.984 244.623 246.61V233.906Z" fill="#0E0D0D"/>
<path d="M242.991 158.056H235.959C235.606 158.056 235.32 158.342 235.319 158.695L235.199 233.511C235.198 233.801 235.394 234.056 235.676 234.127C238.52 234.837 240.306 234.822 243.15 234.125C243.433 234.055 243.631 233.8 243.631 233.509V158.696C243.631 158.343 243.344 158.056 242.991 158.056Z" fill="#EF3A12"/>
<path d="M242.99 157.683H240.058C239.703 157.683 239.416 157.972 239.419 158.327L239.955 234.654C240.592 234.654 242.53 234.258 243.259 234.02C243.436 233.963 243.527 233.8 243.527 233.614L243.63 158.323C243.63 157.97 243.344 157.683 242.99 157.683Z" fill="#CF310E"/>
<path d="M234.206 157.79V155.333C234.206 154.98 234.492 154.693 234.845 154.693H244.479C244.832 154.693 245.119 154.98 245.119 155.333V157.79C245.119 158.143 244.832 158.43 244.479 158.43H234.845C234.492 158.43 234.206 158.143 234.206 157.79Z" fill="#C42E0D"/>
<path d="M245.119 155.333V157.79C245.119 158.143 244.832 158.43 244.479 158.43H239.941C239.839 158.43 239.739 158.406 239.648 158.359L234.645 155.789C234.451 155.69 234.33 155.491 234.33 155.273C234.33 154.953 234.589 154.693 234.91 154.693H244.479C244.832 154.693 245.119 154.98 245.119 155.333Z" fill="#CF310E"/>
<path d="M446.42 117.365C446.42 117.365 440.044 112.032 441.483 105.432C441.754 104.189 443.878 104.887 444.228 105.681C444.745 106.857 445.372 107.036 445.582 107.788C445.538 105.577 445.809 103.17 447.389 102.647C448.33 102.337 448.578 103.226 449.553 103.337C450.618 103.458 451.616 102.027 452.274 103.18C452.713 103.948 452.762 104.801 452.415 105.615C453.018 104.865 453.715 104.689 454.508 105.087C455.226 105.447 455.435 106.14 456.114 106.623C456.864 107.157 456.902 106.872 457.672 107.348C459.483 108.465 455.861 112.747 454.094 113.663L446.42 117.365Z" fill="url(#paint6_radial_102_276)"/>
<path d="M446.42 117.365C445.176 116.107 443.431 109.648 445.625 108.858M446.42 117.365C446.42 117.365 440.044 112.032 441.483 105.432C441.754 104.189 443.878 104.887 444.228 105.681C444.926 107.27 445.826 107.038 445.625 108.858M446.42 117.365L454.094 113.663M445.625 108.858C447.073 108.627 446.276 108.673 447.741 108.736C448.393 108.764 449.021 109.884 451.114 109.356M445.625 108.858C445.484 106.423 445.548 103.257 447.389 102.647C448.33 102.337 448.578 103.226 449.553 103.337C450.618 103.458 451.616 102.027 452.274 103.18C452.713 103.948 452.762 104.801 452.415 105.615M452.415 105.615C451.857 107.238 451.672 107.733 451.114 109.356M452.415 105.615C453.018 104.865 453.715 104.689 454.508 105.087C455.226 105.447 455.435 106.14 456.114 106.623C456.864 107.157 456.902 106.872 457.672 107.348C459.483 108.465 455.861 112.747 454.094 113.663M451.114 109.356C451.764 109.318 452.371 110.098 452.371 110.098C452.371 110.098 453.627 110.839 454.094 113.663" stroke="#E9496D" stroke-width="0.2"/>
<path d="M457.932 117.119C457.932 117.119 454.031 111.745 454.74 110.092C455.449 108.438 460.625 106.785 461.833 109.265C462.58 110.798 462.268 113.438 461.921 115.229L462.543 112.572C465.025 110.505 469.636 112.985 468.927 116.705C468.425 119.338 465.082 119.28 463.17 119.021C464.784 119.367 467.387 120.087 468.217 121.252C469.452 122.985 463.799 126.93 461.833 125.8C460.873 125.247 460.343 123.853 460.053 122.572C460.064 123.289 459.984 124.019 459.706 124.559C457.866 128.135 450.327 123.056 451.548 119.186C451.724 118.628 455.454 118.708 456.769 118.754C455.276 118.679 450.59 118.316 450.13 116.705C449.42 114.225 451.801 112.286 452.967 112.572C455.914 113.293 458.375 118.414 457.932 117.119Z" fill="url(#paint7_radial_102_276)" stroke="#E9496D" stroke-width="0.1"/>
<path d="M461.932 108.119C461.932 108.119 458.031 102.745 458.74 101.092C459.449 99.4381 464.625 97.7845 465.833 100.265C466.58 101.798 466.268 104.438 465.921 106.229L466.543 103.572C469.025 101.505 473.636 103.985 472.927 107.705C472.425 110.338 469.082 110.28 467.17 110.021C468.784 110.367 471.387 111.087 472.217 112.252C473.452 113.985 467.799 117.93 465.833 116.8C464.873 116.247 464.343 114.853 464.053 113.572C464.064 114.289 463.984 115.019 463.706 115.559C461.866 119.135 454.327 114.056 455.548 110.186C455.724 109.628 459.454 109.708 460.769 109.754C459.276 109.679 454.59 109.316 454.13 107.705C453.42 105.225 455.801 103.286 456.967 103.572C459.914 104.293 462.375 109.414 461.932 108.119Z" fill="url(#paint8_radial_102_276)" stroke="#E9496D" stroke-width="0.1"/>
<path d="M53.1748 91.5594C53.1748 91.5594 51.1216 88.8725 51.4948 88.0458C51.868 87.219 54.5924 86.3923 55.2281 87.6324C55.6212 88.3991 55.4569 89.7188 55.2742 90.6146L55.6015 89.2858C56.9081 88.2524 59.3347 89.4925 58.9614 91.3527C58.6973 92.6688 56.9379 92.6399 55.9315 92.5104C56.7811 92.6835 58.151 93.0435 58.5881 93.6262C59.2378 94.4924 56.2626 96.4652 55.2281 95.8998C54.7228 95.6236 54.4439 94.9266 54.2908 94.286C54.297 94.6443 54.2546 95.0093 54.1082 95.2797C53.1402 97.0677 49.1722 94.5279 49.8149 92.5928C49.9075 92.314 51.8703 92.3541 52.5625 92.377C51.7769 92.3395 49.3107 92.1581 49.0682 91.3527C48.6949 90.1126 49.9479 89.1431 50.5616 89.2858C52.1124 89.6465 53.4077 92.207 53.1748 91.5594Z" fill="url(#paint9_radial_102_276)" stroke="#E9496D" stroke-width="0.1"/>
<path d="M82.2352 88.9013C82.2352 88.9013 83.1875 83.0856 79.3379 80.5695C78.6124 80.0953 77.7925 81.5036 77.9743 82.0686C78.2434 82.9053 77.9882 83.3077 78.2258 83.7817C77.2194 82.6747 75.9526 81.6299 74.857 82.1665C74.2054 82.4856 74.4861 83.0465 74.012 83.5903C73.4946 84.1838 72.2897 83.9825 72.472 84.8784C72.5936 85.4757 72.9642 85.9188 73.5306 86.144C72.8561 86.0787 72.3985 86.342 72.1564 86.935C71.9372 87.4719 72.1476 87.9165 72.0066 88.4943C71.8509 89.1324 71.6978 89.0121 71.5039 89.6318C71.0482 91.0885 74.9952 91.3721 76.3748 90.9351L82.2352 88.9013Z" fill="url(#paint10_radial_102_276)"/>
<path d="M82.2352 88.9013C82.3196 87.6603 80.2515 83.615 78.7013 84.3286M82.2352 88.9013C82.2352 88.9013 83.1875 83.0856 79.3379 80.5695C78.6124 80.0953 77.7925 81.5036 77.9743 82.0686C78.3378 83.1986 77.7449 83.5365 78.7013 84.3286M82.2352 88.9013L76.3748 90.9351M78.7013 84.3286C77.813 84.9415 78.2637 84.5645 77.5035 85.3304C77.1655 85.671 77.3483 86.5358 75.9741 87.3267M78.7013 84.3286C77.6427 83.063 76.1335 81.5413 74.857 82.1665C74.2054 82.4856 74.4861 83.0465 74.012 83.5903C73.4946 84.1838 72.2897 83.9825 72.472 84.8784C72.5936 85.4757 72.9642 85.9188 73.5306 86.144M73.5306 86.144C74.5872 86.6603 74.9175 86.8104 75.9741 87.3267M73.5306 86.144C72.8561 86.0787 72.3985 86.342 72.1564 86.935C71.9372 87.4719 72.1476 87.9165 72.0066 88.4943C71.8509 89.1324 71.6978 89.0121 71.5039 89.6318C71.0482 91.0885 74.9952 91.3721 76.3748 90.9351M75.9741 87.3267C75.6065 87.6342 75.6425 88.3211 75.6425 88.3211C75.6425 88.3211 75.3109 89.3155 76.3748 90.9351" stroke="#E9496D" stroke-width="0.2"/>
<path d="M83.1748 89.5594C83.1748 89.5594 81.1216 86.8725 81.4948 86.0458C81.868 85.219 84.5924 84.3923 85.2281 85.6324C85.6212 86.3991 85.4569 87.7188 85.2742 88.6146L85.6015 87.2858C86.9081 86.2524 89.3347 87.4925 88.9614 89.3527C88.6973 90.6688 86.9379 90.6399 85.9315 90.5104C86.7811 90.6835 88.151 91.0435 88.5881 91.6262C89.2378 92.4924 86.2626 94.4652 85.2281 93.8998C84.7228 93.6236 84.4439 92.9266 84.2908 92.286C84.297 92.6443 84.2546 93.0093 84.1082 93.2797C83.1402 95.0677 79.1722 92.5279 79.8149 90.5928C79.9075 90.314 81.8703 90.3541 82.5625 90.377C81.7769 90.3395 79.3107 90.1581 79.0682 89.3527C78.6949 88.1126 79.9479 87.1431 80.5616 87.2858C82.1124 87.6465 83.4077 90.207 83.1748 89.5594Z" fill="url(#paint11_radial_102_276)" stroke="#E9496D" stroke-width="0.1"/>
<path d="M85.1748 83.5594C85.1748 83.5594 83.1216 80.8725 83.4948 80.0458C83.868 79.219 86.5924 78.3923 87.2281 79.6324C87.6212 80.3991 87.4569 81.7188 87.2742 82.6146L87.6015 81.2858C88.9081 80.2524 91.3347 81.4925 90.9614 83.3527C90.6973 84.6688 88.9379 84.6399 87.9315 84.5104C88.7811 84.6835 90.151 85.0435 90.5881 85.6262C91.2378 86.4924 88.2626 88.4652 87.2281 87.8998C86.7228 87.6236 86.4439 86.9266 86.2908 86.286C86.297 86.6443 86.2546 87.0093 86.1082 87.2797C85.1402 89.0677 81.1722 86.5279 81.8149 84.5928C81.9075 84.314 83.8703 84.3541 84.5625 84.377C83.7769 84.3395 81.3107 84.1581 81.0682 83.3527C80.6949 82.1126 81.9479 81.1431 82.5616 81.2858C84.1124 81.6465 85.4077 84.207 85.1748 83.5594Z" fill="url(#paint12_radial_102_276)" stroke="#E9496D" stroke-width="0.1"/>
<path d="M92.1748 89.5594C92.1748 89.5594 90.1216 86.8725 90.4948 86.0458C90.868 85.219 93.5924 84.3923 94.2281 85.6324C94.6212 86.3991 94.4569 87.7188 94.2742 88.6146L94.6015 87.2858C95.9081 86.2524 98.3347 87.4925 97.9614 89.3527C97.6973 90.6688 95.9379 90.6399 94.9315 90.5104C95.7811 90.6835 97.151 91.0435 97.5881 91.6262C98.2378 92.4924 95.2626 94.4652 94.2281 93.8998C93.7228 93.6236 93.4439 92.9266 93.2908 92.286C93.297 92.6443 93.2546 93.0093 93.1082 93.2797C92.1402 95.0677 88.1722 92.5279 88.8149 90.5928C88.9075 90.314 90.8703 90.3541 91.5625 90.377C90.7769 90.3395 88.3107 90.1581 88.0682 89.3527C87.6949 88.1126 88.9479 87.1431 89.5616 87.2858C91.1124 87.6465 92.4077 90.207 92.1748 89.5594Z" fill="url(#paint13_radial_102_276)" stroke="#E9496D" stroke-width="0.1"/>
<path d="M63.1748 89.5594C63.1748 89.5594 61.1216 86.8725 61.4948 86.0458C61.868 85.219 64.5924 84.3923 65.2281 85.6324C65.6212 86.3991 65.4569 87.7188 65.2742 88.6146L65.6015 87.2858C66.9081 86.2524 69.3347 87.4925 68.9614 89.3527C68.6973 90.6688 66.9379 90.6399 65.9315 90.5104C66.7811 90.6835 68.151 91.0435 68.5881 91.6262C69.2378 92.4924 66.2626 94.4652 65.2281 93.8998C64.7228 93.6236 64.4439 92.9266 64.2908 92.286C64.297 92.6443 64.2546 93.0093 64.1082 93.2797C63.1402 95.0677 59.1722 92.5279 59.8149 90.5928C59.9075 90.314 61.8703 90.3541 62.5625 90.377C61.7769 90.3395 59.3107 90.1581 59.0682 89.3527C58.6949 88.1126 59.9479 87.1431 60.5616 87.2858C62.1124 87.6465 63.4077 90.207 63.1748 89.5594Z" fill="url(#paint14_radial_102_276)" stroke="#E9496D" stroke-width="0.1"/>
<path d="M55.1748 85.5594C55.1748 85.5594 53.1216 82.8725 53.4948 82.0458C53.868 81.219 56.5924 80.3923 57.2281 81.6324C57.6212 82.3991 57.4569 83.7188 57.2742 84.6146L57.6015 83.2858C58.9081 82.2524 61.3347 83.4925 60.9614 85.3527C60.6973 86.6688 58.9379 86.6399 57.9315 86.5104C58.7811 86.6835 60.151 87.0435 60.5881 87.6262C61.2378 88.4924 58.2626 90.4652 57.2281 89.8998C56.7228 89.6236 56.4439 88.9266 56.2908 88.286C56.297 88.6443 56.2546 89.0093 56.1082 89.2797C55.1402 91.0677 51.1722 88.5279 51.8149 86.5928C51.9075 86.314 53.8703 86.3541 54.5625 86.377C53.7769 86.3395 51.3107 86.1581 51.0682 85.3527C50.6949 84.1126 51.9479 83.1431 52.5616 83.2858C54.1124 83.6465 55.4077 86.207 55.1748 85.5594Z" fill="url(#paint15_radial_102_276)" stroke="#E9496D" stroke-width="0.1"/>
<path d="M60.1748 85.5594C60.1748 85.5594 58.1216 82.8725 58.4948 82.0458C58.868 81.219 61.5924 80.3923 62.2281 81.6324C62.6212 82.3991 62.4569 83.7188 62.2742 84.6146L62.6015 83.2858C63.9081 82.2524 66.3347 83.4925 65.9614 85.3527C65.6973 86.6688 63.9379 86.6399 62.9315 86.5104C63.7811 86.6835 65.151 87.0435 65.5881 87.6262C66.2378 88.4924 63.2626 90.4652 62.2281 89.8998C61.7228 89.6236 61.4439 88.9266 61.2908 88.286C61.297 88.6443 61.2546 89.0093 61.1082 89.2797C60.1402 91.0677 56.1722 88.5279 56.8149 86.5928C56.9075 86.314 58.8703 86.3541 59.5625 86.377C58.7769 86.3395 56.3107 86.1581 56.0682 85.3527C55.6949 84.1126 56.9479 83.1431 57.5616 83.2858C59.1124 83.6465 60.4077 86.207 60.1748 85.5594Z" fill="url(#paint16_radial_102_276)" stroke="#E9496D" stroke-width="0.1"/>
<path d="M63.1748 96.5594C63.1748 96.5594 61.1216 93.8725 61.4948 93.0458C61.868 92.219 64.5924 91.3923 65.2281 92.6324C65.6212 93.3991 65.4569 94.7188 65.2742 95.6146L65.6015 94.2858C66.9081 93.2524 69.3347 94.4925 68.9614 96.3527C68.6973 97.6688 66.9379 97.6399 65.9315 97.5104C66.7811 97.6835 68.151 98.0435 68.5881 98.6262C69.2378 99.4924 66.2626 101.465 65.2281 100.9C64.7228 100.624 64.4439 99.9266 64.2908 99.286C64.297 99.6443 64.2546 100.009 64.1082 100.28C63.1402 102.068 59.1722 99.5279 59.8149 97.5928C59.9075 97.314 61.8703 97.3541 62.5625 97.377C61.7769 97.3395 59.3107 97.1581 59.0682 96.3527C58.6949 95.1126 59.9479 94.1431 60.5616 94.2858C62.1124 94.6465 63.4077 97.207 63.1748 96.5594Z" fill="url(#paint17_radial_102_276)" stroke="#E9496D" stroke-width="0.1"/>
<path d="M91.6226 80.3351C93.1394 78.8765 94.9595 82.5229 94.6561 84.6817C94.9914 83.6898 97.1915 82.9448 98.2963 83.2522C98.9011 83.4205 98.11 83.7466 98.5996 84.1274C99.0602 84.4855 99.821 84.1582 99.9647 84.7108C100.416 86.4481 96.3851 86.7484 96.3253 86.7528C96.4026 86.8308 97.0829 87.5577 97.0829 88.2114C97.0829 88.9407 97.8413 89.3783 97.5379 90.2534C97.2981 90.9453 96.0212 90.8369 95.2628 90.5452C94.2977 90.1739 93.8605 88.7732 93.6892 88.001C93.7579 88.4447 93.8261 89.0801 93.7461 89.5241C93.5457 90.6353 91.3473 92.5345 90.4091 91.8579C89.1958 90.9827 89.3475 91.5722 89.3475 90.3993C89.3475 87.7738 91.926 87.4821 91.926 87.4821C91.926 87.4821 85.7073 88.0656 86.0108 85.7318C86.1806 84.4254 88.4706 81.5698 88.7869 82.777C88.7569 82.6448 88.7408 82.5113 88.7408 82.3771C88.7408 80.7726 90.0282 81.8683 91.6226 80.3351Z" fill="url(#paint18_radial_102_276)" stroke="#F97794" stroke-width="0.1"/>
<path d="M92.1748 78.5594C92.1748 78.5594 90.1216 75.8725 90.4948 75.0458C90.868 74.219 93.5924 73.3923 94.2281 74.6324C94.6212 75.3991 94.4569 76.7188 94.2742 77.6146L94.6015 76.2858C95.9081 75.2524 98.3347 76.4925 97.9614 78.3527C97.6973 79.6688 95.9379 79.6399 94.9315 79.5104C95.7811 79.6835 97.151 80.0435 97.5881 80.6262C98.2378 81.4924 95.2626 83.4652 94.2281 82.8998C93.7228 82.6236 93.4439 81.9266 93.2908 81.286C93.297 81.6443 93.2546 82.0093 93.1082 82.2797C92.1402 84.0677 88.1722 81.5279 88.8149 79.5928C88.9075 79.314 90.8703 79.3541 91.5625 79.377C90.7769 79.3395 88.3107 79.1581 88.0682 78.3527C87.6949 77.1126 88.9479 76.1431 89.5616 76.2858C91.1124 76.6465 92.4077 79.207 92.1748 78.5594Z" fill="url(#paint19_radial_102_276)" stroke="#E9496D" stroke-width="0.1"/>
<path d="M88.1748 93.5594C88.1748 93.5594 86.1216 90.8725 86.4948 90.0458C86.868 89.219 89.5924 88.3923 90.2281 89.6324C90.6212 90.3991 90.4569 91.7188 90.2742 92.6146L90.6015 91.2858C91.9081 90.2524 94.3347 91.4925 93.9614 93.3527C93.6973 94.6688 91.9379 94.6399 90.9315 94.5104C91.7811 94.6835 93.151 95.0435 93.5881 95.6262C94.2378 96.4924 91.2626 98.4652 90.2281 97.8998C89.7228 97.6236 89.4439 96.9266 89.2908 96.286C89.297 96.6443 89.2546 97.0093 89.1082 97.2797C88.1402 99.0677 84.1722 96.5279 84.8149 94.5928C84.9075 94.314 86.8703 94.3541 87.5625 94.377C86.7769 94.3395 84.3107 94.1581 84.0682 93.3527C83.6949 92.1126 84.9479 91.1431 85.5616 91.2858C87.1124 91.6465 88.4077 94.207 88.1748 93.5594Z" fill="url(#paint20_radial_102_276)" stroke="#E9496D" stroke-width="0.1"/>
<path d="M320.221 65.4586C320.221 65.4586 323.579 60.6154 321.183 56.6899C320.731 55.9502 319.386 56.8699 319.308 57.4582C319.191 58.3294 318.788 58.5832 318.799 59.1134C318.366 57.6814 317.67 56.1938 316.45 56.2079C315.725 56.2163 315.738 56.8434 315.076 57.1309C314.354 57.4447 313.352 56.7455 313.132 57.6329C312.985 58.2245 313.13 58.7838 313.544 59.2304C312.963 58.8818 312.437 58.9231 311.964 59.3546C311.535 59.7453 311.534 60.2373 311.159 60.6985C310.744 61.2079 310.657 61.0335 310.216 61.5099C309.179 62.6297 312.622 64.5808 314.056 64.7787L320.221 65.4586Z" fill="url(#paint21_radial_102_276)"/>
<path d="M320.221 65.4586C320.831 64.3741 320.7 59.8327 318.994 59.8114M320.221 65.4586C320.221 65.4586 323.579 60.6154 321.183 56.6899C320.731 55.9502 319.386 56.8699 319.308 57.4582C319.151 58.6348 318.47 58.6853 318.994 59.8114M320.221 65.4586L314.056 64.7787M318.994 59.8114C317.928 59.9834 318.497 59.8365 317.482 60.2018C317.03 60.3642 316.824 61.2237 315.243 61.3479M318.994 59.8114C318.581 58.2138 317.872 56.1915 316.45 56.2079C315.725 56.2163 315.738 56.8434 315.076 57.1309C314.354 57.4447 313.352 56.7455 313.132 57.6329C312.985 58.2245 313.13 58.7838 313.544 59.2304M313.544 59.2304C314.277 60.1504 314.511 60.4279 315.243 61.3479M313.544 59.2304C312.963 58.8818 312.437 58.9231 311.964 59.3546C311.535 59.7453 311.534 60.2373 311.159 60.6985C310.744 61.2079 310.657 61.0335 310.216 61.5099C309.179 62.6297 312.622 64.5808 314.056 64.7787M315.243 61.3479C314.779 61.4677 314.517 62.1035 314.517 62.1035C314.517 62.1035 313.79 62.8591 314.056 64.7787" stroke="#E9496D" stroke-width="0.2"/>
<path d="M327.68 66.1055C327.68 66.1055 324.395 61.3289 324.992 59.8591C325.589 58.3894 329.948 56.9196 330.965 59.1243C331.594 60.4873 331.331 62.8334 331.039 64.426L331.563 62.0637C333.653 60.2265 337.536 62.4311 336.939 65.7381C336.516 68.078 333.701 68.0264 332.091 67.7962C333.45 68.104 335.642 68.7439 336.341 69.78C337.381 71.3199 332.62 74.827 330.965 73.8218C330.157 73.3308 329.711 72.0918 329.466 70.9529C329.475 71.5899 329.408 72.2388 329.173 72.7195C327.625 75.8981 321.276 71.3829 322.304 67.9427C322.452 67.4471 325.593 67.5184 326.7 67.5592C325.443 67.4925 321.497 67.17 321.109 65.7381C320.512 63.5334 322.517 61.8099 323.499 62.0637C325.98 62.705 328.053 67.257 327.68 66.1055Z" fill="url(#paint22_radial_102_276)" stroke="#E9496D" stroke-width="0.1"/>
<path fill-rule="evenodd" clip-rule="evenodd" d="M451.374 166.482L451.374 166.502C457.644 166.814 462.601 170.755 462.601 175.571C462.601 177.084 462.111 178.512 461.245 179.767C463.076 181.186 464.205 183.126 464.205 185.265C464.205 189.615 459.537 193.141 453.78 193.141C448.301 193.141 443.809 189.948 443.387 185.89C442.759 185.537 442.201 185.116 441.733 184.641C440.116 185.42 438.197 185.87 436.138 185.87C435.372 185.87 434.625 185.808 433.906 185.69C433.385 186.256 432.74 186.751 432 187.154C431.182 191.23 426.524 194.353 420.901 194.353C414.701 194.353 409.675 190.555 409.675 185.871C409.675 182.217 412.732 179.103 417.019 177.909C415.436 176.447 414.486 174.578 414.486 172.542C414.486 167.857 419.512 164.059 425.713 164.059C425.89 164.059 426.065 164.062 426.24 164.068C427.813 160.56 432.726 158 438.544 158C445.63 158 451.374 161.798 451.374 166.482Z" fill="url(#paint23_linear_102_276)"/>
<path d="M435.011 171.899H434.096L435.011 179.214V184.7L433.182 182.871L429.525 180.128H427.696C427.696 180.128 428.335 180.793 429.525 181.957C430.715 183.12 431.354 184.7 431.354 184.7C431.354 184.7 430.439 184.7 428.611 185.614L426.782 186.528H433.182C433.182 186.528 434.096 186.528 435.011 188.357C435.925 190.186 435.925 190.186 435.925 192.014C435.925 193.843 435.011 226.758 435.011 226.758H440.497C440.497 226.758 438.668 196.586 439.582 192.928C440.497 189.271 444.154 187.443 444.154 187.443L449.64 182.871L448.725 181.957L444.154 184.7L446.897 177.385H445.982L441.411 186.528L438.668 188.357C438.668 188.357 441.411 181.957 442.325 180.128C443.239 178.3 446.897 175.557 446.897 175.557L445.982 173.728L441.411 177.385L440.497 173.728H439.582L440.497 179.214L437.754 182.871L435.011 171.899Z" fill="#BE9A7D"/>
<path fill-rule="evenodd" clip-rule="evenodd" d="M464.076 176.073L464.076 176.09C469.268 176.348 473.374 179.613 473.374 183.601C473.374 184.855 472.969 186.037 472.251 187.076C473.768 188.252 474.703 189.859 474.703 191.63C474.703 195.233 470.837 198.154 466.068 198.154C461.53 198.154 457.81 195.509 457.461 192.148C456.94 191.856 456.478 191.507 456.09 191.114C454.752 191.759 453.162 192.132 451.456 192.132C450.822 192.132 450.203 192.081 449.607 191.983C449.176 192.451 448.642 192.861 448.029 193.195C447.351 196.571 443.494 199.158 438.836 199.158C433.701 199.158 429.538 196.012 429.538 192.132C429.538 189.106 432.07 186.526 435.621 185.538C434.31 184.327 433.523 182.779 433.523 181.092C433.523 177.212 437.686 174.066 442.822 174.066C442.968 174.066 443.114 174.069 443.258 174.074C444.561 171.168 448.63 169.048 453.449 169.048C459.318 169.048 464.076 172.193 464.076 176.073Z" fill="url(#paint24_linear_102_276)"/>
<path d="M450.523 180.561H449.766L450.523 186.619V191.162L449.008 189.648L445.979 187.376H444.465C444.465 187.376 444.993 187.927 445.979 188.891C446.965 189.854 447.494 191.162 447.494 191.162C447.494 191.162 446.736 191.162 445.222 191.92L443.707 192.677H449.008C449.008 192.677 449.766 192.677 450.523 194.192C451.28 195.706 451.28 195.706 451.28 197.221C451.28 198.735 450.523 225.997 450.523 225.997H455.066C455.066 225.997 453.552 201.007 454.309 197.978C455.066 194.949 458.096 193.434 458.096 193.434L462.639 189.648L461.882 188.891L458.096 191.162L460.367 185.104H459.61L455.824 192.677L453.552 194.192C453.552 194.192 455.824 188.891 456.581 187.376C457.338 185.861 460.367 183.59 460.367 183.59L459.61 182.075L455.824 185.104L455.066 182.075H454.309L455.066 186.619L452.795 189.648L450.523 180.561Z" fill="#BE9A7D"/>
<path fill-rule="evenodd" clip-rule="evenodd" d="M425.331 178.46C425.329 178.643 425.318 178.825 425.3 179.004C425.79 178.93 426.296 178.904 426.811 178.93C430.905 179.138 434.058 182.581 433.852 186.619C433.833 187.001 433.784 187.375 433.708 187.738C436.161 188.765 437.711 190.283 437.686 191.956C437.641 194.935 432.614 197.276 426.457 197.183C423.622 197.141 421.042 196.59 419.088 195.716C418.338 196.392 417.367 196.913 416.262 197.21C415.031 199.83 411.829 201.669 408.101 201.612C403.353 201.541 399.551 198.424 399.608 194.651C399.61 194.456 399.624 194.264 399.647 194.073C396.938 192.908 395.158 190.898 395.192 188.641C395.239 185.535 398.701 183.002 403.231 182.523C403.17 182.102 403.141 181.669 403.148 181.226C403.206 177.314 406.029 174.184 409.453 174.236C410.418 174.25 411.329 174.516 412.137 174.979C413.386 172.991 415.708 171.673 418.347 171.712C422.26 171.771 425.387 174.792 425.331 178.46Z" fill="url(#paint25_linear_102_276)"/>
<path d="M413.588 181.854L415.075 184.953L417.307 193.278L419.539 191.196L418.795 186.34H419.539L420.283 189.115H421.664L424.746 187.728C424.746 187.728 421.77 189.809 421.027 191.196C420.283 192.584 418.051 197.44 418.051 197.44L420.283 196.052L422.514 192.584L424.746 189.115L422.514 194.665L429.634 191.196L426.978 193.278L422.514 196.746C422.514 196.746 419.539 198.133 418.795 200.908C418.051 203.683 419.539 226.575 419.539 226.575H415.075C415.075 226.575 415.819 201.602 415.819 200.215C415.819 198.827 415.819 198.827 415.075 197.44C414.332 196.052 413.588 196.052 413.588 196.052L408.813 195.631C407.383 195.792 405.724 195.359 405.724 195.359L408.813 195.631C409.193 195.589 409.556 195.504 409.868 195.359C411.356 194.665 412.1 194.665 412.1 194.665C412.1 194.665 411.58 193.467 410.612 192.584C409.644 191.701 404.395 189.115 404.395 189.115L409.868 191.196L413.588 193.278L415.075 194.665V190.503L413.588 181.854Z" fill="#BE9A7D"/>
<path fill-rule="evenodd" clip-rule="evenodd" d="M116.194 166.606L116.194 166.626C122.555 166.942 127.584 170.94 127.584 175.826C127.584 177.362 127.087 178.81 126.208 180.083C128.066 181.523 129.211 183.491 129.211 185.661C129.211 190.075 124.476 193.653 118.635 193.653C113.076 193.653 108.519 190.412 108.091 186.295C107.453 185.937 106.887 185.51 106.412 185.029C104.772 185.818 102.825 186.276 100.736 186.276C99.959 186.276 99.2013 186.212 98.4718 186.092C97.9435 186.666 97.289 187.169 96.5385 187.578C95.708 191.713 90.9827 194.882 85.278 194.882C78.9874 194.882 73.8879 191.029 73.8879 186.276C73.8879 182.569 76.9898 179.41 81.3393 178.199C79.7331 176.715 78.7694 174.819 78.7694 172.753C78.7694 168 83.8689 164.147 90.1595 164.147C90.3388 164.147 90.5172 164.151 90.6945 164.157C92.29 160.597 97.2748 158 103.177 158C110.366 158 116.194 161.853 116.194 166.606Z" fill="url(#paint26_linear_102_276)"/>
<path d="M99.5926 172.102H98.665L99.5926 179.522V185.088L97.7374 183.233L94.027 180.45H92.1717C92.1717 180.45 92.8195 181.125 94.027 182.305C95.2344 183.486 95.8822 185.088 95.8822 185.088C95.8822 185.088 94.9546 185.088 93.0993 186.016L91.2441 186.943H97.7374C97.7374 186.943 98.665 186.943 99.5926 188.798C100.52 190.654 100.52 190.654 100.52 192.509C100.52 194.364 99.5926 227.758 99.5926 227.758H105.158C105.158 227.758 103.303 197.147 104.231 193.436C105.158 189.726 108.869 187.871 108.869 187.871L114.434 183.233L113.507 182.305L108.869 185.088L111.651 177.667H110.724L106.086 186.943L103.303 188.798C103.303 188.798 106.086 182.305 107.013 180.45C107.941 178.595 111.651 175.812 111.651 175.812L110.724 173.957L106.086 177.667L105.158 173.957H104.231L105.158 179.522L102.375 183.233L99.5926 172.102Z" fill="#BE9A7D"/>
<path fill-rule="evenodd" clip-rule="evenodd" d="M129.08 176.336L129.08 176.353C134.348 176.615 138.514 179.927 138.514 183.974C138.514 185.245 138.103 186.445 137.375 187.499C138.914 188.692 139.862 190.322 139.862 192.119C139.862 195.775 135.94 198.738 131.102 198.738C126.498 198.738 122.723 196.054 122.369 192.645C121.841 192.348 121.372 191.994 120.979 191.596C119.62 192.25 118.007 192.629 116.277 192.629C115.633 192.629 115.006 192.576 114.401 192.477C113.964 192.952 113.422 193.369 112.8 193.707C112.112 197.132 108.199 199.756 103.474 199.756C98.2637 199.756 94.04 196.565 94.04 192.628C94.04 189.558 96.6092 186.941 100.212 185.938C98.8813 184.709 98.0831 183.139 98.0831 181.428C98.0831 177.491 102.307 174.3 107.517 174.3C107.666 174.3 107.813 174.303 107.96 174.308C109.282 171.359 113.41 169.208 118.299 169.208C124.253 169.208 129.08 172.4 129.08 176.336Z" fill="url(#paint27_linear_102_276)"/>
<path d="M115.33 180.889H114.562L115.33 187.035V191.645L113.794 190.108L110.72 187.803H109.184C109.184 187.803 109.72 188.362 110.72 189.34C111.72 190.318 112.257 191.645 112.257 191.645C112.257 191.645 111.489 191.645 109.952 192.413L108.416 193.181H113.794C113.794 193.181 114.562 193.181 115.33 194.718C116.098 196.255 116.098 196.255 116.098 197.791C116.098 199.328 115.33 226.986 115.33 226.986H119.94C119.94 226.986 118.403 201.633 119.172 198.559C119.94 195.486 123.013 193.95 123.013 193.95L127.623 190.108L126.855 189.34L123.013 191.645L125.318 185.498H124.55L120.708 193.181L118.403 194.718C118.403 194.718 120.708 189.34 121.477 187.803C122.245 186.267 125.318 183.962 125.318 183.962L124.55 182.425L120.708 185.498L119.94 182.425H119.172L119.94 187.035L117.635 190.108L115.33 180.889Z" fill="#BE9A7D"/>
<path fill-rule="evenodd" clip-rule="evenodd" d="M89.7725 178.757C89.7697 178.943 89.7589 179.127 89.7404 179.309C90.238 179.234 90.7507 179.208 91.2732 179.234C95.4272 179.446 98.6258 182.938 98.4174 187.035C98.3977 187.423 98.3482 187.802 98.2712 188.17C100.76 189.212 102.332 190.753 102.307 192.449C102.261 195.473 97.1608 197.847 90.9146 197.753C88.0385 197.71 85.421 197.151 83.4381 196.265C82.6775 196.95 81.6919 197.478 80.5716 197.78C79.3229 200.438 76.0741 202.304 72.2915 202.247C67.4749 202.174 63.617 199.012 63.6746 195.184C63.6776 194.986 63.6909 194.791 63.7142 194.598C60.9662 193.416 59.1605 191.377 59.195 189.086C59.2424 185.936 62.7554 183.366 67.3512 182.879C67.2888 182.452 67.2594 182.013 67.2662 181.564C67.3259 177.595 70.1898 174.419 73.6628 174.472C74.6427 174.486 75.5664 174.756 76.3862 175.226C77.6534 173.209 80.0096 171.871 82.6871 171.912C86.6563 171.971 89.8285 175.036 89.7725 178.757Z" fill="url(#paint28_linear_102_276)"/>
<path d="M77.858 182.2L79.3674 185.345L81.6316 193.79L83.8957 191.679L83.141 186.752H83.8957L84.6504 189.568H86.052L89.1787 188.16C89.1787 188.16 86.1598 190.271 85.4051 191.679C84.6504 193.087 82.3863 198.013 82.3863 198.013L84.6504 196.606L86.9145 193.087L89.1787 189.568L86.9145 195.198L94.1382 191.679L91.4428 193.79L86.9145 197.309C86.9145 197.309 83.8957 198.717 83.141 201.532C82.3863 204.347 83.8957 227.573 83.8957 227.573H79.3674C79.3674 227.573 80.1222 202.236 80.1222 200.828C80.1222 199.421 80.1222 199.421 79.3674 198.013C78.6127 196.606 77.858 196.606 77.858 196.606L73.0144 196.178C71.5632 196.341 69.8797 195.902 69.8797 195.902L73.0144 196.178C73.3994 196.135 73.768 196.049 74.0845 195.902C75.5939 195.198 76.3486 195.198 76.3486 195.198C76.3486 195.198 75.8216 193.982 74.8392 193.087C73.8568 192.191 68.532 189.568 68.532 189.568L74.0845 191.679L77.858 193.79L79.3674 195.198V190.975L77.858 182.2Z" fill="#BE9A7D"/>
</g>
<path d="M18.6411 19.2259L209.237 12.1738L153.654 66.5755L23.6789 55.7704L18.6411 19.2259Z" fill="#5A2A61"/>
<path d="M15.978 15.5977H201.628L151.223 62.0102L20.7489 53.1496L15.978 15.5977Z" fill="#793F81"/>
<path d="M48.3375 35.6908C48.5189 35.6908 48.6584 35.7815 48.756 35.9628C48.8676 36.1302 48.9234 36.3464 48.9234 36.6114C48.9234 36.9323 48.8746 37.1834 48.7769 37.3647C48.6793 37.546 48.5258 37.7065 48.3166 37.8459C47.4936 38.39 46.1824 39.2827 44.3829 40.5242C43.8389 43.4116 43.1345 45.6854 42.2697 47.3453C41.4048 49.0053 40.3098 49.8352 38.9846 49.8352C38.2732 49.8352 37.6943 49.612 37.248 49.1657C36.8016 48.7332 36.5784 48.1613 36.5784 47.4499C36.5784 46.7943 36.7249 46.1317 37.0178 45.4622C37.3107 44.7926 37.8548 44.0184 38.6499 43.1396C39.4589 42.2608 40.5958 41.2565 42.0604 40.1266L42.1232 39.7291C41.0212 40.1894 39.9401 40.4196 38.88 40.4196C37.3177 40.4196 35.9437 40.1197 34.758 39.5198C33.5724 38.9061 32.6517 38.0412 31.9961 36.9253C31.3405 35.8094 31.0127 34.5121 31.0127 33.0335C31.0127 30.969 31.4033 29.1487 32.1844 27.5724C32.9656 25.9822 34.0397 24.7547 35.4067 23.8898C36.7876 23.011 38.329 22.5716 40.0308 22.5716C41.6629 22.5716 42.8834 22.9552 43.6925 23.7224C44.5155 24.4757 44.927 25.48 44.927 26.7355C44.927 27.5585 44.7735 28.221 44.4666 28.7232C44.1737 29.2114 43.7483 29.4555 43.1903 29.4555C42.8137 29.4555 42.5068 29.3649 42.2697 29.1835C42.0465 29.0022 41.9349 28.7511 41.9349 28.4303C41.9349 28.2908 41.9628 28.0537 42.0186 27.7189C42.1023 27.3283 42.1441 27.0214 42.1441 26.7982C42.1441 26.2124 41.9628 25.759 41.6001 25.4382C41.2514 25.1174 40.6585 24.9569 39.8216 24.9569C38.8033 24.9569 37.8548 25.2499 36.976 25.8357C36.1111 26.4216 35.4137 27.3004 34.8836 28.4721C34.3535 29.6299 34.0885 31.0248 34.0885 32.6569C34.0885 34.3308 34.5418 35.628 35.4485 36.5487C36.3692 37.4554 37.6943 37.9087 39.424 37.9087C40.3865 37.9087 41.3909 37.6925 42.437 37.2601L42.73 34.7074H40.5958C40.2052 34.7074 39.9053 34.6167 39.696 34.4354C39.4868 34.2401 39.3822 33.9262 39.3822 33.4938C39.3822 33.1032 39.4868 32.7964 39.696 32.5732C39.9053 32.35 40.1843 32.2384 40.533 32.2384H44.4457C44.7526 32.2384 45.0037 32.343 45.199 32.5522C45.4082 32.7475 45.4919 33.0335 45.4501 33.4101C45.4082 33.8565 45.2687 34.8678 45.0316 36.4441L44.8014 38.0343C45.9174 37.1973 46.9356 36.472 47.8563 35.8582C48.0376 35.7466 48.198 35.6908 48.3375 35.6908ZM39.2148 47.8056C39.5775 47.8056 39.975 47.3941 40.4074 46.5711C40.8399 45.7481 41.2444 44.423 41.621 42.5956C40.5609 43.5023 39.7937 44.3183 39.3194 45.0437C38.8591 45.783 38.6289 46.4316 38.6289 46.9896C38.6289 47.5336 38.8242 47.8056 39.2148 47.8056ZM48.8984 40.4196C48.3683 40.4196 47.9917 40.1406 47.7685 39.5826C47.5593 39.0246 47.4546 38.1319 47.4546 36.9044C47.4546 35.091 47.7127 33.3683 48.2288 31.7362C48.3544 31.3317 48.5566 31.0388 48.8356 30.8574C49.1285 30.6621 49.5331 30.5645 50.0492 30.5645C50.3282 30.5645 50.5235 30.5994 50.635 30.6691C50.7466 30.7389 50.8024 30.8714 50.8024 31.0667C50.8024 31.2899 50.6978 31.792 50.4886 32.5732C50.3491 33.1311 50.2375 33.6194 50.1538 34.0378C50.0701 34.4563 50.0004 34.9724 49.9446 35.5862C50.4049 34.3866 50.921 33.4101 51.4929 32.6569C52.0648 31.9036 52.6228 31.3666 53.1668 31.0457C53.7248 30.7249 54.2339 30.5645 54.6942 30.5645C55.6009 30.5645 56.0543 31.0178 56.0543 31.9245C56.0543 32.1059 55.9915 32.5453 55.866 33.2427C55.7544 33.8007 55.6986 34.1494 55.6986 34.2889C55.6986 34.7771 55.8729 35.0212 56.2217 35.0212C56.6123 35.0212 57.1144 34.7144 57.7282 34.1006C57.9095 33.9193 58.0978 33.8286 58.2931 33.8286C58.4745 33.8286 58.614 33.9123 58.7116 34.0797C58.8232 34.2331 58.879 34.4424 58.879 34.7074C58.879 35.2235 58.7395 35.628 58.4605 35.921C58.0699 36.3255 57.6096 36.6742 57.0795 36.9671C56.5634 37.2461 56.0124 37.3856 55.4266 37.3856C54.6873 37.3856 54.1223 37.1973 53.7318 36.8207C53.3551 36.4441 53.1668 35.9349 53.1668 35.2933C53.1668 35.084 53.1877 34.8748 53.2296 34.6655C53.2575 34.3866 53.2714 34.1982 53.2714 34.1006C53.2714 33.8774 53.1947 33.7658 53.0413 33.7658C52.832 33.7658 52.5531 34.003 52.2043 34.4772C51.8695 34.9375 51.5348 35.5513 51.2 36.3185C50.8652 37.0857 50.5932 37.8948 50.384 38.7457C50.2305 39.4013 50.0492 39.8476 49.8399 40.0848C49.6447 40.308 49.3308 40.4196 48.8984 40.4196ZM66.2667 35.649C66.448 35.649 66.5875 35.7327 66.6852 35.9C66.7968 36.0674 66.8526 36.2976 66.8526 36.5905C66.8526 37.1485 66.72 37.5809 66.455 37.8878C65.9389 38.5155 65.2066 39.0944 64.258 39.6245C63.3234 40.1545 62.3191 40.4196 61.245 40.4196C59.7803 40.4196 58.6435 40.022 57.8344 39.2269C57.0254 38.4318 56.6209 37.3438 56.6209 35.9628C56.6209 35.0003 56.8231 34.1076 57.2276 33.2846C57.6322 32.4476 58.1901 31.785 58.9015 31.2968C59.6269 30.8086 60.4429 30.5645 61.3496 30.5645C62.1587 30.5645 62.8073 30.8086 63.2955 31.2968C63.7837 31.7711 64.0279 32.4197 64.0279 33.2427C64.0279 34.2052 63.6791 35.0352 62.9817 35.7327C62.2982 36.4162 61.1334 36.9602 59.4874 37.3647C59.8361 38.0064 60.4987 38.3272 61.4752 38.3272C62.1029 38.3272 62.8143 38.111 63.6094 37.6786C64.4184 37.2322 65.1159 36.6533 65.7017 35.9419C65.8691 35.7466 66.0575 35.649 66.2667 35.649ZM60.9939 32.615C60.4778 32.615 60.0384 32.9149 59.6757 33.5147C59.327 34.1146 59.1526 34.8399 59.1526 35.6908V35.7327C59.9756 35.5374 60.6243 35.2444 61.0985 34.8539C61.5728 34.4633 61.8099 34.0099 61.8099 33.4938C61.8099 33.2288 61.7332 33.0195 61.5798 32.8661C61.4403 32.6987 61.245 32.615 60.9939 32.615ZM74.4809 35.649C74.6622 35.649 74.8017 35.7327 74.8993 35.9C75.0109 36.0674 75.0667 36.2976 75.0667 36.5905C75.0667 37.1485 74.9342 37.5809 74.6692 37.8878C74.1531 38.5155 73.4207 39.0944 72.4722 39.6245C71.5376 40.1545 70.5333 40.4196 69.4592 40.4196C67.9945 40.4196 66.8577 40.022 66.0486 39.2269C65.2396 38.4318 64.835 37.3438 64.835 35.9628C64.835 35.0003 65.0373 34.1076 65.4418 33.2846C65.8464 32.4476 66.4043 31.785 67.1157 31.2968C67.8411 30.8086 68.6571 30.5645 69.5638 30.5645C70.3729 30.5645 71.0215 30.8086 71.5097 31.2968C71.9979 31.7711 72.242 32.4197 72.242 33.2427C72.242 34.2052 71.8933 35.0352 71.1959 35.7327C70.5123 36.4162 69.3476 36.9602 67.7016 37.3647C68.0503 38.0064 68.7129 38.3272 69.6893 38.3272C70.3171 38.3272 71.0285 38.111 71.8236 37.6786C72.6326 37.2322 73.3301 36.6533 73.9159 35.9419C74.0833 35.7466 74.2716 35.649 74.4809 35.649ZM69.2081 32.615C68.692 32.615 68.2526 32.9149 67.8899 33.5147C67.5412 34.1146 67.3668 34.8399 67.3668 35.6908V35.7327C68.1898 35.5374 68.8384 35.2444 69.3127 34.8539C69.787 34.4633 70.0241 34.0099 70.0241 33.4938C70.0241 33.2288 69.9474 33.0195 69.794 32.8661C69.6545 32.6987 69.4592 32.615 69.2081 32.615ZM82.6951 35.649C82.8764 35.649 83.0159 35.7327 83.1135 35.9C83.2251 36.0674 83.2809 36.2976 83.2809 36.5905C83.2809 37.1485 83.1484 37.5809 82.8834 37.8878C82.2836 38.6271 81.628 39.2339 80.9165 39.7082C80.2051 40.1824 79.3891 40.4196 78.4685 40.4196C75.6229 40.4196 74.2 38.4179 74.2 34.4145C74.2 33.8007 74.221 33.18 74.2628 32.5522H73.4468C73.0283 32.5522 72.7424 32.4755 72.5889 32.3221C72.4494 32.1686 72.3797 31.9245 72.3797 31.5898C72.3797 30.8086 72.6935 30.418 73.3212 30.418H74.5139C74.751 28.8836 75.1137 27.4817 75.6019 26.2124C76.0901 24.943 76.676 23.9317 77.3595 23.1784C78.057 22.4252 78.8033 22.0485 79.5984 22.0485C80.1842 22.0485 80.6445 22.3066 80.9793 22.8227C81.3141 23.3388 81.4815 23.9875 81.4815 24.7686C81.4815 26.9307 80.5748 28.8139 78.7614 30.418H81.1049C81.328 30.418 81.4885 30.4669 81.5861 30.5645C81.6838 30.6621 81.7326 30.8435 81.7326 31.1085C81.7326 32.071 80.9444 32.5522 79.3682 32.5522H76.8155C76.7876 33.2497 76.7737 33.7937 76.7737 34.1843C76.7737 35.635 76.941 36.6533 77.2758 37.2392C77.6246 37.825 78.1686 38.118 78.9079 38.118C79.5077 38.118 80.0378 37.9366 80.4981 37.5739C80.9584 37.2113 81.5024 36.6672 82.1301 35.9419C82.2975 35.7466 82.4858 35.649 82.6951 35.649ZM79.0334 24.0572C78.8242 24.0572 78.587 24.3223 78.322 24.8523C78.0709 25.3684 77.8268 26.0938 77.5897 27.0284C77.3665 27.949 77.1782 28.9743 77.0247 30.1042C77.8477 29.3928 78.4615 28.5977 78.866 27.7189C79.2845 26.8261 79.4937 26.0171 79.4937 25.2917C79.4937 24.4687 79.3403 24.0572 79.0334 24.0572ZM84.3183 29.1835C83.7324 29.1835 83.293 29.051 83.0001 28.786C82.7072 28.507 82.5607 28.1234 82.5607 27.6352C82.5607 27.147 82.749 26.7424 83.1256 26.4216C83.5162 26.0868 83.9975 25.9194 84.5694 25.9194C85.0855 25.9194 85.504 26.045 85.8248 26.2961C86.1456 26.5471 86.306 26.9028 86.306 27.3632C86.306 27.9211 86.1247 28.3675 85.762 28.7023C85.3993 29.0231 84.9181 29.1835 84.3183 29.1835ZM84.1509 40.4196C83.2442 40.4196 82.5816 40.0987 82.1631 39.4571C81.7586 38.8154 81.5564 37.9645 81.5564 36.9044C81.5564 36.2767 81.6331 35.4746 81.7865 34.4982C81.9539 33.5078 82.1631 32.5871 82.4142 31.7362C82.5398 31.2899 82.7072 30.983 82.9164 30.8156C83.1256 30.6482 83.4604 30.5645 83.9207 30.5645C84.6321 30.5645 84.9878 30.8016 84.9878 31.2759C84.9878 31.6246 84.8553 32.4337 84.5903 33.7031C84.2555 35.2375 84.0881 36.2767 84.0881 36.8207C84.0881 37.2392 84.1439 37.56 84.2555 37.7832C84.3671 38.0064 84.5554 38.118 84.8205 38.118C85.0715 38.118 85.3854 37.9436 85.762 37.5949C86.1386 37.2461 86.6408 36.6951 87.2685 35.9419C87.4359 35.7466 87.6242 35.649 87.8335 35.649C88.0148 35.649 88.1543 35.7327 88.2519 35.9C88.3635 36.0674 88.4193 36.2976 88.4193 36.5905C88.4193 37.1485 88.2868 37.5809 88.0218 37.8878C86.6408 39.5756 85.3505 40.4196 84.1509 40.4196ZM88.2121 40.4196C87.682 40.4196 87.3054 40.1406 87.0822 39.5826C86.8729 39.0246 86.7683 38.1319 86.7683 36.9044C86.7683 35.091 87.0264 33.3683 87.5425 31.7362C87.668 31.3317 87.8703 31.0388 88.1493 30.8574C88.4422 30.6621 88.8467 30.5645 89.3629 30.5645C89.6418 30.5645 89.8371 30.5994 89.9487 30.6691C90.0603 30.7389 90.1161 30.8714 90.1161 31.0667C90.1161 31.2899 90.0115 31.792 89.8023 32.5732C89.6628 33.1311 89.5512 33.6194 89.4675 34.0378C89.3838 34.4563 89.314 34.9724 89.2582 35.5862C89.7186 34.3866 90.2347 33.4101 90.8066 32.6569C91.3785 31.9036 91.9365 31.3666 92.4805 31.0457C93.0385 30.7249 93.5476 30.5645 94.0079 30.5645C94.9146 30.5645 95.368 31.0178 95.368 31.9245C95.368 32.4686 95.2145 33.452 94.9076 34.8748C94.6426 36.0884 94.5101 36.8904 94.5101 37.281C94.5101 37.839 94.7124 38.118 95.1169 38.118C95.3959 38.118 95.7237 37.9506 96.1003 37.6158C96.4909 37.2671 97.007 36.7091 97.6486 35.9419C97.816 35.7466 98.0043 35.649 98.2136 35.649C98.3949 35.649 98.5344 35.7327 98.6321 35.9C98.7437 36.0674 98.7994 36.2976 98.7994 36.5905C98.7994 37.1485 98.6669 37.5809 98.4019 37.8878C97.8021 38.6271 97.1535 39.2339 96.456 39.7082C95.7725 40.1824 94.9913 40.4196 94.1125 40.4196C93.4011 40.4196 92.8641 40.2173 92.5014 39.8128C92.1387 39.3943 91.9574 38.7945 91.9574 38.0133C91.9574 37.6228 92.055 36.9253 92.2503 35.921C92.4317 35.0422 92.5223 34.4354 92.5223 34.1006C92.5223 33.8774 92.4456 33.7658 92.2922 33.7658C92.1108 33.7658 91.8528 34.003 91.518 34.4772C91.1972 34.9375 90.8624 35.5513 90.5137 36.3185C90.1789 37.0857 89.9069 37.8948 89.6976 38.7457C89.5442 39.4013 89.3629 39.8476 89.1536 40.0848C88.9583 40.308 88.6445 40.4196 88.2121 40.4196ZM104.2 31.255C104.548 31.255 104.793 31.3108 104.932 31.4224C105.085 31.52 105.162 31.7223 105.162 32.0292C105.162 32.1965 105.155 32.3291 105.141 32.4267C105.085 32.8591 104.911 33.9751 104.618 35.7745C104.409 36.9881 104.276 37.7901 104.221 38.1807C103.691 41.7796 102.972 44.6182 102.066 46.6967C101.173 48.789 99.9731 49.8352 98.4666 49.8352C97.7552 49.8352 97.1763 49.612 96.73 49.1657C96.2836 48.7332 96.0604 48.1613 96.0604 47.4499C96.0604 46.4595 96.451 45.3924 97.2321 44.2486C98.0133 43.1187 99.4779 41.7238 101.626 40.0639L101.752 39.2478C101.515 39.6245 101.201 39.9174 100.81 40.1266C100.433 40.3219 100.057 40.4196 99.6802 40.4196C98.8154 40.4196 98.1249 40.1057 97.6088 39.478C97.0926 38.8503 96.8346 38.0273 96.8346 37.009C96.8346 35.8931 97.0926 34.8399 97.6088 33.8495C98.1249 32.8452 98.8084 32.0431 99.6593 31.4433C100.524 30.8295 101.438 30.5226 102.4 30.5226C102.707 30.5226 102.909 30.5854 103.007 30.711C103.119 30.8226 103.209 31.0318 103.279 31.3387C103.544 31.2829 103.851 31.255 104.2 31.255ZM100.433 38.3063C100.754 38.3063 101.061 38.111 101.354 37.7204C101.647 37.3298 101.856 36.7719 101.982 36.0465L102.651 32.4686C102.079 32.4825 101.549 32.7057 101.061 33.1381C100.573 33.5566 100.182 34.1146 99.8894 34.812C99.5965 35.5095 99.45 36.2488 99.45 37.0299C99.45 37.4623 99.5337 37.7832 99.7011 37.9924C99.8825 38.2016 100.127 38.3063 100.433 38.3063ZM98.6968 47.8056C99.0455 47.8056 99.4361 47.3872 99.8685 46.5502C100.315 45.7133 100.74 44.3811 101.145 42.5538C100.071 43.4744 99.2966 44.3044 98.8223 45.0437C98.3481 45.783 98.1109 46.4316 98.1109 46.9896C98.1109 47.2267 98.1528 47.422 98.2365 47.5755C98.3341 47.7289 98.4876 47.8056 98.6968 47.8056ZM110.296 40.8799C109.57 40.8799 109.012 40.7125 108.622 40.3777C108.245 40.0429 108.057 39.6663 108.057 39.2478C108.057 38.8852 108.189 38.5713 108.454 38.3063C108.719 38.0412 109.11 37.9087 109.626 37.9087C109.807 37.9087 110.017 37.9296 110.254 37.9715C110.505 37.9994 110.693 38.0203 110.819 38.0343C110.805 37.6716 110.721 37.3298 110.568 37.009C110.428 36.6882 110.247 36.3813 110.024 36.0884C109.8 35.7815 109.591 35.5164 109.396 35.2933C108.963 36.1163 108.531 36.7998 108.099 37.3438C107.68 37.8878 107.22 38.4039 106.718 38.8921C106.467 39.1432 106.201 39.2688 105.922 39.2688C105.699 39.2688 105.518 39.192 105.378 39.0386C105.239 38.8712 105.169 38.6689 105.169 38.4318C105.169 38.1528 105.267 37.8948 105.462 37.6576L105.734 37.3229C106.501 36.3743 107.08 35.5932 107.471 34.9794C107.722 34.5749 107.973 34.0936 108.224 33.5357C108.489 32.9777 108.831 32.2175 109.249 31.255C109.514 30.6412 110.065 30.3343 110.902 30.3343C111.293 30.3343 111.565 30.3692 111.718 30.439C111.872 30.5087 111.949 30.6203 111.949 30.7737C111.949 30.8574 111.921 30.9899 111.865 31.1713C111.809 31.3526 111.732 31.534 111.635 31.7153C111.384 32.2175 111.258 32.6429 111.258 32.9916C111.258 33.2009 111.328 33.431 111.467 33.6821C111.621 33.9332 111.851 34.2471 112.158 34.6237C112.604 35.2096 112.939 35.7117 113.162 36.1302C113.399 36.5347 113.518 36.9811 113.518 37.4693C113.518 38.0552 113.378 38.6131 113.099 39.1432C112.834 39.6593 112.458 40.0778 111.969 40.3986C111.481 40.7195 110.923 40.8799 110.296 40.8799ZM128.524 34.4563C128.915 34.4563 129.11 34.7492 129.11 35.3351C129.11 36.4371 128.245 36.9881 126.516 36.9881C126.181 36.9881 125.7 36.9253 125.072 36.7998C125.253 37.6646 125.4 38.6271 125.511 39.6872C125.637 40.7334 125.7 41.5983 125.7 42.2818C125.7 43.7883 125.456 44.9391 124.967 45.7342C124.479 46.5293 123.837 46.9268 123.042 46.9268C122.038 46.9268 121.32 46.2154 120.887 44.7926C120.469 43.3698 120.259 41.2216 120.259 38.3481C120.259 35.6699 120.545 32.9568 121.117 30.2088C121.703 27.4469 122.498 25.1662 123.503 23.3667C124.521 21.5534 125.637 20.6467 126.85 20.6467C127.506 20.6467 128.015 20.9396 128.378 21.5255C128.755 22.1113 128.943 22.8994 128.943 23.8898C128.943 27.1679 126.983 30.7389 123.063 34.6028C122.924 35.9698 122.854 37.1694 122.854 38.2016C122.854 39.6384 122.903 41.11 123 42.6165C123.098 44.137 123.259 44.8972 123.482 44.8972C123.9 44.8972 124.109 44.1719 124.109 42.7212C124.109 41.6331 124.033 40.58 123.879 39.5617C123.74 38.5434 123.545 37.4693 123.293 36.3394C123.279 36.1581 123.335 35.9279 123.461 35.649C123.6 35.37 123.768 35.1259 123.963 34.9166C124.158 34.7074 124.333 34.6028 124.486 34.6028C124.765 34.6028 125.1 34.6167 125.49 34.6446C125.616 34.6586 125.762 34.6655 125.93 34.6655C126.488 34.6655 127.109 34.6167 127.792 34.5191C127.904 34.5051 128.022 34.4912 128.148 34.4772C128.273 34.4633 128.399 34.4563 128.524 34.4563ZM126.411 22.7181C126.16 22.7181 125.846 23.1436 125.469 23.9945C125.107 24.8454 124.744 25.9752 124.381 27.3841C124.019 28.779 123.705 30.2576 123.44 31.8199C124.556 30.5505 125.414 29.2324 126.013 27.8653C126.613 26.4844 126.92 25.1941 126.934 23.9945C126.934 23.1436 126.76 22.7181 126.411 22.7181ZM129.017 40.4196C128.487 40.4196 128.111 40.1406 127.887 39.5826C127.678 39.0246 127.574 38.1319 127.574 36.9044C127.574 35.091 127.832 33.3683 128.348 31.7362C128.473 31.3317 128.676 31.0388 128.955 30.8574C129.248 30.6621 129.652 30.5645 130.168 30.5645C130.447 30.5645 130.642 30.5994 130.754 30.6691C130.866 30.7389 130.921 30.8714 130.921 31.0667C130.921 31.2899 130.817 31.792 130.608 32.5732C130.468 33.1311 130.356 33.6194 130.273 34.0378C130.189 34.4563 130.119 34.9724 130.064 35.5862C130.524 34.3866 131.04 33.4101 131.612 32.6569C132.184 31.9036 132.742 31.3666 133.286 31.0457C133.844 30.7249 134.353 30.5645 134.813 30.5645C135.72 30.5645 136.173 31.0178 136.173 31.9245C136.173 32.1059 136.11 32.5453 135.985 33.2427C135.873 33.8007 135.818 34.1494 135.818 34.2889C135.818 34.7771 135.992 35.0212 136.341 35.0212C136.731 35.0212 137.233 34.7144 137.847 34.1006C138.028 33.9193 138.217 33.8286 138.412 33.8286C138.593 33.8286 138.733 33.9123 138.831 34.0797C138.942 34.2331 138.998 34.4424 138.998 34.7074C138.998 35.2235 138.858 35.628 138.579 35.921C138.189 36.3255 137.729 36.6742 137.199 36.9671C136.682 37.2461 136.131 37.3856 135.546 37.3856C134.806 37.3856 134.241 37.1973 133.851 36.8207C133.474 36.4441 133.286 35.9349 133.286 35.2933C133.286 35.084 133.307 34.8748 133.349 34.6655C133.376 34.3866 133.39 34.1982 133.39 34.1006C133.39 33.8774 133.314 33.7658 133.16 33.7658C132.951 33.7658 132.672 34.003 132.323 34.4772C131.989 34.9375 131.654 35.5513 131.319 36.3185C130.984 37.0857 130.712 37.8948 130.503 38.7457C130.349 39.4013 130.168 39.8476 129.959 40.0848C129.764 40.308 129.45 40.4196 129.017 40.4196ZM147.725 33.8914C147.906 33.8914 148.046 33.982 148.143 34.1634C148.241 34.3447 148.29 34.5749 148.29 34.8539C148.29 35.5234 148.087 35.921 147.683 36.0465C146.846 36.3394 145.925 36.5068 144.921 36.5487C144.656 37.7204 144.133 38.662 143.352 39.3734C142.571 40.0708 141.685 40.4196 140.694 40.4196C139.857 40.4196 139.139 40.2173 138.539 39.8128C137.953 39.4082 137.507 38.8712 137.2 38.2016C136.893 37.5321 136.74 36.8067 136.74 36.0256C136.74 34.9654 136.942 34.0239 137.347 33.2009C137.751 32.3639 138.309 31.7153 139.021 31.255C139.732 30.7807 140.52 30.5436 141.385 30.5436C142.445 30.5436 143.296 30.9132 143.938 31.6525C144.593 32.3779 144.977 33.2776 145.088 34.3517C145.744 34.3098 146.525 34.1703 147.432 33.9332C147.543 33.9053 147.641 33.8914 147.725 33.8914ZM140.862 38.2016C141.308 38.2016 141.692 38.0203 142.013 37.6576C142.347 37.295 142.571 36.7719 142.682 36.0884C142.25 35.7954 141.915 35.4118 141.678 34.9375C141.455 34.4633 141.343 33.9611 141.343 33.431C141.343 33.2079 141.364 32.9847 141.406 32.7615H141.301C140.743 32.7615 140.276 33.0335 139.899 33.5775C139.537 34.1076 139.355 34.8608 139.355 35.8373C139.355 36.6045 139.502 37.1903 139.795 37.5949C140.102 37.9994 140.457 38.2016 140.862 38.2016ZM147.979 40.4196C147.449 40.4196 147.073 40.1406 146.85 39.5826C146.64 39.0246 146.536 38.1319 146.536 36.9044C146.536 35.091 146.794 33.3683 147.31 31.7362C147.435 31.3317 147.638 31.0388 147.917 30.8574C148.21 30.6621 148.614 30.5645 149.13 30.5645C149.409 30.5645 149.605 30.5994 149.716 30.6691C149.828 30.7389 149.884 30.8714 149.884 31.0667C149.884 31.2899 149.779 31.792 149.57 32.5732C149.43 33.1311 149.319 33.6194 149.235 34.0378C149.151 34.4424 149.081 34.9515 149.026 35.5653C149.402 34.4772 149.849 33.5566 150.365 32.8033C150.895 32.0501 151.432 31.4921 151.976 31.1294C152.534 30.7528 153.057 30.5645 153.545 30.5645C154.033 30.5645 154.375 30.6761 154.57 30.8993C154.78 31.1225 154.884 31.4642 154.884 31.9245C154.884 32.3709 154.752 33.18 154.487 34.3517C154.375 34.8539 154.298 35.2305 154.257 35.4816C154.717 34.3098 155.226 33.3543 155.784 32.615C156.356 31.8757 156.914 31.3526 157.458 31.0457C158.002 30.7249 158.504 30.5645 158.964 30.5645C159.411 30.5645 159.746 30.6831 159.969 30.9202C160.206 31.1434 160.324 31.4782 160.324 31.9245C160.324 32.2872 160.248 32.9707 160.094 33.9751C159.955 34.826 159.843 35.635 159.76 36.4022C159.676 37.1555 159.634 37.9994 159.634 38.934C159.634 39.464 159.522 39.8476 159.299 40.0848C159.09 40.308 158.741 40.4196 158.253 40.4196C157.793 40.4196 157.458 40.301 157.249 40.0639C157.039 39.8267 156.935 39.471 156.935 38.9967C156.935 38.4388 157.032 37.5181 157.228 36.2348C157.395 35.1189 157.479 34.4075 157.479 34.1006C157.479 33.8774 157.402 33.7658 157.249 33.7658C157.067 33.7658 156.809 34.003 156.474 34.4772C156.14 34.9375 155.805 35.5513 155.47 36.3185C155.135 37.0857 154.863 37.8948 154.654 38.7457C154.501 39.4152 154.319 39.8616 154.11 40.0848C153.915 40.308 153.594 40.4196 153.148 40.4196C152.687 40.4196 152.339 40.2033 152.101 39.7709C151.878 39.3246 151.767 38.7875 151.767 38.1598C151.767 37.6297 151.836 36.8625 151.976 35.8582C152.087 34.9654 152.143 34.3796 152.143 34.1006C152.143 33.8774 152.067 33.7658 151.913 33.7658C151.704 33.7658 151.439 34.0169 151.118 34.5191C150.797 35.0212 150.483 35.6629 150.176 36.4441C149.884 37.2252 149.646 37.9924 149.465 38.7457C149.312 39.4013 149.13 39.8476 148.921 40.0848C148.726 40.308 148.412 40.4196 147.979 40.4196Z" fill="#E1DFDD"/>
<path d="M149.643 59.656L194.92 15.5977H201.628L151.271 62.0102L20.9236 53.1496L149.643 59.656Z" fill="#8D4996"/>
<path opacity="0.5" fill-rule="evenodd" clip-rule="evenodd" d="M154.604 102C159.467 102 167.776 102 172.638 102C178.361 102 183 97.8501 183 92.7311C183 87.8637 178.806 83.8726 173.474 83.4919C173.134 83.4676 172.876 83.1666 172.876 82.8253C172.876 79.1912 168.874 76.2452 163.938 76.2452C160.876 76.2452 157.422 75.2412 154.787 73.6827C152.988 72.6192 150.832 72 148.514 72C142.224 72 137.124 76.5616 137.124 82.1887C137.124 82.7269 137.171 83.2553 137.261 83.7709C137.284 83.9046 137.181 84.0283 137.045 84.0283C131.497 84.0283 127 88.0514 127 93.0141C127 97.9769 131.497 102 137.045 102C141.852 102 149.798 102 154.604 102Z" fill="#FFCED7"/>
<defs>
<linearGradient id="paint0_linear_102_276" x1="230" y1="-9.5" x2="230" y2="236" gradientUnits="userSpaceOnUse">
<stop stop-color="#3C4F8F"/>
<stop offset="0.1875" stop-color="#6070C5"/>
<stop offset="0.390625" stop-color="#C67EA4"/>
<stop offset="0.661458" stop-color="#DA9EAB"/>
<stop offset="0.994792" stop-color="#FFDBB9"/>
</linearGradient>
<linearGradient id="paint1_linear_102_276" x1="265.5" y1="227" x2="265.5" y2="271" gradientUnits="userSpaceOnUse">
<stop offset="0.03125" stop-color="#FFC6AB"/>
<stop offset="0.614583" stop-color="#F5ACA2"/>
<stop offset="1" stop-color="#FF908F"/>
</linearGradient>
<linearGradient id="paint2_linear_102_276" x1="139.281" y1="217.111" x2="67.5877" y2="218.087" gradientUnits="userSpaceOnUse">
<stop stop-color="#C67D9B"/>
<stop offset="1" stop-color="#6E367D"/>
</linearGradient>
<linearGradient id="paint3_linear_102_276" x1="212.875" y1="214.389" x2="135.148" y2="215.307" gradientUnits="userSpaceOnUse">
<stop stop-color="#C67D9B"/>
<stop offset="1" stop-color="#6E367D"/>
</linearGradient>
<linearGradient id="paint4_linear_102_276" x1="498.594" y1="207.167" x2="385.353" y2="208.503" gradientUnits="userSpaceOnUse">
<stop stop-color="#C67D9B"/>
<stop offset="1" stop-color="#6E367D"/>
</linearGradient>
<linearGradient id="paint5_linear_102_276" x1="81.875" y1="214.389" x2="4.14764" y2="215.307" gradientUnits="userSpaceOnUse">
<stop stop-color="#C67D9B"/>
<stop offset="1" stop-color="#6E367D"/>
</linearGradient>
<radialGradient id="paint6_radial_102_276" cx="0" cy="0" r="1" gradientUnits="userSpaceOnUse" gradientTransform="translate(449.727 112.241) rotate(-159.666) scale(15.2084 11.5997)">
<stop offset="0.0125377" stop-color="#FF7C94"/>
<stop offset="0.294564" stop-color="#FFA2B2"/>
<stop offset="0.692969" stop-color="#FDE1E6"/>
</radialGradient>
<radialGradient id="paint7_radial_102_276" cx="0" cy="0" r="1" gradientUnits="userSpaceOnUse" gradientTransform="translate(459.5 117) rotate(90) scale(9 9.5)">
<stop stop-color="#F27193"/>
<stop offset="0.588542" stop-color="#F9C4D5"/>
</radialGradient>
<radialGradient id="paint8_radial_102_276" cx="0" cy="0" r="1" gradientUnits="userSpaceOnUse" gradientTransform="translate(463.5 108) rotate(90) scale(9 9.5)">
<stop stop-color="#F27193"/>
<stop offset="0.588542" stop-color="#F9C4D5"/>
</radialGradient>
<radialGradient id="paint9_radial_102_276" cx="0" cy="0" r="1" gradientUnits="userSpaceOnUse" gradientTransform="translate(54 91.5) rotate(90) scale(4.5 5)">
<stop stop-color="#F27193"/>
<stop offset="0.588542" stop-color="#F9C4D5"/>
</radialGradient>
<radialGradient id="paint10_radial_102_276" cx="0" cy="0" r="1" gradientUnits="userSpaceOnUse" gradientTransform="translate(78.066 88.0464) rotate(-61.8092) scale(11.0598 7.94628)">
<stop offset="0.0125377" stop-color="#FF7C94"/>
<stop offset="0.294564" stop-color="#FFA2B2"/>
<stop offset="0.692969" stop-color="#FDE1E6"/>
</radialGradient>
<radialGradient id="paint11_radial_102_276" cx="0" cy="0" r="1" gradientUnits="userSpaceOnUse" gradientTransform="translate(84 89.5) rotate(90) scale(4.5 5)">
<stop stop-color="#F27193"/>
<stop offset="0.588542" stop-color="#F9C4D5"/>
</radialGradient>
<radialGradient id="paint12_radial_102_276" cx="0" cy="0" r="1" gradientUnits="userSpaceOnUse" gradientTransform="translate(86 83.5) rotate(90) scale(4.5 5)">
<stop stop-color="#F27193"/>
<stop offset="0.588542" stop-color="#F9C4D5"/>
</radialGradient>
<radialGradient id="paint13_radial_102_276" cx="0" cy="0" r="1" gradientUnits="userSpaceOnUse" gradientTransform="translate(93 89.5) rotate(90) scale(4.5 5)">
<stop stop-color="#F27193"/>
<stop offset="0.588542" stop-color="#F9C4D5"/>
</radialGradient>
<radialGradient id="paint14_radial_102_276" cx="0" cy="0" r="1" gradientUnits="userSpaceOnUse" gradientTransform="translate(64 89.5) rotate(90) scale(4.5 5)">
<stop stop-color="#F27193"/>
<stop offset="0.588542" stop-color="#F9C4D5"/>
</radialGradient>
<radialGradient id="paint15_radial_102_276" cx="0" cy="0" r="1" gradientUnits="userSpaceOnUse" gradientTransform="translate(56 85.5) rotate(90) scale(4.5 5)">
<stop stop-color="#F27193"/>
<stop offset="0.588542" stop-color="#F9C4D5"/>
</radialGradient>
<radialGradient id="paint16_radial_102_276" cx="0" cy="0" r="1" gradientUnits="userSpaceOnUse" gradientTransform="translate(61 85.5) rotate(90) scale(4.5 5)">
<stop stop-color="#F27193"/>
<stop offset="0.588542" stop-color="#F9C4D5"/>
</radialGradient>
<radialGradient id="paint17_radial_102_276" cx="0" cy="0" r="1" gradientUnits="userSpaceOnUse" gradientTransform="translate(64 96.5) rotate(90) scale(4.5 5)">
<stop stop-color="#F27193"/>
<stop offset="0.588542" stop-color="#F9C4D5"/>
</radialGradient>
<radialGradient id="paint18_radial_102_276" cx="0" cy="0" r="1" gradientUnits="userSpaceOnUse" gradientTransform="translate(93 86) rotate(90) scale(6 7)">
<stop stop-color="#F75B84"/>
<stop offset="0.572917" stop-color="#FFA9C5"/>
</radialGradient>
<radialGradient id="paint19_radial_102_276" cx="0" cy="0" r="1" gradientUnits="userSpaceOnUse" gradientTransform="translate(93 78.5) rotate(90) scale(4.5 5)">
<stop stop-color="#F27193"/>
<stop offset="0.588542" stop-color="#F9C4D5"/>
</radialGradient>
<radialGradient id="paint20_radial_102_276" cx="0" cy="0" r="1" gradientUnits="userSpaceOnUse" gradientTransform="translate(89 93.5) rotate(90) scale(4.5 5)">
<stop stop-color="#F27193"/>
<stop offset="0.588542" stop-color="#F9C4D5"/>
</radialGradient>
<radialGradient id="paint21_radial_102_276" cx="0" cy="0" r="1" gradientUnits="userSpaceOnUse" gradientTransform="translate(316.823 62.8961) rotate(-36.3774) scale(11.0598 7.94628)">
<stop offset="0.0125377" stop-color="#FF7C94"/>
<stop offset="0.294564" stop-color="#FFA2B2"/>
<stop offset="0.692969" stop-color="#FDE1E6"/>
</radialGradient>
<radialGradient id="paint22_radial_102_276" cx="0" cy="0" r="1" gradientUnits="userSpaceOnUse" gradientTransform="translate(329 66) rotate(90) scale(8)">
<stop stop-color="#F27193"/>
<stop offset="0.588542" stop-color="#F9C4D5"/>
</radialGradient>
<linearGradient id="paint23_linear_102_276" x1="416.09" y1="164.059" x2="448.823" y2="199.209" gradientUnits="userSpaceOnUse">
<stop stop-color="#F9C4D5"/>
<stop offset="1" stop-color="#F594AF"/>
</linearGradient>
<linearGradient id="paint24_linear_102_276" x1="434.851" y1="174.066" x2="461.963" y2="203.179" gradientUnits="userSpaceOnUse">
<stop stop-color="#F9C4D5"/>
<stop offset="1" stop-color="#F594AF"/>
</linearGradient>
<linearGradient id="paint25_linear_102_276" x1="397.932" y1="174.672" x2="425.558" y2="204.257" gradientUnits="userSpaceOnUse">
<stop stop-color="#F9C4D5"/>
<stop offset="1" stop-color="#F594AF"/>
</linearGradient>
<linearGradient id="paint26_linear_102_276" x1="80.3966" y1="164.147" x2="113.606" y2="199.808" gradientUnits="userSpaceOnUse">
<stop stop-color="#F9C4D5"/>
<stop offset="1" stop-color="#F594AF"/>
</linearGradient>
<linearGradient id="paint27_linear_102_276" x1="99.4308" y1="174.3" x2="126.937" y2="203.836" gradientUnits="userSpaceOnUse">
<stop stop-color="#F9C4D5"/>
<stop offset="1" stop-color="#F594AF"/>
</linearGradient>
<linearGradient id="paint28_linear_102_276" x1="61.9749" y1="174.915" x2="90.0025" y2="204.929" gradientUnits="userSpaceOnUse">
<stop stop-color="#F9C4D5"/>
<stop offset="1" stop-color="#F594AF"/>
</linearGradient>
<clipPath id="clip0_102_276">
<rect width="460" height="236" fill="white" transform="translate(35 35)"/>
</clipPath>
</defs>
</svg>
