<svg width="204" height="83" viewBox="0 0 204 83" fill="none" xmlns="http://www.w3.org/2000/svg">
<path d="M28.8989 2H34.225L32.7032 26.728L29.1927 24.9918L28.8989 2Z" fill="white" fill-opacity="0.4"/>
<path d="M4.15869 12.8906L11.2089 9.03802L24.3338 26.9183L20.7146 28.8472L4.15869 12.8906Z" fill="white" fill-opacity="0.4"/>
<path d="M4.36099 41.9455L1.99981 35.6164L19.88 32.5619L20.1488 37.19L4.36099 41.9455Z" fill="white" fill-opacity="0.4"/>
<path d="M27 29H204V83L36.7643 64.6987L27 29Z" fill="white" fill-opacity="0.4"/>
<path d="M23.4751 29.6738H199.995V75.3255L33.2129 59.8536L23.4751 29.6738Z" fill="white"/>
<path d="M26.8989 0H32.225L30.7032 24.728L27.1927 22.9918L26.8989 0Z" fill="white"/>
<path d="M2.15869 11.271L9.20892 7.41839L22.3338 25.2986L18.7146 27.2276L2.15869 11.271Z" fill="white"/>
<path d="M2.36099 39.9455L-0.00019414 33.6164L17.88 30.5619L18.1488 35.19L2.36099 39.9455Z" fill="white"/>
<path d="M102.363 47.5675C102.742 47.5675 103.014 47.6499 103.179 47.8148C103.36 47.9796 103.451 48.1939 103.451 48.4577C103.451 48.8863 103.319 49.2655 103.055 49.5952C102.808 49.9249 102.412 50.098 101.868 50.1145C100.549 50.1475 99.379 50.0485 98.3569 49.8177C97.1865 52.2741 95.7687 54.3182 94.1037 55.9503C92.4552 57.5659 90.7984 58.3736 89.1334 58.3736C87.4189 58.3736 86.1413 57.3763 85.3005 55.3816C84.4598 53.3868 84.0394 50.6915 84.0394 47.2955C84.0394 44.3941 84.2455 41.7894 84.6576 39.4814C84.806 38.6242 85.0121 38.0472 85.2758 37.7505C85.5561 37.4373 86.0259 37.2806 86.6853 37.2806C87.7733 37.2806 88.3174 37.7505 88.3174 38.6901C88.3174 38.7891 88.3009 38.9704 88.2679 39.2342C87.7733 42.2015 87.5261 44.8886 87.5261 47.2955C87.5261 49.8177 87.7321 51.7383 88.1443 53.0571C88.5729 54.3595 89.2076 55.0106 90.0483 55.0106C90.9056 55.0106 91.837 54.4172 92.8426 53.2302C93.8482 52.0433 94.7714 50.5513 95.6121 48.7544C94.6065 48.128 93.8482 47.3202 93.3371 46.3311C92.8261 45.3255 92.5706 44.1715 92.5706 42.8692C92.5706 41.5668 92.7684 40.4706 93.1641 39.5804C93.5762 38.6737 94.1284 37.9978 94.8208 37.5527C95.5297 37.1076 96.3128 36.885 97.17 36.885C98.2251 36.885 99.0576 37.2642 99.6675 38.0225C100.294 38.7808 100.607 39.8194 100.607 41.1382C100.607 43.034 100.195 45.1029 99.3708 47.3449C100.245 47.4933 101.242 47.5675 102.363 47.5675ZM95.0681 42.6961C95.0681 44.3116 95.5874 45.5068 96.626 46.2816C97.2689 44.4353 97.5904 42.9104 97.5904 41.707C97.5904 41.0146 97.4997 40.5118 97.3184 40.1986C97.137 39.8688 96.8897 39.704 96.5765 39.704C96.1314 39.704 95.7687 39.9678 95.4885 40.4953C95.2082 41.0063 95.0681 41.7399 95.0681 42.6961ZM113.656 50.6585C113.87 50.6585 114.035 50.7657 114.151 50.98C114.266 51.1943 114.324 51.4663 114.324 51.796C114.324 52.5873 114.085 53.0571 113.607 53.2055C112.617 53.5517 111.529 53.7495 110.342 53.799C110.029 55.1837 109.411 56.2965 108.488 57.1372C107.565 57.9615 106.518 58.3736 105.347 58.3736C104.358 58.3736 103.509 58.1346 102.8 57.6565C102.108 57.1785 101.581 56.5438 101.218 55.7525C100.855 54.9612 100.674 54.1039 100.674 53.1808C100.674 51.9279 100.913 50.8151 101.391 49.8425C101.869 48.8534 102.528 48.0868 103.369 47.5428C104.21 46.9823 105.141 46.702 106.163 46.702C107.416 46.702 108.422 47.1389 109.18 48.0126C109.955 48.8698 110.408 49.9331 110.54 51.2025C111.315 51.1531 112.238 50.9882 113.31 50.708C113.442 50.675 113.557 50.6585 113.656 50.6585ZM105.545 55.7525C106.073 55.7525 106.526 55.5382 106.905 55.1095C107.301 54.6809 107.565 54.0627 107.697 53.2549C107.186 52.9087 106.79 52.4554 106.51 51.8949C106.246 51.3344 106.114 50.7409 106.114 50.1145C106.114 49.8507 106.139 49.587 106.188 49.3232H106.065C105.405 49.3232 104.853 49.6447 104.408 50.2876C103.979 50.914 103.765 51.8042 103.765 52.9582C103.765 53.8649 103.938 54.5573 104.284 55.0354C104.647 55.5134 105.067 55.7525 105.545 55.7525ZM121.573 52.7357C121.788 52.7357 121.952 52.8346 122.068 53.0324C122.2 53.2302 122.266 53.5022 122.266 53.8484C122.266 54.5078 122.109 55.0189 121.796 55.3816C121.087 56.2553 120.312 56.9724 119.471 57.5329C118.647 58.0934 117.707 58.3736 116.652 58.3736C115.202 58.3736 114.122 57.7142 113.413 56.3954C112.721 55.0766 112.374 53.3703 112.374 51.2767C112.374 49.2655 112.63 46.974 113.141 44.4023C113.669 41.8306 114.435 39.6216 115.441 37.7752C116.463 35.9288 117.674 35.0057 119.076 35.0057C119.867 35.0057 120.485 35.3766 120.93 36.1184C121.392 36.8438 121.623 37.8906 121.623 39.2589C121.623 41.2206 121.079 43.4956 119.991 46.0838C118.903 48.672 117.427 51.2355 115.564 53.7742C115.68 54.4501 115.869 54.9364 116.133 55.2332C116.397 55.5134 116.743 55.6536 117.172 55.6536C117.848 55.6536 118.441 55.464 118.952 55.0848C119.463 54.6892 120.114 54.0215 120.906 53.0818C121.103 52.8511 121.326 52.7357 121.573 52.7357ZM118.532 37.4537C118.153 37.4537 117.724 38.1379 117.246 39.5062C116.768 40.8745 116.347 42.5724 115.985 44.6001C115.622 46.6278 115.424 48.5731 115.391 50.4359C116.562 48.5072 117.493 46.5784 118.186 44.6496C118.878 42.7043 119.224 40.9321 119.224 39.3331C119.224 38.0802 118.993 37.4537 118.532 37.4537ZM122.789 58.3736C122.047 58.3736 121.437 58.0357 120.959 57.3598C120.498 56.6674 120.267 55.8102 120.267 54.7881C120.267 53.5517 120.349 52.4224 120.514 51.4003C120.679 50.3618 120.951 49.2655 121.33 48.1115C121.495 47.617 121.726 47.2625 122.023 47.0482C122.319 46.8339 122.789 46.7267 123.432 46.7267C123.795 46.7267 124.042 46.7844 124.174 46.8998C124.322 47.0152 124.396 47.1883 124.396 47.4191C124.396 47.551 124.306 47.9961 124.124 48.7544C123.96 49.3644 123.828 49.9167 123.729 50.4112C123.399 52.1422 123.234 53.2962 123.234 53.8731C123.234 54.2193 123.275 54.4666 123.358 54.615C123.44 54.7469 123.572 54.8128 123.754 54.8128C124.001 54.8128 124.306 54.5655 124.669 54.071C125.048 53.5764 125.443 52.8263 125.855 51.8207C126.284 50.8151 126.696 49.5787 127.092 48.1115C127.224 47.617 127.422 47.2625 127.685 47.0482C127.966 46.8339 128.378 46.7267 128.922 46.7267C129.301 46.7267 129.565 46.7762 129.713 46.8751C129.861 46.9575 129.936 47.1224 129.936 47.3697C129.936 47.7818 129.73 48.9111 129.317 50.7574C128.856 52.8675 128.625 54.1699 128.625 54.6644C128.625 54.9777 128.691 55.2249 128.823 55.4063C128.955 55.5711 129.128 55.6536 129.342 55.6536C129.672 55.6536 130.059 55.4557 130.504 55.0601C130.966 54.648 131.576 53.9885 132.334 53.0818C132.532 52.8511 132.755 52.7357 133.002 52.7357C133.216 52.7357 133.381 52.8346 133.496 53.0324C133.628 53.2302 133.694 53.5022 133.694 53.8484C133.694 54.5078 133.538 55.0189 133.224 55.3816C132.516 56.2553 131.749 56.9724 130.925 57.5329C130.117 58.0934 129.194 58.3736 128.155 58.3736C127.364 58.3736 126.779 58.0687 126.399 57.4587C126.037 56.8487 125.855 55.9915 125.855 54.887C125.575 56.008 125.155 56.8735 124.594 57.4834C124.034 58.0769 123.432 58.3736 122.789 58.3736ZM133.445 58.3736C132.818 58.3736 132.373 58.0439 132.11 57.3845C131.862 56.7251 131.739 55.67 131.739 54.2193C131.739 52.0762 132.044 50.0403 132.654 48.1115C132.802 47.6334 133.041 47.2872 133.371 47.0729C133.717 46.8421 134.195 46.7267 134.805 46.7267C135.135 46.7267 135.365 46.768 135.497 46.8504C135.629 46.9328 135.695 47.0894 135.695 47.3202C135.695 47.584 135.571 48.1775 135.324 49.1006C135.159 49.76 135.027 50.337 134.929 50.8316C134.83 51.3262 134.747 51.9361 134.681 52.6615C135.225 51.2437 135.835 50.0898 136.511 49.1995C137.187 48.3093 137.846 47.6747 138.489 47.2955C139.149 46.9163 139.75 46.7267 140.294 46.7267C141.366 46.7267 141.902 47.2625 141.902 48.3341C141.902 48.977 141.72 50.1392 141.358 51.8207C141.045 53.2549 140.888 54.2028 140.888 54.6644C140.888 55.3239 141.127 55.6536 141.605 55.6536C141.935 55.6536 142.322 55.4557 142.767 55.0601C143.229 54.648 143.839 53.9885 144.597 53.0818C144.795 52.8511 145.018 52.7357 145.265 52.7357C145.479 52.7357 145.644 52.8346 145.759 53.0324C145.891 53.2302 145.957 53.5022 145.957 53.8484C145.957 54.5078 145.801 55.0189 145.487 55.3816C144.778 56.2553 144.012 56.9724 143.188 57.5329C142.38 58.0934 141.457 58.3736 140.418 58.3736C139.577 58.3736 138.943 58.1346 138.514 57.6565C138.085 57.162 137.871 56.4531 137.871 55.5299C137.871 55.0683 137.987 54.2441 138.217 53.0571C138.432 52.0185 138.539 51.3014 138.539 50.9058C138.539 50.642 138.448 50.5101 138.267 50.5101C138.052 50.5101 137.747 50.7904 137.352 51.3509C136.973 51.8949 136.577 52.6203 136.165 53.5269C135.769 54.4336 135.448 55.3898 135.201 56.3954C135.019 57.1702 134.805 57.6977 134.558 57.978C134.327 58.2418 133.956 58.3736 133.445 58.3736ZM154.985 52.7357C155.2 52.7357 155.364 52.8346 155.48 53.0324C155.612 53.2302 155.678 53.5022 155.678 53.8484C155.678 54.5078 155.521 55.0189 155.208 55.3816C154.499 56.2553 153.724 56.9724 152.883 57.5329C152.043 58.0934 151.078 58.3736 149.99 58.3736C146.627 58.3736 144.946 56.008 144.946 51.2767C144.946 50.5513 144.97 49.8177 145.02 49.0759H144.055C143.561 49.0759 143.223 48.9852 143.042 48.8039C142.877 48.6226 142.794 48.3341 142.794 47.9384C142.794 47.0152 143.165 46.5537 143.907 46.5537H145.317C145.597 44.7403 146.025 43.0835 146.602 41.5833C147.179 40.0832 147.872 38.888 148.68 37.9978C149.504 37.1076 150.386 36.6624 151.325 36.6624C152.018 36.6624 152.562 36.9674 152.958 37.5774C153.353 38.1873 153.551 38.9539 153.551 39.8771C153.551 42.4323 152.479 44.6578 150.336 46.5537H153.106C153.37 46.5537 153.559 46.6113 153.675 46.7267C153.79 46.8421 153.848 47.0565 153.848 47.3697C153.848 48.5072 152.916 49.0759 151.053 49.0759H148.037C148.004 49.9002 147.987 50.5431 147.987 51.0047C147.987 52.7192 148.185 53.9226 148.581 54.615C148.993 55.3074 149.636 55.6536 150.509 55.6536C151.218 55.6536 151.845 55.4392 152.389 55.0106C152.933 54.582 153.576 53.9391 154.318 53.0818C154.515 52.8511 154.738 52.7357 154.985 52.7357ZM150.658 39.0363C150.411 39.0363 150.13 39.3496 149.817 39.976C149.52 40.586 149.232 41.4432 148.952 42.5477C148.688 43.6357 148.465 44.8474 148.284 46.1827C149.257 45.342 149.982 44.4023 150.46 43.3637C150.955 42.3087 151.202 41.3525 151.202 40.4953C151.202 39.5227 151.021 39.0363 150.658 39.0363ZM164.693 52.7357C164.907 52.7357 165.072 52.8346 165.187 53.0324C165.319 53.2302 165.385 53.5022 165.385 53.8484C165.385 54.5078 165.229 55.0189 164.915 55.3816C164.306 56.1234 163.44 56.8075 162.319 57.434C161.215 58.0604 160.028 58.3736 158.758 58.3736C157.027 58.3736 155.684 57.9038 154.728 56.9641C153.771 56.0245 153.293 54.7386 153.293 53.1066C153.293 51.9691 153.532 50.914 154.01 49.9414C154.488 48.9523 155.148 48.1692 155.989 47.5922C156.846 47.0152 157.81 46.7267 158.882 46.7267C159.838 46.7267 160.605 47.0152 161.182 47.5922C161.759 48.1527 162.047 48.9193 162.047 49.8919C162.047 51.0294 161.635 52.0103 160.811 52.8346C160.003 53.6423 158.626 54.2853 156.681 54.7634C157.093 55.5217 157.876 55.9008 159.03 55.9008C159.772 55.9008 160.613 55.6453 161.552 55.1343C162.509 54.6067 163.333 53.9226 164.025 53.0818C164.223 52.8511 164.446 52.7357 164.693 52.7357ZM158.461 49.1501C157.851 49.1501 157.332 49.5045 156.904 50.2134C156.491 50.9223 156.285 51.7795 156.285 52.7851V52.8346C157.258 52.6038 158.025 52.2576 158.585 51.796C159.146 51.3344 159.426 50.7986 159.426 50.1887C159.426 49.8754 159.335 49.6282 159.154 49.4468C158.989 49.249 158.758 49.1501 158.461 49.1501ZM174.401 52.7357C174.615 52.7357 174.78 52.8346 174.895 53.0324C175.027 53.2302 175.093 53.5022 175.093 53.8484C175.093 54.5078 174.936 55.0189 174.623 55.3816C174.013 56.1234 173.148 56.8075 172.027 57.434C170.922 58.0604 169.735 58.3736 168.466 58.3736C166.735 58.3736 165.391 57.9038 164.435 56.9641C163.479 56.0245 163.001 54.7386 163.001 53.1066C163.001 51.9691 163.24 50.914 163.718 49.9414C164.196 48.9523 164.856 48.1692 165.696 47.5922C166.554 47.0152 167.518 46.7267 168.59 46.7267C169.546 46.7267 170.312 47.0152 170.889 47.5922C171.466 48.1527 171.755 48.9193 171.755 49.8919C171.755 51.0294 171.343 52.0103 170.518 52.8346C169.711 53.6423 168.334 54.2853 166.389 54.7634C166.801 55.5217 167.584 55.9008 168.738 55.9008C169.48 55.9008 170.32 55.6453 171.26 55.1343C172.216 54.6067 173.041 53.9226 173.733 53.0818C173.931 52.8511 174.153 52.7357 174.401 52.7357ZM168.169 49.1501C167.559 49.1501 167.04 49.5045 166.611 50.2134C166.199 50.9223 165.993 51.7795 165.993 52.7851V52.8346C166.966 52.6038 167.732 52.2576 168.293 51.796C168.853 51.3344 169.134 50.7986 169.134 50.1887C169.134 49.8754 169.043 49.6282 168.862 49.4468C168.697 49.249 168.466 49.1501 168.169 49.1501ZM183.07 50.1145C183.432 50.1145 183.737 50.2464 183.985 50.5101C184.248 50.7574 184.38 51.0706 184.38 51.4498C184.38 51.6641 184.331 51.8949 184.232 52.1422C183.968 52.7521 183.597 53.2632 183.119 53.6753C182.641 54.0875 182.114 54.2935 181.537 54.2935C181.075 54.2935 180.679 54.1287 180.35 53.799C180.036 53.4693 179.88 53.0241 179.88 52.4636C179.88 52.1504 179.896 51.8125 179.929 51.4498C179.962 51.186 179.979 51.0047 179.979 50.9058C179.979 50.7739 179.946 50.675 179.88 50.609C179.83 50.5431 179.764 50.5101 179.682 50.5101C179.451 50.5101 179.138 50.7904 178.742 51.3509C178.347 51.8949 177.951 52.6203 177.555 53.5269C177.16 54.4336 176.838 55.3898 176.591 56.3954C176.41 57.1867 176.204 57.7142 175.973 57.978C175.742 58.2418 175.363 58.3736 174.835 58.3736C174.209 58.3736 173.764 58.0439 173.5 57.3845C173.253 56.7251 173.129 55.67 173.129 54.2193C173.129 52.0762 173.434 50.0403 174.044 48.1115C174.192 47.6334 174.431 47.2872 174.761 47.0729C175.107 46.8421 175.585 46.7267 176.195 46.7267C176.525 46.7267 176.756 46.768 176.888 46.8504C177.02 46.9328 177.086 47.0894 177.086 47.3202C177.086 47.584 176.962 48.1775 176.715 49.1006C176.55 49.76 176.418 50.337 176.319 50.8316C176.22 51.3262 176.138 51.9361 176.072 52.6615C176.616 51.2437 177.226 50.0898 177.902 49.1995C178.577 48.3093 179.237 47.6747 179.88 47.2955C180.523 46.9163 181.108 46.7267 181.635 46.7267C182.114 46.7267 182.476 46.8669 182.724 47.1471C182.987 47.4109 183.119 47.8065 183.119 48.3341C183.119 48.6473 183.028 49.2408 182.847 50.1145H183.07ZM188.092 52.4636C187.763 52.4636 187.491 52.3895 187.276 52.2411C187.062 52.0927 186.955 51.8619 186.955 51.5487L186.98 51.3509C187.26 49.5045 187.639 47.4026 188.117 45.0452C188.595 42.6878 189.04 40.6519 189.452 38.9374C189.716 37.8824 190.433 37.3548 191.604 37.3548C192.659 37.3548 193.186 37.6928 193.186 38.3687C193.186 38.517 193.162 38.6819 193.112 38.8632C192.684 40.6107 192.115 42.7291 191.406 45.2183C190.697 47.6911 190.021 49.8425 189.378 51.6723C189.197 52.1999 188.768 52.4636 188.092 52.4636ZM187.153 58.3736C186.427 58.3736 185.875 58.1758 185.496 57.7802C185.133 57.3845 184.952 56.8652 184.952 56.2223C184.952 55.4805 185.158 54.887 185.57 54.4419C185.999 53.9968 186.592 53.7742 187.351 53.7742C188.076 53.7742 188.62 53.9556 188.983 54.3182C189.362 54.6644 189.551 55.1837 189.551 55.8761C189.551 56.6344 189.337 57.2444 188.908 57.706C188.48 58.1511 187.895 58.3736 187.153 58.3736Z" fill="#74ACDF"/>
<path d="M43.7899 48.7785C43.8888 48.7785 43.9649 48.8279 44.0182 48.9268C44.0714 49.0257 44.0981 49.1513 44.0981 49.3035C44.0981 49.4937 44.0714 49.642 44.0182 49.7486C43.9649 49.8475 43.8812 49.9159 43.7671 49.954C43.3106 50.1138 42.8084 50.2051 42.2606 50.2279C42.1084 50.8594 41.8193 51.3692 41.3932 51.7572C40.9747 52.1453 40.5106 52.3393 40.0008 52.3393C39.2323 52.3393 38.6731 52.0464 38.3231 51.4605C37.9731 50.8746 37.7981 50.0263 37.7981 48.9154C37.7981 47.9339 37.9199 46.8687 38.1633 45.7198C38.4068 44.5633 38.7606 43.5818 39.2247 42.7753C39.6965 41.9611 40.2557 41.5541 40.9024 41.5541C41.2524 41.5541 41.534 41.7062 41.747 42.0106C41.96 42.3073 42.0666 42.6954 42.0666 43.1747C42.0666 43.7986 41.9486 44.4187 41.7128 45.035C41.4769 45.6513 41.085 46.298 40.5372 46.9752C41.047 47.0133 41.4617 47.2263 41.7812 47.6143C42.1008 47.9948 42.291 48.4665 42.3519 49.0295C42.7095 49.0067 43.1356 48.9306 43.6301 48.8013C43.6758 48.7861 43.729 48.7785 43.7899 48.7785ZM40.6399 42.684C40.4878 42.684 40.3204 42.9122 40.1378 43.3687C39.9628 43.8176 39.7992 44.4301 39.647 45.2062C39.4948 45.9823 39.3807 46.8307 39.3046 47.7513C39.8068 46.8307 40.2062 46.0203 40.503 45.3203C40.8073 44.6127 40.9595 43.985 40.9595 43.4372C40.9595 43.1937 40.9291 43.0073 40.8682 42.878C40.8149 42.7486 40.7389 42.684 40.6399 42.684ZM40.0465 51.1295C40.2823 51.1295 40.4916 51.0306 40.6742 50.8328C40.8568 50.635 40.9785 50.3496 41.0394 49.9768C40.8035 49.817 40.6209 49.6078 40.4916 49.3491C40.3698 49.0904 40.309 48.8165 40.309 48.5274C40.309 48.4209 40.3242 48.2763 40.3546 48.0937H40.3204C40.0084 48.0937 39.7459 48.2497 39.5329 48.5616C39.3275 48.866 39.2247 49.2768 39.2247 49.7942C39.2247 50.2279 39.3046 50.5589 39.4644 50.7871C39.6318 51.0154 39.8258 51.1295 40.0465 51.1295ZM48.2028 49.7371C48.3017 49.7371 48.3778 49.7828 48.431 49.8741C48.4919 49.9654 48.5224 50.0909 48.5224 50.2507C48.5224 50.5551 48.4501 50.7909 48.3055 50.9583C48.024 51.3007 47.6245 51.6165 47.1071 51.9056C46.5974 52.1947 46.0495 52.3393 45.4637 52.3393C44.6648 52.3393 44.0447 52.1224 43.6034 51.6888C43.1621 51.2551 42.9414 50.6616 42.9414 49.9083C42.9414 49.3833 43.0518 48.8964 43.2724 48.4475C43.4931 47.991 43.7974 47.6296 44.1854 47.3633C44.5811 47.097 45.0262 46.9638 45.5207 46.9638C45.962 46.9638 46.3159 47.097 46.5822 47.3633C46.8485 47.6219 46.9816 47.9757 46.9816 48.4247C46.9816 48.9497 46.7914 49.4024 46.411 49.7828C46.0381 50.1556 45.4028 50.4524 44.505 50.673C44.6952 51.023 45.0566 51.198 45.5892 51.198C45.9316 51.198 46.3197 51.0801 46.7533 50.8442C47.1946 50.6007 47.5751 50.285 47.8946 49.8969C47.9859 49.7904 48.0887 49.7371 48.2028 49.7371ZM45.3267 48.0823C45.0452 48.0823 44.8055 48.2459 44.6077 48.573C44.4175 48.9002 44.3224 49.2958 44.3224 49.76V49.7828C44.7713 49.6763 45.1251 49.5165 45.3838 49.3035C45.6425 49.0904 45.7718 48.8431 45.7718 48.5616C45.7718 48.417 45.73 48.3029 45.6463 48.2192C45.5702 48.1279 45.4637 48.0823 45.3267 48.0823ZM49.773 52.3393C49.0273 52.3393 48.4453 52.1301 48.0268 51.7116C47.6159 51.2855 47.4105 50.7263 47.4105 50.0339C47.4105 49.4176 47.5322 48.8774 47.7757 48.4132C48.0192 47.9491 48.3349 47.5915 48.723 47.3404C49.111 47.0893 49.5181 46.9638 49.9442 46.9638C50.3626 46.9638 50.686 47.0893 50.9142 47.3404C51.1501 47.5839 51.2681 47.8997 51.2681 48.2877C51.2681 48.6073 51.1958 48.8774 51.0512 49.098C50.9142 49.3187 50.7316 49.429 50.5034 49.429C50.3588 49.429 50.2409 49.3948 50.1496 49.3263C50.0659 49.2578 50.024 49.1627 50.024 49.041C50.024 48.9877 50.0316 48.9268 50.0469 48.8583C50.0621 48.7899 50.0735 48.7404 50.0811 48.71C50.1191 48.5959 50.1382 48.4893 50.1382 48.3904C50.1382 48.2915 50.1115 48.2154 50.0583 48.1622C50.0126 48.1089 49.9442 48.0823 49.8528 48.0823C49.6778 48.0823 49.5143 48.1622 49.3621 48.3219C49.2099 48.4741 49.0882 48.6833 48.9969 48.9497C48.9056 49.216 48.8599 49.5089 48.8599 49.8284C48.8599 50.711 49.2442 51.1523 50.0126 51.1523C50.3246 51.1523 50.6594 51.0496 51.017 50.8442C51.3822 50.6312 51.7398 50.3154 52.0898 49.8969C52.1811 49.7904 52.2838 49.7371 52.3979 49.7371C52.4968 49.7371 52.5729 49.7828 52.6262 49.8741C52.6871 49.9654 52.7175 50.0909 52.7175 50.2507C52.7175 50.5399 52.6452 50.7757 52.5006 50.9583C52.143 51.3996 51.7132 51.742 51.211 51.9855C50.7164 52.2214 50.2371 52.3393 49.773 52.3393ZM57.6155 48.7785C57.7144 48.7785 57.7905 48.8279 57.8438 48.9268C57.897 49.0257 57.9237 49.1513 57.9237 49.3035C57.9237 49.6687 57.8133 49.8855 57.5927 49.954C57.1362 50.1138 56.634 50.2051 56.0862 50.2279C55.9416 50.867 55.6563 51.3806 55.2302 51.7686C54.8041 52.1491 54.321 52.3393 53.7808 52.3393C53.3242 52.3393 52.9324 52.229 52.6052 52.0083C52.2857 51.7877 52.0422 51.4947 51.8748 51.1295C51.7074 50.7643 51.6237 50.3687 51.6237 49.9426C51.6237 49.3643 51.734 48.8507 51.9547 48.4018C52.1753 47.9453 52.4797 47.5915 52.8677 47.3404C53.2558 47.0817 53.6857 46.9524 54.1574 46.9524C54.7356 46.9524 55.1998 47.154 55.5498 47.5573C55.9074 47.9529 56.1166 48.4437 56.1775 49.0295C56.5351 49.0067 56.9612 48.9306 57.4557 48.8013C57.5166 48.7861 57.5699 48.7785 57.6155 48.7785ZM53.8721 51.1295C54.1155 51.1295 54.3248 51.0306 54.4998 50.8328C54.6824 50.635 54.8041 50.3496 54.865 49.9768C54.6291 49.817 54.4465 49.6078 54.3172 49.3491C54.1954 49.0904 54.1346 48.8165 54.1346 48.5274C54.1346 48.4056 54.146 48.2839 54.1688 48.1622H54.1117C53.8074 48.1622 53.5525 48.3105 53.3471 48.6073C53.1493 48.8964 53.0503 49.3073 53.0503 49.8399C53.0503 50.2583 53.1302 50.5779 53.29 50.7985C53.4574 51.0192 53.6514 51.1295 53.8721 51.1295ZM57.7544 52.3393C57.4653 52.3393 57.2599 52.1871 57.1381 51.8828C57.024 51.5784 56.9669 51.0915 56.9669 50.4219C56.9669 49.4328 57.1077 48.4931 57.3892 47.6029C57.4577 47.3823 57.568 47.2225 57.7202 47.1236C57.88 47.0171 58.1006 46.9638 58.3821 46.9638C58.5343 46.9638 58.6408 46.9828 58.7017 47.0209C58.7626 47.0589 58.793 47.1312 58.793 47.2377C58.793 47.3595 58.7359 47.6334 58.6218 48.0594C58.5457 48.3638 58.4849 48.6301 58.4392 48.8583C58.3936 49.079 58.3555 49.3567 58.3251 49.6915C58.5305 49.098 58.774 48.5959 59.0555 48.185C59.3446 47.7741 59.6376 47.4698 59.9343 47.272C60.2386 47.0665 60.524 46.9638 60.7903 46.9638C61.0566 46.9638 61.243 47.0247 61.3495 47.1464C61.4636 47.2681 61.5207 47.4546 61.5207 47.7056C61.5207 47.9491 61.4484 48.3904 61.3038 49.0295C61.243 49.3035 61.2011 49.5089 61.1783 49.6458C61.5587 48.71 61.981 48.029 62.4451 47.6029C62.9093 47.1768 63.343 46.9638 63.7462 46.9638C64.2408 46.9638 64.4881 47.2111 64.4881 47.7056C64.4881 48.0024 64.4044 48.5388 64.237 49.3149C64.0924 49.9768 64.0201 50.4143 64.0201 50.6274C64.0201 50.9317 64.1305 51.0839 64.3511 51.0839C64.5033 51.0839 64.6821 50.9926 64.8875 50.81C65.1005 50.6197 65.3821 50.3154 65.7321 49.8969C65.8234 49.7904 65.9261 49.7371 66.0402 49.7371C66.1391 49.7371 66.2152 49.7828 66.2685 49.8741C66.3293 49.9654 66.3598 50.0909 66.3598 50.2507C66.3598 50.5551 66.2875 50.7909 66.1429 50.9583C65.8158 51.3616 65.462 51.6926 65.0815 51.9513C64.7087 52.2099 64.2826 52.3393 63.8033 52.3393C63.4152 52.3393 63.1223 52.229 62.9245 52.0083C62.7267 51.7801 62.6277 51.4529 62.6277 51.0268C62.6277 50.8138 62.681 50.4333 62.7875 49.8855C62.8864 49.4062 62.9359 49.0752 62.9359 48.8926C62.9359 48.7708 62.8941 48.71 62.8104 48.71C62.7114 48.71 62.5707 48.8393 62.3881 49.098C62.2055 49.3491 62.0229 49.6839 61.8403 50.1024C61.6576 50.5208 61.5093 50.9621 61.3952 51.4263C61.3115 51.7915 61.2125 52.0349 61.0984 52.1567C60.9919 52.2784 60.8169 52.3393 60.5734 52.3393C60.3223 52.3393 60.1321 52.2214 60.0028 51.9855C59.881 51.742 59.8202 51.4491 59.8202 51.1067C59.8202 50.8176 59.8582 50.3991 59.9343 49.8513C59.9952 49.3643 60.0256 49.0448 60.0256 48.8926C60.0256 48.7708 59.9838 48.71 59.9001 48.71C59.7859 48.71 59.6414 48.8469 59.4664 49.1208C59.2914 49.3948 59.1202 49.7448 58.9528 50.1708C58.793 50.5969 58.6637 51.0154 58.5647 51.4263C58.4811 51.7839 58.3821 52.0273 58.268 52.1567C58.1615 52.2784 57.9903 52.3393 57.7544 52.3393ZM69.5228 50.0795C69.6217 50.0795 69.6978 50.1252 69.751 50.2165C69.8119 50.3078 69.8423 50.4333 69.8423 50.5931C69.8423 50.867 69.7777 51.1029 69.6483 51.3007C69.4353 51.6279 69.1537 51.8828 68.8037 52.0654C68.4614 52.248 68.0505 52.3393 67.5712 52.3393C66.8407 52.3393 66.2739 52.1224 65.8706 51.6888C65.4674 51.2475 65.2657 50.654 65.2657 49.9083C65.2657 49.3833 65.3761 48.8964 65.5967 48.4475C65.8174 47.991 66.1217 47.6296 66.5097 47.3633C66.9054 47.097 67.3505 46.9638 67.8451 46.9638C68.2864 46.9638 68.6402 47.097 68.9065 47.3633C69.1728 47.6219 69.3059 47.9757 69.3059 48.4247C69.3059 48.9497 69.1157 49.4024 68.7353 49.7828C68.3624 50.1556 67.7233 50.4524 66.8179 50.673C67.0005 51.023 67.3087 51.198 67.7423 51.198C68.0543 51.198 68.3092 51.1257 68.507 50.9812C68.7124 50.8366 68.9483 50.5931 69.2146 50.2507C69.3059 50.1366 69.4086 50.0795 69.5228 50.0795ZM67.651 48.0823C67.3695 48.0823 67.1299 48.2459 66.932 48.573C66.7418 48.9002 66.6467 49.2958 66.6467 49.76V49.7828C67.0956 49.6763 67.4494 49.5165 67.7081 49.3035C67.9668 49.0904 68.0961 48.8431 68.0961 48.5616C68.0961 48.417 68.0543 48.3029 67.9706 48.2192C67.8945 48.1279 67.788 48.0823 67.651 48.0823ZM74.4621 52.3393C74.0284 52.3393 73.6746 52.1681 73.4007 51.8257C73.1344 51.4833 73.0012 51.0344 73.0012 50.479C73.0012 49.8703 73.142 49.2958 73.4235 48.7556C73.705 48.2078 74.0778 47.7703 74.542 47.4431C75.0137 47.1084 75.512 46.941 76.037 46.941C76.2044 46.941 76.3148 46.9752 76.368 47.0437C76.4289 47.1046 76.4783 47.2187 76.5164 47.3861C76.661 47.3556 76.8207 47.3404 76.9957 47.3404C77.1783 47.3404 77.3191 47.3861 77.418 47.4774C77.5169 47.5687 77.5664 47.698 77.5664 47.8654C77.5664 48.0404 77.5283 48.3448 77.4522 48.7785C77.3686 49.2426 77.3039 49.6877 77.2582 50.1138C77.2126 50.5322 77.1898 51.004 77.1898 51.529C77.1898 51.8181 77.1289 52.0273 77.0071 52.1567C76.893 52.2784 76.7028 52.3393 76.4365 52.3393C76.1778 52.3393 75.9838 52.2784 75.8544 52.1567C75.7327 52.0273 75.6718 51.8219 75.6718 51.5404L75.6832 51.3578C75.4474 52.0121 75.0403 52.3393 74.4621 52.3393ZM74.9072 51.1866C75.1202 51.1866 75.3142 51.0382 75.4892 50.7415C75.6642 50.4447 75.8202 49.9159 75.9572 49.1551L76.174 48.0024C75.862 48.01 75.5729 48.1317 75.3066 48.3676C75.0403 48.5959 74.8273 48.9002 74.6675 49.2806C74.5077 49.6611 74.4278 50.0643 74.4278 50.4904C74.4278 50.7187 74.4697 50.8937 74.5534 51.0154C74.6447 51.1295 74.7626 51.1866 74.9072 51.1866Z" fill="#74ACDF"/>
</svg>
