<svg width="191" height="81" viewBox="0 0 191 81" fill="none" xmlns="http://www.w3.org/2000/svg">
<path d="M28 35H190.064V80.6517L36.9403 65.1798L28 35Z" fill="#000085" fill-opacity="0.4"/>
<path d="M28.8989 4H34.225L32.7032 28.728L29.1927 26.9918L28.8989 4Z" fill="#000085" fill-opacity="0.4"/>
<path d="M4.15869 14.8906L11.2089 11.038L24.3338 28.9183L20.7146 30.8472L4.15869 14.8906Z" fill="#000085" fill-opacity="0.4"/>
<path d="M4.36123 43.9455L2.00005 37.6164L19.8803 34.5619L20.1491 39.19L4.36123 43.9455Z" fill="#000085" fill-opacity="0.4"/>
<path d="M23.4751 28.5322H185.539V74.1839L32.4154 58.712L23.4751 28.5322Z" fill="#485AA1"/>
<path d="M26.8989 0H32.225L30.7032 24.728L27.1927 22.9918L26.8989 0Z" fill="#485AA1"/>
<path d="M2.15869 11.271L9.20892 7.41839L22.3338 25.2986L18.7146 27.2276L2.15869 11.271Z" fill="#485AA1"/>
<path d="M2.36123 39.9455L5.00571e-05 33.6164L17.8803 30.5619L18.1491 35.19L2.36123 39.9455Z" fill="#485AA1"/>
<path d="M89.7389 57.9928C89.129 57.9928 88.6921 57.8609 88.4283 57.5971C88.1646 57.3169 88.0327 56.7976 88.0327 56.0393C88.0327 55.5282 88.0821 54.8771 88.181 54.0858C88.2964 53.278 88.4778 52.1735 88.7251 50.7722C89.1537 48.184 89.4916 45.942 89.7389 44.0462C89.8873 42.8592 89.9615 41.8701 89.9615 41.0788C89.9615 40.337 89.6895 39.9661 89.1454 39.9661C88.7168 39.9661 88.1975 40.1886 87.5876 40.6337C86.9941 41.0623 86.3347 41.7547 85.6093 42.7109C85.3785 43.0241 85.123 43.1807 84.8428 43.1807C84.612 43.1807 84.4059 43.0735 84.2246 42.8592C84.0597 42.6284 83.9773 42.3729 83.9773 42.0927C83.9773 41.8289 84.0267 41.5651 84.1257 41.3014C84.2411 41.0211 84.4224 40.7079 84.6697 40.3617C85.461 39.2572 86.3429 38.4082 87.3156 37.8147C88.2882 37.2048 89.2608 36.8998 90.2335 36.8998C91.1402 36.8998 91.8326 37.1883 92.3106 37.7653C92.8052 38.3423 93.0525 39.183 93.0525 40.2875C93.0525 40.7326 93.0113 41.2602 92.9288 41.8701C92.8464 42.4636 92.7722 42.9499 92.7063 43.3291C92.6403 43.7082 92.5909 43.972 92.5579 44.1204C93.4976 41.4333 94.5526 39.5622 95.7231 38.5071C96.8936 37.4356 98.1794 36.8998 99.5807 36.8998C100.652 36.8998 101.493 37.2789 102.103 38.0373C102.729 38.7956 103.043 39.8671 103.043 41.2519C103.043 41.7959 102.968 42.4718 102.82 43.2796C103.644 41.0046 104.609 39.3726 105.713 38.3835C106.818 37.3943 108.087 36.8998 109.521 36.8998C110.675 36.8998 111.557 37.2707 112.167 38.0125C112.794 38.7544 113.107 39.793 113.107 41.1283C113.107 41.8536 113 42.7356 112.785 43.7742L111.277 50.8464C111.112 51.6707 111.03 52.3795 111.03 52.973C111.03 53.6654 111.186 54.1847 111.5 54.5309C111.829 54.8771 112.283 55.0501 112.86 55.0501C113.404 55.0501 113.931 54.8688 114.442 54.5061C114.97 54.1435 115.588 53.5417 116.297 52.701C116.495 52.4702 116.717 52.3548 116.964 52.3548C117.179 52.3548 117.344 52.4537 117.459 52.6515C117.591 52.8494 117.657 53.1214 117.657 53.4676C117.657 54.1105 117.5 54.6215 117.187 55.0007C116.33 56.0393 115.481 56.7976 114.64 57.2757C113.799 57.7537 112.917 57.9928 111.994 57.9928C110.593 57.9928 109.497 57.5806 108.705 56.7564C107.914 55.9156 107.518 54.7946 107.518 53.3934C107.518 52.4207 107.716 51.0112 108.112 49.1649L109.101 44.6397C109.134 44.4913 109.192 44.2275 109.274 43.8484C109.356 43.4692 109.422 43.1148 109.472 42.7851C109.521 42.4389 109.546 42.1009 109.546 41.7712C109.546 41.1942 109.431 40.7656 109.2 40.4853C108.986 40.1886 108.672 40.0402 108.26 40.0402C107.485 40.0402 106.669 40.543 105.812 41.5487C104.971 42.5378 104.164 44.1863 103.389 46.4943C102.63 48.8022 102.012 51.8025 101.534 55.4953C101.419 56.4844 101.213 57.152 100.916 57.4982C100.636 57.8279 100.174 57.9928 99.5312 57.9928C98.9707 57.9928 98.5586 57.8609 98.2948 57.5971C98.0475 57.3334 97.9239 56.8388 97.9239 56.1135C97.9239 55.4376 98.0146 54.5556 98.1959 53.4676C98.3772 52.363 98.608 51.0689 98.8883 49.5853C99.6466 45.5958 100.026 43.0241 100.026 41.8701C100.026 41.2437 99.9021 40.7821 99.6548 40.4853C99.4241 40.1886 99.0696 40.0402 98.5915 40.0402C97.7838 40.0402 96.9512 40.5018 96.094 41.425C95.2368 42.3317 94.396 43.9555 93.5718 46.2964C92.764 48.6209 92.0881 51.7696 91.5441 55.7425C91.4287 56.5833 91.2556 57.1685 91.0248 57.4982C90.8105 57.8279 90.3818 57.9928 89.7389 57.9928ZM126.693 52.3548C126.907 52.3548 127.072 52.4537 127.188 52.6515C127.319 52.8494 127.385 53.1214 127.385 53.4676C127.385 54.127 127.229 54.638 126.916 55.0007C126.306 55.7425 125.44 56.4267 124.319 57.0531C123.215 57.6796 122.028 57.9928 120.758 57.9928C119.027 57.9928 117.684 57.5229 116.728 56.5833C115.771 55.6436 115.293 54.3578 115.293 52.7257C115.293 51.5882 115.532 50.5332 116.01 49.5605C116.489 48.5714 117.148 47.7884 117.989 47.2114C118.846 46.6344 119.81 46.3459 120.882 46.3459C121.838 46.3459 122.605 46.6344 123.182 47.2114C123.759 47.7719 124.047 48.5384 124.047 49.5111C124.047 50.6486 123.635 51.6294 122.811 52.4537C122.003 53.2615 120.626 53.9044 118.681 54.3825C119.093 55.1408 119.876 55.52 121.03 55.52C121.772 55.52 122.613 55.2645 123.553 54.7534C124.509 54.2259 125.333 53.5417 126.025 52.701C126.223 52.4702 126.446 52.3548 126.693 52.3548ZM120.462 48.7692C119.852 48.7692 119.332 49.1237 118.904 49.8325C118.492 50.5414 118.285 51.3986 118.285 52.4042V52.4537C119.258 52.2229 120.025 51.8767 120.585 51.4151C121.146 50.9535 121.426 50.4178 121.426 49.8078C121.426 49.4946 121.335 49.2473 121.154 49.066C120.989 48.8681 120.758 48.7692 120.462 48.7692ZM127.128 57.9928C126.501 57.9928 126.056 57.6631 125.792 57.0037C125.545 56.3442 125.421 55.2892 125.421 53.8385C125.421 51.6954 125.726 49.6594 126.336 47.7307C126.485 47.2526 126.724 46.9064 127.053 46.6921C127.4 46.4613 127.878 46.3459 128.488 46.3459C128.817 46.3459 129.048 46.3871 129.18 46.4695C129.312 46.552 129.378 46.7086 129.378 46.9394C129.378 47.2031 129.254 47.7966 129.007 48.7198C128.842 49.3792 128.71 49.9562 128.611 50.4507C128.512 50.9453 128.43 51.5553 128.364 52.2806C128.908 50.8629 129.518 49.7089 130.194 48.8187C130.87 47.9285 131.529 47.2938 132.172 46.9146C132.832 46.5355 133.433 46.3459 133.977 46.3459C135.049 46.3459 135.585 46.8817 135.585 47.9532C135.585 48.5961 135.403 49.7584 135.041 51.4399C134.727 52.8741 134.571 53.822 134.571 54.2836C134.571 54.943 134.81 55.2727 135.288 55.2727C135.618 55.2727 136.005 55.0749 136.45 54.6792C136.912 54.2671 137.522 53.6077 138.28 52.701C138.478 52.4702 138.7 52.3548 138.948 52.3548C139.162 52.3548 139.327 52.4537 139.442 52.6515C139.574 52.8494 139.64 53.1214 139.64 53.4676C139.64 54.127 139.483 54.638 139.17 55.0007C138.461 55.8744 137.695 56.5915 136.87 57.152C136.063 57.7125 135.14 57.9928 134.101 57.9928C133.26 57.9928 132.626 57.7537 132.197 57.2757C131.768 56.7811 131.554 56.0722 131.554 55.1491C131.554 54.6875 131.669 53.8632 131.9 52.6763C132.114 51.6377 132.222 50.9206 132.222 50.5249C132.222 50.2612 132.131 50.1293 131.95 50.1293C131.735 50.1293 131.43 50.4095 131.035 50.97C130.656 51.514 130.26 52.2394 129.848 53.1461C129.452 54.0528 129.131 55.0089 128.883 56.0145C128.702 56.7894 128.488 57.3169 128.24 57.5971C128.01 57.8609 127.639 57.9928 127.128 57.9928ZM148.668 52.3548C148.882 52.3548 149.047 52.4537 149.163 52.6515C149.295 52.8494 149.36 53.1214 149.36 53.4676C149.36 54.127 149.204 54.638 148.891 55.0007C148.182 55.8744 147.407 56.5915 146.566 57.152C145.725 57.7125 144.761 57.9928 143.673 57.9928C140.31 57.9928 138.629 55.6271 138.629 50.8958C138.629 50.1705 138.653 49.4369 138.703 48.695H137.738C137.244 48.695 136.906 48.6044 136.724 48.423C136.56 48.2417 136.477 47.9532 136.477 47.5576C136.477 46.6344 136.848 46.1728 137.59 46.1728H138.999C139.28 44.3594 139.708 42.7026 140.285 41.2025C140.862 39.7023 141.555 38.5071 142.362 37.6169C143.187 36.7267 144.069 36.2816 145.008 36.2816C145.701 36.2816 146.245 36.5866 146.64 37.1965C147.036 37.8065 147.234 38.573 147.234 39.4962C147.234 42.0515 146.162 44.277 144.019 46.1728H146.789C147.053 46.1728 147.242 46.2305 147.357 46.3459C147.473 46.4613 147.531 46.6756 147.531 46.9888C147.531 48.1263 146.599 48.695 144.736 48.695H141.72C141.687 49.5193 141.67 50.1622 141.67 50.6238C141.67 52.3383 141.868 53.5417 142.264 54.2341C142.676 54.9265 143.319 55.2727 144.192 55.2727C144.901 55.2727 145.528 55.0584 146.072 54.6298C146.616 54.2012 147.259 53.5582 148 52.701C148.198 52.4702 148.421 52.3548 148.668 52.3548ZM144.341 38.6555C144.093 38.6555 143.813 38.9687 143.5 39.5951C143.203 40.2051 142.915 41.0623 142.634 42.1669C142.371 43.2549 142.148 44.4666 141.967 45.8019C142.939 44.9611 143.665 44.0215 144.143 42.9829C144.637 41.9278 144.885 40.9717 144.885 40.1144C144.885 39.1418 144.703 38.6555 144.341 38.6555ZM159.958 50.2776C160.173 50.2776 160.338 50.3848 160.453 50.5991C160.568 50.8134 160.626 51.0854 160.626 51.4151C160.626 52.2064 160.387 52.6763 159.909 52.8246C158.92 53.1708 157.832 53.3686 156.645 53.4181C156.332 54.8029 155.713 55.9156 154.79 56.7564C153.867 57.5806 152.82 57.9928 151.65 57.9928C150.661 57.9928 149.812 57.7537 149.103 57.2757C148.41 56.7976 147.883 56.1629 147.52 55.3716C147.157 54.5803 146.976 53.7231 146.976 52.7999C146.976 51.547 147.215 50.4343 147.693 49.4616C148.171 48.4725 148.831 47.7059 149.671 47.1619C150.512 46.6014 151.444 46.3212 152.466 46.3212C153.719 46.3212 154.724 46.758 155.483 47.6317C156.257 48.489 156.711 49.5523 156.843 50.8217C157.617 50.7722 158.541 50.6073 159.612 50.3271C159.744 50.2941 159.859 50.2776 159.958 50.2776ZM151.848 55.3716C152.375 55.3716 152.828 55.1573 153.208 54.7287C153.603 54.3001 153.867 53.6819 153.999 52.8741C153.488 52.5279 153.092 52.0745 152.812 51.514C152.548 50.9535 152.416 50.3601 152.416 49.7336C152.416 49.4699 152.441 49.2061 152.49 48.9423H152.367C151.707 48.9423 151.155 49.2638 150.71 49.9067C150.281 50.5332 150.067 51.4234 150.067 52.5773C150.067 53.484 150.24 54.1764 150.586 54.6545C150.949 55.1326 151.369 55.3716 151.848 55.3716ZM168.494 49.7336C168.856 49.7336 169.161 49.8655 169.409 50.1293C169.672 50.3766 169.804 50.6898 169.804 51.0689C169.804 51.2832 169.755 51.514 169.656 51.7613C169.392 52.3713 169.021 52.8823 168.543 53.2945C168.065 53.7066 167.538 53.9127 166.961 53.9127C166.499 53.9127 166.103 53.7478 165.774 53.4181C165.46 53.0884 165.304 52.6433 165.304 52.0828C165.304 51.7696 165.32 51.4316 165.353 51.0689C165.386 50.8052 165.403 50.6238 165.403 50.5249C165.403 50.393 165.37 50.2941 165.304 50.2282C165.254 50.1622 165.188 50.1293 165.106 50.1293C164.875 50.1293 164.562 50.4095 164.166 50.97C163.771 51.514 163.375 52.2394 162.979 53.1461C162.584 54.0528 162.262 55.0089 162.015 56.0145C161.834 56.8058 161.628 57.3334 161.397 57.5971C161.166 57.8609 160.787 57.9928 160.259 57.9928C159.633 57.9928 159.188 57.6631 158.924 57.0037C158.677 56.3442 158.553 55.2892 158.553 53.8385C158.553 51.6954 158.858 49.6594 159.468 47.7307C159.616 47.2526 159.855 46.9064 160.185 46.6921C160.531 46.4613 161.009 46.3459 161.619 46.3459C161.949 46.3459 162.18 46.3871 162.312 46.4695C162.444 46.552 162.51 46.7086 162.51 46.9394C162.51 47.2031 162.386 47.7966 162.139 48.7198C161.974 49.3792 161.842 49.9562 161.743 50.4507C161.644 50.9453 161.562 51.5553 161.496 52.2806C162.04 50.8629 162.65 49.7089 163.326 48.8187C164.002 47.9285 164.661 47.2938 165.304 46.9146C165.947 46.5355 166.532 46.3459 167.06 46.3459C167.538 46.3459 167.9 46.486 168.148 46.7663C168.411 47.03 168.543 47.4257 168.543 47.9532C168.543 48.2664 168.453 48.8599 168.271 49.7336H168.494ZM173.516 52.0828C173.187 52.0828 172.915 52.0086 172.7 51.8602C172.486 51.7119 172.379 51.4811 172.379 51.1678L172.404 50.97C172.684 49.1237 173.063 47.0218 173.541 44.6644C174.019 42.307 174.464 40.271 174.876 38.5566C175.14 37.5015 175.857 36.974 177.028 36.974C178.083 36.974 178.61 37.3119 178.61 37.9878C178.61 38.1362 178.586 38.301 178.536 38.4824C178.108 40.2298 177.539 42.3482 176.83 44.8375C176.121 47.3103 175.445 49.4616 174.802 51.2915C174.621 51.819 174.192 52.0828 173.516 52.0828ZM172.577 57.9928C171.851 57.9928 171.299 57.795 170.92 57.3993C170.557 57.0037 170.376 56.4844 170.376 55.8414C170.376 55.0996 170.582 54.5061 170.994 54.061C171.423 53.6159 172.016 53.3934 172.775 53.3934C173.5 53.3934 174.044 53.5747 174.407 53.9374C174.786 54.2836 174.975 54.8029 174.975 55.4953C174.975 56.2536 174.761 56.8635 174.332 57.3251C173.904 57.7702 173.319 57.9928 172.577 57.9928Z" fill="#E1DFDD"/>
<path d="M44.5509 48.3981C44.6498 48.3981 44.7259 48.4475 44.7792 48.5465C44.8324 48.6454 44.859 48.7709 44.859 48.9231C44.859 49.1133 44.8324 49.2617 44.7792 49.3682C44.7259 49.4671 44.6422 49.5356 44.5281 49.5736C44.0716 49.7334 43.5694 49.8247 43.0216 49.8475C42.8694 50.479 42.5803 50.9888 42.1542 51.3769C41.7357 51.7649 41.2716 51.9589 40.7618 51.9589C39.9933 51.9589 39.4341 51.666 39.0841 51.0801C38.7341 50.4943 38.5591 49.6459 38.5591 48.535C38.5591 47.5535 38.6808 46.4883 38.9243 45.3394C39.1678 44.1829 39.5216 43.2014 39.9857 42.3949C40.4575 41.5808 41.0167 41.1737 41.6634 41.1737C42.0134 41.1737 42.2949 41.3259 42.508 41.6302C42.721 41.927 42.8275 42.315 42.8275 42.7943C42.8275 43.4182 42.7096 44.0383 42.4737 44.6546C42.2379 45.2709 41.846 45.9177 41.2982 46.5948C41.808 46.6329 42.2227 46.8459 42.5422 47.234C42.8618 47.6144 43.052 48.0861 43.1129 48.6492C43.4705 48.6263 43.8966 48.5503 44.3911 48.4209C44.4368 48.4057 44.49 48.3981 44.5509 48.3981ZM41.4009 42.3036C41.2488 42.3036 41.0814 42.5318 40.8988 42.9884C40.7238 43.4373 40.5602 44.0498 40.408 44.8258C40.2558 45.6019 40.1417 46.4503 40.0656 47.3709C40.5678 46.4503 40.9672 45.64 41.264 44.94C41.5683 44.2324 41.7205 43.6047 41.7205 43.0568C41.7205 42.8134 41.6901 42.6269 41.6292 42.4976C41.5759 42.3683 41.4998 42.3036 41.4009 42.3036ZM40.8075 50.7491C41.0433 50.7491 41.2526 50.6502 41.4352 50.4524C41.6178 50.2546 41.7395 49.9693 41.8004 49.5964C41.5645 49.4367 41.3819 49.2274 41.2526 48.9687C41.1308 48.71 41.07 48.4361 41.07 48.147C41.07 48.0405 41.0852 47.8959 41.1156 47.7133H41.0814C40.7694 47.7133 40.5069 47.8693 40.2939 48.1812C40.0884 48.4856 39.9857 48.8965 39.9857 49.4138C39.9857 49.8475 40.0656 50.1785 40.2254 50.4068C40.3928 50.635 40.5868 50.7491 40.8075 50.7491ZM48.9638 49.3568C49.0627 49.3568 49.1388 49.4024 49.192 49.4937C49.2529 49.585 49.2833 49.7106 49.2833 49.8704C49.2833 50.1747 49.2111 50.4106 49.0665 50.578C48.785 50.9203 48.3855 51.2361 47.8681 51.5252C47.3584 51.8144 46.8105 51.9589 46.2247 51.9589C45.4258 51.9589 44.8057 51.7421 44.3644 51.3084C43.9231 50.8747 43.7024 50.2812 43.7024 49.528C43.7024 49.003 43.8127 48.516 44.0334 48.0671C44.254 47.6106 44.5584 47.2492 44.9464 46.9829C45.3421 46.7166 45.7872 46.5834 46.2817 46.5834C46.723 46.5834 47.0768 46.7166 47.3431 46.9829C47.6094 47.2416 47.7426 47.5954 47.7426 48.0443C47.7426 48.5693 47.5524 49.022 47.1719 49.4024C46.7991 49.7752 46.1638 50.072 45.266 50.2926C45.4562 50.6426 45.8176 50.8176 46.3502 50.8176C46.6926 50.8176 47.0806 50.6997 47.5143 50.4638C47.9556 50.2204 48.3361 49.9046 48.6556 49.5166C48.7469 49.41 48.8496 49.3568 48.9638 49.3568ZM46.0877 47.7019C45.8062 47.7019 45.5665 47.8655 45.3687 48.1927C45.1785 48.5198 45.0834 48.9155 45.0834 49.3796V49.4024C45.5323 49.2959 45.8861 49.1361 46.1448 48.9231C46.4035 48.71 46.5328 48.4628 46.5328 48.1812C46.5328 48.0367 46.491 47.9225 46.4073 47.8389C46.3312 47.7475 46.2247 47.7019 46.0877 47.7019ZM50.5339 51.9589C49.7883 51.9589 49.2062 51.7497 48.7878 51.3312C48.3769 50.9051 48.1715 50.3459 48.1715 49.6535C48.1715 49.0372 48.2932 48.497 48.5367 48.0329C48.7802 47.5687 49.0959 47.2111 49.484 46.9601C49.872 46.709 50.2791 46.5834 50.7051 46.5834C51.1236 46.5834 51.447 46.709 51.6752 46.9601C51.9111 47.2035 52.029 47.5193 52.029 47.9073C52.029 48.2269 51.9568 48.497 51.8122 48.7176C51.6752 48.9383 51.4926 49.0486 51.2644 49.0486C51.1198 49.0486 51.0019 49.0144 50.9106 48.9459C50.8269 48.8774 50.785 48.7823 50.785 48.6606C50.785 48.6073 50.7926 48.5465 50.8079 48.478C50.8231 48.4095 50.8345 48.36 50.8421 48.3296C50.8801 48.2155 50.8992 48.109 50.8992 48.01C50.8992 47.9111 50.8725 47.835 50.8193 47.7818C50.7736 47.7285 50.7051 47.7019 50.6138 47.7019C50.4388 47.7019 50.2753 47.7818 50.1231 47.9416C49.9709 48.0937 49.8492 48.303 49.7579 48.5693C49.6666 48.8356 49.6209 49.1285 49.6209 49.4481C49.6209 50.3307 50.0051 50.772 50.7736 50.772C51.0856 50.772 51.4203 50.6693 51.778 50.4638C52.1432 50.2508 52.5008 49.935 52.8508 49.5166C52.9421 49.41 53.0448 49.3568 53.1589 49.3568C53.2578 49.3568 53.3339 49.4024 53.3872 49.4937C53.448 49.585 53.4785 49.7106 53.4785 49.8704C53.4785 50.1595 53.4062 50.3953 53.2616 50.578C52.904 51.0193 52.4741 51.3616 51.972 51.6051C51.4774 51.841 50.9981 51.9589 50.5339 51.9589ZM58.3765 48.3981C58.4754 48.3981 58.5515 48.4475 58.6048 48.5465C58.658 48.6454 58.6846 48.7709 58.6846 48.9231C58.6846 49.2883 58.5743 49.5051 58.3537 49.5736C57.8972 49.7334 57.395 49.8247 56.8472 49.8475C56.7026 50.4867 56.4173 51.0002 55.9912 51.3883C55.5651 51.7687 55.082 51.9589 54.5418 51.9589C54.0852 51.9589 53.6934 51.8486 53.3662 51.6279C53.0467 51.4073 52.8032 51.1144 52.6358 50.7491C52.4684 50.3839 52.3847 49.9883 52.3847 49.5622C52.3847 48.984 52.495 48.4704 52.7157 48.0215C52.9363 47.5649 53.2407 47.2111 53.6287 46.9601C54.0168 46.7014 54.4466 46.572 54.9184 46.572C55.4966 46.572 55.9608 46.7736 56.3108 47.1769C56.6684 47.5726 56.8776 48.0633 56.9385 48.6492C57.2961 48.6263 57.7222 48.5503 58.2167 48.4209C58.2776 48.4057 58.3308 48.3981 58.3765 48.3981ZM54.6331 50.7491C54.8765 50.7491 55.0858 50.6502 55.2608 50.4524C55.4434 50.2546 55.5651 49.9693 55.626 49.5964C55.3901 49.4367 55.2075 49.2274 55.0782 48.9687C54.9564 48.71 54.8956 48.4361 54.8956 48.147C54.8956 48.0253 54.907 47.9035 54.9298 47.7818H54.8727C54.5684 47.7818 54.3135 47.9302 54.1081 48.2269C53.9102 48.516 53.8113 48.9269 53.8113 49.4595C53.8113 49.878 53.8912 50.1975 54.051 50.4182C54.2184 50.6388 54.4124 50.7491 54.6331 50.7491ZM58.5154 51.9589C58.2263 51.9589 58.0209 51.8067 57.8991 51.5024C57.785 51.1981 57.7279 50.7111 57.7279 50.0415C57.7279 49.0524 57.8687 48.1128 58.1502 47.2226C58.2187 47.0019 58.329 46.8421 58.4812 46.7432C58.641 46.6367 58.8616 46.5834 59.1431 46.5834C59.2953 46.5834 59.4018 46.6025 59.4627 46.6405C59.5236 46.6785 59.554 46.7508 59.554 46.8573C59.554 46.9791 59.4969 47.253 59.3828 47.6791C59.3067 47.9834 59.2458 48.2497 59.2002 48.478C59.1545 48.6986 59.1165 48.9763 59.0861 49.3111C59.2915 48.7176 59.535 48.2155 59.8165 47.8046C60.1056 47.3937 60.3985 47.0894 60.6953 46.8916C60.9996 46.6861 61.285 46.5834 61.5513 46.5834C61.8176 46.5834 62.004 46.6443 62.1105 46.766C62.2246 46.8878 62.2817 47.0742 62.2817 47.3253C62.2817 47.5687 62.2094 48.01 62.0648 48.6492C62.004 48.9231 61.9621 49.1285 61.9393 49.2655C62.3197 48.3296 62.742 47.6486 63.2061 47.2226C63.6703 46.7965 64.1039 46.5834 64.5072 46.5834C65.0018 46.5834 65.249 46.8307 65.249 47.3253C65.249 47.622 65.1653 48.1584 64.998 48.9345C64.8534 49.5964 64.7811 50.0339 64.7811 50.247C64.7811 50.5513 64.8914 50.7035 65.1121 50.7035C65.2643 50.7035 65.4431 50.6122 65.6485 50.4296C65.8615 50.2394 66.1431 49.935 66.4931 49.5166C66.5844 49.41 66.6871 49.3568 66.8012 49.3568C66.9001 49.3568 66.9762 49.4024 67.0295 49.4937C67.0903 49.585 67.1208 49.7106 67.1208 49.8704C67.1208 50.1747 67.0485 50.4106 66.9039 50.578C66.5767 50.9812 66.2229 51.3122 65.8425 51.5709C65.4697 51.8296 65.0436 51.9589 64.5643 51.9589C64.1762 51.9589 63.8833 51.8486 63.6855 51.6279C63.4876 51.3997 63.3887 51.0725 63.3887 50.6464C63.3887 50.4334 63.442 50.053 63.5485 49.5051C63.6474 49.0258 63.6969 48.6948 63.6969 48.5122C63.6969 48.3905 63.655 48.3296 63.5713 48.3296C63.4724 48.3296 63.3317 48.459 63.1491 48.7176C62.9665 48.9687 62.7838 49.3035 62.6012 49.722C62.4186 50.1405 62.2703 50.5818 62.1561 51.0459C62.0724 51.4111 61.9735 51.6546 61.8594 51.7763C61.7529 51.8981 61.5779 51.9589 61.3344 51.9589C61.0833 51.9589 60.8931 51.841 60.7638 51.6051C60.642 51.3616 60.5812 51.0687 60.5812 50.7263C60.5812 50.4372 60.6192 50.0187 60.6953 49.4709C60.7562 48.984 60.7866 48.6644 60.7866 48.5122C60.7866 48.3905 60.7447 48.3296 60.661 48.3296C60.5469 48.3296 60.4024 48.4666 60.2274 48.7405C60.0524 49.0144 59.8812 49.3644 59.7138 49.7905C59.554 50.2165 59.4246 50.635 59.3257 51.0459C59.242 51.4035 59.1431 51.647 59.029 51.7763C58.9225 51.8981 58.7513 51.9589 58.5154 51.9589ZM70.2837 49.6992C70.3827 49.6992 70.4587 49.7448 70.512 49.8361C70.5729 49.9274 70.6033 50.053 70.6033 50.2127C70.6033 50.4867 70.5386 50.7225 70.4093 50.9203C70.1962 51.2475 69.9147 51.5024 69.5647 51.685C69.2223 51.8676 68.8115 51.9589 68.3321 51.9589C67.6017 51.9589 67.0349 51.7421 66.6316 51.3084C66.2284 50.8671 66.0267 50.2736 66.0267 49.528C66.0267 49.003 66.1371 48.516 66.3577 48.0671C66.5784 47.6106 66.8827 47.2492 67.2707 46.9829C67.6664 46.7166 68.1115 46.5834 68.606 46.5834C69.0473 46.5834 69.4011 46.7166 69.6674 46.9829C69.9338 47.2416 70.0669 47.5954 70.0669 48.0443C70.0669 48.5693 69.8767 49.022 69.4963 49.4024C69.1234 49.7752 68.4843 50.072 67.5789 50.2926C67.7615 50.6426 68.0696 50.8176 68.5033 50.8176C68.8153 50.8176 69.0702 50.7453 69.268 50.6008C69.4734 50.4562 69.7093 50.2127 69.9756 49.8704C70.0669 49.7562 70.1696 49.6992 70.2837 49.6992ZM68.412 47.7019C68.1305 47.7019 67.8908 47.8655 67.693 48.1927C67.5028 48.5198 67.4077 48.9155 67.4077 49.3796V49.4024C67.8566 49.2959 68.2104 49.1361 68.4691 48.9231C68.7278 48.71 68.8571 48.4628 68.8571 48.1812C68.8571 48.0367 68.8153 47.9225 68.7316 47.8389C68.6555 47.7475 68.549 47.7019 68.412 47.7019ZM75.223 51.9589C74.7894 51.9589 74.4356 51.7877 74.1616 51.4453C73.8953 51.103 73.7622 50.654 73.7622 50.0986C73.7622 49.4899 73.903 48.9155 74.1845 48.3753C74.466 47.8274 74.8388 47.3899 75.3029 47.0628C75.7747 46.728 76.273 46.5606 76.798 46.5606C76.9654 46.5606 77.0757 46.5948 77.129 46.6633C77.1899 46.7242 77.2393 46.8383 77.2774 47.0057C77.4219 46.9753 77.5817 46.9601 77.7567 46.9601C77.9393 46.9601 78.0801 47.0057 78.179 47.097C78.2779 47.1883 78.3274 47.3177 78.3274 47.4851C78.3274 47.6601 78.2893 47.9644 78.2132 48.3981C78.1295 48.8622 78.0649 49.3073 78.0192 49.7334C77.9736 50.1519 77.9507 50.6236 77.9507 51.1486C77.9507 51.4377 77.8899 51.647 77.7681 51.7763C77.654 51.8981 77.4638 51.9589 77.1975 51.9589C76.9388 51.9589 76.7448 51.8981 76.6154 51.7763C76.4937 51.647 76.4328 51.4415 76.4328 51.16L76.4442 50.9774C76.2084 51.6317 75.8013 51.9589 75.223 51.9589ZM75.6682 50.8062C75.8812 50.8062 76.0752 50.6578 76.2502 50.3611C76.4252 50.0644 76.5812 49.5356 76.7181 48.7747L76.935 47.622C76.623 47.6296 76.3339 47.7514 76.0676 47.9872C75.8013 48.2155 75.5883 48.5198 75.4285 48.9003C75.2687 49.2807 75.1888 49.6839 75.1888 50.11C75.1888 50.3383 75.2307 50.5133 75.3144 50.635C75.4057 50.7491 75.5236 50.8062 75.6682 50.8062Z" fill="#E1DFDD"/>
</svg>
