<svg width="403" height="139" viewBox="0 0 403 139" fill="none" xmlns="http://www.w3.org/2000/svg">
<path d="M403 18.1788C403 18.1788 254.985 -21.2226 196.525 15.9897C138.065 53.202 1.10269e-05 32.977 1.10269e-05 32.977V130.909C1.10269e-05 130.909 82.0926 159.148 159.832 110.115C237.571 61.0824 381.233 103.985 381.233 103.985C381.233 103.985 369.417 69.8383 322.151 58.8935C274.886 47.9487 278.617 43.1318 278.617 43.1318C278.617 43.1318 282.971 29.1234 312.201 22.9944C341.431 16.8655 403 18.1788 403 18.1788Z" fill="#F3F1E5"/>
<path d="M25.16 104.528C21.416 104.528 18.2 103.808 15.512 102.368C12.824 100.928 10.76 98.896 9.32 96.272C7.912 93.648 7.208 90.576 7.208 87.056C7.208 84.432 7.608 82.048 8.408 79.904C9.24 77.76 10.424 75.92 11.96 74.384C13.528 72.848 15.416 71.68 17.624 70.88C19.864 70.048 22.376 69.632 25.16 69.632C26.632 69.632 28.152 69.808 29.72 70.16C31.32 70.48 32.728 70.976 33.944 71.648C34.84 72.128 35.464 72.736 35.816 73.472C36.168 74.208 36.28 74.96 36.152 75.728C36.056 76.496 35.784 77.184 35.336 77.792C34.888 78.4 34.312 78.816 33.608 79.04C32.904 79.232 32.136 79.12 31.304 78.704C30.344 78.256 29.384 77.92 28.424 77.696C27.496 77.44 26.52 77.312 25.496 77.312C23.512 77.312 21.848 77.696 20.504 78.464C19.192 79.2 18.2 80.288 17.528 81.728C16.856 83.168 16.52 84.944 16.52 87.056C16.52 89.168 16.856 90.96 17.528 92.432C18.2 93.872 19.192 94.976 20.504 95.744C21.848 96.48 23.512 96.848 25.496 96.848C26.328 96.848 27.224 96.752 28.184 96.56C29.144 96.336 30.088 96 31.016 95.552C31.976 95.136 32.824 95.024 33.56 95.216C34.328 95.408 34.936 95.792 35.384 96.368C35.864 96.944 36.168 97.616 36.296 98.384C36.424 99.12 36.312 99.856 35.96 100.592C35.64 101.328 35.064 101.92 34.232 102.368C33.112 103.04 31.72 103.568 30.056 103.952C28.424 104.336 26.792 104.528 25.16 104.528ZM48.7186 104.528C46.6706 104.528 44.9906 104.16 43.6786 103.424C42.3666 102.656 41.3746 101.52 40.7026 100.016C40.0626 98.512 39.7426 96.608 39.7426 94.304V84.224C39.7426 82.816 40.1106 81.76 40.8466 81.056C41.5826 80.32 42.6386 79.952 44.0146 79.952C45.3906 79.952 46.4466 80.32 47.1826 81.056C47.9186 81.76 48.2866 82.816 48.2866 84.224V94.544C48.2866 95.696 48.5266 96.56 49.0066 97.136C49.4866 97.712 50.2386 98 51.2626 98C52.4146 98 53.3586 97.584 54.0946 96.752C54.8306 95.92 55.1986 94.816 55.1986 93.44V84.224C55.1986 82.816 55.5666 81.76 56.3026 81.056C57.0386 80.32 58.0946 79.952 59.4706 79.952C60.8466 79.952 61.9026 80.32 62.6386 81.056C63.3746 81.76 63.7426 82.816 63.7426 84.224V100.112C63.7426 102.992 62.3666 104.432 59.6146 104.432C58.2706 104.432 57.2306 104.064 56.4946 103.328C55.7586 102.592 55.3906 101.52 55.3906 100.112V97.328L56.1586 99.68C55.4546 101.248 54.4626 102.448 53.1826 103.28C51.9346 104.112 50.4466 104.528 48.7186 104.528ZM81.0988 104.528C78.6988 104.528 76.7148 104.16 75.1468 103.424C73.6108 102.688 72.4588 101.584 71.6908 100.112C70.9228 98.608 70.5388 96.736 70.5388 94.496V86.672H68.9068C67.8828 86.672 67.0828 86.4 66.5068 85.856C65.9627 85.312 65.6907 84.528 65.6907 83.504C65.6907 82.48 65.9627 81.712 66.5068 81.2C67.0828 80.656 67.8828 80.384 68.9068 80.384H70.5388V77.408C70.5388 76 70.9068 74.928 71.6428 74.192C72.3788 73.456 73.4348 73.088 74.8108 73.088C76.1868 73.088 77.2428 73.456 77.9788 74.192C78.7148 74.928 79.0828 76 79.0828 77.408V80.384H83.0188C84.0748 80.384 84.8748 80.656 85.4188 81.2C85.9948 81.712 86.2828 82.48 86.2828 83.504C86.2828 84.528 85.9948 85.312 85.4188 85.856C84.8748 86.4 84.0748 86.672 83.0188 86.672H79.0828V94.208C79.0828 95.392 79.3548 96.272 79.8988 96.848C80.4748 97.392 81.3708 97.664 82.5868 97.664C83.0348 97.664 83.4668 97.616 83.8828 97.52C84.2988 97.424 84.6828 97.376 85.0348 97.376C85.5468 97.344 85.9628 97.504 86.2828 97.856C86.6028 98.176 86.7628 98.928 86.7628 100.112C86.7628 101.072 86.6188 101.888 86.3308 102.56C86.0428 103.2 85.5308 103.664 84.7948 103.952C84.3468 104.112 83.7388 104.24 82.9708 104.336C82.2028 104.464 81.5788 104.528 81.0988 104.528ZM94.22 104.432C92.876 104.432 91.836 104.032 91.1 103.232C90.364 102.432 89.996 101.28 89.996 99.776V84.608C89.996 83.104 90.364 81.952 91.1 81.152C91.836 80.352 92.876 79.952 94.22 79.952C95.596 79.952 96.652 80.352 97.388 81.152C98.156 81.952 98.54 83.104 98.54 84.608V99.776C98.54 101.28 98.172 102.432 97.436 103.232C96.7 104.032 95.628 104.432 94.22 104.432ZM94.22 76.544C92.716 76.544 91.548 76.192 90.716 75.488C89.916 74.784 89.516 73.76 89.516 72.416C89.516 71.104 89.916 70.096 90.716 69.392C91.548 68.688 92.716 68.336 94.22 68.336C95.788 68.336 96.972 68.688 97.772 69.392C98.572 70.096 98.972 71.104 98.972 72.416C98.972 73.76 98.572 74.784 97.772 75.488C96.972 76.192 95.788 76.544 94.22 76.544ZM116.36 104.528C113.48 104.528 110.984 104.032 108.872 103.04C106.792 102.016 105.192 100.576 104.072 98.72C102.952 96.864 102.392 94.672 102.392 92.144C102.392 89.712 102.92 87.584 103.976 85.76C105.064 83.904 106.536 82.464 108.392 81.44C110.28 80.384 112.424 79.856 114.824 79.856C116.584 79.856 118.184 80.144 119.624 80.72C121.064 81.264 122.296 82.08 123.32 83.168C124.344 84.224 125.112 85.504 125.624 87.008C126.168 88.512 126.44 90.192 126.44 92.048C126.44 92.688 126.264 93.168 125.912 93.488C125.56 93.776 125 93.92 124.232 93.92H109.544V89.888H120.2L119.432 90.512C119.432 89.328 119.272 88.368 118.952 87.632C118.632 86.896 118.152 86.336 117.512 85.952C116.904 85.568 116.136 85.376 115.208 85.376C114.216 85.376 113.352 85.616 112.616 86.096C111.912 86.544 111.368 87.216 110.984 88.112C110.6 89.008 110.408 90.128 110.408 91.472V91.904C110.408 94.176 110.904 95.808 111.896 96.8C112.92 97.76 114.488 98.24 116.6 98.24C117.304 98.24 118.104 98.16 119 98C119.928 97.808 120.808 97.552 121.64 97.232C122.472 96.912 123.192 96.864 123.8 97.088C124.408 97.28 124.872 97.632 125.192 98.144C125.544 98.624 125.736 99.184 125.768 99.824C125.8 100.432 125.656 101.04 125.336 101.648C125.016 102.224 124.488 102.672 123.752 102.992C122.632 103.504 121.432 103.888 120.152 104.144C118.904 104.4 117.64 104.528 116.36 104.528Z" fill="#47455C"/>
</svg>
