<svg width="2278" height="1833" viewBox="0 0 2278 1833" fill="none" xmlns="http://www.w3.org/2000/svg">
<path d="M1445.82 504.816H1515.28L1713.29 306.825L1723 222.734C1354.47 -102.555 792.035 -67.4144 466.717 301.083C376.329 403.359 310.827 525.189 275 657C297.016 647.976 321.494 646.471 344.467 652.898L740.482 587.539C740.482 587.539 760.584 554.176 771.113 556.227C947.242 362.749 1243.71 340.188 1447.18 504.816H1445.82Z" fill="#EA4335"/>
<path d="M1995.16 656.467C1949.64 488.823 1856.28 338.135 1726.42 223L1448.65 500.856C1565.94 596.711 1632.78 741.246 1629.91 892.754V942.117C1766.47 942.117 1877.19 1052.88 1877.19 1189.48C1877.19 1326.08 1766.47 1436.84 1629.91 1436.84H1135.35L1086 1486.89V1783.62L1135.35 1832.98H1629.91C1985.04 1835.72 2275.25 1549.93 2277.98 1194.68C2279.62 978.9 2173.41 777.072 1995.16 656.467Z" fill="#4285F4"/>
<path d="M639.752 1830.99H1135V1434.33H639.752C604.436 1434.33 569.667 1426.66 537.499 1412L467.962 1433.64L268.384 1631.97L251 1701.56C362.835 1786.2 499.445 1831.68 639.752 1830.99Z" fill="#34A853"/>
<path d="M639.443 546.005C284.112 548.056 -2.03982 837.74 0.0109545 1193.04C1.24142 1391.41 93.7998 1578.15 251.163 1699L537.998 1412.19C413.584 1356 358.213 1209.45 414.404 1085.04C470.596 960.641 617.158 905.274 741.571 961.461C796.396 986.205 840.282 1030.22 865.165 1085.04L1152 798.232C1030.05 638.557 840.282 545.185 639.443 546.005Z" fill="#FBBC05"/>
</svg>
