<svg width="403" height="139" viewBox="0 0 403 139" fill="none" xmlns="http://www.w3.org/2000/svg">
<path d="M403 18.1788C403 18.1788 254.985 -21.2226 196.525 15.9897C138.065 53.202 1.10269e-05 32.977 1.10269e-05 32.977V130.909C1.10269e-05 130.909 82.0926 159.148 159.832 110.115C237.571 61.0824 381.233 103.985 381.233 103.985C381.233 103.985 369.417 69.8383 322.151 58.8935C274.886 47.9487 278.617 43.1318 278.617 43.1318C278.617 43.1318 282.971 29.1234 312.201 22.9944C341.431 16.8655 403 18.1788 403 18.1788Z" fill="#F3F1E5"/>
<path d="M24.392 99.528C20.968 99.528 17.96 98.808 15.368 97.368C12.776 95.896 10.76 93.848 9.32 91.224C7.912 88.6 7.208 85.544 7.208 82.056C7.208 79.432 7.608 77.048 8.408 74.904C9.24 72.76 10.408 70.92 11.912 69.384C13.448 67.848 15.272 66.68 17.384 65.88C19.496 65.048 21.832 64.632 24.392 64.632C27.816 64.632 30.808 65.352 33.368 66.792C35.96 68.232 37.976 70.264 39.416 72.888C40.856 75.48 41.576 78.536 41.576 82.056C41.576 84.68 41.16 87.064 40.328 89.208C39.528 91.352 38.36 93.208 36.824 94.776C35.32 96.312 33.512 97.496 31.4 98.328C29.288 99.128 26.952 99.528 24.392 99.528ZM24.392 92.136C26.088 92.136 27.528 91.736 28.712 90.936C29.896 90.136 30.808 88.984 31.448 87.48C32.088 85.976 32.408 84.168 32.408 82.056C32.408 78.888 31.704 76.424 30.296 74.664C28.888 72.904 26.92 72.024 24.392 72.024C22.728 72.024 21.288 72.424 20.072 73.224C18.888 73.992 17.976 75.128 17.336 76.632C16.696 78.104 16.376 79.912 16.376 82.056C16.376 85.224 17.08 87.704 18.488 89.496C19.896 91.256 21.864 92.136 24.392 92.136ZM50.5828 99.432C49.1748 99.432 48.0868 99.064 47.3188 98.328C46.5828 97.592 46.2148 96.52 46.2148 95.112V79.224C46.2148 77.848 46.5668 76.792 47.2708 76.056C48.0068 75.32 49.0468 74.952 50.3908 74.952C51.7348 74.952 52.7588 75.32 53.4628 76.056C54.1668 76.792 54.5188 77.848 54.5188 79.224V81.192H54.0388C54.3588 79.272 55.1748 77.752 56.4868 76.632C57.8308 75.512 59.4948 74.92 61.4788 74.856C62.4068 74.824 63.0948 75.064 63.5428 75.576C64.0228 76.056 64.2788 76.968 64.3108 78.312C64.3108 79.464 64.0708 80.376 63.5908 81.048C63.1108 81.72 62.1988 82.12 60.8548 82.248L59.7508 82.344C58.0548 82.504 56.8228 82.984 56.0547 83.784C55.2868 84.552 54.9028 85.704 54.9028 87.24V95.112C54.9028 96.52 54.5348 97.592 53.7988 98.328C53.0628 99.064 51.9908 99.432 50.5828 99.432ZM75.0009 99.528C73.1769 99.528 71.5609 99.192 70.1529 98.52C68.7769 97.848 67.6889 96.936 66.8889 95.784C66.1209 94.6 65.7369 93.256 65.7369 91.752C65.7369 90.024 66.1849 88.664 67.0809 87.672C67.9769 86.68 69.4169 85.976 71.4009 85.56C73.3849 85.112 76.0249 84.888 79.3209 84.888H81.9609V88.92H79.3209C78.0729 88.92 77.0329 89.016 76.2009 89.208C75.4009 89.368 74.8089 89.64 74.4249 90.024C74.0409 90.376 73.8489 90.84 73.8489 91.416C73.8489 92.152 74.1049 92.76 74.6169 93.24C75.1609 93.72 75.9289 93.96 76.9209 93.96C77.7209 93.96 78.4249 93.784 79.0329 93.432C79.6729 93.08 80.1849 92.6 80.5689 91.992C80.9529 91.352 81.1449 90.616 81.1449 89.784V84.216C81.1449 83.064 80.8409 82.248 80.2329 81.768C79.6569 81.288 78.6489 81.048 77.2089 81.048C76.4409 81.048 75.5769 81.144 74.6169 81.336C73.6569 81.496 72.5849 81.8 71.4009 82.248C70.5369 82.568 69.8009 82.616 69.1929 82.392C68.5849 82.168 68.1049 81.784 67.7529 81.24C67.4329 80.696 67.2729 80.104 67.2729 79.464C67.3049 78.824 67.5129 78.216 67.8969 77.64C68.3129 77.064 68.9369 76.616 69.7689 76.296C71.3049 75.72 72.7129 75.336 73.9929 75.144C75.3049 74.952 76.5049 74.856 77.5929 74.856C80.2169 74.856 82.3769 75.24 84.0729 76.008C85.8009 76.744 87.0809 77.896 87.9129 79.464C88.7769 81 89.2089 82.984 89.2089 85.416V95.112C89.2089 96.52 88.8729 97.592 88.2009 98.328C87.5289 99.064 86.5529 99.432 85.2729 99.432C83.9609 99.432 82.9529 99.064 82.2489 98.328C81.5769 97.592 81.2409 96.52 81.2409 95.112V93.864L81.5289 94.536C81.3689 95.56 81.0009 96.44 80.4249 97.176C79.8489 97.912 79.0969 98.488 78.1689 98.904C77.2409 99.32 76.1849 99.528 75.0009 99.528ZM98.2981 99.432C96.9541 99.432 95.9141 99.064 95.1781 98.328C94.4421 97.592 94.0741 96.52 94.0741 95.112V79.224C94.0741 77.848 94.4261 76.792 95.1301 76.056C95.8661 75.32 96.9061 74.952 98.2501 74.952C99.5941 74.952 100.618 75.32 101.322 76.056C102.026 76.792 102.378 77.848 102.378 79.224V81.48L101.85 79.512C102.618 78.008 103.706 76.856 105.114 76.056C106.554 75.256 108.186 74.856 110.01 74.856C111.898 74.856 113.45 75.224 114.666 75.96C115.882 76.664 116.794 77.784 117.402 79.32C118.01 80.824 118.314 82.728 118.314 85.032V95.112C118.314 96.52 117.946 97.592 117.21 98.328C116.474 99.064 115.418 99.432 114.042 99.432C112.666 99.432 111.61 99.064 110.874 98.328C110.138 97.592 109.77 96.52 109.77 95.112V85.368C109.77 83.928 109.514 82.904 109.002 82.296C108.522 81.688 107.802 81.384 106.842 81.384C105.562 81.384 104.538 81.8 103.77 82.632C103.002 83.432 102.618 84.52 102.618 85.896V95.112C102.618 97.992 101.178 99.432 98.2981 99.432ZM134.896 108.168C133.136 108.168 131.488 108.04 129.952 107.784C128.416 107.56 127.088 107.224 125.968 106.776C125.04 106.456 124.384 105.992 124 105.384C123.616 104.776 123.44 104.136 123.472 103.464C123.504 102.792 123.68 102.184 124 101.64C124.352 101.096 124.816 100.696 125.392 100.44C125.968 100.216 126.608 100.232 127.312 100.488C128.72 101.064 130 101.432 131.152 101.592C132.304 101.784 133.28 101.88 134.08 101.88C136.032 101.88 137.488 101.464 138.448 100.632C139.44 99.832 139.936 98.568 139.936 96.84V93.816H140.32C139.84 95.16 138.864 96.264 137.392 97.128C135.92 97.96 134.32 98.376 132.592 98.376C130.48 98.376 128.64 97.896 127.072 96.936C125.504 95.944 124.272 94.568 123.376 92.808C122.512 91.048 122.08 88.984 122.08 86.616C122.08 84.824 122.336 83.208 122.848 81.768C123.36 80.328 124.064 79.096 124.96 78.072C125.888 77.048 126.992 76.264 128.272 75.72C129.584 75.144 131.024 74.856 132.592 74.856C134.384 74.856 135.984 75.272 137.392 76.104C138.832 76.936 139.792 78.024 140.272 79.368L139.792 81.336V79.224C139.792 77.848 140.16 76.792 140.896 76.056C141.664 75.32 142.72 74.952 144.064 74.952C145.408 74.952 146.432 75.32 147.135 76.056C147.872 76.792 148.24 77.848 148.24 79.224V95.832C148.24 99.928 147.088 103 144.784 105.048C142.48 107.128 139.184 108.168 134.896 108.168ZM135.232 92.088C136.192 92.088 137.008 91.88 137.68 91.464C138.352 91.016 138.88 90.392 139.264 89.592C139.648 88.76 139.84 87.768 139.84 86.616C139.84 84.888 139.424 83.544 138.592 82.584C137.76 81.624 136.64 81.144 135.232 81.144C134.336 81.144 133.536 81.368 132.832 81.816C132.128 82.232 131.584 82.856 131.2 83.688C130.848 84.488 130.672 85.464 130.672 86.616C130.672 88.344 131.088 89.688 131.92 90.648C132.752 91.608 133.856 92.088 135.232 92.088ZM166.094 99.528C163.214 99.528 160.718 99.032 158.606 98.04C156.526 97.016 154.926 95.576 153.806 93.72C152.686 91.864 152.126 89.672 152.126 87.144C152.126 84.712 152.654 82.584 153.71 80.76C154.798 78.904 156.27 77.464 158.126 76.44C160.014 75.384 162.158 74.856 164.558 74.856C166.318 74.856 167.918 75.144 169.358 75.72C170.798 76.264 172.03 77.08 173.054 78.168C174.078 79.224 174.846 80.504 175.358 82.008C175.902 83.512 176.174 85.192 176.174 87.048C176.174 87.688 175.998 88.168 175.646 88.488C175.294 88.776 174.734 88.92 173.966 88.92H159.278V84.888H169.934L169.166 85.512C169.166 84.328 169.006 83.368 168.686 82.632C168.366 81.896 167.886 81.336 167.246 80.952C166.638 80.568 165.87 80.376 164.942 80.376C163.95 80.376 163.086 80.616 162.35 81.096C161.646 81.544 161.102 82.216 160.718 83.112C160.334 84.008 160.142 85.128 160.142 86.472V86.904C160.142 89.176 160.638 90.808 161.63 91.8C162.654 92.76 164.222 93.24 166.334 93.24C167.038 93.24 167.838 93.16 168.734 93C169.662 92.808 170.542 92.552 171.374 92.232C172.206 91.912 172.926 91.864 173.534 92.088C174.142 92.28 174.606 92.632 174.926 93.144C175.278 93.624 175.47 94.184 175.502 94.824C175.534 95.432 175.39 96.04 175.07 96.648C174.75 97.224 174.222 97.672 173.486 97.992C172.366 98.504 171.166 98.888 169.886 99.144C168.638 99.4 167.374 99.528 166.094 99.528Z" fill="#47455C"/>
</svg>
