<svg width="403" height="139" viewBox="0 0 403 139" fill="none" xmlns="http://www.w3.org/2000/svg">
<path d="M403 18.1788C403 18.1788 254.985 -21.2226 196.525 15.9897C138.065 53.202 1.10269e-05 32.977 1.10269e-05 32.977V130.909C1.10269e-05 130.909 82.0926 159.148 159.832 110.115C237.571 61.0824 381.233 103.985 381.233 103.985C381.233 103.985 369.417 69.8383 322.151 58.8935C274.886 47.9487 278.617 43.1318 278.617 43.1318C278.617 43.1318 282.971 29.1234 312.201 22.9944C341.431 16.8655 403 18.1788 403 18.1788Z" fill="#F3F1E5"/>
<path d="M12.488 99.432C11.08 99.432 9.992 99.048 9.224 98.28C8.456 97.48 8.072 96.376 8.072 94.968V69.624C8.072 68.184 8.456 67.08 9.224 66.312C10.024 65.544 11.128 65.16 12.536 65.16H24.344C28.184 65.16 31.144 66.152 33.224 68.136C35.336 70.088 36.392 72.792 36.392 76.248C36.392 79.704 35.336 82.424 33.224 84.408C31.144 86.36 28.184 87.336 24.344 87.336H16.904V94.968C16.904 96.376 16.536 97.48 15.8 98.28C15.064 99.048 13.96 99.432 12.488 99.432ZM16.904 80.568H22.808C24.472 80.568 25.752 80.216 26.648 79.512C27.544 78.776 27.992 77.688 27.992 76.248C27.992 74.776 27.544 73.688 26.648 72.984C25.752 72.28 24.472 71.928 22.808 71.928H16.904V80.568ZM50.573 99.528C47.949 99.528 45.661 99.032 43.709 98.04C41.757 97.048 40.237 95.624 39.149 93.768C38.061 91.912 37.517 89.72 37.517 87.192C37.517 85.272 37.821 83.56 38.429 82.056C39.037 80.52 39.917 79.224 41.069 78.168C42.221 77.08 43.597 76.264 45.197 75.72C46.797 75.144 48.589 74.856 50.573 74.856C53.197 74.856 55.485 75.352 57.437 76.344C59.389 77.336 60.893 78.76 61.949 80.616C63.037 82.44 63.581 84.632 63.581 87.192C63.581 89.08 63.277 90.792 62.669 92.328C62.061 93.864 61.181 95.176 60.029 96.264C58.909 97.32 57.533 98.136 55.901 98.712C54.301 99.256 52.525 99.528 50.573 99.528ZM50.573 93.24C51.437 93.24 52.205 93.032 52.877 92.616C53.549 92.168 54.061 91.512 54.413 90.648C54.797 89.752 54.989 88.6 54.989 87.192C54.989 85.048 54.573 83.512 53.741 82.584C52.909 81.624 51.853 81.144 50.573 81.144C49.709 81.144 48.941 81.352 48.269 81.768C47.597 82.184 47.069 82.84 46.685 83.736C46.301 84.6 46.109 85.752 46.109 87.192C46.109 89.304 46.525 90.84 47.357 91.8C48.189 92.76 49.261 93.24 50.573 93.24ZM71.816 99.432C70.472 99.432 69.432 99.064 68.696 98.328C67.96 97.592 67.592 96.52 67.592 95.112V79.224C67.592 77.848 67.944 76.792 68.648 76.056C69.384 75.32 70.424 74.952 71.768 74.952C73.112 74.952 74.136 75.32 74.84 76.056C75.544 76.792 75.896 77.848 75.896 79.224V81.864L75.368 79.512C76.04 78.104 77.032 76.984 78.344 76.152C79.688 75.288 81.272 74.856 83.096 74.856C84.824 74.856 86.296 75.272 87.512 76.104C88.76 76.936 89.656 78.2 90.2 79.896H89.528C90.264 78.328 91.368 77.096 92.84 76.2C94.312 75.304 95.944 74.856 97.736 74.856C99.592 74.856 101.112 75.224 102.296 75.96C103.48 76.664 104.36 77.784 104.936 79.32C105.544 80.824 105.848 82.728 105.848 85.032V95.112C105.848 96.52 105.464 97.592 104.696 98.328C103.96 99.064 102.904 99.432 101.528 99.432C100.184 99.432 99.144 99.064 98.408 98.328C97.672 97.592 97.304 96.52 97.304 95.112V85.272C97.304 83.896 97.096 82.904 96.68 82.296C96.264 81.688 95.576 81.384 94.616 81.384C93.432 81.384 92.52 81.8 91.88 82.632C91.272 83.464 90.968 84.648 90.968 86.184V95.112C90.968 96.52 90.6 97.592 89.864 98.328C89.128 99.064 88.072 99.432 86.696 99.432C85.32 99.432 84.264 99.064 83.528 98.328C82.792 97.592 82.424 96.52 82.424 95.112V85.272C82.424 83.896 82.216 82.904 81.8 82.296C81.384 81.688 80.696 81.384 79.736 81.384C78.584 81.384 77.688 81.8 77.048 82.632C76.44 83.464 76.136 84.648 76.136 86.184V95.112C76.136 97.992 74.696 99.432 71.816 99.432ZM123.673 99.528C120.793 99.528 118.297 99.032 116.185 98.04C114.105 97.016 112.505 95.576 111.385 93.72C110.265 91.864 109.705 89.672 109.705 87.144C109.705 84.712 110.233 82.584 111.289 80.76C112.377 78.904 113.849 77.464 115.705 76.44C117.593 75.384 119.737 74.856 122.137 74.856C123.897 74.856 125.497 75.144 126.937 75.72C128.377 76.264 129.609 77.08 130.633 78.168C131.657 79.224 132.425 80.504 132.937 82.008C133.481 83.512 133.753 85.192 133.753 87.048C133.753 87.688 133.577 88.168 133.225 88.488C132.873 88.776 132.313 88.92 131.545 88.92H116.857V84.888H127.513L126.745 85.512C126.745 84.328 126.585 83.368 126.265 82.632C125.945 81.896 125.465 81.336 124.825 80.952C124.217 80.568 123.449 80.376 122.521 80.376C121.529 80.376 120.665 80.616 119.929 81.096C119.225 81.544 118.681 82.216 118.297 83.112C117.913 84.008 117.721 85.128 117.721 86.472V86.904C117.721 89.176 118.217 90.808 119.209 91.8C120.233 92.76 121.801 93.24 123.913 93.24C124.617 93.24 125.417 93.16 126.313 93C127.241 92.808 128.121 92.552 128.953 92.232C129.785 91.912 130.505 91.864 131.113 92.088C131.721 92.28 132.185 92.632 132.505 93.144C132.857 93.624 133.049 94.184 133.081 94.824C133.113 95.432 132.969 96.04 132.649 96.648C132.329 97.224 131.801 97.672 131.065 97.992C129.945 98.504 128.745 98.888 127.465 99.144C126.217 99.4 124.953 99.528 123.673 99.528ZM146.41 99.528C143.338 99.528 141.066 98.712 139.594 97.08C138.154 95.416 137.434 92.92 137.434 89.592V69.048C137.434 67.64 137.802 66.568 138.538 65.832C139.274 65.096 140.314 64.728 141.658 64.728C143.034 64.728 144.09 65.096 144.826 65.832C145.594 66.568 145.978 67.64 145.978 69.048V89.304C145.978 90.488 146.202 91.352 146.65 91.896C147.13 92.44 147.738 92.712 148.474 92.712C148.698 92.712 148.922 92.696 149.146 92.664C149.402 92.6 149.674 92.552 149.962 92.52C150.506 92.52 150.906 92.728 151.162 93.144C151.45 93.56 151.594 94.408 151.594 95.688C151.594 96.808 151.37 97.656 150.922 98.232C150.474 98.776 149.786 99.128 148.858 99.288C148.602 99.32 148.234 99.368 147.754 99.432C147.274 99.496 146.826 99.528 146.41 99.528ZM165.839 99.528C163.215 99.528 160.927 99.032 158.975 98.04C157.023 97.048 155.503 95.624 154.415 93.768C153.327 91.912 152.783 89.72 152.783 87.192C152.783 85.272 153.087 83.56 153.695 82.056C154.303 80.52 155.183 79.224 156.335 78.168C157.487 77.08 158.863 76.264 160.463 75.72C162.063 75.144 163.855 74.856 165.839 74.856C168.463 74.856 170.751 75.352 172.703 76.344C174.655 77.336 176.159 78.76 177.215 80.616C178.303 82.44 178.847 84.632 178.847 87.192C178.847 89.08 178.543 90.792 177.935 92.328C177.327 93.864 176.447 95.176 175.295 96.264C174.175 97.32 172.799 98.136 171.167 98.712C169.567 99.256 167.791 99.528 165.839 99.528ZM165.839 93.24C166.703 93.24 167.471 93.032 168.143 92.616C168.815 92.168 169.327 91.512 169.679 90.648C170.063 89.752 170.255 88.6 170.255 87.192C170.255 85.048 169.839 83.512 169.007 82.584C168.175 81.624 167.119 81.144 165.839 81.144C164.975 81.144 164.207 81.352 163.535 81.768C162.863 82.184 162.335 82.84 161.951 83.736C161.567 84.6 161.375 85.752 161.375 87.192C161.375 89.304 161.791 90.84 162.623 91.8C163.455 92.76 164.527 93.24 165.839 93.24Z" fill="#47455C"/>
</svg>
