<svg width="193" height="193" viewBox="0 0 193 193" fill="none" xmlns="http://www.w3.org/2000/svg">
<circle cx="96.0876" cy="96.0876" r="91.7931" fill="#FCF1BF" stroke="#FF0000" stroke-width="8.58883"/>
<g clip-path="url(#clip0_1262_863)">
<path d="M129.489 68.5277H123.353V80.5178C123.353 84.426 127.546 87.765 132.729 87.765C137.913 87.765 142.449 84.388 142.449 80.5178V68.5277H136.312V79.3416C136.312 81.1249 134.788 82.5668 132.92 82.5668C131.014 82.5668 129.489 81.1249 129.489 79.3036V68.5277ZM32.1422 61.9255V86.8164H25.7769V56.8032H37.2497C42.2428 56.8032 46.3212 60.8252 46.3212 65.7199C46.3212 69.8937 43.3863 73.3845 39.4223 74.2951L48.2651 86.8164H40.6801L34.3148 76.9891V69.8178H35.8013C38.1645 69.8178 40.0702 68.0724 40.0702 65.9096C40.0702 63.7468 38.2788 61.9255 35.9156 61.9255H32.1422ZM90.7259 86.8164V55.3613H84.7036V70.1972C83.1028 68.6415 81.0826 67.7688 78.7576 67.7688C73.8026 67.7688 69.7623 72.1323 69.7623 77.5582C69.7623 82.9462 73.8026 87.3476 78.7576 87.3476C81.1208 87.3476 83.3315 86.437 84.7036 84.7675V86.8164H90.7259ZM80.4728 82.2253C78.0334 82.2253 76.0514 80.0625 76.0514 77.4065C76.0514 74.7504 78.0334 72.5876 80.4728 72.5876C82.9122 72.5876 84.8942 74.7504 84.8942 77.4065C84.8561 80.0625 82.8741 82.2253 80.4728 82.2253ZM116.035 70.5008C117.674 68.983 118.703 66.9341 118.703 64.6954C118.703 62.6465 117.902 60.7872 116.53 59.3074C115.082 57.7518 112.566 56.8032 109.136 56.8032H98.8826V86.8164H112.147C117.216 86.7405 121.333 82.9082 121.333 78.2033C121.295 74.7884 120.075 72.36 116.035 70.5008M110.927 81.6182H105.172V62.1911H109.212C110.965 62.1911 112.452 63.5192 112.452 65.3025C112.452 67.0858 110.965 68.5277 109.212 68.5277H107.077V73.9536H111.003C113.138 73.9536 114.739 75.699 114.739 77.8238C114.663 79.9487 113.252 81.5043 110.927 81.6182" fill="#E21B4D"/>
<path d="M53.6015 75.3196C53.6015 73.3086 55.2404 71.677 57.2606 71.677C59.2807 71.677 60.9197 73.3086 60.9197 75.3196H53.6015ZM66.8657 78.7345C66.9038 78.3171 66.9419 77.8997 66.9419 77.4823C67.0182 70.994 62.7492 67.4653 57.2606 67.4653C51.7719 67.4653 47.3124 71.9426 47.3124 77.4823C47.3124 83.0221 51.7719 87.4994 57.2606 87.4994C61.4533 87.4994 64.7312 85.6022 66.4083 82.6426L61.5295 80.404C60.9197 81.732 59.4713 82.6806 57.7561 82.6806C55.5072 82.6806 53.6396 80.9731 53.6396 78.7345H66.8657ZM145.27 55.3613H151.292V86.8164H145.27V55.3613ZM155.523 55.3613H161.545V86.8164H155.523V55.3613Z" fill="#E21B4D"/>
<path d="M79.8251 107.609C79.8251 99.489 86.4191 92.9248 94.5758 92.9248C102.733 92.9248 109.327 99.489 109.327 107.609C109.327 115.729 102.733 122.293 94.5758 122.293C86.4191 122.293 79.8251 115.691 79.8251 107.609Z" fill="#FFD300"/>
<path fill-rule="evenodd" clip-rule="evenodd" d="M82.7216 98.8821C82.9502 98.9959 83.1789 99.1097 83.4458 99.2615C84.5511 100.02 85.2753 100.665 86.9524 102.069C87.4479 102.563 88.0196 103.359 88.4389 103.853C89.3537 104.991 90.0016 105.788 90.116 106.736C90.3828 108.634 90.6496 109.696 91.3738 111.631C91.45 111.821 91.755 112.086 91.9455 112.314C92.4029 112.883 92.5935 113.794 93.432 114.287C93.8894 114.553 93.9657 114.591 94.1181 114.704C94.3468 114.894 93.9657 115.577 92.7841 115.425C93.3939 115.729 93.3177 116.412 92.441 116.45C90.7258 116.526 89.6586 115.539 89.4299 115.274C89.3156 115.16 88.9725 115.615 88.3627 115.843C87.7528 116.146 86.9143 115.843 86.2663 115.957C85.6565 116.07 84.856 116.45 84.2081 116.488C83.0646 116.526 82.9121 115.729 82.9121 115.046V114.742C82.7978 115.16 82.3785 115.881 82.3785 115.881C82.2261 116.222 81.9974 116.64 81.5781 116.791L80.3584 116.943C79.4055 117.361 78.4526 117.664 77.4616 118.006C76.8899 118.119 76.2419 118.006 75.8226 117.664C75.4796 117.398 75.289 117.057 75.0984 116.715C74.9079 116.64 74.641 116.715 74.4124 116.64C74.2218 116.602 74.1074 116.45 73.9931 116.336L73.1545 114.932C73.0783 114.742 73.0783 114.477 73.1545 114.287C73.307 113.984 73.65 113.832 73.9931 113.832C74.6029 113.794 75.289 113.604 75.8989 113.832C76.1657 113.528 76.5849 113.566 76.9661 113.49C76.8136 113.263 76.5849 113.149 76.3944 112.959C75.289 113.225 74.0693 113.035 73.0021 112.845C72.0111 112.618 71.1725 113.187 70.1815 113.035L69.8766 113.68C69.4192 114.173 69.3811 115.008 68.695 115.35C68.1995 115.463 67.8184 115.805 67.3991 116.032C66.6368 116.45 65.6076 116.26 64.7691 116.108C64.4261 116.07 64.1974 116.108 63.8924 116.222C63.6256 116.412 63.3207 116.715 63.0158 116.943C62.5203 117.133 62.101 117.55 61.5674 117.588C61.2625 117.588 60.9575 117.398 60.6526 117.474C60.2715 117.892 60.0809 118.575 59.471 118.764C58.8612 118.954 58.0989 118.802 57.489 118.651C57.2984 118.726 57.1841 118.878 56.9554 118.84C56.5361 118.726 56.1169 118.613 55.7357 118.385C55.5832 118.233 55.5451 118.043 55.507 117.892C55.507 117.626 55.7357 117.398 55.85 117.171C55.8882 116.905 55.8882 116.526 56.0025 116.26C56.1931 115.843 56.6124 115.577 57.0316 115.387C57.0697 115.084 57.2603 114.818 57.5271 114.667C58.0226 114.401 58.5563 113.794 59.2042 114.135L59.8903 114.704C60.5002 114.439 60.3477 113.832 60.6526 113.339C60.8051 112.997 60.9957 112.618 61.3768 112.618C61.6436 112.58 61.9485 112.656 62.2154 112.618C62.5965 112.504 63.0158 112.352 63.2826 112.048L63.2445 111.821C62.8633 111.1 62.749 110.227 62.7109 109.354C62.0248 109.43 61.3006 109.544 60.5764 109.392C59.5091 109.241 58.48 108.406 58.0608 107.343C57.6034 106.319 57.7939 104.877 58.5181 104.004C59.0899 103.321 59.7378 102.714 60.4239 102.183C60.1952 102.107 59.9284 102.145 59.6997 102.069C58.7087 101.918 57.7177 101.045 57.489 100.058C57.3366 99.4133 57.489 98.8062 57.7939 98.275C57.9083 98.1611 58.0226 98.0473 58.2132 98.1232C58.7087 98.3129 58.8612 98.5785 59.3186 98.8062L59.5854 98.958C60.8432 99.3753 62.5203 99.3753 63.0158 100.931C63.3207 102.145 62.5584 103.056 61.6817 103.739C60.9957 104.232 60.3096 104.839 59.9665 105.56C59.8141 106.091 59.8903 106.623 60.3477 107.002C60.8051 107.457 61.6055 107.457 62.1772 107.23C63.2445 106.774 64.2355 106.091 65.1884 105.37C66.1031 104.687 67.2085 104.422 68.3901 104.384C68.9237 104.27 69.3811 104.042 69.8004 103.701C70.5246 103.018 71.2869 102.449 72.2016 102.221C72.6209 102.145 73.0402 102.107 73.4595 102.069C73.8025 101.918 74.0312 101.5 74.298 101.31C75.5558 100.21 77.2329 100.248 78.567 99.3753C79.3293 98.8062 80.1678 98.4268 81.1588 98.4647C81.6162 98.5026 82.0355 98.5785 82.4166 98.7303L82.7216 98.8821ZM83.9794 111.783C83.1408 111.821 82.6072 112.01 82.0355 112.086C82.0736 112.618 82.3785 113.073 82.7978 113.642C83.0265 112.769 83.7507 112.428 83.9794 111.783ZM105.438 111.973C105.82 112.542 106.048 113.111 106.391 113.718C106.734 113.073 107.039 112.466 107.344 112.086C107.306 112.048 106.315 112.162 105.438 111.973M106.239 114.78C106.201 114.894 106.125 114.932 105.972 114.932C106.086 115.463 105.705 116.45 104.752 116.488C104.104 116.526 103.037 115.881 102.427 115.843C101.779 115.805 100.598 116.298 99.9117 115.274C98.9969 116.374 97.9297 116.678 97.0149 116.64C96.4813 116.64 95.9096 116.336 96.71 115.653C94.9567 116.222 94.9567 115.046 95.2616 114.818C95.4522 114.667 95.6809 114.553 96.3288 113.908C98.7682 111.365 97.8535 106.964 100.522 104.042C101.551 102.904 102.389 102.259 104.486 100.779C105.21 100.286 105.934 99.5651 106.62 99.0718L106.658 99.1477V99.1097C107.077 98.8062 107.459 98.5026 107.916 98.3888C108.869 98.275 109.746 98.5785 110.47 99.0718C110.851 99.3374 111.156 99.6409 111.461 100.02C111.689 100.248 112.032 100.248 112.337 100.362C113.214 100.514 113.976 100.855 114.701 101.31C115.196 101.614 115.615 102.145 116.225 102.221C116.949 102.335 117.597 102.563 118.245 102.942C119.008 103.435 119.694 104.042 120.608 104.194C122.438 104.384 123.963 105.408 125.411 106.433C126.25 106.926 127.241 107.495 128.27 107.154C128.575 107.04 128.803 106.774 128.88 106.509C128.956 105.826 128.537 105.295 128.117 104.801C127.241 103.777 125.716 102.904 125.907 101.424C126.173 100.324 127.393 99.6789 128.346 99.3753C128.88 99.1856 129.528 99.2615 129.985 98.8062C130.214 98.6544 130.328 98.1232 130.709 98.3129C131.014 98.5026 131.052 98.8821 131.09 99.2236C131.243 100.286 131.014 101.348 130.023 101.955C129.566 102.259 129.07 102.373 128.537 102.487C129.337 103.132 130.137 103.929 130.595 104.839C130.862 105.37 131.014 105.826 131.052 106.433C131.014 107.571 130.328 108.558 129.337 109.127C128.765 109.43 128.117 109.544 127.431 109.544C127.164 109.544 126.936 109.468 126.707 109.468C126.821 109.999 126.821 110.72 126.707 111.328C126.669 111.631 126.478 111.973 126.478 112.352C126.631 112.542 126.859 112.542 127.05 112.542C127.546 112.542 128.155 112.504 128.422 113.035C128.651 113.528 128.765 114.097 128.956 114.591C129.032 114.667 129.07 114.856 129.184 114.818C129.528 114.515 129.871 114.097 130.366 114.211C130.823 114.515 131.281 114.856 131.738 115.198C131.853 115.312 131.891 115.463 131.929 115.653C132.31 115.805 132.805 116.07 132.92 116.526C132.996 116.829 132.958 117.133 133.034 117.398C133.149 117.702 133.453 118.081 133.225 118.461L133.072 118.575L131.624 119.03C131.51 119.03 131.395 118.954 131.281 118.84C130.519 118.802 129.604 119.03 128.994 118.499C128.727 118.271 128.537 118.006 128.346 117.702C127.889 117.93 127.241 118.081 126.783 117.778C125.83 117.057 124.877 116.336 123.582 116.374C123.01 116.488 122.324 116.64 121.752 116.412C121.218 116.032 120.608 115.843 120.189 115.274C119.579 114.629 119.579 113.87 119.351 113.073C118.512 113.263 117.597 113.149 116.759 113.111C116.073 113.073 115.425 113.187 114.777 113.339C113.976 113.49 113.1 113.566 112.261 113.528L111.842 113.832C112.032 113.87 112.223 113.87 112.376 114.021L112.528 114.173C113.214 114.249 114.014 114.135 114.662 114.287C114.815 114.325 114.967 114.477 115.044 114.629C115.12 114.818 115.12 115.046 115.005 115.198C114.662 115.653 114.472 116.184 114.014 116.564C113.9 116.715 113.557 116.526 113.519 116.791C113.367 117.474 112.719 118.044 112.071 118.195C111.804 118.233 111.499 118.195 111.27 118.119C110.47 117.854 109.669 117.626 108.869 117.398C108.602 117.323 108.373 117.057 108.145 116.905C107.802 116.905 107.306 117.019 107.077 116.715C106.963 116.64 106.849 116.374 106.811 116.26C106.544 115.919 106.353 115.312 106.239 114.78" fill="#FFD300"/>
<path fill-rule="evenodd" clip-rule="evenodd" d="M82.3405 103.662C82.5692 104.231 82.5692 104.99 82.4168 105.597C82.3786 105.635 82.3405 105.635 82.3024 105.597C82.1881 105.066 82.0737 104.535 81.8831 104.004C81.7688 103.7 81.3876 103.435 81.5401 103.093C81.6163 103.017 81.7688 103.017 81.8831 103.055C82.0737 103.245 82.1881 103.435 82.3405 103.662M88.439 108.974C88.8583 109.468 89.1632 109.999 89.0107 110.644C88.9345 110.758 88.9726 110.985 88.7821 111.023C88.7058 111.061 88.6296 110.985 88.6296 110.909C88.5915 110.568 88.5915 110.189 88.4009 109.923C88.1722 109.695 87.9054 109.24 87.5242 109.24C87.2574 109.316 87.0669 109.619 86.9144 109.809C86.9144 109.847 86.8763 109.847 86.8382 109.809C86.6857 109.43 86.9906 109.126 87.105 108.823C87.3337 108.595 87.2955 107.95 87.7911 108.14C88.1341 108.367 88.2103 108.747 88.439 108.974M87.6386 113.49C87.6767 113.717 87.6767 114.059 87.448 114.211C87.2193 114.286 86.9144 114.324 86.6476 114.286C86.5714 114.248 86.4951 114.211 86.5332 114.135C86.6476 113.793 86.9906 113.414 87.3718 113.338C87.448 113.338 87.6005 113.338 87.6386 113.49M59.8142 99.6403C60.729 99.8679 61.72 99.8679 62.406 100.589C62.7872 101.044 62.8253 101.841 62.5204 102.296C61.9868 103.207 60.9195 103.662 60.2716 104.459C59.6236 104.99 59.3949 105.825 59.5855 106.66C59.8142 107.381 60.5384 107.874 61.2626 107.912C62.406 107.95 63.2446 107.381 64.1594 106.85C65.0741 106.204 65.9127 105.37 66.9418 105.104C67.6279 104.876 68.3902 104.99 69.0763 104.725C69.8005 104.573 70.3722 103.966 70.9439 103.435C71.5919 102.903 72.3542 102.6 73.1928 102.638C73.9551 102.752 74.3744 102.069 74.908 101.613C75.7846 100.817 76.9281 100.741 77.9572 100.285C78.6814 100.058 79.2532 99.5264 79.9392 99.1849C80.5872 98.9193 81.4639 98.8434 82.1118 99.109C82.5311 99.2988 82.9885 99.4885 83.3696 99.792L86.457 102.372C86.4951 102.486 86.6095 102.562 86.6857 102.6C87.5624 103.662 88.4771 104.687 89.2013 105.863C89.43 106.28 89.5444 106.698 89.6587 107.153C89.8112 108.898 90.2686 110.416 90.8403 111.934C90.9928 112.162 91.2977 112.351 91.4502 112.579C91.9457 113.262 92.2506 114.135 93.051 114.59L93.5084 114.818C93.5465 114.856 93.5465 114.931 93.5084 114.969L93.4322 115.045C92.4793 115.197 91.7551 114.628 91.2596 113.945C90.9547 113.338 90.5354 112.693 89.8493 112.427C89.8112 112.427 89.7731 112.465 89.7731 112.465C89.8493 112.693 90.078 112.845 90.1542 113.034C90.421 113.452 90.6497 113.907 90.7641 114.362C90.9165 114.856 91.4501 115.197 91.8694 115.463L92.4793 115.766C92.5555 115.804 92.5936 115.918 92.5174 115.994L92.4412 116.032C91.412 116.07 90.4973 115.728 89.7731 114.969C89.6206 114.78 89.3919 114.628 89.1251 114.628C88.6677 115.045 88.2103 115.425 87.6005 115.463C86.9525 115.349 86.2664 115.349 85.6947 115.576C85.1611 115.766 84.6275 115.994 84.0557 115.994C83.7889 115.994 83.484 115.88 83.3696 115.614C83.3696 115.273 83.1409 114.894 83.3315 114.552L83.7127 113.983C83.7127 113.907 83.6746 113.831 83.5983 113.831C83.4459 113.793 83.1791 114.059 83.1028 113.793C83.1409 113.224 83.7127 112.845 84.0938 112.465C84.1701 112.01 84.3606 111.592 84.7037 111.213C84.7037 111.175 84.6656 111.099 84.5893 111.099C84.0938 111.175 83.5983 111.289 83.0647 111.289C82.6454 111.517 82.1118 111.668 81.6163 111.517C81.502 111.441 81.5401 111.327 81.5782 111.251C82.1118 110.53 82.3024 109.619 82.1499 108.747C82.1118 108.709 82.1118 108.633 82.0356 108.633C81.9594 108.633 81.9594 108.709 81.9212 108.747C81.8069 109.581 81.5401 110.226 81.0827 110.947C80.7397 111.289 80.206 111.289 79.7487 111.403C79.6343 111.441 79.52 111.554 79.52 111.668C79.52 111.972 79.7105 112.162 79.8249 112.427L80.8159 114.248C80.854 114.742 80.6253 115.235 80.511 115.69C80.5491 115.766 80.6253 115.728 80.7015 115.69C81.0446 115.387 81.2733 114.969 81.4257 114.514C81.4639 114.324 81.3876 114.097 81.3114 113.945L80.2823 111.896C80.3585 111.782 80.511 111.782 80.6253 111.744C80.854 111.744 81.0827 111.858 81.3114 111.934C81.5401 112.541 81.8069 113.186 82.2262 113.717C82.3024 114.059 82.4167 114.514 82.1881 114.78C81.9594 115.235 81.7307 115.614 81.4257 116.032C81.1589 116.297 80.7778 116.259 80.3966 116.297H80.2823C79.3675 116.791 78.4146 117.094 77.4236 117.398C77.0043 117.587 76.5088 117.436 76.1658 117.17C75.8227 116.905 75.6703 116.525 75.4416 116.184C75.1748 115.842 74.7555 116.146 74.4506 115.956C74.1838 115.539 73.917 115.121 73.6883 114.666C73.6883 114.552 73.6883 114.438 73.8026 114.362C74.1457 114.248 74.5268 114.248 74.908 114.211C75.251 114.173 75.6322 114.248 75.8609 114.476C76.3182 115.007 76.5088 115.728 77.1949 116.07C77.7285 116.108 78.1859 115.956 78.6433 115.728C78.9101 115.576 79.215 115.349 79.215 115.007C79.1769 114.324 78.7195 113.793 78.1478 113.414C77.5761 113.11 76.9662 112.693 76.5469 112.162C76.3182 111.858 76.2801 111.517 76.1658 111.213C76.1277 111.137 75.9752 111.137 75.9371 111.175C75.7084 111.365 75.899 111.706 75.899 111.934C75.9371 112.086 76.0133 112.275 75.9371 112.389C75.5941 112.655 75.1367 112.503 74.7174 112.541C73.8788 112.503 73.0784 112.162 72.2018 112.237C71.3632 112.275 70.2197 112.845 69.6099 112.01C69.305 111.213 69.3812 110.264 69.5337 109.468C69.5337 109.392 69.4574 109.316 69.3812 109.316C69.305 109.278 69.2287 109.316 69.1906 109.392C68.9619 110.189 68.9238 111.061 68.7332 111.896C68.4283 112.617 67.8947 113.376 67.1705 113.755C66.5225 114.097 65.7602 114.211 64.9598 114.286C63.5114 114.324 62.1774 114.59 61.2626 115.842C61.1863 115.956 61.072 116.07 61.1101 116.222C61.1482 116.259 61.2626 116.297 61.3007 116.259C62.2917 115.159 63.5495 114.704 64.9979 114.78C66.3701 114.78 67.7422 114.552 68.6189 113.376C68.8476 113.11 69.0001 112.845 69.1906 112.541C69.3431 112.541 69.4574 112.731 69.5718 112.807C69.6099 113.224 69.2669 113.49 69.1144 113.831C68.9238 114.211 68.7332 114.666 68.3521 114.894C67.8947 115.007 67.5135 115.311 67.0943 115.539C66.675 115.728 66.1414 115.804 65.6459 115.69C65.036 115.576 64.1975 115.425 63.5876 115.69C63.2827 115.88 63.0159 116.222 62.711 116.411C62.2917 116.601 61.9105 116.942 61.415 116.905C61.072 116.829 60.6527 116.601 60.3478 116.905C59.9666 117.246 59.8904 117.853 59.3949 118.081C58.8232 118.384 58.2133 118.081 57.6416 118.043C57.7178 117.474 57.7941 116.942 58.1752 116.525C58.4039 116.487 58.5945 116.449 58.7851 116.297C59.0138 116.108 59.1662 115.842 59.3187 115.576C59.8142 115.273 60.3859 115.045 60.6908 114.514C60.9195 114.021 60.9195 113.565 61.3007 113.11L61.4913 113.034L62.5204 112.958C62.9397 112.769 63.3208 112.579 63.702 112.275C63.8163 112.162 63.8544 111.972 63.8163 111.782C63.6257 111.289 63.4733 110.947 63.3589 110.416C63.2446 109.885 63.3208 109.354 63.2446 108.747C63.2065 108.709 63.1684 108.595 63.0921 108.595C62.406 108.747 61.7581 108.936 60.9958 108.823C59.9666 108.709 58.8994 108.026 58.5183 107.001C58.1752 106.129 58.2514 104.876 58.8994 104.156C59.5093 103.397 60.2716 102.828 61.0339 102.182C61.1482 102.107 61.1482 101.955 61.1863 101.841C61.1863 101.689 61.0339 101.575 60.9195 101.499C60.4621 101.386 59.9285 101.537 59.4711 101.348C58.6707 101.082 58.0609 100.323 57.9465 99.4885C57.9084 99.109 57.9846 98.8055 58.1752 98.502C58.7851 99.0332 59.2425 99.4885 59.8142 99.6403M57.5272 116.601V116.715C57.3367 117.17 57.2223 117.701 57.0699 118.233C56.7268 118.195 56.4219 118.081 56.1551 117.967C56.0789 117.891 56.1551 117.815 56.1551 117.739C56.4981 117.436 56.3838 117.056 56.46 116.639C56.4981 116.411 56.7268 116.222 56.9555 116.108C57.2223 116.146 57.3748 116.411 57.5272 116.601M59.2043 115.007C59.0138 115.387 58.7469 115.842 58.3277 116.07C58.1752 116.108 57.9846 116.108 57.8322 116.032C57.7559 115.956 57.6035 115.88 57.6035 115.728C57.6416 115.576 57.5654 115.387 57.7178 115.311C58.0228 115.121 58.3277 114.931 58.6326 114.666C58.7088 114.628 58.8613 114.59 58.8994 114.666C59.0519 114.78 59.1662 114.856 59.2043 115.007M78.3003 114.856C78.3384 115.007 78.5671 115.197 78.4146 115.349C78.1097 115.576 77.7666 115.728 77.3474 115.69C77.0424 115.463 77.0806 115.045 76.8138 114.742C76.7375 114.514 76.3945 114.514 76.4707 114.286L76.5851 114.211C77.0043 114.211 77.4236 114.211 77.8429 114.135C78.2621 114.097 78.1478 114.59 78.3003 114.856M102.389 108.671C102.618 108.974 102.809 109.278 102.961 109.657C102.999 109.733 102.961 109.809 102.923 109.885C102.885 109.961 102.809 110.037 102.694 109.961C102.427 109.885 102.466 109.468 102.123 109.506C101.894 109.506 101.741 109.695 101.551 109.809C101.208 110.113 100.75 110.416 100.674 110.872C100.598 111.023 100.636 111.289 100.484 111.365C100.407 111.403 100.293 111.327 100.293 111.251C100.255 110.644 100.445 110.075 100.865 109.657C101.284 109.316 101.589 108.823 101.932 108.405C102.161 108.367 102.313 108.519 102.389 108.671ZM102.542 113.717C102.618 113.869 102.77 114.059 102.656 114.248C102.504 114.362 102.237 114.286 102.046 114.286C101.818 114.173 101.741 113.869 101.741 113.603C101.741 113.528 101.741 113.49 101.818 113.414C102.084 113.414 102.351 113.49 102.542 113.717ZM108.259 102.107C108.373 102.258 108.259 102.41 108.183 102.524C107.649 103.017 107.001 103.548 106.62 104.156C106.468 104.345 106.353 104.573 106.277 104.801C106.277 104.839 106.239 104.839 106.201 104.839C106.087 104.535 106.239 104.193 106.315 103.89C106.582 103.169 107.192 102.486 107.84 101.993C107.916 101.955 108.183 101.917 108.259 102.107M110.432 99.6782C110.851 99.9438 111.003 100.513 111.499 100.627C112.338 100.817 113.176 101.006 113.938 101.386C114.472 101.651 114.967 102.031 115.463 102.448C115.92 102.676 116.492 102.676 116.988 102.828C117.712 103.017 118.284 103.548 118.932 103.966C119.77 104.611 120.952 104.535 121.905 104.952C123.429 105.446 124.649 106.622 126.059 107.305C126.783 107.684 127.889 107.836 128.613 107.419C129.108 107.077 129.413 106.622 129.299 105.977C129.032 104.421 127.317 103.624 126.517 102.334C126.364 102.031 126.25 101.613 126.326 101.272C126.631 100.513 127.431 100.096 128.117 99.83C128.651 99.5644 129.337 99.6403 129.833 99.3367C130.023 99.2229 130.176 99.0711 130.29 98.9573C130.404 98.9573 130.404 99.0711 130.442 99.147C130.595 100.058 130.442 101.006 129.642 101.537C129.337 101.765 128.956 101.841 128.613 101.917C128.308 102.031 127.698 101.803 127.736 102.334C127.812 102.6 128.041 102.752 128.232 102.941C129.299 103.814 130.29 104.952 130.404 106.318C130.442 107.381 129.718 108.291 128.803 108.747C128.117 109.012 127.279 109.126 126.555 108.936C126.364 108.898 126.059 108.709 125.907 108.974C125.869 109.278 126.059 109.506 126.059 109.771C126.135 110.264 126.135 110.909 125.983 111.403C125.907 111.782 125.526 112.237 125.869 112.617C126.212 113.148 126.898 112.996 127.469 113.072C127.774 113.11 127.889 113.452 127.965 113.679C128.079 113.983 128.079 114.324 128.194 114.552C128.194 115.121 128.842 115.349 129.147 115.728C129.528 116.146 129.871 116.867 130.519 116.829C130.747 117.284 130.862 117.701 130.938 118.233L130.862 118.308C130.328 118.308 129.604 118.46 129.223 118.081C128.765 117.777 128.613 116.942 127.927 117.17C127.622 117.398 127.203 117.474 126.86 117.322C126.517 117.208 126.288 116.905 125.983 116.715C125.068 116.032 123.848 115.69 122.667 115.956C121.981 116.146 121.447 115.652 120.914 115.349C120.189 115.045 119.999 114.286 119.846 113.641L119.732 112.845C119.732 112.769 119.808 112.693 119.884 112.655H119.999C120.418 113.603 121.218 114.666 122.248 115.007C123.2 115.387 124.077 114.894 125.106 115.083C126.059 115.197 126.821 115.804 127.546 116.373C127.622 116.373 127.66 116.335 127.698 116.259V116.184C126.821 115.083 125.602 114.514 124.191 114.628C123.01 114.856 121.866 114.476 121.18 113.49C120.799 112.92 120.532 112.313 120.418 111.668C120.304 110.909 120.151 110.075 119.884 109.392C119.808 109.354 119.732 109.278 119.656 109.316L119.579 109.43C119.694 110.151 119.923 111.023 119.656 111.782C119.465 112.389 118.855 112.617 118.284 112.655C117.712 112.693 117.178 112.579 116.568 112.579C115.196 112.541 113.976 113.072 112.566 112.958C112.681 112.617 112.909 112.275 112.795 111.896C112.757 111.82 112.642 111.82 112.566 111.82C112.299 111.972 112.338 112.313 112.185 112.541C111.88 113.034 111.308 113.49 110.737 113.603C110.317 113.907 109.936 114.324 109.593 114.704C109.479 114.818 109.479 115.045 109.517 115.197C109.784 115.88 110.584 115.956 111.194 116.146C111.499 116.184 111.766 116.07 111.918 115.804C112.185 115.387 112.223 114.704 112.833 114.628H114.167C114.281 114.666 114.358 114.742 114.434 114.856L114.396 115.045C114.091 115.387 113.976 115.88 113.595 116.108C113.367 116.184 113.1 116.108 112.947 116.297C112.871 116.753 112.757 117.246 112.299 117.474C111.956 117.777 111.461 117.625 111.08 117.512C110.355 117.246 109.631 117.094 108.907 116.867C108.602 116.791 108.488 116.411 108.145 116.335C107.84 116.259 107.497 116.487 107.23 116.222C107.078 115.88 107.001 115.652 106.925 115.273C106.811 115.045 106.735 114.78 106.696 114.514C106.658 114.286 106.696 114.135 106.773 113.945L107.764 112.162C107.84 112.048 107.916 111.934 108.03 111.896C108.259 111.934 108.526 112.048 108.755 112.162L108.717 112.275L107.687 113.831C107.459 114.324 107.687 114.894 107.916 115.311C107.954 115.349 107.992 115.425 108.03 115.387C107.992 115.083 107.954 114.78 108.03 114.438C108.107 114.135 108.297 113.869 108.45 113.603L109.25 112.427C109.326 112.237 109.326 111.934 109.174 111.744C108.831 111.403 108.335 111.289 108.03 110.834C107.382 109.961 107.306 108.936 107.23 107.836C107.23 107.76 107.154 107.646 107.039 107.608C106.963 107.57 106.887 107.684 106.849 107.722C106.658 108.443 106.773 109.316 106.963 109.961C107.078 110.454 107.306 110.947 107.535 111.403C107.573 111.479 107.497 111.592 107.421 111.63C106.887 111.668 106.353 111.63 105.858 111.554C105.172 111.441 104.676 110.909 104.105 110.492C104.028 110.454 103.99 110.53 103.952 110.568C104.105 111.327 104.943 111.782 105.21 112.465C105.362 113.034 105.934 113.452 106.048 114.059C106.048 114.135 105.972 114.248 105.896 114.286C105.705 114.324 105.515 114.211 105.324 114.324C105.286 114.666 105.515 115.007 105.362 115.311C105.172 115.614 104.905 115.956 104.562 115.956C103.876 115.728 103.19 115.425 102.504 115.235C102.008 115.197 101.513 115.273 101.055 115.311C100.598 115.235 100.293 114.818 99.9499 114.59C99.8356 114.552 99.7212 114.552 99.645 114.628C98.8827 115.387 98.0442 116.222 96.9007 116.184C96.8245 116.184 96.7863 116.108 96.7863 116.032V115.956C97.2818 115.501 97.8917 115.045 98.1204 114.4C98.2728 113.869 98.7302 113.49 98.9208 112.996C98.9589 112.92 98.8827 112.883 98.8065 112.845L98.6921 112.92C98.1204 113.49 97.7011 114.135 97.2818 114.742C96.8626 115.159 96.2527 115.425 95.6048 115.273C95.5285 115.235 95.5285 115.121 95.5666 115.045C97.9298 113.603 98.1966 111.023 98.8446 108.671C99.302 107.115 99.645 105.521 100.865 104.269C102.694 102.258 104.981 101.082 107.001 99.3367C107.306 99.0711 107.611 98.8055 107.992 98.8055C108.983 98.7296 109.746 99.109 110.432 99.6782M132.196 116.449C132.386 116.715 132.31 117.132 132.386 117.436C132.424 117.663 132.729 117.853 132.577 118.081L131.738 118.346C131.586 118.346 131.662 118.157 131.586 118.081C131.51 117.587 131.395 117.246 131.243 116.791C131.205 116.525 131.472 116.335 131.662 116.184C131.853 116.108 132.005 116.335 132.196 116.449M130.252 114.742C130.557 115.007 130.976 115.197 131.205 115.539C131.243 115.69 131.129 115.842 131.052 115.956C130.938 116.07 130.785 116.146 130.595 116.146C130.404 116.146 130.252 116.032 130.138 115.88C129.947 115.576 129.68 115.311 129.604 115.007C129.718 114.818 129.985 114.514 130.252 114.742M111.88 114.438C111.842 114.818 111.728 115.159 111.575 115.501C111.461 115.728 111.118 115.652 110.889 115.614C110.66 115.539 110.279 115.501 110.241 115.159C110.203 114.856 110.355 114.552 110.508 114.324C110.851 114.286 111.27 114.362 111.613 114.286C111.766 114.286 111.88 114.324 111.88 114.438" fill="#E21B4D"/>
<path d="M33.4001 138.078H38.6982V136.977H34.6198V133.259H38.5457V132.158H34.6198V129.427H38.6982V128.326H33.4001V138.078ZM43.8819 138.078H45.1016V130.793L52.496 138.495V128.326H51.2763V135.535L43.8819 127.833V138.078ZM57.756 138.078H63.0159V136.977H58.9757V133.259H62.9016V132.158H58.9757V129.427H63.0159V128.326H57.756V138.078ZM71.0202 133.828C72.4305 133.676 73.3834 132.5 73.3834 131.096C73.3834 130.147 72.926 129.237 72.0874 128.744C71.3251 128.288 70.3722 128.288 69.4956 128.288H68.0091V138.078H69.2288V133.942H69.7243L72.6211 138.078H74.1076L71.0202 133.828ZM69.2288 129.389H69.5718C70.7915 129.389 72.2399 129.616 72.2399 131.134C72.2399 132.69 70.8677 132.917 69.648 132.917H69.2669V129.389H69.2288ZM82.9123 133.145V134.245H85.466C85.4279 135.839 83.7889 137.129 82.2643 137.129C80.1298 137.129 78.4528 135.194 78.4528 133.145C78.4528 130.944 80.168 129.161 82.3787 129.161C83.5984 129.161 84.78 129.806 85.466 130.755L86.3427 129.92C85.3898 128.706 83.8652 128.023 82.3405 128.023C79.52 128.023 77.2331 130.337 77.2331 133.145C77.2331 135.839 79.4438 138.229 82.1881 138.229C84.9324 138.229 86.8382 136.18 86.8382 133.486V133.107H82.9123V133.145ZM93.5465 133.828V138.078H94.7662V133.828L97.968 128.326H96.5577L94.1564 132.5L91.717 128.326H90.3067L93.5465 133.828ZM106.392 138.078H108.374C111.461 138.078 113.938 136.484 113.938 133.145C113.938 129.882 111.423 128.288 108.412 128.288H106.392V138.078ZM107.611 129.427H108.03C110.546 129.427 112.681 130.337 112.681 133.221C112.681 136.067 110.508 136.977 108.03 136.977H107.611V129.427ZM121.6 133.828C123.01 133.676 123.963 132.5 123.963 131.096C123.963 130.147 123.505 129.237 122.667 128.744C121.905 128.288 120.952 128.288 120.075 128.288H118.589V138.078H119.808V133.942H120.304L123.2 138.078H124.687L121.6 133.828ZM119.808 129.389H120.151C121.371 129.389 122.819 129.616 122.819 131.134C122.819 132.69 121.447 132.917 120.227 132.917H119.846V129.389H119.808ZM128.537 128.326H129.756V138.116H128.537V128.326ZM134.673 138.078H135.893V130.793L143.249 138.495V128.326H142.03V135.535L134.673 127.833V138.078ZM149.424 132.538V128.326H148.204V138.078H149.424V134.018L149.92 133.524L153.617 138.078H155.256L150.758 132.69L155.18 128.326H153.579L149.424 132.538ZM167.834 55.1713C168.52 55.1713 169.092 55.3989 169.549 55.8922C170.006 56.3475 170.273 56.9546 170.273 57.5997C170.273 58.2826 170.045 58.8518 169.549 59.3071C169.092 59.8004 168.482 60.028 167.834 60.028C167.148 60.028 166.576 59.8004 166.081 59.3071C165.623 58.8518 165.356 58.2447 165.356 57.5997C165.356 56.9167 165.585 56.3475 166.081 55.8922C166.576 55.4369 167.148 55.1713 167.834 55.1713M170.693 57.5997C170.693 56.8408 170.426 56.1578 169.854 55.5887C169.282 55.0575 168.634 54.7539 167.834 54.7539C167.033 54.7539 166.385 55.0195 165.814 55.5887C165.242 56.1578 164.975 56.8029 164.975 57.5997C164.975 58.3965 165.242 59.0415 165.814 59.6107C166.385 60.1798 167.033 60.4454 167.834 60.4454C168.634 60.4454 169.282 60.1798 169.854 59.6107C170.388 59.0795 170.693 58.3965 170.693 57.5997M168.596 56.9926C168.596 57.2202 168.482 57.4099 168.253 57.4858C168.139 57.5238 167.948 57.5617 167.72 57.5617H167.224V56.4234H167.681C167.986 56.4234 168.215 56.4614 168.368 56.5372C168.52 56.6511 168.596 56.7649 168.596 56.9926M166.69 56.044V59.1553H167.224V57.9412H167.643C167.948 57.9412 168.139 57.9791 168.253 58.055C168.444 58.1688 168.558 58.3965 168.558 58.7759V59.1553H169.092L169.054 59.1174C169.054 59.0795 169.015 59.0415 169.015 58.9656V58.5103C169.015 58.3585 168.939 58.2068 168.863 58.017C168.749 57.8653 168.558 57.7514 168.329 57.7135C168.52 57.6755 168.672 57.6376 168.787 57.5617C168.977 57.4479 169.092 57.2202 169.092 56.9546C169.092 56.5752 168.939 56.3096 168.596 56.1578C168.406 56.0819 168.139 56.044 167.72 56.044H166.69Z" fill="#E21B4D"/>
</g>
<defs>
<clipPath id="clip0_1262_863">
<rect width="144.937" height="83.7411" fill="white" transform="translate(25.7665 54.7539)"/>
</clipPath>
</defs>
</svg>
