<svg width="2505" height="3757" viewBox="0 0 2505 3757" fill="none" xmlns="http://www.w3.org/2000/svg">
<path d="M1023.93 2524.73L1299.82 2685.59L470.305 3185.92L1023.93 2524.73Z" fill="url(#paint0_linear_32_3)"/>
<path d="M1253.71 0L0 3756.28L1253.79 3001.1L2505 3752.93L1253.71 0Z" fill="url(#paint1_radial_32_3)"/>
<path d="M1252.47 252.156L144.582 3575.25L1255.11 2909.85L2360.77 3575.09L1252.47 252.156ZM1327.77 857.712L2148.23 3313.25L1318.71 2812.93L1594.59 2652.07L1327.77 857.712ZM1181.05 862.514L914.235 2656.88L1190.12 2817.73L360.61 3318.07L1181.05 862.514Z" fill="black"/>
<path d="M1594.59 2652.07L1318.7 2812.93L2148.21 3313.26L1594.59 2652.07Z" fill="url(#paint2_linear_32_3)"/>
<path d="M1198.9 2362.3L1252.45 2185.55L1306.69 2362.3L1477.22 2415.6L1306.08 2469.84L1253.71 2646.6L1199.47 2469.84L1022.72 2417.47L1198.9 2362.3Z" fill="#EDF1FA"/>
<path d="M914.232 2656.88L1190.12 2817.73L360.607 3318.06L914.232 2656.88Z" fill="url(#paint3_linear_32_3)"/>
<path d="M1181.05 862.514L914.232 2656.88L360.607 3318.07L1181.05 862.514Z" fill="url(#paint4_linear_32_3)"/>
<path d="M1594.59 2652.07L1318.7 2812.93L2148.21 3313.26L1594.59 2652.07Z" fill="url(#paint5_linear_32_3)"/>
<path d="M1327.77 857.713L1594.59 2652.07L2148.21 3313.26L1327.77 857.713Z" fill="url(#paint6_linear_32_3)"/>
<path d="M1199.47 2469.84C1235.01 2469.84 1270.55 2469.84 1306.08 2469.84C1288.63 2528.76 1271.17 2587.68 1253.71 2646.6C1235.63 2587.68 1217.55 2528.76 1199.47 2469.84Z" fill="url(#paint7_linear_32_3)"/>
<path d="M1306.08 2469.84L1306.69 2362.3L1477.22 2415.6L1306.08 2469.84Z" fill="url(#paint8_linear_32_3)"/>
<path d="M1306.69 2362.3C1271.15 2362.3 1235.62 2362.3 1200.08 2362.3C1217.54 2303.39 1234.99 2244.47 1252.45 2185.55C1270.53 2244.47 1288.61 2303.39 1306.69 2362.3Z" fill="url(#paint9_linear_32_3)"/>
<path d="M1199.47 2363.23C1199.47 2398.77 1199.47 2434.31 1199.47 2469.84C1140.56 2452.39 1081.64 2434.93 1022.72 2417.47C1081.64 2399.39 1140.56 2381.31 1199.47 2363.23Z" fill="url(#paint10_linear_32_3)"/>
<defs>
<linearGradient id="paint0_linear_32_3" x1="864.987" y1="2772.7" x2="1013.33" y2="2899.03" gradientUnits="userSpaceOnUse">
<stop stop-color="#535F6A"/>
<stop offset="1" stop-color="#535F6A" stop-opacity="0"/>
</linearGradient>
<radialGradient id="paint1_radial_32_3" cx="0" cy="0" r="1" gradientUnits="userSpaceOnUse" gradientTransform="translate(1257.7 2014.18) rotate(90.88) scale(2032.69 3372.92)">
<stop stop-color="#FEFEFE"/>
<stop offset="1" stop-color="#98A1AF"/>
</radialGradient>
<linearGradient id="paint2_linear_32_3" x1="1753.53" y1="2900.04" x2="1605.19" y2="3026.36" gradientUnits="userSpaceOnUse">
<stop stop-color="#535F6A"/>
<stop offset="1" stop-color="#535F6A" stop-opacity="0"/>
</linearGradient>
<linearGradient id="paint3_linear_32_3" x1="748.894" y1="2899.85" x2="927.76" y2="3047.61" gradientUnits="userSpaceOnUse">
<stop stop-color="#54606B"/>
<stop offset="1" stop-color="#EDF1FA"/>
</linearGradient>
<linearGradient id="paint4_linear_32_3" x1="1181.05" y1="862.514" x2="646.739" y2="2811.48" gradientUnits="userSpaceOnUse">
<stop stop-color="#98A1AF"/>
<stop offset="1" stop-color="#EDF1FA"/>
</linearGradient>
<linearGradient id="paint5_linear_32_3" x1="1759.93" y1="2895.04" x2="1581.06" y2="3042.8" gradientUnits="userSpaceOnUse">
<stop stop-color="#54606B"/>
<stop offset="1" stop-color="#EDF1FA"/>
</linearGradient>
<linearGradient id="paint6_linear_32_3" x1="1327.77" y1="857.713" x2="1862.08" y2="2806.68" gradientUnits="userSpaceOnUse">
<stop stop-color="#98A1AF"/>
<stop offset="1" stop-color="#EDF1FA"/>
</linearGradient>
<linearGradient id="paint7_linear_32_3" x1="1253.71" y1="2552.65" x2="1253.71" y2="2646.6" gradientUnits="userSpaceOnUse">
<stop stop-color="#EDF1FA"/>
<stop offset="1" stop-color="#9AA2B1"/>
</linearGradient>
<linearGradient id="paint8_linear_32_3" x1="1383.28" y1="2415.6" x2="1477.22" y2="2415.6" gradientUnits="userSpaceOnUse">
<stop stop-color="#EDF1FA"/>
<stop offset="1" stop-color="#9AA2B1"/>
</linearGradient>
<linearGradient id="paint9_linear_32_3" x1="1252.45" y1="2279.49" x2="1252.45" y2="2185.55" gradientUnits="userSpaceOnUse">
<stop stop-color="#EDF1FA"/>
<stop offset="1" stop-color="#9AA2B1"/>
</linearGradient>
<linearGradient id="paint10_linear_32_3" x1="1116.66" y1="2417.47" x2="1022.72" y2="2417.47" gradientUnits="userSpaceOnUse">
<stop stop-color="#EDF1FA"/>
<stop offset="1" stop-color="#9AA2B1"/>
</linearGradient>
</defs>
</svg>
