<svg width="528" height="314" viewBox="0 0 528 314" fill="none" xmlns="http://www.w3.org/2000/svg">
<path d="M0 0H527.277V304.345H0V0Z" fill="#74ACDF"/>
<mask id="mask0_103_827" style="mask-type:alpha" maskUnits="userSpaceOnUse" x="0" y="0" width="528" height="305">
<path d="M0 0H527.277V304.345H0V0Z" fill="#74ACDF"/>
</mask>
<g mask="url(#mask0_103_827)">
<path d="M-66.5754 1.14138L-14.076 -50.2168L609.45 329.834L441.3 529.56L-66.5754 1.14138Z" fill="white" fill-opacity="0.1"/>
<path d="M190.025 -14.266L214.183 -27.2007L828.198 135.053L734.993 250.133L190.025 -14.266Z" fill="white" fill-opacity="0.1"/>
</g>
<rect x="19" y="22" width="490" height="265" fill="white" fill-opacity="0.67"/>
<rect width="460" height="236" transform="translate(34 37)" fill="url(#paint0_linear_103_827)"/>
<path d="M340 91C340 86.0294 344.029 82 349 82H414C418.971 82 423 86.0294 423 91V91C423 95.9706 418.971 100 414 100H349C344.029 100 340 95.9706 340 91V91Z" fill="white"/>
<path d="M351 79C351 73.4772 355.477 69 361 69H381C386.523 69 391 73.4772 391 79V81C391 86.5228 386.523 91 381 91H361C355.477 91 351 86.5228 351 81V79Z" fill="white"/>
<rect x="66.3" y="115" width="66.4" height="17.6" rx="8" fill="white"/>
<path d="M89.5 113.4C89.5 108.982 93.0817 105.4 97.5 105.4H113.5C117.918 105.4 121.5 108.982 121.5 113.4V115C121.5 119.418 117.918 123 113.5 123H97.5C93.0817 123 89.5 119.418 89.5 115V113.4Z" fill="white"/>
<rect x="50" y="125" width="13" height="6" rx="3" fill="white"/>
<rect x="387" y="76" width="13" height="11" rx="5.5" fill="white"/>
<rect x="34" y="229" width="459" height="44" fill="url(#paint1_linear_103_827)"/>
<path d="M147 206.24V230H106V206.24L112.239 194H141.207L147 206.24Z" fill="#DFB114"/>
<g filter="url(#filter0_f_103_827)">
<path d="M154.173 194.446H168.978V206.431H154.173V194.446Z" fill="#FDC813"/>
<rect x="154.173" y="208.546" width="15.1599" height="11.6614" fill="#FDC813"/>
<rect x="189.776" y="207.841" width="15.1579" height="11.6328" fill="#FDC813"/>
<rect x="189.544" y="194.408" width="15.1599" height="11.6614" fill="#FDC813"/>
<path d="M169.136 193.824H189.544V206.069C181.285 197.36 176.785 196.415 169.136 206.069V193.824Z" fill="#FDC813"/>
<path d="M189.544 201.696C181.688 194.996 176.992 194.171 169.136 201.696V205.726C176.706 196.892 181.297 197.223 189.424 205.726" stroke="#FDC813" stroke-width="0.422838"/>
<path d="M173.384 198.323L174.675 200.53" stroke="#FDC813" stroke-width="0.422838"/>
<path d="M179.34 196.448V199.072" stroke="#FDC813" stroke-width="0.422838"/>
<path d="M185.462 198.489L183.96 200.967" stroke="#FDC813" stroke-width="0.422838"/>
<path d="M156.6 175.749L154.268 174V177.207H204.995V174L202.663 175.749L199.747 174L197.415 175.749L194.5 174L191.876 175.749L189.252 174L186.92 175.749L184.296 174L181.964 175.749L179.34 174L177.008 175.749L174.092 174L171.76 175.749L169.136 174L166.804 175.749L163.888 174L162.139 175.749L158.932 174L156.6 175.749Z" fill="#FDC813" stroke="#FDC813" stroke-width="0.422838"/>
<path d="M154.268 181.871V177.207H205.287V181.871H154.268Z" fill="#FDC813" stroke="#FDC813" stroke-width="0.422838"/>
<path d="M151 183.87V181.403H207.754V183.87H151Z" fill="#FDC813" stroke="#FDC813" stroke-width="0.422838"/>
<path d="M154.268 186.827L151.353 184.204H207.327L204.995 186.827H154.268Z" fill="#FDC813" stroke="#FDC813" stroke-width="0.422838"/>
<path d="M154.268 189.743V187.119H204.995V189.743V192.075V194.408H189.544H169.136H154.268V192.075V189.743Z" fill="#FDC813"/>
<path d="M154.268 189.743V187.119H204.995V189.743M154.268 189.743H204.995M154.268 189.743V194.408H169.136M204.995 189.743V192.075M154.268 192.075H169.136M204.995 192.075V194.408H189.544M204.995 192.075H189.544M189.544 192.075V194.408M189.544 192.075H169.136M189.544 194.408H169.136M169.136 194.408V192.075" stroke="#FDC813" stroke-width="0.422838"/>
<path d="M154.173 194.446V206.431M169.033 206.431V194.446M189.43 194.446V206.431H204.581V194.707" stroke="#FDC813" stroke-width="0.422838"/>
<path d="M154.268 208.693L152.81 206.36H170.302L169.428 208.693H154.268Z" fill="#FDC813" stroke="#FDC813" stroke-width="0.422838"/>
<path d="M204.995 208.401L206.453 206.069H188.961L189.835 208.401H204.995Z" fill="#FDC813" stroke="#FDC813" stroke-width="0.422838"/>
<path d="M154.268 219.771V208.693H169.428V219.771H170.594L169.428 221.812V226.768C171.121 226.747 171.478 227.427 171.468 229.392H151.644C151.654 227.246 152.205 226.654 154.268 226.768V221.812L152.81 219.771H154.268Z" fill="#FDC813"/>
<path d="M154.268 219.771V208.693H169.428V219.771M154.268 221.812L152.81 219.771H170.594L169.428 221.812M154.268 221.812H169.428M154.268 221.812V226.768M169.428 221.812V226.768M154.268 226.768H169.428M154.268 226.768C152.205 226.654 151.654 227.246 151.644 229.392H171.468C171.478 227.427 171.121 226.747 169.428 226.768" stroke="#FDC813" stroke-width="0.422838"/>
<path d="M189.835 221.52L188.378 219.48H204.995H206.161L204.995 221.52V226.477C206.689 226.456 207.045 227.135 207.036 229.1H187.211C187.221 226.954 187.772 226.362 189.835 226.477V221.52Z" fill="#FDC813"/>
<path d="M189.835 219.188V208.401H204.995V219.48M189.835 221.52L188.378 219.48H206.161L204.995 221.52M189.835 221.52H204.995M189.835 221.52V226.477M204.995 221.52V226.477M189.835 226.477H204.995M189.835 226.477C187.772 226.362 187.221 226.954 187.211 229.1H207.036C207.045 227.135 206.689 226.456 204.995 226.477" stroke="#FDC813" stroke-width="0.422838"/>
<rect x="156.753" y="198.117" width="10.0724" height="5.40787" rx="0.211419" fill="#FDC813" stroke="#FDC813" stroke-width="0.422838"/>
<rect x="192.087" y="197.534" width="10.0724" height="5.40787" rx="0.211419" fill="#FDC813" stroke="#FDC813" stroke-width="0.422838"/>
<circle cx="156.892" cy="179.539" r="1.16614" fill="#FDC813"/>
<circle cx="160.39" cy="179.539" r="1.16614" fill="#FDC813"/>
<circle cx="163.889" cy="179.539" r="1.16614" fill="#FDC813"/>
<circle cx="167.387" cy="179.539" r="1.16614" fill="#FDC813"/>
<circle cx="170.885" cy="179.539" r="1.16614" fill="#FDC813"/>
<circle cx="174.384" cy="179.539" r="1.16614" fill="#FDC813"/>
<circle cx="177.882" cy="179.539" r="1.16614" fill="#FDC813"/>
<circle cx="181.381" cy="179.539" r="1.16614" fill="#FDC813"/>
<circle cx="184.879" cy="179.539" r="1.16614" fill="#FDC813"/>
<circle cx="188.378" cy="179.539" r="1.16614" fill="#FDC813"/>
<circle cx="191.876" cy="179.539" r="1.16614" fill="#FDC813"/>
<circle cx="195.374" cy="179.539" r="1.16614" fill="#FDC813"/>
<circle cx="198.873" cy="179.539" r="1.16614" fill="#FDC813"/>
<circle cx="202.371" cy="179.539" r="1.16614" fill="#FDC813"/>
<mask id="path-52-inside-1_103_827" fill="white">
<path fill-rule="evenodd" clip-rule="evenodd" d="M166.674 214.962C166.674 214.953 166.674 214.945 166.674 214.937C166.674 214.928 166.674 214.92 166.674 214.911V214.742H166.67C166.559 212.471 164.515 210.661 162.01 210.661C159.505 210.661 157.461 212.471 157.35 214.742H157.345V219.99H166.674V214.962Z"/>
</mask>
<path fill-rule="evenodd" clip-rule="evenodd" d="M166.674 214.962C166.674 214.953 166.674 214.945 166.674 214.937C166.674 214.928 166.674 214.92 166.674 214.911V214.742H166.67C166.559 212.471 164.515 210.661 162.01 210.661C159.505 210.661 157.461 212.471 157.35 214.742H157.345V219.99H166.674V214.962Z" fill="#FDC813"/>
<path d="M166.674 214.962L166.252 214.959V214.962H166.674ZM166.674 214.911H166.252L166.252 214.914L166.674 214.911ZM166.674 214.742H167.097V214.32H166.674V214.742ZM166.67 214.742L166.247 214.763L166.267 215.165H166.67V214.742ZM157.35 214.742V215.165H157.753L157.772 214.763L157.35 214.742ZM157.345 214.742V214.32H156.922V214.742H157.345ZM157.345 219.99H156.922V220.413H157.345V219.99ZM166.674 219.99V220.413H167.097V219.99H166.674ZM166.252 214.937C166.252 214.944 166.252 214.951 166.252 214.959L167.097 214.964C167.097 214.955 167.097 214.946 167.097 214.937H166.252ZM166.252 214.914C166.252 214.922 166.252 214.929 166.252 214.937H167.097C167.097 214.927 167.097 214.918 167.097 214.909L166.252 214.914ZM166.252 214.742V214.911H167.097V214.742H166.252ZM166.67 215.165H166.674V214.32H166.67V215.165ZM162.01 211.083C164.321 211.083 166.149 212.747 166.247 214.763L167.092 214.722C166.969 212.195 164.709 210.238 162.01 210.238V211.083ZM157.772 214.763C157.871 212.747 159.698 211.083 162.01 211.083V210.238C159.311 210.238 157.051 212.195 156.928 214.722L157.772 214.763ZM157.345 215.165H157.35V214.32H157.345V215.165ZM157.768 219.99V214.742H156.922V219.99H157.768ZM166.674 219.567H157.345V220.413H166.674V219.567ZM166.252 214.962V219.99H167.097V214.962H166.252Z" fill="#FDC813" mask="url(#path-52-inside-1_103_827)"/>
<mask id="path-54-inside-2_103_827" fill="white">
<path fill-rule="evenodd" clip-rule="evenodd" d="M192.778 214.795C193.032 212.511 195.011 210.733 197.415 210.733C199.819 210.733 201.798 212.511 202.052 214.795H202.08V219.771H192.751V215.315C192.751 215.308 192.75 215.301 192.75 215.294C192.75 215.287 192.751 215.28 192.751 215.273V214.795H192.778Z"/>
</mask>
<path fill-rule="evenodd" clip-rule="evenodd" d="M192.778 214.795C193.032 212.511 195.011 210.733 197.415 210.733C199.819 210.733 201.798 212.511 202.052 214.795H202.08V219.771H192.751V215.315C192.751 215.308 192.75 215.301 192.75 215.294C192.75 215.287 192.751 215.28 192.751 215.273V214.795H192.778Z" fill="#FDC813"/>
<path d="M192.778 214.795V215.218H193.156L193.198 214.842L192.778 214.795ZM202.052 214.795L201.632 214.842L201.674 215.218H202.052V214.795ZM202.08 214.795H202.503V214.372H202.08V214.795ZM202.08 219.771V220.194H202.503V219.771H202.08ZM192.751 219.771H192.328V220.194H192.751V219.771ZM192.751 215.315H193.173L193.173 215.313L192.751 215.315ZM192.751 215.273L193.173 215.275V215.273H192.751ZM192.751 214.795V214.372H192.328V214.795H192.751ZM193.198 214.842C193.428 212.777 195.222 211.156 197.415 211.156V210.311C194.801 210.311 192.636 212.245 192.358 214.749L193.198 214.842ZM197.415 211.156C199.609 211.156 201.402 212.777 201.632 214.842L202.472 214.749C202.194 212.245 200.029 210.311 197.415 210.311V211.156ZM202.052 215.218H202.08V214.372H202.052V215.218ZM201.657 214.795V219.771H202.503V214.795H201.657ZM202.08 219.348H192.751V220.194H202.08V219.348ZM193.173 219.771V215.315H192.328V219.771H193.173ZM193.173 215.313C193.173 215.307 193.173 215.301 193.173 215.294H192.328C192.328 215.302 192.328 215.31 192.328 215.317L193.173 215.313ZM193.173 215.294C193.173 215.288 193.173 215.282 193.173 215.275L192.328 215.272C192.328 215.279 192.328 215.287 192.328 215.294H193.173ZM193.173 215.273V214.795H192.328V215.273H193.173ZM192.751 215.218H192.778V214.372H192.751V215.218Z" fill="#FDC813" mask="url(#path-54-inside-2_103_827)"/>
</g>
<g filter="url(#filter1_f_103_827)">
<path d="M220.115 211.539C227.216 199.092 229.161 191.985 231.423 179.231H239.5V186.501H236.269C235.462 186.501 231.423 206.693 231.423 206.693H239.5V211.539H220.115Z" fill="#FDC813"/>
<path d="M258.885 211.539C251.784 199.092 249.839 191.985 247.577 179.231H239.5V186.501H242.731C243.538 186.501 247.577 206.693 247.577 206.693H239.5V211.539H258.885Z" fill="#FDC813"/>
<rect x="238.692" y="71" width="1.61538" height="14.5385" fill="#FDC813"/>
<path d="M231.423 178.423C234.241 145.717 235.417 126.925 236.269 92H239.5V178.423H231.423Z" fill="#FDC813"/>
<path d="M247.577 178.423C244.759 145.717 243.583 126.925 242.731 92H239.5V178.423H247.577Z" fill="#FDC813"/>
<rect x="234.654" y="88.7695" width="4.84615" height="3.23077" fill="#FDC813"/>
<rect x="239.5" y="88.7695" width="4.84615" height="3.23077" fill="#FDC813"/>
<rect x="229.808" y="177.615" width="9.69231" height="3.23077" fill="#FDC813"/>
<rect x="239.5" y="177.615" width="9.69231" height="3.23077" fill="#FDC813"/>
<path d="M242.731 87.1543C242.731 89.8307 241.284 89.5773 239.5 89.5773C237.716 89.5773 236.269 89.8307 236.269 87.1543C236.269 84.4778 237.716 82.3081 239.5 82.3081C241.284 82.3081 242.731 84.4778 242.731 87.1543Z" fill="#FDC813"/>
<path d="M239.5 217.192V211.539H220.115L208 230.923H216.885C216.885 230.923 217.692 226.885 223.346 222.039C229 217.192 239.5 217.192 239.5 217.192Z" fill="#FDC813"/>
<path d="M239.5 217.192V211.539H258.885L271 230.923H262.115C262.115 230.923 261.308 226.885 255.654 222.039C250 217.192 239.5 217.192 239.5 217.192Z" fill="#FDC813"/>
</g>
<path d="M368.513 183L362 191.225V230H407V191.225L399.895 183H368.513Z" fill="#DFB114"/>
<path d="M62.5132 186L56 193.875V231H101V193.875L93.8947 186H62.5132Z" fill="#DFB114"/>
<path d="M154.173 193.446H168.978V205.431H154.173V193.446Z" fill="#FDC813"/>
<rect x="154.173" y="207.546" width="15.1599" height="11.6614" fill="#FDC813"/>
<rect x="189.776" y="206.841" width="15.1579" height="11.6328" fill="#FDC813"/>
<rect x="189.544" y="193.408" width="15.1599" height="11.6614" fill="#FDC813"/>
<path d="M169.136 192.824H189.544V205.069C181.285 196.36 176.785 195.415 169.136 205.069V192.824Z" fill="#FDC813"/>
<path d="M189.544 200.696C181.688 193.996 176.992 193.171 169.136 200.696V204.726C176.706 195.892 181.297 196.223 189.424 204.726" stroke="#FDC813" stroke-width="0.422838"/>
<path d="M173.384 197.323L174.675 199.53" stroke="#FDC813" stroke-width="0.422838"/>
<path d="M179.34 195.448V198.072" stroke="#FDC813" stroke-width="0.422838"/>
<path d="M185.462 197.489L183.96 199.967" stroke="#FDC813" stroke-width="0.422838"/>
<path d="M156.6 174.749L154.268 173V176.207H204.995V173L202.663 174.749L199.747 173L197.415 174.749L194.5 173L191.876 174.749L189.252 173L186.92 174.749L184.296 173L181.964 174.749L179.34 173L177.008 174.749L174.092 173L171.76 174.749L169.136 173L166.804 174.749L163.888 173L162.139 174.749L158.932 173L156.6 174.749Z" fill="#FDC813" stroke="#FDC813" stroke-width="0.422838"/>
<path d="M154.268 180.871V176.207H205.287V180.871H154.268Z" fill="#FDC813" stroke="#FDC813" stroke-width="0.422838"/>
<path d="M151 182.87V180.403H207.754V182.87H151Z" fill="#FDC813" stroke="#FDC813" stroke-width="0.422838"/>
<path d="M154.268 185.827L151.353 183.204H207.327L204.995 185.827H154.268Z" fill="#FDC813" stroke="#FDC813" stroke-width="0.422838"/>
<path d="M154.268 188.743V186.119H204.995V188.743V191.075V193.408H189.544H169.136H154.268V191.075V188.743Z" fill="#FDC813"/>
<path d="M154.268 188.743V186.119H204.995V188.743M154.268 188.743H204.995M154.268 188.743V193.408H169.136M204.995 188.743V191.075M154.268 191.075H169.136M204.995 191.075V193.408H189.544M204.995 191.075H189.544M189.544 191.075V193.408M189.544 191.075H169.136M189.544 193.408H169.136M169.136 193.408V191.075" stroke="#FDC813" stroke-width="0.422838"/>
<path d="M154.173 193.446V205.431M169.033 205.431V193.446M189.43 193.446V205.431H204.581V193.707" stroke="#FDC813" stroke-width="0.422838"/>
<path d="M154.268 207.693L152.81 205.36H170.302L169.428 207.693H154.268Z" fill="#FDC813" stroke="#FDC813" stroke-width="0.422838"/>
<path d="M204.995 207.401L206.453 205.069H188.961L189.835 207.401H204.995Z" fill="#FDC813" stroke="#FDC813" stroke-width="0.422838"/>
<path d="M154.268 218.771V207.693H169.428V218.771H170.594L169.428 220.812V225.768C171.121 225.747 171.478 226.427 171.468 228.392H151.644C151.654 226.246 152.205 225.654 154.268 225.768V220.812L152.81 218.771H154.268Z" fill="#FDC813"/>
<path d="M154.268 218.771V207.693H169.428V218.771M154.268 220.812L152.81 218.771H170.594L169.428 220.812M154.268 220.812H169.428M154.268 220.812V225.768M169.428 220.812V225.768M154.268 225.768H169.428M154.268 225.768C152.205 225.654 151.654 226.246 151.644 228.392H171.468C171.478 226.427 171.121 225.747 169.428 225.768" stroke="#FDC813" stroke-width="0.422838"/>
<path d="M189.835 220.52L188.378 218.48H204.995H206.161L204.995 220.52V225.477C206.689 225.456 207.045 226.135 207.036 228.1H187.211C187.221 225.954 187.772 225.362 189.835 225.477V220.52Z" fill="#FDC813"/>
<path d="M189.835 218.188V207.401H204.995V218.48M189.835 220.52L188.378 218.48H206.161L204.995 220.52M189.835 220.52H204.995M189.835 220.52V225.477M204.995 220.52V225.477M189.835 225.477H204.995M189.835 225.477C187.772 225.362 187.221 225.954 187.211 228.1H207.036C207.045 226.135 206.689 225.456 204.995 225.477" stroke="#FDC813" stroke-width="0.422838"/>
<rect x="156.753" y="197.117" width="10.0724" height="5.40787" rx="0.211419" fill="#FDC813" stroke="#FDC813" stroke-width="0.422838"/>
<rect x="192.087" y="196.534" width="10.0724" height="5.40787" rx="0.211419" fill="#FDC813" stroke="#FDC813" stroke-width="0.422838"/>
<circle cx="156.892" cy="178.539" r="1.16614" fill="#FDC813"/>
<circle cx="160.39" cy="178.539" r="1.16614" fill="#FDC813"/>
<circle cx="163.889" cy="178.539" r="1.16614" fill="#FDC813"/>
<circle cx="167.387" cy="178.539" r="1.16614" fill="#FDC813"/>
<circle cx="170.885" cy="178.539" r="1.16614" fill="#FDC813"/>
<circle cx="174.384" cy="178.539" r="1.16614" fill="#FDC813"/>
<circle cx="177.882" cy="178.539" r="1.16614" fill="#FDC813"/>
<circle cx="181.381" cy="178.539" r="1.16614" fill="#FDC813"/>
<circle cx="184.879" cy="178.539" r="1.16614" fill="#FDC813"/>
<circle cx="188.378" cy="178.539" r="1.16614" fill="#FDC813"/>
<circle cx="191.876" cy="178.539" r="1.16614" fill="#FDC813"/>
<circle cx="195.374" cy="178.539" r="1.16614" fill="#FDC813"/>
<circle cx="198.873" cy="178.539" r="1.16614" fill="#FDC813"/>
<circle cx="202.371" cy="178.539" r="1.16614" fill="#FDC813"/>
<mask id="path-108-inside-3_103_827" fill="white">
<path fill-rule="evenodd" clip-rule="evenodd" d="M166.674 213.962C166.674 213.953 166.674 213.945 166.674 213.937C166.674 213.928 166.674 213.92 166.674 213.911V213.742H166.67C166.559 211.471 164.515 209.661 162.01 209.661C159.505 209.661 157.461 211.471 157.35 213.742H157.345V218.99H166.674V213.962Z"/>
</mask>
<path fill-rule="evenodd" clip-rule="evenodd" d="M166.674 213.962C166.674 213.953 166.674 213.945 166.674 213.937C166.674 213.928 166.674 213.92 166.674 213.911V213.742H166.67C166.559 211.471 164.515 209.661 162.01 209.661C159.505 209.661 157.461 211.471 157.35 213.742H157.345V218.99H166.674V213.962Z" fill="#FDC813"/>
<path d="M166.674 213.962L166.252 213.959V213.962H166.674ZM166.674 213.911H166.252L166.252 213.914L166.674 213.911ZM166.674 213.742H167.097V213.32H166.674V213.742ZM166.67 213.742L166.247 213.763L166.267 214.165H166.67V213.742ZM157.35 213.742V214.165H157.753L157.772 213.763L157.35 213.742ZM157.345 213.742V213.32H156.922V213.742H157.345ZM157.345 218.99H156.922V219.413H157.345V218.99ZM166.674 218.99V219.413H167.097V218.99H166.674ZM166.252 213.937C166.252 213.944 166.252 213.951 166.252 213.959L167.097 213.964C167.097 213.955 167.097 213.946 167.097 213.937H166.252ZM166.252 213.914C166.252 213.922 166.252 213.929 166.252 213.937H167.097C167.097 213.927 167.097 213.918 167.097 213.909L166.252 213.914ZM166.252 213.742V213.911H167.097V213.742H166.252ZM166.67 214.165H166.674V213.32H166.67V214.165ZM162.01 210.083C164.321 210.083 166.149 211.747 166.247 213.763L167.092 213.722C166.969 211.195 164.709 209.238 162.01 209.238V210.083ZM157.772 213.763C157.871 211.747 159.698 210.083 162.01 210.083V209.238C159.311 209.238 157.051 211.195 156.928 213.722L157.772 213.763ZM157.345 214.165H157.35V213.32H157.345V214.165ZM157.768 218.99V213.742H156.922V218.99H157.768ZM166.674 218.567H157.345V219.413H166.674V218.567ZM166.252 213.962V218.99H167.097V213.962H166.252Z" fill="#FDC813" mask="url(#path-108-inside-3_103_827)"/>
<mask id="path-110-inside-4_103_827" fill="white">
<path fill-rule="evenodd" clip-rule="evenodd" d="M192.778 213.795C193.032 211.511 195.011 209.733 197.415 209.733C199.819 209.733 201.798 211.511 202.052 213.795H202.08V218.771H192.751V214.315C192.751 214.308 192.75 214.301 192.75 214.294C192.75 214.287 192.751 214.28 192.751 214.273V213.795H192.778Z"/>
</mask>
<path fill-rule="evenodd" clip-rule="evenodd" d="M192.778 213.795C193.032 211.511 195.011 209.733 197.415 209.733C199.819 209.733 201.798 211.511 202.052 213.795H202.08V218.771H192.751V214.315C192.751 214.308 192.75 214.301 192.75 214.294C192.75 214.287 192.751 214.28 192.751 214.273V213.795H192.778Z" fill="#FDC813"/>
<path d="M192.778 213.795V214.218H193.156L193.198 213.842L192.778 213.795ZM202.052 213.795L201.632 213.842L201.674 214.218H202.052V213.795ZM202.08 213.795H202.503V213.372H202.08V213.795ZM202.08 218.771V219.194H202.503V218.771H202.08ZM192.751 218.771H192.328V219.194H192.751V218.771ZM192.751 214.315H193.173L193.173 214.313L192.751 214.315ZM192.751 214.273L193.173 214.275V214.273H192.751ZM192.751 213.795V213.372H192.328V213.795H192.751ZM193.198 213.842C193.428 211.777 195.222 210.156 197.415 210.156V209.311C194.801 209.311 192.636 211.245 192.358 213.749L193.198 213.842ZM197.415 210.156C199.609 210.156 201.402 211.777 201.632 213.842L202.472 213.749C202.194 211.245 200.029 209.311 197.415 209.311V210.156ZM202.052 214.218H202.08V213.372H202.052V214.218ZM201.657 213.795V218.771H202.503V213.795H201.657ZM202.08 218.348H192.751V219.194H202.08V218.348ZM193.173 218.771V214.315H192.328V218.771H193.173ZM193.173 214.313C193.173 214.307 193.173 214.301 193.173 214.294H192.328C192.328 214.302 192.328 214.31 192.328 214.317L193.173 214.313ZM193.173 214.294C193.173 214.288 193.173 214.282 193.173 214.275L192.328 214.272C192.328 214.279 192.328 214.287 192.328 214.294H193.173ZM193.173 214.273V213.795H192.328V214.273H193.173ZM192.751 214.218H192.778V213.372H192.751V214.218Z" fill="#FDC813" mask="url(#path-110-inside-4_103_827)"/>
<path d="M423 206.92V232H493V206.92L482.348 194H432.891L423 206.92Z" fill="#DFB114"/>
<path d="M440 214.5V231H486V214.5L479 206H446.5L440 214.5Z" fill="#FDC813"/>
<path d="M270 205.92V231H340V205.92L329.348 193H279.891L270 205.92Z" fill="#DFB114"/>
<path d="M325 212.5V229H371V212.5L364 204H331.5L325 212.5Z" fill="#FDC813"/>
<path d="M392.5 191L387 198V231H425V198L419 191H392.5Z" fill="#FDC813"/>
<path d="M39 199.203L41.3077 194H76.3077L79 199.203V229H39V199.203Z" fill="#FDC813"/>
<path d="M219.652 210.165C226.481 198.193 228.352 191.358 230.527 179.092H238.295V186.084H235.188C234.411 186.084 230.527 205.504 230.527 205.504H238.295V210.165H219.652Z" fill="#FDC813"/>
<path d="M256.939 210.165C250.11 198.193 248.239 191.358 246.063 179.092H238.295V186.084H241.403C242.179 186.084 246.063 205.504 246.063 205.504H238.295V210.165H256.939Z" fill="#FDC813"/>
<rect x="237.519" y="75" width="1.55361" height="13.9825" fill="#FDC813"/>
<path d="M230.527 178.315C233.237 146.86 234.369 128.786 235.188 95.1968H238.295V178.315H230.527Z" fill="#FDC813"/>
<path d="M246.063 178.315C243.354 146.86 242.222 128.786 241.403 95.1968H238.295V178.315H246.063Z" fill="#FDC813"/>
<rect x="233.635" y="92.0898" width="4.66084" height="3.10723" fill="#FDC813"/>
<rect x="238.295" y="92.0898" width="4.66084" height="3.10723" fill="#FDC813"/>
<rect x="228.974" y="177.539" width="9.32168" height="3.10723" fill="#FDC813"/>
<rect x="238.296" y="177.539" width="9.32168" height="3.10723" fill="#FDC813"/>
<path d="M241.403 90.5363C241.403 93.1104 240.012 92.8667 238.295 92.8667C236.579 92.8667 235.188 93.1104 235.188 90.5363C235.188 87.9622 236.579 85.8755 238.295 85.8755C240.012 85.8755 241.403 87.9622 241.403 90.5363Z" fill="#FDC813"/>
<path d="M238.295 215.602V210.165H219.652L208 228.808H216.545C216.545 228.808 217.322 224.924 222.759 220.263C228.197 215.602 238.295 215.602 238.295 215.602Z" fill="#FDC813"/>
<path d="M238.295 215.602V210.165H256.939L268.591 228.808H260.046C260.046 228.808 259.269 224.924 253.831 220.263C248.394 215.602 238.295 215.602 238.295 215.602Z" fill="#FDC813"/>
<path d="M139 212.5V229H93V212.5L100 204H132.5L139 212.5Z" fill="#FDC813"/>
<g opacity="0.15">
<path d="M220.05 234.418C226.894 240.404 228.769 243.821 230.949 249.954H238.734V246.458H235.62C234.842 246.458 230.949 236.748 230.949 236.748H238.734V234.418H220.05Z" fill="#FDC813"/>
<path d="M257.419 234.418C250.575 240.404 248.7 243.821 246.52 249.954H238.735V246.458H241.849C242.627 246.458 246.52 236.748 246.52 236.748H238.735V234.418H257.419Z" fill="#FDC813"/>
<path d="M238.734 250.342H230.949L234.886 255.927H238L238.734 250.342Z" fill="#FDC813"/>
<path d="M247.52 249.025L243.5 255.927H238L238.735 250.343L247.52 249.025Z" fill="#FDC813"/>
<rect width="9.34221" height="1.55361" transform="matrix(1 0 0 -1 229.392 250.731)" fill="#FDC813"/>
<rect width="9.34221" height="1.55361" transform="matrix(1 0 0 -1 238.735 250.731)" fill="#FDC813"/>
<path d="M238.734 231.699V234.417H220.05L208.372 225.096H216.936C216.936 225.096 217.715 227.038 223.164 229.368C228.614 231.699 238.734 231.699 238.734 231.699Z" fill="#FDC813"/>
<path d="M238.734 231.699V234.417H257.419L269.097 225.096H260.533C260.533 225.096 259.754 227.038 254.305 229.368C248.855 231.699 238.734 231.699 238.734 231.699Z" fill="#FDC813"/>
<path d="M147.238 236.38V224.5H106.147V236.38L112.4 242.5H141.432L147.238 236.38Z" fill="#DFB114"/>
<g filter="url(#filter2_f_103_827)">
<path d="M154.419 247.351H169.225V235.365H154.419V247.351Z" fill="#FDC813"/>
<rect width="15.1599" height="11.6614" transform="matrix(1 0 0 -1 154.419 233.25)" fill="#FDC813"/>
<rect width="15.1579" height="11.6328" transform="matrix(1 0 0 -1 190.023 233.956)" fill="#FDC813"/>
<rect width="15.1599" height="11.6614" transform="matrix(1 0 0 -1 189.79 247.389)" fill="#FDC813"/>
<path d="M169.383 247.972H189.79V235.728C181.531 244.436 177.032 245.382 169.383 235.728V247.972Z" fill="#FDC813"/>
<path d="M189.79 240.1C181.935 246.8 177.238 247.625 169.383 240.1V236.07C176.953 244.904 181.543 244.574 189.67 236.07" stroke="#FDC813" stroke-width="0.422838"/>
<path d="M173.631 243.473L174.922 241.267" stroke="#FDC813" stroke-width="0.422838"/>
<path d="M179.586 245.348V242.724" stroke="#FDC813" stroke-width="0.422838"/>
<path d="M185.709 243.307L184.206 240.829" stroke="#FDC813" stroke-width="0.422838"/>
<path d="M156.847 266.047L154.514 267.796V264.589H205.242V267.796L202.909 266.047L199.994 267.796L197.662 266.047L194.746 267.796L192.122 266.047L189.499 267.796L187.166 266.047L184.543 267.796L182.21 266.047L179.586 267.796L177.254 266.047L174.339 267.796L172.007 266.047L169.383 267.796L167.05 266.047L164.135 267.796L162.386 266.047L159.179 267.796L156.847 266.047Z" fill="#FDC813" stroke="#FDC813" stroke-width="0.422838"/>
<path d="M154.514 259.925V264.59H205.533V259.925H154.514Z" fill="#FDC813" stroke="#FDC813" stroke-width="0.422838"/>
<path d="M151.247 257.926V260.394H208.001V257.926H151.247Z" fill="#FDC813" stroke="#FDC813" stroke-width="0.422838"/>
<path d="M154.514 254.969L151.599 257.593H207.574L205.242 254.969H154.514Z" fill="#FDC813" stroke="#FDC813" stroke-width="0.422838"/>
<path d="M154.514 252.053V254.677H205.242V252.053V249.721V247.389H189.79H169.383H154.514V249.721V252.053Z" fill="#FDC813"/>
<path d="M154.514 252.053V254.677H205.242V252.053M154.514 252.053H205.242M154.514 252.053V247.389H169.383M205.242 252.053V249.721M154.514 249.721H169.383M205.242 249.721V247.389H189.79M205.242 249.721H189.79M189.79 249.721V247.389M189.79 249.721H169.383M189.79 247.389H169.383M169.383 247.389V249.721" stroke="#FDC813" stroke-width="0.422838"/>
<path d="M154.419 247.351V235.365M169.28 235.365V247.351M189.676 247.351V235.365H204.828V247.089" stroke="#FDC813" stroke-width="0.422838"/>
<path d="M154.515 233.104L153.057 235.436H170.549L169.674 233.104H154.515Z" fill="#FDC813" stroke="#FDC813" stroke-width="0.422838"/>
<path d="M205.242 233.395L206.699 235.728H189.207L190.082 233.395H205.242Z" fill="#FDC813" stroke="#FDC813" stroke-width="0.422838"/>
<path d="M154.514 222.025V233.104H169.674V222.025H170.84L169.674 219.984V215.028C171.368 215.049 171.725 214.37 171.715 212.404H151.891C151.9 214.55 152.451 215.143 154.514 215.028V219.984L153.057 222.025H154.514Z" fill="#FDC813"/>
<path d="M154.514 222.025V233.104H169.674V222.025M154.514 219.984L153.057 222.025H170.84L169.674 219.984M154.514 219.984H169.674M154.514 219.984V215.028M169.674 219.984V215.028M154.514 215.028H169.674M154.514 215.028C152.451 215.143 151.9 214.55 151.891 212.404H171.715C171.725 214.37 171.368 215.049 169.674 215.028" stroke="#FDC813" stroke-width="0.422838"/>
<path d="M190.082 220.276L188.624 222.317H205.242H206.408L205.242 220.276V215.32C206.935 215.341 207.292 214.661 207.282 212.696H187.458C187.468 214.842 188.019 215.434 190.082 215.32V220.276Z" fill="#FDC813"/>
<path d="M190.082 222.608V233.395H205.242V222.317M190.082 220.276L188.624 222.317H206.408L205.242 220.276M190.082 220.276H205.242M190.082 220.276V215.32M205.242 220.276V215.32M190.082 215.32H205.242M190.082 215.32C188.019 215.434 187.468 214.842 187.458 212.696H207.282C207.292 214.661 206.935 215.341 205.242 215.32" stroke="#FDC813" stroke-width="0.422838"/>
<rect x="0.211419" y="-0.211419" width="10.0724" height="5.40787" rx="0.211419" transform="matrix(1 0 0 -1 156.788 243.468)" fill="#FDC813" stroke="#FDC813" stroke-width="0.422838"/>
<rect x="0.211419" y="-0.211419" width="10.0724" height="5.40787" rx="0.211419" transform="matrix(1 0 0 -1 192.123 244.051)" fill="#FDC813" stroke="#FDC813" stroke-width="0.422838"/>
<circle cx="1.16614" cy="1.16614" r="1.16614" transform="matrix(1 0 0 -1 155.972 263.423)" fill="#FDC813"/>
<circle cx="1.16614" cy="1.16614" r="1.16614" transform="matrix(1 0 0 -1 159.47 263.423)" fill="#FDC813"/>
<circle cx="1.16614" cy="1.16614" r="1.16614" transform="matrix(1 0 0 -1 162.969 263.423)" fill="#FDC813"/>
<circle cx="1.16614" cy="1.16614" r="1.16614" transform="matrix(1 0 0 -1 166.467 263.423)" fill="#FDC813"/>
<circle cx="1.16614" cy="1.16614" r="1.16614" transform="matrix(1 0 0 -1 169.966 263.423)" fill="#FDC813"/>
<circle cx="1.16614" cy="1.16614" r="1.16614" transform="matrix(1 0 0 -1 173.464 263.423)" fill="#FDC813"/>
<circle cx="1.16614" cy="1.16614" r="1.16614" transform="matrix(1 0 0 -1 176.963 263.423)" fill="#FDC813"/>
<circle cx="1.16614" cy="1.16614" r="1.16614" transform="matrix(1 0 0 -1 180.461 263.423)" fill="#FDC813"/>
<circle cx="1.16614" cy="1.16614" r="1.16614" transform="matrix(1 0 0 -1 183.959 263.423)" fill="#FDC813"/>
<circle cx="1.16614" cy="1.16614" r="1.16614" transform="matrix(1 0 0 -1 187.458 263.423)" fill="#FDC813"/>
<circle cx="1.16614" cy="1.16614" r="1.16614" transform="matrix(1 0 0 -1 190.957 263.423)" fill="#FDC813"/>
<circle cx="1.16614" cy="1.16614" r="1.16614" transform="matrix(1 0 0 -1 194.455 263.423)" fill="#FDC813"/>
<circle cx="1.16614" cy="1.16614" r="1.16614" transform="matrix(1 0 0 -1 197.953 263.423)" fill="#FDC813"/>
<circle cx="1.16614" cy="1.16614" r="1.16614" transform="matrix(1 0 0 -1 201.452 263.423)" fill="#FDC813"/>
<mask id="path-178-inside-5_103_827" fill="white">
<path fill-rule="evenodd" clip-rule="evenodd" d="M166.921 226.835C166.921 226.843 166.921 226.852 166.921 226.86C166.921 226.868 166.921 226.877 166.921 226.885V227.054H166.916C166.806 229.325 164.762 231.136 162.256 231.136C159.751 231.136 157.707 229.325 157.597 227.054H157.592V221.806H166.921V226.835Z"/>
</mask>
<path fill-rule="evenodd" clip-rule="evenodd" d="M166.921 226.835C166.921 226.843 166.921 226.852 166.921 226.86C166.921 226.868 166.921 226.877 166.921 226.885V227.054H166.916C166.806 229.325 164.762 231.136 162.256 231.136C159.751 231.136 157.707 229.325 157.597 227.054H157.592V221.806H166.921V226.835Z" fill="#FDC813"/>
<path d="M166.921 226.835L166.498 226.838V226.835H166.921ZM166.921 226.885H166.498L166.498 226.882L166.921 226.885ZM166.921 227.054H167.344V227.477H166.921V227.054ZM166.916 227.054L166.494 227.033L166.514 226.631H166.916V227.054ZM157.597 227.054V226.631H157.999L158.019 227.033L157.597 227.054ZM157.592 227.054V227.477H157.169V227.054H157.592ZM157.592 221.806H157.169V221.384H157.592V221.806ZM166.921 221.806V221.384H167.344V221.806H166.921ZM166.498 226.86C166.498 226.852 166.498 226.845 166.498 226.838L167.344 226.832C167.344 226.841 167.344 226.851 167.344 226.86H166.498ZM166.498 226.882C166.498 226.875 166.498 226.867 166.498 226.86H167.344C167.344 226.869 167.344 226.878 167.344 226.888L166.498 226.882ZM166.498 227.054V226.885H167.344V227.054H166.498ZM166.916 226.631H166.921V227.477H166.916V226.631ZM162.256 230.713C164.568 230.713 166.396 229.049 166.494 227.033L167.339 227.075C167.215 229.602 164.955 231.559 162.256 231.559V230.713ZM158.019 227.033C158.117 229.049 159.945 230.713 162.256 230.713V231.559C159.558 231.559 157.297 229.602 157.174 227.075L158.019 227.033ZM157.592 226.631H157.597V227.477H157.592V226.631ZM158.015 221.806V227.054H157.169V221.806H158.015ZM166.921 222.229H157.592V221.384H166.921V222.229ZM166.498 226.835V221.806H167.344V226.835H166.498Z" fill="#FDC813" mask="url(#path-178-inside-5_103_827)"/>
<mask id="path-180-inside-6_103_827" fill="white">
<path fill-rule="evenodd" clip-rule="evenodd" d="M193.025 227.001C193.279 229.285 195.258 231.063 197.662 231.063C200.065 231.063 202.044 229.285 202.299 227.001H202.326V222.026H192.997V226.481C192.997 226.488 192.997 226.495 192.997 226.502C192.997 226.509 192.997 226.516 192.997 226.523V227.001H193.025Z"/>
</mask>
<path fill-rule="evenodd" clip-rule="evenodd" d="M193.025 227.001C193.279 229.285 195.258 231.063 197.662 231.063C200.065 231.063 202.044 229.285 202.299 227.001H202.326V222.026H192.997V226.481C192.997 226.488 192.997 226.495 192.997 226.502C192.997 226.509 192.997 226.516 192.997 226.523V227.001H193.025Z" fill="#FDC813"/>
<path d="M193.025 227.001V226.578H193.403L193.445 226.954L193.025 227.001ZM202.299 227.001L201.878 226.954L201.92 226.578H202.299V227.001ZM202.326 227.001H202.749V227.424H202.326V227.001ZM202.326 222.026V221.603H202.749V222.026H202.326ZM192.997 222.026H192.574V221.603H192.997V222.026ZM192.997 226.481H193.42L193.42 226.483L192.997 226.481ZM192.997 226.523L193.42 226.521V226.523H192.997ZM192.997 227.001V227.424H192.574V227.001H192.997ZM193.445 226.954C193.675 229.019 195.468 230.64 197.662 230.64V231.486C195.048 231.486 192.883 229.551 192.604 227.048L193.445 226.954ZM197.662 230.64C199.855 230.64 201.649 229.019 201.878 226.954L202.719 227.048C202.44 229.551 200.276 231.486 197.662 231.486V230.64ZM202.299 226.578H202.326V227.424H202.299V226.578ZM201.903 227.001V222.026H202.749V227.001H201.903ZM202.326 222.448H192.997V221.603H202.326V222.448ZM193.42 222.026V226.481H192.574V222.026H193.42ZM193.42 226.483C193.42 226.489 193.42 226.496 193.42 226.502H192.574C192.574 226.494 192.574 226.487 192.574 226.479L193.42 226.483ZM193.42 226.502C193.42 226.508 193.42 226.515 193.42 226.521L192.574 226.525C192.574 226.517 192.574 226.51 192.574 226.502H193.42ZM193.42 226.523V227.001H192.574V226.523H193.42ZM192.997 226.578H193.025V227.424H192.997V226.578Z" fill="#FDC813" mask="url(#path-180-inside-6_103_827)"/>
</g>
<g filter="url(#filter3_f_103_827)">
<path d="M220.514 233.73C227.631 239.954 229.58 243.508 231.847 249.884H239.942V246.25H236.704C235.894 246.25 231.847 236.154 231.847 236.154H239.942V233.73H220.514Z" fill="#FDC813"/>
<path d="M259.369 233.73C252.253 239.954 250.303 243.508 248.036 249.884H239.942V246.25H243.179C243.989 246.25 248.036 236.154 248.036 236.154H239.942V233.73H259.369Z" fill="#FDC813"/>
<rect width="1.61894" height="7.26923" transform="matrix(1 0 0 -1 239.132 304)" fill="#FDC813"/>
<rect width="4.85683" height="1.61538" transform="matrix(1 0 0 -1 235.085 295.115)" fill="#FDC813"/>
<rect width="4.85683" height="1.61538" transform="matrix(1 0 0 -1 239.942 295.115)" fill="#FDC813"/>
<rect width="9.71366" height="1.61538" transform="matrix(1 0 0 -1 230.228 250.692)" fill="#FDC813"/>
<rect width="9.71366" height="1.61538" transform="matrix(1 0 0 -1 239.942 250.692)" fill="#FDC813"/>
<path d="M239.942 230.904V233.731H220.514L208.372 224.039H217.276C217.276 224.039 218.086 226.058 223.752 228.481C229.419 230.904 239.942 230.904 239.942 230.904Z" fill="#FDC813"/>
<path d="M239.942 230.904V233.731H259.369L271.511 224.039H262.607C262.607 224.039 261.797 226.058 256.131 228.481C250.465 230.904 239.942 230.904 239.942 230.904Z" fill="#FDC813"/>
</g>
<path d="M369.239 248L362.711 243.888V224.5H407.811V243.888L400.69 248H369.239Z" fill="#DFB114"/>
<path d="M62.5649 246.5L56.0374 242.562V224H101.136V242.562L94.0156 246.5H62.5649Z" fill="#DFB114"/>
<path d="M154.426 242.777H169.264V236.784H154.426V242.777Z" fill="#FDC813"/>
<rect width="15.1932" height="5.83071" transform="matrix(1 0 0 -1 154.426 235.727)" fill="#FDC813"/>
<rect width="15.1913" height="5.81641" transform="matrix(1 0 0 -1 190.108 236.08)" fill="#FDC813"/>
<rect width="15.1932" height="5.83071" transform="matrix(1 0 0 -1 189.875 242.796)" fill="#FDC813"/>
<path d="M169.423 243.088H189.875V236.966C181.598 241.32 177.088 241.793 169.423 236.966V243.088Z" fill="#FDC813"/>
<path d="M189.875 239.152C182.002 242.502 177.295 242.914 169.423 239.152V237.137C177.009 241.554 181.61 241.389 189.755 237.137" stroke="#FDC813" stroke-width="0.422838"/>
<path d="M173.68 240.838L174.974 239.735" stroke="#FDC813" stroke-width="0.422838"/>
<path d="M179.649 241.776V240.464" stroke="#FDC813" stroke-width="0.422838"/>
<path d="M185.785 240.755L184.279 239.516" stroke="#FDC813" stroke-width="0.422838"/>
<path d="M156.859 252.125L154.521 253V251.397H205.36V253L203.023 252.125L200.101 253L197.764 252.125L194.842 253L192.212 252.125L189.583 253L187.245 252.125L184.616 253L182.278 252.125L179.649 253L177.311 252.125L174.39 253L172.052 252.125L169.423 253L167.085 252.125L164.163 253L162.41 252.125L159.196 253L156.859 252.125Z" fill="#FDC813" stroke="#FDC813" stroke-width="0.422838"/>
<path d="M154.521 249.065V251.397H205.653V249.065H154.521Z" fill="#FDC813" stroke="#FDC813" stroke-width="0.422838"/>
<path d="M151.247 248.065V249.299H208.126V248.065H151.247Z" fill="#FDC813" stroke="#FDC813" stroke-width="0.422838"/>
<path d="M154.522 246.587L151.6 247.898H207.698L205.361 246.587H154.522Z" fill="#FDC813" stroke="#FDC813" stroke-width="0.422838"/>
<path d="M154.521 245.129V246.44H205.36V245.129V243.962V242.796H189.875H169.423H154.521V243.962V245.129Z" fill="#FDC813"/>
<path d="M154.521 245.129V246.44H205.36V245.129M154.521 245.129H205.36M154.521 245.129V242.796H169.423M205.36 245.129V243.962M154.521 243.962H169.423M205.36 243.962V242.796H189.875M205.36 243.962H189.875M189.875 243.962V242.796M189.875 243.962H169.423M189.875 242.796H169.423M169.423 242.796V243.962" stroke="#FDC813" stroke-width="0.422838"/>
<path d="M154.426 242.777V236.784M169.319 236.784V242.777M189.761 242.777V236.784H204.946V242.646" stroke="#FDC813" stroke-width="0.422838"/>
<path d="M154.522 235.654L153.061 236.82H170.591L169.715 235.654H154.522Z" fill="#FDC813" stroke="#FDC813" stroke-width="0.422838"/>
<path d="M205.361 235.8L206.822 236.966H189.291L190.167 235.8H205.361Z" fill="#FDC813" stroke="#FDC813" stroke-width="0.422838"/>
<path d="M154.522 230.115V235.654H169.715V230.115H170.884L169.715 229.094V226.616C171.412 226.627 171.77 226.287 171.76 225.304H151.892C151.902 226.377 152.454 226.673 154.522 226.616V229.094L153.061 230.115H154.522Z" fill="#FDC813"/>
<path d="M154.522 230.115V235.654H169.715V230.115M154.522 229.094L153.061 230.115H170.884L169.715 229.094M154.522 229.094H169.715M154.522 229.094V226.616M169.715 229.094V226.616M154.522 226.616H169.715M154.522 226.616C152.454 226.673 151.902 226.377 151.892 225.304H171.76C171.77 226.287 171.412 226.627 169.715 226.616" stroke="#FDC813" stroke-width="0.422838"/>
<path d="M190.167 229.24L188.707 230.26H205.361H206.529L205.361 229.24V226.762C207.058 226.772 207.415 226.432 207.406 225.45H187.538C187.547 226.523 188.1 226.819 190.167 226.762V229.24Z" fill="#FDC813"/>
<path d="M190.167 230.406V235.799H205.361V230.26M190.167 229.24L188.707 230.26H206.529L205.361 229.24M190.167 229.24H205.361M190.167 229.24V226.762M205.361 229.24V226.762M190.167 226.762H205.361M190.167 226.762C188.1 226.819 187.547 226.523 187.538 225.45H207.406C207.415 226.432 207.058 226.772 205.361 226.762" stroke="#FDC813" stroke-width="0.422838"/>
<rect x="0.211419" y="-0.211419" width="10.0956" height="2.49252" rx="0.211419" transform="matrix(1 0 0 -1 156.801 240.624)" fill="#FDC813" stroke="#FDC813" stroke-width="0.422838"/>
<rect x="0.211419" y="-0.211419" width="10.0956" height="2.49252" rx="0.211419" transform="matrix(1 0 0 -1 192.213 240.916)" fill="#FDC813" stroke="#FDC813" stroke-width="0.422838"/>
<ellipse cx="1.16871" cy="0.583071" rx="1.16871" ry="0.583071" transform="matrix(1 0 0 -1 155.982 250.813)" fill="#FDC813"/>
<ellipse cx="1.16871" cy="0.583071" rx="1.16871" ry="0.583071" transform="matrix(1 0 0 -1 159.489 250.813)" fill="#FDC813"/>
<ellipse cx="1.16871" cy="0.583071" rx="1.16871" ry="0.583071" transform="matrix(1 0 0 -1 162.995 250.813)" fill="#FDC813"/>
<ellipse cx="1.16871" cy="0.583071" rx="1.16871" ry="0.583071" transform="matrix(1 0 0 -1 166.501 250.813)" fill="#FDC813"/>
<ellipse cx="1.16871" cy="0.583071" rx="1.16871" ry="0.583071" transform="matrix(1 0 0 -1 170.007 250.813)" fill="#FDC813"/>
<ellipse cx="1.16871" cy="0.583071" rx="1.16871" ry="0.583071" transform="matrix(1 0 0 -1 173.513 250.813)" fill="#FDC813"/>
<ellipse cx="1.16871" cy="0.583071" rx="1.16871" ry="0.583071" transform="matrix(1 0 0 -1 177.019 250.813)" fill="#FDC813"/>
<ellipse cx="1.16871" cy="0.583071" rx="1.16871" ry="0.583071" transform="matrix(1 0 0 -1 180.526 250.813)" fill="#FDC813"/>
<ellipse cx="1.16871" cy="0.583071" rx="1.16871" ry="0.583071" transform="matrix(1 0 0 -1 184.032 250.813)" fill="#FDC813"/>
<ellipse cx="1.16871" cy="0.583071" rx="1.16871" ry="0.583071" transform="matrix(1 0 0 -1 187.538 250.813)" fill="#FDC813"/>
<ellipse cx="1.16871" cy="0.583071" rx="1.16871" ry="0.583071" transform="matrix(1 0 0 -1 191.044 250.813)" fill="#FDC813"/>
<ellipse cx="1.16871" cy="0.583071" rx="1.16871" ry="0.583071" transform="matrix(1 0 0 -1 194.55 250.813)" fill="#FDC813"/>
<ellipse cx="1.16871" cy="0.583071" rx="1.16871" ry="0.583071" transform="matrix(1 0 0 -1 198.056 250.813)" fill="#FDC813"/>
<ellipse cx="1.16871" cy="0.583071" rx="1.16871" ry="0.583071" transform="matrix(1 0 0 -1 201.562 250.813)" fill="#FDC813"/>
<mask id="path-231-inside-7_103_827" fill="white">
<path fill-rule="evenodd" clip-rule="evenodd" d="M166.955 232.532V230.005H157.606V232.532V232.629H157.61C157.721 233.765 159.77 234.67 162.281 234.67C164.791 234.67 166.84 233.765 166.951 232.629H166.955V232.532Z"/>
</mask>
<path fill-rule="evenodd" clip-rule="evenodd" d="M166.955 232.532V230.005H157.606V232.532V232.629H157.61C157.721 233.765 159.77 234.67 162.281 234.67C164.791 234.67 166.84 233.765 166.951 232.629H166.955V232.532Z" fill="#FDC813"/>
<path d="M166.955 230.005V229.582H167.378V230.005H166.955ZM157.606 230.005H157.183V229.582H157.606V230.005ZM157.606 232.629V233.052H157.183V232.629H157.606ZM157.61 232.629V232.206H157.994L158.031 232.588L157.61 232.629ZM166.951 232.629L166.53 232.588L166.567 232.206H166.951V232.629ZM166.955 232.629H167.378V233.052H166.955V232.629ZM166.533 232.532V230.005H167.378V232.532H166.533ZM166.955 230.428H157.606V229.582H166.955V230.428ZM158.029 230.005V232.532H157.183V230.005H158.029ZM158.029 232.532V232.629H157.183V232.532H158.029ZM157.606 232.206H157.61V233.052H157.606V232.206ZM158.031 232.588C158.063 232.913 158.405 233.333 159.215 233.688C159.991 234.028 161.071 234.247 162.281 234.247V235.093C160.979 235.093 159.78 234.859 158.876 234.463C158.006 234.081 157.269 233.481 157.19 232.67L158.031 232.588ZM162.281 234.247C163.49 234.247 164.57 234.028 165.346 233.688C166.156 233.333 166.498 232.913 166.53 232.588L167.372 232.67C167.292 233.481 166.555 234.081 165.685 234.463C164.782 234.859 163.582 235.093 162.281 235.093V234.247ZM166.951 232.206H166.955V233.052H166.951V232.206ZM166.533 232.629V232.532H167.378V232.629H166.533Z" fill="#FDC813" mask="url(#path-231-inside-7_103_827)"/>
<mask id="path-233-inside-8_103_827" fill="white">
<path fill-rule="evenodd" clip-rule="evenodd" d="M202.439 232.353V230.114H193.089V232.353V232.602H193.117C193.371 233.744 195.355 234.633 197.764 234.633C200.173 234.633 202.157 233.744 202.411 232.602H202.439V232.353Z"/>
</mask>
<path fill-rule="evenodd" clip-rule="evenodd" d="M202.439 232.353V230.114H193.089V232.353V232.602H193.117C193.371 233.744 195.355 234.633 197.764 234.633C200.173 234.633 202.157 233.744 202.411 232.602H202.439V232.353Z" fill="#FDC813"/>
<path d="M202.439 230.114V229.692H202.862V230.114H202.439ZM193.089 230.114H192.666V229.692H193.089V230.114ZM193.089 232.602V233.025H192.666V232.602H193.089ZM193.117 232.602V232.179H193.456L193.529 232.51L193.117 232.602ZM202.411 232.602L201.998 232.51L202.072 232.179H202.411V232.602ZM202.439 232.602H202.862V233.025H202.439V232.602ZM202.016 232.353V230.114H202.862V232.353H202.016ZM202.439 230.537H193.089V229.692H202.439V230.537ZM193.512 230.114V232.353H192.666V230.114H193.512ZM193.512 232.353V232.602H192.666V232.353H193.512ZM193.089 232.179H193.117V233.025H193.089V232.179ZM193.529 232.51C193.612 232.881 194.014 233.312 194.803 233.659C195.569 233.996 196.607 234.21 197.764 234.21V235.056C196.512 235.056 195.354 234.826 194.462 234.433C193.594 234.051 192.876 233.465 192.704 232.694L193.529 232.51ZM197.764 234.21C198.921 234.21 199.959 233.996 200.725 233.659C201.514 233.312 201.916 232.881 201.998 232.51L202.824 232.694C202.652 233.465 201.934 234.051 201.066 234.433C200.174 234.826 199.016 235.056 197.764 235.056V234.21ZM202.411 232.179H202.439V233.025H202.411V232.179ZM202.016 232.602V232.353H202.862V232.602H202.016Z" fill="#FDC813" mask="url(#path-233-inside-8_103_827)"/>
<path d="M423.846 236.04V223.5H494V236.04L483.324 242.5H433.759L423.846 236.04Z" fill="#DFB114"/>
<path d="M440.883 232.25V224H486.984V232.25L479.969 236.5H447.397L440.883 232.25Z" fill="#FDC813"/>
<path d="M270.509 236.54V224H340.663V236.54L329.987 243H280.422L270.509 236.54Z" fill="#DFB114"/>
<path d="M325.63 233.25V225H371.731V233.25L364.716 237.5H332.144L325.63 233.25Z" fill="#FDC813"/>
<path d="M393.279 244L387.767 240.5V224H425.85V240.5L419.837 244H393.279Z" fill="#FDC813"/>
<path d="M39 239.899L41.255 242.5H75.4551L78.0859 239.899V225H39V239.899Z" fill="#FDC813"/>
<path d="M139.22 233.25V225H93.1189V233.25L100.134 237.5H132.706L139.22 233.25Z" fill="#FDC813"/>
</g>
<path d="M18.6411 19.2259L209.237 12.1738L153.654 66.5755L23.6789 55.7704L18.6411 19.2259Z" fill="#9E571E"/>
<path d="M15.978 15.5977H201.628L151.223 62.0102L20.7489 53.1496L15.978 15.5977Z" fill="#FFC941"/>
<path d="M343.529 253.748H520.049V299.399L353.267 283.927L343.529 253.748Z" fill="white" fill-opacity="0.4"/>
<path d="M340.486 249.943H517.006V295.595L350.224 280.123L340.486 249.943Z" fill="white"/>
<path d="M345.32 221.411H350.646L349.124 246.139L345.613 244.402L345.32 221.411Z" fill="white" fill-opacity="0.4"/>
<path d="M320.58 232.301L327.63 228.449L340.755 246.329L337.135 248.258L320.58 232.301Z" fill="white" fill-opacity="0.4"/>
<path d="M320.782 261.356L318.421 255.027L336.301 251.973L336.57 256.601L320.782 261.356Z" fill="white" fill-opacity="0.4"/>
<path d="M343.91 220.27H349.236L347.714 244.998L344.203 243.261L343.91 220.27Z" fill="white"/>
<path d="M319.169 231.541L326.22 227.688L339.345 245.568L335.725 247.497L319.169 231.541Z" fill="white"/>
<path d="M319.372 260.215L317.011 253.886L334.891 250.831L335.16 255.46L319.372 260.215Z" fill="white"/>
<path d="M149.643 59.656L194.921 15.5977H201.629L151.272 62.0102L20.9238 53.1496L149.643 59.656Z" fill="#F6B40E"/>
<path d="M48.3375 35.6908C48.5189 35.6908 48.6584 35.7815 48.756 35.9628C48.8676 36.1302 48.9234 36.3464 48.9234 36.6114C48.9234 36.9323 48.8746 37.1834 48.7769 37.3647C48.6793 37.546 48.5258 37.7065 48.3166 37.8459C47.4936 38.39 46.1824 39.2827 44.3829 40.5242C43.8389 43.4116 43.1345 45.6854 42.2697 47.3453C41.4048 49.0053 40.3098 49.8352 38.9846 49.8352C38.2732 49.8352 37.6943 49.612 37.248 49.1657C36.8016 48.7332 36.5784 48.1613 36.5784 47.4499C36.5784 46.7943 36.7249 46.1317 37.0178 45.4622C37.3107 44.7926 37.8548 44.0184 38.6499 43.1396C39.4589 42.2608 40.5958 41.2565 42.0604 40.1266L42.1232 39.7291C41.0212 40.1894 39.9401 40.4196 38.88 40.4196C37.3177 40.4196 35.9437 40.1197 34.758 39.5198C33.5724 38.9061 32.6517 38.0412 31.9961 36.9253C31.3405 35.8094 31.0127 34.5121 31.0127 33.0335C31.0127 30.969 31.4033 29.1487 32.1844 27.5724C32.9656 25.9822 34.0397 24.7547 35.4067 23.8898C36.7876 23.011 38.329 22.5716 40.0308 22.5716C41.6629 22.5716 42.8834 22.9552 43.6925 23.7224C44.5155 24.4757 44.927 25.48 44.927 26.7355C44.927 27.5585 44.7735 28.221 44.4666 28.7232C44.1737 29.2114 43.7483 29.4555 43.1903 29.4555C42.8137 29.4555 42.5068 29.3649 42.2697 29.1835C42.0465 29.0022 41.9349 28.7511 41.9349 28.4303C41.9349 28.2908 41.9628 28.0537 42.0186 27.7189C42.1023 27.3283 42.1441 27.0214 42.1441 26.7982C42.1441 26.2124 41.9628 25.759 41.6001 25.4382C41.2514 25.1174 40.6585 24.9569 39.8216 24.9569C38.8033 24.9569 37.8548 25.2499 36.976 25.8357C36.1111 26.4216 35.4137 27.3004 34.8836 28.4721C34.3535 29.6299 34.0885 31.0248 34.0885 32.6569C34.0885 34.3308 34.5418 35.628 35.4485 36.5487C36.3692 37.4554 37.6943 37.9087 39.424 37.9087C40.3865 37.9087 41.3909 37.6925 42.437 37.2601L42.73 34.7074H40.5958C40.2052 34.7074 39.9053 34.6167 39.696 34.4354C39.4868 34.2401 39.3822 33.9262 39.3822 33.4938C39.3822 33.1032 39.4868 32.7964 39.696 32.5732C39.9053 32.35 40.1843 32.2384 40.533 32.2384H44.4457C44.7526 32.2384 45.0037 32.343 45.199 32.5522C45.4082 32.7475 45.4919 33.0335 45.4501 33.4101C45.4082 33.8565 45.2687 34.8678 45.0316 36.4441L44.8014 38.0343C45.9174 37.1973 46.9356 36.472 47.8563 35.8582C48.0376 35.7466 48.198 35.6908 48.3375 35.6908ZM39.2148 47.8056C39.5775 47.8056 39.975 47.3941 40.4074 46.5711C40.8399 45.7481 41.2444 44.423 41.621 42.5956C40.5609 43.5023 39.7937 44.3183 39.3194 45.0437C38.8591 45.783 38.6289 46.4316 38.6289 46.9896C38.6289 47.5336 38.8242 47.8056 39.2148 47.8056ZM48.8984 40.4196C48.3683 40.4196 47.9917 40.1406 47.7685 39.5826C47.5593 39.0246 47.4546 38.1319 47.4546 36.9044C47.4546 35.091 47.7127 33.3683 48.2288 31.7362C48.3544 31.3317 48.5566 31.0388 48.8356 30.8574C49.1285 30.6621 49.5331 30.5645 50.0492 30.5645C50.3282 30.5645 50.5235 30.5994 50.635 30.6691C50.7466 30.7389 50.8024 30.8714 50.8024 31.0667C50.8024 31.2899 50.6978 31.792 50.4886 32.5732C50.3491 33.1311 50.2375 33.6194 50.1538 34.0378C50.0701 34.4563 50.0004 34.9724 49.9446 35.5862C50.4049 34.3866 50.921 33.4101 51.4929 32.6569C52.0648 31.9036 52.6228 31.3666 53.1668 31.0457C53.7248 30.7249 54.2339 30.5645 54.6942 30.5645C55.6009 30.5645 56.0543 31.0178 56.0543 31.9245C56.0543 32.1059 55.9915 32.5453 55.866 33.2427C55.7544 33.8007 55.6986 34.1494 55.6986 34.2889C55.6986 34.7771 55.8729 35.0212 56.2217 35.0212C56.6123 35.0212 57.1144 34.7144 57.7282 34.1006C57.9095 33.9193 58.0978 33.8286 58.2931 33.8286C58.4745 33.8286 58.614 33.9123 58.7116 34.0797C58.8232 34.2331 58.879 34.4424 58.879 34.7074C58.879 35.2235 58.7395 35.628 58.4605 35.921C58.0699 36.3255 57.6096 36.6742 57.0795 36.9671C56.5634 37.2461 56.0124 37.3856 55.4266 37.3856C54.6873 37.3856 54.1223 37.1973 53.7318 36.8207C53.3551 36.4441 53.1668 35.9349 53.1668 35.2933C53.1668 35.084 53.1877 34.8748 53.2296 34.6655C53.2575 34.3866 53.2714 34.1982 53.2714 34.1006C53.2714 33.8774 53.1947 33.7658 53.0413 33.7658C52.832 33.7658 52.5531 34.003 52.2043 34.4772C51.8695 34.9375 51.5348 35.5513 51.2 36.3185C50.8652 37.0857 50.5932 37.8948 50.384 38.7457C50.2305 39.4013 50.0492 39.8476 49.8399 40.0848C49.6447 40.308 49.3308 40.4196 48.8984 40.4196ZM66.2667 35.649C66.448 35.649 66.5875 35.7327 66.6852 35.9C66.7968 36.0674 66.8526 36.2976 66.8526 36.5905C66.8526 37.1485 66.72 37.5809 66.455 37.8878C65.9389 38.5155 65.2066 39.0944 64.258 39.6245C63.3234 40.1545 62.3191 40.4196 61.245 40.4196C59.7803 40.4196 58.6435 40.022 57.8344 39.2269C57.0254 38.4318 56.6209 37.3438 56.6209 35.9628C56.6209 35.0003 56.8231 34.1076 57.2276 33.2846C57.6322 32.4476 58.1901 31.785 58.9015 31.2968C59.6269 30.8086 60.4429 30.5645 61.3496 30.5645C62.1587 30.5645 62.8073 30.8086 63.2955 31.2968C63.7837 31.7711 64.0279 32.4197 64.0279 33.2427C64.0279 34.2052 63.6791 35.0352 62.9817 35.7327C62.2982 36.4162 61.1334 36.9602 59.4874 37.3647C59.8361 38.0064 60.4987 38.3272 61.4752 38.3272C62.1029 38.3272 62.8143 38.111 63.6094 37.6786C64.4184 37.2322 65.1159 36.6533 65.7017 35.9419C65.8691 35.7466 66.0575 35.649 66.2667 35.649ZM60.9939 32.615C60.4778 32.615 60.0384 32.9149 59.6757 33.5147C59.327 34.1146 59.1526 34.8399 59.1526 35.6908V35.7327C59.9756 35.5374 60.6243 35.2444 61.0985 34.8539C61.5728 34.4633 61.8099 34.0099 61.8099 33.4938C61.8099 33.2288 61.7332 33.0195 61.5798 32.8661C61.4403 32.6987 61.245 32.615 60.9939 32.615ZM74.4809 35.649C74.6622 35.649 74.8017 35.7327 74.8993 35.9C75.0109 36.0674 75.0667 36.2976 75.0667 36.5905C75.0667 37.1485 74.9342 37.5809 74.6692 37.8878C74.1531 38.5155 73.4207 39.0944 72.4722 39.6245C71.5376 40.1545 70.5333 40.4196 69.4592 40.4196C67.9945 40.4196 66.8577 40.022 66.0486 39.2269C65.2396 38.4318 64.835 37.3438 64.835 35.9628C64.835 35.0003 65.0373 34.1076 65.4418 33.2846C65.8464 32.4476 66.4043 31.785 67.1157 31.2968C67.8411 30.8086 68.6571 30.5645 69.5638 30.5645C70.3729 30.5645 71.0215 30.8086 71.5097 31.2968C71.9979 31.7711 72.242 32.4197 72.242 33.2427C72.242 34.2052 71.8933 35.0352 71.1959 35.7327C70.5123 36.4162 69.3476 36.9602 67.7016 37.3647C68.0503 38.0064 68.7129 38.3272 69.6893 38.3272C70.3171 38.3272 71.0285 38.111 71.8236 37.6786C72.6326 37.2322 73.3301 36.6533 73.9159 35.9419C74.0833 35.7466 74.2716 35.649 74.4809 35.649ZM69.2081 32.615C68.692 32.615 68.2526 32.9149 67.8899 33.5147C67.5412 34.1146 67.3668 34.8399 67.3668 35.6908V35.7327C68.1898 35.5374 68.8384 35.2444 69.3127 34.8539C69.787 34.4633 70.0241 34.0099 70.0241 33.4938C70.0241 33.2288 69.9474 33.0195 69.794 32.8661C69.6545 32.6987 69.4592 32.615 69.2081 32.615ZM82.6951 35.649C82.8764 35.649 83.0159 35.7327 83.1135 35.9C83.2251 36.0674 83.2809 36.2976 83.2809 36.5905C83.2809 37.1485 83.1484 37.5809 82.8834 37.8878C82.2836 38.6271 81.628 39.2339 80.9165 39.7082C80.2051 40.1824 79.3891 40.4196 78.4685 40.4196C75.6229 40.4196 74.2 38.4179 74.2 34.4145C74.2 33.8007 74.221 33.18 74.2628 32.5522H73.4468C73.0283 32.5522 72.7424 32.4755 72.5889 32.3221C72.4494 32.1686 72.3797 31.9245 72.3797 31.5898C72.3797 30.8086 72.6935 30.418 73.3212 30.418H74.5139C74.751 28.8836 75.1137 27.4817 75.6019 26.2124C76.0901 24.943 76.676 23.9317 77.3595 23.1784C78.057 22.4252 78.8033 22.0485 79.5984 22.0485C80.1842 22.0485 80.6445 22.3066 80.9793 22.8227C81.3141 23.3388 81.4815 23.9875 81.4815 24.7686C81.4815 26.9307 80.5748 28.8139 78.7614 30.418H81.1049C81.328 30.418 81.4885 30.4669 81.5861 30.5645C81.6838 30.6621 81.7326 30.8435 81.7326 31.1085C81.7326 32.071 80.9444 32.5522 79.3682 32.5522H76.8155C76.7876 33.2497 76.7737 33.7937 76.7737 34.1843C76.7737 35.635 76.941 36.6533 77.2758 37.2392C77.6246 37.825 78.1686 38.118 78.9079 38.118C79.5077 38.118 80.0378 37.9366 80.4981 37.5739C80.9584 37.2113 81.5024 36.6672 82.1301 35.9419C82.2975 35.7466 82.4858 35.649 82.6951 35.649ZM79.0334 24.0572C78.8242 24.0572 78.587 24.3223 78.322 24.8523C78.0709 25.3684 77.8268 26.0938 77.5897 27.0284C77.3665 27.949 77.1782 28.9743 77.0247 30.1042C77.8477 29.3928 78.4615 28.5977 78.866 27.7189C79.2845 26.8261 79.4937 26.0171 79.4937 25.2917C79.4937 24.4687 79.3403 24.0572 79.0334 24.0572ZM84.3183 29.1835C83.7324 29.1835 83.293 29.051 83.0001 28.786C82.7072 28.507 82.5607 28.1234 82.5607 27.6352C82.5607 27.147 82.749 26.7424 83.1256 26.4216C83.5162 26.0868 83.9975 25.9194 84.5694 25.9194C85.0855 25.9194 85.504 26.045 85.8248 26.2961C86.1456 26.5471 86.306 26.9028 86.306 27.3632C86.306 27.9211 86.1247 28.3675 85.762 28.7023C85.3993 29.0231 84.9181 29.1835 84.3183 29.1835ZM84.1509 40.4196C83.2442 40.4196 82.5816 40.0987 82.1631 39.4571C81.7586 38.8154 81.5564 37.9645 81.5564 36.9044C81.5564 36.2767 81.6331 35.4746 81.7865 34.4982C81.9539 33.5078 82.1631 32.5871 82.4142 31.7362C82.5398 31.2899 82.7072 30.983 82.9164 30.8156C83.1256 30.6482 83.4604 30.5645 83.9207 30.5645C84.6321 30.5645 84.9878 30.8016 84.9878 31.2759C84.9878 31.6246 84.8553 32.4337 84.5903 33.7031C84.2555 35.2375 84.0881 36.2767 84.0881 36.8207C84.0881 37.2392 84.1439 37.56 84.2555 37.7832C84.3671 38.0064 84.5554 38.118 84.8205 38.118C85.0715 38.118 85.3854 37.9436 85.762 37.5949C86.1386 37.2461 86.6408 36.6951 87.2685 35.9419C87.4359 35.7466 87.6242 35.649 87.8335 35.649C88.0148 35.649 88.1543 35.7327 88.2519 35.9C88.3635 36.0674 88.4193 36.2976 88.4193 36.5905C88.4193 37.1485 88.2868 37.5809 88.0218 37.8878C86.6408 39.5756 85.3505 40.4196 84.1509 40.4196ZM88.2121 40.4196C87.682 40.4196 87.3054 40.1406 87.0822 39.5826C86.8729 39.0246 86.7683 38.1319 86.7683 36.9044C86.7683 35.091 87.0264 33.3683 87.5425 31.7362C87.668 31.3317 87.8703 31.0388 88.1493 30.8574C88.4422 30.6621 88.8467 30.5645 89.3629 30.5645C89.6418 30.5645 89.8371 30.5994 89.9487 30.6691C90.0603 30.7389 90.1161 30.8714 90.1161 31.0667C90.1161 31.2899 90.0115 31.792 89.8023 32.5732C89.6628 33.1311 89.5512 33.6194 89.4675 34.0378C89.3838 34.4563 89.314 34.9724 89.2582 35.5862C89.7186 34.3866 90.2347 33.4101 90.8066 32.6569C91.3785 31.9036 91.9365 31.3666 92.4805 31.0457C93.0385 30.7249 93.5476 30.5645 94.0079 30.5645C94.9146 30.5645 95.368 31.0178 95.368 31.9245C95.368 32.4686 95.2145 33.452 94.9076 34.8748C94.6426 36.0884 94.5101 36.8904 94.5101 37.281C94.5101 37.839 94.7124 38.118 95.1169 38.118C95.3959 38.118 95.7237 37.9506 96.1003 37.6158C96.4909 37.2671 97.007 36.7091 97.6486 35.9419C97.816 35.7466 98.0043 35.649 98.2136 35.649C98.3949 35.649 98.5344 35.7327 98.6321 35.9C98.7437 36.0674 98.7994 36.2976 98.7994 36.5905C98.7994 37.1485 98.6669 37.5809 98.4019 37.8878C97.8021 38.6271 97.1535 39.2339 96.456 39.7082C95.7725 40.1824 94.9913 40.4196 94.1125 40.4196C93.4011 40.4196 92.8641 40.2173 92.5014 39.8128C92.1387 39.3943 91.9574 38.7945 91.9574 38.0133C91.9574 37.6228 92.055 36.9253 92.2503 35.921C92.4317 35.0422 92.5223 34.4354 92.5223 34.1006C92.5223 33.8774 92.4456 33.7658 92.2922 33.7658C92.1108 33.7658 91.8528 34.003 91.518 34.4772C91.1972 34.9375 90.8624 35.5513 90.5137 36.3185C90.1789 37.0857 89.9069 37.8948 89.6976 38.7457C89.5442 39.4013 89.3629 39.8476 89.1536 40.0848C88.9583 40.308 88.6445 40.4196 88.2121 40.4196ZM104.2 31.255C104.548 31.255 104.793 31.3108 104.932 31.4224C105.085 31.52 105.162 31.7223 105.162 32.0292C105.162 32.1965 105.155 32.3291 105.141 32.4267C105.085 32.8591 104.911 33.9751 104.618 35.7745C104.409 36.9881 104.276 37.7901 104.221 38.1807C103.691 41.7796 102.972 44.6182 102.066 46.6967C101.173 48.789 99.9731 49.8352 98.4666 49.8352C97.7552 49.8352 97.1763 49.612 96.73 49.1657C96.2836 48.7332 96.0604 48.1613 96.0604 47.4499C96.0604 46.4595 96.451 45.3924 97.2321 44.2486C98.0133 43.1187 99.4779 41.7238 101.626 40.0639L101.752 39.2478C101.515 39.6245 101.201 39.9174 100.81 40.1266C100.433 40.3219 100.057 40.4196 99.6802 40.4196C98.8154 40.4196 98.1249 40.1057 97.6088 39.478C97.0926 38.8503 96.8346 38.0273 96.8346 37.009C96.8346 35.8931 97.0926 34.8399 97.6088 33.8495C98.1249 32.8452 98.8084 32.0431 99.6593 31.4433C100.524 30.8295 101.438 30.5226 102.4 30.5226C102.707 30.5226 102.909 30.5854 103.007 30.711C103.119 30.8226 103.209 31.0318 103.279 31.3387C103.544 31.2829 103.851 31.255 104.2 31.255ZM100.433 38.3063C100.754 38.3063 101.061 38.111 101.354 37.7204C101.647 37.3298 101.856 36.7719 101.982 36.0465L102.651 32.4686C102.079 32.4825 101.549 32.7057 101.061 33.1381C100.573 33.5566 100.182 34.1146 99.8894 34.812C99.5965 35.5095 99.45 36.2488 99.45 37.0299C99.45 37.4623 99.5337 37.7832 99.7011 37.9924C99.8825 38.2016 100.127 38.3063 100.433 38.3063ZM98.6968 47.8056C99.0455 47.8056 99.4361 47.3872 99.8685 46.5502C100.315 45.7133 100.74 44.3811 101.145 42.5538C100.071 43.4744 99.2966 44.3044 98.8223 45.0437C98.3481 45.783 98.1109 46.4316 98.1109 46.9896C98.1109 47.2267 98.1528 47.422 98.2365 47.5755C98.3341 47.7289 98.4876 47.8056 98.6968 47.8056ZM110.296 40.8799C109.57 40.8799 109.012 40.7125 108.622 40.3777C108.245 40.0429 108.057 39.6663 108.057 39.2478C108.057 38.8852 108.189 38.5713 108.454 38.3063C108.719 38.0412 109.11 37.9087 109.626 37.9087C109.807 37.9087 110.017 37.9296 110.254 37.9715C110.505 37.9994 110.693 38.0203 110.819 38.0343C110.805 37.6716 110.721 37.3298 110.568 37.009C110.428 36.6882 110.247 36.3813 110.024 36.0884C109.8 35.7815 109.591 35.5164 109.396 35.2933C108.963 36.1163 108.531 36.7998 108.099 37.3438C107.68 37.8878 107.22 38.4039 106.718 38.8921C106.467 39.1432 106.201 39.2688 105.922 39.2688C105.699 39.2688 105.518 39.192 105.378 39.0386C105.239 38.8712 105.169 38.6689 105.169 38.4318C105.169 38.1528 105.267 37.8948 105.462 37.6576L105.734 37.3229C106.501 36.3743 107.08 35.5932 107.471 34.9794C107.722 34.5749 107.973 34.0936 108.224 33.5357C108.489 32.9777 108.831 32.2175 109.249 31.255C109.514 30.6412 110.065 30.3343 110.902 30.3343C111.293 30.3343 111.565 30.3692 111.718 30.439C111.872 30.5087 111.949 30.6203 111.949 30.7737C111.949 30.8574 111.921 30.9899 111.865 31.1713C111.809 31.3526 111.732 31.534 111.635 31.7153C111.384 32.2175 111.258 32.6429 111.258 32.9916C111.258 33.2009 111.328 33.431 111.467 33.6821C111.621 33.9332 111.851 34.2471 112.158 34.6237C112.604 35.2096 112.939 35.7117 113.162 36.1302C113.399 36.5347 113.518 36.9811 113.518 37.4693C113.518 38.0552 113.378 38.6131 113.099 39.1432C112.834 39.6593 112.458 40.0778 111.969 40.3986C111.481 40.7195 110.923 40.8799 110.296 40.8799ZM128.524 34.4563C128.915 34.4563 129.11 34.7492 129.11 35.3351C129.11 36.4371 128.245 36.9881 126.516 36.9881C126.181 36.9881 125.7 36.9253 125.072 36.7998C125.253 37.6646 125.4 38.6271 125.511 39.6872C125.637 40.7334 125.7 41.5983 125.7 42.2818C125.7 43.7883 125.456 44.9391 124.967 45.7342C124.479 46.5293 123.837 46.9268 123.042 46.9268C122.038 46.9268 121.32 46.2154 120.887 44.7926C120.469 43.3698 120.259 41.2216 120.259 38.3481C120.259 35.6699 120.545 32.9568 121.117 30.2088C121.703 27.4469 122.498 25.1662 123.503 23.3667C124.521 21.5534 125.637 20.6467 126.85 20.6467C127.506 20.6467 128.015 20.9396 128.378 21.5255C128.755 22.1113 128.943 22.8994 128.943 23.8898C128.943 27.1679 126.983 30.7389 123.063 34.6028C122.924 35.9698 122.854 37.1694 122.854 38.2016C122.854 39.6384 122.903 41.11 123 42.6165C123.098 44.137 123.259 44.8972 123.482 44.8972C123.9 44.8972 124.109 44.1719 124.109 42.7212C124.109 41.6331 124.033 40.58 123.879 39.5617C123.74 38.5434 123.545 37.4693 123.293 36.3394C123.279 36.1581 123.335 35.9279 123.461 35.649C123.6 35.37 123.768 35.1259 123.963 34.9166C124.158 34.7074 124.333 34.6028 124.486 34.6028C124.765 34.6028 125.1 34.6167 125.49 34.6446C125.616 34.6586 125.762 34.6655 125.93 34.6655C126.488 34.6655 127.109 34.6167 127.792 34.5191C127.904 34.5051 128.022 34.4912 128.148 34.4772C128.273 34.4633 128.399 34.4563 128.524 34.4563ZM126.411 22.7181C126.16 22.7181 125.846 23.1436 125.469 23.9945C125.107 24.8454 124.744 25.9752 124.381 27.3841C124.019 28.779 123.705 30.2576 123.44 31.8199C124.556 30.5505 125.414 29.2324 126.013 27.8653C126.613 26.4844 126.92 25.1941 126.934 23.9945C126.934 23.1436 126.76 22.7181 126.411 22.7181ZM129.017 40.4196C128.487 40.4196 128.111 40.1406 127.887 39.5826C127.678 39.0246 127.574 38.1319 127.574 36.9044C127.574 35.091 127.832 33.3683 128.348 31.7362C128.473 31.3317 128.676 31.0388 128.955 30.8574C129.248 30.6621 129.652 30.5645 130.168 30.5645C130.447 30.5645 130.642 30.5994 130.754 30.6691C130.866 30.7389 130.921 30.8714 130.921 31.0667C130.921 31.2899 130.817 31.792 130.608 32.5732C130.468 33.1311 130.356 33.6194 130.273 34.0378C130.189 34.4563 130.119 34.9724 130.064 35.5862C130.524 34.3866 131.04 33.4101 131.612 32.6569C132.184 31.9036 132.742 31.3666 133.286 31.0457C133.844 30.7249 134.353 30.5645 134.813 30.5645C135.72 30.5645 136.173 31.0178 136.173 31.9245C136.173 32.1059 136.11 32.5453 135.985 33.2427C135.873 33.8007 135.818 34.1494 135.818 34.2889C135.818 34.7771 135.992 35.0212 136.341 35.0212C136.731 35.0212 137.233 34.7144 137.847 34.1006C138.028 33.9193 138.217 33.8286 138.412 33.8286C138.593 33.8286 138.733 33.9123 138.831 34.0797C138.942 34.2331 138.998 34.4424 138.998 34.7074C138.998 35.2235 138.858 35.628 138.579 35.921C138.189 36.3255 137.729 36.6742 137.199 36.9671C136.682 37.2461 136.131 37.3856 135.546 37.3856C134.806 37.3856 134.241 37.1973 133.851 36.8207C133.474 36.4441 133.286 35.9349 133.286 35.2933C133.286 35.084 133.307 34.8748 133.349 34.6655C133.376 34.3866 133.39 34.1982 133.39 34.1006C133.39 33.8774 133.314 33.7658 133.16 33.7658C132.951 33.7658 132.672 34.003 132.323 34.4772C131.989 34.9375 131.654 35.5513 131.319 36.3185C130.984 37.0857 130.712 37.8948 130.503 38.7457C130.349 39.4013 130.168 39.8476 129.959 40.0848C129.764 40.308 129.45 40.4196 129.017 40.4196ZM147.725 33.8914C147.906 33.8914 148.046 33.982 148.143 34.1634C148.241 34.3447 148.29 34.5749 148.29 34.8539C148.29 35.5234 148.087 35.921 147.683 36.0465C146.846 36.3394 145.925 36.5068 144.921 36.5487C144.656 37.7204 144.133 38.662 143.352 39.3734C142.571 40.0708 141.685 40.4196 140.694 40.4196C139.857 40.4196 139.139 40.2173 138.539 39.8128C137.953 39.4082 137.507 38.8712 137.2 38.2016C136.893 37.5321 136.74 36.8067 136.74 36.0256C136.74 34.9654 136.942 34.0239 137.347 33.2009C137.751 32.3639 138.309 31.7153 139.021 31.255C139.732 30.7807 140.52 30.5436 141.385 30.5436C142.445 30.5436 143.296 30.9132 143.938 31.6525C144.593 32.3779 144.977 33.2776 145.088 34.3517C145.744 34.3098 146.525 34.1703 147.432 33.9332C147.543 33.9053 147.641 33.8914 147.725 33.8914ZM140.862 38.2016C141.308 38.2016 141.692 38.0203 142.013 37.6576C142.347 37.295 142.571 36.7719 142.682 36.0884C142.25 35.7954 141.915 35.4118 141.678 34.9375C141.455 34.4633 141.343 33.9611 141.343 33.431C141.343 33.2079 141.364 32.9847 141.406 32.7615H141.301C140.743 32.7615 140.276 33.0335 139.899 33.5775C139.537 34.1076 139.355 34.8608 139.355 35.8373C139.355 36.6045 139.502 37.1903 139.795 37.5949C140.102 37.9994 140.457 38.2016 140.862 38.2016ZM147.979 40.4196C147.449 40.4196 147.073 40.1406 146.85 39.5826C146.64 39.0246 146.536 38.1319 146.536 36.9044C146.536 35.091 146.794 33.3683 147.31 31.7362C147.435 31.3317 147.638 31.0388 147.917 30.8574C148.21 30.6621 148.614 30.5645 149.13 30.5645C149.409 30.5645 149.605 30.5994 149.716 30.6691C149.828 30.7389 149.884 30.8714 149.884 31.0667C149.884 31.2899 149.779 31.792 149.57 32.5732C149.43 33.1311 149.319 33.6194 149.235 34.0378C149.151 34.4424 149.081 34.9515 149.026 35.5653C149.402 34.4772 149.849 33.5566 150.365 32.8033C150.895 32.0501 151.432 31.4921 151.976 31.1294C152.534 30.7528 153.057 30.5645 153.545 30.5645C154.033 30.5645 154.375 30.6761 154.57 30.8993C154.78 31.1225 154.884 31.4642 154.884 31.9245C154.884 32.3709 154.752 33.18 154.487 34.3517C154.375 34.8539 154.298 35.2305 154.257 35.4816C154.717 34.3098 155.226 33.3543 155.784 32.615C156.356 31.8757 156.914 31.3526 157.458 31.0457C158.002 30.7249 158.504 30.5645 158.964 30.5645C159.411 30.5645 159.746 30.6831 159.969 30.9202C160.206 31.1434 160.324 31.4782 160.324 31.9245C160.324 32.2872 160.248 32.9707 160.094 33.9751C159.955 34.826 159.843 35.635 159.76 36.4022C159.676 37.1555 159.634 37.9994 159.634 38.934C159.634 39.464 159.522 39.8476 159.299 40.0848C159.09 40.308 158.741 40.4196 158.253 40.4196C157.793 40.4196 157.458 40.301 157.249 40.0639C157.039 39.8267 156.935 39.471 156.935 38.9967C156.935 38.4388 157.032 37.5181 157.228 36.2348C157.395 35.1189 157.479 34.4075 157.479 34.1006C157.479 33.8774 157.402 33.7658 157.249 33.7658C157.067 33.7658 156.809 34.003 156.474 34.4772C156.14 34.9375 155.805 35.5513 155.47 36.3185C155.135 37.0857 154.863 37.8948 154.654 38.7457C154.501 39.4152 154.319 39.8616 154.11 40.0848C153.915 40.308 153.594 40.4196 153.148 40.4196C152.687 40.4196 152.339 40.2033 152.101 39.7709C151.878 39.3246 151.767 38.7875 151.767 38.1598C151.767 37.6297 151.836 36.8625 151.976 35.8582C152.087 34.9654 152.143 34.3796 152.143 34.1006C152.143 33.8774 152.067 33.7658 151.913 33.7658C151.704 33.7658 151.439 34.0169 151.118 34.5191C150.797 35.0212 150.483 35.6629 150.176 36.4441C149.884 37.2252 149.646 37.9924 149.465 38.7457C149.312 39.4013 149.13 39.8476 148.921 40.0848C148.726 40.308 148.412 40.4196 147.979 40.4196Z" fill="#74ACDF"/>
<path d="M419.374 267.837C419.753 267.837 420.025 267.919 420.19 268.084C420.371 268.249 420.462 268.463 420.462 268.727C420.462 269.156 420.33 269.535 420.066 269.865C419.819 270.194 419.423 270.368 418.879 270.384C417.56 270.417 416.39 270.318 415.368 270.087C414.197 272.544 412.779 274.588 411.114 276.22C409.466 277.835 407.809 278.643 406.144 278.643C404.43 278.643 403.152 277.646 402.311 275.651C401.471 273.656 401.05 270.961 401.05 267.565C401.05 264.664 401.256 262.059 401.668 259.751C401.817 258.894 402.023 258.317 402.287 258.02C402.567 257.707 403.037 257.55 403.696 257.55C404.784 257.55 405.328 258.02 405.328 258.96C405.328 259.059 405.312 259.24 405.279 259.504C404.784 262.471 404.537 265.158 404.537 267.565C404.537 270.087 404.743 272.008 405.155 273.327C405.584 274.629 406.218 275.28 407.059 275.28C407.916 275.28 408.848 274.687 409.853 273.5C410.859 272.313 411.782 270.821 412.623 269.024C411.617 268.398 410.859 267.59 410.348 266.601C409.837 265.595 409.581 264.441 409.581 263.139C409.581 261.836 409.779 260.74 410.175 259.85C410.587 258.943 411.139 258.267 411.832 257.822C412.54 257.377 413.323 257.155 414.181 257.155C415.236 257.155 416.068 257.534 416.678 258.292C417.305 259.05 417.618 260.089 417.618 261.408C417.618 263.304 417.206 265.372 416.382 267.614C417.255 267.763 418.253 267.837 419.374 267.837ZM412.079 262.966C412.079 264.581 412.598 265.776 413.637 266.551C414.28 264.705 414.601 263.18 414.601 261.976C414.601 261.284 414.51 260.781 414.329 260.468C414.148 260.138 413.9 259.974 413.587 259.974C413.142 259.974 412.779 260.237 412.499 260.765C412.219 261.276 412.079 262.009 412.079 262.966ZM430.667 270.928C430.881 270.928 431.046 271.035 431.161 271.249C431.277 271.464 431.334 271.736 431.334 272.066C431.334 272.857 431.095 273.327 430.617 273.475C429.628 273.821 428.54 274.019 427.353 274.068C427.04 275.453 426.422 276.566 425.499 277.407C424.575 278.231 423.529 278.643 422.358 278.643C421.369 278.643 420.52 278.404 419.811 277.926C419.119 277.448 418.591 276.813 418.229 276.022C417.866 275.231 417.685 274.373 417.685 273.45C417.685 272.197 417.924 271.085 418.402 270.112C418.88 269.123 419.539 268.356 420.38 267.812C421.221 267.252 422.152 266.972 423.174 266.972C424.427 266.972 425.433 267.408 426.191 268.282C426.966 269.139 427.419 270.203 427.551 271.472C428.326 271.423 429.249 271.258 430.321 270.977C430.452 270.945 430.568 270.928 430.667 270.928ZM422.556 276.022C423.084 276.022 423.537 275.808 423.916 275.379C424.312 274.95 424.575 274.332 424.707 273.524C424.196 273.178 423.801 272.725 423.52 272.164C423.257 271.604 423.125 271.01 423.125 270.384C423.125 270.12 423.149 269.856 423.199 269.593H423.075C422.416 269.593 421.864 269.914 421.419 270.557C420.99 271.184 420.776 272.074 420.776 273.228C420.776 274.134 420.949 274.827 421.295 275.305C421.658 275.783 422.078 276.022 422.556 276.022ZM438.584 273.005C438.798 273.005 438.963 273.104 439.079 273.302C439.21 273.5 439.276 273.772 439.276 274.118C439.276 274.777 439.12 275.288 438.807 275.651C438.098 276.525 437.323 277.242 436.482 277.802C435.658 278.363 434.718 278.643 433.663 278.643C432.212 278.643 431.133 277.984 430.424 276.665C429.731 275.346 429.385 273.64 429.385 271.546C429.385 269.535 429.641 267.244 430.152 264.672C430.679 262.1 431.446 259.891 432.451 258.045C433.474 256.198 434.685 255.275 436.086 255.275C436.878 255.275 437.496 255.646 437.941 256.388C438.403 257.113 438.633 258.16 438.633 259.528C438.633 261.49 438.089 263.765 437.001 266.353C435.913 268.942 434.438 271.505 432.575 274.044C432.69 274.72 432.88 275.206 433.144 275.503C433.408 275.783 433.754 275.923 434.182 275.923C434.858 275.923 435.452 275.734 435.963 275.354C436.474 274.959 437.125 274.291 437.916 273.351C438.114 273.121 438.337 273.005 438.584 273.005ZM435.542 257.723C435.163 257.723 434.735 258.407 434.257 259.776C433.779 261.144 433.358 262.842 432.995 264.87C432.633 266.897 432.435 268.843 432.402 270.705C433.572 268.777 434.504 266.848 435.196 264.919C435.889 262.974 436.235 261.202 436.235 259.603C436.235 258.35 436.004 257.723 435.542 257.723ZM439.8 278.643C439.058 278.643 438.448 278.305 437.97 277.629C437.508 276.937 437.278 276.08 437.278 275.058C437.278 273.821 437.36 272.692 437.525 271.67C437.69 270.631 437.962 269.535 438.341 268.381C438.506 267.886 438.737 267.532 439.033 267.318C439.33 267.103 439.8 266.996 440.443 266.996C440.806 266.996 441.053 267.054 441.185 267.169C441.333 267.285 441.407 267.458 441.407 267.689C441.407 267.821 441.317 268.266 441.135 269.024C440.97 269.634 440.838 270.186 440.74 270.681C440.41 272.412 440.245 273.566 440.245 274.143C440.245 274.489 440.286 274.736 440.369 274.885C440.451 275.016 440.583 275.082 440.764 275.082C441.012 275.082 441.317 274.835 441.679 274.34C442.058 273.846 442.454 273.096 442.866 272.09C443.295 271.085 443.707 269.848 444.103 268.381C444.234 267.886 444.432 267.532 444.696 267.318C444.976 267.103 445.388 266.996 445.932 266.996C446.312 266.996 446.575 267.046 446.724 267.145C446.872 267.227 446.946 267.392 446.946 267.639C446.946 268.051 446.74 269.181 446.328 271.027C445.867 273.137 445.636 274.439 445.636 274.934C445.636 275.247 445.702 275.494 445.834 275.676C445.965 275.841 446.139 275.923 446.353 275.923C446.683 275.923 447.07 275.725 447.515 275.33C447.977 274.917 448.587 274.258 449.345 273.351C449.543 273.121 449.765 273.005 450.013 273.005C450.227 273.005 450.392 273.104 450.507 273.302C450.639 273.5 450.705 273.772 450.705 274.118C450.705 274.777 450.548 275.288 450.235 275.651C449.526 276.525 448.76 277.242 447.935 277.802C447.128 278.363 446.204 278.643 445.166 278.643C444.375 278.643 443.789 278.338 443.41 277.728C443.048 277.118 442.866 276.261 442.866 275.157C442.586 276.278 442.166 277.143 441.605 277.753C441.045 278.346 440.443 278.643 439.8 278.643ZM450.456 278.643C449.829 278.643 449.384 278.313 449.12 277.654C448.873 276.995 448.749 275.94 448.749 274.489C448.749 272.346 449.054 270.31 449.664 268.381C449.813 267.903 450.052 267.557 450.381 267.342C450.728 267.112 451.206 266.996 451.816 266.996C452.145 266.996 452.376 267.037 452.508 267.12C452.64 267.202 452.706 267.359 452.706 267.59C452.706 267.854 452.582 268.447 452.335 269.37C452.17 270.03 452.038 270.607 451.939 271.101C451.84 271.596 451.758 272.206 451.692 272.931C452.236 271.513 452.846 270.359 453.522 269.469C454.198 268.579 454.857 267.944 455.5 267.565C456.159 267.186 456.761 266.996 457.305 266.996C458.377 266.996 458.913 267.532 458.913 268.604C458.913 269.247 458.731 270.409 458.369 272.09C458.055 273.524 457.899 274.472 457.899 274.934C457.899 275.593 458.138 275.923 458.616 275.923C458.946 275.923 459.333 275.725 459.778 275.33C460.24 274.917 460.85 274.258 461.608 273.351C461.806 273.121 462.028 273.005 462.276 273.005C462.49 273.005 462.655 273.104 462.77 273.302C462.902 273.5 462.968 273.772 462.968 274.118C462.968 274.777 462.811 275.288 462.498 275.651C461.789 276.525 461.023 277.242 460.198 277.802C459.391 278.363 458.467 278.643 457.429 278.643C456.588 278.643 455.953 278.404 455.525 277.926C455.096 277.431 454.882 276.723 454.882 275.799C454.882 275.338 454.997 274.514 455.228 273.327C455.442 272.288 455.55 271.571 455.55 271.175C455.55 270.912 455.459 270.78 455.278 270.78C455.063 270.78 454.758 271.06 454.363 271.62C453.983 272.164 453.588 272.89 453.176 273.796C452.78 274.703 452.459 275.659 452.211 276.665C452.03 277.44 451.816 277.967 451.568 278.248C451.338 278.511 450.967 278.643 450.456 278.643ZM471.996 273.005C472.21 273.005 472.375 273.104 472.491 273.302C472.622 273.5 472.688 273.772 472.688 274.118C472.688 274.777 472.532 275.288 472.219 275.651C471.51 276.525 470.735 277.242 469.894 277.802C469.053 278.363 468.089 278.643 467.001 278.643C463.638 278.643 461.956 276.278 461.956 271.546C461.956 270.821 461.981 270.087 462.031 269.345H461.066C460.572 269.345 460.234 269.255 460.052 269.073C459.887 268.892 459.805 268.604 459.805 268.208C459.805 267.285 460.176 266.823 460.918 266.823H462.327C462.608 265.01 463.036 263.353 463.613 261.853C464.19 260.353 464.883 259.157 465.69 258.267C466.515 257.377 467.397 256.932 468.336 256.932C469.029 256.932 469.573 257.237 469.968 257.847C470.364 258.457 470.562 259.223 470.562 260.147C470.562 262.702 469.49 264.927 467.347 266.823H470.117C470.38 266.823 470.57 266.881 470.685 266.996C470.801 267.112 470.858 267.326 470.858 267.639C470.858 268.777 469.927 269.345 468.064 269.345H465.047C465.014 270.17 464.998 270.813 464.998 271.274C464.998 272.989 465.196 274.192 465.591 274.885C466.004 275.577 466.646 275.923 467.52 275.923C468.229 275.923 468.856 275.709 469.4 275.28C469.944 274.852 470.586 274.209 471.328 273.351C471.526 273.121 471.749 273.005 471.996 273.005ZM467.669 259.306C467.421 259.306 467.141 259.619 466.828 260.246C466.531 260.855 466.243 261.713 465.962 262.817C465.699 263.905 465.476 265.117 465.295 266.452C466.267 265.612 466.993 264.672 467.471 263.633C467.965 262.578 468.213 261.622 468.213 260.765C468.213 259.792 468.031 259.306 467.669 259.306ZM481.704 273.005C481.918 273.005 482.083 273.104 482.198 273.302C482.33 273.5 482.396 273.772 482.396 274.118C482.396 274.777 482.239 275.288 481.926 275.651C481.316 276.393 480.451 277.077 479.33 277.704C478.225 278.33 477.038 278.643 475.769 278.643C474.038 278.643 472.694 278.173 471.738 277.234C470.782 276.294 470.304 275.008 470.304 273.376C470.304 272.239 470.543 271.184 471.021 270.211C471.499 269.222 472.159 268.439 472.999 267.862C473.857 267.285 474.821 266.996 475.893 266.996C476.849 266.996 477.615 267.285 478.192 267.862C478.769 268.422 479.058 269.189 479.058 270.161C479.058 271.299 478.646 272.28 477.821 273.104C477.014 273.912 475.637 274.555 473.692 275.033C474.104 275.791 474.887 276.17 476.041 276.17C476.783 276.17 477.624 275.915 478.563 275.404C479.519 274.876 480.344 274.192 481.036 273.351C481.234 273.121 481.456 273.005 481.704 273.005ZM475.472 269.42C474.862 269.42 474.343 269.774 473.914 270.483C473.502 271.192 473.296 272.049 473.296 273.055V273.104C474.269 272.873 475.035 272.527 475.596 272.066C476.156 271.604 476.437 271.068 476.437 270.458C476.437 270.145 476.346 269.898 476.165 269.716C476 269.519 475.769 269.42 475.472 269.42ZM491.411 273.005C491.626 273.005 491.79 273.104 491.906 273.302C492.038 273.5 492.104 273.772 492.104 274.118C492.104 274.777 491.947 275.288 491.634 275.651C491.024 276.393 490.158 277.077 489.037 277.704C487.933 278.33 486.746 278.643 485.477 278.643C483.746 278.643 482.402 278.173 481.446 277.234C480.49 276.294 480.012 275.008 480.012 273.376C480.012 272.239 480.251 271.184 480.729 270.211C481.207 269.222 481.866 268.439 482.707 267.862C483.564 267.285 484.529 266.996 485.6 266.996C486.556 266.996 487.323 267.285 487.9 267.862C488.477 268.422 488.765 269.189 488.765 270.161C488.765 271.299 488.353 272.28 487.529 273.104C486.721 273.912 485.345 274.555 483.399 275.033C483.812 275.791 484.595 276.17 485.749 276.17C486.49 276.17 487.331 275.915 488.271 275.404C489.227 274.876 490.051 274.192 490.744 273.351C490.941 273.121 491.164 273.005 491.411 273.005ZM485.18 269.42C484.57 269.42 484.051 269.774 483.622 270.483C483.21 271.192 483.004 272.049 483.004 273.055V273.104C483.976 272.873 484.743 272.527 485.304 272.066C485.864 271.604 486.144 271.068 486.144 270.458C486.144 270.145 486.054 269.898 485.872 269.716C485.707 269.519 485.477 269.42 485.18 269.42ZM500.08 270.384C500.443 270.384 500.748 270.516 500.995 270.78C501.259 271.027 501.391 271.34 501.391 271.719C501.391 271.934 501.342 272.164 501.243 272.412C500.979 273.022 500.608 273.533 500.13 273.945C499.652 274.357 499.124 274.563 498.547 274.563C498.086 274.563 497.69 274.398 497.36 274.068C497.047 273.739 496.891 273.294 496.891 272.733C496.891 272.42 496.907 272.082 496.94 271.719C496.973 271.456 496.989 271.274 496.989 271.175C496.989 271.043 496.956 270.945 496.891 270.879C496.841 270.813 496.775 270.78 496.693 270.78C496.462 270.78 496.149 271.06 495.753 271.62C495.357 272.164 494.962 272.89 494.566 273.796C494.17 274.703 493.849 275.659 493.602 276.665C493.42 277.456 493.214 277.984 492.983 278.248C492.753 278.511 492.374 278.643 491.846 278.643C491.22 278.643 490.774 278.313 490.511 277.654C490.263 276.995 490.14 275.94 490.14 274.489C490.14 272.346 490.445 270.31 491.055 268.381C491.203 267.903 491.442 267.557 491.772 267.342C492.118 267.112 492.596 266.996 493.206 266.996C493.536 266.996 493.767 267.037 493.898 267.12C494.03 267.202 494.096 267.359 494.096 267.59C494.096 267.854 493.973 268.447 493.725 269.37C493.56 270.03 493.429 270.607 493.33 271.101C493.231 271.596 493.148 272.206 493.082 272.931C493.626 271.513 494.236 270.359 494.912 269.469C495.588 268.579 496.248 267.944 496.891 267.565C497.533 267.186 498.119 266.996 498.646 266.996C499.124 266.996 499.487 267.136 499.734 267.417C499.998 267.68 500.13 268.076 500.13 268.604C500.13 268.917 500.039 269.51 499.858 270.384H500.08ZM505.103 272.733C504.773 272.733 504.501 272.659 504.287 272.511C504.073 272.362 503.966 272.131 503.966 271.818L503.99 271.62C504.271 269.774 504.65 267.672 505.128 265.315C505.606 262.957 506.051 260.921 506.463 259.207C506.727 258.152 507.444 257.624 508.614 257.624C509.67 257.624 510.197 257.962 510.197 258.638C510.197 258.787 510.172 258.951 510.123 259.133C509.694 260.88 509.126 262.999 508.417 265.488C507.708 267.961 507.032 270.112 506.389 271.942C506.208 272.469 505.779 272.733 505.103 272.733ZM504.163 278.643C503.438 278.643 502.886 278.445 502.507 278.05C502.144 277.654 501.963 277.135 501.963 276.492C501.963 275.75 502.169 275.157 502.581 274.711C503.009 274.266 503.603 274.044 504.361 274.044C505.087 274.044 505.631 274.225 505.993 274.588C506.372 274.934 506.562 275.453 506.562 276.146C506.562 276.904 506.348 277.514 505.919 277.976C505.491 278.421 504.905 278.643 504.163 278.643Z" fill="#74ACDF"/>
<path d="M360.801 269.048C360.9 269.048 360.976 269.097 361.029 269.196C361.082 269.295 361.109 269.421 361.109 269.573C361.109 269.763 361.082 269.912 361.029 270.018C360.976 270.117 360.892 270.185 360.778 270.224C360.321 270.383 359.819 270.475 359.271 270.497C359.119 271.129 358.83 271.639 358.404 272.027C357.985 272.415 357.521 272.609 357.012 272.609C356.243 272.609 355.684 272.316 355.334 271.73C354.984 271.144 354.809 270.296 354.809 269.185C354.809 268.203 354.931 267.138 355.174 265.989C355.418 264.833 355.771 263.851 356.235 263.045C356.707 262.231 357.266 261.824 357.913 261.824C358.263 261.824 358.545 261.976 358.758 262.28C358.971 262.577 359.077 262.965 359.077 263.444C359.077 264.068 358.959 264.688 358.723 265.305C358.488 265.921 358.096 266.568 357.548 267.245C358.058 267.283 358.472 267.496 358.792 267.884C359.112 268.264 359.302 268.736 359.363 269.299C359.72 269.276 360.146 269.2 360.641 269.071C360.687 269.056 360.74 269.048 360.801 269.048ZM357.651 262.953C357.499 262.953 357.331 263.182 357.149 263.638C356.974 264.087 356.81 264.7 356.658 265.476C356.506 266.252 356.391 267.1 356.315 268.021C356.818 267.1 357.217 266.29 357.514 265.59C357.818 264.882 357.97 264.255 357.97 263.707C357.97 263.463 357.94 263.277 357.879 263.148C357.826 263.018 357.75 262.953 357.651 262.953ZM357.057 271.399C357.293 271.399 357.502 271.3 357.685 271.102C357.868 270.904 357.989 270.619 358.05 270.246C357.814 270.087 357.632 269.877 357.502 269.619C357.381 269.36 357.32 269.086 357.32 268.797C357.32 268.69 357.335 268.546 357.365 268.363H357.331C357.019 268.363 356.757 268.519 356.544 268.831C356.338 269.135 356.235 269.546 356.235 270.064C356.235 270.497 356.315 270.828 356.475 271.057C356.643 271.285 356.837 271.399 357.057 271.399ZM365.214 270.007C365.312 270.007 365.389 270.052 365.442 270.144C365.503 270.235 365.533 270.36 365.533 270.52C365.533 270.825 365.461 271.06 365.316 271.228C365.035 271.57 364.635 271.886 364.118 272.175C363.608 272.464 363.06 272.609 362.474 272.609C361.676 272.609 361.055 272.392 360.614 271.958C360.173 271.525 359.952 270.931 359.952 270.178C359.952 269.653 360.062 269.166 360.283 268.717C360.504 268.26 360.808 267.899 361.196 267.633C361.592 267.366 362.037 267.233 362.531 267.233C362.973 267.233 363.327 267.366 363.593 267.633C363.859 267.891 363.992 268.245 363.992 268.694C363.992 269.219 363.802 269.672 363.422 270.052C363.049 270.425 362.414 270.722 361.516 270.943C361.706 271.293 362.067 271.468 362.6 271.468C362.942 271.468 363.33 271.35 363.764 271.114C364.205 270.87 364.586 270.554 364.905 270.166C364.997 270.06 365.099 270.007 365.214 270.007ZM362.337 268.352C362.056 268.352 361.816 268.515 361.618 268.843C361.428 269.17 361.333 269.565 361.333 270.03V270.052C361.782 269.946 362.136 269.786 362.395 269.573C362.653 269.36 362.783 269.113 362.783 268.831C362.783 268.687 362.741 268.572 362.657 268.489C362.581 268.397 362.474 268.352 362.337 268.352ZM366.784 272.609C366.038 272.609 365.456 272.4 365.038 271.981C364.627 271.555 364.421 270.996 364.421 270.303C364.421 269.687 364.543 269.147 364.786 268.683C365.03 268.219 365.346 267.861 365.734 267.61C366.122 267.359 366.529 267.233 366.955 267.233C367.373 267.233 367.697 267.359 367.925 267.61C368.161 267.853 368.279 268.169 368.279 268.557C368.279 268.877 368.207 269.147 368.062 269.368C367.925 269.588 367.742 269.699 367.514 269.699C367.37 269.699 367.252 269.664 367.16 269.596C367.077 269.527 367.035 269.432 367.035 269.31C367.035 269.257 367.042 269.196 367.058 269.128C367.073 269.059 367.084 269.01 367.092 268.98C367.13 268.865 367.149 268.759 367.149 268.66C367.149 268.561 367.122 268.485 367.069 268.432C367.023 268.378 366.955 268.352 366.864 268.352C366.689 268.352 366.525 268.432 366.373 268.591C366.221 268.744 366.099 268.953 366.008 269.219C365.916 269.485 365.871 269.778 365.871 270.098C365.871 270.981 366.255 271.422 367.023 271.422C367.335 271.422 367.67 271.319 368.028 271.114C368.393 270.901 368.751 270.585 369.101 270.166C369.192 270.06 369.295 270.007 369.409 270.007C369.508 270.007 369.584 270.052 369.637 270.144C369.698 270.235 369.728 270.36 369.728 270.52C369.728 270.809 369.656 271.045 369.511 271.228C369.154 271.669 368.724 272.012 368.222 272.255C367.727 272.491 367.248 272.609 366.784 272.609ZM374.626 269.048C374.725 269.048 374.801 269.097 374.855 269.196C374.908 269.295 374.934 269.421 374.934 269.573C374.934 269.938 374.824 270.155 374.603 270.224C374.147 270.383 373.645 270.475 373.097 270.497C372.952 271.137 372.667 271.65 372.241 272.038C371.815 272.419 371.332 272.609 370.792 272.609C370.335 272.609 369.943 272.498 369.616 272.278C369.296 272.057 369.053 271.764 368.886 271.399C368.718 271.034 368.634 270.638 368.634 270.212C368.634 269.634 368.745 269.12 368.965 268.671C369.186 268.215 369.49 267.861 369.878 267.61C370.267 267.351 370.696 267.222 371.168 267.222C371.746 267.222 372.211 267.424 372.561 267.827C372.918 268.222 373.127 268.713 373.188 269.299C373.546 269.276 373.972 269.2 374.466 269.071C374.527 269.056 374.581 269.048 374.626 269.048ZM370.883 271.399C371.126 271.399 371.336 271.3 371.511 271.102C371.693 270.904 371.815 270.619 371.876 270.246C371.64 270.087 371.457 269.877 371.328 269.619C371.206 269.36 371.145 269.086 371.145 268.797C371.145 268.675 371.157 268.553 371.18 268.432H371.122C370.818 268.432 370.563 268.58 370.358 268.877C370.16 269.166 370.061 269.577 370.061 270.109C370.061 270.528 370.141 270.847 370.301 271.068C370.468 271.289 370.662 271.399 370.883 271.399ZM374.765 272.609C374.476 272.609 374.271 272.457 374.149 272.152C374.035 271.848 373.978 271.361 373.978 270.691C373.978 269.702 374.118 268.763 374.4 267.872C374.468 267.652 374.579 267.492 374.731 267.393C374.891 267.287 375.111 267.233 375.393 267.233C375.545 267.233 375.652 267.252 375.712 267.29C375.773 267.328 375.804 267.401 375.804 267.507C375.804 267.629 375.747 267.903 375.633 268.329C375.556 268.633 375.496 268.9 375.45 269.128C375.404 269.349 375.366 269.626 375.336 269.961C375.541 269.368 375.785 268.865 376.066 268.455C376.355 268.044 376.648 267.739 376.945 267.541C377.249 267.336 377.535 267.233 377.801 267.233C378.067 267.233 378.254 267.294 378.36 267.416C378.474 267.538 378.531 267.724 378.531 267.975C378.531 268.219 378.459 268.66 378.315 269.299C378.254 269.573 378.212 269.778 378.189 269.915C378.569 268.98 378.992 268.299 379.456 267.872C379.92 267.446 380.354 267.233 380.757 267.233C381.252 267.233 381.499 267.481 381.499 267.975C381.499 268.272 381.415 268.808 381.248 269.584C381.103 270.246 381.031 270.684 381.031 270.897C381.031 271.201 381.141 271.353 381.362 271.353C381.514 271.353 381.693 271.262 381.898 271.079C382.111 270.889 382.393 270.585 382.743 270.166C382.834 270.06 382.937 270.007 383.051 270.007C383.15 270.007 383.226 270.052 383.279 270.144C383.34 270.235 383.371 270.36 383.371 270.52C383.371 270.825 383.298 271.06 383.154 271.228C382.827 271.631 382.473 271.962 382.092 272.221C381.719 272.479 381.293 272.609 380.814 272.609C380.426 272.609 380.133 272.498 379.935 272.278C379.737 272.05 379.638 271.722 379.638 271.296C379.638 271.083 379.692 270.703 379.798 270.155C379.897 269.676 379.947 269.345 379.947 269.162C379.947 269.04 379.905 268.98 379.821 268.98C379.722 268.98 379.581 269.109 379.399 269.368C379.216 269.619 379.034 269.953 378.851 270.372C378.668 270.79 378.52 271.232 378.406 271.696C378.322 272.061 378.223 272.304 378.109 272.426C378.003 272.548 377.828 272.609 377.584 272.609C377.333 272.609 377.143 272.491 377.014 272.255C376.892 272.012 376.831 271.719 376.831 271.376C376.831 271.087 376.869 270.669 376.945 270.121C377.006 269.634 377.036 269.314 377.036 269.162C377.036 269.04 376.994 268.98 376.911 268.98C376.797 268.98 376.652 269.116 376.477 269.39C376.302 269.664 376.131 270.014 375.964 270.44C375.804 270.866 375.674 271.285 375.575 271.696C375.492 272.053 375.393 272.297 375.279 272.426C375.172 272.548 375.001 272.609 374.765 272.609ZM386.534 270.349C386.632 270.349 386.709 270.395 386.762 270.486C386.823 270.577 386.853 270.703 386.853 270.863C386.853 271.137 386.788 271.372 386.659 271.57C386.446 271.897 386.164 272.152 385.814 272.335C385.472 272.518 385.061 272.609 384.582 272.609C383.851 272.609 383.285 272.392 382.881 271.958C382.478 271.517 382.276 270.924 382.276 270.178C382.276 269.653 382.387 269.166 382.607 268.717C382.828 268.26 383.132 267.899 383.52 267.633C383.916 267.366 384.361 267.233 384.856 267.233C385.297 267.233 385.651 267.366 385.917 267.633C386.184 267.891 386.317 268.245 386.317 268.694C386.317 269.219 386.126 269.672 385.746 270.052C385.373 270.425 384.734 270.722 383.829 270.943C384.011 271.293 384.319 271.468 384.753 271.468C385.065 271.468 385.32 271.395 385.518 271.251C385.723 271.106 385.959 270.863 386.225 270.52C386.317 270.406 386.419 270.349 386.534 270.349ZM384.662 268.352C384.38 268.352 384.141 268.515 383.943 268.843C383.753 269.17 383.657 269.565 383.657 270.03V270.052C384.106 269.946 384.46 269.786 384.719 269.573C384.978 269.36 385.107 269.113 385.107 268.831C385.107 268.687 385.065 268.572 384.981 268.489C384.905 268.397 384.799 268.352 384.662 268.352ZM391.473 272.609C391.039 272.609 390.685 272.438 390.411 272.095C390.145 271.753 390.012 271.304 390.012 270.749C390.012 270.14 390.153 269.565 390.434 269.025C390.716 268.477 391.089 268.04 391.553 267.713C392.024 267.378 392.523 267.211 393.048 267.211C393.215 267.211 393.326 267.245 393.379 267.313C393.44 267.374 393.489 267.488 393.527 267.656C393.672 267.625 393.831 267.61 394.006 267.61C394.189 267.61 394.33 267.656 394.429 267.747C394.528 267.838 394.577 267.968 394.577 268.135C394.577 268.31 394.539 268.614 394.463 269.048C394.379 269.512 394.315 269.957 394.269 270.383C394.223 270.802 394.2 271.274 394.2 271.799C394.2 272.088 394.14 272.297 394.018 272.426C393.904 272.548 393.714 272.609 393.447 272.609C393.189 272.609 392.995 272.548 392.865 272.426C392.743 272.297 392.683 272.091 392.683 271.81L392.694 271.627C392.458 272.282 392.051 272.609 391.473 272.609ZM391.918 271.456C392.131 271.456 392.325 271.308 392.5 271.011C392.675 270.714 392.831 270.185 392.968 269.425L393.185 268.272C392.873 268.28 392.584 268.401 392.317 268.637C392.051 268.865 391.838 269.17 391.678 269.55C391.518 269.931 391.439 270.334 391.439 270.76C391.439 270.988 391.48 271.163 391.564 271.285C391.655 271.399 391.773 271.456 391.918 271.456Z" fill="#74ACDF"/>
<path d="M398.045 62L398.446 65.2133C398.495 65.5998 398.766 65.9215 399.139 66.0341L401 66.5964L399.139 67.1587C398.766 67.2714 398.495 67.5931 398.446 67.9795L398.045 71.1929L397.644 67.9795C397.596 67.5931 397.324 67.2714 396.951 67.1587L395.09 66.5964L396.951 66.0341C397.324 65.9215 397.596 65.5998 397.644 65.2133L398.045 62Z" fill="white"/>
<path d="M266.955 100L267.356 103.213C267.404 103.6 267.676 103.921 268.049 104.034L269.91 104.596L268.049 105.159C267.676 105.271 267.404 105.593 267.356 105.98L266.955 109.193L266.554 105.98C266.505 105.593 266.234 105.271 265.861 105.159L264 104.596L265.861 104.034C266.234 103.921 266.505 103.6 266.554 103.213L266.955 100Z" fill="white"/>
<path d="M55.119 143.751L55.5263 146.4C55.5868 146.793 55.8784 147.112 56.2651 147.207L58.238 147.691L56.2651 148.175C55.8784 148.27 55.5868 148.588 55.5263 148.982L55.119 151.631L54.7117 148.982C54.6512 148.588 54.3596 148.27 53.9729 148.175L52 147.691L53.9729 147.207C54.3596 147.112 54.6512 146.793 54.7117 146.4L55.119 143.751Z" fill="white"/>
<path d="M471.119 147L471.526 149.649C471.587 150.042 471.878 150.361 472.265 150.456L474.238 150.94L472.265 151.424C471.878 151.519 471.587 151.837 471.526 152.231L471.119 154.88L470.712 152.231C470.651 151.837 470.36 151.519 469.973 151.424L468 150.94L469.973 150.456C470.36 150.361 470.651 150.042 470.712 149.649L471.119 147Z" fill="white"/>
<path d="M182.834 67.5815L183.618 72.8436C183.677 73.2365 183.966 73.5558 184.351 73.6533L188.251 74.6403L184.351 75.6274C183.966 75.7249 183.677 76.0442 183.618 76.4371L182.834 81.6991L182.05 76.4371C181.991 76.0442 181.702 75.7249 181.317 75.6274L177.417 74.6403L181.317 73.6533C181.702 73.5558 181.991 73.2365 182.05 72.8436L182.834 67.5815Z" fill="white"/>
<path d="M369.417 128L370.202 133.262C370.26 133.655 370.549 133.974 370.934 134.072L374.834 135.059L370.934 136.046C370.549 136.143 370.26 136.463 370.202 136.856L369.417 142.118L368.633 136.856C368.574 136.463 368.285 136.143 367.9 136.046L364 135.059L367.9 134.072C368.285 133.974 368.574 133.655 368.633 133.262L369.417 128Z" fill="white"/>
<defs>
<filter id="filter0_f_103_827" x="140.789" y="163.577" width="80.2114" height="79.4229" filterUnits="userSpaceOnUse" color-interpolation-filters="sRGB">
<feFlood flood-opacity="0" result="BackgroundImageFix"/>
<feBlend mode="normal" in="SourceGraphic" in2="BackgroundImageFix" result="shape"/>
<feGaussianBlur stdDeviation="5" result="effect1_foregroundBlur_103_827"/>
</filter>
<filter id="filter1_f_103_827" x="198" y="61" width="83" height="179.923" filterUnits="userSpaceOnUse" color-interpolation-filters="sRGB">
<feFlood flood-opacity="0" result="BackgroundImageFix"/>
<feBlend mode="normal" in="SourceGraphic" in2="BackgroundImageFix" result="shape"/>
<feGaussianBlur stdDeviation="5" result="effect1_foregroundBlur_103_827"/>
</filter>
<filter id="filter2_f_103_827" x="141.035" y="202.193" width="80.3435" height="76.0264" filterUnits="userSpaceOnUse" color-interpolation-filters="sRGB">
<feFlood flood-opacity="0" result="BackgroundImageFix"/>
<feBlend mode="normal" in="SourceGraphic" in2="BackgroundImageFix" result="shape"/>
<feGaussianBlur stdDeviation="5" result="effect1_foregroundBlur_103_827"/>
</filter>
<filter id="filter3_f_103_827" x="198.372" y="214.039" width="83.1387" height="99.9614" filterUnits="userSpaceOnUse" color-interpolation-filters="sRGB">
<feFlood flood-opacity="0" result="BackgroundImageFix"/>
<feBlend mode="normal" in="SourceGraphic" in2="BackgroundImageFix" result="shape"/>
<feGaussianBlur stdDeviation="5" result="effect1_foregroundBlur_103_827"/>
</filter>
<linearGradient id="paint0_linear_103_827" x1="230" y1="0" x2="230" y2="236" gradientUnits="userSpaceOnUse">
<stop stop-color="#073550"/>
<stop offset="1" stop-color="#0C799B"/>
</linearGradient>
<linearGradient id="paint1_linear_103_827" x1="263.5" y1="229" x2="263.5" y2="273" gradientUnits="userSpaceOnUse">
<stop stop-color="#217074"/>
<stop offset="1" stop-color="#0A3742"/>
</linearGradient>
</defs>
</svg>
