<svg width="528" height="305" viewBox="0 0 528 305" fill="none" xmlns="http://www.w3.org/2000/svg">
<path d="M0 0H527.277V304.345H0V0Z" fill="#FFB81C"/>
<mask id="mask0_102_275" style="mask-type:alpha" maskUnits="userSpaceOnUse" x="0" y="0" width="528" height="305">
<path d="M0 0H527.277V304.345H0V0Z" fill="#FFB81C"/>
</mask>
<g mask="url(#mask0_102_275)">
<path d="M-66.5754 1.14138L-14.076 -50.2168L609.45 329.834L441.3 529.56L-66.5754 1.14138Z" fill="white" fill-opacity="0.19"/>
<path d="M190.025 -14.266L214.183 -27.2007L828.198 135.053L734.993 250.133L190.025 -14.266Z" fill="white" fill-opacity="0.19"/>
</g>
<rect x="19" y="22" width="490" height="265" fill="white" fill-opacity="0.67"/>
<g clip-path="url(#clip0_102_275)">
<rect width="465" height="237" transform="translate(31 36)" fill="#AFE5FF" fill-opacity="0.87"/>
<path fill-rule="evenodd" clip-rule="evenodd" d="M365.708 85C361.743 85 354.616 84.9999 350.651 84.9999V84.9999C345.873 84.9999 342 81.1267 342 76.349C342 71.8273 345.469 68.1159 349.891 67.731C350.21 67.7032 350.453 67.4236 350.453 67.1037V67.1037C350.453 63.7118 353.794 60.9622 357.915 60.9622V60.9622C360.422 60.9622 363.304 60.1362 365.361 58.7026C366.901 57.6294 368.773 57 370.792 57C376.044 57 380.302 61.2575 380.302 66.5094C380.302 67.0204 380.261 67.5219 380.184 68.0111C380.166 68.1238 380.254 68.2263 380.368 68.2263V68.2263C385 68.2263 388.755 71.9812 388.755 76.6131C388.755 81.245 385 84.9999 380.368 84.9999V84.9999C376.445 84.9999 369.631 85 365.708 85V85V85Z" fill="white"/>
<ellipse cx="376.5" cy="176.5" rx="119.5" ry="12.5" fill="#6C6965"/>
<path d="M201.518 205.391C129.889 218.504 15.8683 225.244 15.8683 225.244H10V301H504V178.746C504 178.746 460.877 184.498 433.048 185.538C387.371 187.244 361.746 174.902 316.216 178.746C270.269 182.625 246.804 197.101 201.518 205.391Z" fill="#5ECFFF"/>
<path fill-rule="evenodd" clip-rule="evenodd" d="M491.313 142.232L491.313 142.246C487.833 142.476 485.081 145.371 485.081 148.909C485.081 150.021 485.353 151.069 485.834 151.992C484.818 153.034 484.191 154.459 484.191 156.031C484.191 159.227 486.782 161.817 489.978 161.817C493.019 161.817 495.513 159.471 495.747 156.489C496.095 156.23 496.405 155.921 496.665 155.572C497.562 156.144 498.628 156.476 499.77 156.476C500.196 156.476 500.61 156.43 501.009 156.343C501.298 156.759 501.656 157.123 502.067 157.419C502.521 160.413 505.107 162.708 508.228 162.708C511.669 162.708 514.459 159.918 514.459 156.476C514.459 153.792 512.762 151.504 510.383 150.627C511.262 149.553 511.789 148.179 511.789 146.683C511.789 143.242 508.999 140.452 505.557 140.452C505.459 140.452 505.361 140.454 505.264 140.458C504.392 137.881 501.664 136 498.435 136C494.502 136 491.313 138.79 491.313 142.232Z" fill="url(#paint0_linear_102_275)"/>
<path d="M500.661 152.915H501.106L500.661 156.476V159.147L501.551 158.257L503.331 156.921H504.222C504.222 156.921 503.911 157.245 503.331 157.811C502.752 158.378 502.441 159.147 502.441 159.147C502.441 159.147 502.886 159.147 503.777 159.592L504.667 160.037H501.551C501.551 160.037 501.106 160.037 500.661 160.927C500.216 161.818 500.216 161.818 500.216 162.708C500.216 163.598 500.661 186.232 500.661 186.232H497.99C497.99 186.232 498.88 164.933 498.435 163.153C497.99 161.372 496.209 160.482 496.209 160.482L493.539 158.257L493.984 157.811L496.209 159.147L494.874 155.586H495.319L497.545 160.037L498.88 160.927C498.88 160.927 497.545 157.811 497.1 156.921C496.655 156.031 494.874 154.696 494.874 154.696L495.319 153.805L497.545 155.586L497.99 153.805H498.435L497.99 156.476L499.325 158.257L500.661 152.915Z" fill="#72491F"/>
<path fill-rule="evenodd" clip-rule="evenodd" d="M477.147 147.957L477.147 147.972C480.626 148.201 483.378 151.096 483.378 154.634C483.378 155.746 483.106 156.795 482.625 157.717C483.642 158.76 484.268 160.185 484.268 161.756C484.268 164.952 481.678 167.543 478.482 167.543C475.44 167.543 472.947 165.196 472.713 162.215C472.364 161.956 472.055 161.647 471.795 161.298C470.898 161.87 469.832 162.201 468.689 162.201C468.264 162.201 467.85 162.155 467.45 162.068C467.161 162.484 466.803 162.848 466.393 163.144C465.938 166.139 463.353 168.433 460.232 168.433C456.79 168.433 454 165.643 454 162.201C454 159.517 455.697 157.229 458.077 156.352C457.198 155.278 456.671 153.905 456.671 152.409C456.671 148.967 459.461 146.177 462.903 146.177C463.001 146.177 463.098 146.179 463.195 146.184C464.068 143.606 466.795 141.726 470.025 141.726C473.958 141.726 477.147 144.516 477.147 147.957Z" fill="url(#paint1_linear_102_275)"/>
<path d="M467.799 158.641H467.354L467.799 162.202V164.872L466.909 163.982L465.128 162.647H464.238C464.238 162.647 464.549 162.97 465.128 163.537C465.708 164.104 466.018 164.872 466.018 164.872C466.018 164.872 465.573 164.872 464.683 165.317L463.793 165.763H466.909C466.909 165.763 467.354 165.763 467.799 166.653C468.244 167.543 468.244 167.543 468.244 168.433C468.244 169.324 467.799 185.348 467.799 185.348H470.47C470.47 185.348 469.579 170.659 470.024 168.878C470.47 167.098 472.25 166.208 472.25 166.208L474.921 163.982L474.476 163.537L472.25 164.872L473.585 161.311H473.14L470.915 165.763L469.579 166.653C469.579 166.653 470.915 163.537 471.36 162.647C471.805 161.756 473.585 160.421 473.585 160.421L473.14 159.531L470.915 161.311L470.47 159.531H470.024L470.47 162.202L469.134 163.982L467.799 158.641Z" fill="#BE9A7D"/>
<path fill-rule="evenodd" clip-rule="evenodd" d="M480.327 164.828L480.327 164.838C477.891 164.999 475.965 167.025 475.965 169.502C475.965 170.28 476.155 171.014 476.492 171.66C475.78 172.39 475.342 173.387 475.342 174.487C475.342 176.724 477.155 178.538 479.393 178.538C481.522 178.538 483.267 176.895 483.431 174.808C483.675 174.627 483.891 174.41 484.073 174.167C484.701 174.567 485.447 174.799 486.247 174.799C486.545 174.799 486.835 174.767 487.115 174.706C487.317 174.997 487.568 175.252 487.855 175.459C488.173 177.555 489.983 179.161 492.168 179.161C494.577 179.161 496.53 177.208 496.53 174.799C496.53 172.92 495.342 171.318 493.676 170.704C494.291 169.952 494.66 168.991 494.66 167.944C494.66 165.535 492.707 163.582 490.298 163.582C490.229 163.582 490.161 163.583 490.093 163.586C489.482 161.782 487.573 160.466 485.313 160.466C482.559 160.466 480.327 162.419 480.327 164.828Z" fill="url(#paint2_linear_102_275)"/>
<path d="M487.36 171.149H487.805L487.36 174.71V177.381L488.25 176.49L490.031 175.155H490.921C490.921 175.155 490.61 175.479 490.031 176.045C489.451 176.612 489.14 177.381 489.14 177.381C489.14 177.381 489.585 177.381 490.476 177.826L491.366 178.271H488.25C488.25 178.271 487.805 178.271 487.36 179.161C486.915 180.051 486.915 180.051 486.915 180.942C486.915 181.832 487.069 187.173 487.069 187.173H484.398C484.398 187.173 485.579 183.167 485.134 181.387C484.689 179.606 482.909 178.716 482.909 178.716L480.238 176.49L480.683 176.045L482.909 177.381L481.573 173.82H482.018L484.244 178.271L485.579 179.161C485.579 179.161 484.244 176.045 483.799 175.155C483.354 174.265 481.573 172.929 481.573 172.929L482.018 172.039L484.244 173.82L484.689 172.039H485.134L484.689 174.71L486.024 176.49L487.36 171.149Z" fill="#3A1F0A"/>
<path d="M310.198 242.145C381.827 255.257 491.132 270.244 491.132 270.244H497V346H2.99997V223.746C2.99997 223.746 46.6708 222.706 74.5 223.746C120.176 225.452 149.97 211.656 195.5 215.5C241.447 219.379 264.912 233.855 310.198 242.145Z" fill="url(#paint3_linear_102_275)"/>
<rect x="288" y="123" width="18" height="46" fill="#D9D9D9"/>
<rect x="308" y="57" width="29" height="108" fill="#D9D9D9"/>
<rect x="333" y="78" width="23" height="76" fill="#D9D9D9"/>
<rect x="346" y="101" width="34" height="65" fill="#D9D9D9"/>
<rect x="389" y="73" width="29" height="95" fill="#D9D9D9"/>
<rect x="290" y="125" width="2" height="2" fill="#8B8B8B"/>
<rect x="293" y="125" width="2" height="2" fill="#8B8B8B"/>
<rect x="296" y="125" width="2" height="2" fill="#8B8B8B"/>
<rect x="299" y="125" width="2" height="2" fill="#8B8B8B"/>
<rect x="302" y="125" width="2" height="2" fill="#8B8B8B"/>
<rect x="290" y="128" width="2" height="2" fill="#8B8B8B"/>
<rect x="293" y="128" width="2" height="2" fill="#8B8B8B"/>
<rect x="296" y="128" width="2" height="2" fill="#8B8B8B"/>
<rect x="299" y="128" width="2" height="2" fill="#8B8B8B"/>
<rect x="302" y="128" width="2" height="2" fill="#8B8B8B"/>
<rect x="290" y="131" width="2" height="2" fill="#8B8B8B"/>
<rect x="293" y="131" width="2" height="2" fill="#8B8B8B"/>
<rect x="296" y="131" width="2" height="2" fill="#8B8B8B"/>
<rect x="299" y="131" width="2" height="2" fill="#8B8B8B"/>
<rect x="302" y="131" width="2" height="2" fill="#8B8B8B"/>
<rect x="290" y="134" width="2" height="2" fill="#8B8B8B"/>
<rect x="293" y="134" width="2" height="2" fill="#8B8B8B"/>
<rect x="296" y="134" width="2" height="2" fill="#8B8B8B"/>
<rect x="299" y="134" width="2" height="2" fill="#8B8B8B"/>
<rect x="302" y="134" width="2" height="2" fill="#8B8B8B"/>
<rect x="290" y="137" width="2" height="2" fill="#8B8B8B"/>
<rect x="293" y="137" width="2" height="2" fill="#8B8B8B"/>
<rect x="296" y="137" width="2" height="2" fill="#8B8B8B"/>
<rect x="299" y="137" width="2" height="2" fill="#8B8B8B"/>
<rect x="302" y="137" width="2" height="2" fill="#8B8B8B"/>
<rect x="290" y="140" width="2" height="2" fill="#8B8B8B"/>
<rect x="293" y="140" width="2" height="2" fill="#8B8B8B"/>
<rect x="296" y="140" width="2" height="2" fill="#8B8B8B"/>
<rect x="299" y="140" width="2" height="2" fill="#8B8B8B"/>
<rect x="302" y="140" width="2" height="2" fill="#8B8B8B"/>
<rect x="290" y="134" width="2" height="2" fill="#8B8B8B"/>
<rect x="293" y="134" width="2" height="2" fill="#8B8B8B"/>
<rect x="296" y="134" width="2" height="2" fill="#8B8B8B"/>
<rect x="299" y="134" width="2" height="2" fill="#8B8B8B"/>
<rect x="302" y="134" width="2" height="2" fill="#8B8B8B"/>
<rect x="290" y="137" width="2" height="2" fill="#8B8B8B"/>
<rect x="293" y="137" width="2" height="2" fill="#8B8B8B"/>
<rect x="296" y="137" width="2" height="2" fill="#8B8B8B"/>
<rect x="299" y="137" width="2" height="2" fill="#8B8B8B"/>
<rect x="302" y="137" width="2" height="2" fill="#8B8B8B"/>
<rect x="290" y="140" width="2" height="2" fill="#8B8B8B"/>
<rect x="293" y="140" width="2" height="2" fill="#8B8B8B"/>
<rect x="296" y="140" width="2" height="2" fill="#8B8B8B"/>
<rect x="299" y="140" width="2" height="2" fill="#8B8B8B"/>
<rect x="302" y="140" width="2" height="2" fill="#8B8B8B"/>
<rect x="290" y="143" width="2" height="2" fill="#8B8B8B"/>
<rect x="293" y="143" width="2" height="2" fill="#8B8B8B"/>
<rect x="296" y="143" width="2" height="2" fill="#8B8B8B"/>
<rect x="299" y="143" width="2" height="2" fill="#8B8B8B"/>
<rect x="302" y="143" width="2" height="2" fill="#8B8B8B"/>
<rect x="290" y="146" width="2" height="2" fill="#8B8B8B"/>
<rect x="293" y="146" width="2" height="2" fill="#8B8B8B"/>
<rect x="296" y="146" width="2" height="2" fill="#8B8B8B"/>
<rect x="299" y="146" width="2" height="2" fill="#8B8B8B"/>
<rect x="302" y="146" width="2" height="2" fill="#8B8B8B"/>
<rect x="290" y="149" width="2" height="2" fill="#8B8B8B"/>
<rect x="293" y="149" width="2" height="2" fill="#8B8B8B"/>
<rect x="296" y="149" width="2" height="2" fill="#8B8B8B"/>
<rect x="299" y="149" width="2" height="2" fill="#8B8B8B"/>
<rect x="302" y="149" width="2" height="2" fill="#8B8B8B"/>
<rect x="290" y="152" width="2" height="2" fill="#8B8B8B"/>
<rect x="293" y="152" width="2" height="2" fill="#8B8B8B"/>
<rect x="296" y="152" width="2" height="2" fill="#8B8B8B"/>
<rect x="299" y="152" width="2" height="2" fill="#8B8B8B"/>
<rect x="302" y="152" width="2" height="2" fill="#8B8B8B"/>
<rect x="290" y="155" width="2" height="2" fill="#8B8B8B"/>
<rect x="293" y="155" width="2" height="2" fill="#8B8B8B"/>
<rect x="296" y="155" width="2" height="2" fill="#8B8B8B"/>
<rect x="299" y="155" width="2" height="2" fill="#8B8B8B"/>
<rect x="302" y="155" width="2" height="2" fill="#8B8B8B"/>
<rect x="290" y="158" width="2" height="2" fill="#8B8B8B"/>
<rect x="293" y="158" width="2" height="2" fill="#8B8B8B"/>
<rect x="296" y="158" width="2" height="2" fill="#8B8B8B"/>
<rect x="299" y="158" width="2" height="2" fill="#8B8B8B"/>
<rect x="302" y="158" width="2" height="2" fill="#8B8B8B"/>
<rect x="290" y="152" width="2" height="2" fill="#8B8B8B"/>
<rect x="293" y="152" width="2" height="2" fill="#8B8B8B"/>
<rect x="296" y="152" width="2" height="2" fill="#8B8B8B"/>
<rect x="299" y="152" width="2" height="2" fill="#8B8B8B"/>
<rect x="302" y="152" width="2" height="2" fill="#8B8B8B"/>
<rect x="290" y="155" width="2" height="2" fill="#8B8B8B"/>
<rect x="293" y="155" width="2" height="2" fill="#8B8B8B"/>
<rect x="296" y="155" width="2" height="2" fill="#8B8B8B"/>
<rect x="299" y="155" width="2" height="2" fill="#8B8B8B"/>
<rect x="302" y="155" width="2" height="2" fill="#8B8B8B"/>
<rect x="290" y="158" width="2" height="2" fill="#8B8B8B"/>
<rect x="293" y="158" width="2" height="2" fill="#8B8B8B"/>
<rect x="296" y="158" width="2" height="2" fill="#8B8B8B"/>
<rect x="299" y="158" width="2" height="2" fill="#8B8B8B"/>
<rect x="302" y="158" width="2" height="2" fill="#8B8B8B"/>
<path d="M389.75 197H362.75C361.507 197 360.5 198.007 360.5 199.25C360.5 200.493 361.507 201.5 362.75 201.5H380.5C381.881 201.5 383 202.619 383 204C383 205.381 381.881 206.5 380.5 206.5H374C372.619 206.5 371.5 207.619 371.5 209C371.5 210.381 372.619 211.5 374 211.5H395C396.381 211.5 397.5 210.381 397.5 209C397.5 207.619 396.381 206.5 395 206.5H390C388.619 206.5 387.5 205.381 387.5 204V203.75C387.5 202.507 388.507 201.5 389.75 201.5C390.993 201.5 392 200.493 392 199.25C392 198.007 390.993 197 389.75 197Z" fill="url(#paint4_linear_102_275)"/>
<path d="M282.672 248H262.272C260.987 248 259.944 249.042 259.944 250.328C259.944 251.613 260.987 252.655 262.272 252.655H270.192C271.62 252.655 272.778 253.813 272.778 255.241C272.778 256.67 271.62 257.828 270.192 257.828H257.086C255.658 257.828 254.5 258.985 254.5 260.414C254.5 261.842 255.658 263 257.086 263H282.193C283.68 263 284.828 261.691 284.635 260.217L284.627 260.16C284.487 259.089 283.645 258.246 282.574 258.103C281.387 257.946 280.5 256.933 280.5 255.736V255.5V254.905C280.5 253.663 281.507 252.655 282.75 252.655C283.993 252.655 285 251.648 285 250.405V250.328C285 249.042 283.958 248 282.672 248Z" fill="url(#paint5_linear_102_275)"/>
<path d="M116.707 233.033L86.2449 233.468C84.9999 233.486 84 234.5 84 235.745C84 236.994 85.0058 238.01 86.2547 238.023L91.5126 238.075C92.8904 238.089 94 239.21 94 240.588V241.35C94 242.316 93.2165 243.1 92.25 243.1C91.2835 243.1 90.5 243.884 90.5 244.85V245.6C90.5 246.981 91.6193 248.1 93 248.1H109.45C110.858 248.1 112 246.958 112 245.55C112 244.142 110.858 243 109.45 243H101.03C99.6329 243 98.5 241.867 98.5 240.47C98.5 239.096 99.5957 237.973 100.969 237.94L116.794 237.554C118.021 237.524 119 236.521 119 235.294C119 234.032 117.968 233.015 116.707 233.033Z" fill="url(#paint6_linear_102_275)"/>
<ellipse cx="469.423" cy="51.4235" rx="76.4225" ry="76.4235" fill="#FFE974" fill-opacity="0.33"/>
<ellipse cx="469.853" cy="46.4508" rx="60.6528" ry="60.651" fill="#FFE974" fill-opacity="0.6"/>
<ellipse cx="469.68" cy="48.0797" rx="38.88" ry="38.88" fill="#FFE249"/>
<path d="M570.5 -4.00007C578.984 61.4504 519.78 212.757 409.966 226.991C315 244 181.311 112.997 172.827 47.5462C164.343 -17.9043 246.488 -82.5014 356.302 -96.7355C466.117 -110.97 562.016 -69.4506 570.5 -4.00007Z" fill="url(#paint7_linear_102_275)" fill-opacity="0.29"/>
<path d="M500.721 165C462.425 170.694 411.221 195.5 415.221 206.5H504.721L500.721 165Z" fill="#55A145"/>
<path fill-rule="evenodd" clip-rule="evenodd" d="M452.313 157.232L452.313 157.246C448.833 157.476 446.081 160.371 446.081 163.909C446.081 165.021 446.353 166.069 446.834 166.992C445.818 168.034 445.191 169.459 445.191 171.031C445.191 174.227 447.782 176.817 450.978 176.817C454.019 176.817 456.513 174.471 456.747 171.489C457.095 171.23 457.405 170.921 457.665 170.572C458.562 171.144 459.628 171.476 460.77 171.476C461.196 171.476 461.61 171.43 462.009 171.343C462.298 171.759 462.656 172.123 463.067 172.419C463.521 175.413 466.107 177.708 469.228 177.708C472.669 177.708 475.459 174.918 475.459 171.476C475.459 168.792 473.762 166.504 471.383 165.627C472.262 164.553 472.789 163.179 472.789 161.683C472.789 158.242 469.999 155.452 466.557 155.452C466.459 155.452 466.361 155.454 466.264 155.458C465.392 152.881 462.664 151 459.435 151C455.502 151 452.313 153.79 452.313 157.232Z" fill="url(#paint8_linear_102_275)"/>
<path d="M461.661 167.915H462.106L461.661 171.476V174.147L462.551 173.257L464.331 171.921H465.222C465.222 171.921 464.911 172.245 464.331 172.811C463.752 173.378 463.441 174.147 463.441 174.147C463.441 174.147 463.886 174.147 464.777 174.592L465.667 175.037H462.551C462.551 175.037 462.106 175.037 461.661 175.927C461.216 176.818 461.216 176.818 461.216 177.708C461.216 178.598 461.661 201.232 461.661 201.232H458.99C458.99 201.232 459.88 179.933 459.435 178.153C458.99 176.372 457.209 175.482 457.209 175.482L454.539 173.257L454.984 172.811L457.209 174.147L455.874 170.586H456.319L458.545 175.037L459.88 175.927C459.88 175.927 458.545 172.811 458.1 171.921C457.655 171.031 455.874 169.696 455.874 169.696L456.319 168.805L458.545 170.586L458.99 168.805H459.435L458.99 171.476L460.325 173.257L461.661 167.915Z" fill="#72491F"/>
<path fill-rule="evenodd" clip-rule="evenodd" d="M438.147 162.957L438.147 162.972C441.626 163.201 444.378 166.096 444.378 169.634C444.378 170.746 444.106 171.795 443.625 172.717C444.642 173.76 445.268 175.185 445.268 176.756C445.268 179.952 442.678 182.543 439.482 182.543C436.44 182.543 433.947 180.196 433.713 177.215C433.364 176.956 433.055 176.647 432.795 176.298C431.898 176.87 430.832 177.201 429.689 177.201C429.264 177.201 428.85 177.155 428.45 177.068C428.161 177.484 427.803 177.848 427.393 178.144C426.938 181.139 424.353 183.433 421.232 183.433C417.79 183.433 415 180.643 415 177.201C415 174.517 416.697 172.229 419.077 171.352C418.198 170.278 417.671 168.905 417.671 167.409C417.671 163.967 420.461 161.177 423.903 161.177C424.001 161.177 424.098 161.179 424.195 161.184C425.068 158.606 427.795 156.726 431.025 156.726C434.958 156.726 438.147 159.516 438.147 162.957Z" fill="url(#paint9_linear_102_275)"/>
<path d="M428.799 173.641H428.354L428.799 177.202V179.872L427.909 178.982L426.128 177.647H425.238C425.238 177.647 425.549 177.97 426.128 178.537C426.708 179.104 427.018 179.872 427.018 179.872C427.018 179.872 426.573 179.872 425.683 180.317L424.793 180.763H427.909C427.909 180.763 428.354 180.763 428.799 181.653C429.244 182.543 429.244 182.543 429.244 183.433C429.244 184.324 428.799 200.348 428.799 200.348H431.47C431.47 200.348 430.579 185.659 431.024 183.878C431.47 182.098 433.25 181.208 433.25 181.208L435.921 178.982L435.476 178.537L433.25 179.872L434.585 176.311H434.14L431.915 180.763L430.579 181.653C430.579 181.653 431.915 178.537 432.36 177.647C432.805 176.756 434.585 175.421 434.585 175.421L434.14 174.531L431.915 176.311L431.47 174.531H431.024L431.47 177.202L430.134 178.982L428.799 173.641Z" fill="#BE9A7D"/>
<path fill-rule="evenodd" clip-rule="evenodd" d="M441.327 179.828L441.327 179.838C438.891 179.999 436.965 182.025 436.965 184.502C436.965 185.28 437.155 186.014 437.492 186.66C436.78 187.39 436.342 188.387 436.342 189.487C436.342 191.724 438.155 193.538 440.393 193.538C442.522 193.538 444.267 191.895 444.431 189.808C444.675 189.627 444.891 189.41 445.073 189.167C445.701 189.567 446.447 189.799 447.247 189.799C447.545 189.799 447.835 189.767 448.115 189.706C448.317 189.997 448.568 190.252 448.855 190.459C449.173 192.555 450.983 194.161 453.168 194.161C455.577 194.161 457.53 192.208 457.53 189.799C457.53 187.92 456.342 186.318 454.676 185.704C455.291 184.952 455.66 183.991 455.66 182.944C455.66 180.535 453.707 178.582 451.298 178.582C451.229 178.582 451.161 178.583 451.093 178.586C450.482 176.782 448.573 175.466 446.313 175.466C443.559 175.466 441.327 177.419 441.327 179.828Z" fill="url(#paint10_linear_102_275)"/>
<path d="M448.36 186.149H448.805L448.36 189.71V192.381L449.25 191.49L451.031 190.155H451.921C451.921 190.155 451.61 190.479 451.031 191.045C450.451 191.612 450.14 192.381 450.14 192.381C450.14 192.381 450.585 192.381 451.476 192.826L452.366 193.271H449.25C449.25 193.271 448.805 193.271 448.36 194.161C447.915 195.051 447.915 195.051 447.915 195.942C447.915 196.832 448.069 202.173 448.069 202.173H445.398C445.398 202.173 446.579 198.167 446.134 196.387C445.689 194.606 443.909 193.716 443.909 193.716L441.238 191.49L441.683 191.045L443.909 192.381L442.573 188.82H443.018L445.244 193.271L446.579 194.161C446.579 194.161 445.244 191.045 444.799 190.155C444.354 189.265 442.573 187.929 442.573 187.929L443.018 187.039L445.244 188.82L445.689 187.039H446.134L445.689 189.71L447.024 191.49L448.36 186.149Z" fill="#3A1F0A"/>
<path d="M270.204 167.808H267.565C267.893 164.814 267.816 162.959 265.255 160.172C270.095 154.737 275.152 150.629 279.11 148.72C279.44 151.265 275.816 158.393 270.204 167.808Z" fill="#021E31"/>
<path d="M267.564 167.808H259.846C261.416 165.108 262.263 163.52 265.255 160.172C267.894 162.717 267.894 164.944 267.564 167.808Z" fill="#00111C"/>
<path d="M255.689 177.351H254.292C258.658 163.671 265.346 155.636 280.353 146.492C280.023 152.855 276.201 160.253 271.193 168.443L269.874 168.125C274.492 161.126 279.11 151.9 279.11 148.719C268.224 154.445 258.658 167.535 255.689 177.351Z" fill="#C8C8CE"/>
<path d="M193.672 177.351H190.703C192.682 169.398 195.321 148.083 195.651 140.13C197.63 154.128 196.482 161.529 193.672 177.351Z" fill="#636F78"/>
<path d="M194.002 175.124L193.672 177.351H218.124L217.093 172.898C209.833 171.098 204.28 171.978 194.002 175.124Z" fill="#426074"/>
<path d="M194.661 171.625C194.444 173.011 194.291 173.777 194.001 175.125C203.898 172.261 209.133 170.954 217.093 172.898L216.433 170.353C209.506 169.08 202.908 169.398 194.661 171.625Z" fill="#122F44"/>
<path d="M216.104 170.352C207.134 168.935 202.534 169.745 194.662 171.625C196.727 158.847 197.307 151.295 195.651 140.13C204.888 144.902 211.485 152.855 216.104 170.352Z" fill="#C9CBD7"/>
<path d="M192.022 171.307C184.168 168.012 178.489 167.163 166.951 167.489C176.188 150.946 184.105 141.721 195.651 140.13C194.991 150.628 194.002 159.218 192.022 171.307Z" fill="#C9CBD7"/>
<path d="M166.621 167.49L165.632 169.716C177.507 169.716 185.425 170.671 191.362 174.488L192.022 171.307C185.425 168.126 177.178 167.171 166.621 167.49Z" fill="#122F44"/>
<path d="M190.703 177.351H161.673L165.632 169.398H165.632C169.261 169.398 184.765 169.398 191.362 174.488L191.033 176.079L190.703 177.351Z" fill="#426074"/>
<path d="M219.072 177.351H218.083C220.062 157.309 230.948 139.175 240.515 132.495C242.247 135.149 242.824 142.357 239.525 156.673C239.115 156.753 239.072 156.719 238.205 156.991C240.185 149.674 241.834 137.585 240.515 134.403C226.33 147.765 220.386 165.899 219.072 177.351Z" fill="#BEBEC5"/>
<path d="M240.514 132.495C220.722 131.858 213.134 135.04 195.651 140.13C210.166 148.719 212.805 158.582 218.083 177.033C220.392 157.945 228.969 141.721 240.514 132.495Z" fill="#F1F2F8"/>
<path d="M195.651 140.13C182.023 142.514 174.415 153.127 161.674 177.352H159.364H156.725C160.354 145.22 151.447 106.726 139.902 101C159.694 103.227 181.796 112.135 195.651 140.13Z" fill="#F1F2F8"/>
<path d="M141.221 125.814C138.824 124.273 137.085 123.841 134.293 122.951C135.56 113.93 136.932 108.635 140.231 103.545C142.54 104.817 143.449 106.673 144.85 108.953C142.87 114.043 142.211 117.861 141.221 125.814Z" fill="#1E394D"/>
<path d="M144.85 108.953C148.808 114.68 151.777 124.86 152.437 133.449C148.148 130.268 145.815 128.126 141.221 125.814C142.032 118.405 142.695 114.534 144.85 108.953Z" fill="#011B2E"/>
<path d="M114.837 137.822C114.835 137.849 114.833 137.876 114.83 137.903C114.803 137.877 114.804 137.849 114.837 137.822C115.186 133.664 117.159 125.787 120.109 121.678C123.737 124.223 131.324 136.949 131.654 139.812C130.555 139.282 127.3 138.412 121.758 137.903C116.905 137.457 115.07 137.63 114.837 137.822Z" fill="#1E3646"/>
<rect x="52.8135" y="203.438" width="268.522" height="5.09012" fill="#585A5E"/>
<path d="M106.502 142.993C101.224 149.674 102.515 168.55 104.934 177.351L131.573 176.715L131.243 173.534C130.803 170.459 128.472 162.59 122.666 155.718C116.86 148.847 109.471 144.266 106.502 142.993Z" fill="#172A36"/>
<g filter="url(#filter0_i_102_275)">
<path d="M104.934 177.669C107.046 167.489 115.6 156.884 119.449 153.173C123.078 156.672 124.397 158.808 125.387 160.172C129.675 166.08 131.984 175.124 131.655 177.669L104.934 177.669Z" fill="#426074"/>
</g>
<path d="M131.325 139.494C121.296 136.44 109.882 137.267 105.594 139.176C110.872 141.084 116.48 146.74 118.789 148.72C127.696 156.355 132.314 166.217 133.634 177.351H143.2C141.001 166.747 135.547 143.82 131.325 139.494Z" fill="#F1F2F8"/>
<path d="M132.974 122.315L134.623 122.633C135.868 113.863 136.741 109.31 140.231 103.545C143.53 105.772 146.829 111.498 149.138 118.815C149.138 118.815 152.107 127.405 152.437 133.45C152.767 136.313 155.736 156.991 154.746 177.352H157.055C157.62 165.676 158.086 158.844 157.055 147.447C156.3 136.311 155.52 130.066 151.777 118.815C147.685 108.79 145.231 103.947 139.901 101C137.262 103.545 135.099 110.733 132.974 122.315Z" fill="#D1D1D6"/>
<path d="M105.594 139.175C99.6318 146.683 100.222 167.46 102.955 177.351H104.934C103.195 166.461 102.837 160.955 103.615 152.537C104.193 148.273 104.871 146.398 106.254 143.311C111.943 146.478 115.192 149.151 121.098 154.764C128.026 163.035 130.665 170.989 131.655 177.351H133.634L133.304 174.488C132.807 171.032 130.539 161.763 123.738 153.755C118.38 147.447 109.999 140.766 105.594 139.175Z" fill="#BFBFC4"/>
<path d="M232.597 177.351H231.938C233.587 172.897 234.247 170.034 235.566 165.898C233.917 163.035 232.927 161.763 230.618 159.218C236.886 156.673 238.865 156.354 249.091 156.354C242.164 163.035 240.844 169.398 240.844 177.033C240.185 171.943 236.226 166.853 236.226 166.853L232.597 177.351Z" fill="#C9CBD7"/>
<path d="M254.37 177.351H240.845C240.185 158.899 253.71 147.447 280.43 146.492C265.893 155.082 258.328 164.308 254.37 177.351Z" fill="#F1F2F8"/>
<path d="M277.132 177.351H261.297C261.297 174.806 263.277 170.67 265.586 167.807H270.864L277.132 177.351Z" fill="#C9CBD7"/>
<path d="M242.824 156.354C238.916 156.483 233.917 157.309 229.958 159.218C232.268 161.763 234.247 163.672 236.226 166.853C237.061 161.783 238.998 158.443 242.824 156.354Z" fill="#ACAFBC"/>
<rect x="35" y="208.529" width="302.169" height="15.9066" rx="7.95331" fill="#122F44"/>
<rect x="75.2449" y="193.258" width="224.978" height="10.1802" fill="#F1F2F8"/>
<rect x="85.8013" y="184.351" width="206.504" height="8.90771" fill="#F1F2F8"/>
<rect x="92.3987" y="177.351" width="189.351" height="6.99891" fill="#F1F2F8"/>
<path d="M140.231 166.854C141.634 170.694 142.013 172.52 143.2 177.352H138.912C140.472 172.929 140.927 171.133 140.231 166.854Z" fill="#111F29"/>
<path d="M155.076 177.351H146.169C150.128 158.263 153.475 143.732 152.767 135.676C155.201 150.56 155.252 160.281 155.076 177.351Z" fill="#011B2E"/>
<path d="M141.221 125.814C145.28 127.863 147.689 129.404 152.437 133.449C153.15 137.647 152.824 140.533 152.437 145.538C151.345 153.501 150.274 157.96 148.478 165.899L148.808 154.764C148.11 147.909 147.202 144.226 145.509 138.221C143.741 132.78 143.063 130.1 141.221 125.814Z" fill="#C9CBD7"/>
<path d="M146.169 177.351H144.85C141.221 149.674 128.686 123.587 119.449 119.451C128.686 119.769 136.933 123.269 141.221 125.814C151.777 150.628 149.468 165.262 146.169 177.351Z" fill="#F1F2F8"/>
<path d="M231.938 177.352H219.073C221.052 161.445 228.969 144.902 240.515 134.404C241.729 139.284 240.7 147.279 238.206 156.991C234.934 157.451 233.551 157.975 230.618 159.218C232.268 161.127 233.67 162.805 235.671 165.899L235.628 166.039C234.527 169.584 233.288 173.576 231.938 177.352Z" fill="#011B2E"/>
<path d="M113.511 137.585L114.831 137.267C115.6 132.07 118.789 122.951 120.109 121.678C124.397 124.859 131.242 138.221 131.654 139.812C132.314 142.357 139.901 164.944 143.2 177.351H144.85C143.86 167.171 138.692 149.568 136.932 144.902C134.403 138.221 125.387 121.36 119.449 119.451C116.81 121.996 114.391 132.601 113.511 137.585Z" fill="#D2D2D6"/>
<path d="M119.119 137.585C121.758 137.585 124.727 137.585 131.325 139.494C132.644 140.448 134.392 145.52 135.943 150.31C137.922 156.423 138.582 160.213 140.231 167.171C133.622 151.288 129.078 144.875 119.119 137.585Z" fill="#C6C8D1"/>
<path d="M261.297 177.351H255.689C256.951 173.773 257.741 171.444 259.978 167.807H265.586C263.222 171.329 262.262 173.664 261.297 177.351Z" fill="#999CAE"/>
<rect x="92.3987" y="182.442" width="24.4111" height="1.90879" fill="#011B2E"/>
<rect x="85.1416" y="190.077" width="31.6684" height="3.18132" fill="#011B2E"/>
<rect x="75.2449" y="200.257" width="41.5648" height="3.18132" fill="#011B2E"/>
<rect x="180.807" y="194.531" width="70.5941" height="5.72638" fill="#011B2E"/>
<path fill-rule="evenodd" clip-rule="evenodd" d="M68.0472 106C72.012 106 79.1391 106 83.1039 106V106C87.8817 106 91.7549 102.127 91.7549 97.349C91.7549 92.8273 88.2858 89.1159 83.864 88.731C83.5453 88.7032 83.3019 88.4236 83.3019 88.1037V88.1037C83.3019 84.7118 79.9609 81.9622 75.8396 81.9622V81.9622C73.3325 81.9622 70.4506 81.1362 68.3938 79.7026C66.854 78.6294 64.9818 78 62.9625 78C57.7106 78 53.4531 82.2575 53.4531 87.5094C53.4531 88.0204 53.4934 88.5219 53.571 89.0111C53.5889 89.1238 53.501 89.2263 53.3869 89.2263V89.2263C48.755 89.2263 45.0001 92.9812 45.0001 97.6131C45.0001 102.245 48.755 106 53.3869 106V106C57.31 106 64.1241 106 68.0472 106V106V106Z" fill="white"/>
</g>
<path d="M18.6411 19.2259L209.237 12.1738L153.654 66.5755L23.6789 55.7704L18.6411 19.2259Z" fill="#001489"/>
<path d="M15.978 15.5977H201.628L151.223 62.0102L20.7489 53.1496L15.978 15.5977Z" fill="#007749"/>
<path d="M355.323 253.748H520.049V300.921L371.962 289.914L355.323 253.748Z" fill="black" fill-opacity="0.4"/>
<path d="M352.279 249.943H517.006V297.117L368.918 286.11L352.279 249.943Z" fill="black"/>
<path d="M356.352 220.65H361.678L360.156 245.378L356.646 243.642L356.352 220.65Z" fill="black" fill-opacity="0.4"/>
<path d="M331.612 231.541L338.662 227.688L351.787 245.568L348.168 247.497L331.612 231.541Z" fill="black" fill-opacity="0.4"/>
<path d="M331.814 260.595L329.453 254.266L347.333 251.212L347.602 255.84L331.814 260.595Z" fill="black" fill-opacity="0.4"/>
<path d="M354.942 219.509H360.268L358.746 244.237L355.236 242.501L354.942 219.509Z" fill="black"/>
<path d="M330.202 230.78L337.252 226.927L350.377 244.807L346.758 246.736L330.202 230.78Z" fill="black"/>
<path d="M330.404 259.454L328.043 253.125L345.923 250.071L346.192 254.699L330.404 259.454Z" fill="black"/>
<path d="M149.643 59.656L194.921 15.5977H201.629L151.272 62.0102L20.9238 53.1496L149.643 59.656Z" fill="#026740"/>
<path d="M48.3378 35.6913C48.5191 35.6913 48.6586 35.782 48.7562 35.9633C48.8678 36.1307 48.9236 36.3469 48.9236 36.6119C48.9236 36.9328 48.8748 37.1838 48.7772 37.3652C48.6795 37.5465 48.5261 37.7069 48.3168 37.8464C47.4938 38.3904 46.1826 39.2832 44.3832 40.5247C43.8392 43.4121 43.1347 45.6858 42.2699 47.3458C41.4051 49.0057 40.31 49.8357 38.9849 49.8357C38.2735 49.8357 37.6946 49.6125 37.2482 49.1662C36.8018 48.7337 36.5787 48.1618 36.5787 47.4504C36.5787 46.7948 36.7251 46.1322 37.018 45.4627C37.311 44.7931 37.855 44.0189 38.6501 43.1401C39.4591 42.2613 40.596 41.257 42.0607 40.1271L42.1234 39.7296C41.0214 40.1899 39.9404 40.42 38.8803 40.42C37.318 40.42 35.944 40.1201 34.7583 39.5203C33.5726 38.9066 32.652 38.0417 31.9964 36.9258C31.3407 35.8099 31.0129 34.5126 31.0129 33.034C31.0129 30.9695 31.4035 29.1491 32.1847 27.5729C32.9658 25.9827 34.0399 24.7552 35.4069 23.8903C36.7879 23.0115 38.3293 22.5721 40.0311 22.5721C41.6631 22.5721 42.8837 22.9557 43.6927 23.7229C44.5157 24.4762 44.9272 25.4805 44.9272 26.7359C44.9272 27.5589 44.7738 28.2215 44.4669 28.7237C44.174 29.2119 43.7485 29.456 43.1905 29.456C42.8139 29.456 42.507 29.3654 42.2699 29.184C42.0467 29.0027 41.9351 28.7516 41.9351 28.4308C41.9351 28.2913 41.963 28.0541 42.0188 27.7194C42.1025 27.3288 42.1444 27.0219 42.1444 26.7987C42.1444 26.2129 41.963 25.7595 41.6003 25.4387C41.2516 25.1178 40.6588 24.9574 39.8218 24.9574C38.8035 24.9574 37.855 25.2504 36.9762 25.8362C36.1114 26.4221 35.4139 27.3009 34.8838 28.4726C34.3538 29.6304 34.0887 31.0253 34.0887 32.6574C34.0887 34.3313 34.5421 35.6285 35.4488 36.5492C36.3694 37.4559 37.6946 37.9092 39.4243 37.9092C40.3868 37.9092 41.3911 37.693 42.4373 37.2606L42.7302 34.7079H40.596C40.2054 34.7079 39.9055 34.6172 39.6963 34.4359C39.487 34.2406 39.3824 33.9267 39.3824 33.4943C39.3824 33.1037 39.487 32.7968 39.6963 32.5737C39.9055 32.3505 40.1845 32.2389 40.5332 32.2389H44.446C44.7528 32.2389 45.0039 32.3435 45.1992 32.5527C45.4085 32.748 45.4921 33.034 45.4503 33.4106C45.4085 33.857 45.269 34.8683 45.0318 36.4445L44.8017 38.0347C45.9176 37.1978 46.9359 36.4724 47.8565 35.8587C48.0379 35.7471 48.1983 35.6913 48.3378 35.6913ZM39.215 47.8061C39.5777 47.8061 39.9753 47.3946 40.4077 46.5716C40.8401 45.7486 41.2446 44.4235 41.6213 42.5961C40.5611 43.5028 39.7939 44.3188 39.3197 45.0442C38.8593 45.7835 38.6292 46.4321 38.6292 46.9901C38.6292 47.5341 38.8245 47.8061 39.215 47.8061ZM48.8986 40.42C48.3686 40.42 47.9919 40.1411 47.7687 39.5831C47.5595 39.0251 47.4549 38.1324 47.4549 36.9049C47.4549 35.0915 47.7129 33.3688 48.2291 31.7367C48.3546 31.3322 48.5569 31.0393 48.8359 30.8579C49.1288 30.6626 49.5333 30.565 50.0494 30.565C50.3284 30.565 50.5237 30.5999 50.6353 30.6696C50.7469 30.7393 50.8027 30.8719 50.8027 31.0672C50.8027 31.2903 50.6981 31.7925 50.4888 32.5737C50.3493 33.1316 50.2377 33.6198 50.154 34.0383C50.0704 34.4568 50.0006 34.9729 49.9448 35.5867C50.4051 34.387 50.9212 33.4106 51.4932 32.6574C52.0651 31.9041 52.623 31.3671 53.1671 31.0462C53.725 30.7254 54.2342 30.565 54.6945 30.565C55.6012 30.565 56.0545 31.0183 56.0545 31.925C56.0545 32.1064 55.9918 32.5458 55.8662 33.2432C55.7546 33.8012 55.6988 34.1499 55.6988 34.2894C55.6988 34.7776 55.8732 35.0217 56.2219 35.0217C56.6125 35.0217 57.1147 34.7149 57.7284 34.1011C57.9098 33.9198 58.0981 33.8291 58.2934 33.8291C58.4747 33.8291 58.6142 33.9128 58.7118 34.0802C58.8234 34.2336 58.8792 34.4428 58.8792 34.7079C58.8792 35.224 58.7397 35.6285 58.4608 35.9215C58.0702 36.326 57.6099 36.6747 57.0798 36.9676C56.5637 37.2466 56.0127 37.3861 55.4268 37.3861C54.6875 37.3861 54.1226 37.1978 53.732 36.8212C53.3554 36.4445 53.1671 35.9354 53.1671 35.2937C53.1671 35.0845 53.188 34.8753 53.2298 34.666C53.2577 34.387 53.2717 34.1987 53.2717 34.1011C53.2717 33.8779 53.195 33.7663 53.0415 33.7663C52.8323 33.7663 52.5533 34.0034 52.2046 34.4777C51.8698 34.938 51.535 35.5518 51.2002 36.319C50.8655 37.0862 50.5934 37.8953 50.3842 38.7462C50.2308 39.4018 50.0494 39.8481 49.8402 40.0853C49.6449 40.3085 49.331 40.42 48.8986 40.42ZM66.2669 35.6494C66.4483 35.6494 66.5878 35.7331 66.6854 35.9005C66.797 36.0679 66.8528 36.2981 66.8528 36.591C66.8528 37.149 66.7203 37.5814 66.4552 37.8883C65.9391 38.516 65.2068 39.0949 64.2583 39.6249C63.3237 40.155 62.3193 40.42 61.2452 40.42C59.7806 40.42 58.6437 40.0225 57.8347 39.2274C57.0256 38.4323 56.6211 37.3443 56.6211 35.9633C56.6211 35.0008 56.8234 34.1081 57.2279 33.2851C57.6324 32.4481 58.1904 31.7855 58.9018 31.2973C59.6271 30.8091 60.4432 30.565 61.3499 30.565C62.1589 30.565 62.8075 30.8091 63.2958 31.2973C63.784 31.7716 64.0281 32.4202 64.0281 33.2432C64.0281 34.2057 63.6794 35.0357 62.9819 35.7331C62.2984 36.4166 61.1336 36.9607 59.4877 37.3652C59.8364 38.0068 60.499 38.3277 61.4754 38.3277C62.1031 38.3277 62.8145 38.1115 63.6096 37.679C64.4187 37.2327 65.1161 36.6538 65.702 35.9424C65.8694 35.7471 66.0577 35.6494 66.2669 35.6494ZM60.9942 32.6155C60.478 32.6155 60.0386 32.9154 59.676 33.5152C59.3272 34.115 59.1529 34.8404 59.1529 35.6913V35.7331C59.9759 35.5379 60.6245 35.2449 61.0988 34.8543C61.573 34.4638 61.8102 34.0104 61.8102 33.4943C61.8102 33.2293 61.7335 33.02 61.58 32.8666C61.4405 32.6992 61.2452 32.6155 60.9942 32.6155ZM74.4811 35.6494C74.6625 35.6494 74.8019 35.7331 74.8996 35.9005C75.0112 36.0679 75.067 36.2981 75.067 36.591C75.067 37.149 74.9345 37.5814 74.6694 37.8883C74.1533 38.516 73.421 39.0949 72.4724 39.6249C71.5379 40.155 70.5335 40.42 69.4594 40.42C67.9948 40.42 66.8579 40.0225 66.0489 39.2274C65.2398 38.4323 64.8353 37.3443 64.8353 35.9633C64.8353 35.0008 65.0376 34.1081 65.4421 33.2851C65.8466 32.4481 66.4046 31.7855 67.116 31.2973C67.8413 30.8091 68.6574 30.565 69.564 30.565C70.3731 30.565 71.0217 30.8091 71.51 31.2973C71.9982 31.7716 72.2423 32.4202 72.2423 33.2432C72.2423 34.2057 71.8936 35.0357 71.1961 35.7331C70.5126 36.4166 69.3478 36.9607 67.7018 37.3652C68.0506 38.0068 68.7132 38.3277 69.6896 38.3277C70.3173 38.3277 71.0287 38.1115 71.8238 37.679C72.6329 37.2327 73.3303 36.6538 73.9162 35.9424C74.0836 35.7471 74.2719 35.6494 74.4811 35.6494ZM69.2083 32.6155C68.6922 32.6155 68.2528 32.9154 67.8902 33.5152C67.5414 34.115 67.3671 34.8404 67.3671 35.6913V35.7331C68.1901 35.5379 68.8387 35.2449 69.313 34.8543C69.7872 34.4638 70.0244 34.0104 70.0244 33.4943C70.0244 33.2293 69.9477 33.02 69.7942 32.8666C69.6547 32.6992 69.4594 32.6155 69.2083 32.6155ZM82.6953 35.6494C82.8766 35.6494 83.0161 35.7331 83.1138 35.9005C83.2254 36.0679 83.2812 36.2981 83.2812 36.591C83.2812 37.149 83.1487 37.5814 82.8836 37.8883C82.2838 38.6276 81.6282 39.2344 80.9168 39.7086C80.2054 40.1829 79.3894 40.42 78.4687 40.42C75.6231 40.42 74.2003 38.4183 74.2003 34.4149C74.2003 33.8012 74.2212 33.1804 74.2631 32.5527H73.447C73.0286 32.5527 72.7426 32.476 72.5892 32.3226C72.4497 32.1691 72.3799 31.925 72.3799 31.5902C72.3799 30.8091 72.6938 30.4185 73.3215 30.4185H74.5141C74.7513 28.8841 75.114 27.4822 75.6022 26.2129C76.0904 24.9435 76.6763 23.9322 77.3598 23.1789C78.0572 22.4257 78.8035 22.049 79.5986 22.049C80.1845 22.049 80.6448 22.3071 80.9796 22.8232C81.3143 23.3393 81.4817 23.988 81.4817 24.7691C81.4817 26.9312 80.575 28.8144 78.7617 30.4185H81.1051C81.3283 30.4185 81.4887 30.4673 81.5864 30.565C81.684 30.6626 81.7328 30.844 81.7328 31.109C81.7328 32.0715 80.9447 32.5527 79.3684 32.5527H76.8157C76.7878 33.2502 76.7739 33.7942 76.7739 34.1848C76.7739 35.6355 76.9413 36.6538 77.2761 37.2396C77.6248 37.8255 78.1688 38.1184 78.9081 38.1184C79.5079 38.1184 80.038 37.9371 80.4983 37.5744C80.9586 37.2117 81.5027 36.6677 82.1304 35.9424C82.2978 35.7471 82.4861 35.6494 82.6953 35.6494ZM79.0337 24.0577C78.8244 24.0577 78.5873 24.3227 78.3223 24.8528C78.0712 25.3689 77.8271 26.0943 77.5899 27.0289C77.3667 27.9495 77.1784 28.9748 77.025 30.1047C77.848 29.3933 78.4617 28.5982 78.8663 27.7194C79.2847 26.8266 79.494 26.0176 79.494 25.2922C79.494 24.4692 79.3405 24.0577 79.0337 24.0577ZM84.3185 29.184C83.7327 29.184 83.2933 29.0515 83.0003 28.7865C82.7074 28.5075 82.5609 28.1239 82.5609 27.6357C82.5609 27.1474 82.7493 26.7429 83.1259 26.4221C83.5165 26.0873 83.9977 25.9199 84.5696 25.9199C85.0857 25.9199 85.5042 26.0455 85.825 26.2965C86.1459 26.5476 86.3063 26.9033 86.3063 27.3637C86.3063 27.9216 86.1249 28.368 85.7623 28.7028C85.3996 29.0236 84.9183 29.184 84.3185 29.184ZM84.1511 40.42C83.2444 40.42 82.5819 40.0992 82.1634 39.4576C81.7589 38.8159 81.5566 37.965 81.5566 36.9049C81.5566 36.2772 81.6333 35.4751 81.7868 34.4986C81.9541 33.5083 82.1634 32.5876 82.4145 31.7367C82.54 31.2903 82.7074 30.9835 82.9166 30.8161C83.1259 30.6487 83.4607 30.565 83.921 30.565C84.6324 30.565 84.9881 30.8021 84.9881 31.2764C84.9881 31.6251 84.8556 32.4342 84.5905 33.7035C84.2558 35.2379 84.0884 36.2772 84.0884 36.8212C84.0884 37.2396 84.1442 37.5605 84.2558 37.7837C84.3673 38.0068 84.5557 38.1184 84.8207 38.1184C85.0718 38.1184 85.3856 37.9441 85.7623 37.5953C86.1389 37.2466 86.6411 36.6956 87.2688 35.9424C87.4362 35.7471 87.6245 35.6494 87.8337 35.6494C88.015 35.6494 88.1545 35.7331 88.2522 35.9005C88.3638 36.0679 88.4196 36.2981 88.4196 36.591C88.4196 37.149 88.2871 37.5814 88.022 37.8883C86.6411 39.5761 85.3508 40.42 84.1511 40.42ZM88.2123 40.42C87.6822 40.42 87.3056 40.1411 87.0824 39.5831C86.8732 39.0251 86.7686 38.1324 86.7686 36.9049C86.7686 35.0915 87.0266 33.3688 87.5427 31.7367C87.6683 31.3322 87.8705 31.0393 88.1495 30.8579C88.4425 30.6626 88.847 30.565 89.3631 30.565C89.6421 30.565 89.8374 30.5999 89.949 30.6696C90.0606 30.7393 90.1164 30.8719 90.1164 31.0672C90.1164 31.2903 90.0117 31.7925 89.8025 32.5737C89.663 33.1316 89.5514 33.6198 89.4677 34.0383C89.384 34.4568 89.3143 34.9729 89.2585 35.5867C89.7188 34.387 90.2349 33.4106 90.8068 32.6574C91.3788 31.9041 91.9367 31.3671 92.4807 31.0462C93.0387 30.7254 93.5478 30.565 94.0082 30.565C94.9149 30.565 95.3682 31.0183 95.3682 31.925C95.3682 32.469 95.2148 33.4525 94.9079 34.8753C94.6428 36.0888 94.5103 36.8909 94.5103 37.2815C94.5103 37.8395 94.7126 38.1184 95.1171 38.1184C95.3961 38.1184 95.7239 37.9511 96.1005 37.6163C96.4911 37.2675 97.0072 36.7096 97.6489 35.9424C97.8163 35.7471 98.0046 35.6494 98.2138 35.6494C98.3952 35.6494 98.5347 35.7331 98.6323 35.9005C98.7439 36.0679 98.7997 36.2981 98.7997 36.591C98.7997 37.149 98.6672 37.5814 98.4021 37.8883C97.8023 38.6276 97.1537 39.2344 96.4562 39.7086C95.7727 40.1829 94.9916 40.42 94.1128 40.42C93.4014 40.42 92.8643 40.2178 92.5017 39.8133C92.139 39.3948 91.9576 38.795 91.9576 38.0138C91.9576 37.6232 92.0553 36.9258 92.2506 35.9215C92.4319 35.0427 92.5226 34.4359 92.5226 34.1011C92.5226 33.8779 92.4459 33.7663 92.2924 33.7663C92.1111 33.7663 91.853 34.0034 91.5182 34.4777C91.1974 34.938 90.8626 35.5518 90.5139 36.319C90.1791 37.0862 89.9071 37.8953 89.6979 38.7462C89.5444 39.4018 89.3631 39.8481 89.1539 40.0853C88.9586 40.3085 88.6447 40.42 88.2123 40.42ZM104.2 31.2555C104.549 31.2555 104.793 31.3113 104.932 31.4229C105.086 31.5205 105.162 31.7228 105.162 32.0296C105.162 32.197 105.155 32.3295 105.142 32.4272C105.086 32.8596 104.911 33.9755 104.618 35.775C104.409 36.9886 104.277 37.7906 104.221 38.1812C103.691 41.7801 102.972 44.6187 102.066 46.6972C101.173 48.7895 99.9734 49.8357 98.4669 49.8357C97.7555 49.8357 97.1766 49.6125 96.7302 49.1662C96.2838 48.7337 96.0606 48.1618 96.0606 47.4504C96.0606 46.46 96.4512 45.3929 97.2324 44.2491C98.0135 43.1192 99.4782 41.7243 101.626 40.0643L101.752 39.2483C101.515 39.6249 101.201 39.9179 100.81 40.1271C100.434 40.3224 100.057 40.42 99.6804 40.42C98.8156 40.42 98.1251 40.1062 97.609 39.4785C97.0929 38.8508 96.8348 38.0278 96.8348 37.0095C96.8348 35.8936 97.0929 34.8404 97.609 33.85C98.1251 32.8457 98.8086 32.0436 99.6595 31.4438C100.524 30.83 101.438 30.5231 102.401 30.5231C102.707 30.5231 102.91 30.5859 103.007 30.7114C103.119 30.823 103.21 31.0323 103.279 31.3392C103.544 31.2834 103.851 31.2555 104.2 31.2555ZM100.434 38.3068C100.755 38.3068 101.061 38.1115 101.354 37.7209C101.647 37.3303 101.857 36.7723 101.982 36.047L102.652 32.469C102.08 32.483 101.55 32.7062 101.061 33.1386C100.573 33.5571 100.183 34.115 99.8897 34.8125C99.5968 35.51 99.4503 36.2493 99.4503 37.0304C99.4503 37.4628 99.534 37.7837 99.7014 37.9929C99.8827 38.2021 100.127 38.3068 100.434 38.3068ZM98.697 47.8061C99.0458 47.8061 99.4363 47.3876 99.8688 46.5507C100.315 45.7137 100.741 44.3816 101.145 42.5543C100.071 43.4749 99.2968 44.3049 98.8226 45.0442C98.3483 45.7835 98.1112 46.4321 98.1112 46.9901C98.1112 47.2272 98.153 47.4225 98.2367 47.576C98.3344 47.7294 98.4878 47.8061 98.697 47.8061ZM110.296 40.8804C109.57 40.8804 109.012 40.713 108.622 40.3782C108.245 40.0434 108.057 39.6668 108.057 39.2483C108.057 38.8856 108.189 38.5718 108.455 38.3068C108.72 38.0417 109.11 37.9092 109.626 37.9092C109.808 37.9092 110.017 37.9301 110.254 37.972C110.505 37.9999 110.693 38.0208 110.819 38.0347C110.805 37.6721 110.721 37.3303 110.568 37.0095C110.428 36.6887 110.247 36.3818 110.024 36.0888C109.801 35.782 109.591 35.5169 109.396 35.2937C108.964 36.1167 108.531 36.8002 108.099 37.3443C107.68 37.8883 107.22 38.4044 106.718 38.8926C106.467 39.1437 106.202 39.2692 105.923 39.2692C105.7 39.2692 105.518 39.1925 105.379 39.0391C105.239 38.8717 105.169 38.6694 105.169 38.4323C105.169 38.1533 105.267 37.8953 105.462 37.6581L105.734 37.3233C106.502 36.3748 107.081 35.5936 107.471 34.9799C107.722 34.5754 107.973 34.0941 108.224 33.5362C108.489 32.9782 108.831 32.218 109.25 31.2555C109.515 30.6417 110.066 30.3348 110.903 30.3348C111.293 30.3348 111.565 30.3697 111.719 30.4394C111.872 30.5092 111.949 30.6208 111.949 30.7742C111.949 30.8579 111.921 30.9904 111.865 31.1718C111.809 31.3531 111.733 31.5344 111.635 31.7158C111.384 32.218 111.258 32.6434 111.258 32.9921C111.258 33.2014 111.328 33.4315 111.468 33.6826C111.621 33.9337 111.851 34.2476 112.158 34.6242C112.604 35.21 112.939 35.7122 113.162 36.1307C113.399 36.5352 113.518 36.9816 113.518 37.4698C113.518 38.0557 113.379 38.6136 113.1 39.1437C112.835 39.6598 112.458 40.0783 111.97 40.3991C111.481 40.72 110.924 40.8804 110.296 40.8804ZM128.525 34.4568C128.915 34.4568 129.11 34.7497 129.11 35.3356C129.11 36.4376 128.246 36.9886 126.516 36.9886C126.181 36.9886 125.7 36.9258 125.072 36.8002C125.254 37.6651 125.4 38.6276 125.512 39.6877C125.637 40.7339 125.7 41.5988 125.7 42.2823C125.7 43.7888 125.456 44.9396 124.968 45.7347C124.479 46.5298 123.838 46.9273 123.043 46.9273C122.038 46.9273 121.32 46.2159 120.887 44.7931C120.469 43.3703 120.26 41.2221 120.26 38.3486C120.26 35.6704 120.546 32.9573 121.118 30.2093C121.703 27.4474 122.499 25.1667 123.503 23.3672C124.521 21.5538 125.637 20.6471 126.851 20.6471C127.506 20.6471 128.015 20.9401 128.378 21.5259C128.755 22.1118 128.943 22.8999 128.943 23.8903C128.943 27.1684 126.983 30.7393 123.064 34.6033C122.924 35.9703 122.854 37.1699 122.854 38.2021C122.854 39.6389 122.903 41.1105 123.001 42.617C123.098 44.1375 123.259 44.8977 123.482 44.8977C123.9 44.8977 124.11 44.1724 124.11 42.7217C124.11 41.6336 124.033 40.5805 123.88 39.5622C123.74 38.5439 123.545 37.4698 123.294 36.3399C123.28 36.1586 123.336 35.9284 123.461 35.6494C123.601 35.3705 123.768 35.1264 123.963 34.9171C124.159 34.7079 124.333 34.6033 124.486 34.6033C124.765 34.6033 125.1 34.6172 125.491 34.6451C125.616 34.6591 125.763 34.666 125.93 34.666C126.488 34.666 127.109 34.6172 127.792 34.5196C127.904 34.5056 128.022 34.4917 128.148 34.4777C128.274 34.4638 128.399 34.4568 128.525 34.4568ZM126.411 22.7186C126.16 22.7186 125.846 23.144 125.47 23.9949C125.107 24.8458 124.744 25.9757 124.382 27.3846C124.019 28.7795 123.705 30.2581 123.44 31.8204C124.556 30.551 125.414 29.2328 126.014 27.8658C126.614 26.4849 126.92 25.1946 126.934 23.9949C126.934 23.144 126.76 22.7186 126.411 22.7186ZM129.018 40.42C128.488 40.42 128.111 40.1411 127.888 39.5831C127.678 39.0251 127.574 38.1324 127.574 36.9049C127.574 35.0915 127.832 33.3688 128.348 31.7367C128.474 31.3322 128.676 31.0393 128.955 30.8579C129.248 30.6626 129.652 30.565 130.168 30.565C130.447 30.565 130.643 30.5999 130.754 30.6696C130.866 30.7393 130.922 30.8719 130.922 31.0672C130.922 31.2903 130.817 31.7925 130.608 32.5737C130.468 33.1316 130.357 33.6198 130.273 34.0383C130.189 34.4568 130.12 34.9729 130.064 35.5867C130.524 34.387 131.04 33.4106 131.612 32.6574C132.184 31.9041 132.742 31.3671 133.286 31.0462C133.844 30.7254 134.353 30.565 134.813 30.565C135.72 30.565 136.174 31.0183 136.174 31.925C136.174 32.1064 136.111 32.5458 135.985 33.2432C135.874 33.8012 135.818 34.1499 135.818 34.2894C135.818 34.7776 135.992 35.0217 136.341 35.0217C136.731 35.0217 137.234 34.7149 137.847 34.1011C138.029 33.9198 138.217 33.8291 138.412 33.8291C138.594 33.8291 138.733 33.9128 138.831 34.0802C138.942 34.2336 138.998 34.4428 138.998 34.7079C138.998 35.224 138.859 35.6285 138.58 35.9215C138.189 36.326 137.729 36.6747 137.199 36.9676C136.683 37.2466 136.132 37.3861 135.546 37.3861C134.806 37.3861 134.242 37.1978 133.851 36.8212C133.474 36.4445 133.286 35.9354 133.286 35.2937C133.286 35.0845 133.307 34.8753 133.349 34.666C133.377 34.387 133.391 34.1987 133.391 34.1011C133.391 33.8779 133.314 33.7663 133.16 33.7663C132.951 33.7663 132.672 34.0034 132.324 34.4777C131.989 34.938 131.654 35.5518 131.319 36.319C130.984 37.0862 130.712 37.8953 130.503 38.7462C130.35 39.4018 130.168 39.8481 129.959 40.0853C129.764 40.3085 129.45 40.42 129.018 40.42ZM147.725 33.8919C147.906 33.8919 148.046 33.9825 148.144 34.1639C148.241 34.3452 148.29 34.5754 148.29 34.8543C148.29 35.5239 148.088 35.9215 147.683 36.047C146.846 36.3399 145.926 36.5073 144.921 36.5492C144.656 37.7209 144.133 38.6625 143.352 39.3739C142.571 40.0713 141.685 40.42 140.695 40.42C139.858 40.42 139.139 40.2178 138.54 39.8133C137.954 39.4087 137.507 38.8717 137.2 38.2021C136.894 37.5326 136.74 36.8072 136.74 36.0261C136.74 34.9659 136.942 34.0244 137.347 33.2014C137.751 32.3644 138.309 31.7158 139.021 31.2555C139.732 30.7812 140.52 30.5441 141.385 30.5441C142.445 30.5441 143.296 30.9137 143.938 31.653C144.593 32.3784 144.977 33.2781 145.089 34.3522C145.744 34.3103 146.525 34.1708 147.432 33.9337C147.544 33.9058 147.641 33.8919 147.725 33.8919ZM140.862 38.2021C141.308 38.2021 141.692 38.0208 142.013 37.6581C142.348 37.2954 142.571 36.7723 142.682 36.0888C142.25 35.7959 141.915 35.4123 141.678 34.938C141.455 34.4638 141.343 33.9616 141.343 33.4315C141.343 33.2083 141.364 32.9852 141.406 32.762H141.301C140.743 32.762 140.276 33.034 139.9 33.578C139.537 34.1081 139.356 34.8613 139.356 35.8378C139.356 36.605 139.502 37.1908 139.795 37.5953C140.102 37.9999 140.458 38.2021 140.862 38.2021ZM147.98 40.42C147.45 40.42 147.073 40.1411 146.85 39.5831C146.641 39.0251 146.536 38.1324 146.536 36.9049C146.536 35.0915 146.794 33.3688 147.31 31.7367C147.436 31.3322 147.638 31.0393 147.917 30.8579C148.21 30.6626 148.614 30.565 149.131 30.565C149.409 30.565 149.605 30.5999 149.716 30.6696C149.828 30.7393 149.884 30.8719 149.884 31.0672C149.884 31.2903 149.779 31.7925 149.57 32.5737C149.43 33.1316 149.319 33.6198 149.235 34.0383C149.151 34.4428 149.082 34.952 149.026 35.5657C149.403 34.4777 149.849 33.5571 150.365 32.8038C150.895 32.0506 151.432 31.4926 151.976 31.1299C152.534 30.7533 153.057 30.565 153.545 30.565C154.034 30.565 154.375 30.6766 154.571 30.8998C154.78 31.1229 154.885 31.4647 154.885 31.925C154.885 32.3714 154.752 33.1804 154.487 34.3522C154.375 34.8543 154.299 35.231 154.257 35.4821C154.717 34.3103 155.226 33.3548 155.784 32.6155C156.356 31.8762 156.914 31.3531 157.458 31.0462C158.002 30.7254 158.504 30.565 158.965 30.565C159.411 30.565 159.746 30.6836 159.969 30.9207C160.206 31.1439 160.325 31.4787 160.325 31.925C160.325 32.2877 160.248 32.9712 160.095 33.9755C159.955 34.8264 159.843 35.6355 159.76 36.4027C159.676 37.156 159.634 37.9999 159.634 38.9345C159.634 39.4645 159.523 39.8481 159.299 40.0853C159.09 40.3085 158.741 40.42 158.253 40.42C157.793 40.42 157.458 40.3015 157.249 40.0643C157.04 39.8272 156.935 39.4715 156.935 38.9972C156.935 38.4393 157.033 37.5186 157.228 36.2353C157.395 35.1194 157.479 34.408 157.479 34.1011C157.479 33.8779 157.402 33.7663 157.249 33.7663C157.068 33.7663 156.81 34.0034 156.475 34.4777C156.14 34.938 155.805 35.5518 155.47 36.319C155.136 37.0862 154.864 37.8953 154.654 38.7462C154.501 39.4157 154.32 39.8621 154.11 40.0853C153.915 40.3085 153.594 40.42 153.148 40.42C152.688 40.42 152.339 40.2038 152.102 39.7714C151.878 39.325 151.767 38.788 151.767 38.1603C151.767 37.6302 151.837 36.863 151.976 35.8587C152.088 34.9659 152.144 34.3801 152.144 34.1011C152.144 33.8779 152.067 33.7663 151.913 33.7663C151.704 33.7663 151.439 34.0174 151.118 34.5196C150.797 35.0217 150.484 35.6634 150.177 36.4445C149.884 37.2257 149.647 37.9929 149.465 38.7462C149.312 39.4018 149.131 39.8481 148.921 40.0853C148.726 40.3085 148.412 40.42 147.98 40.42Z" fill="#FFB81C"/>
<path d="M422.544 276.434C420.352 276.434 418.596 276.022 417.277 275.198C415.959 274.357 415.299 273.079 415.299 271.365C415.299 270.458 415.456 269.766 415.769 269.288C416.082 268.81 416.544 268.571 417.154 268.571C417.599 268.571 417.961 268.686 418.242 268.917C418.522 269.148 418.662 269.444 418.662 269.807C418.662 270.137 418.637 270.425 418.588 270.673C418.588 270.738 418.571 270.854 418.538 271.019C418.522 271.184 418.514 271.357 418.514 271.538C418.514 272.28 418.885 272.832 419.627 273.195C420.385 273.557 421.44 273.739 422.792 273.739C424.193 273.739 425.289 273.492 426.081 272.997C426.872 272.486 427.267 271.777 427.267 270.87C427.267 270.31 427.086 269.832 426.723 269.436C426.361 269.024 425.907 268.686 425.363 268.422C424.819 268.142 424.053 267.804 423.064 267.408C421.794 266.914 420.756 266.444 419.948 265.999C419.157 265.554 418.473 264.952 417.896 264.194C417.335 263.419 417.055 262.463 417.055 261.325C417.055 260.138 417.368 259.083 417.994 258.16C418.637 257.237 419.552 256.52 420.739 256.009C421.943 255.498 423.352 255.242 424.968 255.242C426.171 255.242 427.276 255.424 428.281 255.786C429.287 256.132 430.086 256.668 430.68 257.394C431.29 258.119 431.595 259.009 431.595 260.064C431.595 261.103 431.438 261.886 431.125 262.413C430.812 262.941 430.35 263.205 429.74 263.205C429.312 263.205 428.949 263.073 428.652 262.809C428.372 262.545 428.232 262.232 428.232 261.869C428.232 261.556 428.257 261.268 428.306 261.004C428.355 260.509 428.38 260.196 428.38 260.064C428.38 259.372 428.042 258.844 427.366 258.482C426.69 258.119 425.85 257.938 424.844 257.938C423.426 257.938 422.338 258.201 421.58 258.729C420.838 259.24 420.467 259.965 420.467 260.905C420.467 261.531 420.657 262.067 421.036 262.512C421.432 262.957 421.918 263.328 422.495 263.625C423.072 263.922 423.88 264.276 424.918 264.688C426.171 265.199 427.177 265.661 427.935 266.073C428.693 266.485 429.336 267.046 429.864 267.755C430.408 268.463 430.68 269.337 430.68 270.376C430.68 272.321 429.938 273.821 428.454 274.876C426.987 275.915 425.017 276.434 422.544 276.434ZM445.995 270.722C446.21 270.722 446.375 270.821 446.49 271.019C446.622 271.217 446.688 271.489 446.688 271.835C446.688 272.494 446.531 273.005 446.218 273.368C445.509 274.242 444.743 274.959 443.918 275.519C443.111 276.08 442.187 276.36 441.149 276.36C440.275 276.36 439.566 276.047 439.022 275.42C438.082 276.03 437.102 276.343 436.08 276.36C435.865 279.542 435.379 282.196 434.621 284.322C433.862 286.465 432.749 287.537 431.282 287.537C430.392 287.537 429.733 287.216 429.304 286.573C428.875 285.93 428.661 285.039 428.661 283.902C428.661 282.286 429.032 280.399 429.774 278.239C430.516 276.096 431.661 273.731 433.211 271.142C433.211 268.735 433.195 267.062 433.162 266.123C433.145 265.644 433.335 265.265 433.73 264.985C434.126 264.705 434.621 264.565 435.214 264.565C435.56 264.565 435.808 264.639 435.956 264.787C436.121 264.919 436.211 265.191 436.228 265.603C436.228 266.015 436.236 266.32 436.253 266.518C436.78 265.859 437.299 265.389 437.81 265.109C438.322 264.812 438.866 264.664 439.443 264.664C440.366 264.664 441.116 265.035 441.693 265.776C442.286 266.518 442.583 267.491 442.583 268.694C442.583 269.568 442.443 270.417 442.163 271.241C441.882 272.066 441.495 272.816 441 273.492C441.347 273.59 441.635 273.64 441.866 273.64C442.41 273.64 442.929 273.442 443.424 273.046C443.918 272.651 444.553 271.991 445.328 271.068C445.526 270.837 445.748 270.722 445.995 270.722ZM436.203 273.986C436.797 273.854 437.341 273.533 437.835 273.022C438.346 272.494 438.75 271.851 439.047 271.093C439.344 270.318 439.492 269.51 439.492 268.67C439.492 268.175 439.393 267.804 439.195 267.557C438.997 267.293 438.734 267.161 438.404 267.161C437.81 267.161 437.093 267.788 436.253 269.04C436.236 269.766 436.228 270.829 436.228 272.23C436.228 272.989 436.22 273.574 436.203 273.986ZM431.48 285.114C431.925 285.114 432.296 284.141 432.593 282.196C432.89 280.267 433.079 277.86 433.162 274.975C432.453 276.624 431.892 278.198 431.48 279.698C431.068 281.198 430.862 282.46 430.862 283.482C430.862 284.009 430.928 284.413 431.06 284.693C431.175 284.974 431.315 285.114 431.48 285.114ZM457.307 268.645C457.521 268.645 457.686 268.752 457.802 268.966C457.917 269.181 457.975 269.453 457.975 269.782C457.975 270.574 457.736 271.043 457.258 271.192C456.269 271.538 455.181 271.736 453.994 271.785C453.68 273.17 453.062 274.283 452.139 275.124C451.216 275.948 450.169 276.36 448.999 276.36C448.009 276.36 447.16 276.121 446.452 275.643C445.759 275.165 445.232 274.53 444.869 273.739C444.506 272.948 444.325 272.09 444.325 271.167C444.325 269.914 444.564 268.801 445.042 267.829C445.52 266.84 446.18 266.073 447.02 265.529C447.861 264.969 448.792 264.688 449.815 264.688C451.067 264.688 452.073 265.125 452.831 265.999C453.606 266.856 454.06 267.919 454.191 269.189C454.966 269.139 455.889 268.975 456.961 268.694C457.093 268.661 457.208 268.645 457.307 268.645ZM449.196 273.739C449.724 273.739 450.177 273.524 450.556 273.096C450.952 272.667 451.216 272.049 451.348 271.241C450.837 270.895 450.441 270.442 450.161 269.881C449.897 269.321 449.765 268.727 449.765 268.101C449.765 267.837 449.79 267.573 449.839 267.31H449.716C449.056 267.31 448.504 267.631 448.059 268.274C447.63 268.9 447.416 269.791 447.416 270.945C447.416 271.851 447.589 272.544 447.935 273.022C448.298 273.5 448.718 273.739 449.196 273.739ZM457.608 276.36C456.982 276.36 456.537 276.03 456.273 275.371C456.026 274.711 455.902 273.656 455.902 272.206C455.902 270.063 456.207 268.027 456.817 266.098C456.965 265.62 457.204 265.274 457.534 265.059C457.88 264.828 458.358 264.713 458.968 264.713C459.298 264.713 459.529 264.754 459.661 264.837C459.792 264.919 459.858 265.076 459.858 265.307C459.858 265.57 459.735 266.164 459.487 267.087C459.323 267.746 459.191 268.323 459.092 268.818C458.993 269.312 458.91 269.922 458.845 270.648C459.389 269.23 459.999 268.076 460.674 267.186C461.35 266.296 462.01 265.661 462.653 265.282C463.312 264.903 463.914 264.713 464.458 264.713C465.529 264.713 466.065 265.249 466.065 266.32C466.065 266.963 465.884 268.126 465.521 269.807C465.208 271.241 465.051 272.189 465.051 272.651C465.051 273.31 465.29 273.64 465.768 273.64C466.098 273.64 466.486 273.442 466.931 273.046C467.392 272.634 468.002 271.975 468.76 271.068C468.958 270.837 469.181 270.722 469.428 270.722C469.642 270.722 469.807 270.821 469.923 271.019C470.055 271.217 470.121 271.489 470.121 271.835C470.121 272.494 469.964 273.005 469.651 273.368C468.942 274.242 468.175 274.959 467.351 275.519C466.543 276.08 465.62 276.36 464.581 276.36C463.741 276.36 463.106 276.121 462.677 275.643C462.249 275.148 462.034 274.439 462.034 273.516C462.034 273.055 462.15 272.23 462.381 271.043C462.595 270.005 462.702 269.288 462.702 268.892C462.702 268.628 462.611 268.496 462.43 268.496C462.216 268.496 461.911 268.777 461.515 269.337C461.136 269.881 460.74 270.607 460.328 271.513C459.933 272.42 459.611 273.376 459.364 274.382C459.182 275.157 458.968 275.684 458.721 275.964C458.49 276.228 458.119 276.36 457.608 276.36ZM472.719 276.904C471.862 276.904 471.203 276.706 470.741 276.311C470.296 275.915 470.073 275.47 470.073 274.975C470.073 274.547 470.23 274.176 470.543 273.862C470.856 273.549 471.318 273.393 471.928 273.393C472.142 273.393 472.39 273.417 472.67 273.467C472.967 273.5 473.189 273.524 473.337 273.541C473.321 273.112 473.222 272.708 473.041 272.329C472.876 271.95 472.662 271.587 472.398 271.241C472.134 270.879 471.887 270.565 471.656 270.302C471.145 271.274 470.634 272.082 470.123 272.725C469.628 273.368 469.084 273.978 468.491 274.555C468.194 274.852 467.881 275 467.551 275C467.287 275 467.073 274.909 466.908 274.728C466.743 274.53 466.661 274.291 466.661 274.011C466.661 273.681 466.776 273.376 467.007 273.096L467.329 272.7C468.235 271.579 468.919 270.656 469.381 269.931C469.661 269.453 469.991 268.818 470.37 268.027C470.749 267.219 471.12 266.386 471.483 265.529C471.796 264.804 472.447 264.441 473.436 264.441C473.898 264.441 474.219 264.482 474.401 264.565C474.582 264.647 474.673 264.779 474.673 264.96C474.673 265.059 474.64 265.216 474.574 265.43C474.508 265.644 474.417 265.859 474.302 266.073C474.005 266.667 473.857 267.169 473.857 267.582C473.857 267.829 473.939 268.101 474.104 268.398C474.285 268.694 474.557 269.065 474.92 269.51C475.448 270.203 475.843 270.796 476.107 271.291C476.387 271.769 476.527 272.296 476.527 272.873C476.527 273.038 476.511 273.269 476.478 273.566C477.286 273.252 478.234 272.42 479.322 271.068C479.519 270.837 479.742 270.722 479.989 270.722C480.204 270.722 480.368 270.821 480.484 271.019C480.616 271.217 480.682 271.489 480.682 271.835C480.682 272.461 480.525 272.972 480.212 273.368C479.388 274.39 478.596 275.091 477.838 275.47C477.096 275.832 476.173 276.03 475.068 276.063C474.409 276.624 473.626 276.904 472.719 276.904ZM491.284 268.645C491.498 268.645 491.663 268.752 491.779 268.966C491.894 269.181 491.952 269.453 491.952 269.782C491.952 270.574 491.713 271.043 491.235 271.192C490.245 271.538 489.157 271.736 487.97 271.785C487.657 273.17 487.039 274.283 486.116 275.124C485.193 275.948 484.146 276.36 482.975 276.36C481.986 276.36 481.137 276.121 480.428 275.643C479.736 275.165 479.209 274.53 478.846 273.739C478.483 272.948 478.302 272.09 478.302 271.167C478.302 269.914 478.541 268.801 479.019 267.829C479.497 266.84 480.156 266.073 480.997 265.529C481.838 264.969 482.769 264.688 483.791 264.688C485.044 264.688 486.05 265.125 486.808 265.999C487.583 266.856 488.036 267.919 488.168 269.189C488.943 269.139 489.866 268.975 490.938 268.694C491.07 268.661 491.185 268.645 491.284 268.645ZM483.173 273.739C483.701 273.739 484.154 273.524 484.533 273.096C484.929 272.667 485.193 272.049 485.325 271.241C484.814 270.895 484.418 270.442 484.138 269.881C483.874 269.321 483.742 268.727 483.742 268.101C483.742 267.837 483.767 267.573 483.816 267.31H483.693C483.033 267.31 482.481 267.631 482.036 268.274C481.607 268.9 481.393 269.791 481.393 270.945C481.393 271.851 481.566 272.544 481.912 273.022C482.275 273.5 482.695 273.739 483.173 273.739ZM499.819 268.101C500.182 268.101 500.487 268.233 500.734 268.496C500.998 268.744 501.13 269.057 501.13 269.436C501.13 269.65 501.081 269.881 500.982 270.129C500.718 270.738 500.347 271.25 499.869 271.662C499.391 272.074 498.863 272.28 498.286 272.28C497.825 272.28 497.429 272.115 497.099 271.785C496.786 271.456 496.63 271.01 496.63 270.45C496.63 270.137 496.646 269.799 496.679 269.436C496.712 269.172 496.728 268.991 496.728 268.892C496.728 268.76 496.695 268.661 496.63 268.595C496.58 268.529 496.514 268.496 496.432 268.496C496.201 268.496 495.888 268.777 495.492 269.337C495.096 269.881 494.701 270.607 494.305 271.513C493.909 272.42 493.588 273.376 493.341 274.382C493.159 275.173 492.953 275.701 492.723 275.964C492.492 276.228 492.113 276.36 491.585 276.36C490.959 276.36 490.513 276.03 490.25 275.371C490.002 274.711 489.879 273.656 489.879 272.206C489.879 270.063 490.184 268.027 490.794 266.098C490.942 265.62 491.181 265.274 491.511 265.059C491.857 264.828 492.335 264.713 492.945 264.713C493.275 264.713 493.506 264.754 493.637 264.837C493.769 264.919 493.835 265.076 493.835 265.307C493.835 265.57 493.712 266.164 493.464 267.087C493.299 267.746 493.168 268.323 493.069 268.818C492.97 269.312 492.887 269.922 492.821 270.648C493.365 269.23 493.975 268.076 494.651 267.186C495.327 266.296 495.987 265.661 496.63 265.282C497.272 264.903 497.858 264.713 498.385 264.713C498.863 264.713 499.226 264.853 499.473 265.133C499.737 265.397 499.869 265.793 499.869 266.32C499.869 266.634 499.778 267.227 499.597 268.101H499.819ZM504.842 270.45C504.512 270.45 504.24 270.376 504.026 270.227C503.812 270.079 503.705 269.848 503.705 269.535L503.729 269.337C504.01 267.491 504.389 265.389 504.867 263.032C505.345 260.674 505.79 258.638 506.202 256.924C506.466 255.869 507.183 255.341 508.354 255.341C509.409 255.341 509.936 255.679 509.936 256.355C509.936 256.503 509.911 256.668 509.862 256.85C509.433 258.597 508.865 260.715 508.156 263.205C507.447 265.677 506.771 267.829 506.128 269.659C505.947 270.186 505.518 270.45 504.842 270.45ZM503.902 276.36C503.177 276.36 502.625 276.162 502.246 275.766C501.883 275.371 501.702 274.852 501.702 274.209C501.702 273.467 501.908 272.873 502.32 272.428C502.748 271.983 503.342 271.761 504.1 271.761C504.826 271.761 505.37 271.942 505.732 272.305C506.111 272.651 506.301 273.17 506.301 273.862C506.301 274.621 506.087 275.231 505.658 275.692C505.23 276.137 504.644 276.36 503.902 276.36Z" fill="#FFB81C"/>
<path d="M374.877 267.906C374.976 267.906 375.052 267.956 375.105 268.055C375.158 268.154 375.185 268.279 375.185 268.431C375.185 268.622 375.158 268.77 375.105 268.876C375.052 268.975 374.968 269.044 374.854 269.082C374.397 269.242 373.895 269.333 373.347 269.356C373.195 269.987 372.906 270.497 372.48 270.885C372.062 271.273 371.598 271.467 371.088 271.467C370.319 271.467 369.76 271.174 369.41 270.588C369.06 270.003 368.885 269.154 368.885 268.043C368.885 267.062 369.007 265.997 369.25 264.848C369.494 263.691 369.848 262.71 370.312 261.903C370.783 261.089 371.343 260.682 371.989 260.682C372.339 260.682 372.621 260.834 372.834 261.139C373.047 261.435 373.153 261.823 373.153 262.303C373.153 262.927 373.036 263.547 372.8 264.163C372.564 264.779 372.172 265.426 371.624 266.103C372.134 266.141 372.549 266.354 372.868 266.742C373.188 267.123 373.378 267.594 373.439 268.157C373.796 268.135 374.222 268.059 374.717 267.929C374.763 267.914 374.816 267.906 374.877 267.906ZM371.727 261.812C371.575 261.812 371.407 262.04 371.225 262.497C371.05 262.946 370.886 263.558 370.734 264.334C370.582 265.11 370.468 265.959 370.392 266.879C370.894 265.959 371.293 265.148 371.59 264.448C371.894 263.741 372.046 263.113 372.046 262.565C372.046 262.322 372.016 262.135 371.955 262.006C371.902 261.877 371.826 261.812 371.727 261.812ZM371.133 270.257C371.369 270.257 371.578 270.159 371.761 269.961C371.944 269.763 372.065 269.478 372.126 269.105C371.89 268.945 371.708 268.736 371.578 268.477C371.457 268.218 371.396 267.944 371.396 267.655C371.396 267.549 371.411 267.404 371.442 267.222H371.407C371.095 267.222 370.833 267.378 370.62 267.69C370.414 267.994 370.312 268.405 370.312 268.922C370.312 269.356 370.392 269.687 370.551 269.915C370.719 270.143 370.913 270.257 371.133 270.257ZM379.29 268.865C379.389 268.865 379.465 268.911 379.518 269.002C379.579 269.093 379.609 269.219 379.609 269.379C379.609 269.683 379.537 269.919 379.392 270.086C379.111 270.429 378.711 270.744 378.194 271.034C377.684 271.323 377.136 271.467 376.551 271.467C375.752 271.467 375.132 271.25 374.69 270.817C374.249 270.383 374.028 269.79 374.028 269.036C374.028 268.511 374.139 268.024 374.359 267.575C374.58 267.119 374.884 266.757 375.272 266.491C375.668 266.225 376.113 266.092 376.608 266.092C377.049 266.092 377.403 266.225 377.669 266.491C377.935 266.75 378.069 267.104 378.069 267.553C378.069 268.078 377.878 268.53 377.498 268.911C377.125 269.284 376.49 269.58 375.592 269.801C375.782 270.151 376.144 270.326 376.676 270.326C377.019 270.326 377.407 270.208 377.84 269.972C378.282 269.729 378.662 269.413 378.982 269.025C379.073 268.918 379.176 268.865 379.29 268.865ZM376.414 267.21C376.132 267.21 375.892 267.374 375.695 267.701C375.504 268.028 375.409 268.424 375.409 268.888V268.911C375.858 268.804 376.212 268.644 376.471 268.431C376.729 268.218 376.859 267.971 376.859 267.69C376.859 267.545 376.817 267.431 376.733 267.347C376.657 267.256 376.551 267.21 376.414 267.21ZM380.86 271.467C380.114 271.467 379.532 271.258 379.114 270.84C378.703 270.413 378.497 269.854 378.497 269.162C378.497 268.546 378.619 268.005 378.863 267.541C379.106 267.077 379.422 266.719 379.81 266.468C380.198 266.217 380.605 266.092 381.031 266.092C381.45 266.092 381.773 266.217 382.001 266.468C382.237 266.712 382.355 267.028 382.355 267.416C382.355 267.735 382.283 268.005 382.138 268.226C382.001 268.447 381.819 268.557 381.59 268.557C381.446 268.557 381.328 268.523 381.236 268.454C381.153 268.386 381.111 268.291 381.111 268.169C381.111 268.116 381.119 268.055 381.134 267.986C381.149 267.918 381.16 267.868 381.168 267.838C381.206 267.724 381.225 267.617 381.225 267.518C381.225 267.419 381.198 267.343 381.145 267.29C381.1 267.237 381.031 267.21 380.94 267.21C380.765 267.21 380.601 267.29 380.449 267.45C380.297 267.602 380.175 267.811 380.084 268.078C379.992 268.344 379.947 268.637 379.947 268.956C379.947 269.839 380.331 270.28 381.1 270.28C381.411 270.28 381.746 270.178 382.104 269.972C382.469 269.759 382.827 269.443 383.177 269.025C383.268 268.918 383.371 268.865 383.485 268.865C383.584 268.865 383.66 268.911 383.713 269.002C383.774 269.093 383.804 269.219 383.804 269.379C383.804 269.668 383.732 269.904 383.588 270.086C383.23 270.528 382.8 270.87 382.298 271.113C381.803 271.349 381.324 271.467 380.86 271.467ZM388.702 267.906C388.801 267.906 388.877 267.956 388.931 268.055C388.984 268.154 389.011 268.279 389.011 268.431C389.011 268.797 388.9 269.013 388.68 269.082C388.223 269.242 387.721 269.333 387.173 269.356C387.029 269.995 386.743 270.509 386.317 270.897C385.891 271.277 385.408 271.467 384.868 271.467C384.411 271.467 384.019 271.357 383.692 271.136C383.373 270.916 383.129 270.623 382.962 270.257C382.794 269.892 382.711 269.497 382.711 269.071C382.711 268.492 382.821 267.979 383.042 267.53C383.262 267.073 383.567 266.719 383.955 266.468C384.343 266.21 384.773 266.08 385.244 266.08C385.823 266.08 386.287 266.282 386.637 266.685C386.994 267.081 387.204 267.572 387.264 268.157C387.622 268.135 388.048 268.059 388.543 267.929C388.604 267.914 388.657 267.906 388.702 267.906ZM384.959 270.257C385.202 270.257 385.412 270.159 385.587 269.961C385.769 269.763 385.891 269.478 385.952 269.105C385.716 268.945 385.533 268.736 385.404 268.477C385.282 268.218 385.221 267.944 385.221 267.655C385.221 267.534 385.233 267.412 385.256 267.29H385.199C384.894 267.29 384.639 267.438 384.434 267.735C384.236 268.024 384.137 268.435 384.137 268.968C384.137 269.386 384.217 269.706 384.377 269.926C384.544 270.147 384.738 270.257 384.959 270.257ZM388.841 271.467C388.552 271.467 388.347 271.315 388.225 271.011C388.111 270.706 388.054 270.219 388.054 269.55C388.054 268.561 388.195 267.621 388.476 266.731C388.545 266.51 388.655 266.35 388.807 266.252C388.967 266.145 389.188 266.092 389.469 266.092C389.621 266.092 389.728 266.111 389.789 266.149C389.849 266.187 389.88 266.259 389.88 266.366C389.88 266.487 389.823 266.761 389.709 267.187C389.633 267.492 389.572 267.758 389.526 267.986C389.48 268.207 389.442 268.485 389.412 268.819C389.617 268.226 389.861 267.724 390.142 267.313C390.432 266.902 390.724 266.598 391.021 266.4C391.326 266.194 391.611 266.092 391.877 266.092C392.143 266.092 392.33 266.153 392.436 266.274C392.551 266.396 392.608 266.582 392.608 266.834C392.608 267.077 392.535 267.518 392.391 268.157C392.33 268.431 392.288 268.637 392.265 268.774C392.646 267.838 393.068 267.157 393.532 266.731C393.996 266.305 394.43 266.092 394.833 266.092C395.328 266.092 395.575 266.339 395.575 266.834C395.575 267.13 395.491 267.667 395.324 268.443C395.179 269.105 395.107 269.542 395.107 269.755C395.107 270.06 395.217 270.212 395.438 270.212C395.59 270.212 395.769 270.12 395.974 269.938C396.187 269.748 396.469 269.443 396.819 269.025C396.91 268.918 397.013 268.865 397.127 268.865C397.226 268.865 397.302 268.911 397.355 269.002C397.416 269.093 397.447 269.219 397.447 269.379C397.447 269.683 397.374 269.919 397.23 270.086C396.903 270.49 396.549 270.82 396.168 271.079C395.796 271.338 395.37 271.467 394.89 271.467C394.502 271.467 394.209 271.357 394.011 271.136C393.814 270.908 393.715 270.581 393.715 270.155C393.715 269.942 393.768 269.561 393.874 269.013C393.973 268.534 394.023 268.203 394.023 268.021C394.023 267.899 393.981 267.838 393.897 267.838C393.798 267.838 393.658 267.967 393.475 268.226C393.292 268.477 393.11 268.812 392.927 269.23C392.745 269.649 392.596 270.09 392.482 270.554C392.398 270.919 392.299 271.163 392.185 271.285C392.079 271.406 391.904 271.467 391.66 271.467C391.409 271.467 391.219 271.349 391.09 271.113C390.968 270.87 390.907 270.577 390.907 270.235C390.907 269.945 390.945 269.527 391.021 268.979C391.082 268.492 391.113 268.173 391.113 268.021C391.113 267.899 391.071 267.838 390.987 267.838C390.873 267.838 390.728 267.975 390.553 268.249C390.378 268.523 390.207 268.873 390.04 269.299C389.88 269.725 389.751 270.143 389.652 270.554C389.568 270.912 389.469 271.155 389.355 271.285C389.248 271.406 389.077 271.467 388.841 271.467ZM400.61 269.207C400.709 269.207 400.785 269.253 400.838 269.344C400.899 269.436 400.929 269.561 400.929 269.721C400.929 269.995 400.865 270.231 400.735 270.429C400.522 270.756 400.241 271.011 399.891 271.193C399.548 271.376 399.137 271.467 398.658 271.467C397.928 271.467 397.361 271.25 396.958 270.817C396.554 270.375 396.353 269.782 396.353 269.036C396.353 268.511 396.463 268.024 396.684 267.575C396.904 267.119 397.209 266.757 397.597 266.491C397.992 266.225 398.437 266.092 398.932 266.092C399.373 266.092 399.727 266.225 399.993 266.491C400.26 266.75 400.393 267.104 400.393 267.553C400.393 268.078 400.203 268.53 399.822 268.911C399.449 269.284 398.81 269.58 397.905 269.801C398.087 270.151 398.396 270.326 398.829 270.326C399.141 270.326 399.396 270.254 399.594 270.109C399.799 269.965 400.035 269.721 400.302 269.379C400.393 269.265 400.496 269.207 400.61 269.207ZM398.738 267.21C398.456 267.21 398.217 267.374 398.019 267.701C397.829 268.028 397.734 268.424 397.734 268.888V268.911C398.183 268.804 398.536 268.644 398.795 268.431C399.054 268.218 399.183 267.971 399.183 267.69C399.183 267.545 399.141 267.431 399.058 267.347C398.981 267.256 398.875 267.21 398.738 267.21ZM405.549 271.467C405.115 271.467 404.761 271.296 404.488 270.954C404.221 270.611 404.088 270.162 404.088 269.607C404.088 268.998 404.229 268.424 404.51 267.884C404.792 267.336 405.165 266.898 405.629 266.571C406.101 266.236 406.599 266.069 407.124 266.069C407.291 266.069 407.402 266.103 407.455 266.172C407.516 266.232 407.565 266.347 407.603 266.514C407.748 266.484 407.908 266.468 408.083 266.468C408.265 266.468 408.406 266.514 408.505 266.605C408.604 266.697 408.653 266.826 408.653 266.993C408.653 267.168 408.615 267.473 408.539 267.906C408.455 268.371 408.391 268.816 408.345 269.242C408.299 269.66 408.277 270.132 408.277 270.657C408.277 270.946 408.216 271.155 408.094 271.285C407.98 271.406 407.79 271.467 407.523 271.467C407.265 271.467 407.071 271.406 406.941 271.285C406.82 271.155 406.759 270.95 406.759 270.668L406.77 270.486C406.534 271.14 406.127 271.467 405.549 271.467ZM405.994 270.315C406.207 270.315 406.401 270.166 406.576 269.869C406.751 269.573 406.907 269.044 407.044 268.283L407.261 267.13C406.949 267.138 406.66 267.26 406.394 267.496C406.127 267.724 405.914 268.028 405.754 268.409C405.595 268.789 405.515 269.192 405.515 269.618C405.515 269.847 405.557 270.022 405.64 270.143C405.732 270.257 405.85 270.315 405.994 270.315Z" fill="#FFB81C"/>
<path d="M36.4418 256.342C36.8635 256.098 38.1023 255.288 38.1023 254.168M64.3067 211.003C67.4175 213.261 69.1555 215.593 69.5898 218.633M27.0042 243.569L27.0041 243.569L27.0037 243.567L27.0021 243.558L26.9957 243.522C26.9903 243.49 26.9826 243.442 26.9738 243.382C26.9561 243.26 26.9339 243.086 26.9162 242.875C26.8807 242.451 26.8634 241.886 26.9341 241.309C27.005 240.73 27.1631 240.151 27.4701 239.694C27.7737 239.241 28.2257 238.902 28.9038 238.798C29.5916 238.692 30.1264 238.876 30.5486 239.21C30.9756 239.548 31.2935 240.044 31.5273 240.566C31.7605 241.088 31.9054 241.625 31.992 242.033C32.0352 242.237 32.0636 242.408 32.0813 242.527C32.0901 242.587 32.0962 242.634 32.1001 242.666L32.1042 242.702L32.1047 242.706V246.821H31.1302V247.121H32.2547H35.4335C35.541 247.121 35.6436 247.144 35.7349 247.19C36.0127 247.331 36.5761 247.64 37.0678 248.049C37.5686 248.466 37.9523 248.953 37.9523 249.445C37.9523 249.973 37.7912 250.515 37.6256 250.931C37.5433 251.138 37.461 251.31 37.3994 251.431C37.3762 251.477 37.356 251.515 37.3398 251.544H33.1543V251.844H37.3398C37.3558 251.874 37.3759 251.912 37.3989 251.958C37.4602 252.081 37.5423 252.259 37.6245 252.478C37.7893 252.918 37.9523 253.518 37.9523 254.168C37.9523 254.776 37.5448 255.3 37.1039 255.686C36.8867 255.876 36.6687 256.026 36.5047 256.129C36.4229 256.18 36.3549 256.219 36.3078 256.245C36.2913 256.254 36.2774 256.262 36.2663 256.268H33.8291V256.568H36.2441C36.2449 256.568 36.2456 256.569 36.2463 256.57C36.2749 256.597 36.3161 256.637 36.3657 256.687C36.4653 256.789 36.5982 256.932 36.732 257.1C37.0062 257.445 37.2591 257.862 37.2778 258.225C37.2875 258.412 37.2222 258.623 37.1042 258.843C36.9871 259.062 36.8247 259.277 36.6573 259.469C36.4904 259.66 36.3216 259.824 36.1942 259.941C36.1306 259.999 36.0777 260.045 36.0408 260.077C36.0328 260.084 36.0255 260.09 36.0191 260.095C36.017 260.097 36.0149 260.099 36.013 260.1L35.9854 260.105C35.9421 260.113 35.878 260.124 35.7952 260.138C35.6296 260.165 35.3891 260.203 35.0904 260.246C34.4929 260.332 33.6632 260.435 32.7345 260.506C30.8704 260.648 28.632 260.66 27.0671 260.154C26.9795 260.126 26.8984 260.077 26.8253 260.013C26.7736 259.967 26.7221 259.921 26.6709 259.876C25.742 259.056 24.8947 258.308 24.2393 257.219C23.5499 256.074 23.0675 254.54 22.9583 252.137C22.8219 249.136 23.82 247.033 24.8484 245.681C25.3633 245.004 25.8864 244.514 26.28 244.194C26.4505 244.056 26.5965 243.949 26.7069 243.873L27.0042 243.569ZM36.5799 256.477C36.5707 256.468 36.5618 256.459 36.5532 256.45C36.5865 256.431 36.6236 256.408 36.6637 256.383C36.8371 256.275 37.0689 256.115 37.3015 255.912C37.7602 255.51 38.2523 254.91 38.2523 254.168C38.2523 253.47 38.0779 252.833 37.9054 252.373C37.819 252.142 37.7324 251.955 37.6672 251.824C37.6408 251.771 37.6178 251.728 37.5997 251.694C37.6177 251.662 37.6404 251.619 37.6667 251.567C37.7316 251.44 37.818 251.259 37.9043 251.042C38.0761 250.611 38.2523 250.028 38.2523 249.445C38.2523 248.807 37.768 248.242 37.2598 247.819C36.7427 247.388 36.1563 247.068 35.8706 246.923C35.7328 246.853 35.5828 246.821 35.4335 246.821H32.4047V242.795C32.4104 242.792 32.4164 242.79 32.4227 242.787C32.4916 242.757 32.5926 242.713 32.7206 242.661C32.9766 242.557 33.3396 242.418 33.7673 242.278C34.6252 241.999 35.7322 241.723 36.7528 241.723C37.0858 241.723 37.4382 241.732 37.8042 241.748C38.1423 241.762 38.4416 241.561 38.6771 241.287C38.9152 241.009 39.1089 240.634 39.2379 240.241C39.3669 239.849 39.4347 239.428 39.412 239.057C39.3895 238.691 39.276 238.344 39.0106 238.14C37.6904 237.124 36.5123 235.979 35.7562 234.748C34.6754 232.987 34.0288 230.29 33.7283 228.756C33.5965 228.084 32.8771 227.674 32.2261 227.82C31.1325 228.067 29.3563 228.254 27.4724 227.583C25.5934 226.914 23.5892 225.385 22.044 222.166C19.4833 216.832 20.4717 209.727 24.0526 205.004C25.0699 203.662 26.6947 202.449 28.3427 201.454C29.9881 200.46 31.6438 199.691 32.7116 199.233C33.055 199.085 33.2258 198.784 33.3211 198.467C33.3974 198.212 33.4313 197.925 33.4617 197.667C33.4687 197.607 33.4756 197.549 33.4827 197.493C33.4917 197.423 33.5185 197.365 33.5692 197.317C33.6208 197.267 33.7071 197.22 33.8506 197.19C37.1618 196.905 39.0547 198.209 39.9699 199.143C40.063 199.239 40.1945 199.289 40.324 199.316C40.4562 199.343 40.6043 199.35 40.7495 199.345C41.0386 199.334 41.3408 199.274 41.5273 199.206C41.9443 199.055 42.3118 199.031 42.6378 199.105C42.9643 199.178 43.26 199.351 43.529 199.608C44.0709 200.126 44.4923 200.975 44.816 201.986C45.462 204.003 45.6947 206.583 45.778 208.177C45.8186 208.955 46.6536 209.454 47.3608 209.135C53.0408 206.569 56.9379 207.103 63.6029 208.412L63.7799 210.359C63.8079 210.667 63.9706 210.945 64.2186 211.125C67.3102 213.368 69.0148 215.668 69.4413 218.654C69.6669 220.233 70.1739 222.824 70.6236 225.016C70.8486 226.113 71.0596 227.112 71.2142 227.836C71.2916 228.198 71.3549 228.492 71.3988 228.695L71.4496 228.929L71.4629 228.99L71.4659 229.004L71.4667 229.01L71.4714 229.051C71.4755 229.088 71.4813 229.141 71.4883 229.211C71.5023 229.35 71.5208 229.552 71.5392 229.803C71.5758 230.305 71.6114 231.003 71.6072 231.785C71.5987 233.355 71.4294 235.238 70.8036 236.561C70.1392 237.967 68.7465 239.189 67.2384 240.174C65.7341 241.157 64.1342 241.891 63.0798 242.326C62.4189 242.599 62.1712 243.447 62.6791 243.987C63.1779 244.517 63.8602 245.187 64.6237 245.779C65.3853 246.37 66.2379 246.892 67.0771 247.116C67.6876 247.279 68.3185 247.336 68.7942 247.353C69.0326 247.361 69.2333 247.36 69.3748 247.356C69.3981 247.355 69.4198 247.354 69.4398 247.354V248.321C69.4398 248.51 69.4865 248.737 69.551 248.963C69.6161 249.191 69.7024 249.428 69.7879 249.642C69.8734 249.855 69.9589 250.048 70.0229 250.186C70.0521 250.25 70.0769 250.302 70.0953 250.34C70.0793 250.369 70.0591 250.407 70.0357 250.451C69.9767 250.563 69.8972 250.721 69.8155 250.903C69.6541 251.262 69.4762 251.731 69.4404 252.131C69.3762 252.847 69.7356 253.669 70.0893 254.292C70.2686 254.608 70.4514 254.881 70.5893 255.075C70.6578 255.172 70.7154 255.249 70.7562 255.302C70.7511 255.31 70.7458 255.319 70.7403 255.328C70.6967 255.401 70.6385 255.503 70.5802 255.619C70.4671 255.846 70.3394 256.154 70.3394 256.418C70.3394 256.681 70.4671 256.989 70.5802 257.216C70.6385 257.332 70.6967 257.434 70.7403 257.507C70.742 257.51 70.7436 257.512 70.7452 257.515C70.2434 257.954 69.7199 258.206 68.9831 258.299C68.2055 258.397 67.1876 258.319 65.7035 258.082L62.9813 251.413L62.7036 251.526L65.4571 258.272C65.4617 258.284 65.4676 258.295 65.475 258.305C65.475 258.305 65.475 258.305 65.475 258.305L65.475 258.305L65.4754 258.305L65.4772 258.308L65.4849 258.319C65.4918 258.329 65.5022 258.344 65.5156 258.363C65.5424 258.403 65.5814 258.462 65.6293 258.538C65.7252 258.692 65.8565 258.915 65.9972 259.192C66.279 259.749 66.596 260.521 66.7429 261.391C67.0203 263.033 67.0007 264.266 66.9777 265.712C66.9692 266.248 66.9602 266.813 66.9657 267.439C66.9975 271.055 68.0277 273.442 69.4098 275.739C69.8201 276.421 70.2593 277.093 70.7118 277.784C71.7856 279.425 72.9344 281.181 73.9508 283.468C74.1584 283.935 74.1281 284.326 73.9297 284.662C73.7258 285.008 73.3332 285.315 72.7798 285.576C72.2009 285.85 71.4651 286.064 70.634 286.223C70.6841 286.083 70.6641 285.919 70.5478 285.79C70.5335 285.775 70.5219 285.754 70.5144 285.729C70.4456 285.501 70.1871 284.75 69.5962 284.159L68.9214 283.484L68.7093 283.696L69.384 284.371C69.9224 284.91 70.1632 285.603 70.2272 285.816C70.2461 285.879 70.2783 285.94 70.3256 285.992L70.4367 285.891L70.3257 285.992C70.3991 286.073 70.3444 286.203 70.2351 286.207L66.1943 286.353C66.0982 286.357 66.0302 286.349 65.9877 286.332C65.969 286.324 65.9594 286.315 65.9537 286.308C65.9482 286.301 65.9406 286.288 65.9368 286.262C65.8715 285.802 65.6816 284.81 64.4159 283.702L64.2184 283.928C65.4157 284.976 65.5816 285.894 65.6398 286.304C65.65 286.376 65.6759 286.441 65.719 286.495C65.7377 286.519 65.7585 286.539 65.7806 286.556C64.735 286.526 63.7105 286.437 62.788 286.295C61.9748 286.169 61.2443 286.002 60.6499 285.799C60.0517 285.594 59.6068 285.357 59.35 285.1C58.1951 283.945 57.1307 281.968 56.2711 280.009C55.4136 278.055 54.7681 276.138 54.4449 275.119C54.2863 274.619 53.7895 274.305 53.2705 274.37C51.8695 274.547 50.8088 274.559 49.2752 274.372C48.7435 274.307 48.2385 274.635 48.0885 275.151C47.7265 276.397 46.915 278.926 45.7044 281.234C45.099 282.389 44.3968 283.483 43.6054 284.332C42.8132 285.183 41.9416 285.779 40.9981 285.958C38.6538 286.405 35.1337 286.573 32.4536 286.211C31.1089 286.03 30.0009 285.719 29.3549 285.261C29.0348 285.035 28.8413 284.782 28.7761 284.503C28.7111 284.225 28.7666 283.894 29.0025 283.496L29.0027 283.496L29.0028 283.495C29.007 283.488 29.0081 283.486 29.0116 283.481C29.0918 283.356 30.274 281.504 31.6052 279.032C32.935 276.563 34.4199 273.464 35.0988 270.849C35.6241 268.826 35.9059 266.172 36.0567 264.03C36.1322 262.958 36.1751 262.011 36.199 261.333C36.211 260.994 36.2183 260.721 36.2225 260.534C36.2247 260.44 36.2261 260.367 36.2269 260.318L36.227 260.312C36.2297 260.31 36.2324 260.308 36.2352 260.305C36.2745 260.272 36.3303 260.223 36.3968 260.162C36.5298 260.041 36.707 259.868 36.8833 259.666C37.0591 259.465 37.2371 259.231 37.3686 258.985C37.4993 258.741 37.5911 258.473 37.5774 258.209C37.5535 257.744 37.2442 257.262 36.9667 256.913C36.8248 256.735 36.6845 256.584 36.5799 256.477ZM71.0625 257.457L71.0598 257.452L71.0465 257.432C71.0348 257.413 71.0179 257.386 70.9976 257.352C70.9568 257.285 70.9026 257.19 70.8485 257.081C70.7366 256.858 70.6394 256.604 70.6394 256.418C70.6394 256.231 70.7366 255.977 70.8485 255.754C70.9026 255.645 70.9568 255.551 70.9976 255.483C71.0033 255.473 71.0087 255.464 71.0138 255.456C71.0165 255.451 71.0191 255.447 71.0217 255.443H73.1883V255.143H71.0122C71.0071 255.136 71.0015 255.129 70.9955 255.121C70.9565 255.07 70.9007 254.995 70.8338 254.901C70.7001 254.713 70.5232 254.449 70.3502 254.144C69.9992 253.526 69.6839 252.774 69.7392 252.158C69.7703 251.81 69.9298 251.38 70.0891 251.026C70.1677 250.851 70.2443 250.699 70.3013 250.591C70.321 250.553 70.3384 250.521 70.3526 250.495H73.1883V250.195H70.3583C70.3415 250.16 70.32 250.114 70.2953 250.061C70.2328 249.925 70.1495 249.738 70.0664 249.53C69.9832 249.322 69.9008 249.095 69.8394 248.88C69.7774 248.663 69.7398 248.468 69.7398 248.321V247.267C69.7625 247.248 69.7918 247.224 69.8265 247.196C69.9141 247.126 70.0357 247.031 70.1721 246.93C70.4507 246.725 70.7711 246.514 70.9886 246.438C71.0995 246.4 71.3675 246.345 71.6216 246.299C71.7457 246.277 71.8622 246.257 71.9477 246.243L72.0496 246.226L72.0739 246.222L72.1011 246.223L72.2212 246.225C72.3268 246.227 72.4827 246.231 72.6841 246.234C73.0867 246.241 73.6711 246.249 74.3983 246.255C75.8421 246.265 77.8489 246.266 80.114 246.223C80.2437 246.321 80.3783 246.486 80.5107 246.719C80.6544 246.972 80.7894 247.294 80.9103 247.671C81.1521 248.424 81.3331 249.382 81.4167 250.413C81.5845 252.482 81.3576 254.807 80.4801 256.343C80.0524 257.092 79.0726 257.843 77.9582 258.391C76.845 258.939 75.6367 259.264 74.7752 259.192C73.4542 259.082 72.5228 258.642 71.9234 258.233C71.6233 258.029 71.4059 257.832 71.2644 257.687C71.1937 257.614 71.1419 257.555 71.1083 257.514C71.0916 257.494 71.0793 257.479 71.0715 257.468L71.0631 257.457L71.0625 257.457ZM72.2275 245.925L72.1612 245.924C72.1533 245.906 72.1442 245.886 72.1341 245.863C72.0923 245.769 72.0331 245.633 71.9633 245.466C71.8236 245.131 71.6423 244.67 71.4751 244.169C71.3077 243.666 71.1557 243.126 71.0731 242.631C70.9897 242.131 70.9811 241.697 71.0815 241.396C71.3228 240.672 71.713 239.9 72.2279 239.314C72.7429 238.728 73.3689 238.342 74.0864 238.35C74.3254 238.352 74.5031 238.405 74.6389 238.491C74.7747 238.577 74.8792 238.702 74.9609 238.866C75.128 239.202 75.1889 239.679 75.2272 240.242C75.2367 240.382 75.2449 240.526 75.2531 240.674C75.2777 241.11 75.3037 241.575 75.3719 242.021C75.4634 242.62 75.6334 243.209 75.9922 243.688C76.6217 244.527 77.0863 244.996 77.6874 245.337C78.1002 245.571 78.5742 245.742 79.2008 245.938C77.3119 245.965 75.6463 245.964 74.4006 245.955C73.6744 245.949 73.091 245.941 72.6892 245.934C72.4883 245.931 72.3328 245.928 72.2275 245.925ZM64.0787 210.332L63.8951 208.313L63.9335 208.231C63.9697 208.153 64.0231 208.04 64.092 207.897C64.2298 207.611 64.4292 207.206 64.6758 206.73C65.1693 205.777 65.8501 204.544 66.6015 203.416C67.3559 202.282 68.1703 201.272 68.9278 200.749C69.3061 200.488 69.6523 200.361 69.9584 200.381C70.2563 200.401 70.5471 200.563 70.8161 200.95C70.9289 201.113 71.0445 201.324 71.1478 201.534C71.3818 202.008 71.9138 202.283 72.4374 202.158C73.3944 201.93 75.0423 201.593 76.4164 201.589C77.1063 201.587 77.7057 201.67 78.1129 201.876C78.3139 201.978 78.4617 202.107 78.5538 202.265C78.6453 202.422 78.6891 202.619 78.6619 202.873C78.6216 203.249 78.4303 203.702 78.2299 204.086C77.9725 204.579 78.0781 205.212 78.5267 205.562C81.2475 207.685 82.9486 210.014 83.8122 212.609C84.6761 215.205 84.706 218.081 84.0618 221.302C83.4318 224.452 81.5585 226.305 79.7587 227.386C77.9556 228.469 76.23 228.774 75.9172 228.823C75.8888 228.827 75.8626 228.829 75.8295 228.829H71.7348L71.692 228.631C71.6481 228.429 71.5849 228.135 71.5076 227.773C71.3531 227.05 71.1423 226.052 70.9175 224.956C70.4676 222.763 69.9624 220.181 69.7383 218.611C69.2963 215.517 67.5248 213.153 64.3948 210.882C64.2147 210.751 64.0986 210.551 64.0787 210.332ZM31.3905 285.905C31.6964 285.271 32.0434 284.597 33.1319 283.944L32.9775 283.687C31.8168 284.383 31.4375 285.117 31.1203 285.774L31.3905 285.905ZM35.6787 286.289C35.6787 285.256 36.5074 284.622 37.1505 284.407L37.0556 284.123C36.3493 284.358 35.3787 285.074 35.3787 286.289H35.6787Z" fill="#A8B7BE" stroke="#747474" stroke-width="0.3" stroke-linejoin="round"/>
<path d="M58.4126 223.765C57.5132 222.865 53.9146 222.865 53.0149 223.765C51.2157 225.564 49.7067 232.099 51.2155 234.11C52.565 235.91 58.4127 236.135 59.7621 234.11C61.3365 230.287 59.312 224.664 58.4126 223.765Z" fill="#343434"/>
<ellipse cx="46.5492" cy="223.089" rx="1.88924" ry="1.88928" fill="#232323"/>
<ellipse cx="63.1925" cy="224.439" rx="1.7543" ry="1.75433" fill="#232323"/>
<path d="M53.5 245.5C60.5711 245.5 63.0909 252 66 260C67.8182 265 64.821 269.59 61 271.5C54 275 47 275.5 44 270.5C41.6698 266.616 41.6991 262.156 43.5 258C45.7569 252.792 48.5 245.5 53.5 245.5Z" fill="#BCC6CA"/>
<path d="M41.4864 204.357C44.0076 207.315 42.5514 211.714 38.2556 216.357C33.9598 221 28.981 223.958 26.4598 221C23.9387 218.041 24.8204 209.311 29.1258 205.643C33.4311 201.974 38.9653 201.398 41.4864 204.357Z" fill="#BCC6CA"/>
<path d="M71.7043 206.602C69.0016 207.968 67.7042 211.102 71.1823 217.098C74.6603 223.094 72.7043 225.102 76.2043 225.102C79.2329 225.102 83.0772 216.315 80.9695 212.148C78.8617 207.98 76.7043 206.102 71.7043 206.602Z" fill="#BCC6CA"/>
<defs>
<filter id="filter0_i_102_275" x="104.934" y="153.173" width="26.7512" height="24.4961" filterUnits="userSpaceOnUse" color-interpolation-filters="sRGB">
<feFlood flood-opacity="0" result="BackgroundImageFix"/>
<feBlend mode="normal" in="SourceGraphic" in2="BackgroundImageFix" result="shape"/>
<feColorMatrix in="SourceAlpha" type="matrix" values="0 0 0 0 0 0 0 0 0 0 0 0 0 0 0 0 0 0 127 0" result="hardAlpha"/>
<feOffset dx="-2.4" dy="4"/>
<feComposite in2="hardAlpha" operator="arithmetic" k2="-1" k3="1"/>
<feColorMatrix type="matrix" values="0 0 0 0 0.183333 0 0 0 0 0.273333 0 0 0 0 0.333333 0 0 0 1 0"/>
<feBlend mode="normal" in2="shape" result="effect1_innerShadow_102_275"/>
</filter>
<linearGradient id="paint0_linear_102_275" x1="510.898" y1="140.451" x2="487.307" y2="159.592" gradientUnits="userSpaceOnUse">
<stop stop-color="#9ACA3B"/>
<stop offset="1" stop-color="#1C7D3E"/>
</linearGradient>
<linearGradient id="paint1_linear_102_275" x1="457.561" y1="146.177" x2="481.153" y2="165.317" gradientUnits="userSpaceOnUse">
<stop stop-color="#CEDB2B"/>
<stop offset="1" stop-color="#AED138"/>
</linearGradient>
<linearGradient id="paint2_linear_102_275" x1="494.037" y1="163.582" x2="477.523" y2="176.98" gradientUnits="userSpaceOnUse">
<stop stop-color="#55A145"/>
<stop offset="1" stop-color="#106A35"/>
</linearGradient>
<linearGradient id="paint3_linear_102_275" x1="250" y1="223" x2="250" y2="323.5" gradientUnits="userSpaceOnUse">
<stop stop-color="#39C4FF"/>
<stop offset="1" stop-color="#CBE7D6"/>
</linearGradient>
<linearGradient id="paint4_linear_102_275" x1="381.5" y1="178" x2="375.5" y2="215.5" gradientUnits="userSpaceOnUse">
<stop stop-color="#FFE769" stop-opacity="0.06"/>
<stop offset="0.859375" stop-color="#21BDFF"/>
</linearGradient>
<linearGradient id="paint5_linear_102_275" x1="269" y1="239" x2="269.111" y2="274.897" gradientUnits="userSpaceOnUse">
<stop stop-color="#42C7FF" stop-opacity="0"/>
<stop offset="1" stop-color="#0DB7FF"/>
</linearGradient>
<linearGradient id="paint6_linear_102_275" x1="105.5" y1="219" x2="106" y2="259" gradientUnits="userSpaceOnUse">
<stop stop-color="#42C7FF" stop-opacity="0"/>
<stop offset="1" stop-color="#0DB7FF"/>
</linearGradient>
<linearGradient id="paint7_linear_102_275" x1="448.5" y1="55.9998" x2="240" y2="178.5" gradientUnits="userSpaceOnUse">
<stop stop-color="#FFE974"/>
<stop offset="1" stop-color="#FFE974" stop-opacity="0"/>
</linearGradient>
<linearGradient id="paint8_linear_102_275" x1="471.898" y1="155.451" x2="448.307" y2="174.592" gradientUnits="userSpaceOnUse">
<stop stop-color="#9ACA3B"/>
<stop offset="1" stop-color="#1C7D3E"/>
</linearGradient>
<linearGradient id="paint9_linear_102_275" x1="418.561" y1="161.177" x2="442.153" y2="180.317" gradientUnits="userSpaceOnUse">
<stop stop-color="#CEDB2B"/>
<stop offset="1" stop-color="#AED138"/>
</linearGradient>
<linearGradient id="paint10_linear_102_275" x1="455.037" y1="178.582" x2="438.523" y2="191.98" gradientUnits="userSpaceOnUse">
<stop stop-color="#55A145"/>
<stop offset="1" stop-color="#106A35"/>
</linearGradient>
<clipPath id="clip0_102_275">
<rect width="465" height="237" fill="white" transform="translate(31 36)"/>
</clipPath>
</defs>
</svg>
