<svg width="404" height="139" viewBox="0 0 404 139" fill="none" xmlns="http://www.w3.org/2000/svg">
<path d="M404 18.1788C404 18.1788 255.985 -21.2226 197.525 15.9897C139.065 53.202 1.00001 32.977 1.00001 32.977V130.909C1.00001 130.909 83.0926 159.148 160.832 110.115C238.571 61.0824 382.233 103.985 382.233 103.985C382.233 103.985 370.417 69.8383 323.151 58.8935C275.886 47.9487 279.617 43.1318 279.617 43.1318C279.617 43.1318 283.971 29.1234 313.201 22.9944C342.431 16.8655 404 18.1788 404 18.1788Z" fill="#F3F1E5"/>
<path d="M16.456 85.432C15.048 85.432 13.96 85.048 13.192 84.28C12.424 83.48 12.04 82.376 12.04 80.968V58.36H4.504C3.32 58.36 2.408 58.056 1.768 57.448C1.16 56.808 0.856 55.912 0.856 54.76C0.856 53.576 1.16 52.68 1.768 52.072C2.408 51.464 3.32 51.16 4.504 51.16H28.408C29.592 51.16 30.488 51.464 31.096 52.072C31.736 52.68 32.056 53.576 32.056 54.76C32.056 55.912 31.736 56.808 31.096 57.448C30.488 58.056 29.592 58.36 28.408 58.36H20.872V80.968C20.872 82.376 20.504 83.48 19.768 84.28C19.032 85.048 17.928 85.432 16.456 85.432ZM38.7978 85.528C36.9738 85.528 35.3578 85.192 33.9498 84.52C32.5738 83.848 31.4858 82.936 30.6858 81.784C29.9178 80.6 29.5338 79.256 29.5338 77.752C29.5338 76.024 29.9818 74.664 30.8778 73.672C31.7738 72.68 33.2138 71.976 35.1978 71.56C37.1818 71.112 39.8218 70.888 43.1178 70.888H45.7578V74.92H43.1178C41.8698 74.92 40.8298 75.016 39.9978 75.208C39.1978 75.368 38.6058 75.64 38.2218 76.024C37.8378 76.376 37.6458 76.84 37.6458 77.416C37.6458 78.152 37.9018 78.76 38.4138 79.24C38.9578 79.72 39.7258 79.96 40.7178 79.96C41.5178 79.96 42.2218 79.784 42.8298 79.432C43.4698 79.08 43.9818 78.6 44.3658 77.992C44.7498 77.352 44.9418 76.616 44.9418 75.784V70.216C44.9418 69.064 44.6378 68.248 44.0298 67.768C43.4538 67.288 42.4458 67.048 41.0058 67.048C40.2378 67.048 39.3738 67.144 38.4138 67.336C37.4538 67.496 36.3818 67.8 35.1978 68.248C34.3338 68.568 33.5978 68.616 32.9898 68.392C32.3818 68.168 31.9018 67.784 31.5498 67.24C31.2298 66.696 31.0698 66.104 31.0698 65.464C31.1018 64.824 31.3098 64.216 31.6938 63.64C32.1098 63.064 32.7338 62.616 33.5658 62.296C35.1018 61.72 36.5098 61.336 37.7898 61.144C39.1018 60.952 40.3018 60.856 41.3898 60.856C44.0138 60.856 46.1738 61.24 47.8698 62.008C49.5978 62.744 50.8778 63.896 51.7098 65.464C52.5738 67 53.0058 68.984 53.0058 71.416V81.112C53.0058 82.52 52.6698 83.592 51.9978 84.328C51.3258 85.064 50.3498 85.432 49.0698 85.432C47.7578 85.432 46.7498 85.064 46.0458 84.328C45.3738 83.592 45.0378 82.52 45.0378 81.112V79.864L45.3258 80.536C45.1658 81.56 44.7978 82.44 44.2218 83.176C43.6458 83.912 42.8938 84.488 41.9658 84.904C41.0378 85.32 39.9818 85.528 38.7978 85.528ZM62.095 85.432C60.751 85.432 59.711 85.064 58.975 84.328C58.239 83.592 57.871 82.52 57.871 81.112V65.224C57.871 63.848 58.223 62.792 58.927 62.056C59.663 61.32 60.703 60.952 62.047 60.952C63.391 60.952 64.415 61.32 65.119 62.056C65.823 62.792 66.175 63.848 66.175 65.224V67.48L65.647 65.512C66.415 64.008 67.503 62.856 68.911 62.056C70.351 61.256 71.983 60.856 73.807 60.856C75.695 60.856 77.247 61.224 78.463 61.96C79.679 62.664 80.591 63.784 81.199 65.32C81.807 66.824 82.111 68.728 82.111 71.032V81.112C82.111 82.52 81.743 83.592 81.007 84.328C80.271 85.064 79.215 85.432 77.839 85.432C76.463 85.432 75.407 85.064 74.671 84.328C73.935 83.592 73.567 82.52 73.567 81.112V71.368C73.567 69.928 73.311 68.904 72.799 68.296C72.319 67.688 71.599 67.384 70.639 67.384C69.359 67.384 68.335 67.8 67.567 68.632C66.799 69.432 66.415 70.52 66.415 71.896V81.112C66.415 83.992 64.975 85.432 62.095 85.432ZM98.6924 94.168C96.9324 94.168 95.2844 94.04 93.7484 93.784C92.2124 93.56 90.8844 93.224 89.7644 92.776C88.8364 92.456 88.1804 91.992 87.7964 91.384C87.4124 90.776 87.2364 90.136 87.2684 89.464C87.3004 88.792 87.4764 88.184 87.7964 87.64C88.1484 87.096 88.6124 86.696 89.1884 86.44C89.7644 86.216 90.4044 86.232 91.1084 86.488C92.5164 87.064 93.7964 87.432 94.9484 87.592C96.1004 87.784 97.0764 87.88 97.8764 87.88C99.8284 87.88 101.284 87.464 102.244 86.632C103.236 85.832 103.732 84.568 103.732 82.84V79.816H104.116C103.636 81.16 102.66 82.264 101.188 83.128C99.7164 83.96 98.1164 84.376 96.3884 84.376C94.2764 84.376 92.4364 83.896 90.8684 82.936C89.3004 81.944 88.0684 80.568 87.1724 78.808C86.3084 77.048 85.8764 74.984 85.8764 72.616C85.8764 70.824 86.1324 69.208 86.6444 67.768C87.1564 66.328 87.8604 65.096 88.7564 64.072C89.6844 63.048 90.7884 62.264 92.0684 61.72C93.3804 61.144 94.8204 60.856 96.3884 60.856C98.1804 60.856 99.7804 61.272 101.188 62.104C102.628 62.936 103.588 64.024 104.068 65.368L103.588 67.336V65.224C103.588 63.848 103.956 62.792 104.692 62.056C105.46 61.32 106.516 60.952 107.86 60.952C109.204 60.952 110.228 61.32 110.932 62.056C111.668 62.792 112.036 63.848 112.036 65.224V81.832C112.036 85.928 110.884 89 108.58 91.048C106.276 93.128 102.98 94.168 98.6924 94.168ZM99.0284 78.088C99.9884 78.088 100.804 77.88 101.476 77.464C102.148 77.016 102.676 76.392 103.06 75.592C103.444 74.76 103.636 73.768 103.636 72.616C103.636 70.888 103.22 69.544 102.388 68.584C101.556 67.624 100.436 67.144 99.0284 67.144C98.1324 67.144 97.3324 67.368 96.6284 67.816C95.9244 68.232 95.3804 68.856 94.9964 69.688C94.6444 70.488 94.4684 71.464 94.4684 72.616C94.4684 74.344 94.8844 75.688 95.7164 76.648C96.5484 77.608 97.6524 78.088 99.0284 78.088ZM129.891 85.528C127.011 85.528 124.515 85.032 122.403 84.04C120.323 83.016 118.723 81.576 117.603 79.72C116.483 77.864 115.923 75.672 115.923 73.144C115.923 70.712 116.451 68.584 117.507 66.76C118.595 64.904 120.067 63.464 121.923 62.44C123.811 61.384 125.955 60.856 128.355 60.856C130.115 60.856 131.715 61.144 133.155 61.72C134.595 62.264 135.827 63.08 136.851 64.168C137.875 65.224 138.643 66.504 139.155 68.008C139.699 69.512 139.971 71.192 139.971 73.048C139.971 73.688 139.795 74.168 139.443 74.488C139.091 74.776 138.531 74.92 137.763 74.92H123.075V70.888H133.731L132.963 71.512C132.963 70.328 132.803 69.368 132.483 68.632C132.163 67.896 131.683 67.336 131.043 66.952C130.435 66.568 129.667 66.376 128.739 66.376C127.747 66.376 126.883 66.616 126.147 67.096C125.443 67.544 124.899 68.216 124.515 69.112C124.131 70.008 123.939 71.128 123.939 72.472V72.904C123.939 75.176 124.435 76.808 125.427 77.8C126.451 78.76 128.019 79.24 130.131 79.24C130.835 79.24 131.635 79.16 132.531 79C133.459 78.808 134.339 78.552 135.171 78.232C136.003 77.912 136.723 77.864 137.331 78.088C137.939 78.28 138.403 78.632 138.723 79.144C139.075 79.624 139.267 80.184 139.299 80.824C139.331 81.432 139.187 82.04 138.867 82.648C138.547 83.224 138.019 83.672 137.283 83.992C136.163 84.504 134.963 84.888 133.683 85.144C132.435 85.4 131.171 85.528 129.891 85.528ZM148.02 85.432C146.612 85.432 145.524 85.064 144.756 84.328C144.02 83.592 143.652 82.52 143.652 81.112V65.224C143.652 63.848 144.004 62.792 144.708 62.056C145.444 61.32 146.484 60.952 147.828 60.952C149.172 60.952 150.196 61.32 150.9 62.056C151.604 62.792 151.956 63.848 151.956 65.224V67.192H151.476C151.796 65.272 152.612 63.752 153.924 62.632C155.268 61.512 156.932 60.92 158.916 60.856C159.844 60.824 160.532 61.064 160.98 61.576C161.46 62.056 161.716 62.968 161.748 64.312C161.748 65.464 161.508 66.376 161.028 67.048C160.548 67.72 159.636 68.12 158.292 68.248L157.188 68.344C155.492 68.504 154.26 68.984 153.492 69.784C152.724 70.552 152.34 71.704 152.34 73.24V81.112C152.34 82.52 151.972 83.592 151.236 84.328C150.5 85.064 149.428 85.432 148.02 85.432ZM168.689 85.432C167.345 85.432 166.305 85.032 165.569 84.232C164.833 83.432 164.465 82.28 164.465 80.776V65.608C164.465 64.104 164.833 62.952 165.569 62.152C166.305 61.352 167.345 60.952 168.689 60.952C170.065 60.952 171.121 61.352 171.857 62.152C172.625 62.952 173.009 64.104 173.009 65.608V80.776C173.009 82.28 172.641 83.432 171.905 84.232C171.169 85.032 170.097 85.432 168.689 85.432ZM168.689 57.544C167.185 57.544 166.017 57.192 165.185 56.488C164.385 55.784 163.985 54.76 163.985 53.416C163.985 52.104 164.385 51.096 165.185 50.392C166.017 49.688 167.185 49.336 168.689 49.336C170.257 49.336 171.441 49.688 172.241 50.392C173.041 51.096 173.441 52.104 173.441 53.416C173.441 54.76 173.041 55.784 172.241 56.488C171.441 57.192 170.257 57.544 168.689 57.544ZM182.189 85.432C180.845 85.432 179.805 85.064 179.069 84.328C178.333 83.592 177.965 82.52 177.965 81.112V65.224C177.965 63.848 178.317 62.792 179.021 62.056C179.757 61.32 180.797 60.952 182.141 60.952C183.485 60.952 184.509 61.32 185.213 62.056C185.917 62.792 186.269 63.848 186.269 65.224V67.48L185.741 65.512C186.509 64.008 187.597 62.856 189.005 62.056C190.445 61.256 192.077 60.856 193.901 60.856C195.789 60.856 197.341 61.224 198.557 61.96C199.773 62.664 200.685 63.784 201.293 65.32C201.901 66.824 202.205 68.728 202.205 71.032V81.112C202.205 82.52 201.837 83.592 201.101 84.328C200.365 85.064 199.309 85.432 197.933 85.432C196.557 85.432 195.501 85.064 194.765 84.328C194.029 83.592 193.661 82.52 193.661 81.112V71.368C193.661 69.928 193.405 68.904 192.893 68.296C192.413 67.688 191.693 67.384 190.733 67.384C189.453 67.384 188.429 67.8 187.661 68.632C186.893 69.432 186.509 70.52 186.509 71.896V81.112C186.509 83.992 185.069 85.432 182.189 85.432ZM219.938 85.528C217.058 85.528 214.562 85.032 212.45 84.04C210.37 83.016 208.77 81.576 207.65 79.72C206.53 77.864 205.97 75.672 205.97 73.144C205.97 70.712 206.498 68.584 207.554 66.76C208.642 64.904 210.114 63.464 211.97 62.44C213.858 61.384 216.002 60.856 218.402 60.856C220.162 60.856 221.762 61.144 223.202 61.72C224.642 62.264 225.874 63.08 226.898 64.168C227.922 65.224 228.69 66.504 229.202 68.008C229.746 69.512 230.018 71.192 230.018 73.048C230.018 73.688 229.842 74.168 229.49 74.488C229.138 74.776 228.578 74.92 227.81 74.92H213.122V70.888H223.778L223.01 71.512C223.01 70.328 222.85 69.368 222.53 68.632C222.21 67.896 221.73 67.336 221.09 66.952C220.482 66.568 219.714 66.376 218.786 66.376C217.794 66.376 216.93 66.616 216.194 67.096C215.49 67.544 214.946 68.216 214.562 69.112C214.178 70.008 213.986 71.128 213.986 72.472V72.904C213.986 75.176 214.482 76.808 215.474 77.8C216.498 78.76 218.066 79.24 220.178 79.24C220.882 79.24 221.682 79.16 222.578 79C223.506 78.808 224.386 78.552 225.218 78.232C226.05 77.912 226.77 77.864 227.378 78.088C227.986 78.28 228.45 78.632 228.77 79.144C229.122 79.624 229.314 80.184 229.346 80.824C229.378 81.432 229.234 82.04 228.914 82.648C228.594 83.224 228.066 83.672 227.33 83.992C226.21 84.504 225.01 84.888 223.73 85.144C222.482 85.4 221.218 85.528 219.938 85.528Z" fill="#47455C"/>
</svg>
